<?xml version="1.0" encoding="UTF-8"?>
<svg version="1.1" xmlns="http://www.w3.org/2000/svg" width="903" height="904">
<path d="M0 0 C52.71238798 -1.14426313 104.46386354 19.86112712 146.13671875 51.12890625 C147.06605225 51.82282471 147.06605225 51.82282471 148.01416016 52.53076172 C156.89050207 59.20400836 165.13107693 66.43927661 173.13671875 74.12890625 C174.4825 75.4128125 174.4825 75.4128125 175.85546875 76.72265625 C181.77416235 82.49520927 187.07327908 88.59706908 192.13671875 95.12890625 C192.56597656 95.67643555 192.99523437 96.22396484 193.4375 96.78808594 C226.41167639 139.09861054 236.49864341 192.93525278 240.76171875 245.19140625 C240.82527557 245.96255768 240.8888324 246.73370911 240.95431519 247.52822876 C241.67106067 256.35749686 242.20729158 265.1692183 242.484375 274.0234375 C242.54346979 275.63080159 242.60319341 277.23814269 242.66357422 278.84545898 C242.77752593 281.88108698 242.84104061 284.91201606 242.87548828 287.94946289 C242.95063899 295.15256371 242.95063899 295.15256371 245.89257812 301.53735352 C247.8905742 303.2897206 249.90648296 304.69330545 252.13671875 306.12890625 C263.33742153 316.8427594 267.87060269 332.96440147 268.38671875 348.06640625 C268.19769625 363.35622665 263.97121236 377.59228697 254.78515625 389.875 C254.24117187 390.61878906 253.6971875 391.36257813 253.13671875 392.12890625 C252.60473877 392.82967285 252.07275879 393.53043945 251.5246582 394.25244141 C249.68660497 398.06175418 249.96506383 401.30437462 250.28125 405.40625 C250.33006821 406.22837479 250.37888641 407.05049957 250.42918396 407.89753723 C250.53522706 409.68308939 250.64774965 411.46826589 250.76599121 413.25305176 C251.08157189 418.09861334 251.33187468 422.94736179 251.578125 427.796875 C251.62959686 428.80722809 251.68106873 429.81758118 251.73410034 430.85855103 C255.635792 511.61774245 247.63422042 597.17862611 198.13671875 664.12890625 C197.71455078 664.70817871 197.29238281 665.28745117 196.85742188 665.88427734 C191.18500567 673.61660176 191.18500567 673.61660176 188.234375 675.05859375 C184.99781227 675.16708189 183.65365086 674.14480055 181.13671875 672.12890625 C179.57963209 669.73983266 178.24857802 667.46130281 176.94921875 664.94140625 C176.17926741 663.50853791 175.40570449 662.07760553 174.62890625 660.6484375 C174.0270752 659.53976318 174.0270752 659.53976318 173.41308594 658.40869141 C171.26293874 654.56820277 168.92464409 650.8491159 166.57421875 647.12890625 C166.13247314 646.42870361 165.69072754 645.72850098 165.2355957 645.00708008 C164.20564876 643.37911264 163.17166184 641.75370208 162.13671875 640.12890625 C162.37269775 640.72501709 162.60867676 641.32112793 162.85180664 641.93530273 C175.57845741 674.33013345 190.62775419 717.6422628 189.13671875 753.12890625 C104.00794907 797.9466997 1.32257568 810.9942854 -148.48828125 780.87890625 C-210.07296692 761.49599375 -268.79646113 729.06806983 -316.01953125 684.76171875 C-318.18495627 682.75691591 -320.37319782 680.82116572 -322.609375 678.8984375 C-327.42375238 674.7036199 -331.92296706 670.2157822 -336.42578125 665.69140625 C-337.64297852 664.48000977 -337.64297852 664.48000977 -338.88476562 663.24414062 C-345.59472205 656.52335295 -351.81497908 649.49604738 -357.80078125 642.12890625 C-358.95900391 640.70578125 -358.95900391 640.70578125 -360.140625 639.25390625 C-360.70910156 638.55265625 -361.27757812 637.85140625 -361.86328125 637.12890625 C-360.61734805 633.73513024 -359.22149192 630.97761212 -357.0625 628.08203125 C-356.5044165 627.32865479 -355.94633301 626.57527832 -355.37133789 625.79907227 C-354.47016235 624.60109009 -354.47016235 624.60109009 -353.55078125 623.37890625 C-352.92486084 622.53835693 -352.29894043 621.69780762 -351.65405273 620.83178711 C-347.09406181 614.72405157 -342.47382765 608.66265002 -337.83300781 602.61621094 C-327.36009708 588.97045701 -317.00645256 575.24564332 -307.22460938 561.09326172 C-305.92188447 559.21346893 -304.60406485 557.34501635 -303.28515625 555.4765625 C-286.95604574 532.04548373 -276.95569775 506.38824764 -272.86328125 478.12890625 C-272.76233154 477.4627832 -272.66138184 476.79666016 -272.55737305 476.11035156 C-269.64467732 454.11492736 -271.42018689 430.93385872 -275.46697998 409.2588501 C-275.91350685 406.8589659 -276.35204009 404.45769648 -276.78955078 402.05615234 C-278.1862626 394.3895877 -279.58619202 386.72363127 -280.99658203 379.05957031 C-286.64284987 348.27782557 -289.26898981 317.83431591 -289.18133926 286.52186203 C-289.1756885 284.47023185 -289.17287489 282.41860996 -289.17025757 280.36697388 C-289.13397849 260.80379712 -288.81709203 241.50293404 -285.86328125 222.12890625 C-285.68635742 220.92266602 -285.50943359 219.71642578 -285.32714844 218.47363281 C-280.33970429 185.1809357 -271.83447531 152.40301397 -256.86328125 122.12890625 C-256.46496094 121.3198584 -256.06664062 120.51081055 -255.65625 119.67724609 C-245.20590224 98.66458255 -232.02577287 80.1079279 -215.86328125 63.12890625 C-214.82494141 61.99388672 -214.82494141 61.99388672 -213.765625 60.8359375 C-203.28075556 49.74500624 -190.14759759 40.53381595 -176.86328125 33.12890625 C-176.07276367 32.68192383 -175.28224609 32.23494141 -174.46777344 31.77441406 C-136.13805973 10.29448215 -96.78586477 2.69600399 -53.30053711 3.22485352 C-41.59567739 3.35749536 -30.44975608 2.80738028 -18.86328125 1.12890625 C-12.59425224 0.49183671 -6.29262046 0.28329669 0 0 Z " fill="#FED8AA" transform="translate(464.86328125,102.87109375)"/>
<path d="M0 0 C52.71238798 -1.14426313 104.46386354 19.86112712 146.13671875 51.12890625 C147.06605225 51.82282471 147.06605225 51.82282471 148.01416016 52.53076172 C156.89050207 59.20400836 165.13107693 66.43927661 173.13671875 74.12890625 C174.4825 75.4128125 174.4825 75.4128125 175.85546875 76.72265625 C181.77416235 82.49520927 187.07327908 88.59706908 192.13671875 95.12890625 C192.56597656 95.67643555 192.99523437 96.22396484 193.4375 96.78808594 C236.67658632 152.2699395 243.98356737 230.91054499 243.13671875 299.12890625 C242.39808594 298.80277344 241.65945313 298.47664063 240.8984375 298.140625 C239.88394531 297.70363281 238.86945312 297.26664062 237.82421875 296.81640625 C236.83808594 296.38714844 235.85195313 295.95789063 234.8359375 295.515625 C231.69549769 294.3383746 228.63914859 293.40964238 225.40551758 292.54223633 C224.41795975 292.2763118 223.43040192 292.01038727 222.41291809 291.73640442 C221.66177231 291.53593002 220.91062653 291.33545563 220.13671875 291.12890625 C220.15590866 291.69853592 220.17509857 292.26816559 220.19487 292.85505676 C220.39130318 298.77538707 220.56629556 304.69607379 220.72875977 310.61743164 C220.79224959 312.82820906 220.86123442 315.0388357 220.93579102 317.24926758 C221.04191594 320.4237562 221.12836794 323.59825984 221.2109375 326.7734375 C221.24829514 327.76414749 221.28565277 328.75485748 221.32414246 329.77558899 C221.35451347 331.15668098 221.35451347 331.15668098 221.38549805 332.56567383 C221.42213814 333.78145866 221.42213814 333.78145866 221.45951843 335.02180481 C221.05311981 337.67460519 220.24675209 338.52132365 218.13671875 340.12890625 C215.71191406 340.63500977 215.71191406 340.63500977 213.13671875 340.12890625 C211.02246094 338.01147461 211.02246094 338.01147461 208.93359375 335.03125 C208.55112488 334.49354477 208.16865601 333.95583954 207.77459717 333.40184021 C206.54266058 331.65679475 205.33794082 329.89520771 204.13671875 328.12890625 C203.74202393 327.55650208 203.3473291 326.9840979 202.94067383 326.39434814 C200.04251091 322.19082535 197.20617739 317.94799891 194.38671875 313.69140625 C193.95229462 313.03727753 193.51787048 312.3831488 193.07028198 311.709198 C180.62326484 292.95539607 169.01655071 273.83619456 158.13671875 254.12890625 C157.5840332 253.1332666 157.03134766 252.13762695 156.46191406 251.11181641 C149.05974279 237.74049663 142.10567749 224.19554361 135.44921875 210.44140625 C135.10297455 209.7259967 134.75673035 209.01058716 134.3999939 208.27349854 C131.18230313 201.61104691 128.0156904 194.94575043 125.13671875 188.12890625 C124.80671875 188.12890625 124.47671875 188.12890625 124.13671875 188.12890625 C124.11162254 192.44815717 124.09367553 196.76736719 124.08178711 201.08666992 C124.07682051 202.54989361 124.07004497 204.0131125 124.0612793 205.47631836 C124.04887072 207.6040246 124.04215804 209.73163549 124.0390625 211.859375 C124.03748138 212.55763397 124.03590027 213.25589294 124.03427124 213.97531128 C124.05617061 219.55753433 124.52285693 225.04133209 125.21313477 230.58325195 C125.13671875 233.12890625 125.13671875 233.12890625 123.80615234 234.98754883 C122.13671875 236.12890625 122.13671875 236.12890625 119.734375 236.02734375 C87.71583694 224.95326292 62.90739806 178.50309948 48.13671875 150.12890625 C45.95768006 153.39746429 44.52831042 156.77918741 43.01171875 160.37890625 C29.27524815 192.18625836 29.27524815 192.18625836 18.13671875 201.12890625 C14.79479183 200.88437501 13.53128318 200.52347068 11.13671875 198.12890625 C10.75108337 196.30305481 10.75108337 196.30305481 10.55834961 194.06567383 C10.48164536 193.2275264 10.4049411 192.38937897 10.32591248 191.52583313 C10.25187698 190.61754257 10.17784149 189.70925201 10.1015625 188.7734375 C10.01797989 187.83843918 9.93439728 186.90344086 9.84828186 185.94010925 C9.58179921 182.94121517 9.32760343 179.94143287 9.07421875 176.94140625 C8.8148277 173.95949302 8.55290854 170.97781755 8.28944397 167.9962616 C8.12624086 166.13999902 7.96581606 164.28348944 7.80857849 162.42671204 C7.39543318 157.63027226 6.87119939 152.88706342 6.13671875 148.12890625 C5.60433594 148.79664063 5.07195312 149.464375 4.5234375 150.15234375 C1.10033473 154.42141791 -2.35114703 158.66722896 -5.80688477 162.90991211 C-8.2919684 165.96118242 -10.77223918 169.01450073 -13.22265625 172.09375 C-25.91863186 187.96371951 -40.40650004 203.53421327 -56.37890625 216.13671875 C-58.66202431 217.96752097 -60.78831667 219.88228236 -62.92578125 221.87890625 C-73.56687568 231.4349517 -85.8853859 239.27976072 -97.82421875 247.10546875 C-100.78489781 249.00952294 -100.78489781 249.00952294 -103.078125 250.91796875 C-104.86328125 252.12890625 -104.86328125 252.12890625 -108.05078125 251.87890625 C-110.86328125 251.12890625 -110.86328125 251.12890625 -111.86328125 250.12890625 C-112.27788397 245.35038289 -111.37928201 242.48830543 -109.1171875 238.3046875 C-108.5308252 237.20181396 -107.94446289 236.09894043 -107.34033203 234.96264648 C-107.02743225 234.38731171 -106.71453247 233.81197693 -106.39215088 233.21920776 C-104.76225782 230.2207419 -103.17313183 227.20071551 -101.578125 224.18359375 C-101.259646 223.58383224 -100.94116699 222.98407074 -100.61303711 222.36613464 C-97.76901405 216.99570097 -95.0845236 211.56022601 -92.48828125 206.06640625 C-91.92669312 204.8904187 -91.92669312 204.8904187 -91.35375977 203.69067383 C-89.51030926 200.0668078 -89.51030926 200.0668078 -88.86328125 196.12890625 C-89.54132813 197.25425781 -90.219375 198.37960937 -90.91796875 199.5390625 C-96.5241397 208.80373014 -102.2875939 217.91607241 -108.35400391 226.88476562 C-110.12323085 229.51542465 -111.87461948 232.15754528 -113.625 234.80078125 C-132.06301251 262.62961028 -151.38315149 289.40076351 -173.86328125 314.12890625 C-174.62640625 314.98484375 -175.38953125 315.84078125 -176.17578125 316.72265625 C-183.00680924 324.38448494 -190.05235369 331.47041062 -197.86328125 338.12890625 C-198.37793945 338.56847656 -198.89259766 339.00804687 -199.42285156 339.4609375 C-201.15113615 340.93579335 -202.88168316 342.40794244 -204.61328125 343.87890625 C-205.16838379 344.35102539 -205.72348633 344.82314453 -206.29541016 345.30957031 C-214.39483728 352.16236653 -214.39483728 352.16236653 -217.48828125 351.94140625 C-219.86328125 351.12890625 -219.86328125 351.12890625 -221.86328125 349.12890625 C-221.55932134 345.48138731 -221.02740546 341.99605377 -220.34741211 338.40332031 C-219.85049854 335.0424505 -219.73383978 331.868732 -219.73046875 328.47265625 C-219.72853516 326.56613281 -219.72853516 326.56613281 -219.7265625 324.62109375 C-219.73042969 323.30367188 -219.73429688 321.98625 -219.73828125 320.62890625 C-219.73441406 319.34242188 -219.73054687 318.0559375 -219.7265625 316.73046875 C-219.73519937 308.1454247 -220.13508786 299.68144639 -220.86328125 291.12890625 C-235.61903827 293.73918455 -248.38980024 298.33034226 -257.796875 310.6640625 C-268.87085933 327.21550144 -272.03699663 346.66569075 -268.21484375 366.2734375 C-267.31546066 369.39053018 -266.24597648 372.19579241 -264.86328125 375.12890625 C-264.36570312 376.20785156 -263.868125 377.28679687 -263.35546875 378.3984375 C-253.42304926 398.24017783 -237.03481441 411.31454202 -216.42578125 418.87890625 C-210.05361382 420.82932252 -203.4087873 421.91294267 -196.86328125 423.12890625 C-196.65574219 424.11246094 -196.44820312 425.09601563 -196.234375 426.109375 C-192.30113685 444.09712015 -186.61998421 460.92084735 -177.86328125 477.12890625 C-177.39535156 478.07507813 -176.92742187 479.02125 -176.4453125 479.99609375 C-156.72166134 518.98067111 -116.53258378 545.75412781 -76.015625 559.10546875 C-64.75364112 562.671082 -53.39376127 565.57791509 -41.86328125 568.12890625 C-41.86328125 577.03890625 -41.86328125 585.94890625 -41.86328125 595.12890625 C-43.8901709 595.24137695 -45.91706055 595.35384766 -48.00537109 595.46972656 C-55.34456816 595.99764685 -62.39065926 597.19426633 -69.58984375 598.67578125 C-71.5295022 599.06299491 -73.46916123 599.45020564 -75.40884972 599.83726883 C-78.09690121 600.37588799 -80.78332907 600.92237224 -83.4697876 601.46887207 C-88.74910854 602.54130647 -94.03129963 603.59952209 -99.31365204 604.65690613 C-101.27296901 605.04990377 -103.23173114 605.44566426 -105.19049072 605.84143066 C-111.70860568 607.14764446 -118.22953246 608.38838262 -124.78417969 609.49414062 C-126.68700211 609.81816864 -126.68700211 609.81816864 -128.62826538 610.14874268 C-131.01714761 610.54998984 -133.40789312 610.94036286 -135.8006897 611.31756592 C-142.85911219 612.50147068 -149.83095598 613.7387666 -154.81640625 619.3125 C-155.244375 620.05628906 -155.67234375 620.80007813 -156.11328125 621.56640625 C-157.6499952 624.12898059 -158.98726501 626.26747633 -160.98828125 628.50390625 C-166.60339919 636.36507137 -168.30995219 647.17239723 -170.67578125 656.37890625 C-174.0823701 669.40351385 -177.81142872 682.28973811 -181.86328125 695.12890625 C-182.36058209 696.70880029 -182.85780961 698.2887174 -183.35498047 699.86865234 C-185.06195742 705.29004232 -186.77387538 710.70986124 -188.48828125 716.12890625 C-188.766185 717.0074527 -189.04408875 717.88599915 -189.33041382 718.79116821 C-192.42931536 728.57802215 -195.56988579 738.34602823 -198.86547852 748.06860352 C-200.05814967 751.72657584 -201.02088025 755.37639272 -201.86328125 759.12890625 C-206.96377524 758.50539897 -211.15204532 756.23173657 -215.67578125 753.94140625 C-216.98434082 753.28035889 -216.98434082 753.28035889 -218.31933594 752.60595703 C-243.87780464 739.50194158 -268.29561651 723.90065051 -290.86328125 706.12890625 C-291.53294922 705.60200195 -292.20261719 705.07509766 -292.89257812 704.53222656 C-300.86990006 698.22152822 -308.60108928 691.72196284 -316.01953125 684.76171875 C-318.18495627 682.75691591 -320.37319782 680.82116572 -322.609375 678.8984375 C-327.42375238 674.7036199 -331.92296706 670.2157822 -336.42578125 665.69140625 C-337.64297852 664.48000977 -337.64297852 664.48000977 -338.88476562 663.24414062 C-345.59472205 656.52335295 -351.81497908 649.49604738 -357.80078125 642.12890625 C-358.95900391 640.70578125 -358.95900391 640.70578125 -360.140625 639.25390625 C-360.70910156 638.55265625 -361.27757812 637.85140625 -361.86328125 637.12890625 C-360.61734805 633.73513024 -359.22149192 630.97761212 -357.0625 628.08203125 C-356.5044165 627.32865479 -355.94633301 626.57527832 -355.37133789 625.79907227 C-354.47016235 624.60109009 -354.47016235 624.60109009 -353.55078125 623.37890625 C-352.92486084 622.53835693 -352.29894043 621.69780762 -351.65405273 620.83178711 C-347.09406181 614.72405157 -342.47382765 608.66265002 -337.83300781 602.61621094 C-327.36009708 588.97045701 -317.00645256 575.24564332 -307.22460938 561.09326172 C-305.92188447 559.21346893 -304.60406485 557.34501635 -303.28515625 555.4765625 C-286.95604574 532.04548373 -276.95569775 506.38824764 -272.86328125 478.12890625 C-272.76233154 477.4627832 -272.66138184 476.79666016 -272.55737305 476.11035156 C-269.64467732 454.11492736 -271.42018689 430.93385872 -275.46697998 409.2588501 C-275.91350685 406.8589659 -276.35204009 404.45769648 -276.78955078 402.05615234 C-278.1862626 394.3895877 -279.58619202 386.72363127 -280.99658203 379.05957031 C-286.64284987 348.27782557 -289.26898981 317.83431591 -289.18133926 286.52186203 C-289.1756885 284.47023185 -289.17287489 282.41860996 -289.17025757 280.36697388 C-289.13397849 260.80379712 -288.81709203 241.50293404 -285.86328125 222.12890625 C-285.68635742 220.92266602 -285.50943359 219.71642578 -285.32714844 218.47363281 C-280.33970429 185.1809357 -271.83447531 152.40301397 -256.86328125 122.12890625 C-256.46496094 121.3198584 -256.06664062 120.51081055 -255.65625 119.67724609 C-245.20590224 98.66458255 -232.02577287 80.1079279 -215.86328125 63.12890625 C-214.82494141 61.99388672 -214.82494141 61.99388672 -213.765625 60.8359375 C-203.28075556 49.74500624 -190.14759759 40.53381595 -176.86328125 33.12890625 C-176.07276367 32.68192383 -175.28224609 32.23494141 -174.46777344 31.77441406 C-136.13805973 10.29448215 -96.78586477 2.69600399 -53.30053711 3.22485352 C-41.59567739 3.35749536 -30.44975608 2.80738028 -18.86328125 1.12890625 C-12.59425224 0.49183671 -6.29262046 0.28329669 0 0 Z " fill="#F63C2F" transform="translate(464.86328125,102.87109375)"/>
<path d="M0 0 C7.07854089 0.69066802 14.00001743 1.83403688 20.98828125 3.14453125 C22.69590889 3.46111946 22.69590889 3.46111946 24.43803406 3.78410339 C26.84284316 4.23060351 29.24736433 4.67865684 31.65161133 5.12817383 C35.26253887 5.80316082 38.87433731 6.47330691 42.48632812 7.14257812 C48.25376558 8.21322097 54.01822678 9.29888364 59.78131104 10.3927002 C62.85699603 10.97301812 65.93483896 11.54043805 69.01318359 12.10644531 C70.81490228 12.44661146 72.61650536 12.78739069 74.41796875 13.12890625 C75.22341629 13.27350784 76.02886383 13.41810944 76.85871887 13.5670929 C82.09658361 14.579365 85.97406092 15.92192644 89.69213867 19.96508789 C91.09839388 22.15309184 92.01904298 24.24711683 92.92578125 26.68359375 C94.19590337 29.98386365 95.52141096 33.21004164 97.04296875 36.40234375 C110.65219233 65.04302746 117.63476487 95.53836764 123.375 126.5625 C123.5664711 127.5870932 123.5664711 127.5870932 123.7618103 128.63238525 C125.38852174 137.41064889 126.5099911 146.08429758 127 155 C41.87123032 199.81779345 -60.81414307 212.86537915 -210.625 182.75 C-228.85596262 177.0334064 -246.67878845 170.06100872 -264 162 C-263.70638502 156.42131535 -262.67447678 151.69418553 -260.84765625 146.41015625 C-260.39126607 145.0721151 -259.9361736 143.73363082 -259.48217773 142.39477539 C-259.11997635 141.32793015 -259.11997635 141.32793015 -258.75045776 140.23953247 C-257.42970943 136.29812641 -256.17219919 132.33675345 -254.9140625 128.375 C-254.51619537 127.12309624 -254.51619537 127.12309624 -254.11029053 125.84590149 C-251.29750492 116.98297622 -248.49947254 108.11537591 -245.70758057 99.24584961 C-245.10009408 97.31769705 -244.4904456 95.39022589 -243.88037109 93.46289062 C-240.86657236 83.92367241 -238.07271986 74.35242024 -235.53515625 64.67578125 C-235.31630264 63.84640045 -235.09744904 63.01701965 -234.8719635 62.1625061 C-233.77604414 58.0081495 -232.6937821 53.85125074 -231.63793945 49.68652344 C-229.00648659 39.51111328 -225.70370041 32.21743921 -219 24 C-218.4225 22.989375 -217.845 21.97875 -217.25 20.9375 C-212.58671756 14.8493257 -205.49134837 13.35452498 -198.21484375 12.18359375 C-197.39609268 12.04099625 -196.57734161 11.89839874 -195.73377991 11.7514801 C-193.13689273 11.30159538 -190.53750896 10.86893725 -187.9375 10.4375 C-185.37182777 10.00022738 -182.80679471 9.55935683 -180.24185181 9.11782837 C-178.56477055 8.829643 -176.88734202 8.54347094 -175.20956421 8.2593689 C-168.79547453 7.16600489 -162.43034656 5.89904336 -156.06860352 4.53540039 C-153.29671979 4.05177074 -150.80414041 3.89221145 -148 4 C-147.29822632 5.55557617 -147.29822632 5.55557617 -146.58227539 7.14257812 C-144.80593833 11.07481022 -143.0198828 15.00256898 -141.23120117 18.92919922 C-140.46561809 20.61325811 -139.70250306 22.29844168 -138.94213867 23.98486328 C-128.9453814 46.17569406 -128.9453814 46.17569406 -115 66 C-114.45988281 66.68320312 -113.91976562 67.36640625 -113.36328125 68.0703125 C-100.78795936 83.48900554 -80.91919369 90.37592344 -61.75292969 92.74511719 C-56.54843659 93.22698051 -51.34903455 93.29574631 -46.125 93.3125 C-45.1040625 93.31789795 -44.083125 93.3232959 -43.03125 93.32885742 C-29.02310856 93.19877536 -13.43245696 91.24943139 -3 81 C5.81175665 70.74631954 7.11930452 58.42549685 6.33251953 45.36621094 C5.43740691 36.30467435 3.75030489 27.32183873 2.13500977 18.36547852 C1.99716568 17.59630096 1.85932159 16.82712341 1.71730042 16.03463745 C1.45518991 14.58314461 1.18796972 13.13256135 0.91465759 11.68313599 C0.19610785 7.73606905 -0.13090812 4.01023009 0 0 Z " fill="#3DCBB6" transform="translate(527,701)"/>
<path d="M0 0 C0.99 0.495 0.99 0.495 2 1 C7.23389699 92.71847681 7.08272054 190.78995905 -50 268 C-50.42216797 268.57927246 -50.84433594 269.15854492 -51.27929688 269.75537109 C-56.95171308 277.48769551 -56.95171308 277.48769551 -59.90234375 278.9296875 C-63.11903723 279.03750963 -64.49598124 277.98987071 -67 276 C-68.45493145 273.77636995 -69.67433718 271.66529321 -70.875 269.3125 C-75.46024362 260.72405632 -80.61057138 252.53580958 -85.85888672 244.33911133 C-89.0367184 239.33095736 -91.88503677 234.54541905 -94 229 C-96.05049426 224.1178708 -98.47643235 220.79069179 -103 218 C-106.13179201 216.90095795 -109.2990549 216.34190595 -112.56640625 215.7890625 C-113.50164124 215.61519516 -114.43687622 215.44132782 -115.40045166 215.26219177 C-118.4515709 214.69901672 -121.50667948 214.16202119 -124.5625 213.625 C-126.67636446 213.23940303 -128.78988833 212.85193445 -130.90307617 212.46264648 C-135.19229355 211.67472106 -139.48305081 210.89621786 -143.77539062 210.12548828 C-152.01311556 208.64251328 -160.23508324 207.07848863 -168.45700073 205.51068115 C-170.753491 205.07372765 -173.0505529 204.63994147 -175.34790039 204.20751953 C-176.05944778 204.07350739 -176.77099518 203.93949524 -177.50410461 203.80142212 C-178.1898204 203.67230438 -178.87553619 203.54318665 -179.58203125 203.41015625 C-183.91897025 202.59325592 -188.246062 201.74779567 -192.56640625 200.84765625 C-198.35115075 199.67880633 -204.11440919 199.37567601 -210 199 C-210 190.42 -210 181.84 -210 173 C-206.266875 172.360625 -202.53375 171.72125 -198.6875 171.0625 C-153.05976702 162.58578814 -111.36079763 140.30417011 -84.44238281 101.86499023 C-70.14084325 80.67360642 -60.00858027 55.91475763 -54.921875 30.8671875 C-54.61765625 29.59101562 -54.3134375 28.31484375 -54 27 C-51.48600402 25.74300201 -49.22147148 25.53032918 -46.4375 25.125 C-28.54655739 22.16082016 -12.39458264 13.22088815 0 0 Z " fill="#F53C2F" transform="translate(713,499)"/>
<path d="M0 0 C6.16954853 3.52673179 10.44193453 8.2579788 13.03515625 14.91015625 C15.60392652 25.09457486 13.4498565 34.01440911 9.54248047 43.4921875 C3.60414694 57.93399457 -1.24866579 72.47123896 -5.30078125 87.54296875 C-5.85588948 89.57836558 -6.4119019 91.61351598 -6.96875 93.6484375 C-7.77785571 96.60638955 -8.58537535 99.56468516 -9.38525391 102.52514648 C-9.62163574 103.39985596 -9.85801758 104.27456543 -10.1015625 105.17578125 C-10.30950439 105.94809082 -10.51744629 106.72040039 -10.73168945 107.51611328 C-11.20620024 109.20611264 -11.74569042 110.87769625 -12.30078125 112.54296875 C-13.00699677 122.53788001 -10.71375324 132.0989448 -8.80078125 141.85546875 C-8.29791493 144.44670081 -7.79776647 147.03838552 -7.30285645 149.63114929 C-6.99624934 151.23482488 -6.68488419 152.83760044 -6.36804199 154.43928528 C-5.64645477 158.18833951 -5.11529918 161.72118637 -5.30078125 165.54296875 C-30.53920321 158.89820351 -54.5230675 150.29254032 -78.30078125 139.54296875 C-77.89252959 131.7861873 -75.58622699 125.00086591 -73.04821777 117.72509766 C-71.70712079 113.8097866 -70.4644725 109.86323244 -69.21484375 105.91796875 C-68.94958389 105.08307922 -68.68432404 104.2481897 -68.411026 103.38800049 C-65.59760463 94.52557323 -62.80016889 85.65807495 -60.00836182 76.78881836 C-59.40087533 74.8606658 -58.79122685 72.93319464 -58.18115234 71.00585938 C-55.16735361 61.46664116 -52.37350111 51.89538899 -49.8359375 42.21875 C-49.61708389 41.3893692 -49.39823029 40.5599884 -49.17274475 39.70547485 C-48.07682539 35.55111825 -46.99456335 31.39421949 -45.9387207 27.22949219 C-42.83489783 15.22254291 -39.19279605 6.05978718 -28.2734375 -0.71484375 C-18.83567883 -5.59585456 -9.39394524 -4.38384111 0 0 Z " fill="#FED8AA" transform="translate(341.30078125,723.45703125)"/>
<path d="M0 0 C0.29640381 0.5978833 0.59280762 1.1957666 0.89819336 1.81176758 C1.77865418 3.56039827 2.6975259 5.2896702 3.62890625 7.01171875 C18.52423627 34.99499565 25.18402614 66.27041883 30.9375 97.1875 C31.08729309 97.9864267 31.23708618 98.78535339 31.39141846 99.60848999 C33.15013924 109.07172775 34.51775067 118.37303142 35 128 C32.46080994 129.29673602 29.91885762 130.58747837 27.375 131.875 C26.30572266 132.42220703 26.30572266 132.42220703 25.21484375 132.98046875 C21.21248163 135.00000927 17.31082927 136.7081111 13 138 C12.61070312 137.21238281 12.22140625 136.42476562 11.8203125 135.61328125 C7.29978519 126.81179375 1.98058861 117.14469085 -5.62393188 110.6030426 C-7.42727654 108.50224666 -7.34254751 107.41191326 -7.25146484 104.67163086 C-7.22397156 103.7796701 -7.19647827 102.88770935 -7.16815186 101.96871948 C-6.85212769 96.38931566 -6.44029105 90.82293198 -5.9765625 85.25390625 C-5.81465876 83.24255742 -5.65276198 81.231208 -5.49119091 79.21983242 C-5.32097508 77.10771059 -5.1490349 74.99573523 -4.97665405 72.88378906 C-4.38806695 65.66434622 -3.81463512 58.44370281 -3.24609375 51.22265625 C-3.19027697 50.51425724 -3.13446018 49.80585823 -3.07695198 49.07599258 C-1.79319722 32.73117144 -0.77698477 16.37672813 0 0 Z " fill="#FDD8AB" transform="translate(619,728)"/>
<path d="M0 0 C5.92380294 3.42619954 10.17882667 7.71592723 13 14 C14.97136305 21.56749043 15.63852525 30.84359674 12 37.9375 C7.99917074 43.98945862 2.42989374 49.35223747 -4.60546875 51.55859375 C-12.99771203 53.10561413 -20.89631062 53.21835818 -28.171875 48.421875 C-35.1439648 42.99913849 -40.11473351 36.48141535 -41.328125 27.59765625 C-41.87680154 18.90612099 -38.91153073 11.74903609 -33.39453125 5.05078125 C-23.98681178 -3.82063117 -11.50055885 -5.4132293 0 0 Z " fill="#342B2E" transform="translate(392,425)"/>
<path d="M0 0 C6.53187889 4.5497915 11.40407755 10.0056107 13 18 C13.91991231 27.44041157 12.12931127 35.32506477 6.25 42.875 C1.80716191 47.66829096 -4.50798854 50.6821316 -11.00390625 51.2734375 C-20.36807485 51.54069149 -26.89799076 50.44493229 -34.0625 44.203125 C-40.03903787 37.97756472 -42.07484759 31.57644963 -42.5 23.0625 C-42.22536256 14.41691329 -38.89603794 8.4595369 -32.6875 2.5625 C-22.65108683 -5.63556026 -11.36940346 -6.31633526 0 0 Z " fill="#332B2E" transform="translate(590,426)"/>
<path d="M0 0 C1.56303864 0.02878487 1.56303864 0.02878487 3.15765381 0.05815125 C4.34200012 0.07509537 5.52634644 0.09203949 6.74658203 0.10949707 C8.68981354 0.15308601 8.68981354 0.15308601 10.67230225 0.19755554 C12.03245672 0.22125516 13.39262592 0.24412272 14.75280762 0.26620483 C18.36485821 0.32740327 21.97655294 0.40120877 25.58831787 0.47721863 C28.43906897 0.53512848 31.28993648 0.58406865 34.14086151 0.63252449 C41.16064898 0.75187548 48.17955709 0.89491522 55.19835663 1.06263924 C59.48928376 1.16480584 63.78020165 1.25214688 68.07164383 1.32956791 C70.867408 1.38312649 73.6627744 1.44923767 76.45818329 1.51874352 C78.41121403 1.56376701 80.36455795 1.5944813 82.31787109 1.62487793 C83.48767517 1.65683762 84.65747925 1.6887973 85.86273193 1.72172546 C86.88904724 1.74353378 87.91536255 1.7653421 88.97277832 1.78781128 C91.53167725 2.20927429 91.53167725 2.20927429 93.38916016 3.58886719 C94.53167725 5.20927429 94.53167725 5.20927429 94.480896 7.62333679 C91.58461553 15.51361526 82.16975918 20.4598691 74.97479248 23.88090515 C58.62394309 31.22884001 41.30178293 32.93170113 24.059021 27.59599304 C12.39742262 23.01142225 3.3756895 16.05328655 -5.46832275 7.20927429 C-5.06225505 3.1485972 -4.52477236 0.38362833 0 0 Z " fill="#F1A668" transform="translate(440.46832275390625,526.7907257080078)"/>
<path d="M0 0 C7.55158688 4.97002151 15.13113036 11.49744946 18.90234375 19.91015625 C18.58203125 23.21484375 18.58203125 23.21484375 17.90234375 25.91015625 C14.14541926 26.48598393 12.94785759 25.9420898 9.7734375 23.71484375 C8.6220808 22.74633776 7.47786956 21.76929209 6.33984375 20.78515625 C0.28825249 15.80224347 -5.74689158 11.79136049 -13.09765625 8.91015625 C-13.7632959 8.64162842 -14.42893555 8.37310059 -15.11474609 8.09643555 C-23.04393507 5.27453322 -30.93904283 5.57140516 -39.22265625 5.72265625 C-40.67055891 5.73773857 -42.11847687 5.75142067 -43.56640625 5.76367188 C-47.07714619 5.79637776 -50.58730024 5.84796114 -54.09765625 5.91015625 C-57.21484375 -0.73828125 -57.21484375 -0.73828125 -56.16015625 -3.90234375 C-53.61946335 -6.59701804 -51.66660074 -7.21581653 -48.09765625 -8.08984375 C-47.4521582 -8.26539795 -46.80666016 -8.44095215 -46.14160156 -8.62182617 C-30.71245082 -12.15475522 -13.33708992 -7.76485705 0 0 Z " fill="#F64032" transform="translate(602.09765625,373.08984375)"/>
<path d="M0 0 C2 2 2 2 2.25 5.4375 C2 9 2 9 0 12 C-2.9140625 12.29296875 -2.9140625 12.29296875 -6.625 12.1875 C-7.28653076 12.17614014 -7.94806152 12.16478027 -8.62963867 12.15307617 C-11.4574106 12.10422408 -14.28387542 12.02087247 -17.11083984 11.93847656 C-36.30046253 11.42699258 -50.37424445 17.69535303 -64.75 30.4375 C-67.39288074 32.27283385 -68.84780752 32.36025057 -72 32 C-72.97690872 28.88399806 -73.18621713 27.43559181 -71.8828125 24.38671875 C-67.63554319 17.86480077 -63.18678765 12.73489703 -57 8 C-56.09701172 7.29423828 -56.09701172 7.29423828 -55.17578125 6.57421875 C-40.58081545 -3.65175512 -16.6070479 -7.05718605 0 0 Z " fill="#F64032" transform="translate(412,367)"/>
<path d="M0 0 C2.375 -0.125 2.375 -0.125 5 0 C7.36256761 2.36256761 7.2472201 2.83273576 7.2734375 6.03515625 C7.29092041 6.84057861 7.30840332 7.64600098 7.32641602 8.47583008 C7.35046509 9.75623169 7.35046509 9.75623169 7.375 11.0625 C7.60352671 21.15329614 7.60352671 21.15329614 12 30 C13.94980454 31.72966532 15.90202907 33.20993413 18.09765625 34.61328125 C20.29256134 36.2132634 21.60276917 37.66983554 23 40 C23.66182895 44.82319183 22.3582671 49.02183755 19.5625 52.9375 C18.40536179 54.31770099 17.21360869 55.66918162 16 57 C15.20464844 57.89847656 14.40929687 58.79695313 13.58984375 59.72265625 C6.89569251 66.90145192 6.89569251 66.90145192 2.8046875 67.3515625 C0 67 0 67 -1.875 65.875 C-3.55256816 63.07905307 -3.38184925 61.21619417 -3 58 C-0.64444015 55.23403408 1.96985353 53.03451488 4.71484375 50.66015625 C7.54468433 47.36593158 8.02499009 45.31328968 8 41 C6.74781808 39.14526297 6.74781808 39.14526297 4.75 38 C0.89844694 35.45351864 -0.88625629 32.42281949 -2 28 C-2.39233263 23.92855549 -2.37416196 19.8994548 -2.3125 15.8125 C-2.31572266 14.73291016 -2.31894531 13.65332031 -2.32226562 12.54101562 C-2.26281909 3.8347999 -2.26281909 3.8347999 0 0 Z " fill="#F1A568" transform="translate(492,444)"/>
<path d="M0 0 C0.33 0 0.66 0 1 0 C2.14554372 6.1735851 3.28414925 12.34842091 4.41796875 18.52416992 C4.80439655 20.62439855 5.19240442 22.7243371 5.58203125 24.82397461 C6.14219396 27.84413759 6.69664302 30.86530238 7.25 33.88671875 C7.42499023 34.82335861 7.59998047 35.75999847 7.78027344 36.72502136 C7.94043945 37.60555679 8.10060547 38.48609222 8.265625 39.39331055 C8.40774414 40.16386276 8.54986328 40.93441498 8.69628906 41.72831726 C9.0235798 44.17637109 9.05118677 46.53304598 9 49 C6.04073674 48.19086128 3.08275919 47.37711805 0.125 46.5625 C-0.71675781 46.33240234 -1.55851562 46.10230469 -2.42578125 45.86523438 C-3.23144531 45.64287109 -4.03710938 45.42050781 -4.8671875 45.19140625 C-5.61081543 44.98717041 -6.35444336 44.78293457 -7.12060547 44.57250977 C-9 44 -9 44 -11 43 C-9.47519813 35.98882967 -7.80163041 29.02340234 -6.0625 22.0625 C-5.68448242 20.53206055 -5.68448242 20.53206055 -5.29882812 18.97070312 C-3.70645129 12.58897807 -1.95382498 6.28058648 0 0 Z " fill="#F24133" transform="translate(327,840)"/>
<path d="M0 0 C20.68825316 -0.17071683 41.32513173 0.31839102 62 1 C59.44007268 3.69519858 57.09387544 5.08906861 53.6875 6.625 C52.76324219 7.05039062 51.83898437 7.47578125 50.88671875 7.9140625 C39.45929704 12.21287608 22.16882376 11.80928846 11 7 C7.24319371 5.14052283 3.59773686 3.15029147 0 1 C0 0.67 0 0.34 0 0 Z " fill="#FEFAF8" transform="translate(454,537)"/>
<path d="M0 0 C0.99 0.33 1.98 0.66 3 1 C3 5.95 3 10.9 3 16 C0.03 16.33 -2.94 16.66 -6 17 C-5.19126545 14.35296109 -4.37821309 11.7073879 -3.5625 9.0625 C-3.33240234 8.30775391 -3.10230469 7.55300781 -2.86523438 6.77539062 C-1.11328125 1.11328125 -1.11328125 1.11328125 0 0 Z " fill="#6CBEE1" transform="translate(512,883)"/>
<path d="M0 0 C1.21386936 3.64160808 0.6674695 4.33165469 -0.9375 7.6875 C-1.31777344 8.49574219 -1.69804687 9.30398438 -2.08984375 10.13671875 C-2.39019531 10.75160156 -2.69054687 11.36648438 -3 12 C-3.99 11.67 -4.98 11.34 -6 11 C-4.54955729 6.89041233 -2.48889248 3.56741255 0 0 Z " fill="#FDBD95" transform="translate(376,298)"/>
</svg>
