<?xml version="1.0" encoding="UTF-8"?>
<svg version="1.1" xmlns="http://www.w3.org/2000/svg" width="1566" height="1567">
<path d="M0 0 C1.0818457 0.1556543 2.16369141 0.31130859 3.27832031 0.47167969 C61.4819448 9.04059414 115.63726042 29.03725884 165 61 C165.7425 61.47711426 166.485 61.95422852 167.25 62.44580078 C196.9225969 81.55466787 226.12901112 105.05517999 249.16796875 131.890625 C251.15311587 134.17629546 253.2003983 136.39701378 255.25 138.625 C313.09740102 202.92160451 346.64384583 287.5245595 355 373 C355.09643799 373.91934326 355.19287598 374.83868652 355.29223633 375.78588867 C356.32992632 387.01936796 356.18845669 398.29211757 356.1875 409.5625 C356.19055145 410.64838409 356.19360291 411.73426819 356.19674683 412.85305786 C356.24863999 434.08793765 356.24863999 434.08793765 355.3046875 444.0859375 C355.18456299 445.35880615 355.06443848 446.6316748 354.94067383 447.94311523 C354.69814105 450.18415572 354.41981731 452.42177888 354.09643555 454.65258789 C353.42548431 460.46733922 353.86407946 463.51174344 357.29296875 468.359375 C358.52507937 469.90909225 359.76032739 471.45632519 361 473 C369.92492107 489.78635855 371.70436673 509.01267589 366.3203125 527.1484375 C361.28540351 542.51612438 352.18547411 554.67794458 339 564 C338.34 564.33 337.68 564.66 337 565 C337.61818604 565.34144043 338.23637207 565.68288086 338.87329102 566.03466797 C362.71561464 579.24475354 384.61430066 593.8548803 405 612 C405.54221191 612.47904785 406.08442383 612.9580957 406.64306641 613.45166016 C419.57185332 624.92105834 431.29122113 637.43472097 441.68212891 651.24951172 C442.99953962 652.99938849 444.33336662 654.73587194 445.66796875 656.47265625 C488.95139228 713.46863172 507.79218359 784.3436228 511 855 C504.88802487 858.17948218 498.68360364 860.80655489 492.26171875 863.29296875 C491.25913528 863.68446609 490.25655182 864.07596344 489.22358704 864.47932434 C486.04626301 865.71893662 482.86689065 866.95319938 479.6875 868.1875 C477.53307374 869.02766307 475.37877555 869.86815465 473.22460938 870.70898438 C469.2959004 872.24041685 465.36714325 873.7717139 461.4362793 875.29760742 C460.25668892 875.75583138 460.25668892 875.75583138 459.05326843 876.22331238 C457.38325291 876.85502734 455.69387546 877.43537485 454 878 C454.25394531 879.00417969 454.50789063 880.00835938 454.76953125 881.04296875 C456.46050648 887.75000938 458.137817 894.46107142 459.75 901.1875 C459.99234375 902.19167969 460.2346875 903.19585938 460.484375 904.23046875 C460.98032194 906.89430494 461.09878135 909.29833008 461 912 C454.31911826 915.08173975 447.53235753 917.75150601 440.6328125 920.30078125 C439.55861053 920.7002446 438.48440857 921.09970795 437.37765503 921.51127625 C433.96109311 922.78103505 430.54307023 924.04680785 427.125 925.3125 C424.8696961 926.15013336 422.61448697 926.98802193 420.359375 927.82617188 C415.97286395 929.45585288 411.58513956 931.08219665 407.19628906 932.70556641 C403.19564377 934.18534975 399.19766605 935.67195703 395.20214844 937.16552734 C393.46550023 937.81218909 391.72884692 938.45883712 389.9921875 939.10546875 C388.80884323 939.55035393 388.80884323 939.55035393 387.60159302 940.00422668 C382.22609638 942 382.22609638 942 380 942 C374.17023253 927.01856868 369.05715709 911.78138285 363.85595703 896.57403564 C361.93598438 890.96209154 360.01158221 885.35166383 358.08791351 879.74098587 C357.38824583 877.69944751 356.68933316 875.6576519 355.99053955 873.61581421 C353.85393356 867.37649685 351.7054311 861.14175597 349.52246094 854.91845703 C349.14556122 853.84314224 348.7686615 852.76782745 348.38034058 851.65992737 C347.68242672 849.67304006 346.98184059 847.68708862 346.27810669 845.70225525 C345.9747641 844.83895096 345.67142151 843.97564667 345.35888672 843.08618164 C345.09453827 842.33953751 344.83018982 841.59289337 344.55783081 840.82362366 C344 839 344 839 344 837 C343.4097554 837.15033691 342.8195108 837.30067383 342.21138 837.45556641 C336.06499418 839.01982823 329.91654935 840.57578744 323.7668457 842.12695312 C321.47236192 842.70685799 319.17841066 843.2888741 316.88500977 843.87304688 C313.58748055 844.71259967 310.28810768 845.54452874 306.98828125 846.375 C305.96414627 846.63748535 304.94001129 846.8999707 303.88484192 847.17041016 C302.44391426 847.53078369 302.44391426 847.53078369 300.97387695 847.8984375 C300.13226517 848.11161621 299.29065338 848.32479492 298.42353821 848.54443359 C295.89474023 849.01978628 293.56699982 849.08073148 291 849 C288.52878797 840.04518994 286.07120735 831.08667077 283.625 822.125 C283.44352417 821.46019497 283.26204834 820.79538994 283.07507324 820.1104393 C276.54977354 796.18776997 270.50066974 772.18070151 265 748 C263.03167554 750.52180638 261.39440584 752.97812394 259.9765625 755.84375 C253.77244454 768.13051975 246.74294101 779.62508634 239 791 C238.5565625 791.65339355 238.113125 792.30678711 237.65625 792.97998047 C228.58469165 806.25067813 218.38815021 818.65174233 207.421875 830.39453125 C205.35300812 832.62023159 203.35140442 834.88018383 201.375 837.1875 C195.12588957 844.37621414 188.22996849 850.81855983 181 857 C179.55947266 858.27423828 179.55947266 858.27423828 178.08984375 859.57421875 C146.36714952 887.49687316 86.8456679 933 42 933 C42.10489746 934.03942749 42.10489746 934.03942749 42.21191406 935.09985352 C43.89907904 951.92674726 45.45645173 968.7642945 46.91516113 985.61251831 C47.09558127 987.6910497 47.27760823 989.76944229 47.46130371 991.84768677 C47.72249095 994.80952274 47.97728631 997.77184527 48.23046875 1000.734375 C48.308452 1001.60740768 48.38643524 1002.48044037 48.46678162 1003.37992859 C48.98791272 1009.59721135 49.08250287 1015.76254093 49 1022 C50.05050537 1021.98428955 51.10101074 1021.9685791 52.18334961 1021.95239258 C72.66358924 1021.67362277 92.7448261 1021.54698234 113 1025 C113.80598633 1025.12858398 114.61197266 1025.25716797 115.44238281 1025.38964844 C169.20374891 1034.1820816 222.0377742 1066.54209205 254.45703125 1110.41796875 C255.3097898 1111.60834048 256.15716263 1112.80258313 257 1114 C257.4851709 1114.68916504 257.9703418 1115.37833008 258.47021484 1116.08837891 C272.65765613 1136.4505254 284.32498833 1157.94750988 291 1182 C258.83642509 1197.57886118 225.96446023 1211.79783172 192 1223 C191.04682892 1223.31460175 191.04682892 1223.31460175 190.07440186 1223.63555908 C130.0566635 1243.37011785 67.9677103 1255.9292058 5 1261 C3.70449219 1261.10441406 2.40898438 1261.20882813 1.07421875 1261.31640625 C-84.17739943 1267.9450544 -169.90372592 1259.67764 -385 1192 C-377.72075071 1157.26758197 -358.99799527 1124.18011987 -335.0625 1098.25 C-333.24942906 1096.27210442 -331.52960986 1094.24803183 -329.8125 1092.1875 C-293.72302283 1050.93047645 -237.02714718 1026.40687724 -183.09179688 1022.21386719 C-168.43998142 1021.33761501 -153.66830855 1021.78574381 -139 1022 C-138.9575415 1020.93040039 -138.91508301 1019.86080078 -138.87133789 1018.75878906 C-138.19449821 1003.10345391 -136.90334545 987.49971253 -135.61352539 971.88586426 C-135.31620825 968.27826506 -135.02253812 964.67036894 -134.72851562 961.0625 C-134.15581285 954.04138029 -133.57922385 947.02058501 -133 940 C-133.77128738 939.8128241 -134.54257477 939.62564819 -135.3372345 939.43280029 C-163.81813629 932.49360681 -163.81813629 932.49360681 -175.6875 928.25 C-176.87408203 927.83226318 -178.06066406 927.41452637 -179.28320312 926.98413086 C-212.06500383 915.21490553 -243.10559657 898.88661826 -271 878 C-271.53496094 877.60248535 -272.06992187 877.2049707 -272.62109375 876.79541016 C-296.79703648 858.78665185 -319.46659486 837.8196735 -338 814 C-338.48678223 813.38044434 -338.97356445 812.76088867 -339.47509766 812.12255859 C-356.03256732 791.01694169 -369.30409682 768.59103782 -382 745 C-382.25467041 746.10545166 -382.50934082 747.21090332 -382.77172852 748.34985352 C-388.41653919 772.76183338 -394.49449756 797.02345855 -401.125 821.1875 C-401.46000519 822.40865509 -401.79501038 823.62981018 -402.14016724 824.88796997 C-403.6478215 830.37410363 -405.1608141 835.85875597 -406.68408203 841.34057617 C-406.91515656 842.17223801 -407.14623108 843.00389984 -407.38430786 843.86076355 C-407.88097776 845.58645451 -408.43213644 847.29640931 -409 849 C-415.70735582 848.40054312 -421.98808486 847.17094185 -428.50390625 845.49609375 C-429.4677977 845.2533522 -430.43168915 845.01061066 -431.42478943 844.76051331 C-434.47213202 843.99173807 -437.51731277 843.21476386 -440.5625 842.4375 C-442.6411381 841.9115639 -444.71991295 841.38616793 -446.79882812 840.86132812 C-451.86748292 839.58045842 -456.93439346 838.29286928 -462 837 C-462.25563721 838.26344238 -462.51127441 839.52688477 -462.7746582 840.82861328 C-463.99015616 846.28131813 -465.75338666 851.47739449 -467.60546875 856.7421875 C-467.96183411 857.76838699 -468.31819946 858.79458649 -468.68536377 859.85188293 C-469.84762187 863.19473158 -471.01714454 866.53497848 -472.1875 869.875 C-472.99583182 872.18975259 -473.80385268 874.50461378 -474.61157227 876.81958008 C-475.84849921 880.36433786 -477.08589249 883.90892616 -478.32542419 887.45277405 C-480.69623012 894.23653817 -483.04249189 901.02791579 -485.35783386 907.83081055 C-486.72267859 911.84081136 -488.0958998 915.84791871 -489.46987915 919.85479736 C-490.11382799 921.73995266 -490.75379854 923.62647169 -491.38973999 925.51434326 C-492.26870784 928.12142131 -493.16188518 930.72319964 -494.05859375 933.32421875 C-494.31408997 934.09457962 -494.56958618 934.86494049 -494.83282471 935.65864563 C-495.46624282 937.47265741 -496.2224305 939.24294482 -497 941 C-500.36274393 942.12091464 -500.88642467 941.9330134 -504.05541992 940.7434082 C-505.28317642 940.29022972 -505.28317642 940.29022972 -506.53573608 939.82789612 C-507.42499786 939.48894821 -508.31425964 939.15000031 -509.23046875 938.80078125 C-510.16178619 938.45430038 -511.09310364 938.10781952 -512.05264282 937.75083923 C-515.10119362 936.61408907 -518.14449265 935.46399979 -521.1875 934.3125 C-523.27346343 933.5283906 -525.35964614 932.74486431 -527.44604492 931.96191406 C-530.59883596 930.77851093 -533.7512711 929.59423075 -536.90223694 928.40597534 C-543.29163874 925.99984549 -549.69978206 923.65771555 -556.1328125 921.37109375 C-558.33769237 920.57865413 -560.5418933 919.78436318 -562.74575806 918.98910522 C-564.11894581 918.49802783 -565.49459488 918.01377715 -566.87265015 917.53652954 C-568.7614106 916.8812453 -570.64082154 916.19919161 -572.51953125 915.515625 C-573.56214111 915.14727539 -574.60475098 914.77892578 -575.67895508 914.39941406 C-578 913 -578 913 -578.93212891 910.75170898 C-579.01458123 907.40883095 -578.41801818 904.69269688 -577.56640625 901.45703125 C-577.0878418 899.59981445 -577.0878418 899.59981445 -576.59960938 897.70507812 C-576.25436643 896.40742956 -575.90865801 895.10990476 -575.5625 893.8125 C-574.89332236 891.25748683 -574.22989521 888.70103299 -573.56640625 886.14453125 C-573.26677979 885.01378174 -572.96715332 883.88303223 -572.65844727 882.71801758 C-571.92151913 880.14214323 -571.92151913 880.14214323 -572 878 C-573.74518921 877.3201001 -573.74518921 877.3201001 -575.52563477 876.62646484 C-579.9150585 874.91620314 -584.30413446 873.20505045 -588.69311523 871.49365234 C-590.57909078 870.75838986 -592.46515585 870.02335695 -594.35131836 869.28857422 C-605.58863484 864.91070923 -616.81327966 860.50580738 -628 856 C-629.65875754 805.88059792 -616.15391614 751.7693722 -594 707 C-593.54367187 706.07493652 -593.08734375 705.14987305 -592.6171875 704.19677734 C-579.36019204 677.56315446 -562.8262987 653.58763577 -542.56640625 631.7890625 C-540.42501785 629.46189155 -538.35657371 627.09941385 -536.3125 624.6875 C-533.51545542 621.46826001 -530.50958374 618.69832023 -527.25390625 615.94921875 C-525.64205348 614.55525942 -524.07031302 613.11437402 -522.52734375 611.64453125 C-503.10762239 593.15346042 -480.21946082 579.15346505 -457 566 C-457.58813477 565.56574707 -458.17626953 565.13149414 -458.78222656 564.68408203 C-475.1677849 552.47710869 -485.52132784 538.13739517 -489.3125 517.8125 C-492.015528 498.08559374 -487.39405658 480.14479692 -475.625 464.125 C-474.15376487 462.29212048 -472.66538446 460.66538446 -471 459 C-470.36222253 453.76806281 -471.04355278 448.33423526 -471.49609375 443.10546875 C-472.25629734 432.60271019 -472.24319665 422.08847727 -472.25 411.5625 C-472.25100708 410.4789624 -472.25201416 409.3954248 -472.25305176 408.27905273 C-472.24180305 390.32478503 -471.45090586 372.7998019 -469 355 C-468.7831958 353.37263916 -468.7831958 353.37263916 -468.56201172 351.71240234 C-457.46094518 270.3414617 -420.58238085 191.78245273 -364.515625 131.69921875 C-362.11597052 129.1244342 -359.77267791 126.50819887 -357.4375 123.875 C-351.04103162 116.75892893 -344.32984574 110.00440411 -337.0625 103.77734375 C-334.67535264 101.7202376 -332.33765244 99.61315228 -330 97.5 C-326.39960904 94.25033206 -322.76760213 91.0429779 -319.10546875 87.86328125 C-316.65832431 85.69762652 -314.27148483 83.47155893 -311.875 81.25 C-305.51983286 75.47098812 -298.86315575 70.16191113 -292 65 C-291.05326416 64.28457031 -291.05326416 64.28457031 -290.08740234 63.5546875 C-239.33074272 25.54118923 -177.67339307 9.56521345 -116 0 C-114.83388184 -0.18224121 -113.66776367 -0.36448242 -112.46630859 -0.55224609 C-76.09053013 -5.9133925 -36.32502351 -5.54487205 0 0 Z " fill="#AB8356" transform="translate(841,304)"/>
<path d="M0 0 C1.0818457 0.1556543 2.16369141 0.31130859 3.27832031 0.47167969 C61.4819448 9.04059414 115.63726042 29.03725884 165 61 C165.7425 61.47711426 166.485 61.95422852 167.25 62.44580078 C196.9225969 81.55466787 226.12901112 105.05517999 249.16796875 131.890625 C251.15311587 134.17629546 253.2003983 136.39701378 255.25 138.625 C313.09865308 202.92299616 346.64093877 287.52372219 355 373 C355.09643799 373.91644287 355.19287598 374.83288574 355.29223633 375.77709961 C356.2417226 386.03205861 356.18608563 396.30776764 356.18530273 406.59741211 C356.18746928 409.76755622 356.2056239 412.93733991 356.22460938 416.10742188 C356.25487578 426.90436123 355.964582 437.62064503 355.11328125 448.38671875 C354.99668404 449.91991508 354.99668404 449.91991508 354.87773132 451.48408508 C354.75323357 452.89901497 354.75323357 452.89901497 354.6262207 454.3425293 C354.55409866 455.17197556 354.48197662 456.00142181 354.40766907 456.85600281 C354 459 354 459 352 462 C351.13375 461.030625 350.2675 460.06125 349.375 459.0625 C341.50328328 451.30076734 332.35603898 446.07310673 321.9375 442.5625 C321.24293701 442.32781006 320.54837402 442.09312012 319.83276367 441.85131836 C313.20036706 439.78476297 307.05766623 439.0857948 300 438 C300 410.61 300 383.22 300 355 C208.59 355 117.18 355 23 355 C21.53064676 352.06129352 21.43475837 348.95539627 21.07617188 345.72729492 C20.98985001 344.9773526 20.90352814 344.22741028 20.81459045 343.45474243 C20.52888359 340.96373121 20.24871462 338.47213139 19.96875 335.98046875 C19.77105725 334.24324074 19.57309597 332.50604327 19.37487793 330.76887512 C18.95895428 327.11644687 18.54564766 323.46373485 18.13427734 319.81079102 C17.61061658 315.1617249 17.0815941 310.51328949 16.55068207 305.8650465 C16.14045563 302.26954277 15.73264567 298.67376812 15.32557678 295.07790565 C15.13164769 293.36647939 14.93711292 291.65512163 14.7419281 289.94383812 C13.64433745 280.30411187 12.65019374 270.68213632 12 261 C11.96574669 262.49432053 11.96574669 262.49432053 11.93080139 264.01882935 C11.71389166 273.46231919 11.49340031 282.90571972 11.26950932 292.34904671 C11.15455036 297.20254812 11.04080112 302.05607128 10.92993164 306.90966797 C10.8226511 311.60411603 10.71204257 316.29847551 10.59924126 320.99279404 C10.55702538 322.77307303 10.51595696 324.55337967 10.4761219 326.33371353 C10.41960532 328.85032801 10.35879881 331.3668082 10.29711914 333.88330078 C10.28201294 334.59972748 10.26690674 335.31615417 10.25134277 336.05429077 C10.07122672 343.07179176 9.50214077 349.97002929 9 357 C-54.69 357 -118.38 357 -184 357 C-191 289 -191 289 -192 279 C-192.04789169 279.93658951 -192.09578339 280.87317902 -192.14512634 281.83815002 C-192.59769195 290.68054762 -193.05361474 299.52276663 -193.51279354 308.36482334 C-193.7487334 312.9102047 -193.98350537 317.45564003 -194.21557617 322.0012207 C-194.43973474 326.39096984 -194.6670031 330.7805481 -194.89639473 335.17002678 C-194.98321005 336.84162664 -195.0689198 338.51328432 -195.15348625 340.18499947 C-195.2724605 342.53308388 -195.39542535 344.88092878 -195.51928711 347.22875977 C-195.55309479 347.91424896 -195.58690247 348.59973816 -195.62173462 349.30599976 C-195.85453805 353.61963958 -196.38465028 357.69255195 -197 362 C-269.27 362 -341.54 362 -416 362 C-416 387.08 -416 412.16 -416 438 C-422.27 438.66 -428.54 439.32 -435 440 C-447.68192947 443.53914311 -457.13483418 448.43812547 -467.28515625 456.6796875 C-469 458 -469 458 -470 458 C-471.62004523 442.30630485 -472.36788541 426.77426226 -472.3125 411 C-472.31100952 409.93894043 -472.30951904 408.87788086 -472.3079834 407.78466797 C-472.26335483 390.01050789 -471.42626169 372.62082262 -469 355 C-468.85546387 353.91509277 -468.71092773 352.83018555 -468.56201172 351.71240234 C-457.46094518 270.3414617 -420.58238085 191.78245273 -364.515625 131.69921875 C-362.11597052 129.1244342 -359.77267791 126.50819887 -357.4375 123.875 C-351.04103162 116.75892893 -344.32984574 110.00440411 -337.0625 103.77734375 C-334.67535264 101.7202376 -332.33765244 99.61315228 -330 97.5 C-326.39960904 94.25033206 -322.76760213 91.0429779 -319.10546875 87.86328125 C-316.65832431 85.69762652 -314.27148483 83.47155893 -311.875 81.25 C-305.51983286 75.47098812 -298.86315575 70.16191113 -292 65 C-291.05326416 64.28457031 -291.05326416 64.28457031 -290.08740234 63.5546875 C-239.33074272 25.54118923 -177.67339307 9.56521345 -116 0 C-114.83388184 -0.18224121 -113.66776367 -0.36448242 -112.46630859 -0.55224609 C-76.09053013 -5.9133925 -36.32502351 -5.54487205 0 0 Z " fill="#231F20" transform="translate(841,304)"/>
<path d="M0 0 C-0.49027073 13.08248745 -1.36621869 26.00905929 -3 39 C-2.30390625 39.11859375 -1.6078125 39.2371875 -0.890625 39.359375 C2.29080259 40.06444814 5.19095349 41.12597826 8.25 42.25 C19.18395413 46.06747023 30.63194118 47.94311381 42 50 C42.71559082 50.13035645 43.43118164 50.26071289 44.16845703 50.39501953 C59.37978099 53.11031572 74.72258777 53.23883812 90.125 53.25 C91.09399231 53.25100708 92.06298462 53.25201416 93.06134033 53.25305176 C109.22342497 53.2417382 124.99878376 52.44028409 141 50 C141.95342285 49.86078125 142.9068457 49.7215625 143.88916016 49.578125 C158.16933999 47.4401809 171.89679944 43.72901768 185.71362305 39.57910156 C188 39 188 39 191 39 C190.86368164 37.60092407 190.86368164 37.60092407 190.72460938 36.17358398 C190.38649155 32.68685227 190.05138424 29.19985762 189.71826172 25.71264648 C189.57394518 24.20829995 189.42845711 22.70406531 189.28173828 21.19995117 C189.07009828 19.0281216 188.86278512 16.85591402 188.65625 14.68359375 C188.53056641 13.37962646 188.40488281 12.07565918 188.27539062 10.73217773 C188.01022009 7.13850583 187.95107862 3.60183638 188 0 C209.52316066 -0.32188176 230.70886915 -0.62962328 252 3 C252.80598633 3.12858398 253.61197266 3.25716797 254.44238281 3.38964844 C308.20374891 12.1820816 361.0377742 44.54209205 393.45703125 88.41796875 C394.3097898 89.60834048 395.15716263 90.80258313 396 92 C396.4851709 92.68916504 396.9703418 93.37833008 397.47021484 94.08837891 C411.65765613 114.4505254 423.32498833 135.94750988 430 160 C397.83642509 175.57886118 364.96446023 189.79783172 331 201 C330.36455261 201.2097345 329.72910522 201.41946899 329.07440186 201.63555908 C269.0566635 221.37011785 206.9677103 233.9292058 144 239 C142.70449219 239.10441406 141.40898438 239.20882813 140.07421875 239.31640625 C54.82260057 245.9450544 -30.90372592 237.67764 -246 170 C-238.72075071 135.26758197 -219.99799527 102.18011987 -196.0625 76.25 C-194.24942906 74.27210442 -192.52960986 72.24803183 -190.8125 70.1875 C-154.72302283 28.93047645 -98.02714718 4.40687724 -44.09179688 0.21386719 C-29.43998142 -0.66238499 -14.66830855 -0.21425619 0 0 Z " fill="#F0623D" transform="translate(702,1326)"/>
<path d="M0 0 C3.3125 1.25 3.3125 1.25 6.3125 2.6875 C15.73254618 6.78407637 26.19854964 7.52213761 36.3125 8.25 C36.37195801 9.91494507 36.37195801 9.91494507 36.43261719 11.61352539 C37.29419669 35.02424362 38.59085748 58.09238903 42.3125 81.25 C42.57305176 82.91724121 42.57305176 82.91724121 42.83886719 84.61816406 C45.68341341 102.36371579 50.63302972 119.2216815 56.3125 136.25 C56.63009277 137.21760254 56.94768555 138.18520508 57.27490234 139.18212891 C60.55650576 149.14894518 64.15550371 158.79559554 68.91235352 168.16674805 C69.24033936 168.84906494 69.5683252 169.53138184 69.90625 170.234375 C70.20208984 170.81928711 70.49792969 171.40419922 70.80273438 172.00683594 C72.13168736 177.85473827 69.90610367 184.56188275 68.5546875 190.28515625 C68.37474747 191.05745575 68.19480743 191.82975525 68.00941467 192.62545776 C67.40835375 195.18932443 66.79886886 197.75107275 66.1875 200.3125 C65.97707062 201.1993045 65.76664124 202.08610901 65.54983521 202.99978638 C59.83427537 226.99483698 53.23924117 250.76169789 46.64428711 274.52709961 C46.41019638 275.37082626 46.17610565 276.21455292 45.93492126 277.08384705 C45.4364507 278.81862628 44.88328296 280.53765111 44.3125 282.25 C37.60514418 281.65054312 31.32441514 280.42094185 24.80859375 278.74609375 C23.8447023 278.5033522 22.88081085 278.26061066 21.88771057 278.01051331 C18.84036798 277.24173807 15.79518723 276.46476386 12.75 275.6875 C10.6713619 275.1615639 8.59258705 274.63616793 6.51367188 274.11132812 C1.44501708 272.83045842 -3.62189346 271.54286928 -8.6875 270.25 C-8.94313721 271.51344238 -9.19877441 272.77688477 -9.4621582 274.07861328 C-10.67765616 279.53131813 -12.44088666 284.72739449 -14.29296875 289.9921875 C-14.64933411 291.01838699 -15.00569946 292.04458649 -15.37286377 293.10188293 C-16.53512187 296.44473158 -17.70464454 299.78497848 -18.875 303.125 C-19.68333182 305.43975259 -20.49135268 307.75461378 -21.29907227 310.06958008 C-22.53599921 313.61433786 -23.77339249 317.15892616 -25.01292419 320.70277405 C-27.38373012 327.48653817 -29.72999189 334.27791579 -32.04533386 341.08081055 C-33.41017859 345.09081136 -34.7833998 349.09791871 -36.15737915 353.10479736 C-36.80132799 354.98995266 -37.44129854 356.87647169 -38.07723999 358.76434326 C-38.95620784 361.37142131 -39.84938518 363.97319964 -40.74609375 366.57421875 C-41.00158997 367.34457962 -41.25708618 368.11494049 -41.52032471 368.90864563 C-42.15374282 370.72265741 -42.9099305 372.49294482 -43.6875 374.25 C-47.05024393 375.37091464 -47.57392467 375.1830134 -50.74291992 373.9934082 C-51.56142426 373.69128922 -52.37992859 373.38917023 -53.22323608 373.07789612 C-54.11249786 372.73894821 -55.00175964 372.40000031 -55.91796875 372.05078125 C-56.84928619 371.70430038 -57.78060364 371.35781952 -58.74014282 371.00083923 C-61.78869362 369.86408907 -64.83199265 368.71399979 -67.875 367.5625 C-69.96096343 366.7783906 -72.04714614 365.99486431 -74.13354492 365.21191406 C-77.28633596 364.02851093 -80.4387711 362.84423075 -83.58973694 361.65597534 C-89.97913874 359.24984549 -96.38728206 356.90771555 -102.8203125 354.62109375 C-105.02519237 353.82865413 -107.2293933 353.03436318 -109.43325806 352.23910522 C-110.80644581 351.74802783 -112.18209488 351.26377715 -113.56015015 350.78652954 C-115.4489106 350.1312453 -117.32832154 349.44919161 -119.20703125 348.765625 C-120.77094604 348.21310059 -120.77094604 348.21310059 -122.36645508 347.64941406 C-124.6875 346.25 -124.6875 346.25 -125.61962891 344.00170898 C-125.70208123 340.65883095 -125.10551818 337.94269688 -124.25390625 334.70703125 C-123.7753418 332.84981445 -123.7753418 332.84981445 -123.28710938 330.95507812 C-122.94186643 329.65742956 -122.59615801 328.35990476 -122.25 327.0625 C-121.58082236 324.50748683 -120.91739521 321.95103299 -120.25390625 319.39453125 C-119.95427979 318.26378174 -119.65465332 317.13303223 -119.34594727 315.96801758 C-118.60901913 313.39214323 -118.60901913 313.39214323 -118.6875 311.25 C-119.85095947 310.7967334 -121.01441895 310.3434668 -122.21313477 309.87646484 C-126.6025585 308.16620314 -130.99163446 306.45505045 -135.38061523 304.74365234 C-137.26659078 304.00838986 -139.15265585 303.27335695 -141.03881836 302.53857422 C-152.27613484 298.16070923 -163.50077966 293.75580738 -174.6875 289.25 C-176.34625754 239.13059792 -162.84141614 185.0193722 -140.6875 140.25 C-140.23117188 139.32493652 -139.77484375 138.39987305 -139.3046875 137.44677734 C-126.04769204 110.81315446 -109.5137987 86.83763577 -89.25390625 65.0390625 C-87.11251785 62.71189155 -85.04407371 60.34941385 -83 57.9375 C-80.20295542 54.71826001 -77.19708374 51.94832023 -73.94140625 49.19921875 C-72.32955348 47.80525942 -70.75781302 46.36437402 -69.21484375 44.89453125 C-57.98052267 34.19743509 -16.64188755 -4.64424769 0 0 Z " fill="#231F20" transform="translate(387.6875,870.75)"/>
<path d="M0 0 C1.77170203 1.14093424 3.5587026 2.15691221 5.42041016 3.14208984 C23.91362667 13.0544539 40.93644137 26.40737655 56.21728516 40.72412109 C58.51046349 42.86041532 60.83751152 44.93114875 63.21337891 46.97412109 C69.65991758 52.58154419 75.35241219 58.74003058 80.90087891 65.22412109 C81.70267578 66.13677734 82.50447266 67.04943359 83.33056641 67.98974609 C135.29665241 127.6018588 158.36359621 205.31081532 161.90087891 283.22412109 C155.78890378 286.40360328 149.58448255 289.03067599 143.16259766 291.51708984 C142.16001419 291.90858719 141.15743073 292.30008453 140.12446594 292.70344543 C136.94714192 293.94305771 133.76776956 295.17732047 130.58837891 296.41162109 C128.43395264 297.25178417 126.27965445 298.09227575 124.12548828 298.93310547 C120.19677931 300.46453795 116.26802216 301.995835 112.3371582 303.52172852 C111.15756783 303.97995247 111.15756783 303.97995247 109.95414734 304.44743347 C108.28413182 305.07914843 106.59475437 305.65949594 104.90087891 306.22412109 C105.15482422 307.22830078 105.40876953 308.23248047 105.67041016 309.26708984 C107.36138538 315.97413047 109.03869591 322.68519252 110.65087891 329.41162109 C110.89322266 330.41580078 111.13556641 331.41998047 111.38525391 332.45458984 C111.88120084 335.11842603 111.99966026 337.52245117 111.90087891 340.22412109 C105.21999717 343.30586084 98.43323644 345.97562711 91.53369141 348.52490234 C90.45948944 348.92436569 89.38528748 349.32382904 88.27853394 349.73539734 C84.86197202 351.00515614 81.44394914 352.27092894 78.02587891 353.53662109 C75.77057501 354.37425445 73.51536587 355.21214302 71.26025391 356.05029297 C66.87374285 357.67997397 62.48601847 359.30631774 58.09716797 360.9296875 C54.09652268 362.40947084 50.09854496 363.89607812 46.10302734 365.38964844 C44.36637914 366.03631018 42.62972583 366.68295821 40.89306641 367.32958984 C40.10417023 367.62617996 39.31527405 367.92277008 38.50247192 368.22834778 C33.12697529 370.22412109 33.12697529 370.22412109 30.90087891 370.22412109 C25.07111143 355.24268978 19.958036 340.00550394 14.75683594 324.79815674 C12.83686329 319.18621263 10.91246111 313.57578493 8.98879242 307.96510696 C8.28912474 305.9235686 7.59021206 303.881773 6.89141846 301.8399353 C4.75481247 295.60061795 2.60631001 289.36587706 0.42333984 283.14257812 C0.04644012 282.06726334 -0.33045959 280.99194855 -0.71878052 279.88404846 C-1.41669437 277.89716115 -2.1172805 275.91120972 -2.8210144 273.92637634 C-3.12435699 273.06307205 -3.42769958 272.19976776 -3.74023438 271.31030273 C-4.13675705 270.19033653 -4.13675705 270.19033653 -4.54129028 269.04774475 C-5.09912109 267.22412109 -5.09912109 267.22412109 -5.09912109 265.22412109 C-5.68936569 265.37445801 -6.27961029 265.52479492 -6.88774109 265.6796875 C-13.03412691 267.24394932 -19.18257174 268.79990853 -25.33227539 270.35107422 C-27.62675917 270.93097909 -29.92071044 271.51299519 -32.21411133 272.09716797 C-35.51164054 272.93672076 -38.81101341 273.76864983 -42.11083984 274.59912109 C-43.13497482 274.86160645 -44.1591098 275.1240918 -45.21427917 275.39453125 C-46.17489761 275.63478027 -47.13551605 275.8750293 -48.12524414 276.12255859 C-48.96685593 276.3357373 -49.80846771 276.54891602 -50.67558289 276.76855469 C-53.20438087 277.24390738 -55.53212127 277.30485257 -58.09912109 277.22412109 C-73.67765614 220.77294615 -73.67765614 220.77294615 -79.51470947 196.64642334 C-79.94335817 194.87573496 -80.37621033 193.10605849 -80.81341553 191.33746338 C-81.41320874 188.90168015 -81.99549123 186.46243304 -82.57177734 184.02099609 C-82.74488937 183.3256778 -82.9180014 182.6303595 -83.09635925 181.91397095 C-84.53857693 175.6122432 -83.90798154 170.34445255 -81.16552734 164.52880859 C-80.76881836 163.66328369 -80.37210938 162.79775879 -79.96337891 161.90600586 C-79.31900879 160.5165979 -79.31900879 160.5165979 -78.66162109 159.09912109 C-56.23483659 108.99716334 -50.23988177 57.42341557 -48.09912109 3.22412109 C-46.89400879 3.05614014 -45.68889648 2.88815918 -44.44726562 2.71508789 C-36.22978434 1.5024993 -29.13353812 0.44023909 -21.97412109 -3.96337891 C-13.20768403 -8.49023707 -7.73141851 -5.07284165 0 0 Z " fill="#231F20" transform="translate(1190.09912109375,875.77587890625)"/>
<path d="M0 0 C65.01 0 130.02 0 197 0 C197 28.97199331 185.62766514 52.79069391 165.20068359 73.23852539 C145.51050487 92.18870454 118.72792596 99.74802973 92 99.31640625 C84.21555096 99.02424492 77.38740966 97.45713409 70 95 C68.77925781 94.61457031 67.55851563 94.22914062 66.30078125 93.83203125 C39.63591695 84.92452523 20.6782504 66.20979791 8.0859375 41.47265625 C1.52291718 27.93531721 0 15.16275631 0 0 Z " fill="#FEFEFE" transform="translate(695,932)"/>
<path d="M0 0 C7.7060137 6.30348769 12.85757734 14.64164384 14.10546875 24.578125 C14.55841943 35.69377961 11.61148281 44.15119883 4.5 52.6875 C-1.77942449 59.22988197 -9.58088774 63.29103008 -18.70654297 63.54321289 C-30.83143674 63.65425701 -39.18296438 61.3398931 -48.1484375 52.6875 C-55.15526329 44.79533521 -57.8152669 36.07370873 -57.625 25.6328125 C-56.72572759 15.89818863 -52.32888438 7.87549729 -45.20703125 1.30859375 C-31.79239369 -9.75097835 -14.40729172 -9.94918636 0 0 Z " fill="#0D0B0B" transform="translate(979.3125,698.75)"/>
<path d="M0 0 C8.33727878 4.71513784 14.64478711 11.71748965 18.5625 20.44921875 C20.99109904 29.48057144 20.99369926 39.63616564 16.875 48.07421875 C15.8157862 49.8928225 14.71646546 51.68921387 13.5625 53.44921875 C12.98822266 54.36960937 12.98822266 54.36960937 12.40234375 55.30859375 C8.20765081 61.14207354 0.31843134 65.31678705 -6.4375 67.44921875 C-19.03008343 69.12388573 -28.65406779 67.06407422 -39.03125 59.578125 C-41.6206908 57.28714247 -43.28622841 55.05809293 -45.125 52.13671875 C-45.99705078 50.78126953 -45.99705078 50.78126953 -46.88671875 49.3984375 C-51.37764527 40.8577586 -51.77243034 30.97156294 -49.85546875 21.60546875 C-46.71085211 12.53059334 -39.62520304 5.22711685 -31.45703125 0.38671875 C-21.64676723 -4.167369 -9.97089635 -4.22872836 0 0 Z " fill="#0C0B0B" transform="translate(632.4375,694.55078125)"/>
<path d="M0 0 C4.13127811 0.86068294 5.41953108 2.30054789 8 5.625 C8.71492065 8.65127612 8.65415887 11.59433256 8.60127258 14.69221497 C8.60554471 15.60711927 8.60981683 16.52202357 8.61421841 17.46465224 C8.62245651 20.53137571 8.59494941 23.59673256 8.56762695 26.66333008 C8.56621666 28.86108366 8.56700809 31.05883959 8.56983948 33.2565918 C8.57127576 39.2253195 8.54185094 45.19354617 8.50696969 51.1621573 C8.47574195 57.39882517 8.47277826 63.63550416 8.46684265 69.87223816 C8.45306104 80.3409375 8.4218168 90.80946511 8.37719727 101.27807617 C8.3312903 112.05996786 8.29590401 122.84180958 8.2746582 133.6237793 C8.27334459 134.28856569 8.27203097 134.95335209 8.27067754 135.63828353 C8.26415228 138.97337794 8.25784503 142.30847269 8.25161803 145.64356768 C8.1993361 173.30417327 8.1113732 200.9645737 8 228.625 C3.72942071 225.83444508 0.02239376 222.9449439 -3.6875 219.4375 C-7.61701537 215.75901473 -11.61229945 212.24788832 -15.8125 208.875 C-28.68788792 198.49643116 -28.68788792 198.49643116 -29.3125 192.75 C-29 189.625 -29 189.625 -27.5 187.25 C-24.69416305 185.42620598 -22.5116104 184.88966713 -19.15722656 185.0168457 C-16.34437416 185.80983069 -14.8691581 187.19173126 -12.734375 189.16796875 C-12.03022461 189.81145264 -11.32607422 190.45493652 -10.60058594 191.11791992 C-10.07239258 191.61525635 -9.54419922 192.11259277 -9 192.625 C-8.99918285 191.18629154 -8.99918285 191.18629154 -8.99834919 189.71851826 C-8.98396047 166.39182853 -8.94097167 143.06532555 -8.86790943 119.73874378 C-8.83324086 108.45821274 -8.80790145 97.17780414 -8.80444336 85.8972168 C-8.80140607 76.06624551 -8.78094722 66.23549217 -8.73947543 56.40460509 C-8.71812245 51.1980774 -8.70555666 45.99185975 -8.71384621 40.78528786 C-8.72137174 35.88581326 -8.70562456 30.98696761 -8.67193985 26.08760834 C-8.66368849 24.28850089 -8.66397787 22.4893311 -8.67340279 20.69022942 C-8.68499466 18.23458054 -8.66595524 15.78100333 -8.63923645 13.32551575 C-8.65524634 12.25595106 -8.65524634 12.25595106 -8.67157966 11.16477901 C-8.593591 7.32675502 -8.07561004 5.71956573 -5.64754772 2.68278027 C-3 0.625 -3 0.625 0 0 Z " fill="#77562F" transform="translate(804,683.375)"/>
</svg>
