<?xml version="1.0" encoding="UTF-8"?>
<svg version="1.1" xmlns="http://www.w3.org/2000/svg" width="2754" height="2755">
<path d="M0 0 C6.61506054 0.01136975 13.22995958 0.00462304 19.84501457 -0.00688362 C45.86524081 -0.04517318 71.85138227 0.14472407 97.85302734 1.19042969 C99.40282162 1.25267857 99.40282162 1.25267857 100.98392487 1.316185 C232.9881554 6.76342098 232.9881554 6.76342098 275.70458984 44.26074219 C276.95369141 45.22947266 276.95369141 45.22947266 278.22802734 46.21777344 C287.25030344 53.66043968 294.61977571 65.72754551 296.70458984 77.26074219 C297.56286377 77.25026855 298.4211377 77.23979492 299.30541992 77.22900391 C377.61035961 76.40567387 454.2488424 93.12440061 515.70458984 144.26074219 C516.21425293 144.6801709 516.72391602 145.09959961 517.24902344 145.53173828 C529.72599159 155.82919473 541.61759518 166.88370083 551.62646484 179.63574219 C553.00813477 181.38100946 554.43599682 183.09070755 555.90771484 184.76074219 C570.20500849 201.04640118 581.49130736 220.21805178 591.70458984 239.26074219 C592.15608398 240.10185547 592.60757812 240.94296875 593.07275391 241.80957031 C614.45804664 282.12030902 629.88697151 326.65679736 639.45849609 371.24511719 C642.81585522 386.832761 647.0561446 400.26406058 654.70458984 414.26074219 C655.69203293 416.13090456 656.67765987 418.00202679 657.66162109 419.87402344 C669.29774432 441.92432657 669.29774432 441.92432657 684.86865234 461.22167969 C686.70458984 463.26074219 686.70458984 463.26074219 686.70458984 465.26074219 C687.60757813 465.67453125 687.60757813 465.67453125 688.52880859 466.09667969 C690.70458984 467.26074219 690.70458984 467.26074219 693.51708984 469.88574219 C697.10240812 473.04331099 701.01595681 475.2648346 705.20458984 477.51074219 C705.83341064 477.85186035 706.46223145 478.19297852 707.11010742 478.54443359 C719.82074946 485.19837116 731.97321438 483.53576297 745.70458984 481.26074219 C746.31005859 483.11230469 746.31005859 483.11230469 746.70458984 485.26074219 C741.50809073 492.57433354 731.14110817 496.31041239 722.70458984 498.26074219 C703.74415328 500.36965186 688.65258355 494.36119547 673.84179688 482.80761719 C666.78569523 477.12907441 660.55257909 471.19116383 654.70458984 464.26074219 C654.79023193 465.38416016 654.87587402 466.50757813 654.96411133 467.66503906 C655.36927784 473.02938055 655.75664003 478.39495318 656.14208984 483.76074219 C656.21383423 484.7437027 656.28557861 485.72666321 656.35949707 486.7394104 C657.14757086 497.65848504 657.80237313 508.54167145 657.88037109 519.49121094 C657.88930893 520.38006989 657.89824677 521.26892883 657.90745544 522.1847229 C657.94543276 526.38255955 657.94661067 530.57491122 657.88598633 534.77246094 C657.82872708 559.81700069 674.02783462 582.65457573 691.01708984 600.01074219 C700.04025294 608.96068693 710.40102105 615.48436936 721.70458984 621.26074219 C721.37458984 622.25074219 721.04458984 623.24074219 720.70458984 624.26074219 C699.05131673 623.487411 679.30422063 608.99605905 664.55615234 594.37792969 C662.92906731 592.51742317 661.51491267 590.64263785 660.08886719 588.62841797 C659.64151215 587.99783478 659.1941571 587.36725159 658.73324585 586.71755981 C658.39378937 586.23681 658.05433289 585.75606018 657.70458984 585.26074219 C657.63054932 586.34186279 657.55650879 587.4229834 657.48022461 588.53686523 C651.83406557 669.31824472 641.72767392 750.74570765 626.23120117 830.21923828 C625.61928811 833.23895266 625.61928811 833.23895266 625.70458984 836.26074219 C627.30214127 837.77722985 627.30214127 837.77722985 629.39208984 839.13574219 C632.84507005 841.60562434 635.80737227 844.13479691 638.70458984 847.26074219 C639.16349609 847.70289063 639.62240234 848.14503906 640.09521484 848.60058594 C655.15437001 864.17492273 656.9388798 889.43753944 656.95458984 909.76074219 C656.95560196 910.93390488 656.95560196 910.93390488 656.95663452 912.13076782 C656.93852436 925.38047018 656.1063203 938.20704428 653.70458984 951.26074219 C653.5329834 952.21384277 653.36137695 953.16694336 653.18457031 954.14892578 C642.07717071 1014.47034437 617.37207259 1079.4482578 576.70458984 1126.26074219 C575.85251953 1127.25847656 575.00044922 1128.25621094 574.12255859 1129.28417969 C564.41982178 1140.42234668 552.710504 1150.6836979 537.70458984 1153.26074219 C537.59352402 1153.80252609 537.48245819 1154.34431 537.36802673 1154.9025116 C536.16284727 1160.57223904 534.61976196 1166.04986942 532.83349609 1171.56152344 C532.55556717 1172.42743103 532.27763824 1173.29333862 531.99128723 1174.18548584 C531.08961908 1176.98352612 530.17974561 1179.77876748 529.26708984 1182.57324219 C528.9543512 1183.53237518 528.64161255 1184.49150818 528.31939697 1185.47970581 C506.26143734 1252.92040326 472.08873438 1314.03655599 427.70458984 1369.26074219 C426.95951172 1370.18886719 426.21443359 1371.11699219 425.44677734 1372.07324219 C416.39962786 1383.22815051 407.0081075 1394.05403608 397.24078369 1404.58177185 C396.07397385 1405.857027 394.91893825 1407.14306696 393.76947021 1408.43397522 C388.60700064 1414.23136184 383.29016916 1419.82261969 377.79443359 1425.30371094 C376.9826918 1426.11640945 376.17095001 1426.92910797 375.33460999 1427.76643372 C373.63421266 1429.4675057 371.93257538 1431.16733908 370.22973633 1432.8659668 C367.6414233 1435.44890735 365.05851424 1438.03716559 362.47607422 1440.62597656 C360.81168131 1442.28970884 359.14697831 1443.95313098 357.48193359 1445.61621094 C356.33941383 1446.76176704 356.33941383 1446.76176704 355.17381287 1447.9304657 C351.06124615 1452.0253018 346.86686259 1455.9613725 342.46224976 1459.74119568 C339.70025633 1462.1290168 337.05458127 1464.63834371 334.39208984 1467.13574219 C329.62048089 1471.57539512 324.72290994 1475.7773336 319.63818359 1479.85839844 C316.15554687 1482.71035794 312.77697691 1485.66916344 309.39208984 1488.63574219 C302.96231341 1494.24730139 296.36275223 1499.57834456 289.60595703 1504.7890625 C287.56106493 1506.37183209 285.52674664 1507.96753743 283.49365234 1509.56542969 C273.46360147 1517.43504278 263.29168975 1525.08747759 252.98681641 1532.59326172 C250.8723748 1534.13815219 248.76777566 1535.69541714 246.66552734 1537.25683594 C232.4079051 1547.77585397 217.56290199 1557.44899814 202.78881836 1567.22045898 C200.75837143 1568.56364311 198.73022792 1569.9103168 196.70458984 1571.26074219 C198.08131802 1579.54140992 200.48417693 1587.3720629 203.14208984 1595.32324219 C203.35945801 1595.97425903 203.57682617 1596.62527588 203.80078125 1597.29602051 C212.32458856 1622.67428146 223.38457202 1646.93134894 239.70458984 1668.26074219 C240.40970703 1669.19015625 241.11482422 1670.11957031 241.84130859 1671.07714844 C246.18781297 1676.5966466 250.90300473 1681.75983054 255.76708984 1686.82324219 C256.33266602 1687.43167969 256.89824219 1688.04011719 257.48095703 1688.66699219 C258.04073242 1689.23546875 258.60050781 1689.80394531 259.17724609 1690.38964844 C259.66459229 1690.89568604 260.15193848 1691.40172363 260.65405273 1691.9230957 C266.25308592 1695.57556657 273.93771702 1695.78418026 280.43896484 1696.52246094 C282.37235892 1696.75247483 284.30570654 1696.98287948 286.23901367 1697.21362305 C287.25105865 1697.33285126 288.26310364 1697.45207947 289.30581665 1697.57492065 C354.67096383 1705.32467444 419.0747282 1717.72506318 481.70458984 1738.26074219 C482.91924927 1738.6580957 482.91924927 1738.6580957 484.15844727 1739.06347656 C508.33568979 1746.98814875 532.17328251 1755.58422925 555.70458984 1765.26074219 C556.84879395 1765.7307666 557.99299805 1766.20079102 559.171875 1766.68505859 C587.21668273 1778.26530072 614.67988237 1790.98234533 641.89605713 1804.3727417 C644.55166706 1805.67666222 647.2125541 1806.96972172 649.87255859 1808.26464844 C661.16462159 1813.79654383 672.13963934 1819.77922643 683.04443359 1826.03808594 C686.82405259 1828.2043017 690.62556345 1830.31922414 694.45849609 1832.38964844 C695.37356934 1832.88464844 696.28864258 1833.37964844 697.23144531 1833.88964844 C698.95529628 1834.81848427 700.6820235 1835.74200957 702.41210938 1836.65917969 C706.42924416 1838.82942353 709.61424035 1840.83111805 712.70458984 1844.26074219 C715.30250636 1845.99268653 717.91406028 1847.41024472 720.69165039 1848.82250977 C733.61864924 1855.45510061 744.25112863 1864.2831142 754.70458984 1874.26074219 C755.8009375 1875.29521484 755.8009375 1875.29521484 756.91943359 1876.35058594 C762.33699728 1881.59650404 767.05634891 1887.33073593 771.70458984 1893.26074219 C772.14786621 1893.82229004 772.59114258 1894.38383789 773.04785156 1894.96240234 C823.76754471 1959.55807141 853.00396082 2042.8618497 874.70458984 2121.26074219 C875.04644318 2122.49153503 875.04644318 2122.49153503 875.39520264 2123.74719238 C876.85090057 2128.99590953 878.28748885 2134.24940157 879.70178223 2139.50942993 C880.15811253 2141.20424714 880.61745293 2142.89825704 881.07995605 2144.59140015 C881.72002198 2146.94318238 882.34527712 2149.29840351 882.96630859 2151.65527344 C883.15841415 2152.35262604 883.35051971 2153.04997864 883.54844666 2153.76846313 C884.53367918 2157.58267882 885.03607805 2160.50112206 883.70458984 2164.26074219 C881.71449958 2166.12813516 879.83596115 2167.67286203 877.64208984 2169.26074219 C876.35567645 2170.22912652 875.07056981 2171.19924864 873.78662109 2172.17089844 C873.11453613 2172.67508301 872.44245117 2173.17926758 871.75 2173.69873047 C868.37206529 2176.27834688 865.10867521 2178.99494499 861.82958984 2181.69824219 C854.60607058 2187.60680678 847.19507444 2193.22907911 839.69580078 2198.78125 C837.71545024 2200.25267279 835.74379346 2201.73496598 833.77490234 2203.22167969 C777.63142992 2245.60777345 717.80472554 2283.24832288 655.70458984 2316.26074219 C654.37258545 2316.97012939 654.37258545 2316.97012939 653.01367188 2317.69384766 C641.01007073 2324.06847897 628.89472874 2330.2237014 616.75061035 2336.3253479 C615.21068097 2337.09931763 613.67134649 2337.87447245 612.13269043 2338.65097046 C601.13281958 2344.19684227 590.00070505 2349.34671166 578.70458984 2354.26074219 C578.04458984 2353.60074219 577.38458984 2352.94074219 576.70458984 2352.26074219 C576.45079559 2352.87998566 576.19700134 2353.49922913 575.93551636 2354.13723755 C574.49850804 2356.61625948 573.6067263 2357.12434734 571.00976562 2358.23681641 C570.24379059 2358.57225464 569.47781555 2358.90769287 568.68862915 2359.2532959 C567.8508493 2359.60380005 567.01306946 2359.9543042 566.14990234 2360.31542969 C564.83631241 2360.88251648 564.83631241 2360.88251648 563.4961853 2361.46105957 C560.61318706 2362.70022222 557.72201241 2363.91875628 554.82958984 2365.13574219 C552.8183672 2365.99166078 550.80730093 2366.84794687 548.79638672 2367.70458984 C530.91669208 2375.28905307 512.89530367 2382.4591631 494.70458984 2389.26074219 C494.00126526 2389.52483887 493.29794067 2389.78893555 492.57330322 2390.06103516 C394.04499229 2427.04772675 291.28355043 2452.60918087 100.70458984 2474.26074219 C99.88974121 2474.31897156 99.07489258 2474.37720093 98.23535156 2474.43719482 C-5.91828967 2481.80243757 -111.29456886 2475.79091926 -401.29541016 2415.26074219 C-402.16651428 2414.98957581 -403.03761841 2414.71840942 -403.93511963 2414.43902588 C-446.51774655 2401.17904505 -488.24420722 2385.68352373 -529.29541016 2368.26074219 C-529.9971637 2367.96337158 -530.69891724 2367.66600098 -531.42193604 2367.35961914 C-570.67282636 2350.70653906 -609.41936411 2332.40889388 -646.69628906 2311.69482422 C-649.3172169 2310.24871018 -651.9501692 2308.82739891 -654.58837891 2307.41308594 C-668.22003055 2300.09261374 -681.55828084 2292.31469556 -694.81884766 2284.34619141 C-698.23100618 2282.29657981 -701.65396931 2280.26537411 -705.07666016 2278.23339844 C-721.57622661 2268.3839686 -737.60256696 2257.90041345 -753.52693176 2247.14854431 C-758.09047245 2244.0673286 -762.67034328 2241.01152197 -767.25634766 2237.96386719 C-772.42269333 2234.52639262 -777.55321064 2231.04816162 -782.60791016 2227.44824219 C-783.30754883 2226.95163086 -784.0071875 2226.45501953 -784.72802734 2225.94335938 C-786.91926616 2224.38542657 -789.10752386 2222.82337855 -791.29541016 2221.26074219 C-792.01067871 2220.75172363 -792.72594727 2220.24270508 -793.46289062 2219.71826172 C-805.04795184 2211.46628172 -816.40679109 2202.93994122 -827.67626953 2194.26269531 C-830.3001208 2192.25714158 -832.94343544 2190.27999749 -835.59228516 2188.30761719 C-837.24346868 2187.0630137 -838.89451652 2185.81823017 -840.54541016 2184.57324219 C-841.31433594 2184.00935791 -842.08326172 2183.44547363 -842.87548828 2182.86450195 C-843.57609375 2182.33139404 -844.27669922 2181.79828613 -844.99853516 2181.24902344 C-845.61374023 2180.79052002 -846.22894531 2180.3320166 -846.86279297 2179.85961914 C-848.77972792 2177.72021781 -848.9180568 2176.09029698 -849.29541016 2173.26074219 C-849.02307129 2171.02853394 -849.02307129 2171.02853394 -848.45361328 2168.72900391 C-848.241064 2167.85088547 -848.02851471 2166.97276703 -847.80952454 2166.06803894 C-847.56767929 2165.11842789 -847.32583405 2164.16881683 -847.07666016 2163.19042969 C-846.82784592 2162.18252884 -846.57903168 2161.17462799 -846.32267761 2160.13618469 C-845.49327794 2156.79928583 -844.6459112 2153.46732156 -843.79541016 2150.13574219 C-843.50397125 2148.98361237 -843.21253235 2147.83148254 -842.91226196 2146.6444397 C-820.23969315 2057.18505562 -791.87362478 1954.23858336 -720.29541016 1869.26074219 C-719.76947266 1868.6690625 -719.24353516 1868.07738281 -718.70166016 1867.46777344 C-707.45287703 1855.38680993 -693.17339834 1848.03708608 -677.98291016 1842.19824219 C-676.41494748 1841.56578666 -674.85246498 1840.91959514 -673.29541016 1840.26074219 C-672.36083984 1839.86886719 -671.42626953 1839.47699219 -670.46337891 1839.07324219 C-667.65609319 1837.69119384 -665.50996141 1836.47529344 -663.29541016 1834.26074219 C-662.63067338 1831.4988077 -662.80019462 1829.27061305 -663.05712891 1826.44433594 C-664.02621497 1813.49671064 -660.24121213 1799.08448395 -651.87353516 1789.02636719 C-651.35275391 1788.44371094 -650.83197266 1787.86105469 -650.29541016 1787.26074219 C-649.79525391 1786.65746094 -649.29509766 1786.05417969 -648.77978516 1785.43261719 C-641.65734069 1777.48037337 -631.42757462 1773.8161996 -621.29541016 1771.26074219 C-621.60994141 1770.31457031 -621.92447266 1769.36839844 -622.24853516 1768.39355469 C-624.68578516 1760.91728072 -626.84105535 1753.44000432 -628.54541016 1745.76074219 C-628.78952637 1744.66850342 -628.78952637 1744.66850342 -629.03857422 1743.55419922 C-633.74856104 1721.66926046 -634.85561694 1693.36473648 -622.98291016 1673.59667969 C-617.30845177 1665.74175813 -609.84239704 1661.34762759 -600.30712891 1659.76464844 C-594.13572344 1659.12947202 -588.42656326 1659.47574367 -582.29541016 1660.26074219 C-582.49175049 1659.62273682 -582.68809082 1658.98473145 -582.89038086 1658.32739258 C-591.7221983 1629.42349871 -601.02183476 1593.32460796 -585.98291016 1564.76855469 C-580.87044613 1556.51637091 -574.62454943 1551.01360296 -565.29541016 1548.26074219 C-555.92377754 1546.06738136 -546.58712123 1547.21217597 -537.29541016 1549.26074219 C-537.45525391 1548.33390625 -537.61509766 1547.40707031 -537.77978516 1546.45214844 C-541.88425114 1517.40795741 -536.81411154 1478.38393951 -519.45556641 1453.90136719 C-516.16561819 1449.87965834 -512.55003128 1446.26192721 -508.29541016 1443.26074219 C-507.63541016 1443.26074219 -506.97541016 1443.26074219 -506.29541016 1443.26074219 C-506.8372998 1441.62890991 -506.8372998 1441.62890991 -507.39013672 1439.96411133 C-523.91804219 1390.09841329 -538.31041185 1340.39752481 -547.60073853 1288.6608429 C-550.02570171 1275.16287904 -552.52853031 1261.67931825 -555.04541016 1248.19824219 C-555.17150036 1247.52238068 -555.29759056 1246.84651917 -555.42750168 1246.150177 C-559.30566685 1225.37329489 -563.37726062 1204.64349044 -567.67041016 1183.94824219 C-567.91126343 1182.78582001 -568.1521167 1181.62339783 -568.40026855 1180.42575073 C-569.77253664 1173.81883744 -571.17004764 1167.21780562 -572.58496094 1160.61990356 C-573.3417276 1157.04174306 -574.06891776 1153.45820074 -574.79541016 1149.8737793 C-575.30260268 1147.44274166 -575.81039809 1145.01182972 -576.31884766 1142.58105469 C-576.53930756 1141.46159958 -576.75976746 1140.34214447 -576.98690796 1139.18876648 C-578.92213769 1130.104321 -582.52442585 1124.37983166 -588.88720703 1117.78369141 C-591.27022543 1115.20649502 -593.27555303 1112.37590508 -595.29541016 1109.51074219 C-595.70259277 1108.93670654 -596.10977539 1108.3626709 -596.52929688 1107.77124023 C-639.37091453 1046.53886923 -676.89574464 956.31685272 -664.1105957 880.24487305 C-661.63429542 868.00769221 -657.07544215 852.62747031 -647.08056641 844.44824219 C-644.48099894 841.26277658 -645.04311837 838.18166191 -645.29541016 834.26074219 C-645.69776619 830.4589687 -646.24207495 826.68319558 -646.79931641 822.90136719 C-647.1278602 820.5970417 -647.45613535 818.29267789 -647.78417969 815.98828125 C-647.95902893 814.77305786 -648.13387817 813.55783447 -648.31402588 812.30578613 C-654.90794455 766.29561049 -660.08816749 720.14229616 -664.43066406 673.86914062 C-664.60870575 671.9742263 -664.60870575 671.9742263 -664.79034424 670.04103088 C-665.01076683 667.68584886 -665.22943501 665.33050168 -665.44598389 662.97496033 C-665.93623872 657.71118625 -666.48127159 652.48472044 -667.29541016 647.26074219 C-667.63572266 648.24171875 -667.97603516 649.22269531 -668.32666016 650.23339844 C-675.27581641 669.78186821 -685.26116641 690.77101042 -704.92041016 700.26074219 C-709.4205343 702.12352473 -713.44446094 702.98616016 -718.29541016 703.26074219 C-717.73832683 699.64362367 -716.56679999 698.31928012 -713.73291016 696.07324219 C-688.41934898 674.68531349 -682.85806092 640.10909319 -679.65478516 608.74902344 C-679.52945222 607.25338371 -679.41052255 605.75720324 -679.29541016 604.26074219 C-679.21363525 603.20282471 -679.13186035 602.14490723 -679.04760742 601.05493164 C-678.321496 590.98139511 -677.98959224 580.91765818 -677.73291016 570.82324219 C-677.68956195 569.20539635 -677.64594353 567.58755772 -677.60205078 565.96972656 C-677.49673615 562.06680756 -677.39502889 558.16381055 -677.29541016 554.26074219 C-677.88346436 555.19378174 -678.47151855 556.12682129 -679.07739258 557.08813477 C-689.28425625 573.18992235 -702.42610769 591.04638016 -720.29541016 599.26074219 C-721.28541016 598.93074219 -722.27541016 598.60074219 -723.29541016 598.26074219 C-720.38100811 594.24676721 -717.44455906 590.37788877 -714.04541016 586.76074219 C-694.7905083 564.9555222 -686.21408515 535.06212099 -680.29541016 507.26074219 C-680.14088379 506.54047852 -679.98635742 505.82021484 -679.82714844 505.078125 C-675.89731317 486.43240493 -674.96374693 467.86309024 -674.4619751 448.85852051 C-673.80558634 424.58869049 -672.80701777 400.41423879 -670.29541016 376.26074219 C-670.22493469 375.58041931 -670.15445923 374.90009644 -670.08184814 374.19915771 C-665.79992693 333.41001015 -658.43229716 292.22334595 -634.29541016 258.26074219 C-633.45896784 257.06448042 -632.62302686 255.86786795 -631.78759766 254.67089844 C-623.69709679 243.1492645 -615.12084422 232.0923871 -605.96337891 221.40136719 C-603.43332259 218.44157538 -600.9864708 215.41945423 -598.54541016 212.38574219 C-595.56060177 208.71580875 -592.48007138 205.31112433 -589.07006836 202.03637695 C-587.33078919 200.29614069 -585.73777188 198.49293231 -584.14306641 196.62011719 C-580.07819492 191.94411996 -575.74861827 187.56671887 -571.35791016 183.19824219 C-570.21805664 182.05258789 -570.21805664 182.05258789 -569.05517578 180.88378906 C-564.85045669 176.68625139 -560.56003537 172.65381223 -556.05737305 168.77758789 C-553.82602323 166.85665448 -551.65589449 164.87225326 -549.48291016 162.88574219 C-544.23120058 158.15840906 -538.82273608 153.66079509 -533.29541016 149.26074219 C-532.66135254 148.75414062 -532.02729492 148.24753906 -531.37402344 147.72558594 C-475.26733907 103.04094958 -411.07363796 70.22601943 -343.29541016 47.26074219 C-342.2182373 46.89174805 -341.14106445 46.52275391 -340.03125 46.14257812 C-270.3724411 22.42493958 -197.37356883 10.31672909 -124.23291016 4.01074219 C-123.36689178 3.93360992 -122.50087341 3.85647766 -121.60861206 3.77700806 C-81.17058025 0.2321674 -40.56212112 -0.07025139 0 0 Z " fill="#F7B98B" transform="translate(1368.29541015625,277.7392578125)"/>
<path d="M0 0 C3.16428428 2.68276276 6.31146446 5.35514451 9.33984375 8.19140625 C25.3928938 23.17932501 43.40206714 27.57835348 65.02734375 27.28515625 C74.34658229 26.93544317 81.85220756 23.14251456 90 19 C90.13462646 19.57927246 90.26925293 20.15854492 90.40795898 20.75537109 C100.33108989 63.24070614 112.07265665 104.72770495 129 145 C129.82425702 146.98696329 130.64847791 148.97394157 131.47265625 150.9609375 C135.57051844 160.75671359 139.95630282 170.35145542 144.84863281 179.77539062 C146.14842012 182.28676933 147.42921005 184.80748354 148.7109375 187.328125 C167.72357872 224.49366679 190.60440299 259.64929879 217 292 C217.71671875 292.89074219 218.4334375 293.78148437 219.171875 294.69921875 C223.60008513 300.17340265 228.16093817 305.48252646 232.90234375 310.6875 C234.69507446 312.66384372 236.44795227 314.6645673 238.1875 316.6875 C250.24028067 330.4858558 262.90774296 344.37836119 276.92578125 356.20703125 C279.21072435 358.18215155 281.41331335 360.23164724 283.61962891 362.29370117 C288.91751259 367.24241657 294.29460975 372.00470868 299.953125 376.54296875 C302.25528658 378.39945546 304.53182341 380.27495624 306.796875 382.17578125 C317.21921226 390.90134425 327.9673511 399.06353491 339 407 C339.70060547 407.50740723 340.40121094 408.01481445 341.12304688 408.53759766 C358.63851881 421.20667709 376.83514041 432.88864909 395.37207031 444.0012207 C396.93887575 444.96249861 398.47053528 445.98035685 400 447 C398.05593099 462.17322152 395.41657117 477.08820944 392 492 C391.6289917 493.62929443 391.6289917 493.62929443 391.25048828 495.29150391 C385.86195683 518.52003213 377.8839901 540.29415222 366 561 C365.62665527 561.8655249 365.25331055 562.7310498 364.86865234 563.62280273 C363 566 363 566 359.51000977 566.93481445 C358.07303007 567.10138922 356.63297484 567.24270847 355.19140625 567.36328125 C354.42827621 567.44499069 353.66514618 567.52670013 352.87889099 567.61088562 C350.44174309 567.86641227 348.00282211 568.08955937 345.5625 568.3125 C343.92361504 568.48035419 342.28493814 568.65025335 340.64648438 568.82226562 C329.17823823 570 329.17823823 570 324 570 C324.495 571.093125 324.99 572.18625 325.5 573.3125 C328.79740029 582.34864502 327.20139122 590.22747403 323.5546875 598.921875 C321.25110184 603.48274308 318.35448386 607.17497768 315 611 C314.57460937 611.5671875 314.14921875 612.134375 313.7109375 612.71875 C297.87628541 633.31351223 267.22164022 646.0645951 243 653 C241.68 653 240.36 653 239 653 C241.50296039 655.51646558 244.01647564 658.01580164 246.578125 660.47265625 C258.65173916 672.17558928 271.83522902 687.14558901 272.29272461 704.78686523 C272.42405385 719.48439104 268.39843745 730.35190983 258.1015625 741.06640625 C255.44947173 743.76281928 252.74030583 746.39348849 250 749 C251.94644569 755.26508634 254.91464903 760.61731103 258.125 766.3125 C258.74101074 767.40755859 259.35702148 768.50261719 259.99169922 769.63085938 C269.89193401 787.0314226 280.77724115 803.8725994 292.59960938 820.02929688 C294.02940411 822.041379 295.3685475 824.09565096 296.703125 826.171875 C303.86220428 836.97313744 312.24638646 842.75574447 323.63867188 848.74951172 C325.68138769 849.83127251 327.67964801 850.95783006 329.671875 852.12890625 C376.30525981 878.72282962 433.29211345 888.02643952 486 894 C486.95197266 894.10795898 487.90394531 894.21591797 488.88476562 894.32714844 C499.91953684 895.54367667 510.98716128 896.31873656 522.0625 897.0625 C523.22523438 897.14193848 524.38796875 897.22137695 525.5859375 897.30322266 C547.93532329 898.72856614 570.30045833 899.16714441 592.69116211 899.13037109 C596.56433004 899.12499746 600.43738234 899.1303681 604.31054688 899.13671875 C627.23092507 899.14424504 650.07878784 898.45358629 672.9375 896.75268555 C675.53085 896.56021035 678.12471357 896.37632813 680.71875 896.19335938 C755.65297903 890.81091082 839.32150842 876.7167817 899.36767578 828.31542969 C900.81167835 827.15176145 902.27739537 826.01515179 903.74609375 824.8828125 C935.12591036 799.07605132 956.1547629 748.24658357 969 711 C969.57427734 709.34677734 969.57427734 709.34677734 970.16015625 707.66015625 C976.00265795 690.6725523 980.52203627 673.61995901 984 656 C984.37342529 654.17130371 984.37342529 654.17130371 984.75439453 652.30566406 C986.81393878 642.00697116 988.05792326 631.69286874 989.125 621.25 C989.29501277 619.64186777 989.46558416 618.03379449 989.63671875 616.42578125 C990.53056908 607.95861637 991.34582791 599.48960714 992 591 C1004.46334597 593.64027125 1016.75202521 596.68236589 1029 600.1875 C1030.31978348 600.56408249 1030.31978348 600.56408249 1031.66622925 600.94827271 C1066.74155494 611.01159102 1101.29035063 623.03031924 1135 637 C1136.13115234 637.46567383 1137.26230469 637.93134766 1138.42773438 638.41113281 C1166.48665847 649.99426385 1193.96260287 662.71535981 1221.19146729 676.11199951 C1223.84707722 677.41592003 1226.50796425 678.70897953 1229.16796875 680.00390625 C1240.46003175 685.53580164 1251.4350495 691.51848424 1262.33984375 697.77734375 C1266.11946275 699.94355951 1269.92097361 702.05848195 1273.75390625 704.12890625 C1274.66897949 704.62390625 1275.58405273 705.11890625 1276.52685547 705.62890625 C1278.25070644 706.55774208 1279.97743365 707.48126739 1281.70751953 708.3984375 C1285.72465432 710.56868134 1288.90965051 712.57037586 1292 716 C1294.59791651 717.73194434 1297.20947044 719.14950253 1299.98706055 720.56176758 C1312.91405939 727.19435842 1323.54653878 736.02237201 1334 746 C1335.09634766 747.03447266 1335.09634766 747.03447266 1336.21484375 748.08984375 C1341.63240743 753.33576185 1346.35175907 759.06999374 1351 765 C1351.44327637 765.56154785 1351.88655273 766.1230957 1352.34326172 766.70166016 C1403.06295487 831.29732923 1432.29937098 914.60110751 1454 993 C1454.34185333 994.23079285 1454.34185333 994.23079285 1454.69061279 995.4864502 C1456.14631072 1000.73516734 1457.58289901 1005.98865938 1458.99719238 1011.24868774 C1459.45352269 1012.94350495 1459.91286308 1014.63751486 1460.37536621 1016.33065796 C1461.01543213 1018.68244019 1461.64068728 1021.03766132 1462.26171875 1023.39453125 C1462.54987709 1024.44056015 1462.54987709 1024.44056015 1462.84385681 1025.50772095 C1463.82908933 1029.32193663 1464.33148821 1032.24037988 1463 1036 C1461.00990974 1037.86739297 1459.1313713 1039.41211984 1456.9375 1041 C1455.65108661 1041.96838434 1454.36597997 1042.93850646 1453.08203125 1043.91015625 C1452.40994629 1044.41434082 1451.73786133 1044.91852539 1451.04541016 1045.43798828 C1447.66747544 1048.01760469 1444.40408537 1050.7342028 1441.125 1053.4375 C1433.90148074 1059.34606459 1426.4904846 1064.96833693 1418.99121094 1070.52050781 C1417.0108604 1071.9919306 1415.03920362 1073.4742238 1413.0703125 1074.9609375 C1356.92684008 1117.34703126 1297.1001357 1154.98758069 1235 1188 C1234.11199707 1188.4729248 1233.22399414 1188.94584961 1232.30908203 1189.43310547 C1220.30548089 1195.80773678 1208.19013889 1201.96295921 1196.04602051 1208.06460571 C1194.50609113 1208.83857545 1192.96675665 1209.61373026 1191.42810059 1210.39022827 C1180.42822974 1215.93610009 1169.2961152 1221.08596947 1158 1226 C1157.34 1225.34 1156.68 1224.68 1156 1224 C1155.61930862 1224.9288652 1155.61930862 1224.9288652 1155.23092651 1225.87649536 C1153.7939182 1228.35551729 1152.90213645 1228.86360516 1150.30517578 1229.97607422 C1149.53920074 1230.31151245 1148.77322571 1230.64695068 1147.98403931 1230.99255371 C1147.14625946 1231.34305786 1146.30847961 1231.69356201 1145.4453125 1232.0546875 C1144.56958588 1232.43274536 1143.69385925 1232.81080322 1142.79159546 1233.20031738 C1139.90859722 1234.43948003 1137.01742257 1235.65801409 1134.125 1236.875 C1132.11377736 1237.73091859 1130.10271108 1238.58720468 1128.09179688 1239.44384766 C1110.21210224 1247.02831088 1092.19071382 1254.19842092 1074 1261 C1073.29667542 1261.26409668 1072.59335083 1261.52819336 1071.86871338 1261.80029297 C973.34040244 1298.78698456 870.57896059 1324.34843868 680 1346 C679.18515137 1346.05822937 678.37030273 1346.11645874 677.53076172 1346.17645264 C573.37712048 1353.54169538 468.0008413 1347.53017708 178 1287 C177.12889587 1286.72883362 176.25779175 1286.45766724 175.36029053 1286.17828369 C132.77766361 1272.91830286 91.05120294 1257.42278154 50 1240 C49.29824646 1239.70262939 48.59649292 1239.40525879 47.87347412 1239.09887695 C8.6225838 1222.44579687 -30.12395395 1204.14815169 -67.40087891 1183.43408203 C-70.02180674 1181.98796799 -72.65475905 1180.56665672 -75.29296875 1179.15234375 C-88.92462039 1171.83187156 -102.26287069 1164.05395337 -115.5234375 1156.08544922 C-118.93559602 1154.03583762 -122.35855915 1152.00463192 -125.78125 1149.97265625 C-142.28081645 1140.12322642 -158.3071568 1129.63967127 -174.23152161 1118.88780212 C-178.79506229 1115.80658641 -183.37493312 1112.75077978 -187.9609375 1109.703125 C-193.12728318 1106.26565043 -198.25780048 1102.78741944 -203.3125 1099.1875 C-204.01213867 1098.69088867 -204.71177734 1098.19427734 -205.43261719 1097.68261719 C-207.623856 1096.12468439 -209.81211371 1094.56263636 -212 1093 C-212.71526855 1092.49098145 -213.43053711 1091.98196289 -214.16748047 1091.45751953 C-225.75254169 1083.20553954 -237.11138094 1074.67919903 -248.38085938 1066.00195312 C-251.00471065 1063.99639939 -253.64802528 1062.0192553 -256.296875 1060.046875 C-257.94805853 1058.80227151 -259.59910636 1057.55748798 -261.25 1056.3125 C-262.01892578 1055.74861572 -262.78785156 1055.18473145 -263.58007812 1054.60375977 C-264.28068359 1054.07065186 -264.98128906 1053.53754395 -265.703125 1052.98828125 C-266.31833008 1052.52977783 -266.93353516 1052.07127441 -267.56738281 1051.59887695 C-269.48431776 1049.45947563 -269.62264665 1047.8295548 -270 1045 C-269.72766113 1042.76779175 -269.72766113 1042.76779175 -269.15820312 1040.46826172 C-268.94565384 1039.59014328 -268.73310455 1038.71202484 -268.51411438 1037.80729675 C-268.27226913 1036.8576857 -268.03042389 1035.90807465 -267.78125 1034.9296875 C-267.53243576 1033.92178665 -267.28362152 1032.9138858 -267.02726746 1031.8754425 C-266.19786778 1028.53854364 -265.35050104 1025.20657937 -264.5 1021.875 C-264.2085611 1020.72287018 -263.91712219 1019.57074036 -263.61685181 1018.38369751 C-240.944283 928.92431343 -212.57821462 825.97784117 -141 741 C-140.4740625 740.40832031 -139.948125 739.81664063 -139.40625 739.20703125 C-128.15746688 727.12606774 -113.87798819 719.7763439 -98.6875 713.9375 C-97.11953733 713.30504447 -95.55705483 712.65885295 -94 712 C-93.06542969 711.608125 -92.13085938 711.21625 -91.16796875 710.8125 C-88.36068304 709.43045165 -86.21455125 708.21455125 -84 706 C-83.33526322 703.23806551 -83.50478447 701.00987086 -83.76171875 698.18359375 C-84.73080482 685.23596845 -80.94580197 670.82374176 -72.578125 660.765625 C-72.05734375 660.18296875 -71.5365625 659.6003125 -71 659 C-70.49984375 658.39671875 -69.9996875 657.7934375 -69.484375 657.171875 C-62.36193054 649.21963118 -52.13216447 645.55545741 -42 643 C-42.31453125 642.05382813 -42.6290625 641.10765625 -42.953125 640.1328125 C-45.39037501 632.65653853 -47.5456452 625.17926214 -49.25 617.5 C-49.49411621 616.40776123 -49.49411621 616.40776123 -49.74316406 615.29345703 C-54.45315088 593.40851827 -55.56020678 565.1039943 -43.6875 545.3359375 C-38.01304162 537.48101594 -30.54698688 533.0868854 -21.01171875 531.50390625 C-14.84031329 530.86872983 -9.1311531 531.21500148 -3 532 C-3.2945105 531.04299194 -3.2945105 531.04299194 -3.5949707 530.06665039 C-12.42678814 501.16275653 -21.72642461 465.06386577 -6.6875 436.5078125 C-1.57503598 428.25562872 4.67086072 422.75286077 14 420 C23.37163262 417.80663917 32.70828892 418.95143378 42 421 C41.84015625 420.07316406 41.6803125 419.14632813 41.515625 418.19140625 C37.41115902 389.14721522 42.48129862 350.12319732 59.83984375 325.640625 C63.12979197 321.61891615 66.74537888 318.00118502 71 315 C71.66 315 72.32 315 73 315 C72.45811035 313.36816772 72.45811035 313.36816772 71.90527344 311.70336914 C55.37736796 261.8376711 40.9849983 212.13678262 31.69467163 160.40010071 C29.26970845 146.90213685 26.76687984 133.41857607 24.25 119.9375 C24.1239098 119.26163849 23.9978196 118.58577698 23.86790848 117.88943481 C19.9897433 97.11255271 15.91814954 76.38274825 11.625 55.6875 C11.38414673 54.52507782 11.14329346 53.36265564 10.8951416 52.16500854 C7.99909525 38.221722 4.9914106 24.3067016 1.84707642 10.41716003 C1.48457291 8.80651421 1.48457291 8.80651421 1.11474609 7.16333008 C0.8991806 6.21251053 0.68361511 5.26169098 0.46151733 4.28205872 C0 2 0 2 0 0 Z " fill="#239CAA" transform="translate(789,1406)"/>
<path d="M0 0 C6.61506054 0.01136975 13.22995958 0.00462304 19.84501457 -0.00688362 C45.86524081 -0.04517318 71.85138227 0.14472407 97.85302734 1.19042969 C99.40282162 1.25267857 99.40282162 1.25267857 100.98392487 1.316185 C232.9881554 6.76342098 232.9881554 6.76342098 275.70458984 44.26074219 C276.95369141 45.22947266 276.95369141 45.22947266 278.22802734 46.21777344 C287.25030344 53.66043968 294.61977571 65.72754551 296.70458984 77.26074219 C297.56286377 77.25026855 298.4211377 77.23979492 299.30541992 77.22900391 C377.61035961 76.40567387 454.2488424 93.12440061 515.70458984 144.26074219 C516.21425293 144.6801709 516.72391602 145.09959961 517.24902344 145.53173828 C529.72599159 155.82919473 541.61759518 166.88370083 551.62646484 179.63574219 C553.00813477 181.38100946 554.43599682 183.09070755 555.90771484 184.76074219 C570.20500849 201.04640118 581.49130736 220.21805178 591.70458984 239.26074219 C592.15608398 240.10185547 592.60757812 240.94296875 593.07275391 241.80957031 C614.45804664 282.12030902 629.88697151 326.65679736 639.45849609 371.24511719 C642.81585522 386.832761 647.0561446 400.26406058 654.70458984 414.26074219 C655.69203293 416.13090456 656.67765987 418.00202679 657.66162109 419.87402344 C669.29774432 441.92432657 669.29774432 441.92432657 684.86865234 461.22167969 C686.70458984 463.26074219 686.70458984 463.26074219 686.70458984 465.26074219 C687.60757813 465.67453125 687.60757813 465.67453125 688.52880859 466.09667969 C690.70458984 467.26074219 690.70458984 467.26074219 693.51708984 469.88574219 C697.10240812 473.04331099 701.01595681 475.2648346 705.20458984 477.51074219 C705.83341064 477.85186035 706.46223145 478.19297852 707.11010742 478.54443359 C719.82074946 485.19837116 731.97321438 483.53576297 745.70458984 481.26074219 C746.31005859 483.11230469 746.31005859 483.11230469 746.70458984 485.26074219 C741.50809073 492.57433354 731.14110817 496.31041239 722.70458984 498.26074219 C703.74415328 500.36965186 688.65258355 494.36119547 673.84179688 482.80761719 C666.78569523 477.12907441 660.55257909 471.19116383 654.70458984 464.26074219 C654.79023193 465.38416016 654.87587402 466.50757813 654.96411133 467.66503906 C655.36927784 473.02938055 655.75664003 478.39495318 656.14208984 483.76074219 C656.21383423 484.7437027 656.28557861 485.72666321 656.35949707 486.7394104 C657.14757086 497.65848504 657.80237313 508.54167145 657.88037109 519.49121094 C657.88930893 520.38006989 657.89824677 521.26892883 657.90745544 522.1847229 C657.94543276 526.38255955 657.94661067 530.57491122 657.88598633 534.77246094 C657.82872708 559.81700069 674.02783462 582.65457573 691.01708984 600.01074219 C700.04025294 608.96068693 710.40102105 615.48436936 721.70458984 621.26074219 C721.37458984 622.25074219 721.04458984 623.24074219 720.70458984 624.26074219 C699.05131673 623.487411 679.30422063 608.99605905 664.55615234 594.37792969 C662.92906731 592.51742317 661.51491267 590.64263785 660.08886719 588.62841797 C659.64151215 587.99783478 659.1941571 587.36725159 658.73324585 586.71755981 C658.39378937 586.23681 658.05433289 585.75606018 657.70458984 585.26074219 C657.63054932 586.34186279 657.55650879 587.4229834 657.48022461 588.53686523 C652.63706271 657.82951118 643.82740678 727.19176571 632.45458984 795.69824219 C632.29368866 796.66935944 632.13278748 797.64047668 631.9670105 798.64102173 C629.86342188 811.25401385 627.43648313 823.76888191 624.70458984 836.26074219 C624.02468994 836.0714917 623.34479004 835.88224121 622.64428711 835.68725586 C602.50102491 830.10164798 583.64739318 826.91553751 562.70458984 826.26074219 C562.45451172 826.95425781 562.20443359 827.64777344 561.94677734 828.36230469 C560.53313413 831.66080551 558.72638232 834.60371336 556.82958984 837.63574219 C546.61151753 854.41092291 538.09428923 871.68234352 531.70458984 890.26074219 C531.1156897 891.93644287 531.1156897 891.93644287 530.51489258 893.64599609 C527.34119003 902.86724064 524.8304318 912.13563966 522.64208984 921.63574219 C522.47061432 922.37595612 522.29913879 923.11617004 522.12246704 923.8788147 C517.11503513 945.59782796 514.36510701 967.00640704 512.77319336 989.21557617 C511.02569052 1013.44075104 507.44471828 1036.25306829 496.70458984 1058.26074219 C496.20958984 1059.27910156 495.71458984 1060.29746094 495.20458984 1061.34667969 C491.39537239 1068.73738964 486.72356638 1076.5814245 479.70458984 1081.26074219 C480.37481978 1076.6584966 482.16761638 1072.67114246 484.01708984 1068.44824219 C488.7316612 1057.29739185 491.32084739 1046.03266368 493.39208984 1034.13574219 C493.51165039 1033.45648682 493.63121094 1032.77723145 493.75439453 1032.07739258 C495.62502705 1020.55944727 495.846762 1008.8836391 495.90382004 997.2393074 C495.91595734 994.96938717 495.93549099 992.69962961 495.9569397 990.42977905 C496.01735706 983.98482131 496.07184696 977.53988214 496.10595703 971.09472656 C496.27607612 940.61378732 497.34179672 910.05036815 504.66162109 880.29980469 C507.74724077 867.53463836 505.83615558 855.49676809 503.57958984 842.69824219 C503.36004639 841.45228271 503.14050293 840.20632324 502.91430664 838.92260742 C493.29021781 785.90190079 474.92232673 722.35845176 428.70458984 689.26074219 C421.44264245 684.35884654 414.02694586 679.62236137 405.95458984 676.17871094 C402.49140526 674.68447203 399.76896405 673.07118789 396.95458984 670.51074219 C396.25849609 669.89714844 395.56240234 669.28355469 394.84521484 668.65136719 C391.98941215 665.46204009 389.87469988 661.93893283 387.70458984 658.26074219 C392.94332157 678.53771557 400.80544646 696.71758694 410.24633789 715.36914062 C417.43964351 729.6014039 424.28388476 743.89972074 428.70458984 759.26074219 C428.94951172 760.08960938 429.19443359 760.91847656 429.44677734 761.77246094 C432.63144586 774.62019897 431.53781511 788.04821763 426.70458984 800.26074219 C426.04458984 800.26074219 425.38458984 800.26074219 424.70458984 800.26074219 C424.70201172 799.02582031 424.69943359 797.79089844 424.69677734 796.51855469 C424.25311502 769.66629336 411.36580556 749.05806413 398.05395508 726.42993164 C378.90896516 693.8260374 378.90896516 693.8260374 372.70458984 676.26074219 C372.47336426 675.6175 372.24213867 674.97425781 372.00390625 674.31152344 C360.33212267 641.0157878 359.91925877 600.11288413 368.54589844 565.92675781 C372.50262942 550.2439607 369.62428569 534.49126003 367.07958984 518.76074219 C366.94931396 517.94257019 366.81903809 517.12439819 366.68481445 516.28143311 C364.3335354 501.64418824 361.20810809 487.4060033 356.70458984 473.26074219 C356.45741211 472.48166504 356.21023438 471.70258789 355.95556641 470.89990234 C350.86938498 455.30995394 343.1773848 440.8827368 332.70458984 428.26074219 C331.60824219 426.93623047 331.60824219 426.93623047 330.48974609 425.58496094 C309.05619054 400.76121206 276.38606556 390.12812399 244.52490234 387.37402344 C243.59419922 387.33664062 242.66349609 387.29925781 241.70458984 387.26074219 C240.94412354 387.15689209 240.18365723 387.05304199 239.40014648 386.94604492 C234.24538928 386.47524926 234.24538928 386.47524926 229.79638672 388.76928711 C227.98135406 390.99227854 226.4303853 393.2755082 224.89208984 395.69824219 C223.69733814 397.44691226 222.5006808 399.19428167 221.30224609 400.94042969 C220.70686035 401.82956055 220.11147461 402.71869141 219.49804688 403.63476562 C216.7577619 407.64708596 213.80505407 411.48383518 210.82958984 415.32324219 C210.2874585 416.02908447 209.74532715 416.73492676 209.18676758 417.4621582 C205.09532117 422.78475975 200.9414277 428.05296232 196.70458984 433.26074219 C196.02396484 434.10378906 195.34333984 434.94683594 194.64208984 435.81542969 C186.03998245 446.41445487 177.16418943 456.7616782 167.93115234 466.81542969 C166.00259064 468.93346412 164.12739469 471.08303936 162.26708984 473.26074219 C158.94387214 477.09461982 155.35433404 480.64259604 151.74291992 484.20092773 C149.18472263 486.73464885 146.75492754 489.30453677 144.45458984 492.07324219 C140.44210979 496.78693234 135.85014611 500.89408511 131.29736328 505.07446289 C127.54661821 508.51981249 123.89038125 512.02955142 120.32006836 515.66210938 C117.25899299 518.69126481 113.97320579 521.45983063 110.70458984 524.26074219 C109.68477834 525.14453349 108.66526997 526.02867464 107.64599609 526.91308594 C100.66450228 532.95272049 93.58699814 538.85542694 86.38623047 544.63232422 C78.17884683 551.23676942 70.59508433 558.25162018 63.20458984 565.76074219 C61.59254571 567.39866182 59.97799123 569.03411485 58.36083984 570.66699219 C57.65765625 571.38177734 56.95447266 572.0965625 56.22998047 572.83300781 C54.18161594 574.80216258 52.10300613 576.66289133 49.95288086 578.5168457 C45.46955977 582.41190995 41.26814721 586.55299752 37.07568359 590.75683594 C36.28235123 591.54921158 35.48901886 592.34158722 34.67164612 593.15797424 C33.00569904 594.82324502 31.34099728 596.48976247 29.67749023 598.1574707 C27.1492285 600.69108841 24.61567324 603.21932386 22.08154297 605.74707031 C20.45426914 607.37500502 18.82730559 609.00324993 17.20068359 610.63183594 C16.45257919 611.37791611 15.70447479 612.12399628 14.93370056 612.89268494 C10.90177955 616.94239564 7.05384561 621.08701384 3.32203674 625.41423035 C0.96108474 628.10954346 -1.53108812 630.65847681 -4.06103516 633.19433594 C-4.57994324 633.71657242 -5.09885132 634.2388089 -5.63348389 634.77687073 C-6.72115395 635.86955004 -7.81013191 636.96092897 -8.90039062 638.05102539 C-10.53368464 639.68650101 -12.15879486 641.32981926 -13.78369141 642.97363281 C-20.30754581 649.5324009 -27.01354324 655.54023537 -34.29541016 661.26074219 C-35.40339368 662.16420492 -36.51039151 663.0688801 -37.61572266 663.97558594 C-55.04197968 677.78553057 -75.76728851 689.44395818 -98.29541016 691.26074219 C-96.74818322 688.16628831 -93.70588188 687.81312954 -90.60791016 686.69824219 C-70.72130103 679.11796276 -52.66843453 663.58674144 -39.10009766 647.38574219 C-36.74067899 644.60755224 -34.26784471 641.93783202 -31.79541016 639.26074219 C-28.15307307 635.30546846 -24.56039986 631.3151083 -21.03759766 627.25292969 C-18.98040617 624.90053583 -16.88944101 622.58039253 -14.79541016 620.26074219 C-9.17227797 614.0255684 -3.65955077 607.71960538 1.70458984 601.26074219 C0.74681641 601.74542969 -0.21095703 602.23011719 -1.19775391 602.72949219 C-10.48881818 607.41337814 -19.84708387 611.92588474 -29.27978516 616.31689453 C-31.14416201 617.1899179 -33.0013798 618.07818597 -34.85791016 618.96777344 C-42.56075973 622.63866269 -50.36152962 626.02884223 -58.23291016 629.32324219 C-59.27125 629.76039551 -60.30958984 630.19754883 -61.37939453 630.64794922 C-65.83413814 632.50221868 -70.25557056 634.30922262 -74.86572266 635.74121094 C-85.41563532 639.04592702 -91.83980681 644.58676314 -99.51367188 652.45458984 C-102.27355047 655.25228535 -105.15153029 657.91542159 -108.04541016 660.57324219 C-108.58149902 661.06775879 -109.11758789 661.56227539 -109.66992188 662.07177734 C-114.70542992 666.68984996 -119.91365468 671.04985357 -125.29541016 675.26074219 C-125.86565918 675.70885254 -126.4359082 676.15696289 -127.0234375 676.61865234 C-155.25810436 698.68515342 -185.99037375 715.1157696 -221.29541016 722.26074219 C-222.44138672 722.50566406 -223.58736328 722.75058594 -224.76806641 723.00292969 C-230.03307605 724.06027688 -234.92762836 724.46329999 -240.29541016 724.26074219 C-238.59042742 720.85077672 -234.49131911 720.43747693 -231.04541016 719.26074219 C-206.59864788 710.5241217 -184.54749429 697.69687976 -164.14208984 681.70605469 C-162.29905414 680.26359416 -160.44338212 678.83891554 -158.58447266 677.41699219 C-150.03669661 670.83983869 -141.9089601 663.91386786 -134.29541016 656.26074219 C-135.32609619 656.57092285 -136.35678223 656.88110352 -137.41870117 657.20068359 C-146.91148174 660.03714407 -156.43689619 662.65657061 -166.04229736 665.08242798 C-169.88491756 666.05301318 -173.72500286 667.03351556 -177.56494141 668.01464844 C-178.32655579 668.20913071 -179.08817017 668.40361298 -179.87286377 668.60398865 C-186.07441062 670.19272727 -192.24868915 671.87255077 -198.42041016 673.57324219 C-213.31062347 677.65850584 -228.33645981 681.21745987 -243.34863281 684.82250977 C-256.43302179 687.97876128 -269.38971556 691.43932698 -282.29541016 695.26074219 C-283.30270676 695.55708054 -283.30270676 695.55708054 -284.33035278 695.85940552 C-347.63017602 714.50469862 -409.2187802 742.58387807 -449.29541016 797.26074219 C-449.72015625 797.83002441 -450.14490234 798.39930664 -450.58251953 798.98583984 C-456.61574616 807.07958222 -462.17103287 815.42902633 -467.12402344 824.23095703 C-467.98637204 825.72523929 -468.89886641 827.19085568 -469.83789062 828.63818359 C-474.58514158 836.37301495 -475.39162124 843.30925836 -475.92041016 852.26074219 C-476.12832032 855.02905173 -476.35844682 857.79529571 -476.59228516 860.56152344 C-476.64766449 861.23476151 -476.70304382 861.90799957 -476.76010132 862.60163879 C-477.48262388 871.02110745 -479.25190542 879.08132667 -481.29541016 887.26074219 C-481.68185649 888.87898623 -482.06724059 890.49748423 -482.45166016 892.11621094 C-484.49714551 900.6060124 -486.77670893 909.00627738 -489.23291016 917.38574219 C-502.35828338 962.24607246 -499.98878449 997.53813544 -487.5748291 1042.05831909 C-474.78393301 1088.07077807 -474.78393301 1088.07077807 -480.29541016 1104.26074219 C-481.61541016 1104.26074219 -482.93541016 1104.26074219 -484.29541016 1104.26074219 C-484.63572266 1103.38675781 -484.97603516 1102.51277344 -485.32666016 1101.61230469 C-490.45679092 1088.54788446 -496.09758854 1075.75035649 -502.22143555 1063.12109375 C-519.48855016 1027.49835827 -538.91547601 987.35116428 -532.89257812 946.53051758 C-531.76227113 938.84755845 -533.43468613 934.21968376 -537.04541016 927.44824219 C-537.54766113 926.45397217 -538.04991211 925.45970215 -538.56738281 924.43530273 C-540.12180528 921.36552461 -541.70789378 918.31350536 -543.29541016 915.26074219 C-545.10047559 911.7049275 -546.8863839 908.13965103 -548.67041016 904.57324219 C-549.11731201 903.68306396 -549.56421387 902.79288574 -550.0246582 901.87573242 C-560.25322085 881.42402002 -569.42394347 860.73201102 -577.29541016 839.26074219 C-577.67938965 838.23223145 -578.06336914 837.2037207 -578.45898438 836.14404297 C-578.82652832 835.15259277 -579.19407227 834.16114258 -579.57275391 833.13964844 C-579.9039624 832.24963135 -580.2351709 831.35961426 -580.57641602 830.44262695 C-581.29541016 828.26074219 -581.29541016 828.26074219 -581.29541016 826.26074219 C-601.55944766 826.52642087 -621.56976075 828.97260942 -639.29541016 839.26074219 C-640.95553182 839.94354397 -642.62139348 840.61275269 -644.29541016 841.26074219 C-648.71552751 811.07676052 -652.85554966 780.87023544 -656.42041016 750.57324219 C-656.50305744 749.87096119 -656.58570473 749.16868019 -656.67085648 748.44511795 C-659.60134915 723.48284564 -662.14313736 698.48738092 -664.48144531 673.46313477 C-664.59771774 672.21919952 -664.71399017 670.97526428 -664.83378601 669.69363403 C-665.04839015 667.3861843 -665.26110663 665.07855784 -665.47151184 662.77072144 C-665.9513647 657.57438946 -666.49275434 652.41754343 -667.29541016 647.26074219 C-667.80587891 648.73220703 -667.80587891 648.73220703 -668.32666016 650.23339844 C-675.27581641 669.78186821 -685.26116641 690.77101042 -704.92041016 700.26074219 C-709.4205343 702.12352473 -713.44446094 702.98616016 -718.29541016 703.26074219 C-717.73832683 699.64362367 -716.56679999 698.31928012 -713.73291016 696.07324219 C-688.41934898 674.68531349 -682.85806092 640.10909319 -679.65478516 608.74902344 C-679.52945222 607.25338371 -679.41052255 605.75720324 -679.29541016 604.26074219 C-679.21363525 603.20282471 -679.13186035 602.14490723 -679.04760742 601.05493164 C-678.321496 590.98139511 -677.98959224 580.91765818 -677.73291016 570.82324219 C-677.68956195 569.20539635 -677.64594353 567.58755772 -677.60205078 565.96972656 C-677.49673615 562.06680756 -677.39502889 558.16381055 -677.29541016 554.26074219 C-677.88346436 555.19378174 -678.47151855 556.12682129 -679.07739258 557.08813477 C-689.28425625 573.18992235 -702.42610769 591.04638016 -720.29541016 599.26074219 C-721.28541016 598.93074219 -722.27541016 598.60074219 -723.29541016 598.26074219 C-720.38100811 594.24676721 -717.44455906 590.37788877 -714.04541016 586.76074219 C-694.7905083 564.9555222 -686.21408515 535.06212099 -680.29541016 507.26074219 C-680.06362061 506.18034668 -680.06362061 506.18034668 -679.82714844 505.078125 C-675.89731317 486.43240493 -674.96374693 467.86309024 -674.4619751 448.85852051 C-673.80558634 424.58869049 -672.80701777 400.41423879 -670.29541016 376.26074219 C-670.22493469 375.58041931 -670.15445923 374.90009644 -670.08184814 374.19915771 C-665.79992693 333.41001015 -658.43229716 292.22334595 -634.29541016 258.26074219 C-633.45896784 257.06448042 -632.62302686 255.86786795 -631.78759766 254.67089844 C-623.69709679 243.1492645 -615.12084422 232.0923871 -605.96337891 221.40136719 C-603.43332259 218.44157538 -600.9864708 215.41945423 -598.54541016 212.38574219 C-595.56060177 208.71580875 -592.48007138 205.31112433 -589.07006836 202.03637695 C-587.33078919 200.29614069 -585.73777188 198.49293231 -584.14306641 196.62011719 C-580.07819492 191.94411996 -575.74861827 187.56671887 -571.35791016 183.19824219 C-570.59800781 182.43447266 -569.83810547 181.67070312 -569.05517578 180.88378906 C-564.85045669 176.68625139 -560.56003537 172.65381223 -556.05737305 168.77758789 C-553.82602323 166.85665448 -551.65589449 164.87225326 -549.48291016 162.88574219 C-544.23120058 158.15840906 -538.82273608 153.66079509 -533.29541016 149.26074219 C-532.66135254 148.75414062 -532.02729492 148.24753906 -531.37402344 147.72558594 C-475.26733907 103.04094958 -411.07363796 70.22601943 -343.29541016 47.26074219 C-342.2182373 46.89174805 -341.14106445 46.52275391 -340.03125 46.14257812 C-270.3724411 22.42493958 -197.37356883 10.31672909 -124.23291016 4.01074219 C-123.36689178 3.93360992 -122.50087341 3.85647766 -121.60861206 3.77700806 C-81.17058025 0.2321674 -40.56212112 -0.07025139 0 0 Z " fill="#683C10" transform="translate(1368.29541015625,277.7392578125)"/>
<path d="M0 0 C3.16428428 2.68276276 6.31146446 5.35514451 9.33984375 8.19140625 C25.3928938 23.17932501 43.40206714 27.57835348 65.02734375 27.28515625 C74.34658229 26.93544317 81.85220756 23.14251456 90 19 C90.13462646 19.57927246 90.26925293 20.15854492 90.40795898 20.75537109 C100.33108989 63.24070614 112.07265665 104.72770495 129 145 C129.82425702 146.98696329 130.64847791 148.97394157 131.47265625 150.9609375 C135.57051844 160.75671359 139.95630282 170.35145542 144.84863281 179.77539062 C146.14842012 182.28676933 147.42921005 184.80748354 148.7109375 187.328125 C167.72357872 224.49366679 190.60440299 259.64929879 217 292 C217.71671875 292.89074219 218.4334375 293.78148437 219.171875 294.69921875 C223.60008513 300.17340265 228.16093817 305.48252646 232.90234375 310.6875 C234.69507446 312.66384372 236.44795227 314.6645673 238.1875 316.6875 C250.24028067 330.4858558 262.90774296 344.37836119 276.92578125 356.20703125 C279.21072435 358.18215155 281.41331335 360.23164724 283.61962891 362.29370117 C288.91751259 367.24241657 294.29460975 372.00470868 299.953125 376.54296875 C302.25528658 378.39945546 304.53182341 380.27495624 306.796875 382.17578125 C317.21921226 390.90134425 327.9673511 399.06353491 339 407 C339.70060547 407.50740723 340.40121094 408.01481445 341.12304688 408.53759766 C358.63851881 421.20667709 376.83514041 432.88864909 395.37207031 444.0012207 C396.93887575 444.96249861 398.47053528 445.98035685 400 447 C398.05593099 462.17322152 395.41657117 477.08820944 392 492 C391.6289917 493.62929443 391.6289917 493.62929443 391.25048828 495.29150391 C385.86195683 518.52003213 377.8839901 540.29415222 366 561 C365.62665527 561.8655249 365.25331055 562.7310498 364.86865234 563.62280273 C363 566 363 566 359.51000977 566.93481445 C358.07303007 567.10138922 356.63297484 567.24270847 355.19140625 567.36328125 C354.42827621 567.44499069 353.66514618 567.52670013 352.87889099 567.61088562 C350.44174309 567.86641227 348.00282211 568.08955937 345.5625 568.3125 C343.92361504 568.48035419 342.28493814 568.65025335 340.64648438 568.82226562 C329.17823823 570 329.17823823 570 324 570 C324.495 571.093125 324.99 572.18625 325.5 573.3125 C328.79740029 582.34864502 327.20139122 590.22747403 323.5546875 598.921875 C321.25110184 603.48274308 318.35448386 607.17497768 315 611 C314.57460937 611.5671875 314.14921875 612.134375 313.7109375 612.71875 C297.87628541 633.31351223 267.22164022 646.0645951 243 653 C241.68 653 240.36 653 239 653 C241.50296039 655.51646558 244.01647564 658.01580164 246.578125 660.47265625 C258.65173916 672.17558928 271.83522902 687.14558901 272.29272461 704.78686523 C272.4395678 721.2206126 266.89359695 732.17885892 255.5625 744 C248.92123244 750.67231653 241.13318515 755.36330465 233 760 C232.32791504 760.38542969 231.65583008 760.77085937 230.96337891 761.16796875 C229.31044052 762.11464032 227.65543816 763.05770661 226 764 C226.49628906 764.62003906 226.99257813 765.24007812 227.50390625 765.87890625 C231.63105514 771.25907947 235.00888581 776.5546486 237.875 782.6875 C238.16060791 783.29215088 238.44621582 783.89680176 238.74047852 784.51977539 C243.58057855 795.24636591 244.83648401 806.73590449 241 818 C240.77828125 818.74378906 240.5565625 819.48757813 240.328125 820.25390625 C234.23106342 838.17121457 218.18548497 849.69438888 202 858 C196.42979171 860.57194059 190.73213994 862.81799814 185 865 C185.78761719 865.58265625 186.57523438 866.1653125 187.38671875 866.765625 C204.3608553 879.47254991 221.06153439 893.75062088 227 915 C228.49712629 930.52283577 225.10310793 942.02430531 215.23828125 954.359375 C214.49964844 955.23078125 213.76101563 956.1021875 213 957 C212.45730469 957.64453125 211.91460938 958.2890625 211.35546875 958.953125 C202.80688241 968.21589703 190.93046058 974.95421411 180 981 C180.67804688 981.54527344 181.35609375 982.09054687 182.0546875 982.65234375 C188.55231359 987.91704079 194.86252432 993.3167609 201 999 C201.61488281 999.54914062 202.22976563 1000.09828125 202.86328125 1000.6640625 C210.76458603 1008.03861363 217.3448847 1017.83006779 221 1028 C221.35449219 1028.928125 221.70898438 1029.85625 222.07421875 1030.8125 C225.41528912 1042.31593215 222.89102161 1054.68562765 217.375 1065.0546875 C206.23856439 1082.9193863 189.37243155 1093.64338224 171 1103 C171.78503906 1103.70125 172.57007813 1104.4025 173.37890625 1105.125 C185.71983723 1116.22928201 199.29681276 1128.99876597 200.46875 1146.61328125 C200.50280217 1148.17935197 200.51272047 1149.74611076 200.5 1151.3125 C200.49427979 1152.14136719 200.48855957 1152.97023438 200.48266602 1153.82421875 C200.273752 1161.04968946 198.59584629 1166.69583182 195 1173 C194.50371094 1173.91910156 194.00742187 1174.83820313 193.49609375 1175.78515625 C180.53105877 1197.99754148 155.28865118 1211.1679766 132 1220 C133.07636719 1220.60585937 134.15273438 1221.21171875 135.26171875 1221.8359375 C150.4039306 1230.47270967 167.61104864 1240.49878251 175.19140625 1257.0234375 C177.66131748 1266.11557449 177.14786588 1275.58292109 173 1284 C166.93667622 1283.43521733 161.63674487 1282.10299232 155.89453125 1280.11328125 C155.0299379 1279.81998932 154.16534454 1279.52669739 153.27455139 1279.22451782 C150.45069621 1278.26283962 147.63138804 1277.28863452 144.8125 1276.3125 C143.83903625 1275.97775665 142.86557251 1275.64301331 141.86260986 1275.29812622 C110.81107684 1264.61526517 80.22886344 1252.82291365 50 1240 C49.00380646 1239.57747955 49.00380646 1239.57747955 47.98748779 1239.14642334 C8.70449024 1222.45364218 -30.083501 1204.17063062 -67.40087891 1183.43408203 C-70.02180674 1181.98796799 -72.65475905 1180.56665672 -75.29296875 1179.15234375 C-88.92462039 1171.83187156 -102.26287069 1164.05395337 -115.5234375 1156.08544922 C-118.93559602 1154.03583762 -122.35855915 1152.00463192 -125.78125 1149.97265625 C-142.28081645 1140.12322642 -158.3071568 1129.63967127 -174.23152161 1118.88780212 C-178.79506229 1115.80658641 -183.37493312 1112.75077978 -187.9609375 1109.703125 C-193.12728318 1106.26565043 -198.25780048 1102.78741944 -203.3125 1099.1875 C-204.01213867 1098.69088867 -204.71177734 1098.19427734 -205.43261719 1097.68261719 C-207.623856 1096.12468439 -209.81211371 1094.56263636 -212 1093 C-212.71526855 1092.49098145 -213.43053711 1091.98196289 -214.16748047 1091.45751953 C-225.75254169 1083.20553954 -237.11138094 1074.67919903 -248.38085938 1066.00195312 C-251.00471065 1063.99639939 -253.64802528 1062.0192553 -256.296875 1060.046875 C-257.94805853 1058.80227151 -259.59910636 1057.55748798 -261.25 1056.3125 C-262.01892578 1055.74861572 -262.78785156 1055.18473145 -263.58007812 1054.60375977 C-264.28068359 1054.07065186 -264.98128906 1053.53754395 -265.703125 1052.98828125 C-266.31833008 1052.52977783 -266.93353516 1052.07127441 -267.56738281 1051.59887695 C-269.48431776 1049.45947563 -269.62264665 1047.8295548 -270 1045 C-269.72766113 1042.76779175 -269.72766113 1042.76779175 -269.15820312 1040.46826172 C-268.94565384 1039.59014328 -268.73310455 1038.71202484 -268.51411438 1037.80729675 C-268.27226913 1036.8576857 -268.03042389 1035.90807465 -267.78125 1034.9296875 C-267.53243576 1033.92178665 -267.28362152 1032.9138858 -267.02726746 1031.8754425 C-266.19786778 1028.53854364 -265.35050104 1025.20657937 -264.5 1021.875 C-264.2085611 1020.72287018 -263.91712219 1019.57074036 -263.61685181 1018.38369751 C-240.944283 928.92431343 -212.57821462 825.97784117 -141 741 C-140.4740625 740.40832031 -139.948125 739.81664063 -139.40625 739.20703125 C-128.15746688 727.12606774 -113.87798819 719.7763439 -98.6875 713.9375 C-97.11953733 713.30504447 -95.55705483 712.65885295 -94 712 C-93.06542969 711.608125 -92.13085938 711.21625 -91.16796875 710.8125 C-88.36068304 709.43045165 -86.21455125 708.21455125 -84 706 C-83.33526322 703.23806551 -83.50478447 701.00987086 -83.76171875 698.18359375 C-84.73080482 685.23596845 -80.94580197 670.82374176 -72.578125 660.765625 C-72.05734375 660.18296875 -71.5365625 659.6003125 -71 659 C-70.49984375 658.39671875 -69.9996875 657.7934375 -69.484375 657.171875 C-62.36193054 649.21963118 -52.13216447 645.55545741 -42 643 C-42.31453125 642.05382813 -42.6290625 641.10765625 -42.953125 640.1328125 C-45.39037501 632.65653853 -47.5456452 625.17926214 -49.25 617.5 C-49.49411621 616.40776123 -49.49411621 616.40776123 -49.74316406 615.29345703 C-54.45315088 593.40851827 -55.56020678 565.1039943 -43.6875 545.3359375 C-38.01304162 537.48101594 -30.54698688 533.0868854 -21.01171875 531.50390625 C-14.84031329 530.86872983 -9.1311531 531.21500148 -3 532 C-3.2945105 531.04299194 -3.2945105 531.04299194 -3.5949707 530.06665039 C-12.42678814 501.16275653 -21.72642461 465.06386577 -6.6875 436.5078125 C-1.57503598 428.25562872 4.67086072 422.75286077 14 420 C23.37163262 417.80663917 32.70828892 418.95143378 42 421 C41.84015625 420.07316406 41.6803125 419.14632813 41.515625 418.19140625 C37.41115902 389.14721522 42.48129862 350.12319732 59.83984375 325.640625 C63.12979197 321.61891615 66.74537888 318.00118502 71 315 C71.66 315 72.32 315 73 315 C72.45811035 313.36816772 72.45811035 313.36816772 71.90527344 311.70336914 C55.37736796 261.8376711 40.9849983 212.13678262 31.69467163 160.40010071 C29.26970845 146.90213685 26.76687984 133.41857607 24.25 119.9375 C24.1239098 119.26163849 23.9978196 118.58577698 23.86790848 117.88943481 C19.9897433 97.11255271 15.91814954 76.38274825 11.625 55.6875 C11.38414673 54.52507782 11.14329346 53.36265564 10.8951416 52.16500854 C7.99909525 38.221722 4.9914106 24.3067016 1.84707642 10.41716003 C1.48457291 8.80651421 1.48457291 8.80651421 1.11474609 7.16333008 C0.8991806 6.21251053 0.68361511 5.26169098 0.46151733 4.28205872 C0 2 0 2 0 0 Z " fill="#683C10" transform="translate(789,1406)"/>
<path d="M0 0 C2.10166462 3.54103997 2.5321095 6.89164861 3.125 10.9375 C5.93053532 27.5139079 13.62234385 43.02885202 21 58 C19.83984375 58.15855469 18.6796875 58.31710938 17.484375 58.48046875 C5.31581748 60.25276617 -5.68930079 62.42435599 -15 71 C-15.66 71 -16.32 71 -17 71 C-17.25652344 71.51820313 -17.51304687 72.03640625 -17.77734375 72.5703125 C-18.73280266 74.46901998 -19.70827351 76.35766055 -20.69140625 78.2421875 C-21.31529247 79.45302799 -21.93898564 80.66396798 -22.5625 81.875 C-22.87896484 82.47441406 -23.19542969 83.07382813 -23.52148438 83.69140625 C-30.94148115 98.21632562 -28.58327252 120.77371236 -23.68896484 135.96826172 C-20.0517771 146.69422784 -15.79534529 156.94843781 -10.48925781 166.96313477 C-8 171.70419641 -8 171.70419641 -8 175 C-8.94359375 175.32871094 -8.94359375 175.32871094 -9.90625 175.6640625 C-19.98434484 179.3978145 -27.02680313 184.27431027 -32 194 C-40.92407373 213.87130704 -35.29215945 236.2126595 -28.109375 255.69921875 C-24.90351613 264.0079957 -20.93360164 271.96422249 -16.98974609 279.94091797 C-15.878242 282.25330711 -14.89382488 284.59506787 -14 287 C-14.59425781 287.12375 -15.18851563 287.2475 -15.80078125 287.375 C-25.15406432 289.70241103 -33.17060143 294.51135009 -38.4375 302.75 C-43.74057983 313.12635953 -45.67929693 322.49465729 -45.5 334.125 C-45.48646484 335.4025415 -45.47292969 336.68008301 -45.45898438 337.99633789 C-45.23828814 348.1374582 -44.13153466 357.36035551 -41 367 C-40.72091797 367.86141602 -40.44183594 368.72283203 -40.15429688 369.61035156 C-33.90609987 388.44117036 -25.78425884 405.46278826 -15.10986328 422.16333008 C-13.9616838 424.063408 -12.96667166 426.00234071 -12 428 C-13.03898438 428.21914062 -14.07796875 428.43828125 -15.1484375 428.6640625 C-26.45604335 431.18184054 -34.78047125 434.49257182 -43 443 C-59.84028329 433.300979 -75.91154772 422.51923759 -92.02319336 411.67163086 C-95.35663144 409.42902807 -98.69960313 407.20109763 -102.0456543 404.97737122 C-107.85210589 401.11807089 -113.63308789 397.2323351 -119.3125 393.1875 C-120.01213867 392.69088867 -120.71177734 392.19427734 -121.43261719 391.68261719 C-123.623856 390.12468439 -125.81211371 388.56263636 -128 387 C-129.07290283 386.23647217 -129.07290283 386.23647217 -130.16748047 385.45751953 C-141.75254169 377.20553954 -153.11138094 368.67919903 -164.38085938 360.00195312 C-167.00471065 357.99639939 -169.64802528 356.0192553 -172.296875 354.046875 C-173.94805853 352.80227151 -175.59910636 351.55748798 -177.25 350.3125 C-178.01892578 349.74861572 -178.78785156 349.18473145 -179.58007812 348.60375977 C-180.28068359 348.07065186 -180.98128906 347.53754395 -181.703125 346.98828125 C-182.62593262 346.30052612 -182.62593262 346.30052612 -183.56738281 345.59887695 C-185.48431776 343.45947563 -185.62264665 341.8295548 -186 339 C-185.72766113 336.76779175 -185.72766113 336.76779175 -185.15820312 334.46826172 C-184.94565384 333.59014328 -184.73310455 332.71202484 -184.51411438 331.80729675 C-184.27226913 330.8576857 -184.03042389 329.90807465 -183.78125 328.9296875 C-183.40802864 327.41783623 -183.40802864 327.41783623 -183.02726746 325.8754425 C-182.19786778 322.53854364 -181.35050104 319.20657937 -180.5 315.875 C-180.2085611 314.72287018 -179.91712219 313.57074036 -179.61685181 312.38369751 C-156.944283 222.92431343 -128.57821462 119.97784117 -57 35 C-56.21109375 34.11248047 -56.21109375 34.11248047 -55.40625 33.20703125 C-44.15746688 21.12606774 -29.87798819 13.7763439 -14.6875 7.9375 C-9.42000695 5.91017914 -4.74548391 3.02903228 0 0 Z " fill="#249CAA" transform="translate(705,2112)"/>
<path d="M0 0 C6.17796888 2.97492014 12.29344867 6.19563244 18 10 C20.99273833 9.6361842 23.09229292 8.47447942 25.57421875 6.8203125 C26.56929443 6.1703833 26.56929443 6.1703833 27.58447266 5.50732422 C28.27847168 5.05115723 28.9724707 4.59499023 29.6875 4.125 C37.13126403 -0.64001603 43.80816282 -4.68701155 53 -4 C55.51825008 -3.0999891 57.83839284 -2.15878995 60.25 -1.03515625 C60.936884 -0.72637039 61.62376801 -0.41758453 62.33146667 -0.09944153 C63.79891626 0.56139335 65.26417624 1.22710858 66.72738647 1.89727783 C70.55390537 3.64875459 74.39745974 5.36220958 78.23828125 7.08203125 C79.37575554 7.59325531 79.37575554 7.59325531 80.53620911 8.11480713 C106.06123525 19.57109725 129.89067558 27.97976169 158 29 C150.12477105 45.56280244 141.18255797 61.19271522 129.40917969 75.31005859 C127.97015563 77.03579049 126.55177737 78.77728833 125.1328125 80.51953125 C104.95948873 104.9849082 78.81071014 123.65558164 48 132 C46.75605469 132.33902344 45.51210937 132.67804688 44.23046875 133.02734375 C26.63374523 137.02576155 7.44754745 136.37147343 -10 132 C-11.72863281 131.65195313 -11.72863281 131.65195313 -13.4921875 131.296875 C-31.12076458 127.36226917 -48.04834468 118.37239317 -62 107 C-62.86262451 106.31019043 -62.86262451 106.31019043 -63.74267578 105.60644531 C-87.86763956 86.19343986 -109.12804886 58.61585342 -119 29 C-118.04287109 29.23203125 -118.04287109 29.23203125 -117.06640625 29.46875 C-93.67010703 33.52212158 -74.74717231 23.8544786 -54.52441406 13.31054688 C-50.28087476 11.10751796 -45.99682046 8.98660561 -41.71191406 6.86547852 C-38.36149408 5.20107912 -35.04049334 3.4961907 -31.7421875 1.73046875 C-31.03239746 1.35752686 -30.32260742 0.98458496 -29.59130859 0.6003418 C-28.24598389 -0.10750066 -26.90708476 -0.82776667 -25.57666016 -1.56323242 C-16.70686473 -6.18461729 -8.77581953 -3.67690587 0 0 Z " fill="#D83844" transform="translate(1346,1547)"/>
<path d="M0 0 C3.37726989 1.29113327 6.51139429 2.77807823 9.6875 4.5 C23.61411262 11.4224658 40.1310258 9.89621758 55 7 C53.72273623 13.23054791 52.08908218 19.25251502 50.12890625 25.30078125 C49.85097733 26.16668884 49.5730484 27.03259644 49.28669739 27.92474365 C48.38502923 30.72278394 47.47515577 33.5180253 46.5625 36.3125 C46.09339203 37.75119949 46.09339203 37.75119949 45.61480713 39.21896362 C23.55684749 106.65966107 -10.61585546 167.7758138 -55 223 C-55.74507812 223.928125 -56.49015625 224.85625 -57.2578125 225.8125 C-66.30496198 236.96740832 -75.69648235 247.79329389 -85.46380615 258.32102966 C-86.63061599 259.59628481 -87.78565159 260.88232478 -88.93511963 262.17323303 C-94.0975892 267.97061965 -99.41442068 273.5618775 -104.91015625 279.04296875 C-105.72189804 279.85566727 -106.53363983 280.66836578 -107.36997986 281.50569153 C-109.07037718 283.20676351 -110.77201446 284.90659689 -112.47485352 286.60522461 C-115.06316655 289.18816516 -117.64607561 291.77642341 -120.22851562 294.36523438 C-121.89290854 296.02896665 -123.55761154 297.69238879 -125.22265625 299.35546875 C-125.98433609 300.11917282 -126.74601593 300.88287689 -127.53077698 301.66972351 C-131.64334369 305.76455962 -135.83772726 309.70063031 -140.24234009 313.48045349 C-143.00433351 315.86827461 -145.65000857 318.37760152 -148.3125 320.875 C-153.08410895 325.31465293 -157.9816799 329.51659141 -163.06640625 333.59765625 C-166.54904297 336.44961575 -169.92761293 339.40842125 -173.3125 342.375 C-179.74227643 347.9865592 -186.34183762 353.31760238 -193.09863281 358.52832031 C-195.14352491 360.1110899 -197.1778432 361.70679524 -199.2109375 363.3046875 C-209.24098838 371.1743006 -219.4129001 378.8267354 -229.71777344 386.33251953 C-231.83221504 387.87741001 -233.93681418 389.43467495 -236.0390625 390.99609375 C-246.25449928 398.5346792 -256.76511738 405.62535184 -267.3125 412.6875 C-268.05026672 413.18338623 -268.78803345 413.67927246 -269.54815674 414.19018555 C-271.67062183 415.61504895 -273.79742703 417.03317145 -275.92578125 418.44921875 C-276.88414131 419.09367195 -276.88414131 419.09367195 -277.86186218 419.75114441 C-281.1386957 421.91895897 -284.28360176 423.70770397 -288 425 C-288.66 421.7 -289.32 418.4 -290 415 C-288.63230469 414.07960938 -287.26460937 413.15921875 -285.85546875 412.2109375 C-268.41978622 400.43024056 -251.40385925 388.18392012 -235 375 C-234.071875 374.25492188 -233.14375 373.50984375 -232.1875 372.7421875 C-222.05492012 364.52419394 -212.1305477 356.03503639 -202.48535156 347.24975586 C-200.97880279 345.88601844 -199.46425133 344.5309586 -197.93530273 343.19238281 C-190.14847979 336.3390755 -182.85266194 329.00414461 -175.53100586 321.66137695 C-173.31020693 319.43520138 -171.08409034 317.21444368 -168.85742188 314.99414062 C-167.42155416 313.55761229 -165.98599657 312.12077389 -164.55078125 310.68359375 C-163.89644608 310.03128281 -163.2421109 309.37897186 -162.56794739 308.70689392 C-158.18115114 304.29807451 -154.05443549 299.71460169 -150 295 C-148.95450644 293.80868207 -147.90783309 292.61839724 -146.859375 291.4296875 C-140.13018136 283.753533 -133.64467552 275.94335795 -127.42431641 267.84960938 C-125.93004842 265.90916127 -124.4244036 263.97788896 -122.91796875 262.046875 C-68.71837715 192.26252509 -29.63081871 112.48758689 -6.5625 27.375 C-6.34663239 26.57918518 -6.13076477 25.78337036 -5.90835571 24.96343994 C-3.67352972 16.6887148 -1.54105425 8.43790361 0 0 Z " fill="#683C10" transform="translate(1851,1424)"/>
<path d="M0 0 C9.14446969 0.85817331 17.28947402 -0.73248556 26.0546875 -3.02734375 C29.68716743 -3.97078696 33.27678525 -4.5382436 37 -5 C34.82158181 2.219263 31.83794148 8.65632997 28.3125 15.3125 C27.5095752 16.83653442 27.5095752 16.83653442 26.69042969 18.39135742 C20.78668562 29.46487135 13.98906471 39.3157766 6 49 C5.30390625 49.91910156 4.6078125 50.83820313 3.890625 51.78515625 C2.95476562 52.88150391 2.95476562 52.88150391 2 54 C1.34 54 0.68 54 0 54 C3 45 3 45 4.08203125 42.234375 C5.2267679 38.20100501 5.33059636 34.54440172 5.3125 30.375 C5.32861328 29.62476563 5.34472656 28.87453125 5.36132812 28.1015625 C5.36392146 25.17627882 5.29542511 22.64316507 4.0625 19.95898438 C0.79701824 16.85739516 -3.10520242 16.02018386 -7.36328125 14.7578125 C-8.30568161 14.4669577 -9.24808197 14.17610291 -10.21903992 13.87643433 C-13.24635381 12.94615813 -16.27926703 12.03576627 -19.3125 11.125 C-21.28096969 10.52073764 -23.24907289 9.91528003 -25.21679688 9.30859375 C-38.40495402 5.2667645 -51.67151427 1.5494949 -65 -2 C-65.33 -1.67 -65.66 -1.34 -66 -1 C-65.55269531 -0.45214844 -65.10539062 0.09570312 -64.64453125 0.66015625 C-55.21788161 13.02132795 -52.0407012 26.72614766 -54 42 C-56.6906393 56.66546258 -64.08217485 69.98098088 -76.37890625 78.68359375 C-91.19131717 87.97901907 -107.37182094 90.58109452 -124.609375 87.31640625 C-127.24095968 86.39991505 -129.56535372 85.35118686 -132 84 C-132.85335938 83.55269531 -133.70671875 83.10539062 -134.5859375 82.64453125 C-149.35726345 74.37170155 -157.48468779 62.6635229 -162.75 46.73046875 C-166.82754118 31.46800558 -162.70068114 17.69269624 -156 4 C-174.86824316 16.0848957 -190.92329121 30.75414514 -204 49 C-207.75856617 47.2958054 -209.29822136 45.85139376 -211 42 C-209.94483233 29.70323828 -191.70010865 15.75549324 -182.83886719 8.14355469 C-173.80992669 0.71540328 -164.39507648 -5.64941293 -154 -11 C-152.95714844 -11.55300781 -151.91429687 -12.10601563 -150.83984375 -12.67578125 C-106.82294348 -34.65695945 -43.72710755 -14.57570252 0 0 Z " fill="#452C1B" transform="translate(1714,1172)"/>
<path d="M0 0 C4.14437945 3.51695802 8.10050297 7.21381501 12 11 C12.52110352 11.50063965 13.04220703 12.0012793 13.57910156 12.51708984 C29.94783558 28.2874502 29.94783558 28.2874502 30.0625 34.25 C29.0211882 36.94515996 27.90828399 38.8428094 26 41 C22.70912661 40.7687911 21.82522461 39.81507282 19.51171875 37.3671875 C18.56388738 36.20835061 17.62293668 35.04386503 16.6875 33.875 C4.60204766 19.34876391 -8.57132703 6.54722882 -25 -3 C-24.59007812 -2.17757813 -24.18015625 -1.35515625 -23.7578125 -0.5078125 C-16.44112321 14.65068732 -14.92333535 28.07545399 -19.74609375 44.42578125 C-24.71070133 58.57723276 -33.77088764 68.9848314 -47 76 C-47.90621094 76.50789063 -48.81242187 77.01578125 -49.74609375 77.5390625 C-62.16133272 83.44165951 -78.87054006 83.19970886 -91.8125 79 C-106.78926141 72.51128177 -117.96989668 61.13324007 -124 46 C-129.22620355 31.29140441 -128.26886366 15.68819405 -121.625 1.625 C-119.58287754 -2.41756895 -116.94246589 -5.58516501 -114 -9 C-115.52367187 -8.61908203 -115.52367187 -8.61908203 -117.078125 -8.23046875 C-117.7378833 -8.06562988 -118.3976416 -7.90079102 -119.07739258 -7.73095703 C-120.54356685 -7.36420752 -122.00954572 -6.99667612 -123.4753418 -6.62841797 C-126.66866548 -5.82704098 -129.86178559 -5.03257282 -133.06640625 -4.27734375 C-140.7492394 -2.45226105 -148.2327166 -0.10588136 -155.7421875 2.3203125 C-159.48455048 3.52775684 -163.24004803 4.67906334 -167.0078125 5.8046875 C-168.50465576 6.25956543 -168.50465576 6.25956543 -170.03173828 6.72363281 C-171.97739738 7.31446793 -173.92624109 7.89493761 -175.87841797 8.46386719 C-177.20703857 8.87233887 -177.20703857 8.87233887 -178.5625 9.2890625 C-179.34753906 9.52318848 -180.13257813 9.75731445 -180.94140625 9.99853516 C-183.51175857 11.24896035 -184.54407803 12.56056989 -186 15 C-187.35015662 25.01062073 -185.38356142 33.58310015 -182 43 C-181.64655978 44.32814491 -181.30389771 45.65965114 -181 47 C-198.34393752 33.8035258 -210.21886607 9.93824463 -218 -10 C-218 -10.66 -218 -11.32 -218 -12 C-213.96760097 -11.40144077 -210.08062419 -10.52567687 -206.13964844 -9.48828125 C-193.34362891 -6.19437207 -182.73712863 -5.95529595 -170.13769531 -10.29785156 C-161.21137418 -13.22979532 -152.0721524 -15.56780657 -143 -18 C-141.668479 -18.35843994 -141.668479 -18.35843994 -140.31005859 -18.72412109 C-90.40639322 -31.86074067 -41.55487861 -34.42190699 0 0 Z " fill="#442B1A" transform="translate(1176,1179)"/>
<path d="M0 0 C1.23608002 -0.00045319 2.47216003 -0.00090637 3.74569702 -0.00137329 C23.37506744 0.01961495 42.62757609 1.06166548 62.08872986 3.57749939 C67.0067036 4.21318646 71.92605419 4.74147825 76.86328125 5.203125 C78.17063232 5.32840576 79.4779834 5.45368652 80.82495117 5.58276367 C83.22685412 5.81073186 85.62933316 6.03275162 88.0324707 6.24731445 C89.0762085 6.35261475 90.11994629 6.45791504 91.1953125 6.56640625 C92.0939502 6.65092041 92.99258789 6.73543457 93.91845703 6.82250977 C96.93401844 7.48389913 98.93745678 8.57505439 101.4375 10.375 C104.50993335 15.73498744 104.90400101 20.34251622 104.8125 26.4375 C104.82410156 27.21416016 104.83570313 27.99082031 104.84765625 28.79101562 C104.81682156 34.86030983 103.50672729 39.05495728 99.375 43.6875 C92.14384453 47.84156804 84.59415917 46.2813335 76.87304688 44.27832031 C75.69806641 43.95959961 74.52308594 43.64087891 73.3125 43.3125 C70.73842513 42.65338284 68.16379316 41.99935815 65.5859375 41.35546875 C64.92281555 41.18914948 64.2596936 41.0228302 63.57647705 40.85147095 C47.22953154 36.80735976 30.46366041 33.99728075 13.8125 31.5625 C13.05130859 31.45067383 12.29011719 31.33884766 11.50585938 31.22363281 C-47.2780855 23.17491245 -115.16029775 32.44704425 -165.2265625 66.0390625 C-165.99742187 66.47992187 -166.76828125 66.92078125 -167.5625 67.375 C-168.2225 67.045 -168.8825 66.715 -169.5625 66.375 C-142.17324815 33.21958986 -105.35996551 13.09868581 -63.5625 4.375 C-62.60988281 4.17132812 -61.65726563 3.96765625 -60.67578125 3.7578125 C-40.79047601 -0.01604105 -20.16096839 -0.0290717 0 0 Z " fill="#693D11" transform="translate(1101.5625,1032.625)"/>
<path d="M0 0 C1.18057983 -0.00067474 2.36115967 -0.00134949 3.57751465 -0.00204468 C21.01816582 0.01378679 38.07585495 0.3650292 55.3125 3.25 C56.90868164 3.50740967 56.90868164 3.50740967 58.53710938 3.77001953 C98.40165278 10.38848008 132.21092387 28.04572271 160.8125 56.4375 C161.56136475 57.1807251 162.31022949 57.9239502 163.08178711 58.68969727 C168.3125 63.9930504 168.3125 63.9930504 168.3125 66.25 C164.80182286 64.92849035 161.485463 63.35646211 158.15307617 61.63696289 C139.87431739 52.22627414 120.89385295 45.4424696 101.3125 39.25 C100.37083984 38.94787598 99.42917969 38.64575195 98.45898438 38.33447266 C92.45805352 36.42698675 86.4296469 34.74302588 80.3125 33.25 C79.47428711 33.03972168 78.63607422 32.82944336 77.77246094 32.61279297 C44.50975856 24.70115585 6.78352865 27.6988632 -26.6875 33.25 C-27.8312207 33.43191895 -28.97494141 33.61383789 -30.15332031 33.80126953 C-45.50541482 36.27877079 -60.578616 39.76711865 -75.625 43.65917969 C-91.59013005 47.73912017 -91.59013005 47.73912017 -97.9375 44.6875 C-102.47756475 40.6633517 -104.8419017 36.68020755 -105.21875 30.65625 C-105.22925026 29.02083387 -105.21849822 27.38515604 -105.1875 25.75 C-105.20296875 24.93402344 -105.2184375 24.11804687 -105.234375 23.27734375 C-105.19713454 17.47714174 -104.13034157 13.95360046 -100.6875 9.25 C-97.63922347 7.32048291 -94.88923712 6.86302436 -91.33081055 6.48803711 C-89.72214363 6.31291847 -89.72214363 6.31291847 -88.08097839 6.13426208 C-86.92374771 6.01647903 -85.76651703 5.89869598 -84.57421875 5.77734375 C-83.37247513 5.64936905 -82.17073151 5.52139435 -80.93257141 5.38954163 C-78.38340949 5.11957502 -75.83384866 4.85335286 -73.28393555 4.59057617 C-69.42731657 4.19289471 -65.57201652 3.78404952 -61.71679688 3.37304688 C-41.07130743 1.18909313 -20.76523189 0.01067091 0 0 Z " fill="#693D11" transform="translate(1607.6875,1032.75)"/>
<path d="M0 0 C-42.70246302 34.49322055 -98.25292947 51.12782022 -152.890625 45.34375 C-174.91836128 42.60171468 -196.12878133 36.94525088 -216 27 C-216.65645508 26.67918457 -217.31291016 26.35836914 -217.98925781 26.02783203 C-230.82744714 19.71769854 -242.54395417 11.80660199 -253 2 C-249.50893906 0.84481215 -246.81911414 1.13061574 -243.20703125 1.671875 C-242.035354 1.84033936 -240.86367676 2.00880371 -239.65649414 2.18237305 C-238.38797607 2.36968994 -237.11945801 2.55700684 -235.8125 2.75 C-224.41881463 4.3696759 -213.02563398 5.67164716 -201.5625 6.6875 C-200.55384384 6.77795593 -200.55384384 6.77795593 -199.52481079 6.87023926 C-195.01838158 7.27197653 -190.51139477 7.65881933 -186 8 C-184.4208506 8.12487541 -184.4208506 8.12487541 -182.80979919 8.25227356 C-172.93493842 8.98089443 -163.1126209 9.19355162 -153.21484375 9.23828125 C-152.38786673 9.24310453 -151.5608897 9.24792782 -150.70885277 9.25289726 C-144.45174072 9.28888144 -138.19470519 9.30480023 -131.9375 9.3125 C-130.56074726 9.31466774 -130.56074726 9.31466774 -129.15618134 9.31687927 C-100.24826542 9.35369045 -71.71019284 8.69306158 -43 5 C-41.53695807 4.81664037 -40.07390486 4.63337068 -38.61083984 4.45019531 C-27.79828137 3.07866151 -17.05500199 1.49123684 -6.3815918 -0.72607422 C-3.93906631 -1.00700847 -2.31946173 -0.75804669 0 0 Z " fill="#FEFCFC" transform="translate(1494,1583)"/>
<path d="M0 0 C-0.38671875 0.4846875 -0.7734375 0.969375 -1.171875 1.46875 C-10.94445353 14.04731642 -14.22437033 27.0321703 -13 43 C-10.80166399 58.00364329 -3.28601006 71.07905953 8.9140625 80.171875 C13.146999 82.93298183 17.26290221 85.22252524 22 87 C22 87.33 22 87.66 22 88 C-2.91592892 86.58321188 -35.95535139 82.32032302 -57 68 C-57.68449219 67.54496094 -58.36898437 67.08992188 -59.07421875 66.62109375 C-66.52795826 60.95625172 -72.00380656 50.47260091 -73.78515625 41.265625 C-75.20196926 26.3246878 -75.20196926 26.3246878 -72.578125 21.25 C-68.88310209 18.02525273 -65.0395261 17.01740539 -60.375 15.6875 C-59.41295654 15.3982666 -58.45091309 15.1090332 -57.4597168 14.81103516 C-55.38927029 14.18879065 -53.31683732 13.57312548 -51.24267578 12.96337891 C-47.96282819 11.98895649 -44.69751916 10.97563167 -41.43359375 9.94921875 C-31.35583219 6.7843633 -21.26036901 3.69464648 -11.0625 0.9375 C-10.28173096 0.7214209 -9.50096191 0.5053418 -8.6965332 0.28271484 C-3.35896565 -1.11965522 -3.35896565 -1.11965522 0 0 Z " fill="#FEFDFD" transform="translate(1063,1170)"/>
<path d="M0 0 C12.21748114 2.2033206 24.03761547 5.87875381 35.92932129 9.39019775 C38.07123796 10.02097914 40.21471027 10.64626377 42.35839844 11.27099609 C46.031575 12.34394379 49.69808708 13.43753947 53.36102295 14.54492188 C54.77891032 14.97087474 56.198552 15.391034 57.61993408 15.80517578 C59.61662718 16.38872943 61.60538365 16.99423304 63.59375 17.60546875 C65.30594727 18.11823364 65.30594727 18.11823364 67.05273438 18.64135742 C70.51708783 20.23836927 71.97258729 21.79495023 74 25 C74.42880788 27.83900393 74.62023737 30.17277216 74.5625 33 C74.54823975 34.12341797 74.54823975 34.12341797 74.53369141 35.26953125 C74.09124639 47.27948372 68.60515962 58.79855042 60 67.1875 C43.60985159 80.06547375 17.76790439 82.93039473 -2.00756836 86.46337891 C-4.03593549 86.82711807 -6.06277451 87.19946452 -8.08813477 87.57958984 C-9.06322998 87.76215332 -10.0383252 87.9447168 -11.04296875 88.1328125 C-11.90946045 88.29668457 -12.77595215 88.46055664 -13.66870117 88.62939453 C-16.46899767 89.07455634 -19.17036086 89.15295347 -22 89 C-19.39214943 86.95348049 -16.83726422 85.35066668 -13.875 83.875 C-0.84565528 76.67457266 7.27032655 65.50060856 11.55737305 51.3984375 C15.14943659 37.9199171 13.89804485 24.60103378 8 12 C5.87595444 8.47184853 3.53589793 5.23804171 1 2 C0.67 1.34 0.34 0.68 0 0 Z " fill="#FEFDFD" transform="translate(1646,1169)"/>
<path d="M0 0 C0.33 0 0.66 0 1 0 C1.03214924 9.77081728 1.05148236 19.54163871 1.0625 29.3125 C1.06335602 30.0660099 1.06421204 30.81951981 1.06509399 31.59586334 C1.094449 61.02474935 0.84235043 90.44828428 0.5 119.875 C0.48804218 120.90324009 0.47608437 121.93148018 0.46376419 122.99087906 C0.31581545 135.66066953 0.1612067 148.3303715 0 161 C-3.24699202 159.74543365 -5.82045357 158.58518899 -8.49609375 156.34765625 C-9.1298291 155.82413574 -9.76356445 155.30061523 -10.41650391 154.76123047 C-11.08343262 154.20064941 -11.75036133 153.64006836 -12.4375 153.0625 C-13.87031145 151.87795934 -15.30391941 150.69438155 -16.73828125 149.51171875 C-17.4545166 148.9192334 -18.17075195 148.32674805 -18.90869141 147.71630859 C-21.94568982 145.22388519 -25.02943628 142.79404395 -28.125 140.375 C-28.68461426 139.93623535 -29.24422852 139.4974707 -29.82080078 139.04541016 C-32.85624425 136.66783515 -35.90047268 134.30189399 -38.94921875 131.94140625 C-39.59552246 131.43883301 -40.24182617 130.93625977 -40.90771484 130.41845703 C-42.15161132 129.45133629 -43.39793212 128.48732342 -44.64697266 127.52685547 C-48.88740362 124.22519276 -48.88740362 124.22519276 -50 122 C-49.49987793 120.26213074 -49.49987793 120.26213074 -48.60742188 118.13745117 C-48.27477829 117.334617 -47.9421347 116.53178284 -47.59941101 115.70462036 C-47.22629288 114.82627533 -46.85317474 113.9479303 -46.46875 113.04296875 C-46.08648758 112.12562958 -45.70422516 111.20829041 -45.31037903 110.26315308 C-44.48159079 108.27657099 -43.64927221 106.29145894 -42.81387329 104.30764771 C-41.04324565 100.10281318 -39.28917585 95.89114223 -37.53425598 91.67973328 C-36.64074024 89.53591028 -35.74635472 87.39244961 -34.85112 85.24934387 C-30.9393055 75.87989949 -27.11043398 66.47856038 -23.3125 57.0625 C-22.12062795 54.11164069 -20.92779974 51.16116917 -19.734375 48.2109375 C-19.43829849 47.47897156 -19.14222198 46.74700562 -18.83717346 45.99285889 C-12.6191479 30.63711873 -6.30053933 15.32202176 0 0 Z " fill="#DF9C72" transform="translate(1366,1243)"/>
<path d="M0 0 C19.92266757 9.53969002 37.82218513 27.84010063 50 46 C43.20510071 57.57220049 34.71712997 67.37290097 25.4375 77 C24.94427246 77.52770996 24.45104492 78.05541992 23.94287109 78.59912109 C17.10056362 85.51669173 10.18298455 88.3896636 0.53515625 88.5234375 C-2.62400718 88.51919179 -5.77935447 88.44997272 -8.9375 88.375 C-10.53318159 88.35845099 -12.12888771 88.34411387 -13.72460938 88.33203125 C-32.71349794 88.13395642 -32.71349794 88.13395642 -38 87 C-38.33 86.34 -38.66 85.68 -39 85 C-38.11699219 84.78085938 -37.23398438 84.56171875 -36.32421875 84.3359375 C-20.52854083 80.1622138 -8.08507645 73.1848272 0.5 58.796875 C8.22411168 44.3946251 10.01612647 29.95669152 6 14.02734375 C4.76070749 10.27557932 3.08717174 7.04420521 0.98828125 3.70703125 C0 2 0 2 0 0 Z " fill="#FDFDFD" transform="translate(1150,1175)"/>
<path d="M0 0 C0 3.44947747 -0.86034569 5.05191524 -2.375 8.125 C-8.41245919 21.20901213 -8.89986005 35.35657344 -4 49 C2.76002327 65.0004685 12.17993402 75.01720077 28.3046875 82 C32.16324771 83.43158176 35.95240611 84.27010602 40 85 C39.67 85.66 39.34 86.32 39 87 C30.48214626 88.82708241 21.03293072 88.28426539 12.33862305 88.35009766 C10.73593691 88.36671931 9.13332674 88.39409065 7.53100586 88.43212891 C-4.64783189 88.71798794 -12.85973974 87.78927382 -22.2734375 79.35546875 C-23.65652258 77.98197121 -25.02339948 76.59199132 -26.375 75.1875 C-27.09888916 74.44991455 -27.82277832 73.7123291 -28.56860352 72.95239258 C-36.10217458 65.12070961 -44.5684856 56.05320696 -49 46 C-43.59580928 39.0791018 -38.00149485 32.41112069 -32 26 C-31.10539062 25.03964844 -30.21078125 24.07929687 -29.2890625 23.08984375 C-20.63272915 14.00974293 -10.8710191 6.29157652 0 0 Z " fill="#FEFDFD" transform="translate(1558,1175)"/>
<path d="M0 0 C2 2 2 2 2.0625 4.9375 C-0.64357785 19.65369862 -17.41769009 33.53719223 -29 42 C-37.26976975 47.2060389 -37.26976975 47.2060389 -41.72265625 46.67578125 C-44 46 -44 46 -45 45 C-46.21487858 34.20550509 -42.99231313 24.89017185 -36.76171875 16.1328125 C-27.50005848 4.92024818 -14.78744188 -1.8690447 0 0 Z " fill="#FCFBFB" transform="translate(1102,1164)"/>
<path d="M0 0 C11.04184686 0.1419666 20.99517197 4.84340052 28.87890625 12.41796875 C37.43730869 21.57530175 40.87611713 30.77416595 40.953125 43.2109375 C40.6875 45.3125 40.6875 45.3125 38.6875 47.3125 C28.1926803 47.53579404 19.6092358 38.77082131 12.40185547 32.00317383 C4.95903084 24.811419 -3.29297904 16.48169128 -6.3125 6.3125 C-5.70476335 1.13932709 -5.13963986 0.15574666 0 0 Z " fill="#FCFCFC" transform="translate(1611.3125,1163.6875)"/>
</svg>
