<?xml version="1.0" encoding="UTF-8"?>
<svg version="1.1" xmlns="http://www.w3.org/2000/svg" width="2754" height="2754">
<path d="M0 0 C3.34299378 0.83123089 5.12649752 0.659001 8.3125 -0.625 C17.04682789 -4.06347003 27.91843724 -3.30005445 36.50390625 0.140625 C40.05224674 1.37897202 42.86846332 -0.11487243 46.25 -1.3125 C54.42190806 -3.66259121 63.11785619 -2.80882495 71.03125 -0.00390625 C76.61655954 1.893919 79.55761682 1.43349205 85.25 -0.25 C92.8597266 -0.92328857 99.91017947 -1.17527162 107 1.875 C112.26533972 4.13609183 115.89977012 3.53199921 121.41015625 2.34765625 C129.36858571 0.67277357 136.66432037 1.95709068 144.25 4.75 C145.01570313 5.29914063 145.78140625 5.84828125 146.5703125 6.4140625 C150.32527538 8.28607023 153.40388433 7.51115893 157.375 6.8125 C167.95106471 5.28518486 175.71019665 6.35686954 185.05859375 11.82421875 C187.76148833 12.96608331 188.48324976 12.57807666 191.25 11.75 C202.54979925 11.02671799 212.50728173 11.25485449 222.25 17.75 C224.21458942 17.9763379 224.21458942 17.9763379 226.34765625 17.83984375 C227.14453857 17.81752686 227.9414209 17.79520996 228.76245117 17.7722168 C230.02472534 17.73028198 230.02472534 17.73028198 231.3125 17.6875 C240.16352518 17.55217338 247.54954166 17.81763007 254.75 23.4375 C259.02324889 26.37916624 263.07869305 25.97541942 268.0625 25.8125 C276.96257005 25.52227047 284.54013377 26.32404197 291.4375 32.5 C294.99321747 35.32918866 298.60478281 34.96831698 302.9375 34.8125 C312.42191392 34.47392696 320.07204898 36.22885101 327.8125 42 C332.12662242 45.11360362 335.09851054 45.00972592 340.28515625 44.71875 C349.8558353 44.81962672 358.56527418 49.06527418 365.25 55.75 C367.20905982 55.92578591 369.16865205 56.09701056 371.13012695 56.2434082 C381.03668691 57.03390456 390.6530155 58.58793768 397.6015625 66.390625 C400.91698438 69.34418668 403.57125166 69.49485425 407.8125 69.6875 C415.79916048 70.37275144 424.0650061 72.25058946 429.7578125 78.37109375 C430.37269531 79.14646484 430.37269531 79.14646484 431 79.9375 C434.40356792 83.8607744 439.43937482 83.94825807 444.28833008 84.71875 C454.06885343 86.29104339 460.46806545 90.49709777 467.25 97.75 C467.25 98.41 467.25 99.07 467.25 99.75 C468.136875 99.6675 469.02375 99.585 469.9375 99.5 C479.20698736 99.53768084 488.66506326 103.24556371 495.25 109.75 C496.2709375 111.296875 496.2709375 111.296875 497.3125 112.875 C499.9109913 116.2982684 503.50994501 116.82215927 507.5 117.75 C516.57966745 119.8713664 522.19810851 123.05957159 528 130.375 C532.04340546 135.19970093 536.02659139 136.26907971 541.99609375 137.8046875 C550.02508164 140.1372386 556.56908802 144.82351538 561.25 151.75 C561.50652344 152.44222656 561.76304688 153.13445312 562.02734375 153.84765625 C563.87893801 156.72857128 566.04644823 156.78705145 569.3125 157.5625 C579.03062696 160.31918723 586.16751134 165.94640357 591.25 174.75 C591.90625 176.98828125 591.90625 176.98828125 592.25 178.75 C593.24 178.8325 594.23 178.915 595.25 179 C603.2518295 180.19141928 609.87861167 184.85065469 615.25 190.75 C617.16714887 193.64470498 618.76269627 196.6158106 620.25 199.75 C621.72936191 202.70872381 623.81791529 202.86212728 626.875 204 C635.01657066 207.30298596 640.95707939 211.98030338 645.25 219.75 C645.6654624 221.11919685 646.06124012 222.49451547 646.4375 223.875 C647.36156376 226.62078947 647.94749523 227.55307104 650.41015625 229.15625 C652.15997181 229.97969262 653.91955233 230.78265038 655.6875 231.56640625 C664.31189212 235.54992883 667.57332191 242.29250209 671.25 250.75 C671.68505859 252.08804688 671.68505859 252.08804688 672.12890625 253.453125 C673.56813426 256.40178726 674.95840154 257.00628992 677.875 258.4375 C686.00680281 263.0270848 691.25093775 269.83176535 693.828125 278.7890625 C694.25 280.75 694.25 280.75 694.4375 283.4375 C695.65181224 286.89361944 698.25275232 288.16309225 701.1875 290.22265625 C707.38746082 294.81391511 710.860016 301.58004801 713.25 308.75 C713.31802967 310.47795352 713.33495645 312.20835365 713.3125 313.9375 C713.30347656 314.83855469 713.29445313 315.73960937 713.28515625 316.66796875 C713.27355469 317.35503906 713.26195313 318.04210937 713.25 318.75 C713.82621094 318.99363281 714.40242188 319.23726562 714.99609375 319.48828125 C722.39676079 323.63111566 726.60474548 331.21596206 728.9375 339.0625 C729.42855281 343.28555414 729.32420472 347.50384124 729.25 351.75 C729.83652344 351.98847656 730.42304688 352.22695313 731.02734375 352.47265625 C736.91208704 355.85457374 740.32362514 363.01082784 742.1875 369.3125 C743.04062582 372.85471833 743.27987279 375.81781189 743 379.4375 C742.87892737 382.27766208 743.01182131 383.40794894 744.65625 385.76953125 C745.89430962 387.09939614 747.15268347 388.4106108 748.4296875 389.703125 C752.67131482 394.47268019 755.37894906 401.34841275 755.13671875 407.73828125 C755.07097656 408.83527344 755.00523438 409.93226563 754.9375 411.0625 C754.87900619 416.83897244 754.87900619 416.83897244 758 421.4375 C758.54398438 421.96988281 759.08796875 422.50226563 759.6484375 423.05078125 C763.81563925 427.47208067 765.37959489 432.87145515 765.28125 438.85546875 C765.23506815 440.34134099 765.18287099 441.8270371 765.125 443.3125 C764.87795387 449.80397148 765.57197457 453.62586118 769.71484375 458.71875 C774.4388374 464.96932684 774.89473108 473.19743587 774.25 480.75 C773.8478125 482.296875 773.8478125 482.296875 773.4375 483.875 C773.18345835 487.77030534 774.70888999 489.61646763 776.92578125 492.72265625 C781.02258991 498.99476155 782.19716686 507.16544929 780.6875 514.47265625 C780.460625 515.30667969 780.23375 516.14070312 780 517 C779.31902645 519.80901588 778.99323407 521.16010242 780.15625 523.83203125 C781.05565498 525.15760777 781.98202226 526.46526584 782.93359375 527.75390625 C786.47248819 533.12000435 786.88299604 540.49916414 786.25 546.75 C785.84028135 548.56408324 785.42315357 550.37650347 785 552.1875 C783.96898864 557.30700469 784.72438789 560.24418949 787.20703125 564.77734375 C790.23879976 570.51158757 790.11696065 577.58225916 788.4375 583.71875 C788.128125 584.7190625 787.81875 585.719375 787.5 586.75 C785.95519738 592.35257909 786.75893596 594.89062536 789.2421875 599.98046875 C792.35863635 608.54466347 790.70700126 617.63356225 787.25 625.75 C787.4574262 628.65396681 788.25204497 630.75542733 789.27734375 633.4765625 C791.48185125 640.89574839 791.39197427 649.00980891 788.125 656.0625 C786.10604944 660.4321867 786.31471028 662.5507945 787.6484375 667.07421875 C789.83879728 676.81705283 788.95849433 686.93811904 784.25 695.75 C783.92 696.41 783.59 697.07 783.25 697.75 C783.55164062 698.62011719 783.85328125 699.49023438 784.1640625 700.38671875 C785.38602352 704.17128149 785.63296062 707.62667695 785.625 711.5625 C785.62556396 712.26737549 785.62612793 712.97225098 785.62670898 713.69848633 C785.5024885 719.59794101 784.02581226 723.67229464 781.25 728.75 C780.26042767 732.11365995 780.26042767 732.11365995 780.71875 735.4765625 C783.09388612 745.64074795 781.18297568 755.86729256 776.0625 764.828125 C774.87941658 767.62657231 775.92756613 769.67229131 776.71875 772.48828125 C778.68158117 780.84474632 776.76845941 788.08940778 773.25 795.75 C772.693125 796.61625 772.13625 797.4825 771.5625 798.375 C769.87311625 800.79159739 769.87311625 800.79159739 771.0625 803.9375 C771.454375 805.195625 771.84625 806.45375 772.25 807.75 C773.15382274 816.13860483 771.71812771 824.27930533 766.9375 831.3125 C764.85894763 835.54658817 765.48543425 836.96472022 766.71484375 841.30078125 C768.47289632 849.34675906 765.95547386 857.60472777 762.25 864.75 C761.59 865.41 760.93 866.07 760.25 866.75 C760.45727845 868.33913475 760.67581449 869.92737756 760.94140625 871.5078125 C762.19192756 880.59387871 761.31740673 888.47915287 757.25 896.75 C756.7034375 897.43835937 756.156875 898.12671875 755.59375 898.8359375 C753.7322175 901.48753902 754.40366332 903.41127185 754.91015625 906.484375 C756.07856164 914.27374425 755.31898796 921.47394103 752.25 928.75 C751.5075 929.678125 750.765 930.60625 750 931.5625 C747.549461 936.02598175 748.46093445 939.41773491 748.99609375 944.375 C749.66337952 953.24476783 747.20064403 959.17500857 742.44921875 966.48046875 C740.6639134 969.85917366 741.32725815 972.12494275 742.25 975.75 C743.00445815 983.77743473 741.85892118 991.62287245 736.640625 997.94140625 C733.39021212 1002.34178256 733.83611257 1006.29317753 734.1875 1011.5625 C734.49552002 1020.66482288 733.80740343 1027.32728222 727.9375 1034.625 C727.380625 1035.32625 726.82375 1036.0275 726.25 1036.75 C726.53254099 1038.09501282 726.87674747 1039.42728634 727.25 1040.75 C728.15225946 1050.7044363 726.64889294 1059.59182981 720.4375 1067.625 C717.97226245 1070.44150222 717.97226245 1070.44150222 718.4375 1073.125 C718.705625 1073.99125 718.97375 1074.8575 719.25 1075.75 C719.90123305 1082.4085257 718.99380982 1088.62919348 716.25 1094.75 C715.22172706 1095.98759059 714.15806104 1097.19655963 713.0625 1098.375 C709.39956533 1102.79022443 709.98474944 1107.26623075 710.21484375 1112.67407227 C710.48081729 1120.58586162 708.60733078 1127.10526562 703.5 1133.1875 C700.42259148 1137.09487627 701.05899041 1140.84769739 701.25 1145.62890625 C701.25 1154.62835647 697.67203143 1161.76954037 692.25 1168.75 C691.92 1169.08 691.59 1169.41 691.25 1169.75 C691.22916667 1171.58333333 691.25927826 1173.41732093 691.3125 1175.25 C691.33859607 1186.30168516 688.56695119 1192.66193343 682.25 1201.75 C679.93111244 1205.22833133 680.13026308 1206.2065204 680.375 1210.25 C680.46911533 1217.33431733 679.37689822 1224.30221921 674.4609375 1229.72265625 C673.52121094 1230.63337891 673.52121094 1230.63337891 672.5625 1231.5625 C668.26522021 1235.99634588 668.62101552 1240.34289483 668.46875 1246.28125 C667.94383048 1254.6049738 663.80644002 1261.66966707 658.25 1267.75 C657.59 1268.08 656.93 1268.41 656.25 1268.75 C655.93111519 1271.46111758 655.93111519 1271.46111758 655.875 1274.6875 C655.09113587 1286.62836353 650.51974912 1293.48025088 642.25 1301.75 C641.9108165 1304.09529443 641.65246803 1306.45257624 641.4375 1308.8125 C640.38616066 1318.20625616 637.32490972 1324.41981762 630.25 1330.75 C629.4146875 1331.6471875 629.4146875 1331.6471875 628.5625 1332.5625 C627.25 1333.75 627.25 1333.75 625.25 1333.75 C625.29640625 1334.35585937 625.3428125 1334.96171875 625.390625 1335.5859375 C625.84587417 1346.15422178 622.39893752 1353.11567679 615.34765625 1360.83984375 C613.25 1362.75 613.25 1362.75 610.5546875 1364.1875 C608.04663479 1365.53557526 608.04663479 1365.53557526 607.53515625 1368.09765625 C607.42494141 1369.44150391 607.42494141 1369.44150391 607.3125 1370.8125 C605.8942241 1380.58571028 600.75255236 1386.86009553 593.3984375 1393.15625 C591.25 1394.75 591.25 1394.75 589.0859375 1395.625 C586.35490957 1397.29848094 586.26993927 1399.20166901 585.5 1402.25 C582.53755968 1411.86352227 576.80049853 1418.2868812 568.42578125 1423.69140625 C566.04150918 1424.85143808 563.86128049 1425.3429878 561.25 1425.75 C561.20875 1426.53375 561.1675 1427.3175 561.125 1428.125 C559.14103954 1436.34426475 554.43727801 1442.44276212 547.640625 1447.34375 C544.02551888 1449.47028301 540.30757616 1450.74280024 536.25 1451.75 C536.14558594 1452.63816406 536.04117187 1453.52632812 535.93359375 1454.44140625 C534.15942823 1463.02836735 527.71002635 1468.70308153 520.6796875 1473.375 C517.13952918 1475.37843365 514.351738 1476.75 510.25 1476.75 C510.07597656 1477.85408203 510.07597656 1477.85408203 509.8984375 1478.98046875 C507.97098269 1487.21279079 501.80165255 1492.52494009 495.0859375 1497.15234375 C491.13067402 1499.38058447 487.73306747 1500.16205672 483.25 1500.75 C483.14558594 1501.48476562 483.04117187 1502.21953125 482.93359375 1502.9765625 C481.02416103 1510.72340384 474.16335538 1516.09175324 467.8046875 1520.34375 C465.3474269 1521.69637051 463.20405126 1522.43305422 460.5 1523.125 C455.68497452 1524.4971139 454.30048121 1527.16553444 451.828125 1531.3359375 C446.86432464 1538.92907765 439.76597812 1543.1466699 431.25 1545.75 C430.569375 1545.84023437 429.88875 1545.93046875 429.1875 1546.0234375 C426.20181583 1547.14306906 425.26200662 1549.29738594 423.5625 1551.9375 C416.64446405 1561.7550069 408.65291012 1564.75387215 397.25 1567.75 C400.57919487 1569.5975842 403.8784222 1570.54377383 407.55859375 1571.4921875 C408.85676554 1571.83240755 410.15477198 1572.17325895 411.45263672 1572.51464844 C412.14033142 1572.69443237 412.82802612 1572.87421631 413.53656006 1573.05944824 C455.91801411 1584.20290482 497.09082926 1599.27799772 537.25 1616.75 C538.44753906 1617.27029785 539.64507813 1617.7905957 540.87890625 1618.32666016 C573.5833649 1632.61039475 605.75414742 1648.27467388 636.875 1665.75 C637.81746582 1666.27811279 638.75993164 1666.80622559 639.73095703 1667.3503418 C644.78897891 1670.22453167 649.67762685 1673.14220968 654.25 1676.75 C654.25 1677.41 654.25 1678.07 654.25 1678.75 C655.03375 1678.95625 655.8175 1679.1625 656.625 1679.375 C666.05290077 1682.95110029 673.72897441 1689.16340486 681.25 1695.75 C681.91515625 1696.33007812 682.5803125 1696.91015625 683.265625 1697.5078125 C738.35354879 1749.12380832 759.75813572 1844.68332865 778.25 1914.75 C778.50116577 1915.69903198 778.75233154 1916.64806396 779.0111084 1917.62585449 C785.90480173 1943.72445021 791.95508345 1969.98753562 797.625 1996.375 C797.77079876 1997.05327599 797.91659752 1997.73155197 798.06681442 1998.43038177 C801.2147238 2013.08870476 804.28617313 2027.76318231 807.25850296 2042.45814133 C807.65483549 2044.41537128 808.05435445 2046.37195514 808.45394897 2048.32852173 C808.69038116 2049.50707733 808.92681335 2050.68563293 809.17041016 2051.89990234 C809.3796109 2052.93609711 809.58881165 2053.97229187 809.80435181 2055.03988647 C810.25 2057.75 810.25 2057.75 810.25 2061.75 C808.96264648 2063.14355469 808.96264648 2063.14355469 807.12109375 2064.421875 C806.42806152 2064.91276611 805.7350293 2065.40365723 805.02099609 2065.90942383 C804.25094238 2066.43431396 803.48088867 2066.9592041 802.6875 2067.5 C801.88393066 2068.06291748 801.08036133 2068.62583496 800.25244141 2069.20581055 C798.50586544 2070.42674873 796.75501704 2071.64159232 795.00048828 2072.85107422 C792.24830063 2074.75117324 789.51137847 2076.67154797 786.77734375 2078.59765625 C739.77593898 2111.62855018 690.96850767 2141.78306847 640.25 2168.75 C639.37263184 2169.21760742 638.49526367 2169.68521484 637.59130859 2170.16699219 C625.26116874 2176.72062178 612.80713587 2183.03048003 600.32965088 2189.29779053 C598.67990522 2190.12668361 597.03075347 2190.95676004 595.38226318 2191.78814697 C587.0700408 2195.97651569 578.73416021 2200.07120657 570.21484375 2203.82421875 C569.20255455 2204.27206474 569.20255455 2204.27206474 568.16981506 2204.72895813 C563.50233787 2206.75 563.50233787 2206.75 561.25 2206.75 C560.91626625 2205.44931831 560.91626625 2205.44931831 560.57579041 2204.12236023 C558.44446488 2195.81606174 556.31280771 2187.50984844 554.18080807 2179.20372295 C553.08561628 2174.93688509 551.99053822 2170.67001811 550.89575195 2166.40307617 C545.70657565 2146.17857236 540.50491726 2125.95754395 535.25 2105.75 C534.60103965 2139.95187467 537.80633568 2173.35258768 546.6484375 2206.52734375 C547.57904309 2211.51273083 547.57904309 2211.51273083 546.25 2214.75 C543.52311557 2216.32748506 541.05725399 2217.49743942 538.15234375 2218.6484375 C537.30856171 2219.00005951 536.46477966 2219.35168152 535.59542847 2219.71395874 C532.80069181 2220.8713698 529.99495972 2221.998837 527.1875 2223.125 C525.22643655 2223.92650393 523.26574755 2224.72892461 521.30541992 2225.53222656 C502.11065746 2233.35630468 482.74155953 2240.70179664 463.25 2247.75 C462.43291565 2248.04628296 461.6158313 2248.34256592 460.77398682 2248.64782715 C392.85822948 2273.25597937 323.15563319 2292.03633564 252.25 2305.75 C251.4264502 2305.91006531 250.60290039 2306.07013062 249.75439453 2306.23504639 C192.54575369 2317.33452274 134.41278047 2324.26986961 76.25 2327.75 C75.38870483 2327.80220703 74.52740967 2327.85441406 73.64001465 2327.90820312 C-19.45748243 2333.47678005 -113.25045519 2329.16859411 -466.78515625 2251.890625 C-467.66626572 2251.5870961 -468.54737518 2251.2835672 -469.45518494 2250.97084045 C-470.25896072 2250.69203537 -471.06273651 2250.41323029 -471.89086914 2250.12597656 C-472.59168106 2249.88316956 -473.29249298 2249.64036255 -474.01454163 2249.39019775 C-475.75 2248.75 -475.75 2248.75 -477.75 2247.75 C-476.61083556 2241.14395403 -475.31533638 2234.57685989 -473.9453125 2228.015625 C-469.64776194 2207.34014296 -465.8323707 2186.78411001 -463.75 2165.75 C-463.6454248 2164.72938477 -463.54084961 2163.70876953 -463.43310547 2162.65722656 C-462.3892505 2150.71552568 -462.6583111 2138.72598124 -462.75 2126.75 C-462.96582733 2127.60300186 -463.18165466 2128.45600372 -463.40402222 2129.33485413 C-464.25733612 2132.70716487 -465.11072627 2136.07945629 -465.96416855 2139.45173454 C-466.3588157 2141.01117345 -466.75344094 2142.57061791 -467.14804459 2144.13006783 C-469.51466403 2153.48257134 -471.88361699 2162.83447522 -474.2578125 2172.18505859 C-475.12768681 2175.61163267 -475.99745686 2179.0382332 -476.8671875 2182.46484375 C-477.08192467 2183.31072556 -477.29666183 2184.15660736 -477.51790619 2185.02812195 C-479.82882169 2194.13348882 -482.13024696 2203.24080726 -484.38601685 2212.36003113 C-485.30089215 2216.05835779 -486.22381858 2219.75464516 -487.14801025 2223.45065308 C-487.54794179 2225.06126653 -487.9432818 2226.67302735 -488.33392334 2228.28591919 C-488.8572853 2230.44617739 -489.39538205 2232.6021998 -489.9375 2234.7578125 C-490.21980469 2235.90910645 -490.50210938 2237.06040039 -490.79296875 2238.24658203 C-491.10878906 2239.07270996 -491.42460938 2239.89883789 -491.75 2240.75 C-496.00852316 2242.16950772 -498.84342492 2240.40090345 -502.80859375 2238.76953125 C-503.61594971 2238.44574493 -504.42330566 2238.12195862 -505.25512695 2237.7883606 C-507.90333231 2236.72287765 -510.54549877 2235.64326612 -513.1875 2234.5625 C-515.02270195 2233.81868237 -516.85807097 2233.07527684 -518.69360352 2232.33227539 C-533.46500397 2226.33688936 -548.17154193 2220.20215915 -562.75 2213.75 C-563.36178101 2213.47945801 -563.97356201 2213.20891602 -564.60388184 2212.93017578 C-581.93417578 2205.25740753 -599.08140799 2197.22712062 -616.125 2188.9375 C-616.92072418 2188.55125458 -617.71644836 2188.16500916 -618.5362854 2187.76705933 C-630.40233746 2181.9981237 -642.10606255 2175.9539827 -653.75 2169.75 C-654.85827148 2169.16178467 -655.96654297 2168.57356934 -657.10839844 2167.9675293 C-671.20700415 2160.46178823 -685.07315501 2152.60343631 -698.82275391 2144.47753906 C-701.70430849 2142.77696523 -704.59156089 2141.0864835 -707.48046875 2139.3984375 C-719.39360941 2132.4215383 -731.12796833 2125.20143082 -742.75 2117.75 C-741.50799365 2108.64255947 -740.07163126 2099.59808629 -738.38671875 2090.5625 C-738.15883163 2089.33101227 -737.93094452 2088.09952454 -737.69615173 2086.83071899 C-736.94813791 2082.80288463 -736.19418826 2078.77621132 -735.4375 2074.75 C-735.30681877 2074.05384331 -735.17613754 2073.35768661 -735.04149628 2072.64043427 C-717.57249027 1979.63604137 -698.23128817 1885.04534175 -651.75 1770.75 C-651.29270508 1769.73228516 -650.83541016 1768.71457031 -650.36425781 1767.66601562 C-635.88490336 1735.70510795 -614.26774877 1692.87221106 -579.296875 1679.421875 C-576.96030451 1678.63603291 -574.62038228 1677.86009188 -572.27734375 1677.09375 C-567.85788092 1675.41014511 -564.02692582 1673.09627871 -560.04125977 1670.6027832 C-550.22785368 1664.48993906 -539.95012173 1659.18216163 -529.75 1653.75 C-528.81655762 1653.25097168 -527.88311523 1652.75194336 -526.92138672 1652.23779297 C-470.33921724 1622.05458111 -410.96040607 1597.80163674 -349.75 1578.75 C-347.98941548 1578.19714883 -346.22898578 1577.64380428 -344.46875 1577.08984375 C-340.89844941 1575.96804842 -337.32557973 1574.85487634 -333.75 1573.75 C-335.10931641 1573.43869141 -335.10931641 1573.43869141 -336.49609375 1573.12109375 C-347.92652028 1570.23022397 -355.68498376 1565.31300412 -362.75 1555.75 C-363.08 1555.09 -363.41 1554.43 -363.75 1553.75 C-365.58107525 1553.07909403 -367.44162624 1552.48775699 -369.3125 1551.9375 C-379.0427017 1548.78238134 -385.71369391 1544.16470101 -391.75 1535.75 C-392.47265625 1533.47265625 -392.47265625 1533.47265625 -392.75 1531.75 C-394.4825 1531.37875 -394.4825 1531.37875 -396.25 1531 C-404.34815333 1528.93268973 -411.14248214 1525.02011297 -416.75 1518.75 C-417.54472388 1517.23090485 -418.29527337 1515.68788083 -419 1514.125 C-421.62457712 1508.86694889 -425.42941145 1507.83888149 -430.75 1505.90234375 C-439.57470077 1502.51264749 -444.5665315 1496.07771698 -448.75 1487.75 C-448.75 1486.76 -448.75 1485.77 -448.75 1484.75 C-449.53375 1484.70875 -450.3175 1484.6675 -451.125 1484.625 C-459.86477345 1482.51539951 -466.63771564 1477.01839369 -471.75 1469.75 C-475.75 1463.00816024 -475.75 1463.00816024 -475.75 1459.75 C-476.41 1459.688125 -477.07 1459.62625 -477.75 1459.5625 C-487.95762413 1456.79793513 -494.61474542 1448.5446882 -499.75 1439.75 C-500.03230469 1438.88890625 -500.31460938 1438.0278125 -500.60546875 1437.140625 C-502.12677989 1433.96300582 -503.69987054 1433.43278822 -506.875 1432 C-515.72828783 1427.45152185 -520.73894329 1421.1938178 -524.15625 1411.9140625 C-524.75 1409.75 -524.75 1409.75 -524.75 1406.75 C-525.41 1406.70875 -526.07 1406.6675 -526.75 1406.625 C-533.84045469 1404.55695072 -539.58873768 1398.69838751 -543.75 1392.75 C-545.27176005 1389.76082847 -546.54895545 1387.07483205 -547.0546875 1383.7421875 C-547.58026544 1380.37079729 -547.94196626 1378.40797033 -550.6640625 1376.19140625 C-552.24404837 1375.21646514 -553.83295183 1374.25585333 -555.4296875 1373.30859375 C-561.18810607 1369.44056512 -564.53182246 1363.18271487 -566.75 1356.75 C-566.98452292 1355.08407859 -567.21334 1353.41734742 -567.4375 1351.75 C-568.3706488 1346.55886972 -570.58016083 1344.6120027 -574.6484375 1341.4609375 C-580.11438546 1337.010965 -583.41445221 1331.67056584 -584.75 1324.75 C-584.77835938 1324.01523438 -584.80671875 1323.28046875 -584.8359375 1322.5234375 C-584.94693724 1317.94439818 -584.94693724 1317.94439818 -587.19140625 1314.125 C-588.41531815 1313.15221473 -589.65428635 1312.19812599 -590.90625 1311.26171875 C-596.75963998 1306.46243502 -599.23243749 1298.93610483 -600.75 1291.75 C-600.85205158 1290.18861082 -600.93618698 1288.62591888 -601 1287.0625 C-601.38826966 1282.35369773 -603.54381691 1280.53502004 -606.96875 1277.49609375 C-612.79350985 1271.78629627 -614.6777614 1263.16959278 -614.9375 1255.3125 C-615.3422354 1249.81109662 -617.19574194 1247.58875667 -620.96484375 1243.75 C-626.09832528 1237.99870341 -626.88922792 1231.53352775 -627.125 1224.0625 C-627.36743526 1218.167184 -627.93844647 1215.36658929 -632.1875 1211.33203125 C-638.13932915 1205.30580423 -638.52632983 1196.75739196 -638.75 1188.75 C-638.68683594 1187.89277344 -638.62367188 1187.03554687 -638.55859375 1186.15234375 C-638.81045727 1182.99119963 -639.95336348 1181.88997363 -642.0625 1179.5625 C-647.7196768 1172.59982086 -648.93261572 1166.62342915 -648.5 1157.75 C-648.31548417 1151.22097837 -649.81853198 1147.94562517 -654.0234375 1143.03125 C-658.16914021 1137.55366995 -657.83233747 1132.37277052 -657.5 1125.875 C-657.31763405 1119.30258391 -657.55036714 1115.39189666 -662.21484375 1110.4296875 C-667.23437912 1104.93757501 -666.83296299 1098.0958597 -666.625 1091.125 C-666.46006463 1085.44294604 -666.4529425 1081.62222242 -670.4375 1077.33203125 C-675.42679983 1071.31814306 -675.33959979 1062.13133588 -674.75 1054.75 C-674.54503906 1053.863125 -674.34007812 1052.97625 -674.12890625 1052.0625 C-673.94134766 1050.9178125 -673.94134766 1050.9178125 -673.75 1049.75 C-675.05368347 1048.06003995 -676.39444707 1046.39864545 -677.75 1044.75 C-682.13676074 1037.6750559 -682.08887814 1030.74996308 -681.51464844 1022.70263672 C-681.249684 1017.11879915 -682.31152703 1014.13568653 -685.50683594 1009.5703125 C-688.83340961 1004.69935153 -689.00083901 999.87157596 -688.9375 994.125 C-688.93105469 992.83335937 -688.92460938 991.54171875 -688.91796875 990.2109375 C-688.75 986.75 -688.75 986.75 -688.0625 984.5859375 C-687.57589506 981.72713349 -688.9712765 980.34025376 -690.5625 978 C-695.20919314 970.64722802 -696.93278742 963.22121192 -695.34375 954.52734375 C-694.53864548 950.0141136 -694.4602917 947.57559486 -697.0625 943.6875 C-697.5265625 943.03523438 -697.990625 942.38296875 -698.46875 941.7109375 C-702.81387094 935.06078289 -702.50598189 926.30803364 -700.9375 918.8125 C-700.23814262 914.16876697 -702.29390075 910.91629951 -704.5234375 906.94921875 C-706.47976944 903.44152805 -706.84367923 900.89525432 -706.671875 896.9609375 C-706.64609375 896.01863281 -706.6203125 895.07632813 -706.59375 894.10546875 C-706.53196891 892.1413449 -706.45422195 890.17764874 -706.359375 888.21484375 C-706.22339913 881.9514553 -707.11314137 877.97490368 -710.56738281 872.70947266 C-712.94067976 868.7771685 -712.88570072 865.01570569 -712.875 860.5 C-712.87242187 859.34757812 -712.86984375 858.19515625 -712.8671875 857.0078125 C-712.77164767 854.35180519 -712.49904355 851.97206338 -712 849.375 C-711.72525417 845.3911855 -712.55351833 843.92350658 -714.6875 840.6484375 C-719.2002866 832.58514968 -717.87061527 822.74966813 -715.9375 814.125 C-715.70418133 809.92526395 -716.94273316 807.52247071 -718.7578125 803.8046875 C-722.09717965 796.88930513 -721.35354896 789.25795332 -719 782.1875 C-717.77919249 778.15205295 -717.5360846 776.08602316 -719.5 772.3125 C-719.88671875 771.71566406 -720.2734375 771.11882813 -720.671875 770.50390625 C-723.70999248 765.5614615 -723.20506871 759.33170219 -722.75 753.75 C-722.20609466 751.71819978 -721.62220548 749.69670519 -721 747.6875 C-719.44879301 742.11173292 -720.27235365 739.58614483 -722.7421875 734.515625 C-725.69289121 726.41834506 -724.3725742 717.46609057 -721.22265625 709.671875 C-720.37625993 706.23032961 -722.14571353 703.72938916 -723.75 700.75 C-726.41297692 691.79271398 -724.8804002 682.01080041 -720.75 673.75 C-721.47481688 672.00385025 -722.20507171 670.259441 -722.98046875 668.53515625 C-726.29046724 660.85663184 -725.09712614 652.77628598 -722.50390625 645.109375 C-720.7427887 639.7043507 -720.7427887 639.7043507 -722.1875 634.3125 C-724.83917378 627.81835448 -725.19905448 619.63661123 -722.7421875 613.046875 C-722.35289062 612.24765625 -721.96359375 611.4484375 -721.5625 610.625 C-719.11044728 605.42186374 -720.30554459 601.97219993 -721.9296875 596.62890625 C-724.4713952 587.70872255 -721.74800703 579.79258917 -718.4375 571.4375 C-717.57012212 568.046841 -718.4618331 566.95201488 -719.75 563.75 C-721.3879615 554.35327351 -721.14527221 545.84290831 -715.75 537.75 C-716.04491987 534.56486542 -716.55675732 531.54444212 -717.3125 528.4375 C-718.83612157 519.07811037 -717.26155398 510.94142412 -712.5625 502.65625 C-711.3740985 499.86807725 -712.42769402 497.82137403 -713.22265625 495.015625 C-715.00180123 487.37189103 -713.68229967 479.92991071 -710.75 472.75 C-710.20988281 471.98429687 -709.66976562 471.21859375 -709.11328125 470.4296875 C-707.30399982 466.87333489 -707.77440995 464.00728229 -708.25 460.1875 C-709.19243032 449.91124921 -707.45726267 441.45996933 -701.640625 432.78515625 C-700.44962387 430.06361419 -701.01915754 428.59120413 -701.75 425.75 C-702.5402476 417.43296791 -701.63402989 408.78933624 -696.37109375 401.9609375 C-695.91863281 401.43757813 -695.46617187 400.91421875 -695 400.375 C-691.76534844 396.28498465 -692.50652935 391.95301126 -692.68359375 386.9609375 C-692.86120233 378.37304044 -690.02290928 372.43170184 -684.75 365.75 C-684.193125 365.2653125 -683.63625 364.780625 -683.0625 364.28125 C-681.2448856 362.16069987 -681.50872013 360.87210526 -681.6875 358.125 C-681.94101931 347.83509855 -678.89398738 340.00127622 -672.31640625 332.0078125 C-671 330.625 -671 330.625 -668.75 328.75 C-668.09 328.75 -667.43 328.75 -666.75 328.75 C-666.811875 327.63625 -666.87375 326.5225 -666.9375 325.375 C-666.88557575 315.56131717 -662.81242488 306.77023801 -655.875 299.890625 C-653.59078672 297.89193838 -651.46991187 296.10995593 -648.75 294.75 C-648.28961976 292.97382334 -647.90763599 291.17711948 -647.5625 289.375 C-645.02620421 278.81547149 -640.00935545 271.83179261 -630.88671875 265.9921875 C-629.53077185 265.20390393 -628.15284938 264.45142469 -626.75 263.75 C-626.05712962 261.66964662 -626.05712962 261.66964662 -625.5 259.1875 C-622.64859671 249.22886763 -615.23900427 241.90109504 -606.375 236.8125 C-603.75 235.75 -603.75 235.75 -601.75 235.75 C-601.70875 234.945625 -601.6675 234.14125 -601.625 233.3125 C-599.59501184 225.04754823 -593.61871909 218.54444045 -586.75 213.75 C-579.3535503 209.75 -579.3535503 209.75 -575.75 209.75 C-575.54375 208.925 -575.3375 208.1 -575.125 207.25 C-571.70337998 198.54042177 -564.89232619 191.75718053 -556.5 187.6484375 C-553.49221825 186.46522924 -550.99529503 185.75 -547.75 185.75 C-547.564375 184.925 -547.37875 184.1 -547.1875 183.25 C-543.95583899 175.38160799 -537.30841971 169.48728518 -529.75 165.75 C-527.86508389 165.26762926 -525.96805446 164.83050445 -524.0625 164.4375 C-520.87307464 163.68990931 -519.2254818 163.28613551 -517.03515625 160.81640625 C-516.08575301 159.25686021 -515.15892422 157.68337149 -514.25390625 156.09765625 C-509.49643756 148.67106226 -501.08275823 144.78268799 -492.75 142.75 C-489.921875 142.65234375 -489.921875 142.65234375 -487.75 142.75 C-487.564375 142.069375 -487.37875 141.38875 -487.1875 140.6875 C-483.08036797 132.29466498 -475.20309365 128.03191631 -466.75 124.75 C-465.00845656 124.42925531 -463.25753114 124.15414482 -461.5 123.9375 C-457.20537396 123.27156115 -455.68705852 121.94409483 -453 118.5625 C-447.00717493 111.05633527 -438.0313638 106.9975484 -428.625 105.625 C-427.35269531 105.52832031 -427.35269531 105.52832031 -426.0546875 105.4296875 C-422.78233843 104.46462184 -421.7875915 102.42898307 -419.75 99.75 C-417.12890625 97.80078125 -417.12890625 97.80078125 -414.3125 96.0625 C-413.38566406 95.48113281 -412.45882813 94.89976562 -411.50390625 94.30078125 C-406.70135246 91.59636443 -402.85948593 90.56405038 -397.375 90.0625 C-391.58231331 89.24333219 -389.18710488 87.94317652 -385.47265625 83.5625 C-379.6669152 77.4539652 -370.83776679 75.56643072 -362.75 74.75 C-361.63625 74.811875 -360.5225 74.87375 -359.375 74.9375 C-355.49313784 74.66022413 -354.32144705 72.57231993 -351.75 69.75 C-344.77462306 63.58362297 -337.22489593 61.76360135 -328.0625 61.4375 C-322.60967627 61.13137656 -320.17919298 60.19258527 -316.4296875 56.3125 C-310.30827306 50.61816098 -301.89315036 49.74669918 -293.9375 49.5625 C-287.99440492 49.18026774 -285.22796822 48.1759168 -280.84765625 44.31640625 C-274.35814406 39.47042042 -266.29192955 38.53826133 -258.4375 38.875 C-252.51492884 39.07832193 -249.88963761 38.19641175 -245.53125 34.28125 C-240.15749394 29.66170532 -232.60738007 28.82476894 -225.75 28.75 C-224.22543349 28.9989612 -222.70416233 29.26920816 -221.1875 29.5625 C-216.25630197 30.26079902 -214.01520636 28.16766563 -210.16796875 25.3203125 C-202.54160124 20.36748578 -193.48648013 20.39890921 -184.71289062 20.94775391 C-179.42264286 21.17004366 -176.90813365 19.89780061 -172.75 16.75 C-164.61156129 13.12690768 -155.71117404 12.65685996 -147.0625 14.5625 C-143.3690173 14.77156506 -142.79200269 14.35289459 -139.8125 12.4375 C-130.88765767 6.97580162 -119.99872292 7.16048171 -110.140625 9.4921875 C-106.6933713 9.86395015 -104.64343835 8.74480847 -101.796875 6.890625 C-96.53871093 3.96050304 -91.1685106 3.47554334 -85.25 3.5 C-84.0021875 3.49484375 -82.754375 3.4896875 -81.46875 3.484375 C-77.75 3.75 -77.75 3.75 -74.0234375 4.875 C-70.93796037 6.00102211 -70.93796037 6.00102211 -68.6328125 5.140625 C-67.76269531 4.57601563 -67.76269531 4.57601563 -66.875 4 C-58.3901113 -0.78593148 -50.2682873 -0.648656 -40.75 0.75 C-39.533125 1.183125 -38.31625 1.61625 -37.0625 2.0625 C-32.67349537 2.97342549 -30.24448499 1.67687861 -26.27734375 -0.20703125 C-18.06584888 -3.59570069 -8.36439526 -2.36672695 0 0 Z " fill="#301B16" transform="translate(1384.75,424.25)"/>
<path d="M0 0 C0.33 0 0.66 0 1 0 C1.07476563 0.73605469 1.14953125 1.47210937 1.2265625 2.23046875 C1.98459969 8.78991937 1.98459969 8.78991937 5.4375 14.1875 C10.37871193 16.70144993 14.55755747 16.77403627 20 16 C23.5563993 14.68796267 23.5563993 14.68796267 26 13 C26.09796875 13.59167969 26.1959375 14.18335938 26.296875 14.79296875 C27.25488438 19.85555282 28.24624526 23.24624526 32 27 C36.25040289 29.83360193 40.01153346 29.41305774 45 29 C47.97980201 28.14939987 47.97980201 28.14939987 50 27 C49.91298828 27.8353125 49.91298828 27.8353125 49.82421875 28.6875 C49.49189908 34.3084499 50.44002343 37.67225801 53.515625 42.37109375 C55.81077231 44.88971592 57.86835449 45.88428581 61.25390625 46.23046875 C62.39666016 46.20919922 62.39666016 46.20919922 63.5625 46.1875 C64.70912109 46.17783203 64.70912109 46.17783203 65.87890625 46.16796875 C68.18897716 46.07053505 68.18897716 46.07053505 71 45 C70.835 45.495 70.67 45.99 70.5 46.5 C69.43608828 51.81955861 69.2263817 55.53565107 71.75 60.3125 C74.54642003 63.65266837 76.42778095 65.7123454 80.796875 66.51171875 C81.77140625 66.56972656 82.7459375 66.62773438 83.75 66.6875 C84.73484375 66.75324219 85.7196875 66.81898438 86.734375 66.88671875 C87.48203125 66.92410156 88.2296875 66.96148438 89 67 C88.649375 67.804375 88.29875 68.60875 87.9375 69.4375 C86.75980962 73.91272344 86.85230379 77.52481046 88 82 C90.21633327 85.5919884 92.15772962 87.38110489 96 89 C98.35564596 89.44811137 98.35564596 89.44811137 100.75 89.625 C101.54921875 89.69976563 102.3484375 89.77453125 103.171875 89.8515625 C104.07679688 89.92503906 104.07679688 89.92503906 105 90 C104.505 90.598125 104.01 91.19625 103.5 91.8125 C101.28532297 96.51868869 101.31731869 100.88364116 102 106 C103.6049064 109.26713088 104.86233789 111.14675342 107.75 113.3125 C111.13291951 114.34616985 114.48115657 114.64811566 118 115 C117.34 115.763125 116.68 116.52625 116 117.3125 C112.98142302 121.8511461 113.25826803 126.76103 114 132 C115.96889512 136.70822746 118.25328678 138.32846438 122.75 140.375 C124.1597736 140.93436178 125.57444734 141.48217104 127 142 C126.0261982 143.98033643 125.06919651 145.89236099 123.875 147.75 C122.54687683 151.16517387 122.43501969 154.42408806 123 158 C126.16391482 163.98883876 129.7343576 166.73740691 136 169 C135.6390625 169.47308594 135.278125 169.94617187 134.90625 170.43359375 C131.74980776 174.93152394 130.23403973 178.34702904 130.578125 183.890625 C131.48549363 188.42746813 133.79109715 191.15376801 137.5 193.75 C138.325 194.1625 139.15 194.575 140 195 C140.763125 195.391875 141.52625 195.78375 142.3125 196.1875 C143.1478125 196.5896875 143.1478125 196.5896875 144 197 C143.21625 197.7425 142.4325 198.485 141.625 199.25 C138.21914825 202.81803516 137.14223944 204.46381402 136.6875 209.375 C137.03662713 213.4248747 137.74902533 215.623538 140 219 C143.15450311 221.41621515 146.39539931 223.33633814 150 225 C148.576875 226.11375 148.576875 226.11375 147.125 227.25 C143.36599504 230.42387683 142.15029634 232.37679948 141.6875 237.375 C142.13798578 242.60063503 143.5793308 245.68861304 147.4375 249.25 C149.58530854 250.71679608 151.62813052 251.94583579 154 253 C152.576875 254.11375 152.576875 254.11375 151.125 255.25 C147.1642314 258.6035753 146.14465143 260.5293771 145.625 265.8125 C145.76617537 270.54187478 147.17631131 273.21031255 150 277 C153.08380786 278.96183059 153.08380786 278.96183059 156 280 C156 280.66 156 281.32 156 282 C155.21625 282.61875 154.4325 283.2375 153.625 283.875 C150.44025902 286.45312365 149.2400813 288.30826434 148.6640625 292.3671875 C148.5754028 298.0591402 148.89294519 301.68232699 153 306 C155.31045252 307.30117562 157.47473206 308.12586879 160 309 C159.2575 309.556875 158.515 310.11375 157.75 310.6875 C152.7146708 314.69803174 152.7146708 314.69803174 150.68359375 320.58984375 C150.58383222 325.54466642 150.78345234 329.48802399 153 334 C155.28746533 335.47578409 157.40402647 336.13467549 160 337 C160 337.66 160 338.32 160 339 C159.05125 339.61875 158.1025 340.2375 157.125 340.875 C153.99730006 343.00183596 153.27593268 343.63177961 152 347 C151.42921643 351.5588558 151.44201456 355.68873423 153.25 359.9375 C155.02661843 362.03137172 156.70857112 363.4962498 159 365 C159.99 365.66 160.98 366.32 162 367 C160.27473958 367.91145833 158.54947917 368.82291667 156.82421875 369.734375 C154.59555847 371.28059755 153.38214736 372.66034091 152 375 C151.12433489 380.22243514 151.34269388 384.70886299 153.75 389.4375 C155.75859511 391.72506666 157.7690802 393.92843161 160 396 C159.071875 396.556875 158.14375 397.11375 157.1875 397.6875 C153.89813 400.07390568 152.49423504 401.26441241 151 405 C150.28937806 409.73747957 150.52910599 413.05821199 152.6875 417.375 C154.96951629 419.96539687 157.01158368 421.33976871 160 423 C160 423.66 160 424.32 160 425 C159.0925 425.391875 158.185 425.78375 157.25 426.1875 C153.63470868 428.20372016 152.00425792 429.37691838 150 433 C149.31845294 437.64830413 149.33362059 441.60666124 151.375 445.875 C151.91125 446.57625 152.4475 447.2775 153 448 C153.68407522 449.32448606 154.35364386 450.65670332 155 452 C154.57847656 452.48210937 154.15695312 452.96421875 153.72265625 453.4609375 C152.90087891 454.40839844 152.90087891 454.40839844 152.0625 455.375 C151.51722656 456.00148438 150.97195313 456.62796875 150.41015625 457.2734375 C146.88787878 461.58603207 147.47391679 466.67904413 148 472 C149.8825512 476.21691469 151.33678545 477.61208206 155.3125 479.9375 C160.44957623 481.41767451 163.94595052 480.9803418 168.75 478.6875 C172.59240516 475.80569613 174.61380706 472.58509973 176 468 C176.67269531 461.94574225 175.31949809 458.88161484 172 454 C171.34 453.67 170.68 453.34 170 453 C170.33 452.01 170.66 451.02 171 450 C173 449 175 448 177 447 C180.56876945 443.06204751 181.34166219 439.36034622 181.29296875 434.0625 C180.81994104 430.73238495 179.04686932 428.58868767 177 426 C176.34 425.01 175.68 424.02 175 423 C175.60328125 422.85304688 176.2065625 422.70609375 176.828125 422.5546875 C181.05019004 421.36978537 183.49214603 420.55863937 186.5 417.25 C188.90492018 412.03933962 189.63070434 408.72010274 187.625 403.25 C187.08875 402.1775 186.5525 401.105 186 400 C185.67 399.01 185.34 398.02 185 397 C185.67546875 396.8040625 186.3509375 396.608125 187.046875 396.40625 C193.47118434 394.26363847 193.47118434 394.26363847 197.625 389.1875 C200.01557579 383.1095738 199.34285303 378.00356088 197 372 C198.03060547 371.69255859 198.03060547 371.69255859 199.08203125 371.37890625 C199.98308594 371.10949219 200.88414063 370.84007812 201.8125 370.5625 C203.15248047 370.16224609 203.15248047 370.16224609 204.51953125 369.75390625 C206.35473055 369.19612127 208.18033726 368.60655425 210 368 C211.16953416 365.57616923 211.16953416 365.57616923 212 363 C212.33 362.34 212.66 361.68 213 361 C213.15815526 356.80888563 212.88607049 353.08576947 212 349 C231.99796929 348.29047941 254.48935134 351.08891773 269.75 365.25 C286.34798892 383.01961167 287.8399178 408.48720073 287.17041016 431.47802734 C284.90687981 478.25981648 268.72418788 524.86057211 247 566 C246.44989258 567.0523584 246.44989258 567.0523584 245.88867188 568.12597656 C232.25072878 594.05191406 213.24106615 626.60826109 183.6875 635.875 C171.21997045 639.66353381 156.22970729 641.60186257 144 636 C140.56974149 634.13799503 137.26086793 632.14384721 134 630 C133.86722656 631.18078125 133.73445313 632.3615625 133.59765625 633.578125 C128.00749346 677.94943453 107.86314575 723.43583017 88 763 C87.51031738 763.97662598 87.02063477 764.95325195 86.51611328 765.95947266 C66.60279832 805.42499729 42.4159458 843.50539998 13.52734375 877.0390625 C11.22767272 879.73326751 9.01533638 882.47667481 6.8125 885.25 C-3.28996583 897.607322 -14.74147663 908.83167929 -26 920.125 C-26.4884137 920.61609253 -26.97682739 921.10718506 -27.4800415 921.61315918 C-33.14499182 927.30171445 -38.8998528 932.78260688 -45 938 C-46.60768373 939.45445517 -48.21239715 940.91220895 -49.8125 942.375 C-54.07610017 946.21806298 -58.44552273 949.89322734 -62.91015625 953.5 C-65.15960665 955.32003572 -67.39473792 957.15218882 -69.62109375 959 C-79.44109595 967.1184126 -89.59714761 974.64823887 -100 982 C-101.60421662 983.13795041 -103.20838313 984.27597148 -104.8125 985.4140625 C-115.88534523 993.25689682 -115.88534523 993.25689682 -120 996 C-119.38402511 1001.82857957 -118.32065582 1007.33942761 -116.8125 1013 C-116.48258057 1014.24112549 -116.48258057 1014.24112549 -116.14599609 1015.50732422 C-114.13476041 1022.86024401 -111.63999967 1029.946094 -108.79589844 1037.01416016 C-107.98467886 1039.03822766 -107.19867272 1041.0709562 -106.4140625 1043.10546875 C-98.25144954 1063.95332205 -87.20429275 1082.52899688 -72.75 1099.625 C-72.29125488 1100.16874268 -71.83250977 1100.71248535 -71.35986328 1101.27270508 C-69.94840961 1102.89284546 -68.48372034 1104.44594103 -67 1106 C-66.1958667 1106.9271582 -66.1958667 1106.9271582 -65.37548828 1107.87304688 C-59.35755413 1114.10239142 -52.66763346 1114.49624847 -44.375 1115.25 C-42.96611628 1115.40193483 -41.55758487 1115.55717009 -40.14941406 1115.71557617 C-37.35637115 1116.02681782 -34.56252057 1116.3246497 -31.76660156 1116.60888672 C-27.08192624 1117.09533019 -22.41585757 1117.6722646 -17.75 1118.3125 C-16.92459717 1118.42529297 -16.09919434 1118.53808594 -15.2487793 1118.65429688 C8.63089012 1122.00582942 32.48005007 1125.82558366 56.0625 1130.875 C56.76903717 1131.02602173 57.47557434 1131.17704346 58.20352173 1131.3326416 C69.54733212 1133.77366606 69.54733212 1133.77366606 72 1135 C70.04139107 1153.27175961 67.45270111 1171.50010561 64.14257812 1189.5769043 C63.39654028 1193.67263209 62.71101002 1197.77368863 62.06640625 1201.88671875 C61.81697266 1203.47782471 61.81697266 1203.47782471 61.5625 1205.10107422 C61.24506685 1207.13990022 60.93088068 1209.17923649 60.62109375 1211.21923828 C59.62988174 1217.57706531 58.44098791 1223.87625506 57.15625 1230.1796875 C55.59419522 1237.85792197 54.16049071 1245.5515567 52.80859375 1253.26953125 C52.61990219 1254.34656815 52.43121063 1255.42360504 52.23680115 1256.53327942 C51.84221785 1258.78814258 51.44783872 1261.04304148 51.0536499 1263.29797363 C43.95254478 1303.80276164 36.00481676 1344.13890662 26.85693359 1384.23242188 C25.54889256 1389.98333048 24.27515658 1395.74172947 23 1401.5 C22.52351637 1403.64064256 22.04695235 1405.78126722 21.5703125 1407.921875 C20.54583158 1412.53003558 19.52896338 1417.13980542 18.51702881 1421.75073242 C17.81232677 1424.95963031 17.10500119 1428.16794758 16.39746094 1431.3762207 C16.05608978 1432.92722619 15.71587044 1434.47848576 15.37695312 1436.0300293 C13.48005154 1444.71178219 11.42311077 1453.30957238 9.08935547 1461.88671875 C7.7807538 1466.76081864 6.59868912 1471.66487142 5.4140625 1476.5703125 C5.18733856 1477.50738037 4.96061462 1478.44444824 4.72702026 1479.40991211 C3.79248297 1483.27709868 2.85995464 1487.14475202 1.93261719 1491.01367188 C-0.98498358 1503.17102954 -4.13116886 1515.22215228 -7.62329102 1527.22729492 C-8.78754345 1531.23479826 -9.88312675 1535.25597434 -10.94140625 1539.29296875 C-13.77027353 1550.01357579 -16.86484277 1560.65971238 -19.9375 1571.3125 C-20.266362 1572.45282684 -20.595224 1573.59315369 -20.93405151 1574.76803589 C-27.33717635 1596.93697239 -34.01321673 1619.00834462 -41 1641 C-41.27587952 1641.87017761 -41.55175903 1642.74035522 -41.83599854 1643.63690186 C-65.08289319 1716.91920319 -92.79098741 1788.40046802 -126 1857.75 C-126.49137451 1858.77762451 -126.98274902 1859.80524902 -127.48901367 1860.86401367 C-128.45257563 1862.85658769 -129.43951194 1864.83803083 -130.44970703 1866.80737305 C-131.61325589 1869.20355075 -132.58334287 1871.5015104 -133.51513672 1873.98364258 C-137.40573045 1883.61627579 -137.40573045 1883.61627579 -141.76281738 1885.94024658 C-147.06484309 1887.69465352 -152.58916534 1887.87738486 -158.125 1888.1875 C-159.94016575 1888.34104472 -161.75479082 1888.50110234 -163.56884766 1888.66723633 C-167.4039688 1889.00682845 -171.23914483 1889.30456987 -175.08007812 1889.5703125 C-180.96444319 1889.98296082 -186.83200325 1890.52567188 -192.703125 1891.09375 C-215.76303392 1893.29415241 -238.85614495 1894.99548249 -262 1896 C-262.94435913 1896.0427002 -263.88871826 1896.08540039 -264.86169434 1896.12939453 C-283.69637914 1896.96312007 -302.49892956 1897.15836649 -321.34814453 1897.13037109 C-324.4637238 1897.12578418 -327.57924487 1897.12583758 -330.69482422 1897.13037109 C-338.87497078 1897.14182543 -347.05295801 1897.12354207 -355.23265839 1897.03185368 C-359.28430415 1896.99257125 -363.3231408 1897.04669063 -367.37304688 1897.16186523 C-379.29113067 1897.34440351 -379.29113067 1897.34440351 -383.6328125 1893.92871094 C-385.75535859 1890.9827269 -387.11523614 1888.16661293 -388.5 1884.8125 C-389.6154685 1882.50110083 -390.73136124 1880.18990636 -391.84765625 1877.87890625 C-392.37504395 1876.71504395 -392.90243164 1875.55118164 -393.44580078 1874.35205078 C-395.69297532 1869.50541138 -398.3140522 1864.8997057 -400.9375 1860.25 C-427.94132121 1810.77292884 -450.53116077 1759.48033453 -471 1707 C-471.30939514 1706.20736755 -471.61879028 1705.41473511 -471.93756104 1704.5980835 C-483.95718353 1673.74753309 -494.59753072 1642.42739787 -505 1611 C-505.32784485 1610.01022156 -505.6556897 1609.02044312 -505.99346924 1608.00067139 C-520.12070037 1565.27246618 -532.83922941 1521.89460203 -544.0625 1478.3125 C-545.61290592 1472.31499139 -547.17899857 1466.32269727 -548.78515625 1460.33984375 C-551.7256428 1449.32992052 -554.55317497 1438.29083985 -557.375 1427.25 C-557.6651297 1426.11482941 -557.9552594 1424.97965881 -558.25418091 1423.81008911 C-562.22474598 1408.2466874 -566.01532135 1392.67868786 -569.35839844 1376.96728516 C-570.53893591 1371.50752396 -571.80272468 1366.06692475 -573.0625 1360.625 C-573.28413818 1359.66327881 -573.50577637 1358.70155762 -573.73413086 1357.71069336 C-574.83682119 1352.94511185 -575.95302982 1348.18350462 -577.10742188 1343.43017578 C-580.20027172 1330.65645196 -582.99401291 1317.83443623 -585.67727661 1304.96887207 C-588.86240461 1289.70399673 -592.06062956 1274.44569236 -595.5625 1259.25 C-599.06810784 1244.02371979 -602.21757239 1228.72526741 -605.36157227 1213.42089844 C-610.02098994 1190.79171812 -615.01897862 1168.25446036 -621.33789062 1146.02441406 C-621.53962891 1145.31124023 -621.74136719 1144.59806641 -621.94921875 1143.86328125 C-622.12799561 1143.23719971 -622.30677246 1142.61111816 -622.4909668 1141.96606445 C-623.08806481 1139.65986288 -623.55021247 1137.3389457 -624 1135 C-584.78399821 1125.49154634 -545.00230879 1118.82809072 -504.875 1114.625 C-504.05972839 1114.53941833 -503.24445679 1114.45383667 -502.40447998 1114.36566162 C-488.25607742 1112.89744135 -488.25607742 1112.89744135 -482 1113 C-481.76667969 1112.35289063 -481.53335937 1111.70578125 -481.29296875 1111.0390625 C-479.92310632 1107.819265 -478.30904985 1104.83349483 -476.6237793 1101.77099609 C-470.99683707 1091.48933328 -466.67433383 1081.11559082 -463 1070 C-462.77505859 1069.34483398 -462.55011719 1068.68966797 -462.31835938 1068.01464844 C-458.05526504 1055.50227337 -455.83663773 1042.51648367 -453.4296875 1029.55078125 C-452.08722674 1022.33575677 -450.57643162 1015.16742589 -449 1008 C-449.73395996 1007.72325439 -450.46791992 1007.44650879 -451.22412109 1007.16137695 C-453.80028885 1006.08355549 -456.04070985 1004.88024002 -458.4140625 1003.41796875 C-459.24768311 1002.90492188 -460.08130371 1002.391875 -460.94018555 1001.86328125 C-462.2691687 1001.03376953 -462.2691687 1001.03376953 -463.625 1000.1875 C-464.5528833 999.61 -465.4807666 999.0325 -466.43676758 998.4375 C-490.75571199 983.18828348 -514.07945451 966.28934212 -535.89453125 947.6328125 C-538.84420349 945.11661783 -541.85470418 942.68107031 -544.875 940.25 C-548.54861689 937.26219581 -551.95570381 934.17787228 -555.23413086 930.76489258 C-556.92100393 929.07895238 -558.66418931 927.54363077 -560.484375 926.00390625 C-565.56175974 921.59010628 -570.3013768 916.84895726 -575.0456543 912.0847168 C-576.5599258 910.56508332 -578.0794743 909.05087483 -579.59960938 907.53710938 C-584.94426729 902.19605085 -590.08792587 896.74468632 -595 891 C-596.4132355 889.4551874 -597.82940409 887.91304675 -599.25 886.375 C-604.28449066 880.78866803 -608.87965472 874.90832432 -613.47265625 868.95996094 C-615.04684179 866.93989036 -616.64554157 864.94140292 -618.25 862.9453125 C-667.45142509 801.37279878 -698.49452412 728.44108114 -717.75 652.625 C-718.26153386 650.61714039 -718.7732513 648.60932754 -719.28515625 646.6015625 C-720.52555164 641.73491075 -721.76347126 636.86763557 -723 632 C-723.81984375 632.42152344 -724.6396875 632.84304688 -725.484375 633.27734375 C-726.56203125 633.82519531 -727.6396875 634.37304688 -728.75 634.9375 C-730.35101562 635.75541016 -730.35101562 635.75541016 -731.984375 636.58984375 C-744.94095125 642.64855363 -762.19094397 639.39933718 -775.12597656 634.73535156 C-783.82077361 631.32358388 -790.36482884 625.42942942 -797 619 C-797.54205078 618.47986328 -798.08410156 617.95972656 -798.64257812 617.42382812 C-822.28085628 594.35765352 -838.97232417 561.3824103 -851 531 C-851.32742188 530.18192871 -851.65484375 529.36385742 -851.9921875 528.52099609 C-861.88209843 503.60221047 -870.31488275 478.14839844 -874.57568359 451.63232422 C-874.93461054 449.40565542 -875.32722129 447.19008038 -875.73828125 444.97265625 C-878.74794505 426.77135613 -879.12700546 405.15843524 -873.375 387.5 C-872.97522949 386.26854248 -872.97522949 386.26854248 -872.56738281 385.01220703 C-868.4280879 372.83710325 -861.59146182 363.10636661 -850.37109375 356.4375 C-842.96101007 352.81335427 -834.30449415 350 -826 350 C-825.62875 351.2375 -825.2575 352.475 -824.875 353.75 C-823.21415508 358.13494102 -821.30315972 359.93117321 -817 362 C-813.26774656 362.79682803 -813.26774656 362.79682803 -810 363 C-811 365 -812 367 -813 369 C-813.49893401 373.36210879 -814.00145931 377.96102884 -812.0234375 381.98828125 C-807.68117781 387.3561667 -803.63169486 388.23480444 -797 389 C-797.66 389.99 -798.32 390.98 -799 392 C-801.29404986 396.06374547 -801.88409679 399.40810952 -801 404 C-799.58506669 407.98248082 -797.71707975 410.53233929 -794.125 412.875 C-791.06083055 413.978101 -788.2291492 414.61557748 -785 415 C-785.495 415.78375 -785.99 416.5675 -786.5 417.375 C-788.44250123 422.06937797 -788.72579718 425.98465992 -788 431 C-785.64400682 435.98383173 -783.10044691 438.02227569 -778 440 C-775.26427415 440.69907414 -775.26427415 440.69907414 -773 441 C-774 443 -775 445 -776 447 C-776.5649385 452.52987881 -776.35444428 456.38763912 -773 461 C-773 461.66 -773 462.32 -773 463 C-768.44508386 465.20399168 -763.97093824 465.58846263 -759 466 C-759.9590625 467.2375 -759.9590625 467.2375 -760.9375 468.5 C-763.35357347 472.18905842 -764.35539541 475.57821995 -764 480 C-762.77220286 483.83429385 -760.94943426 486.90990881 -758.3125 489.9375 C-754.69478118 491.59969513 -750.94108447 491.7557875 -747 492 C-747.66 492.969375 -748.32 493.93875 -749 494.9375 C-751.46561232 499.26328959 -751.75379816 503.11869731 -751 508 C-749.24437815 512.15805176 -746.91532993 514.76266861 -743 517 C-739.00598075 517.62569492 -735.03816018 517.87119106 -731 518 C-731 518.66 -731 519.32 -731 520 C-732.65002828 521.35386936 -734.3174387 522.68678142 -736 524 C-738.09948946 528.19897892 -737.54696419 533.43998333 -737 538 C-735.38043957 541.23307772 -733.2763371 543.36183145 -730 545 C-725.14207935 545.40678241 -720.56847965 545.62085653 -716 543.8125 C-712.61329305 540.74329682 -711.26990325 538.04105539 -710.125 533.625 C-709.9740265 529.24676847 -710.87591741 526.80869981 -713 523 C-716.09190921 519.79766546 -719.75446913 519.06138272 -724 518 C-723.2575 517.505 -722.515 517.01 -721.75 516.5 C-717.9021276 513.00193418 -715.30602367 509.20424781 -714.80078125 503.9140625 C-715.15981091 498.5593916 -717.16434312 495.66130884 -721 492 C-723.6514482 490.60180488 -723.6514482 490.60180488 -726 490 C-726 489.34 -726 488.68 -726 488 C-725.21625 487.38125 -724.4325 486.7625 -723.625 486.125 C-720.45273026 483.55697212 -719.29238597 481.67840795 -718.59375 477.66796875 C-718.41363228 472.9023542 -718.60407218 469.7809642 -721.6875 466 C-724.19792119 463.46572683 -726.49787074 461.92703422 -730 461 C-728.88625 460.1646875 -728.88625 460.1646875 -727.75 459.3125 C-722.83753337 455.36848589 -722.83753337 455.36848589 -720.61328125 449.66796875 C-720.42661724 445.37469648 -720.76827662 442.50979143 -722.5625 438.5625 C-725.57106431 435.39965034 -727.90705438 434.41678887 -732 433 C-731.443125 432.608125 -730.88625 432.21625 -730.3125 431.8125 C-727.10400456 429.2977333 -723.84338943 426.68677886 -722 423 C-721.45682427 418.0490868 -721.47758051 414.10511815 -723.625 409.5625 C-726.21105666 406.77228097 -728.49789695 405.43267852 -732 404 C-731.01 403.34 -730.02 402.68 -729 402 C-724.9307451 399.00294083 -724.9307451 399.00294083 -722 395 C-721.28426376 387.14153418 -721.28426376 387.14153418 -723.75 379.875 C-725.78726541 378.17727882 -727.53770027 376.96733204 -730 376 C-730 375.34 -730 374.68 -730 374 C-729.0925 373.62875 -728.185 373.2575 -727.25 372.875 C-723.33480816 370.61623547 -721.93285026 369.08872169 -720 365 C-719.28219949 360.87432414 -718.98718155 356.91754956 -720.98828125 353.12890625 C-723.26391215 350.30374219 -725.98967092 348.00688606 -729 346 C-728.06027344 345.74476563 -728.06027344 345.74476563 -727.1015625 345.484375 C-726.28429687 345.24203125 -725.46703125 344.9996875 -724.625 344.75 C-723.81289063 344.51796875 -723.00078125 344.2859375 -722.1640625 344.046875 C-719.49116577 342.75384915 -719.01911676 341.7382329 -718 339 C-716.64511828 334.93535485 -716.46237445 331.25014789 -717 327 C-718.9214467 323.42213373 -721.12805023 320.8143462 -724 318 C-723.45730469 317.70867187 -722.91460938 317.41734375 -722.35546875 317.1171875 C-717.62220469 314.40515512 -714.67278556 312.43655307 -713 307 C-712.23312932 302.7466348 -712.16233819 299.46408716 -714.34765625 295.64453125 C-715.82204039 293.67520018 -717.33935098 291.81386366 -719 290 C-718.46890625 289.70867187 -717.9378125 289.41734375 -717.390625 289.1171875 C-712.68110401 286.38429028 -709.38974353 284.078205 -707 279 C-706.12897113 274.47246451 -706.59106816 271.72244625 -708.875 267.6875 C-709.57625 266.800625 -710.2775 265.91375 -711 265 C-711.99 263.515 -711.99 263.515 -713 262 C-712.31292969 261.70867187 -711.62585938 261.41734375 -710.91796875 261.1171875 C-705.21258223 258.55174927 -705.21258223 258.55174927 -700.875 254.1875 C-699.34739619 248.62265756 -698.97475307 244.81126957 -701.875 239.6875 C-702.57625 238.800625 -703.2775 237.91375 -704 237 C-704.66 236.01 -705.32 235.02 -706 234 C-705.40832031 233.85304688 -704.81664062 233.70609375 -704.20703125 233.5546875 C-698.5089427 231.93728553 -695.0363865 230.38713734 -692 225 C-691.1103191 220.11469864 -691.12520214 215.71844679 -693.9375 211.5 C-694.9584375 210.2625 -694.9584375 210.2625 -696 209 C-696.33 208.34 -696.66 207.68 -697 207 C-696.40832031 206.91363281 -695.81664062 206.82726563 -695.20703125 206.73828125 C-689.67794944 205.75513293 -686.59167862 204.60183823 -683 200 C-681.45098925 195.35296775 -680.97146201 190.46579631 -682.89453125 185.85546875 C-683.85391935 184.19094735 -684.91875901 182.5880727 -686 181 C-685.33613281 180.85304688 -684.67226563 180.70609375 -683.98828125 180.5546875 C-677.90427982 179.04755664 -677.90427982 179.04755664 -672.875 175.5 C-670.25248249 170.60463398 -670.22574527 166.44397855 -671 161 C-672.31203733 157.4436007 -672.31203733 157.4436007 -674 155 C-673.33613281 154.91363281 -672.67226562 154.82726562 -671.98828125 154.73828125 C-666.14110314 153.80785437 -662.7860503 152.8852262 -659 148 C-657.72040409 145.44080818 -657.83183464 143.54515972 -657.8125 140.6875 C-657.79832031 139.74261719 -657.78414062 138.79773438 -657.76953125 137.82421875 C-658.01175665 134.85593118 -658.75973393 132.69132835 -660 130 C-659.33613281 129.90203125 -658.67226562 129.8040625 -657.98828125 129.703125 C-651.7616293 128.64868467 -647.62656052 127.5020807 -643.6875 122.25 C-641.94617276 116.55111085 -642.83307861 111.41730346 -645 106 C-644.34773438 105.98582031 -643.69546875 105.97164062 -643.0234375 105.95703125 C-636.62021592 105.6075929 -633.35731923 104.79305116 -629 100 C-626.42257113 95.54807741 -626.36344106 90.75518259 -627.51171875 85.78515625 C-627.67285156 85.19605469 -627.83398438 84.60695313 -628 84 C-627.27554687 84.04640625 -626.55109375 84.0928125 -625.8046875 84.140625 C-621.11487301 84.31571141 -617.81196944 84.37698581 -613.5 82.375 C-610.07662065 79.12278962 -608.17845256 76.42298926 -607.82421875 71.61328125 C-607.81379189 69.39931065 -607.86742249 67.20962522 -608 65 C-607.44183594 65.32355469 -606.88367187 65.64710938 -606.30859375 65.98046875 C-602.32781442 67.73847789 -598.26990582 67.45055824 -594 67 C-590.25919674 65.40816883 -588.00576637 63.53396932 -586 60 C-585.18526183 57.34700883 -584.58887315 54.71787609 -584 52 C-583.2575 52.66 -582.515 53.32 -581.75 54 C-576.98370411 57.16618227 -571.47673125 56.86395623 -566 56 C-561.2160382 53.80851652 -558.97816275 49.72561102 -557 45 C-556.50371094 45.42152344 -556.00742188 45.84304688 -555.49609375 46.27734375 C-551.08806689 49.83220412 -547.88667174 52.1070304 -542 52 C-537.3356503 50.49792128 -534.15615163 48.76310387 -531 45 C-530.67 44.34 -530.34 43.68 -530 43 C-527 44 -527 44 -525.0625 46.4375 C-522.97952654 49.02543673 -522.1217517 50.04613142 -519 51 C-513.4561633 51.43998704 -510.63873987 51.27440461 -506 48 C-505.34 48 -504.68 48 -504 48 C-503.566875 46.824375 -503.566875 46.824375 -503.125 45.625 C-502 43 -502 43 -500 41 C-499.6596875 42.3303125 -499.6596875 42.3303125 -499.3125 43.6875 C-497.62186475 47.95434135 -495.15012391 50.92493804 -491 53 C-485.31668392 53.59106487 -480.85222997 53.27243416 -476 50 C-473.65674336 47.44860147 -473.65674336 47.44860147 -472 45 C-471.608125 46.2375 -471.21625 47.475 -470.8125 48.75 C-469.27051671 52.76484129 -467.88928494 54.88625818 -464 57 C-459.55024457 58.1844081 -456.12720867 58.39018761 -451.75 56.875 C-448.78714035 54.85486842 -446.42313703 52.63694324 -444 50 C-443.85304688 50.60328125 -443.70609375 51.2065625 -443.5546875 51.828125 C-442.38187241 56.0071213 -441.5486884 58.48959219 -438.3125 61.5 C-433.16429808 63.83126124 -429.2297256 64.78696198 -423.8125 62.875 C-420.80230516 60.86820344 -418.44396264 58.6596064 -416 56 C-415.773125 57.216875 -415.54625 58.43375 -415.3125 59.6875 C-414.25762752 63.967702 -412.43240185 66.16826848 -409 69 C-405.0375322 70.9812339 -400.30751904 70.55894464 -396 70 C-393.37845286 68.6196962 -392.05938418 67.21779835 -390 65 C-389.34 64.34 -388.68 63.68 -388 63 C-387.773125 64.216875 -387.54625 65.43375 -387.3125 66.6875 C-386.26545365 70.96673292 -384.38679351 73.13425164 -381 76 C-380.67 76.33 -380.34 76.66 -380 77 C-374.07601623 77.51685764 -368.81449843 77.91177998 -364 74 C-362.515 73.01 -362.515 73.01 -361 72 C-360.76925781 72.53109375 -360.53851562 73.0621875 -360.30078125 73.609375 C-357.8418769 78.93538125 -355.39354066 82.30322967 -350 85 C-343.81751017 85.51520749 -341.01414365 84.96467172 -336 81 C-334.515 80.01 -334.515 80.01 -333 79 C-332.76925781 79.53109375 -332.53851562 80.0621875 -332.30078125 80.609375 C-329.8418769 85.93538125 -327.39354066 89.30322967 -322 92 C-315.81751017 92.51520749 -313.01414365 91.96467172 -308 88 C-306.515 87.01 -306.515 87.01 -305 86 C-304.69707031 86.61488281 -304.39414063 87.22976563 -304.08203125 87.86328125 C-300.90621016 94.33417602 -300.90621016 94.33417602 -295 98 C-288.47799055 98.9598429 -284.31572341 97.82732085 -279 94 C-277.09667779 91.91444964 -277.09667779 91.91444964 -276 90 C-275.76216797 90.90492188 -275.76216797 90.90492188 -275.51953125 91.828125 C-274.00236545 97.02504653 -272.80575906 100.04260981 -268 103 C-264.92805092 104.53597454 -262.39755707 104.2265038 -259 104 C-255.74941676 102.58376759 -255.74941676 102.58376759 -253 101 C-252.34 101 -251.68 101 -251 101 C-250.34 99.68 -249.68 98.36 -249 97 C-248.38125 97.8353125 -248.38125 97.8353125 -247.75 98.6875 C-246.88375 99.8321875 -246.88375 99.8321875 -246 101 C-245.0409375 102.299375 -245.0409375 102.299375 -244.0625 103.625 C-241.57726762 106.48678274 -239.60979805 107.74828612 -235.8515625 108.3359375 C-230.37211733 108.43206812 -227.30225474 107.70194013 -223 104 C-220.67722584 101.3908613 -220.67722584 101.3908613 -219 99 C-218.76925781 99.54269531 -218.53851562 100.08539062 -218.30078125 100.64453125 C-216.80643727 103.9226376 -215.51753698 106.51290637 -212.875 109 C-207.59243436 110.83741414 -202.23012399 110.94898893 -197.0625 108.75 C-194.96862828 106.97338157 -193.5037502 105.29142888 -192 103 C-191.34 102.01 -190.68 101.02 -190 100 C-189.67386719 100.55429687 -189.34773438 101.10859375 -189.01171875 101.6796875 C-188.35623047 102.76636719 -188.35623047 102.76636719 -187.6875 103.875 C-187.25824219 104.59429688 -186.82898437 105.31359375 -186.38671875 106.0546875 C-184.98247625 108.26846333 -184.98247625 108.26846333 -182 110 C-176.80210589 110.7017565 -172.30749033 110.58370104 -167.5 108.4375 C-164.41081333 105.425543 -163.40175728 103.04952102 -162 99 C-161.2575 99.763125 -160.515 100.52625 -159.75 101.3125 C-155.63654037 105.33247191 -153.47072742 107.42416694 -147.5625 107.375 C-143.25271476 107.23727051 -140.26076098 107.05696341 -137 104 C-135.25829702 101.0999475 -135.25829702 101.0999475 -134 98 C-133.33333333 96.66666667 -132.66666667 95.33333333 -132 94 C-131.773125 94.61875 -131.54625 95.2375 -131.3125 95.875 C-129.57222749 98.69258406 -128.11957502 98.98812652 -125 100 C-119.61070872 100.74524406 -115.34093468 100.71835786 -110.5 98.125 C-106.96749997 94.6027095 -106.04749584 89.73210838 -105 85 C-104.236875 85.66 -103.47375 86.32 -102.6875 87 C-98.16534702 90.00760768 -93.22178387 89.77589656 -88 89 C-83.82244174 86.94786612 -81.72982739 85.26741558 -80 81 C-79.54935368 78.41467299 -79.54935368 78.41467299 -79.375 75.75 C-79.30023437 74.85796875 -79.22546875 73.9659375 -79.1484375 73.046875 C-79.09945312 72.37140625 -79.05046875 71.6959375 -79 71 C-78.38125 71.495 -77.7625 71.99 -77.125 72.5 C-72.70727188 74.6205095 -68.82033427 74.69524052 -64 74 C-59.59197375 71.83605984 -56.76860774 69.61803133 -55 65 C-54.76601396 61.31861966 -54.82584989 57.68295229 -55 54 C-54.01 54.33 -53.02 54.66 -52 55 C-47.30868877 55.54508569 -43.89669352 55.44834676 -39.625 53.3125 C-36.18192866 50.2793181 -34.19653672 48.27109099 -33.7890625 43.5625 C-33.73358689 39.74577828 -33.78588769 36.64233692 -35 33 C-33.91332031 33.06960938 -33.91332031 33.06960938 -32.8046875 33.140625 C-26.67144137 33.36959952 -22.72768727 33.37311072 -18 29 C-14.80183196 25.26880395 -14.54498128 21.9005616 -14.703125 17.15625 C-15.10881608 14.20965162 -16.13548886 12.29478294 -18 10 C-18.66 9.67 -19.32 9.34 -20 9 C-19.67 8.34 -19.34 7.68 -19 7 C-18.34 7.33 -17.68 7.66 -17 8 C-12.91444146 8.51436888 -8.78152373 8.92098732 -5.04296875 6.98828125 C-2.40615066 4.85188119 -1.07788274 3.23364822 0 0 Z " fill="#99603C" transform="translate(1703,857)"/>
<path d="M0 0 C9.79809481 24.35839213 14.04163658 51.21660118 19.38592529 76.82302856 C21.82010018 88.48472367 24.33209597 100.12538009 26.9375 111.75 C29.90771147 125.00535081 32.79044125 138.27748285 35.625 151.5625 C40.73080359 175.47031357 46.03799146 199.32452917 51.578125 223.13549805 C51.93772955 224.68402874 52.29710138 226.2326135 52.65625 227.78125 C52.8404248 228.57512619 53.02459961 229.36900238 53.21435547 230.18693542 C54.28268518 234.81620344 55.32241648 239.450696 56.3359375 244.09228516 C59.93162211 260.54385622 63.85591593 276.89642365 67.95898438 293.22705078 C68.83095876 296.69776253 69.69645073 300.17005455 70.56033325 303.64278793 C74.0541912 317.67693291 77.65626136 331.66323333 81.71044922 345.54785156 C82.82868869 349.37889649 83.87240346 353.22482923 84.8828125 357.0859375 C88.02292207 368.98479053 91.46922072 380.80005989 94.875 392.625 C95.15531067 393.59835297 95.15531067 393.59835297 95.44128418 394.59136963 C121.3835617 484.62519276 151.38657747 573.81495606 196 669 C196.57152604 670.20520569 197.14297666 671.41044715 197.71435547 672.61572266 C211.22125945 701.07337372 225.65387936 728.9997757 241.92578125 755.98828125 C243 758 243 758 243 760 C142.61040253 758.38552706 41.02459836 741.28369472 -161.03515625 683.140625 C-162.35682045 682.68533165 -162.35682045 682.68533165 -163.70518494 682.22084045 C-164.50896072 681.94203537 -165.31273651 681.66323029 -166.14086914 681.37597656 C-167.19208702 681.01176605 -167.19208702 681.01176605 -168.26454163 680.64019775 C-170 680 -170 680 -172 679 C-170.86083556 672.39395403 -169.56533638 665.82685989 -168.1953125 659.265625 C-163.89776194 638.59014296 -160.0823707 618.03411001 -158 597 C-157.8954248 595.97938477 -157.79084961 594.95876953 -157.68310547 593.90722656 C-156.6392505 581.96552568 -156.9083111 569.97598124 -157 558 C-157.323741 559.27950279 -157.323741 559.27950279 -157.65402222 560.58485413 C-158.50733612 563.95716487 -159.36072627 567.32945629 -160.21416855 570.70173454 C-160.6088157 572.26117345 -161.00344094 573.82061791 -161.39804459 575.38006783 C-163.76466403 584.73257134 -166.13361699 594.08447522 -168.5078125 603.43505859 C-169.37768681 606.86163267 -170.24745686 610.2882332 -171.1171875 613.71484375 C-171.43929325 614.98366646 -171.43929325 614.98366646 -171.76790619 616.27812195 C-174.07882169 625.38348882 -176.38024696 634.49080726 -178.63601685 643.61003113 C-179.55089215 647.30835779 -180.47381858 651.00464516 -181.39801025 654.70065308 C-181.79794179 656.31126653 -182.1932818 657.92302735 -182.58392334 659.53591919 C-183.1072853 661.69617739 -183.64538205 663.8521998 -184.1875 666.0078125 C-184.46980469 667.15910645 -184.75210938 668.31040039 -185.04296875 669.49658203 C-185.35878906 670.32270996 -185.67460938 671.14883789 -186 672 C-190.25852316 673.41950772 -193.09342492 671.65090345 -197.05859375 670.01953125 C-197.86594971 669.69574493 -198.67330566 669.37195862 -199.50512695 669.0383606 C-202.15333231 667.97287765 -204.79549877 666.89326612 -207.4375 665.8125 C-209.27270195 665.06868237 -211.10807097 664.32527684 -212.94360352 663.58227539 C-227.71500397 657.58688936 -242.42154193 651.45215915 -257 645 C-257.61178101 644.72945801 -258.22356201 644.45891602 -258.85388184 644.18017578 C-276.18417578 636.50740753 -293.33140799 628.47712062 -310.375 620.1875 C-311.17072418 619.80125458 -311.96644836 619.41500916 -312.7862854 619.01705933 C-324.65233746 613.2481237 -336.35606255 607.2039827 -348 601 C-349.10827148 600.41178467 -350.21654297 599.82356934 -351.35839844 599.2175293 C-365.45700415 591.71178823 -379.32315501 583.85343631 -393.07275391 575.72753906 C-395.95430849 574.02696523 -398.84156089 572.3364835 -401.73046875 570.6484375 C-413.64360941 563.6715383 -425.37796833 556.45143082 -437 549 C-435.75799365 539.89255947 -434.32163126 530.84808629 -432.63671875 521.8125 C-432.40883163 520.58101227 -432.18094452 519.34952454 -431.94615173 518.08071899 C-431.19813791 514.05288463 -430.44418826 510.02621132 -429.6875 506 C-429.49147816 504.95576496 -429.49147816 504.95576496 -429.29149628 503.89043427 C-411.82249027 410.88604137 -392.48128817 316.29534175 -346 202 C-345.31405762 200.47342773 -345.31405762 200.47342773 -344.61425781 198.91601562 C-330.13490336 166.95510795 -308.51774877 124.12221106 -273.546875 110.671875 C-271.21030451 109.88603291 -268.87038228 109.11009188 -266.52734375 108.34375 C-262.10788092 106.66014511 -258.27692582 104.34627871 -254.29125977 101.8527832 C-244.47785368 95.73993906 -234.20012173 90.43216163 -224 85 C-223.06655762 84.50097168 -222.13311523 84.00194336 -221.17138672 83.48779297 C-160.07073698 50.89424145 -91.15365396 18.04189346 -22.875 4.4375 C-17.37288986 3.30981526 -11.94931874 2.00016049 -6.5234375 0.55078125 C-4 0 -4 0 0 0 Z " fill="#030304" transform="translate(1079,1993)"/>
<path d="M0 0 C1.33478246 4.00434738 0.53234314 7.37175091 -0.109375 11.4453125 C-0.30058929 12.71023026 -0.30058929 12.71023026 -0.4956665 14.0007019 C-0.76822356 15.7950806 -1.04417954 17.58894576 -1.32324219 19.38232422 C-1.74067483 22.06506927 -2.14871208 24.7490937 -2.5546875 27.43359375 C-3.91375514 36.35707157 -5.36554403 45.25803325 -6.96028137 54.14241028 C-8.21460036 61.13913955 -9.30767843 68.15793707 -10.37304688 75.18554688 C-11.36728011 81.55446352 -12.55672647 87.86504092 -13.84375 94.1796875 C-15.40580478 101.85792197 -16.83950929 109.5515567 -18.19140625 117.26953125 C-18.38009781 118.34656815 -18.56878937 119.42360504 -18.76319885 120.53327942 C-19.15778215 122.78814258 -19.55216128 125.04304148 -19.9463501 127.29797363 C-27.04745522 167.80276164 -34.99518324 208.13890662 -44.14306641 248.23242188 C-45.45110744 253.98333048 -46.72484342 259.74172947 -48 265.5 C-48.47648363 267.64064256 -48.95304765 269.78126722 -49.4296875 271.921875 C-50.45416842 276.53003558 -51.47103662 281.13980542 -52.48297119 285.75073242 C-53.18767323 288.95963031 -53.89499881 292.16794758 -54.60253906 295.3762207 C-54.94391022 296.92722619 -55.28412956 298.47848576 -55.62304688 300.0300293 C-57.51994846 308.71178219 -59.57688923 317.30957238 -61.91064453 325.88671875 C-63.2192462 330.76081864 -64.40131088 335.66487142 -65.5859375 340.5703125 C-65.81266144 341.50738037 -66.03938538 342.44444824 -66.27297974 343.40991211 C-67.20751703 347.27709868 -68.14004536 351.14475202 -69.06738281 355.01367188 C-71.98498358 367.17102954 -75.13116886 379.22215228 -78.62329102 391.22729492 C-79.78754345 395.23479826 -80.88312675 399.25597434 -81.94140625 403.29296875 C-84.77027353 414.01357579 -87.86484277 424.65971238 -90.9375 435.3125 C-91.266362 436.45282684 -91.595224 437.59315369 -91.93405151 438.76803589 C-98.33717635 460.93697239 -105.01321673 483.00834462 -112 505 C-112.27587952 505.87017761 -112.55175903 506.74035522 -112.83599854 507.63690186 C-136.08289319 580.91920319 -163.79098741 652.40046802 -197 721.75 C-197.49137451 722.77762451 -197.98274902 723.80524902 -198.48901367 724.86401367 C-199.45257563 726.85658769 -200.43951194 728.83803083 -201.44970703 730.80737305 C-202.61325589 733.20355075 -203.58334287 735.5015104 -204.51513672 737.98364258 C-208.40573045 747.61627579 -208.40573045 747.61627579 -212.76281738 749.94024658 C-218.06484309 751.69465352 -223.58916534 751.87738486 -229.125 752.1875 C-230.94016575 752.34104472 -232.75479082 752.50110234 -234.56884766 752.66723633 C-238.4039688 753.00682845 -242.23914483 753.30456987 -246.08007812 753.5703125 C-251.96444319 753.98296082 -257.83200325 754.52567188 -263.703125 755.09375 C-286.76303392 757.29415241 -309.85614495 758.99548249 -333 760 C-334.4165387 760.06405029 -334.4165387 760.06405029 -335.86169434 760.12939453 C-354.69637914 760.96312007 -373.49892956 761.15836649 -392.34814453 761.13037109 C-395.4637238 761.12578418 -398.57924487 761.12583758 -401.69482422 761.13037109 C-409.87497078 761.14182543 -418.05295801 761.12354207 -426.23265839 761.03185368 C-430.28430415 760.99257125 -434.3231408 761.04669063 -438.37304688 761.16186523 C-450.29113067 761.34440351 -450.29113067 761.34440351 -454.6328125 757.92871094 C-456.75535859 754.9827269 -458.11523614 752.16661293 -459.5 748.8125 C-460.6154685 746.50110083 -461.73136124 744.18990636 -462.84765625 741.87890625 C-463.37504395 740.71504395 -463.90243164 739.55118164 -464.44580078 738.35205078 C-466.69297532 733.50541138 -469.3140522 728.8997057 -471.9375 724.25 C-498.94132121 674.77292884 -521.53116077 623.48033453 -542 571 C-542.46409271 569.81105133 -542.46409271 569.81105133 -542.93756104 568.5980835 C-554.95718353 537.74753309 -565.59753072 506.42739787 -576 475 C-576.32784485 474.01022156 -576.6556897 473.02044312 -576.99346924 472.00067139 C-591.12070037 429.27246618 -603.83922941 385.89460203 -615.0625 342.3125 C-616.61290592 336.31499139 -618.17899857 330.32269727 -619.78515625 324.33984375 C-622.7256428 313.32992052 -625.55317497 302.29083985 -628.375 291.25 C-628.6651297 290.11482941 -628.9552594 288.97965881 -629.25418091 287.81008911 C-633.22474598 272.2466874 -637.01532135 256.67868786 -640.35839844 240.96728516 C-641.53893591 235.50752396 -642.80272468 230.06692475 -644.0625 224.625 C-644.28413818 223.66327881 -644.50577637 222.70155762 -644.73413086 221.71069336 C-645.83682119 216.94511185 -646.95302982 212.18350462 -648.10742188 207.43017578 C-651.20027172 194.65645196 -653.99401291 181.83443623 -656.67727661 168.96887207 C-659.86240461 153.70399673 -663.06062956 138.44569236 -666.5625 123.25 C-670.06810784 108.02371979 -673.21757239 92.72526741 -676.36157227 77.42089844 C-682.60131918 47.08545092 -682.60131918 47.08545092 -690.39453125 17.12109375 C-690.62978516 16.29963867 -690.86503906 15.47818359 -691.10742188 14.63183594 C-691.56801797 13.03506029 -692.03643941 11.44051548 -692.51367188 9.84863281 C-694.11010455 4.33031366 -694.11010455 4.33031366 -693 1 C-691.948125 1.96099609 -691.948125 1.96099609 -690.875 2.94140625 C-684.246022 8.98494462 -677.56733853 14.95505406 -670.74609375 20.78125 C-669.53902687 21.8124583 -668.33199663 22.84370948 -667.125 23.875 C-666.51640137 24.39473389 -665.90780273 24.91446777 -665.28076172 25.44995117 C-661.74357043 28.47905595 -658.25598946 31.55156303 -654.8125 34.6875 C-650.64927574 38.46486445 -646.34292109 42.02427268 -641.97265625 45.55859375 C-638.66248454 48.27719732 -635.42508413 51.07088495 -632.1875 53.875 C-627.0302692 58.32826809 -621.76873898 62.60859912 -616.38696289 66.78686523 C-612.59291279 69.73557343 -608.85174758 72.73969787 -605.13671875 75.78735352 C-596.6077213 82.78340858 -587.8861065 89.46528746 -579 96 C-578.33371582 96.4940332 -577.66743164 96.98806641 -576.98095703 97.49707031 C-519.81956924 139.83782536 -458.96719087 174.5515463 -386.19973946 175.26036072 C-383.99751101 175.28192461 -381.79540006 175.30888565 -379.59324646 175.33703613 C-374.91637925 175.39592102 -370.23945311 175.44845501 -365.5625 175.5 C-360.13446881 175.55987212 -354.70649714 175.6225514 -349.2785778 175.69187927 C-347.13923613 175.71786535 -344.99988561 175.73902161 -342.86048889 175.7598877 C-335.06638539 175.84998927 -327.32933979 176.20842532 -319.5549469 176.76947021 C-310.65015685 177.3469245 -301.7184044 177.30536009 -292.7980957 177.35009766 C-290.41062611 177.36656408 -288.02320388 177.39372862 -285.63598633 177.43212891 C-263.96922173 177.77654496 -242.4504262 175.63918537 -222 168 C-221.13375 167.67902344 -220.2675 167.35804688 -219.375 167.02734375 C-216.20805336 165.7722612 -213.10106922 164.40768157 -210 163 C-209.20335937 162.6405127 -208.40671875 162.28102539 -207.5859375 161.91064453 C-168.30145114 144.03648957 -132.81702697 118.57682441 -100.078125 90.61328125 C-97.2729268 88.22117731 -94.42536843 85.88544149 -91.5625 83.5625 C-81.65881192 75.48696365 -72.04014763 67.12180453 -62.66015625 58.4453125 C-60.48778754 56.44839207 -58.29460837 54.49171266 -56.0625 52.5625 C-50.87309868 48.05647663 -45.85220061 43.36591033 -40.81787109 38.68847656 C-39.57689363 37.53583082 -38.33499048 36.3841811 -37.09228516 35.23339844 C-30.26970912 28.9153749 -23.50767628 22.57439562 -16.98046875 15.94921875 C-14.40008506 13.40955117 -11.67717955 11.06281259 -8.9296875 8.70703125 C-5.81053864 5.94778419 -2.90248778 2.98412025 0 0 Z " fill="#F5F5F5" transform="translate(1774,1993)"/>
<path d="M0 0 C8.9692551 0.40346533 17.25979606 2.39359717 25.875 4.8125 C26.58086243 5.00807495 27.28672485 5.2036499 28.01397705 5.40515137 C68.68369992 16.69557567 108.31207765 31.168092 147 48 C148.19753906 48.52029785 149.39507813 49.0405957 150.62890625 49.57666016 C183.3333649 63.86039475 215.50414742 79.52467388 246.625 97 C247.56746582 97.52811279 248.50993164 98.05622559 249.48095703 98.6003418 C254.53897891 101.47453167 259.42762685 104.39220968 264 108 C264 108.66 264 109.32 264 110 C264.78375 110.20625 265.5675 110.4125 266.375 110.625 C275.80290077 114.20110029 283.47897441 120.41340486 291 127 C291.99773438 127.87011719 291.99773438 127.87011719 293.015625 128.7578125 C348.10354879 180.37380832 369.50813572 275.93332865 388 346 C388.25116577 346.94903198 388.50233154 347.89806396 388.7611084 348.87585449 C395.65480173 374.97445021 401.70508345 401.23753562 407.375 427.625 C407.52079876 428.30327599 407.66659752 428.98155197 407.81681442 429.68038177 C410.9647238 444.33870476 414.03617313 459.01318231 417.00850296 473.70814133 C417.40483549 475.66537128 417.80435445 477.62195514 418.20394897 479.57852173 C418.44038116 480.75707733 418.67681335 481.93563293 418.92041016 483.14990234 C419.23421127 484.70419449 419.23421127 484.70419449 419.55435181 486.28988647 C420 489 420 489 420 493 C418.71264648 494.39355469 418.71264648 494.39355469 416.87109375 495.671875 C416.17806152 496.16276611 415.4850293 496.65365723 414.77099609 497.15942383 C414.00094238 497.68431396 413.23088867 498.2092041 412.4375 498.75 C411.63393066 499.31291748 410.83036133 499.87583496 410.00244141 500.45581055 C408.25586544 501.67674873 406.50501704 502.89159232 404.75048828 504.10107422 C401.99830063 506.00117324 399.26137847 507.92154797 396.52734375 509.84765625 C349.52593898 542.87855018 300.71850767 573.03306847 250 600 C249.12263184 600.46760742 248.24526367 600.93521484 247.34130859 601.41699219 C235.01116874 607.97062178 222.55713587 614.28048003 210.07965088 620.54779053 C208.42990522 621.37668361 206.78075347 622.20676004 205.13226318 623.03814697 C196.8200408 627.22651569 188.48416021 631.32120657 179.96484375 635.07421875 C179.28998428 635.37278275 178.61512482 635.67134674 177.91981506 635.97895813 C173.25233787 638 173.25233787 638 171 638 C170.77751083 637.13287888 170.55502167 636.26575775 170.32579041 635.37236023 C168.19446488 627.06606174 166.06280771 618.75984844 163.93080807 610.45372295 C162.83561628 606.18688509 161.74053822 601.92001811 160.64575195 597.65307617 C155.45657565 577.42857236 150.25491726 557.20754395 145 537 C144.35103965 571.20187467 147.55633568 604.60258768 156.3984375 637.77734375 C157.32904309 642.76273083 157.32904309 642.76273083 156 646 C153.27311557 647.57748506 150.80725399 648.74743942 147.90234375 649.8984375 C147.05856171 650.25005951 146.21477966 650.60168152 145.34542847 650.96395874 C142.55069181 652.1213698 139.74495972 653.248837 136.9375 654.375 C134.97643655 655.17650393 133.01574755 655.97892461 131.05541992 656.78222656 C111.86065746 664.60630468 92.49155953 671.95179664 73 679 C72.18291565 679.29628296 71.3658313 679.59256592 70.52398682 679.89782715 C-12.80469616 710.09059824 -99.4819823 732.6177592 -212 749 C-210.86649131 745.41636131 -209.6631975 742.10003875 -207.85546875 738.8046875 C-207.22161255 737.630271 -207.22161255 737.630271 -206.57495117 736.43212891 C-205.88816284 735.1663501 -205.88816284 735.1663501 -205.1875 733.875 C-198.87987125 722.02786499 -193.24349378 709.895227 -187.68261719 697.68457031 C-186.03587793 694.07146851 -184.36569865 690.46942012 -182.6953125 686.8671875 C-142.15711447 599.07648818 -112.03531491 506.00795369 -79.875 388.0625 C-79.41452431 386.28243256 -78.95357736 384.50248696 -78.4921875 382.72265625 C-78.25532227 381.80830811 -78.01845703 380.89395996 -77.77441406 379.9519043 C-77.23246339 377.8861018 -76.68158564 375.82263006 -76.12402344 373.76098633 C-73.05417578 362.40832742 -70.27421211 350.99033025 -67.5 339.5625 C-66.55280419 335.66779311 -65.60467434 331.77331414 -64.65625 327.87890625 C-64.42680695 326.93603256 -64.19736389 325.99315887 -63.96096802 325.02171326 C-62.62610111 319.54337318 -61.27332949 314.06998543 -59.8984375 308.6015625 C-57.91286298 300.68602826 -55.99845652 292.75521095 -54.125 284.8125 C-53.95325256 284.08488464 -53.78150513 283.35726929 -53.60455322 282.60760498 C-50.38309434 268.92354828 -47.49399973 255.1871071 -44.70019531 241.40917969 C-43.81614916 237.10484896 -42.89040814 232.81029541 -41.95849609 228.51611328 C-33.7722942 190.77834315 -26.40184214 152.93166245 -19.75244141 114.89315796 C-18.345782 106.87677064 -16.86814659 98.87494473 -15.37109375 90.875 C-13.53861344 81.06173081 -11.85453077 71.2475639 -10.375 61.375 C-9.9595687 58.65064999 -9.54071515 55.92683246 -9.12109375 53.203125 C-8.92757324 51.94693359 -8.73405273 50.69074219 -8.53466797 49.39648438 C-7.88910179 45.29551786 -7.1848568 41.20847449 -6.4375 37.125 C-4.89414205 28.65857925 -3.62234898 20.15313294 -2.35717773 11.64111328 C-2.19548096 10.56587402 -2.03378418 9.49063477 -1.8671875 8.3828125 C-1.72394043 7.41746582 -1.58069336 6.45211914 -1.43310547 5.45751953 C-1 3 -1 3 0 0 Z " fill="#030304" transform="translate(1775,1993)"/>
<path d="M0 0 C7.35576202 2.48175599 13.76452053 5.61932175 20.2578125 9.87109375 C22.60188757 11.28870663 22.60188757 11.28870663 24.7265625 11.06640625 C27.67648851 9.72043241 30.30959016 8.01460089 33.03125 6.25390625 C39.69118255 2.05292545 45.64628408 -1.58727129 53.78125 -0.87109375 C56.83409298 0.13987474 59.71670239 1.47042269 62.6328125 2.8203125 C63.91398453 3.39470314 63.91398453 3.39470314 65.22103882 3.98069763 C67.95431711 5.2071145 70.68076264 6.44778183 73.40625 7.69140625 C84.00114167 12.51279652 94.5661164 17.23016226 105.5546875 21.09375 C106.35049225 21.37448868 107.146297 21.65522736 107.96621704 21.94447327 C114.99543322 24.34466967 122.05402545 26.13979761 129.47265625 26.76171875 C130.43623047 26.84550781 131.39980469 26.92929688 132.39257812 27.015625 C133.36646484 27.09425781 134.34035156 27.17289063 135.34375 27.25390625 C136.85678711 27.38345703 136.85678711 27.38345703 138.40039062 27.515625 C140.86027365 27.72547284 143.32047902 27.92979092 145.78125 28.12890625 C139.72514945 48.45118181 123.8429886 66.7723302 109.78125 82.12890625 C109.08644531 82.89589844 108.39164063 83.66289063 107.67578125 84.453125 C87.76477948 105.38302665 59.08183064 120.63188651 29.9765625 121.4296875 C27.61986576 121.44877939 25.26299865 121.45235215 22.90625 121.44140625 C21.67189209 121.4372168 20.43753418 121.43302734 19.16577148 121.42871094 C10.61199898 121.32240372 2.98800923 120.65322234 -5.21875 118.12890625 C-6.25902344 117.86207031 -7.29929687 117.59523438 -8.37109375 117.3203125 C-44.00526692 107.60190163 -70.8986045 79.24030552 -88.71875 48.12890625 C-97.21875 33.23388789 -97.21875 33.23388789 -97.21875 28.12890625 C-96.3525 28.29390625 -95.48625 28.45890625 -94.59375 28.62890625 C-76.64725178 31.00735782 -62.76352377 25.2747268 -46.96875 17.44140625 C-45.70947051 16.82478224 -44.44994564 16.20865911 -43.19018555 15.59301758 C-33.09325023 10.63980862 -23.12195555 5.45782929 -13.21875 0.12890625 C-8.86422864 -2.04835443 -4.52035022 -1.22334721 0 0 Z " fill="#E57556" transform="translate(1385.21875,1592.87109375)"/>
<path d="M0 0 C11.15505262 3.64141948 18.32720984 2.97454535 29.5 -0.29296875 C33.08654807 -1.24912557 36.47283122 -1.81680418 40.1484375 -2.265625 C35.7361558 12.52990656 27.11446584 26.2932585 18.1484375 38.734375 C17.46265625 39.68699219 16.776875 40.63960937 16.0703125 41.62109375 C11.61947409 47.5773628 11.61947409 47.5773628 8.1484375 48.734375 C8.45587891 47.61289063 8.45587891 47.61289063 8.76953125 46.46875 C9.17365234 44.99148438 9.17365234 44.99148438 9.5859375 43.484375 C9.85277344 42.50984375 10.11960937 41.5353125 10.39453125 40.53125 C10.64332031 39.60828125 10.89210938 38.6853125 11.1484375 37.734375 C11.34179688 37.05761719 11.53515625 36.38085938 11.734375 35.68359375 C12.22915497 33.35439368 12.31759679 31.17749902 12.3359375 28.796875 C12.35011719 27.96285156 12.36429688 27.12882812 12.37890625 26.26953125 C12.1101228 23.31291332 11.53390473 21.36826812 10.1484375 18.734375 C7.87988176 17.3546899 7.87988176 17.3546899 5.06640625 16.55859375 C3.47046631 16.03458984 3.47046631 16.03458984 1.84228516 15.5 C0.68519043 15.14421875 -0.4719043 14.7884375 -1.6640625 14.421875 C-2.85209473 14.04160156 -4.04012695 13.66132812 -5.26416016 13.26953125 C-27.83267532 6.10467544 -27.83267532 6.10467544 -50.8515625 0.734375 C-50.46484375 1.26804687 -50.078125 1.80171875 -49.6796875 2.3515625 C-41.17691102 14.51642588 -37.86873775 27.30775823 -40.4140625 42.109375 C-43.91736668 55.42193089 -51.51150498 65.99445579 -62.9140625 73.671875 C-74.37906012 80.22661101 -89.24447703 81.76240872 -102.08984375 79.05078125 C-114.93901284 74.67079575 -125.70847528 65.83627436 -131.7890625 53.671875 C-137.42687499 41.73926489 -139.29733961 28.53133564 -134.8515625 15.734375 C-133.64748235 12.98831078 -132.30390069 10.35612836 -130.8515625 7.734375 C-130.5215625 7.074375 -130.1915625 6.414375 -129.8515625 5.734375 C-146.39413533 16.03561083 -160.58496149 28.75045731 -171.8515625 44.734375 C-175.01272026 43.36453997 -175.8442717 42.7453112 -177.8515625 39.734375 C-178.265625 37.3828125 -178.265625 37.3828125 -177.8515625 34.734375 C-175.875 32.0859375 -175.875 32.0859375 -173.2265625 29.359375 C-172.29861359 28.3888477 -171.37152688 27.41749528 -170.4453125 26.4453125 C-169.589375 25.55070312 -168.7334375 24.65609375 -167.8515625 23.734375 C-166.79816789 22.49424225 -165.75412573 21.2459943 -164.7265625 19.984375 C-161.44624892 16.14068346 -157.75591263 12.93118227 -153.8515625 9.734375 C-152.91441406 8.95964844 -151.97726562 8.18492188 -151.01171875 7.38671875 C-106.79833052 -28.3681524 -50.21282864 -16.5884017 0 0 Z " fill="#442B1A" transform="translate(1708.8515625,1263.265625)"/>
<path d="M0 0 C23.26945435 19.59258502 23.26945435 19.59258502 28.01171875 28.8203125 C27.67643636 32.69340219 26.51931884 34.87660804 24.01171875 37.8203125 C19.63424445 36.2435919 17.23352717 32.80239325 14.38671875 29.3203125 C-0.40833288 11.49520605 -0.40833288 11.49520605 -19.98828125 -0.1796875 C-19.46427734 0.92439453 -19.46427734 0.92439453 -18.9296875 2.05078125 C-18.47464844 3.02660156 -18.01960938 4.00242187 -17.55078125 5.0078125 C-17.09832031 5.97074219 -16.64585937 6.93367188 -16.1796875 7.92578125 C-12.04785498 17.96410222 -12.40106443 31.87949381 -16.11328125 41.9453125 C-21.91555375 54.71354446 -30.12718154 64.29186513 -43.25 69.84765625 C-56.7831663 74.65472959 -70.65876787 74.13714087 -83.98828125 68.8203125 C-96.89988273 61.61648447 -104.43159639 51.31565273 -109.1015625 37.53515625 C-110.12117194 33.26357662 -110.33274421 29.38025252 -110.30078125 25.0078125 C-110.29340942 23.8158728 -110.29340942 23.8158728 -110.28588867 22.59985352 C-110.05488542 11.00822896 -105.93546808 1.99165027 -98.98828125 -7.1796875 C-99.64199707 -6.98858398 -100.29571289 -6.79748047 -100.96923828 -6.60058594 C-104.01712653 -5.7098544 -107.06519598 -4.81974461 -110.11328125 -3.9296875 C-111.2204248 -3.60613281 -112.32756836 -3.28257813 -113.46826172 -2.94921875 C-119.00937902 -1.3319432 -124.55395162 0.2669704 -130.11328125 1.8203125 C-137.36815125 3.87255861 -144.53486802 6.20262856 -151.70361328 8.53515625 C-152.61739746 8.83035156 -153.53118164 9.12554688 -154.47265625 9.4296875 C-155.29475586 9.69749023 -156.11685547 9.96529297 -156.96386719 10.24121094 C-158.98828125 10.8203125 -158.98828125 10.8203125 -160.98828125 10.8203125 C-162.23790179 14.56917412 -162.22115269 18.09999497 -162.23828125 22.0078125 C-162.242229 22.77432129 -162.24617676 23.54083008 -162.25024414 24.33056641 C-162.19360501 29.80879654 -161.28981832 33.81697104 -158.98828125 38.8203125 C-159.31828125 39.8103125 -159.64828125 40.8003125 -159.98828125 41.8203125 C-170.8257956 30.64980189 -189.98828125 7.12692515 -189.98828125 -9.1796875 C-189.16328125 -8.98632812 -188.33828125 -8.79296875 -187.48828125 -8.59375 C-186.33328125 -8.33335938 -185.17828125 -8.07296875 -183.98828125 -7.8046875 C-182.87453125 -7.54945312 -181.76078125 -7.29421875 -180.61328125 -7.03125 C-179.07321334 -6.73884596 -177.53119145 -6.45670269 -175.98828125 -6.1796875 C-174.82345215 -5.95249023 -173.65862305 -5.72529297 -172.45849609 -5.49121094 C-163.06232806 -3.84830338 -155.78838716 -4.52141544 -146.59390259 -7.53262329 C-143.84019401 -8.43225324 -141.06526562 -9.2560003 -138.28993225 -10.08601379 C-136.87660742 -10.50926766 -135.46427094 -10.93583641 -134.05296326 -11.36576843 C-88.04470064 -25.35491559 -39.53688454 -32.23105041 0 0 Z " fill="#442B1A" transform="translate(1240.98828125,1270.1796875)"/>
<path d="M0 0 C1.05445313 0.56460937 2.10890625 1.12921875 3.1953125 1.7109375 C18.59236983 10.27379184 32.87898006 22.3336762 44 36 C43.01 36.495 43.01 36.495 42 37 C40.1784668 36.23071289 40.1784668 36.23071289 37.94921875 34.97265625 C37.11600098 34.51391113 36.2827832 34.05516602 35.42431641 33.58251953 C34.52116699 33.08091309 33.61801758 32.57930664 32.6875 32.0625 C22.84074118 26.7475943 12.86826567 22.53145353 2.32324219 18.81835938 C0.28378205 18.0999619 -1.74534467 17.35905484 -3.7734375 16.609375 C-58.20376427 -2.71644889 -115.98656366 2.46825206 -170.91162109 17.17114258 C-177.76516444 18.94929147 -185.40960305 20.90978561 -191.9375 17.4375 C-197.31568506 11.08146311 -197.34461665 5.5203221 -197.3984375 -2.59765625 C-196.94973962 -6.4291842 -196.0993478 -8.76847118 -194 -12 C-189.69979665 -15.30574008 -185.52719843 -15.74927252 -180.30078125 -16.31640625 C-179.01742638 -16.46864655 -179.01742638 -16.46864655 -177.70814514 -16.6239624 C-174.91097535 -16.95055509 -172.11212867 -17.25775566 -169.3125 -17.5625 C-168.35603577 -17.67016693 -167.39957153 -17.77783386 -166.41412354 -17.88876343 C-153.4211258 -19.3489813 -140.42834119 -20.5556283 -127.375 -21.3125 C-126.06442627 -21.38863525 -124.75385254 -21.46477051 -123.40356445 -21.54321289 C-81.26205252 -23.69650751 -37.56414154 -20.68658327 0 0 Z " fill="#311B16" transform="translate(1727,1164)"/>
<path d="M0 0 C1.02250351 -0.00687836 2.04500702 -0.01375671 3.09849548 -0.02084351 C6.39903355 -0.0379668 9.69941981 -0.04430411 13 -0.046875 C14.12761749 -0.04854675 15.25523499 -0.05021851 16.41702271 -0.05194092 C30.97569108 -0.05323077 45.43506142 0.25507559 59.9375 1.578125 C60.98224487 1.67281067 60.98224487 1.67281067 62.0480957 1.76940918 C69.57759619 2.4727934 77.00486212 3.48231004 84.4519043 4.78808594 C88.39345612 5.430094 92.32496626 5.59370181 96.30859375 5.76171875 C100.41737216 6.43558226 103.0907111 8.2938361 106 11.203125 C107.40899543 15.00286751 107.25739415 19.07376661 107.3125 23.078125 C107.34150391 23.77292969 107.37050781 24.46773437 107.40039062 25.18359375 C107.46408258 30.38673692 106.30525953 33.23218272 103 37.203125 C99.06372924 40.7551508 96.11550837 40.62087553 90.99267578 40.47412109 C86.14576573 40.03521832 81.61271246 38.82428912 76.9375 37.515625 C7.65599401 19.31176228 -62.66507129 20.0785619 -127 55.203125 C-129.70187549 56.81740015 -132.36358246 58.48421329 -135 60.203125 C-130.18892876 49.97704243 -119.79852704 41.86402332 -111 35.203125 C-109.98808594 34.41421875 -108.97617188 33.6253125 -107.93359375 32.8125 C-83.0400825 13.88040838 -52.96602377 3.92001715 -22 1.203125 C-21.21446747 1.12284561 -20.42893494 1.04256622 -19.61959839 0.95985413 C-13.06621307 0.30945712 -6.58348578 0.03043004 0 0 Z " fill="#311B16" transform="translate(1162,1142.796875)"/>
<path d="M0 0 C-3.17106097 4.46504555 -6.64756961 7.15380467 -11.1875 10.0625 C-11.91291992 10.52930176 -12.63833984 10.99610352 -13.38574219 11.47705078 C-23.75209934 17.94262108 -34.87397497 22.9977102 -46 28 C-46.67546875 28.30695801 -47.3509375 28.61391602 -48.046875 28.93017578 C-58.18075904 33.45962682 -69.16946149 35.76186021 -80 38 C-80.8677002 38.19126465 -81.73540039 38.3825293 -82.62939453 38.57958984 C-91.43593722 40.31437544 -100.17719805 40.30399011 -109.11621094 40.26074219 C-111.73135877 40.25007603 -114.34581118 40.26066161 -116.9609375 40.2734375 C-130.58431733 40.28582502 -144.04249954 39.50782872 -157.25 35.875 C-158.02956055 35.66399658 -158.80912109 35.45299316 -159.61230469 35.2355957 C-182.53778378 28.75496755 -203.39428343 18.14277737 -221 2 C-218.10109339 0.5505467 -216.0190534 1.24350831 -212.81640625 1.671875 C-211.47851909 1.84377699 -210.14062831 2.01565075 -208.80273438 2.1875 C-206.10439465 2.54377362 -203.40670252 2.90465308 -200.70898438 3.265625 C-172.74945743 6.90853321 -144.97335571 8.4902778 -116.79406738 8.3225708 C-113.71734957 8.30906422 -110.64077447 8.31442863 -107.56404018 8.31943798 C-88.9552282 8.34225407 -70.54341274 7.71487909 -52 6 C-50.49400981 5.86739381 -48.98799108 5.73511107 -47.48193359 5.60327148 C-43.96378312 5.28231819 -40.45073036 4.93306861 -36.9375 4.5625 C-35.73996094 4.43834717 -34.54242187 4.31419434 -33.30859375 4.1862793 C-25.60966401 3.35924583 -17.97606934 2.33288948 -10.36303711 0.91430664 C-6.85606535 0.26279311 -3.56949478 -0.14415267 0 0 Z " fill="#FEFDFC" transform="translate(1521,1627)"/>
<path d="M0 0 C-1.20950728 2.43724835 -2.44350981 4.85936427 -3.69140625 7.27734375 C-4.31524477 8.49732395 -4.93893916 9.71737785 -5.5625 10.9375 C-5.87896484 11.54529297 -6.19542969 12.15308594 -6.52148438 12.77929688 C-11.66740486 22.90725502 -11.75539302 36.71360069 -8.375 47.5 C-3.07400484 60.84451907 4.96601163 70.19216224 18.1640625 76.22265625 C18.76992187 76.47917969 19.37578125 76.73570313 20 77 C20 77.33 20 77.66 20 78 C11.63845812 77.46411183 3.53157863 76.36492487 -4.6875 74.75 C-5.81945801 74.52892578 -6.95141602 74.30785156 -8.11767578 74.08007812 C-27.0862489 70.27071598 -46.84092029 66.2445305 -59 50 C-62.99560348 43.22850358 -64.47946396 36.76220915 -64.5625 29 C-64.57700195 28.27006836 -64.59150391 27.54013672 -64.60644531 26.78808594 C-64.54372357 23.49748891 -64.38499598 21.4703153 -62.26928711 18.88574219 C-59.86819724 16.89047396 -58.09011199 16.06102641 -55.125 15.140625 C-53.66646606 14.67958374 -53.66646606 14.67958374 -52.1784668 14.20922852 C-51.12957275 13.89268311 -50.08067871 13.5761377 -49 13.25 C-47.91307861 12.91218506 -46.82615723 12.57437012 -45.70629883 12.22631836 C-32.86976824 8.27331984 -19.95235026 4.55368302 -7 1 C-6.28561768 0.80269287 -5.57123535 0.60538574 -4.83520508 0.40209961 C-3 0 -3 0 0 0 Z " fill="#FDFCFC" transform="translate(1142,1263)"/>
<path d="M0 0 C0.33 0 0.66 0 1 0 C1.08753531 29.9655243 0.84622297 59.92460945 0.53643799 89.8883667 C0.4746763 95.90407907 0.41518505 101.91981392 0.35546875 107.93554688 C0.2391263 119.62372019 0.12038796 131.3118677 0 143 C-3.61589859 141.26477323 -6.57304095 139.15085277 -9.75 136.6875 C-10.30929199 136.25453613 -10.86858398 135.82157227 -11.44482422 135.37548828 C-16.75543669 131.24080754 -21.95498208 126.97183002 -27.16113281 122.70703125 C-32.62593279 118.25206023 -38.22588591 114.04921984 -44 110 C-41.88125954 103.3708645 -39.45063166 96.9067639 -36.859375 90.44921875 C-36.26042923 88.94888596 -36.26042923 88.94888596 -35.64938354 87.41824341 C-34.35260962 84.17344413 -33.05158645 80.93037154 -31.75 77.6875 C-31.30613953 76.57917816 -30.86227905 75.47085632 -30.40496826 74.32894897 C-24.00901984 58.36152289 -17.5170481 42.43756245 -10.84667969 26.58276367 C-10.28573516 25.24921654 -9.72486067 23.91563994 -9.1640625 22.58203125 C-8.90040894 21.95517929 -8.63675537 21.32832733 -8.3651123 20.68247986 C-5.49014601 13.82306881 -2.73907082 6.9145743 0 0 Z " fill="#854E30" transform="translate(1410,1327)"/>
<path d="M0 0 C12.57525497 2.56582487 24.82658676 5.83072548 37.08251953 9.63623047 C39.91667011 10.51288939 42.75679789 11.368018 45.59765625 12.22265625 C47.41706183 12.78257173 49.23608779 13.34372257 51.0546875 13.90625 C51.89627411 14.15741577 52.73786072 14.40858154 53.60494995 14.6673584 C57.98757074 16.05112422 61.13292107 17.19709309 64 21 C67.17878589 30.53635766 64.02049181 40.61530525 59.8671875 49.39453125 C52.41557541 62.29914423 38.56640893 66.18819926 25 70 C24.22374268 70.2276001 23.44748535 70.4552002 22.64770508 70.68969727 C15.07402747 72.85271122 7.44129945 74.32740057 -0.3125 75.6875 C-2.16584961 76.02491211 -2.16584961 76.02491211 -4.05664062 76.36914062 C-5.84811523 76.6872168 -5.84811523 76.6872168 -7.67578125 77.01171875 C-8.74739502 77.20209717 -9.81900879 77.39247559 -10.9230957 77.58862305 C-13.98881293 77.99850431 -16.91110822 78.07324863 -20 78 C-18 76 -18 76 -14.5 74.4375 C-2.78839225 68.68816528 4.8320973 58.24280274 9.25390625 46.26171875 C13.02764273 34.82196262 11.64712621 21.70273056 6.53515625 10.90625 C4.51263752 7.14802448 2.36724471 3.55086706 0 0 Z " fill="#FDFDFD" transform="translate(1657,1263)"/>
<path d="M0 0 C0 3.14399138 -0.38830938 3.9880232 -1.875 6.625 C-7.26332392 17.17235746 -7.57546441 29.44169241 -4.375 40.75 C0.11236827 53.63359392 7.63097405 63.67994443 19.9375 69.9375 C25.53469013 72.56289211 30.85546013 74.30626163 37 75 C37 75.33 37 75.66 37 76 C26.91203467 77.75442875 16.85423396 78.31757464 6.625 78.5 C5.43745117 78.54253906 4.24990234 78.58507813 3.02636719 78.62890625 C-5.26050086 78.69388309 -10.40305281 76.99607339 -17 72 C-17.64348389 71.52296631 -18.28696777 71.04593262 -18.94995117 70.55444336 C-24.53376187 66.25393692 -28.66875658 60.49413353 -33 55 C-33.9536554 53.85634049 -34.90944845 52.71446066 -35.8671875 51.57421875 C-36.80801496 50.42507096 -37.7481333 49.27534219 -38.6875 48.125 C-39.14616455 47.5899585 -39.6048291 47.05491699 -40.07739258 46.50366211 C-41.32421875 44.9453125 -41.32421875 44.9453125 -43 42 C-42.23723014 37.79840936 -39.67921296 35.24170882 -36.8125 32.1875 C-33.99313194 29.15263884 -31.2266581 26.10911679 -28.5625 22.9375 C-20.26531861 13.50630749 -10.50334961 6.70813928 0 0 Z " fill="#FCFBFB" transform="translate(1579,1268)"/>
<path d="M0 0 C10.29057822 3.58014652 19.21653221 12.63940313 27 20 C28.03060547 20.96873047 28.03060547 20.96873047 29.08203125 21.95703125 C32.93865216 25.6919442 36.54484446 29.63242486 40.0625 33.6875 C40.83722656 34.57824219 41.61195312 35.46898437 42.41015625 36.38671875 C44 39 44 39 44.05859375 41.4140625 C42.60470052 44.96563933 40.41162299 47.74834709 38 50.6875 C37.5037915 51.30254395 37.00758301 51.91758789 36.49633789 52.55126953 C35.01076235 54.37890116 33.50933279 56.19196103 32 58 C31.21496094 58.94230469 30.42992187 59.88460938 29.62109375 60.85546875 C23.02579866 68.46542462 15.31943768 77.33887592 4.68969727 78.18359375 C1.91466812 78.27102083 -0.84872055 78.27589252 -3.625 78.25 C-4.62668213 78.24613281 -5.62836426 78.24226563 -6.66040039 78.23828125 C-16.51177923 78.12660696 -26.22855273 77.19868795 -36 76 C-36 75.67 -36 75.34 -36 75 C-34.53240234 74.65388672 -34.53240234 74.65388672 -33.03515625 74.30078125 C-19.29050356 70.93746649 -7.56512491 65.65710726 0.3125 53.1875 C1.2408673 51.47558035 2.13747635 49.74602052 3 48 C3.62068359 46.80503906 3.62068359 46.80503906 4.25390625 45.5859375 C8.8815202 35.16977509 8.85679159 20.77070295 4.93359375 10.08984375 C3.39895507 6.6545647 1.7809482 3.31624836 0 0 Z " fill="#FCFBFB" transform="translate(1219,1268)"/>
<path d="M0 0 C2 2 2 2 2.0625 5 C-0.48700936 19.15417263 -16.83733616 31.22947095 -28 39 C-31.49396241 41.02774604 -33.93733893 41.27084407 -38 41 C-39.60260138 39.39739862 -39.20898122 37.71501415 -39.25 35.5 C-39.10695036 25.44360997 -34.96839463 17.31429552 -28.1484375 10.01953125 C-20.01027994 2.41635217 -11.00297237 -0.54112979 0 0 Z " fill="#FCFBFB" transform="translate(1177,1258)"/>
<path d="M0 0 C8.63837125 0.20899285 17.73823687 4.12745486 24.40625 9.56640625 C30.78818963 16.27024196 35.17530151 24.391274 35.875 33.625 C35.96136719 34.67042969 36.04773437 35.71585938 36.13671875 36.79296875 C36.1875 39.4375 36.1875 39.4375 35.1875 41.4375 C29.04593096 42.39285518 25.40850785 40.38737137 20.359375 36.94921875 C10.24737504 29.2422175 -2.44010447 18.00929384 -5.6015625 5.25390625 C-5.67117188 4.32449219 -5.74078125 3.39507813 -5.8125 2.4375 C-3.8125 0.4375 -3.8125 0.4375 0 0 Z " fill="#FCFBFB" transform="translate(1625.8125,1257.5625)"/>
</svg>
