<?xml version="1.0" encoding="UTF-8"?>
<svg version="1.1" xmlns="http://www.w3.org/2000/svg" width="2754" height="2754">
<path d="M0 0 C4.5552102 -0.0888447 9.10248557 -0.05017566 13.65673828 0.05029297 C14.5908252 0.06817871 15.52491211 0.08606445 16.48730469 0.10449219 C69.21361688 1.22147143 121.41021293 8.74538402 171.65673828 25.05029297 C172.73036621 25.39672852 173.80399414 25.74316406 174.91015625 26.10009766 C230.37658436 44.18355953 281.94503484 72.54178123 326.65673828 110.05029297 C327.65833984 110.87787109 328.65994141 111.70544922 329.69189453 112.55810547 C342.12072533 122.87918985 353.71527297 134.02789382 365.15673828 145.42529297 C365.99342041 146.25730225 366.83010254 147.08931152 367.69213867 147.9465332 C372.55348794 152.82056383 377.18803754 157.81548995 381.65673828 163.05029297 C382.64157599 164.17993155 383.62722223 165.30886587 384.61376953 166.43701172 C391.25745442 174.0946061 397.61809459 181.9050435 403.65673828 190.05029297 C404.14223145 190.70449219 404.62772461 191.35869141 405.12792969 192.03271484 C417.49620148 208.77337158 429.31516807 225.97478252 439.65673828 244.05029297 C440.22739014 245.04730225 440.22739014 245.04730225 440.80957031 246.06445312 C443.82291314 251.35842975 446.75507076 256.69441623 449.65673828 262.05029297 C450.35887451 263.34169189 450.35887451 263.34169189 451.07519531 264.65917969 C486.52018562 330.18086187 507.44922996 403.16960293 516.39959717 476.94415283 C516.64516423 478.95549453 516.90094412 480.96558148 517.15722656 482.97558594 C522.46593523 526.2852061 522.73643504 573.70433289 516.93536377 616.96569824 C516.633221 619.22624242 516.34378875 621.48824086 516.0546875 623.75048828 C513.65070434 642.32773274 510.54597731 660.70277835 506.46923828 678.98779297 C506.30106598 679.74269012 506.13289368 680.49758728 505.95962524 681.27536011 C504.22186713 689.00072542 502.34773769 696.59380853 499.65673828 704.05029297 C500.36056641 704.29392578 501.06439453 704.53755859 501.78955078 704.78857422 C520.1568802 712.87120011 531.70633832 731.22182023 538.87939453 749.09716797 C553.679831 792.54179517 542.26713663 848.82594576 523.28173828 889.17529297 C522.85997314 890.07481689 522.43820801 890.97434082 522.00366211 891.90112305 C520.07869725 895.8117806 518.23481095 899.36107781 515.41963196 902.71751404 C507.35619186 912.48074167 507.49445739 921.05016544 507.84814453 933.32763672 C507.8701123 935.30306242 507.88766944 937.27854145 507.90110779 939.25404358 C507.94657824 944.45024129 508.04411427 949.64407659 508.15533447 954.8392334 C508.32162749 963.03253972 508.40869451 971.22737066 508.50104141 979.42179108 C508.5241236 981.44353222 508.54870982 983.46525674 508.57479477 985.48696136 C508.81920843 1005.07786908 508.03723113 1024.51224091 506.65673828 1044.05029297 C506.5801297 1045.17358002 506.50352112 1046.29686707 506.42459106 1047.45419312 C505.98741834 1053.78458197 505.47598076 1060.10549881 504.90673828 1066.42529297 C504.78268616 1067.82501846 504.78268616 1067.82501846 504.65612793 1069.25302124 C498.32989988 1140.04445602 485.96302794 1210.13586128 468.65673828 1279.05029297 C468.45755798 1279.84723572 468.25837769 1280.64417847 468.05316162 1281.465271 C458.36641594 1320.19347138 446.62741344 1358.3028239 433.65673828 1396.05029297 C433.16357224 1397.49072198 432.67040818 1398.93115167 432.17724609 1400.37158203 C423.02944519 1427.03365644 412.82272491 1453.22667367 401.96923828 1479.23779297 C401.48334229 1480.40463623 400.99744629 1481.57147949 400.49682617 1482.77368164 C395.78203149 1493.9702473 390.71772913 1505.00695502 385.65673828 1516.05029297 C421.36452731 1524.51195115 421.36452731 1524.51195115 457.53173828 1530.48779297 C492.11021052 1534.68259934 519.16087332 1552.88411662 540.76220703 1579.88232422 C589.13133904 1641.80071092 611.53922137 1721.93315771 629.59423828 1797.17529297 C629.92658981 1798.55609039 629.92658981 1798.55609039 630.26565552 1799.96478271 C635.44872856 1821.60031679 639.96652904 1843.23595019 642.40673828 1865.36279297 C642.52513062 1866.41260345 642.64352295 1867.46241394 642.76550293 1868.54403687 C653.23590432 1961.92762562 659.80196801 2055.81919841 679.61636734 2339.37314987 C679.84176731 2342.88677456 680.06843129 2346.40031602 680.29525757 2349.91384888 C680.64364644 2355.32093294 680.98682231 2360.72832273 681.32551575 2366.13602257 C681.44727931 2368.07243271 681.57038465 2370.00875909 681.69502258 2371.94498634 C682.23254574 2380.32002945 682.73099163 2388.69629899 682.91894531 2397.08740234 C682.94401154 2398.1679187 682.96907776 2399.24843506 682.99490356 2400.36169434 C682.60630041 2403.45130157 681.95531386 2404.42422496 679.60595703 2406.40185547 C677.58227539 2407.57958984 677.58227539 2407.57958984 675.34423828 2408.67529297 C673.75509929 2409.57267351 672.16657772 2410.47114812 670.57861328 2411.37060547 C669.75554687 2411.81307617 668.93248047 2412.25554688 668.08447266 2412.71142578 C665.05861566 2414.38015061 662.1841471 2416.23306249 659.29125977 2418.12011719 C618.39237847 2444.74370277 575.01113392 2467.84853246 531.44940186 2489.74157715 C529.99195261 2490.47431046 528.53509818 2491.20822841 527.07891846 2491.94348145 C517.07505118 2496.98955879 506.95558029 2501.63927747 496.65673828 2506.05029297 C494.04527255 2485.96956217 491.82880893 2465.85024259 489.62763023 2445.72139883 C489.09075724 2440.8161933 488.5516069 2435.91123801 488.01269531 2431.0062561 C487.07383919 2422.45878298 486.13612308 2413.9111855 485.19924927 2405.36349487 C482.77212494 2383.21990689 480.34042276 2361.07682157 477.90744281 2338.93387628 C477.49798329 2335.2071813 477.08859987 2331.48047797 476.67921638 2327.75377464 C472.52261217 2289.91957003 468.33705133 2252.08865255 464.13386726 2214.25959969 C463.26750532 2206.46222906 462.40175472 2198.66479064 461.53618673 2190.86733184 C460.9095947 2185.22274065 460.28292608 2179.57815796 459.65626855 2173.93357404 C459.50022654 2172.52801877 459.34418765 2171.12246315 459.18815188 2169.71690719 C457.4335359 2153.91151963 455.67741171 2138.10630319 453.91604614 2122.30166626 C442.73766157 2021.99122509 442.73766157 2021.99122509 437.96533203 1974.27294922 C437.88392322 1973.46162246 437.80251441 1972.65029569 437.71863866 1971.81438327 C436.04203944 1955.10314441 434.41996022 1938.39684029 433.2868948 1921.63767338 C433.21715985 1920.64590312 433.14742491 1919.65413286 433.07557678 1918.63230896 C432.98933595 1917.33300524 432.98933595 1917.33300524 432.90135288 1916.00745296 C432.85995466 1914.04885845 432.85995466 1914.04885845 431.65673828 1913.05029297 C403.05461062 2044.78167187 403.05461062 2044.78167187 373.71923828 2224.23779297 C373.60241699 2225.28233643 373.4855957 2226.32687988 373.36523438 2227.40307617 C372.10750717 2239.79817333 372.51770566 2250.2606447 376.09423828 2262.23779297 C376.85073531 2264.90934142 377.58621885 2267.58642189 378.31689453 2270.26513672 C378.50960938 2270.97038483 378.70232422 2271.67563293 378.90087891 2272.4022522 C400.87390727 2353.76969827 409.24696545 2439.89852702 417.87939453 2523.59716797 C417.96120468 2524.37102844 418.04301483 2525.14488892 418.12730408 2525.94219971 C418.56858967 2530.34271584 418.72891289 2534.63567335 418.65673828 2539.05029297 C329.45286317 2572.861919 237.69967794 2598.25428582 35.15673828 2626.30029297 C33.76763245 2626.41599136 33.76763245 2626.41599136 32.35046387 2626.5340271 C-1.98555876 2629.35185948 -36.38126152 2630.39688201 -70.82275391 2630.31103516 C-75.42297177 2630.29964193 -80.02295795 2630.3064475 -84.62316799 2630.3179121 C-119.2347624 2630.39089926 -153.78476102 2629.13784518 -188.28076172 2626.23779297 C-189.30191071 2626.15381256 -190.32305969 2626.06983215 -191.37515259 2625.98330688 C-254.95878948 2620.73119726 -318.02835162 2611.15941982 -380.28076172 2597.17529297 C-381.85080963 2596.82283508 -381.85080963 2596.82283508 -383.45257568 2596.46325684 C-386.42660962 2595.79233354 -389.39898432 2595.11462919 -392.37060547 2594.43310547 C-393.23512833 2594.23655365 -394.09965118 2594.04000183 -394.9903717 2593.8374939 C-400.85199081 2592.47680886 -406.5987754 2590.84059258 -412.34326172 2589.05029297 C-404.50177675 2498.94493671 -393.04578579 2408.6636998 -364.98388672 2284.58276367 C-361.42838185 2272.1934364 -362.00007784 2261.1191405 -363.90576172 2248.48779297 C-364.08357178 2247.29001221 -364.26138184 2246.09223145 -364.44458008 2244.8581543 C-377.88843644 2157.16792751 -404.24591815 2071.09037365 -446.74404907 1929.51940918 C-448.63661085 1923.37073064 -450.50394699 1917.2151157 -452.34326172 1911.05029297 C-452.41239777 1911.81619247 -452.48153381 1912.58209198 -452.55276489 1913.37120056 C-456.6248716 1958.34152059 -461.14070666 2003.25746263 -466.0437727 2048.14472365 C-466.48682778 2052.20349246 -466.92882969 2056.26237464 -467.37046051 2060.3212986 C-476.2214661 2141.65718927 -485.28486852 2222.96984187 -494.32086182 2304.28533936 C-496.94270477 2327.87967035 -499.56306062 2351.47416558 -502.18010521 2375.06902933 C-502.56897884 2378.57502166 -502.95794533 2382.08100366 -503.3469944 2385.58697653 C-508.46107996 2431.67492645 -513.52955287 2477.76661503 -518.33901978 2523.88757658 C-518.70710828 2527.41549631 -519.0769709 2530.94322905 -519.44693279 2534.47095275 C-519.69060856 2536.80423626 -519.93098709 2539.13784186 -520.17105865 2541.47149849 C-520.31435208 2542.84192032 -520.45778261 2544.21232782 -520.60137939 2545.5827179 C-520.78195326 2547.32858169 -520.78195326 2547.32858169 -520.96617508 2549.10971546 C-521.27362036 2551.50721935 -521.68372041 2553.73017503 -522.34326172 2556.05029297 C-528.38978318 2554.84040245 -534.1074569 2553.23255361 -539.89013672 2551.10107422 C-540.68668167 2550.81193146 -541.48322662 2550.5227887 -542.3039093 2550.22488403 C-544.90303976 2549.27799709 -547.49842158 2548.32137003 -550.09326172 2547.36279297 C-550.99253387 2547.03215851 -551.89180603 2546.70152405 -552.81832886 2546.36087036 C-598.69632384 2529.47133217 -643.2807345 2509.69789626 -687.28076172 2488.42529297 C-688.00198212 2488.07718567 -688.72320251 2487.72907837 -689.46627808 2487.37042236 C-691.51908093 2486.37846828 -693.5701428 2485.38301144 -695.62060547 2484.38623047 C-696.79872803 2483.81437012 -697.97685059 2483.24250977 -699.19067383 2482.65332031 C-700.23102783 2482.12432129 -701.27138184 2481.59532227 -702.34326172 2481.05029297 C-703.22475388 2480.65424866 -704.10624603 2480.25820435 -705.01445007 2479.85015869 C-707.34326172 2478.05029297 -707.34326172 2478.05029297 -707.88839722 2475.26229858 C-707.84498199 2474.07004669 -707.80156677 2472.8777948 -707.75683594 2471.64941406 C-707.73680952 2470.95844824 -707.7167831 2470.26748241 -707.69614983 2469.55557823 C-707.61041049 2467.05149606 -707.47898132 2464.55215683 -707.34326172 2462.05029297 C-707.29563942 2461.07435432 -707.24801712 2460.09841568 -707.19895172 2459.09290314 C-706.81193097 2451.23725497 -706.34127143 2443.38754747 -705.85416675 2435.53754926 C-705.67943525 2432.70949779 -705.50823044 2429.88123685 -705.33699459 2427.0529719 C-704.77317962 2417.74187515 -704.19739834 2408.43153442 -703.61981916 2399.12128305 C-703.41673676 2395.84373018 -703.21457439 2392.56612084 -703.0124374 2389.28850955 C-698.17662589 2310.88439054 -693.03129841 2232.50008973 -664.03076172 1878.17529297 C-663.86341522 1876.56986633 -663.86341522 1876.56986633 -663.69268799 1874.93200684 C-661.32975186 1852.50974439 -657.52051244 1830.53878846 -652.28076172 1808.61279297 C-652.04404755 1807.61337677 -651.80733337 1806.61396057 -651.56344604 1805.58425903 C-633.86899723 1730.95421565 -613.10230628 1646.99909868 -564.34326172 1586.05029297 C-563.37646484 1584.77992188 -563.37646484 1584.77992188 -562.39013672 1583.48388672 C-543.30081735 1559.03935753 -517.79074587 1538.00444667 -486.34326172 1533.05029297 C-484.13806095 1532.81321262 -481.93297173 1532.62828267 -479.7221508 1532.45165062 C-467.24505304 1531.44112587 -455.22833851 1528.95662193 -443.02294922 1526.26123047 C-440.85936348 1525.79223638 -438.69555045 1525.32428974 -436.53152466 1524.85733032 C-430.90471304 1523.64056196 -425.28077805 1522.41100998 -419.6574707 1521.17816162 C-412.7794048 1519.67250139 -405.89830065 1518.18079875 -399.01730537 1516.68859291 C-393.67672467 1515.53041351 -388.33675277 1514.36966354 -382.99850464 1513.20077515 C-382.02519196 1512.98840714 -381.05187927 1512.77603912 -380.04907227 1512.55723572 C-378.22873633 1512.16005402 -376.40873916 1511.76131546 -374.58914185 1511.36076355 C-368.56910948 1510.05029297 -368.56910948 1510.05029297 -366.34326172 1510.05029297 C-366.6689917 1509.40930664 -366.99472168 1508.76832031 -367.33032227 1508.10791016 C-375.71212576 1491.57530351 -383.75217651 1474.92064951 -391.43243408 1458.04907227 C-392.37941808 1455.97094909 -393.32966958 1453.89434068 -394.28027344 1451.81787109 C-434.14061781 1364.63892096 -466.27510105 1273.95066765 -521.34326172 987.05029297 C-521.38994995 986.20515137 -521.43663818 985.36000977 -521.48474121 984.48925781 C-522.12660129 972.50307335 -522.40759628 960.60503065 -522.05419922 948.60498047 C-522.00005932 946.33025872 -521.94667706 944.05551881 -521.89404297 941.78076172 C-521.81420961 938.34596804 -521.71785333 934.91591602 -521.56835938 931.48339844 C-520.84789114 914.1749483 -523.73080286 902.58536926 -532.0824585 887.45141602 C-534.72497544 882.41890324 -536.24469862 877.0887947 -537.71826172 871.61279297 C-538.0336792 870.49211426 -538.34909668 869.37143555 -538.67407227 868.21679688 C-549.74561507 827.99217399 -557.80829538 780.20179205 -536.71826172 741.73779297 C-533.24808941 735.94294213 -529.10014927 731.13337066 -524.29199219 726.39868164 C-521.20075884 723.30494486 -519.81288671 721.38808126 -519.34326172 717.05029297 C-519.64550004 714.624418 -519.64550004 714.624418 -520.34716797 712.14013672 C-520.59039795 711.16915039 -520.83362793 710.19816406 -521.08422852 709.19775391 C-521.49088745 707.60882324 -521.49088745 707.60882324 -521.90576172 705.98779297 C-528.34489842 679.39524141 -532.23587598 652.31677097 -534.34326172 625.05029297 C-534.48465576 623.3546521 -534.48465576 623.3546521 -534.62890625 621.62475586 C-535.63221513 608.09803426 -535.58695347 594.54529824 -535.59326172 580.98779297 C-535.59393646 579.68172089 -535.59461121 578.3756488 -535.5953064 577.02999878 C-535.57722683 554.9075427 -534.8561878 533.0330966 -532.34326172 511.05029297 C-532.21597687 509.93439789 -532.21597687 509.93439789 -532.08612061 508.79595947 C-525.023957 447.79768961 -510.24560147 387.68399519 -486.34326172 331.05029297 C-485.88661133 329.96635254 -485.42996094 328.88241211 -484.95947266 327.765625 C-472.76249596 299.07857315 -458.7095755 271.56941774 -442.34326172 245.05029297 C-441.79686035 244.15503906 -441.25045898 243.25978516 -440.6875 242.33740234 C-433.45462215 230.49478243 -425.64724508 219.16568709 -417.34326172 208.05029297 C-416.79492676 207.31504395 -416.2465918 206.57979492 -415.68164062 205.82226562 C-409.3347157 197.34292305 -402.80989502 189.06798939 -395.89794922 181.04248047 C-393.4464081 178.17110356 -391.07766767 175.24750939 -388.71826172 172.30029297 C-385.19870625 167.96998276 -381.43919579 164.03937307 -377.44482422 160.14794922 C-375.55662766 158.26326232 -373.81713352 156.33412201 -372.09326172 154.30029297 C-365.16338502 146.23966715 -357.45604243 138.65902187 -349.35498047 131.78076172 C-346.86042569 129.63496023 -344.4510719 127.4044362 -342.03076172 125.17529297 C-336.62602163 120.25786551 -331.06133498 115.59672677 -325.34326172 111.05029297 C-324.72660645 110.55577637 -324.10995117 110.06125977 -323.47460938 109.55175781 C-280.22576339 74.94640246 -231.53403152 48.45561471 -179.34326172 30.05029297 C-178.45670898 29.73108887 -177.57015625 29.41188477 -176.65673828 29.08300781 C-120.09729604 8.7566121 -59.80664645 1.28361838 0 0 Z " fill="#F9C696" transform="translate(1453.34326171875,123.94970703125)"/>
<path d="M0 0 C3.10886385 2.99294012 5.76436873 5.8910768 8.125 9.5 C15.88000781 20.78765778 25.14057528 32.42031824 37.0625 39.4375 C40 42 40 42 40.4375 44.1015625 C40.52330748 45.79089716 40.59138122 47.48119774 40.64453125 49.171875 C41.57881977 56.60511555 46.14385895 64.39874632 52 69 C59.84815232 74.65333006 67.31542073 76.91200074 77 76 C86.94130905 74.21026357 93.99735385 69.29951807 99.75390625 61.0625 C102.59713395 56.35646794 103.90120009 51.78191625 104.6875 46.375 C105.96149884 39.15943136 110.19719132 33.13755634 114 27 C116.02919372 30.55178565 116.8555165 34.13542598 117.77734375 38.10546875 C118.12279018 39.56255275 118.46918736 41.01941158 118.81640625 42.47607422 C118.9983252 43.24336853 119.18024414 44.01066284 119.36767578 44.8012085 C126.85459192 76.15467469 136.84378334 107.15805693 151.84423828 135.78271484 C153.16226468 138.31129865 154.45404832 140.85257713 155.74609375 143.39453125 C175.21797882 181.49869096 199.58075224 217.40954805 227.39453125 249.92578125 C229.75864187 252.69699155 232.03843958 255.52927189 234.3125 258.375 C239.66082248 264.94798309 245.50153296 271.04538871 251.31591797 277.20263672 C253.7233703 279.77202843 256.07758784 282.38686329 258.4375 285 C266.79946839 294.14126426 275.44946192 303.21074444 284.92578125 311.20703125 C287.21081174 313.1822271 289.41348371 315.23180094 291.61987305 317.29394531 C297.87707612 323.13869464 304.31875683 328.64099499 311 334 C312.19273342 334.9827665 313.38405401 335.96724931 314.57421875 336.953125 C340.24086736 358.15233313 368.17588623 378.08794311 398 393 C398 447.12 398 501.24 398 557 C379.57900592 561.60524852 379.57900592 561.60524852 372.15234375 563.10546875 C371.32593887 563.27500565 370.499534 563.44454254 369.64808655 563.61921692 C367.93736036 563.96940052 366.22629666 564.31793947 364.51489258 564.66479492 C361.90812068 565.19345824 359.30264521 565.72819326 356.69726562 566.26367188 C355.01569692 566.60712315 353.33405879 566.95023475 351.65234375 567.29296875 C350.88558823 567.45024948 350.1188327 567.60753021 349.32884216 567.76957703 C344.898442 568.66448706 340.48072654 569.40446742 336 570 C338.71804295 594.01987008 341.58678797 618.01843678 344.625 642 C344.7707547 643.15815216 344.9165094 644.31630432 345.06668091 645.509552 C346.81514493 659.38194706 348.7356537 673.20245555 351 687 C352.02630323 693.53944289 353.01403285 700.08462673 353.99223328 706.63140869 C361.2143592 754.93889835 369.03688649 803.13499038 377.92285156 851.16552734 C378.86008339 856.2344163 379.7877514 861.30501423 380.71343994 866.37602234 C386.54892139 898.32704528 392.7218179 930.20274567 399.04150391 962.06071472 C400.40343826 968.94004465 401.73726441 975.82389623 403.0390625 982.71484375 C404.62710992 991.11709413 406.28841577 999.50330575 407.97219849 1007.88685608 C410.56252176 1020.78590582 413.1112819 1033.69311141 415.65673828 1046.60107422 C416.21802908 1049.44695271 416.7802373 1052.29264758 417.34326172 1055.13818359 C420.43575042 1070.76923707 423.49320123 1086.40328808 426.34436035 1102.08065796 C427.58667293 1108.88914187 428.93869725 1115.6673376 430.375 1122.4375 C430.601875 1123.51354492 430.82875 1124.58958984 431.0625 1125.69824219 C431.248125 1126.57641602 431.43375 1127.45458984 431.625 1128.359375 C433.28180969 1136.28769665 434.83175445 1144.23644208 436.375 1152.1875 C436.59511246 1153.32153763 436.59511246 1153.32153763 436.81967163 1154.47848511 C439.29975097 1167.27333591 441.72402418 1180.07859752 444.13708496 1192.88623047 C445.90588027 1202.27246898 447.70043395 1211.65181272 449.59594727 1221.01342773 C450.81125389 1227.0225498 451.97412902 1233.04072682 453.125 1239.0625 C455.55695459 1251.75824644 458.02616079 1264.44671237 460.5055542 1277.13327026 C460.95801029 1279.44995639 461.40971848 1281.76678871 461.86065674 1284.08377075 C462.50271089 1287.38177211 463.147517 1290.67922462 463.79296875 1293.9765625 C463.9855275 1294.96838028 464.17808624 1295.96019806 464.3764801 1296.98207092 C464.65261391 1298.388209 464.65261391 1298.388209 464.93432617 1299.82275391 C465.09245285 1300.63257721 465.25057953 1301.44240051 465.41349792 1302.27676392 C465.98459414 1305.11859877 465.98459414 1305.11859877 467.01489544 1308.2988987 C468.54065947 1314.43115778 468.32371364 1320.65753355 468.34817505 1326.94085693 C468.36051699 1328.35814746 468.37367077 1329.77543111 468.38756263 1331.1927073 C468.42298137 1335.07357646 468.44598753 1338.95443284 468.466676 1342.83540487 C468.48601569 1346.16745956 468.51262023 1349.49944098 468.53921391 1352.83144447 C468.63412776 1364.75731021 468.69965042 1376.68328028 468.7578125 1388.609375 C468.76242766 1389.55100042 468.76704282 1390.49262584 468.77179784 1391.46278536 C468.86268622 1410.17225806 468.93965559 1428.88177857 468.99325752 1447.59139633 C469.00523483 1451.69992889 469.01740631 1455.80846082 469.02978516 1459.91699219 C469.0343841 1461.4486418 469.0343841 1461.4486418 469.03907596 1463.01123384 C469.09051873 1479.5574397 469.2043098 1496.10262836 469.34271576 1512.64831087 C469.48374629 1529.64851213 469.5641371 1546.64818733 469.58675659 1563.64896417 C469.60106295 1573.18954915 469.64244652 1582.72836315 469.75281143 1592.26836395 C469.84672336 1600.39157976 469.88621174 1608.51275791 469.85504843 1616.63649723 C469.84085351 1620.77936808 469.85227031 1624.91787901 469.9342041 1629.06005859 C470.42505602 1655.20336078 470.42505602 1655.20336078 464.47213364 1661.55530548 C461.19063201 1664.31893662 457.72489912 1666.32922906 453.83459926 1668.11293173 C451.42404527 1669.27848652 449.50336719 1670.83164796 447.5 1672.59375 C446.91210693 1673.07980713 446.32421387 1673.56586426 445.71850586 1674.06665039 C445.15139893 1674.53965576 444.58429199 1675.01266113 444 1675.5 C438.10040987 1680.35663341 432.07376942 1684.99549433 425.9362793 1689.54638672 C420.67959754 1693.45650708 415.55389477 1697.50998229 410.45532227 1701.62329102 C405.29944307 1705.77860161 400.06813102 1709.82585419 394.8046875 1713.84375 C391.99043247 1715.89420215 391.99043247 1715.89420215 389.8203125 1718.28125 C385.31430914 1721.02729083 381.16049644 1720.3096725 376 1720 C374.53503496 1719.92705938 373.07002476 1719.85502257 371.60498047 1719.78369141 C366.21273403 1719.50642252 360.82525221 1719.16561903 355.4375 1718.8125 C353.94046036 1718.71455139 353.94046036 1718.71455139 352.41317749 1718.61462402 C160.78083948 1705.89041974 160.78083948 1705.89041974 109 1680 C116.84148497 1589.89464374 128.29747592 1499.61340683 156.359375 1375.5324707 C159.91487987 1363.14314343 159.34318388 1352.06884753 157.4375 1339.4375 C157.17078491 1337.64082886 157.17078491 1337.64082886 156.89868164 1335.80786133 C143.45482528 1248.11763454 117.09734357 1162.04008068 74.59921265 1020.46911621 C72.70665087 1014.32043767 70.83931473 1008.16482274 69 1002 C68.89629593 1003.14884926 68.89629593 1003.14884926 68.79049683 1004.32090759 C64.71839012 1049.29122763 60.20255506 1094.20716967 55.29948902 1139.09443069 C54.85643393 1143.15319949 54.41443203 1147.21208167 53.97280121 1151.27100563 C45.12179562 1232.6068963 36.0583932 1313.9195489 27.0223999 1395.23504639 C24.40055694 1418.82937738 21.78020109 1442.42387261 19.16315651 1466.01873636 C18.77428288 1469.52472869 18.38531638 1473.0307107 17.99626732 1476.53668356 C12.88218176 1522.62463348 7.81370885 1568.71632206 3.00424194 1614.83728361 C2.63615344 1618.36520334 2.26629082 1621.89293608 1.89632893 1625.42065978 C1.65265316 1627.75394329 1.41227463 1630.08754889 1.17220306 1632.42120552 C1.02890964 1633.79162735 0.88547911 1635.16203485 0.74188232 1636.53242493 C0.56130846 1638.27828872 0.56130846 1638.27828872 0.37708664 1640.05942249 C0.06964136 1642.45692638 -0.34045869 1644.67988206 -1 1647 C-7.04652146 1645.79010948 -12.76419518 1644.18226064 -18.546875 1642.05078125 C-19.34341995 1641.76163849 -20.1399649 1641.47249573 -20.96064758 1641.17459106 C-23.55977804 1640.22770412 -26.15515986 1639.27107706 -28.75 1638.3125 C-29.64927216 1637.98186554 -30.54854431 1637.65123108 -31.47506714 1637.31057739 C-77.35306212 1620.4210392 -121.93747278 1600.64760329 -165.9375 1579.375 C-166.6587204 1579.0268927 -167.3799408 1578.6787854 -168.12301636 1578.32012939 C-170.17581921 1577.32817531 -172.22688108 1576.33271847 -174.27734375 1575.3359375 C-175.45546631 1574.76407715 -176.63358887 1574.1922168 -177.84741211 1573.60302734 C-178.88776611 1573.07402832 -179.92812012 1572.5450293 -181 1572 C-181.88149216 1571.60395569 -182.76298431 1571.20791138 -183.67118835 1570.79986572 C-186 1569 -186 1569 -186.5451355 1566.21200562 C-186.50172028 1565.01975372 -186.45830505 1563.82750183 -186.41357422 1562.59912109 C-186.3935478 1561.90815527 -186.37352139 1561.21718945 -186.35288811 1560.50528526 C-186.26714877 1558.00120309 -186.1357196 1555.50186386 -186 1553 C-185.9523777 1552.02406136 -185.9047554 1551.04812271 -185.85569 1550.04261017 C-185.46866926 1542.186962 -184.99800971 1534.3372545 -184.51090503 1526.48725629 C-184.33617353 1523.65920482 -184.16496872 1520.83094388 -183.99373287 1518.00267893 C-183.4299179 1508.69158218 -182.85413662 1499.38124145 -182.27655745 1490.07099009 C-182.07347504 1486.79343721 -181.87131267 1483.51582787 -181.66917568 1480.23821658 C-176.83336417 1401.83409757 -171.68803669 1323.44979676 -142.6875 969.125 C-142.57593567 968.05471558 -142.46437134 966.98443115 -142.34942627 965.88171387 C-139.98649014 943.45945142 -136.17725072 921.48849549 -130.9375 899.5625 C-130.70078583 898.5630838 -130.46407166 897.5636676 -130.22018433 896.53396606 C-112.52573551 821.90392268 -91.75904457 737.94880571 -43 677 C-42.03320312 675.72962891 -42.03320312 675.72962891 -41.046875 674.43359375 C-21.95755563 649.98906456 3.55251585 628.9541537 35 624 C37.20520077 623.76291965 39.41028999 623.5779897 41.62111092 623.40135765 C54.09820868 622.3908329 66.11492321 619.90632896 78.3203125 617.2109375 C80.48389824 616.74194341 82.64771127 616.27399677 84.81173706 615.80703735 C90.43854868 614.59026899 96.06248367 613.36071701 101.68579102 612.12786865 C108.56385692 610.62220842 115.44496107 609.13050578 122.32595634 607.63829994 C127.66653705 606.48012054 133.00650894 605.31937057 138.34475708 604.15048218 C139.31806976 603.93811417 140.29138245 603.72574615 141.29418945 603.50694275 C143.11452538 603.10976105 144.93452256 602.71102249 146.75411987 602.31047058 C152.77415224 601 152.77415224 601 155 601 C154.51140503 600.03852051 154.51140503 600.03852051 154.01293945 599.05761719 C145.63113596 582.52501055 137.59108521 565.87035654 129.91082764 548.9987793 C128.96384363 546.92065612 128.01359214 544.84404771 127.06298828 542.76757812 C87.20264391 455.588628 55.06816067 364.90037468 0 0 Z " fill="#DE6050" transform="translate(932,1033)"/>
<path d="M0 0 C0.33 0 0.66 0 1 0 C1.75277365 5.36532268 2.14878881 10.59445784 2.14526367 16.01611328 C2.15030159 17.15525681 2.15030159 17.15525681 2.15544128 18.31741333 C2.16489751 20.81839674 2.1668943 23.31931232 2.16796875 25.8203125 C2.17119403 27.60114568 2.17455898 29.38197861 2.17805481 31.16281128 C2.18403939 34.91014209 2.1858963 38.65744991 2.18530273 42.40478516 C2.18522274 46.16460109 2.19195668 49.92429189 2.20581055 53.68408203 C2.32545546 86.68217734 1.2112482 119.49888878 -1.75 152.375 C-1.83270142 153.30815033 -1.91540283 154.24130066 -2.00061035 155.20272827 C-8.3268384 225.99416305 -20.69371034 296.08556831 -38 365 C-38.29877045 366.19541412 -38.29877045 366.19541412 -38.60357666 367.41497803 C-48.29032234 406.14317841 -60.02932484 444.25253093 -73 482 C-73.49316604 483.44042901 -73.9863301 484.8808587 -74.47949219 486.32128906 C-83.62729309 512.98336347 -93.83401337 539.1763807 -104.6875 565.1875 C-105.173396 566.35434326 -105.65929199 567.52118652 -106.15991211 568.72338867 C-110.8747068 579.91995433 -115.93900915 590.95666205 -121 602 C-85.29221097 610.46165818 -85.29221097 610.46165818 -49.125 616.4375 C-14.54652776 620.63230637 12.50413504 638.83382365 34.10546875 665.83203125 C82.47460076 727.75041795 104.88248308 807.88286474 122.9375 883.125 C123.15906769 884.04553162 123.38063538 884.96606323 123.60891724 885.91448975 C128.79199028 907.55002382 133.30979076 929.18565722 135.75 951.3125 C135.9275885 952.88721573 135.9275885 952.88721573 136.10876465 954.4937439 C146.57916603 1047.87733266 153.14522973 1141.76890544 172.95962906 1425.3228569 C173.18502903 1428.83648159 173.41169301 1432.35002305 173.63851929 1435.86355591 C173.98690816 1441.27063997 174.33008403 1446.67802976 174.66877747 1452.0857296 C174.79054103 1454.02213974 174.91364637 1455.95846612 175.0382843 1457.89469337 C175.57580746 1466.26973648 176.07425335 1474.64600602 176.26220703 1483.03710938 C176.28727325 1484.11762573 176.31233948 1485.19814209 176.33816528 1486.31140137 C175.94956213 1489.4010086 175.29857558 1490.37393199 172.94921875 1492.3515625 C170.92553711 1493.52929688 170.92553711 1493.52929688 168.6875 1494.625 C167.09836101 1495.52238054 165.50983944 1496.42085515 163.921875 1497.3203125 C163.09880859 1497.7627832 162.27574219 1498.20525391 161.42773438 1498.66113281 C158.40187738 1500.32985765 155.52740882 1502.18276952 152.63452148 1504.06982422 C111.73564019 1530.6934098 68.35439563 1553.7982395 24.79266357 1575.69128418 C23.33521433 1576.42401749 21.8783599 1577.15793544 20.42218018 1577.89318848 C10.4183129 1582.93926582 0.29884201 1587.5889845 -10 1592 C-12.61146573 1571.9192692 -14.82792935 1551.79994963 -17.02910805 1531.67110586 C-17.56598104 1526.76590033 -18.10513138 1521.86094504 -18.64404297 1516.95596313 C-19.58289909 1508.40849001 -20.5206152 1499.86089253 -21.45748901 1491.3132019 C-23.88461334 1469.16961393 -26.31631552 1447.02652861 -28.74929547 1424.88358331 C-29.15875499 1421.15688833 -29.56813841 1417.430185 -29.9775219 1413.70348167 C-34.13412611 1375.86927706 -38.31968695 1338.03835958 -42.52287102 1300.20930672 C-43.38923296 1292.41193609 -44.25498356 1284.61449767 -45.12055155 1276.81703887 C-45.74714358 1271.17244768 -46.3738122 1265.52786499 -47.00046973 1259.88328107 C-47.15651174 1258.4777258 -47.31255063 1257.07217018 -47.4685864 1255.66661422 C-49.22320238 1239.86122666 -50.97932657 1224.05601022 -52.74069214 1208.25137329 C-63.91907671 1107.94093212 -63.91907671 1107.94093212 -68.69140625 1060.22265625 C-68.81351947 1059.0056661 -68.81351947 1059.0056661 -68.93809962 1057.7640903 C-70.61469885 1041.05285144 -72.23677806 1024.34654732 -73.36984348 1007.58738041 C-73.4744459 1006.09972502 -73.4744459 1006.09972502 -73.5811615 1004.58201599 C-73.63865539 1003.71581351 -73.69614927 1002.84961103 -73.7553854 1001.95716 C-73.79678362 999.99856548 -73.79678362 999.99856548 -75 999 C-103.60212767 1130.7313789 -103.60212767 1130.7313789 -132.9375 1310.1875 C-133.05432129 1311.23204346 -133.17114258 1312.27658691 -133.29150391 1313.3527832 C-134.54923111 1325.74788036 -134.13903262 1336.21035173 -130.5625 1348.1875 C-129.80600297 1350.85904845 -129.07051943 1353.53612892 -128.33984375 1356.21484375 C-128.14712891 1356.92009186 -127.95441406 1357.62533997 -127.75585938 1358.35195923 C-105.78283101 1439.7194053 -97.40977283 1525.84823405 -88.77734375 1609.546875 C-88.6955336 1610.32073547 -88.61372345 1611.09459595 -88.5294342 1611.89190674 C-88.08814862 1616.29242287 -87.92782539 1620.58538038 -88 1625 C-177.82951938 1659.04876876 -270.23743226 1684.53272598 -374.5625 1701.125 C-375.55825043 1701.28174194 -376.55400085 1701.43848389 -377.57992554 1701.59997559 C-380.38638675 1702.0385281 -383.19454808 1702.46326691 -386.00390625 1702.8828125 C-387.24272049 1703.07730484 -387.24272049 1703.07730484 -388.50656128 1703.27572632 C-394.29022549 1704.11286843 -398.86444208 1704.40571964 -403.9375 1701.06640625 C-404.948125 1700.24011719 -405.95875 1699.41382812 -407 1698.5625 C-408.15063872 1697.6410959 -409.30303968 1696.72188891 -410.45703125 1695.8046875 C-411.3380249 1695.10037598 -411.3380249 1695.10037598 -412.23681641 1694.38183594 C-414.98901029 1692.22489639 -417.83117079 1690.20339344 -420.6875 1688.1875 C-421.86339468 1687.35432673 -423.03917259 1686.52098864 -424.21484375 1685.6875 C-424.82440918 1685.25566406 -425.43397461 1684.82382813 -426.06201172 1684.37890625 C-430.4013028 1681.29143887 -434.71085709 1678.162499 -439.02587891 1675.04125977 C-442.95729875 1672.19772485 -446.89123604 1669.35787658 -450.83203125 1666.52734375 C-451.62448242 1665.95733643 -452.41693359 1665.3873291 -453.23339844 1664.80004883 C-454.72917165 1663.72431508 -456.22584088 1662.64982551 -457.72363281 1661.5769043 C-459.07441474 1660.60447368 -460.41600586 1659.61908584 -461.74589986 1658.61827862 C-463.9649252 1656.96901455 -463.9649252 1656.96901455 -466.33688909 1655.65004623 C-470.07119576 1653.29049387 -472.56661655 1651.48264901 -473.83619153 1647.13930345 C-474.16742536 1643.50447678 -474.20418553 1639.96426074 -474.14958191 1636.31448364 C-474.16067639 1634.91202326 -474.1756882 1633.50958936 -474.19426519 1632.10720813 C-474.23373929 1628.26062932 -474.21715851 1624.41603493 -474.19118106 1620.56941652 C-474.17286216 1616.41571808 -474.20634938 1612.262388 -474.233078 1608.10877991 C-474.27699229 1599.96296335 -474.27199739 1591.81787546 -474.24938925 1583.67199929 C-474.23175904 1577.02683107 -474.23142616 1570.38186989 -474.24328041 1563.73669052 C-474.24494823 1562.78873602 -474.24661605 1561.84078153 -474.24833441 1560.86410113 C-474.25178473 1558.93747364 -474.25526837 1557.01084621 -474.25878493 1555.08421884 C-474.28965211 1536.9944781 -474.26449936 1518.90514025 -474.22079752 1500.81544755 C-474.18491652 1485.39884953 -474.19840671 1469.98295507 -474.2487793 1454.56640625 C-474.30745894 1436.60418456 -474.33216099 1418.64239289 -474.30691797 1400.68007934 C-474.30430331 1398.74791017 -474.30173682 1396.81574093 -474.29921913 1394.88357162 C-474.29797136 1393.93338517 -474.2967236 1392.98319872 -474.29543802 1392.00421873 C-474.28904518 1385.4126224 -474.30595474 1378.82133916 -474.33238792 1372.22980118 C-474.47231162 1334.49118948 -474.48643863 1298.23845546 -464.87033075 1261.45446265 C-462.42683092 1252.06868222 -460.7799963 1242.55039438 -459.125 1233 C-458.84695279 1231.42518125 -458.56805141 1229.85051302 -458.28819752 1228.27601433 C-458.16817775 1227.60017355 -458.04815797 1226.92433277 -457.92450124 1226.22801197 C-456.81928144 1220.05577175 -455.54865221 1213.96493555 -454.0546875 1207.875 C-452.48909509 1201.45578393 -451.25152164 1195.02314502 -450.15625 1188.5078125 C-448.57158382 1179.09803321 -446.81831485 1169.72804085 -444.96875 1160.3671875 C-444.83211504 1159.67534048 -444.69548008 1158.98349346 -444.55470467 1158.27068138 C-443.69035411 1153.89834425 -442.82202082 1149.526804 -441.95293045 1145.15540695 C-441.1798247 1141.26298656 -440.41021992 1137.36987419 -439.64038086 1133.47680664 C-438.37727263 1127.0908886 -437.11288488 1120.70522572 -435.84716797 1114.31982422 C-433.08017477 1100.36012099 -430.31661458 1086.39975037 -427.5625 1072.4375 C-427.31387207 1071.17810608 -427.06524414 1069.91871216 -426.80908203 1068.62115479 C-423.47881162 1051.73743918 -420.22554466 1034.84269544 -417.22875977 1017.89624023 C-415.85742146 1010.20691797 -414.24366141 1002.63022192 -412.41001892 995.03962708 C-411.01428823 989.2089977 -409.95590028 983.36642912 -409.0625 977.4375 C-407.72053746 968.54617187 -405.9345914 959.77612985 -404.07943726 950.980896 C-401.43700831 938.40841948 -399.00357718 925.7961695 -396.57196808 913.1815033 C-396.18086845 911.15310617 -395.78919915 909.12481972 -395.3973999 907.09655762 C-388.8091337 872.98244806 -382.36144268 838.84321746 -376.4498291 804.60461426 C-376.1308165 802.75745773 -375.81135339 800.91037898 -375.49157715 799.06335449 C-371.11004074 773.7536078 -366.75045708 748.45250772 -363.16796875 723.015625 C-362.23135732 716.42046349 -361.17364303 709.84844522 -360.10546875 703.2734375 C-357.90525028 689.66838146 -355.99008731 676.02948929 -354.125 662.375 C-353.95458191 661.1322934 -353.78416382 659.88958679 -353.60858154 658.60922241 C-351.35465846 642.16407246 -349.13355989 625.71443054 -347.00531006 609.25250244 C-346.75759902 607.33756211 -346.50852249 605.42279775 -346.25787354 603.50823975 C-344.45525608 589.69994835 -343.1111478 575.88074688 -342 562 C-343.0441935 561.81287193 -343.0441935 561.81287193 -344.10948181 561.6219635 C-349.90013666 560.57777842 -355.67749596 559.49122406 -361.44140625 558.30859375 C-362.17576401 558.158423 -362.91012177 558.00825226 -363.66673279 557.85353088 C-365.19340383 557.54079384 -366.71993896 557.22739255 -368.24633789 556.91333008 C-370.5887613 556.4321049 -372.9320539 555.955271 -375.27539062 555.47851562 C-376.76828387 555.17214145 -378.26112445 554.86551049 -379.75390625 554.55859375 C-380.80222374 554.34607216 -380.80222374 554.34607216 -381.87171936 554.1292572 C-386.77123909 553.11438045 -386.77123909 553.11438045 -389 552 C-389 500.52 -389 449.04 -389 396 C-382.07 392.37 -375.14 388.74 -368 385 C-363.87858627 382.59040954 -359.83067753 380.18644405 -355.8125 377.625 C-354.81476563 376.99489014 -353.81703125 376.36478027 -352.7890625 375.71557617 C-344.3145762 370.30983591 -336.12413067 364.56889782 -328.07617188 358.54980469 C-326.00271625 357.0020276 -323.91697373 355.4722315 -321.828125 353.9453125 C-314.00718498 348.1965079 -306.52795574 342.17041331 -299.21875 335.78515625 C-296.43678403 333.35831742 -293.57946885 331.04528251 -290.6875 328.75 C-276.71570136 317.3203481 -264.13802753 304.23539844 -251.375 291.5 C-250.31546616 290.44448441 -250.31546616 290.44448441 -249.23452759 289.36764526 C-247.1819844 287.32100113 -245.1333274 285.27054807 -243.0859375 283.21875 C-242.47601456 282.61080093 -241.86609161 282.00285187 -241.23768616 281.3764801 C-237.50698987 277.62603128 -233.96628705 273.75350177 -230.51025391 269.74836731 C-228.5888682 267.52404732 -226.60812914 265.35678494 -224.625 263.1875 C-220.80402862 258.94911157 -217.15752669 254.60120897 -213.5703125 250.1640625 C-211.64819539 247.7871519 -209.70034731 245.43324057 -207.7421875 243.0859375 C-200.3876666 234.25682594 -193.28232013 225.29847376 -186.48876953 216.03027344 C-185.49828188 214.67951986 -184.50447431 213.33119431 -183.50732422 211.98535156 C-167.35676337 190.18339898 -152.60358777 167.46960741 -139 144 C-138.53158691 143.19304687 -138.06317383 142.38609375 -137.58056641 141.5546875 C-123.35600149 116.8881794 -111.71682235 91.5349852 -102.6875 64.5625 C-102.29582642 63.39503235 -102.29582642 63.39503235 -101.89624023 62.20397949 C-98.89272404 53.21382105 -96.10306289 44.25280157 -94 35 C-92 35 -92 35 -89.625 37.1875 C-87.07753753 40.32169581 -86.14442954 43.44652582 -85.0625 47.3125 C-82.23195297 57.1355051 -78.47716045 62.81124279 -69.46484375 67.80859375 C-60.55197428 72.11671608 -51.72501419 72.27825008 -42.3125 69.03515625 C-34.49068628 65.53383761 -28.38469795 59.48930472 -24.96484375 51.6171875 C-21.94028521 42.64198587 -22.61574506 34.9860764 -25 26 C-24.56244385 25.60321045 -24.1248877 25.2064209 -23.67407227 24.79760742 C-15.71940105 17.55173724 -8.06859251 10.43666614 -1.50390625 1.87890625 C-0.75947266 0.94884766 -0.75947266 0.94884766 0 0 Z " fill="#DE6050" transform="translate(1960,1038)"/>
<path d="M0 0 C4.5552102 -0.0888447 9.10248557 -0.05017566 13.65673828 0.05029297 C14.5908252 0.06817871 15.52491211 0.08606445 16.48730469 0.10449219 C69.21361688 1.22147143 121.41021293 8.74538402 171.65673828 25.05029297 C172.73036621 25.39672852 173.80399414 25.74316406 174.91015625 26.10009766 C230.37658436 44.18355953 281.94503484 72.54178123 326.65673828 110.05029297 C327.65833984 110.87787109 328.65994141 111.70544922 329.69189453 112.55810547 C342.12072533 122.87918985 353.71527297 134.02789382 365.15673828 145.42529297 C365.99342041 146.25730225 366.83010254 147.08931152 367.69213867 147.9465332 C372.55348794 152.82056383 377.18803754 157.81548995 381.65673828 163.05029297 C382.64157599 164.17993155 383.62722223 165.30886587 384.61376953 166.43701172 C391.25745442 174.0946061 397.61809459 181.9050435 403.65673828 190.05029297 C404.14223145 190.70449219 404.62772461 191.35869141 405.12792969 192.03271484 C417.49620148 208.77337158 429.31516807 225.97478252 439.65673828 244.05029297 C440.03717285 244.71496582 440.41760742 245.37963867 440.80957031 246.06445312 C443.82291314 251.35842975 446.75507076 256.69441623 449.65673828 262.05029297 C450.1248291 262.91122559 450.59291992 263.7721582 451.07519531 264.65917969 C486.52018562 330.18086187 507.44922996 403.16960293 516.39959717 476.94415283 C516.64516423 478.95549453 516.90094412 480.96558148 517.15722656 482.97558594 C522.46593523 526.2852061 522.73643504 573.70433289 516.93536377 616.96569824 C516.633221 619.22624242 516.34378875 621.48824086 516.0546875 623.75048828 C513.65070434 642.32773274 510.54597731 660.70277835 506.46923828 678.98779297 C506.30106598 679.74269012 506.13289368 680.49758728 505.95962524 681.27536011 C504.22186713 689.00072542 502.34773769 696.59380853 499.65673828 704.05029297 C498.40119141 704.22044922 497.14564453 704.39060547 495.85205078 704.56591797 C475.07798771 707.51169547 459.67734463 714.994752 446.38720703 731.94482422 C430.87262558 753.54568631 420.99055313 778.53120803 410.85113525 802.95227051 C390.46646573 852.03642894 390.46646573 852.03642894 371.65673828 871.05029297 C371.04185547 871.72576172 370.42697266 872.40123047 369.79345703 873.09716797 C365.1164318 878.1425508 359.54222983 881.54879799 353.65673828 885.05029297 C353.65673828 880.98086602 355.5019792 878.13340907 357.34423828 874.61279297 C367.88692613 853.89604272 374.94097476 831.78734212 379.65673828 809.05029297 C379.80981445 808.31794434 379.96289062 807.5855957 380.12060547 806.83105469 C387.26911998 771.81939767 386.41858212 735.83130669 378.65673828 701.05029297 C378.51010742 700.36016113 378.36347656 699.6700293 378.21240234 698.95898438 C372.57316479 672.51447663 360.21235373 648.079998 344.79638672 626.04663086 C335.32641847 612.50588023 328.3356799 598.55951751 322.65673828 583.05029297 C322.41745605 582.39963867 322.17817383 581.74898437 321.93164062 581.07861328 C315.73185598 563.96406435 311.45246598 546.21026579 307.48925781 528.46484375 C299.50870937 492.76992696 289.18220695 456.55662761 266.65673828 427.05029297 C265.95162109 426.12345703 265.24650391 425.19662109 264.52001953 424.24169922 C250.79468889 406.86942255 233.99082753 393.68606023 214.65673828 383.05029297 C214.04958984 382.71578125 213.44244141 382.38126953 212.81689453 382.03662109 C193.54768287 371.58724944 172.78035199 364.6557717 151.65673828 359.05029297 C150.78903809 358.81858398 149.92133789 358.586875 149.02734375 358.34814453 C126.98819001 352.55664783 104.36779384 348.82170242 81.65673828 347.05029297 C82.17623047 347.75412109 82.69572266 348.45794922 83.23095703 349.18310547 C94.0855296 364.55205664 97.8490851 381.38958491 95.16064453 400.03857422 C92.32679992 415.2004434 86.81866575 428.52615697 79.65673828 442.05029297 C78.65673828 440.05029297 78.65673828 440.05029297 79.21533203 438.22216797 C79.50537109 437.42294922 79.79541016 436.62373047 80.09423828 435.80029297 C85.1711785 417.91348043 81.94695274 397.51596671 73.05957031 381.42724609 C61.90323565 362.59435036 44.41111998 355.40291082 24.65673828 348.05029297 C23.93711914 347.77491699 23.2175 347.49954102 22.47607422 347.21582031 C1.98793856 339.41663741 -12.66268018 346.04768536 -31.90576172 354.48779297 C-50.90638122 363.13124066 -62.32506939 376.34551581 -69.73388672 395.67919922 C-74.64182823 411.69913508 -72.89151061 427.19233589 -68.34326172 443.05029297 C-71.54383906 440.38314518 -73.03109932 436.95030281 -74.71826172 433.23779297 C-75.02207764 432.57416748 -75.32589355 431.91054199 -75.63891602 431.22680664 C-84.60282378 411.31356936 -90.69930591 386.23327141 -82.68701172 364.88623047 C-76.41066575 351.64022124 -76.41066575 351.64022124 -71.34326172 347.05029297 C-76.76536079 346.94046206 -81.87302504 347.27404566 -87.22607422 348.18701172 C-88.31813171 348.3661335 -88.31813171 348.3661335 -89.43225098 348.5488739 C-91.77903207 348.93706712 -94.12374315 349.33617428 -96.46826172 349.73779297 C-97.67660675 349.94278412 -97.67660675 349.94278412 -98.90936279 350.1519165 C-149.91578556 358.83130159 -201.19215761 375.18053271 -241.34326172 409.05029297 C-241.94251465 409.54948242 -242.54176758 410.04867188 -243.15917969 410.56298828 C-254.0071117 419.61002178 -263.54847709 428.95036446 -272.34326172 440.05029297 C-273.51695312 441.48115234 -273.51695312 441.48115234 -274.71435547 442.94091797 C-282.26952495 452.36976949 -288.3557024 462.57313874 -294.34326172 473.05029297 C-294.73288086 473.72882324 -295.1225 474.40735352 -295.52392578 475.10644531 C-308.83165027 498.49449964 -317.3613673 524.5442683 -323.73535156 550.59375 C-324.40304854 553.29188937 -325.10018075 555.98148189 -325.80029297 558.67138672 C-329.24643066 572.01392812 -332.11236128 585.41359676 -334.73876953 598.93896484 C-344.66596382 650.03434612 -344.66596382 650.03434612 -355.34326172 666.05029297 C-354.8023646 669.13065622 -354.1399887 672.03486786 -353.34326172 675.05029297 C-352.87326966 676.96633736 -352.4059475 678.88303811 -351.94091797 680.80029297 C-351.69172607 681.8130127 -351.44253418 682.82573242 -351.18579102 683.86914062 C-348.4859767 694.87965096 -346.07027679 705.84333184 -344.34326172 717.05029297 C-344.15763672 718.10087891 -343.97201172 719.15146484 -343.78076172 720.23388672 C-340.18660674 751.58647074 -347.29288419 778.39939471 -361.98876953 805.80493164 C-372.40995441 825.25981862 -376.16000024 841.24192421 -370.015625 862.8671875 C-368.45909634 867.92110154 -366.56731576 872.84618779 -364.61279297 877.75732422 C-363.66698154 880.21061355 -362.87903283 882.48762873 -362.34326172 885.05029297 C-408.43147094 862.40448152 -431.31224725 809.57042247 -448.91064453 764.63037109 C-459.03524862 735.1308578 -459.03524862 735.1308578 -479.71826172 713.48779297 C-489.21565521 709.97084009 -498.21016196 712.40404268 -507.34326172 716.05029297 C-509.59347113 717.2914241 -511.67831258 718.5901115 -513.75732422 720.09716797 C-515.34326172 721.05029297 -515.34326172 721.05029297 -518.34326172 721.05029297 C-526.27659728 689.41602895 -531.82870464 657.58497052 -534.34326172 625.05029297 C-534.43752441 623.91986572 -534.53178711 622.78943848 -534.62890625 621.62475586 C-535.63221513 608.09803426 -535.58695347 594.54529824 -535.59326172 580.98779297 C-535.59427383 579.02868484 -535.59427383 579.02868484 -535.5953064 577.02999878 C-535.57722683 554.9075427 -534.8561878 533.0330966 -532.34326172 511.05029297 C-532.21597687 509.93439789 -532.21597687 509.93439789 -532.08612061 508.79595947 C-525.023957 447.79768961 -510.24560147 387.68399519 -486.34326172 331.05029297 C-485.88661133 329.96635254 -485.42996094 328.88241211 -484.95947266 327.765625 C-472.76249596 299.07857315 -458.7095755 271.56941774 -442.34326172 245.05029297 C-441.79686035 244.15503906 -441.25045898 243.25978516 -440.6875 242.33740234 C-433.45462215 230.49478243 -425.64724508 219.16568709 -417.34326172 208.05029297 C-416.79492676 207.31504395 -416.2465918 206.57979492 -415.68164062 205.82226562 C-409.3347157 197.34292305 -402.80989502 189.06798939 -395.89794922 181.04248047 C-393.4464081 178.17110356 -391.07766767 175.24750939 -388.71826172 172.30029297 C-385.19870625 167.96998276 -381.43919579 164.03937307 -377.44482422 160.14794922 C-375.55662766 158.26326232 -373.81713352 156.33412201 -372.09326172 154.30029297 C-365.16338502 146.23966715 -357.45604243 138.65902187 -349.35498047 131.78076172 C-346.86042569 129.63496023 -344.4510719 127.4044362 -342.03076172 125.17529297 C-336.62602163 120.25786551 -331.06133498 115.59672677 -325.34326172 111.05029297 C-324.72660645 110.55577637 -324.10995117 110.06125977 -323.47460938 109.55175781 C-280.22576339 74.94640246 -231.53403152 48.45561471 -179.34326172 30.05029297 C-178.45670898 29.73108887 -177.57015625 29.41188477 -176.65673828 29.08300781 C-120.09729604 8.7566121 -59.80664645 1.28361838 0 0 Z " fill="#432A19" transform="translate(1453.34326171875,123.94970703125)"/>
<path d="M0 0 C104.94 0 209.88 0 318 0 C317.34987911 8.45157156 316.59550995 16.65525143 315.3125 25 C315.13879883 26.14968262 314.96509766 27.29936523 314.78613281 28.48388672 C312.7237356 42.01099633 310.51788587 55.51542237 308.30451965 69.01849365 C307.36182115 74.77381484 306.42810433 80.53054031 305.49890137 86.28805542 C304.7987868 90.62458536 304.09623159 94.96071836 303.39343262 99.29681396 C303.05402614 101.3938697 302.71553048 103.49107311 302.37805176 105.58843994 C300.46929493 117.44404712 298.42663297 129.25733407 296.14306641 141.04638672 C294.87170035 147.62639817 293.65711004 154.21679932 292.44289398 160.80754089 C291.77358308 164.4403903 291.10280493 168.07296882 290.43212891 171.70556641 C290.29542786 172.44605099 290.15872681 173.18653557 290.0178833 173.94945908 C285.3038241 199.47871792 280.51158492 224.98330993 275.33013916 250.42254639 C273.58623297 259.00096034 271.9165444 267.59377861 270.25 276.1875 C270.10268433 276.94650604 269.95536865 277.70551208 269.80358887 278.48751831 C268.3241272 286.1132699 266.85214962 293.74038361 265.40869141 301.37304688 C265.23257324 302.30181641 265.05645508 303.23058594 264.875 304.1875 C264.7440947 304.88015457 264.61318939 305.57280914 264.47831726 306.28645325 C263.25993049 312.70391868 261.98121666 319.10827942 260.69140625 325.51171875 C258.30732295 337.39255191 256.00386586 349.28784592 253.72180176 361.18862915 C249.13839647 385.07796381 244.46459455 408.94876015 239.75 432.8125 C239.44574713 434.35270127 239.14149704 435.89290309 238.83724976 437.43310547 C238.68772574 438.19002874 238.53820173 438.94695202 238.38414669 439.72681236 C237.64929958 443.44677575 236.91447771 447.16674412 236.1796875 450.88671875 C236.03847536 451.60155804 235.89726322 452.31639732 235.75177193 453.05289841 C233.44318995 464.74042287 231.14606361 476.43012043 228.875 488.125 C228.73850037 488.82788147 228.60200073 489.53076294 228.46136475 490.25494385 C227.10034973 497.26886182 225.75019238 504.28474567 224.421875 511.30493164 C218.15523722 544.33626749 218.15523722 544.33626749 214.57842731 559.25854057 C204.33144733 602.16615811 201.95789456 643.4434093 202.05053228 687.44485612 C202.06398549 694.00640386 202.05295463 700.56753237 202.02676392 707.12903786 C202.02303955 708.07923924 202.01931518 709.02944063 202.01547796 710.008436 C202.00788505 711.9408551 202.00027603 713.87327415 201.9926511 715.80569313 C201.92548433 733.6744177 201.94034014 751.54232626 201.98276055 769.41107778 C202.01884118 785.71671697 201.94844982 802.01995821 201.83033526 818.32514551 C201.70899478 835.20762824 201.6581499 852.08897801 201.68360424 868.97189742 C201.69659904 878.39656912 201.68248725 887.81922074 201.59378052 897.243536 C201.51942546 905.22354074 201.5119057 913.20022806 201.58980227 921.18025609 C201.62765104 925.24119387 201.63575976 929.29609586 201.5601387 933.35664177 C200.73228998 949.21358072 200.73228998 949.21358072 205.8308754 963.61628366 C210.16811771 967.98853993 215.05138587 970.93799467 220.52646828 973.68080771 C224.66898579 975.89010914 228.32213908 978.74261974 232.0625 981.5625 C233.55098709 982.64003953 235.04159421 983.71466212 236.53515625 984.78515625 C241.02695187 988.01858058 245.51383318 991.25877249 250 994.5 C251.476541 995.56643602 252.95310358 996.63284216 254.4296875 997.69921875 C261.953125 1003.1328125 269.4765625 1008.56640625 277 1014 C273.24025577 1016.33037945 269.2619357 1016.66043405 264.9609375 1017.1484375 C263.74284897 1017.29446159 263.74284897 1017.29446159 262.50015259 1017.44343567 C259.79280143 1017.76369026 257.0841702 1018.07053633 254.375 1018.375 C253.43317871 1018.48260651 252.49135742 1018.59021301 251.52099609 1018.70108032 C236.03642036 1020.46111851 220.53215818 1021.91965102 205 1023.1875 C203.59533478 1023.30517731 203.59533478 1023.30517731 202.16229248 1023.42523193 C166.17025394 1026.40778815 130.17117817 1027.32439345 94.07000732 1027.19561768 C90.16107849 1027.18460941 86.25218338 1027.18515518 82.34324169 1027.18575573 C78.51079856 1027.18548265 74.67837734 1027.17998496 70.84594154 1027.17275429 C69.05168127 1027.16962107 67.2574186 1027.16761308 65.46315575 1027.16686058 C55.25812603 1027.15784585 45.17207939 1026.90557702 35 1026 C38.7618727 1022.08850736 42.74225809 1018.67181931 47 1015.3125 C47.66153076 1014.7870459 48.32306152 1014.2615918 49.00463867 1013.72021484 C54.12907766 1009.66068203 59.30034536 1005.66426688 64.4921875 1001.69140625 C74.13536887 994.30650908 83.70008511 986.81746232 93.25 979.3125 C93.80324951 978.8784082 94.35649902 978.44431641 94.92651367 977.99707031 C97.93113747 975.6370173 100.92393925 973.26320151 103.90625 970.875 C104.87062988 970.10675903 104.87062988 970.10675903 105.85449219 969.32299805 C107.09271773 968.3362771 108.32789175 967.34571129 109.55957031 966.35083008 C113.77499198 963 113.77499198 963 116 963 C116.0327821 919.73809897 116.02842028 876.47633986 115.97527504 833.21445489 C115.96901082 828.08966619 115.96304942 822.96487717 115.95727539 817.84008789 C115.95612095 816.81997265 115.95496651 815.79985742 115.95377708 814.7488296 C115.93588288 798.30084707 115.94243639 781.85296263 115.95826416 765.40498192 C115.97399066 748.4873421 115.96288992 731.56986794 115.92765242 714.65225691 C115.90678766 704.24016509 115.9060525 693.82849308 115.93231983 683.41641175 C115.94839215 676.24519896 115.93805868 669.07430474 115.90833985 661.90313727 C115.89201231 657.78545671 115.88599353 653.66857264 115.91181374 649.55092239 C116.03312113 628.69283337 113.79115593 609.68972999 108.81271946 589.41752994 C107.67324325 584.62596993 106.75527064 579.80458256 105.890625 574.95703125 C105.74071391 574.12997679 105.59080282 573.30292232 105.43634897 572.4508056 C105.03635675 570.23882591 104.64272943 568.02577971 104.25 565.8125 C103.69576398 562.71428823 103.13841332 559.61665416 102.578125 556.51953125 C102.44586517 555.78819977 102.31360535 555.05686829 102.17733765 554.30337524 C101.12615416 548.55401695 99.93238097 542.8414425 98.68359375 537.1315918 C97.69399801 532.59818303 96.78035781 528.05086122 95.875 523.5 C95.67108643 522.47632324 95.46717285 521.45264648 95.25708008 520.39794922 C94.50233008 516.59910385 93.75085486 512.79961655 93 509 C92.76509857 507.81259216 92.76509857 507.81259216 92.52545166 506.60119629 C87.75621296 482.48847123 83.077999 458.3622634 78.65112305 434.18408203 C78.49486954 433.33455963 78.33861603 432.48503723 78.17762756 431.60977173 C77.89321156 430.06272032 77.61038779 428.51537455 77.32981873 426.96762085 C76.26514583 421.18236571 75.02782155 415.43914431 73.78610229 409.6895752 C72.49908727 403.64896349 71.30427764 397.59064475 70.109375 391.53125 C69.84116023 390.17422207 69.57290457 388.81720222 69.30461121 387.46018982 C68.59670844 383.87711786 67.89066823 380.29368143 67.18522263 376.71012497 C66.74731375 374.48635881 66.30879151 372.26271432 65.87014771 370.03909302 C62.16903648 351.27010124 58.50595306 332.49626523 55.18066406 313.65625 C53.82720403 306.05120241 52.23171504 298.54293081 50.42457581 291.03523254 C49.04050434 285.26246105 47.90070153 279.47234152 46.875 273.625 C44.69454976 261.5372785 42.33803915 249.48804244 39.95504761 237.43881226 C31.77710381 196.05814475 24.07637639 154.583715 17 113 C16.84186829 112.07076721 16.68373657 111.14153442 16.52081299 110.18414307 C12.10315734 84.1888361 7.85108785 58.17249019 3.92207336 32.09866333 C3.28164686 27.84900151 2.62929028 23.60146023 1.96484375 19.35546875 C1.81893799 18.41413086 1.67303223 17.47279297 1.52270508 16.50292969 C1.27182299 14.88459388 1.01813675 13.26668797 0.76049805 11.64941406 C0.14843951 7.64993629 0 4.1011902 0 0 Z " fill="#FEFEFE" transform="translate(1284,1727)"/>
<path d="M0 0 C0.33 0 0.66 0 1 0 C1.75277365 5.36532268 2.14878881 10.59445784 2.14526367 16.01611328 C2.15030159 17.15525681 2.15030159 17.15525681 2.15544128 18.31741333 C2.16489751 20.81839674 2.1668943 23.31931232 2.16796875 25.8203125 C2.17119403 27.60114568 2.17455898 29.38197861 2.17805481 31.16281128 C2.18403939 34.91014209 2.1858963 38.65744991 2.18530273 42.40478516 C2.18522274 46.16460109 2.19195668 49.92429189 2.20581055 53.68408203 C2.32545546 86.68217734 1.2112482 119.49888878 -1.75 152.375 C-1.83270142 153.30815033 -1.91540283 154.24130066 -2.00061035 155.20272827 C-8.3268384 225.99416305 -20.69371034 296.08556831 -38 365 C-38.29877045 366.19541412 -38.29877045 366.19541412 -38.60357666 367.41497803 C-48.29032234 406.14317841 -60.02932484 444.25253093 -73 482 C-73.49316604 483.44042901 -73.9863301 484.8808587 -74.47949219 486.32128906 C-85.36993094 518.06243554 -97.77029299 549.16604208 -111 580 C-111.48694336 581.14388184 -111.97388672 582.28776367 -112.47558594 583.46630859 C-113.82040103 586.61051767 -115.18655282 589.74431181 -116.5625 592.875 C-116.95590576 593.79692139 -117.34931152 594.71884277 -117.75463867 595.66870117 C-118.12564697 596.49732666 -118.49665527 597.32595215 -118.87890625 598.1796875 C-119.35179077 599.25839111 -119.35179077 599.25839111 -119.83422852 600.35888672 C-121 602 -121 602 -122.77001953 602.81079102 C-125.66819798 603.05669514 -127.97022228 602.52832827 -130.80078125 601.84765625 C-131.98567139 601.56978271 -133.17056152 601.29190918 -134.39135742 601.00561523 C-135.02753998 600.85244843 -135.66372253 600.69928162 -136.31918335 600.54147339 C-139.7937072 599.70658122 -143.27578259 598.90447393 -146.7578125 598.1015625 C-147.8699839 597.84441719 -147.8699839 597.84441719 -149.00462341 597.58207703 C-157.04063747 595.73740144 -165.11365365 594.08440195 -173.19396973 592.44680786 C-175.69080633 591.93682468 -178.18494834 591.41517294 -180.67871094 590.89038086 C-188.17125717 589.32286911 -195.62940304 587.85784837 -203.2109375 586.79296875 C-222.60464205 583.85673502 -222.60464205 583.85673502 -229.48486328 575.66430664 C-231.7494567 572.56685653 -233.80074424 569.39247436 -235.74658203 566.08642578 C-237.3442331 563.42699336 -239.20521596 561.07016616 -241.1875 558.6875 C-241.79335937 557.93597656 -242.39921875 557.18445312 -243.0234375 556.41015625 C-261.18287108 534.26713151 -280.78177894 511.96041337 -304 495 C-305.55646785 493.7375752 -307.11291355 492.47511452 -308.66577148 491.20825195 C-331.19960068 473.13326645 -360.97053688 463.60589262 -389 458 C-389 437.54 -389 417.08 -389 396 C-382.07 392.37 -375.14 388.74 -368 385 C-363.87858627 382.59040954 -359.83067753 380.18644405 -355.8125 377.625 C-354.81476563 376.99489014 -353.81703125 376.36478027 -352.7890625 375.71557617 C-344.3145762 370.30983591 -336.12413067 364.56889782 -328.07617188 358.54980469 C-326.00271625 357.0020276 -323.91697373 355.4722315 -321.828125 353.9453125 C-314.00718498 348.1965079 -306.52795574 342.17041331 -299.21875 335.78515625 C-296.43678403 333.35831742 -293.57946885 331.04528251 -290.6875 328.75 C-276.71570136 317.3203481 -264.13802753 304.23539844 -251.375 291.5 C-250.31546616 290.44448441 -250.31546616 290.44448441 -249.23452759 289.36764526 C-247.1819844 287.32100113 -245.1333274 285.27054807 -243.0859375 283.21875 C-242.47601456 282.61080093 -241.86609161 282.00285187 -241.23768616 281.3764801 C-237.50698987 277.62603128 -233.96628705 273.75350177 -230.51025391 269.74836731 C-228.5888682 267.52404732 -226.60812914 265.35678494 -224.625 263.1875 C-220.80402862 258.94911157 -217.15752669 254.60120897 -213.5703125 250.1640625 C-211.64819539 247.7871519 -209.70034731 245.43324057 -207.7421875 243.0859375 C-200.3876666 234.25682594 -193.28232013 225.29847376 -186.48876953 216.03027344 C-185.49828188 214.67951986 -184.50447431 213.33119431 -183.50732422 211.98535156 C-167.35676337 190.18339898 -152.60358777 167.46960741 -139 144 C-138.53158691 143.19304687 -138.06317383 142.38609375 -137.58056641 141.5546875 C-123.35600149 116.8881794 -111.71682235 91.5349852 -102.6875 64.5625 C-102.29582642 63.39503235 -102.29582642 63.39503235 -101.89624023 62.20397949 C-98.89272404 53.21382105 -96.10306289 44.25280157 -94 35 C-92 35 -92 35 -89.625 37.1875 C-87.07753753 40.32169581 -86.14442954 43.44652582 -85.0625 47.3125 C-82.23195297 57.1355051 -78.47716045 62.81124279 -69.46484375 67.80859375 C-60.55197428 72.11671608 -51.72501419 72.27825008 -42.3125 69.03515625 C-34.49068628 65.53383761 -28.38469795 59.48930472 -24.96484375 51.6171875 C-21.94028521 42.64198587 -22.61574506 34.9860764 -25 26 C-24.56244385 25.60321045 -24.1248877 25.2064209 -23.67407227 24.79760742 C-15.71940105 17.55173724 -8.06859251 10.43666614 -1.50390625 1.87890625 C-0.75947266 0.94884766 -0.75947266 0.94884766 0 0 Z " fill="#432A19" transform="translate(1960,1038)"/>
<path d="M0 0 C3.10886385 2.99294012 5.76436873 5.8910768 8.125 9.5 C15.88000781 20.78765778 25.14057528 32.42031824 37.0625 39.4375 C40 42 40 42 40.4375 44.1015625 C40.52330748 45.79089716 40.59138122 47.48119774 40.64453125 49.171875 C41.57881977 56.60511555 46.14385895 64.39874632 52 69 C59.84815232 74.65333006 67.31542073 76.91200074 77 76 C86.94130905 74.21026357 93.99735385 69.29951807 99.75390625 61.0625 C102.59713395 56.35646794 103.90120009 51.78191625 104.6875 46.375 C105.96149884 39.15943136 110.19719132 33.13755634 114 27 C116.02919372 30.55178565 116.8555165 34.13542598 117.77734375 38.10546875 C118.12279018 39.56255275 118.46918736 41.01941158 118.81640625 42.47607422 C118.9983252 43.24336853 119.18024414 44.01066284 119.36767578 44.8012085 C126.85459192 76.15467469 136.84378334 107.15805693 151.84423828 135.78271484 C153.16226468 138.31129865 154.45404832 140.85257713 155.74609375 143.39453125 C175.21797882 181.49869096 199.58075224 217.40954805 227.39453125 249.92578125 C229.75864187 252.69699155 232.03843958 255.52927189 234.3125 258.375 C239.66082248 264.94798309 245.50153296 271.04538871 251.31591797 277.20263672 C253.7233703 279.77202843 256.07758784 282.38686329 258.4375 285 C266.79946839 294.14126426 275.44946192 303.21074444 284.92578125 311.20703125 C287.21081174 313.1822271 289.41348371 315.23180094 291.61987305 317.29394531 C297.87707612 323.13869464 304.31875683 328.64099499 311 334 C312.19273342 334.9827665 313.38405401 335.96724931 314.57421875 336.953125 C340.24086736 358.15233313 368.17588623 378.08794311 398 393 C398 416.1 398 439.2 398 463 C389.42 464.65 380.84 466.3 372 468 C367.64819089 469.03559094 363.40411882 470.06544911 359.125 471.3125 C358.10728516 471.60535889 357.08957031 471.89821777 356.04101562 472.19995117 C334.48288613 478.57750837 315.57217066 487.93728552 298 502 C297.08992188 502.71800781 296.17984375 503.43601562 295.2421875 504.17578125 C284.2892925 512.95994063 274.27325302 522.62447081 264.3125 532.5 C263.43352051 533.36592773 262.55454102 534.23185547 261.64892578 535.12402344 C256.42016521 540.34590536 251.61359696 545.75004983 246.99438477 551.51757812 C245.36573999 553.54476139 243.70952135 555.52069367 241.98828125 557.46875 C237.54709985 562.49949031 233.27102872 567.54489287 229.3671875 573.01171875 C228.75447998 573.86894531 228.14177246 574.72617188 227.51049805 575.609375 C226.32001999 577.29297594 225.14367219 578.98668298 223.98364258 580.69140625 C223.43603271 581.46742188 222.88842285 582.2434375 222.32421875 583.04296875 C221.85072998 583.73414795 221.37724121 584.42532715 220.8894043 585.13745117 C215.53245511 590.41825816 207.18997332 591.23252063 200.1171875 592.69921875 C198.98475616 592.9391304 197.85232483 593.17904205 196.68557739 593.42622375 C194.30104962 593.92965786 191.91576598 594.42952351 189.52978516 594.92602539 C185.87849704 595.68677139 182.23018052 596.46068514 178.58203125 597.23632812 C176.26058141 597.72474202 173.93897202 598.2123983 171.6171875 598.69921875 C170.52751678 598.93041916 169.43784607 599.16161957 168.31515503 599.39982605 C166.78799362 599.71564384 166.78799362 599.71564384 165.22998047 600.0378418 C164.33842255 600.224207 163.44686462 600.4105722 162.52828979 600.60258484 C159.97523605 601.00389258 157.57982287 601.07138902 155 601 C146.27303019 583.82667034 137.89252879 566.5325516 129.91082764 548.9987793 C128.96384363 546.92065612 128.01359214 544.84404771 127.06298828 542.76757812 C87.20264391 455.588628 55.06816067 364.90037468 0 0 Z " fill="#432A19" transform="translate(932,1033)"/>
<path d="M0 0 C1.6623468 0.00081573 1.6623468 0.00081573 3.35827637 0.00164795 C23.64316296 0.04708086 43.51715234 1.26492458 63.5625 4.375 C64.57455505 4.53128876 64.57455505 4.53128876 65.60705566 4.69073486 C107.19263158 11.20671847 148.1967287 24.90601005 185.52734375 44.32275391 C187.67661021 45.43399892 189.83758288 46.5200586 192 47.60546875 C209.78857744 56.63354134 226.58151547 67.44859694 242.5625 79.375 C243.10132813 79.77638184 243.64015625 80.17776367 244.1953125 80.59130859 C256.18515313 89.55882861 267.52455553 99.2637795 278.5625 109.375 C279.08376465 109.85114746 279.6050293 110.32729492 280.14208984 110.81787109 C288.326714 118.29925904 296.38856992 125.74656681 303.62890625 134.1640625 C305.80845981 136.6562389 308.0602328 139.07338668 310.3125 141.5 C316.09212027 147.8541006 321.37440581 154.53299425 326.5625 161.375 C327.11486328 162.10283691 327.66722656 162.83067383 328.23632812 163.58056641 C354.35858099 198.15971622 375.83778351 236.55452261 390.5625 277.375 C391.01753906 278.57511719 391.47257812 279.77523438 391.94140625 281.01171875 C399.35014326 300.86703606 404.15930672 321.67545222 408.5625 342.375 C408.84939697 343.69564453 408.84939697 343.69564453 409.14208984 345.04296875 C409.32594238 345.91566406 409.50979492 346.78835938 409.69921875 347.6875 C409.86510498 348.46738281 410.03099121 349.24726562 410.2019043 350.05078125 C410.58597571 352.5263126 410.62364649 354.87380426 410.5625 357.375 C408.39831619 354.60772188 406.62156298 351.81596383 404.953125 348.7265625 C397.26004223 334.68318056 388.85671514 321.41016096 379.5625 308.375 C378.95728516 307.52357422 378.35207031 306.67214844 377.72851562 305.79492188 C370.1638342 295.20436787 362.23663015 285.07724551 353.5625 275.375 C352.76070312 274.47394531 351.95890625 273.57289063 351.1328125 272.64453125 C349.65680094 270.99742493 348.17524319 269.35526751 346.6875 267.71875 C345.28019444 266.16657475 343.88413084 264.60412595 342.5 263.03125 C334.18447383 253.61513948 325.37973989 244.35913304 315.76953125 236.24609375 C313.97032581 234.72074967 312.20652702 233.1704237 310.44921875 231.59765625 C300.28105104 222.55179355 289.5473717 214.39890608 278.5625 206.375 C277.85399902 205.8505127 277.14549805 205.32602539 276.41552734 204.78564453 C249.41943672 184.8195828 219.30532917 168.7351287 188.5625 155.375 C187.65322754 154.97829102 186.74395508 154.58158203 185.80712891 154.17285156 C163.75660488 144.6364096 140.87475796 137.15212511 117.5625 131.375 C116.56943848 131.1265332 115.57637695 130.87806641 114.55322266 130.62207031 C100.72372661 127.21489705 86.83986311 124.64454384 72.75 122.625 C72.05266754 122.52404022 71.35533508 122.42308044 70.63687134 122.31906128 C65.61989075 121.60103783 60.59601 120.96542989 55.5625 120.375 C54.38572693 120.23356064 54.38572693 120.23356064 53.18518066 120.08926392 C37.36891134 118.24497296 21.57247434 118.0311042 5.66992188 118.05932617 C2.85888613 118.06394466 0.04828448 118.05706351 -2.76269531 118.03881836 C-21.83604961 117.91629486 -40.4980004 118.85522122 -59.4375 121.375 C-60.63546204 121.53400787 -61.83342407 121.69301575 -63.06768799 121.85684204 C-77.74842428 123.8285941 -92.21778587 126.31447683 -106.63671875 129.71728516 C-109.39958949 130.36609738 -112.16787314 130.98623125 -114.9375 131.60546875 C-141.78786952 137.78862543 -168.36551854 146.98176922 -193.4375 158.375 C-194.43716797 158.82810547 -195.43683594 159.28121094 -196.46679688 159.74804688 C-239.95664119 179.65017902 -279.69774684 206.04203215 -315.05078125 238.20703125 C-316.64248746 239.65285276 -318.24413226 241.08780751 -319.85546875 242.51171875 C-328.53042129 250.19367195 -336.97751835 258.24760634 -344.48828125 267.0859375 C-346.07055217 268.94407529 -347.67339641 270.7762055 -349.29296875 272.6015625 C-357.47144602 281.85694332 -365.10827459 291.43483728 -372.4375 301.375 C-372.9413623 302.05788086 -373.44522461 302.74076172 -373.96435547 303.44433594 C-386.38781347 320.39974852 -398.14893482 338.49557905 -407.4375 357.375 C-409.41747959 351.43506123 -406.71361339 344.40455648 -405.4375 338.375 C-405.12063232 336.83610107 -405.12063232 336.83610107 -404.79736328 335.26611328 C-398.56151298 305.35753048 -389.08557059 276.19980467 -376.4375 248.375 C-375.97907715 247.36469727 -375.5206543 246.35439453 -375.04833984 245.31347656 C-359.17007644 210.65533817 -339.00539767 178.54161039 -314.4375 149.375 C-314.01065918 148.86324219 -313.58381836 148.35148438 -313.14404297 147.82421875 C-300.22980532 132.35850793 -286.42833794 117.83965747 -271.4375 104.375 C-270.84678711 103.83955566 -270.25607422 103.30411133 -269.64746094 102.75244141 C-246.72554703 82.04979125 -220.85194692 64.48946417 -193.79394531 49.66845703 C-191.6315651 48.48152268 -189.48299117 47.27294545 -187.3359375 46.05859375 C-147.4180187 23.83162675 -101.59905065 9.8855208 -56.4375 3.875 C-55.11419678 3.69710937 -55.11419678 3.69710937 -53.76416016 3.515625 C-50.65774698 3.11175288 -47.54874226 2.73991078 -44.4375 2.375 C-43.74808319 2.2909491 -43.05866638 2.20689819 -42.34835815 2.12030029 C-28.22210899 0.4243488 -14.22057938 -0.02646012 0 0 Z " fill="#DD5F50" transform="translate(1458.4375,188.625)"/>
<path d="M0 0 C0.65258789 0.19867676 1.30517578 0.39735352 1.97753906 0.60205078 C23.95272836 7.44686593 42.55092998 17.81090091 59 34 C60.12921875 35.09248047 60.12921875 35.09248047 61.28125 36.20703125 C68.23926456 43.41928096 75.21086131 54.4505697 75.0625 64.6875 C75.05347656 65.49574219 75.04445313 66.30398438 75.03515625 67.13671875 C75.01775391 68.05904297 75.01775391 68.05904297 75 69 C73.12623929 66.18935893 71.83951638 63.50116542 70.4375 60.4375 C62.4571448 44.49597314 47.54638382 34.68413734 32 27 C32.51949219 27.66644531 33.03898437 28.33289063 33.57421875 29.01953125 C44.93411957 44.03307855 50.05635319 60.20074808 48 79 C45.14556071 95.60278731 36.80398158 110.17705409 23.69921875 120.87890625 C6.94532814 132.11386819 -17.44124189 131.11033101 -36.5 127.75 C-51.88460214 124.64099374 -61.13352761 119.00000993 -70.1484375 105.98046875 C-79.80307885 90.43934776 -83.47293215 73.50992645 -79.9375 55.4375 C-75.6630478 39.17860238 -65.48872074 23.96466491 -50.984375 15.171875 C-48.34697285 13.7246851 -45.69754479 12.33112491 -43 11 C-61.99835946 12.82676533 -81.54291279 19.71447714 -94.9375 33.8125 C-101.40114298 41.82354878 -104.85255571 50.60793865 -105.5625 60.75 C-105.64628906 61.92046875 -105.73007813 63.0909375 -105.81640625 64.296875 C-105.90728516 65.63492188 -105.90728516 65.63492188 -106 67 C-106.66 66.67 -107.32 66.34 -108 66 C-108.20782596 64.04349707 -108.40433003 62.08481277 -108.53027344 60.12133789 C-108.68750072 57.74998912 -108.89832783 55.40237631 -109.18359375 53.04296875 C-109.30045532 51.98758911 -109.30045532 51.98758911 -109.41967773 50.91088867 C-110.15785607 48.48021059 -111.24323977 47.57293042 -113.25 46.0625 C-113.86746094 45.7634375 -114.48492188 45.464375 -115.12109375 45.15625 C-120.46436522 41.86808294 -123.51229459 33.84702824 -125 28 C-125.22581564 24.70266355 -125.18966641 21.4279613 -125.125 18.125 C-125.11597656 17.24585938 -125.10695313 16.36671875 -125.09765625 15.4609375 C-125.07424577 13.3071729 -125.0383801 11.15354986 -125 9 C-124.67 9 -124.34 9 -124 9 C-123.75765625 9.845625 -123.5153125 10.69125 -123.265625 11.5625 C-119.398029 25.1222789 -119.398029 25.1222789 -109.90234375 34.96875 C-107.92107991 36.23828695 -107.92107991 36.23828695 -105 36 C-103.50526946 34.00560316 -103.50526946 34.00560316 -102.1875 31.4375 C-92.03284428 13.84597963 -73.86170854 4.31323779 -54.75 -1 C-37.62882095 -5.2756066 -16.92040181 -5.17772111 0 0 Z " fill="#5A3838" transform="translate(1275,803)"/>
<path d="M0 0 C1.22356201 0.01015137 2.44712402 0.02030273 3.70776367 0.03076172 C19.1021491 0.29321804 32.27780921 2.88736366 46.25 9.375 C47.37277344 9.88933594 48.49554687 10.40367187 49.65234375 10.93359375 C61.98112034 17.04667322 72.01425973 25.9254763 78.25 38.375 C78.25 39.035 78.25 39.695 78.25 40.375 C86.84528952 36.74919549 90.85211479 32.06108365 94.40234375 23.56640625 C95.44768768 20.86392723 96.39785271 18.1444787 97.25 15.375 C97.58 15.375 97.91 15.375 98.25 15.375 C98.80892851 28.7582326 98.37527992 38.31203805 89.12890625 48.78125 C86.96887792 50.61345698 84.91510787 51.46072629 82.25 52.375 C82.26160156 53.11105469 82.27320313 53.84710937 82.28515625 54.60546875 C82.29417969 55.58128906 82.30320312 56.55710937 82.3125 57.5625 C82.32410156 58.52542969 82.33570313 59.48835937 82.34765625 60.48046875 C82.25486622 63.23076513 81.87111685 65.69979591 81.25 68.375 C80.92 68.375 80.59 68.375 80.25 68.375 C80.10304688 67.43140625 79.95609375 66.4878125 79.8046875 65.515625 C77.2060996 50.64094941 71.74498379 38.52176199 59.34375 29.1875 C47.6415139 21.54049423 31.47495232 14.375 17.25 14.375 C17.85585937 14.70371094 18.46171875 15.03242187 19.0859375 15.37109375 C36.20867025 25.09153742 47.67455828 39.46698027 53.25 58.375 C55.37239366 70.19782107 55.09380261 81.98364976 51.25 93.375 C50.92128906 94.35984375 50.59257813 95.3446875 50.25390625 96.359375 C45.69180594 108.54602358 36.97801464 121.0643424 25.0546875 126.953125 C5.24530261 134.91965582 -22.82789224 136.32433553 -42.75 128.375 C-46.03636297 126.65115743 -48.89222211 124.73193022 -51.75 122.375 C-52.96623047 121.46427734 -52.96623047 121.46427734 -54.20703125 120.53515625 C-62.02679987 113.8925571 -67.04241535 104.80030557 -70.75 95.375 C-71.10191406 94.56933594 -71.45382812 93.76367188 -71.81640625 92.93359375 C-74.15489889 86.5247541 -73.96516153 79.92438874 -74 73.1875 C-74.020625 72.20974609 -74.04125 71.23199219 -74.0625 70.22460938 C-74.13981049 55.60326241 -68.62291097 42.85759066 -59.75 31.375 C-67.94755707 34.98410145 -74.75122115 39.82561365 -81.75 45.375 C-82.42160156 45.87902344 -83.09320312 46.38304687 -83.78515625 46.90234375 C-92.0887486 53.42794594 -97.4780675 62.45157315 -100.75 72.375 C-101.08 72.375 -101.41 72.375 -101.75 72.375 C-102.7886844 58.61243175 -95.08839994 47.76618212 -86.46875 37.71484375 C-72.84884503 23.39124369 -55.99991851 13.84619535 -37.625 7.0625 C-36.74320068 6.73677002 -35.86140137 6.41104004 -34.95288086 6.07543945 C-23.3172889 1.95090262 -12.36083871 -0.14941201 0 0 Z " fill="#5A3837" transform="translate(1684.75,799.625)"/>
<path d="M0 0 C4.29 0 8.58 0 13 0 C13.24234375 1.79566406 13.4846875 3.59132813 13.734375 5.44140625 C14.07214993 7.81521339 14.41073422 10.18890547 14.75 12.5625 C14.90726563 13.74392578 15.06453125 14.92535156 15.2265625 16.14257812 C16.4128996 24.28723859 17.78796384 30.86080176 24.4375 36.3125 C24.99308594 36.78300781 25.54867188 37.25351563 26.12109375 37.73828125 C30.76586991 40.85733052 35.0955402 41.2930501 40.570755 41.27415466 C41.70188218 41.28200968 41.70188218 41.28200968 42.85586041 41.29002339 C45.3783261 41.30500445 47.90058861 41.30572812 50.4230957 41.30639648 C52.23349346 41.31401924 54.04388799 41.32244694 55.85427856 41.33161926 C60.76965839 41.35355956 65.684976 41.36236253 70.60039926 41.36744571 C73.67245677 41.37108981 76.744498 41.37733015 79.8165493 41.3844471 C90.53713064 41.40893989 101.2576636 41.42199314 111.97827148 41.42553711 C121.96614902 41.42917232 131.95371925 41.45906716 141.94150287 41.50094169 C150.52086162 41.53564838 159.10011854 41.55108562 167.67954701 41.55178314 C172.80173995 41.55257582 177.92361982 41.56131039 183.04574013 41.58978081 C187.86478415 41.61596786 192.68325567 41.61816305 197.50233841 41.60212517 C199.26797039 41.60031119 201.03363535 41.60699677 202.79919624 41.62294388 C214.34536262 42.01715955 214.34536262 42.01715955 224.60151958 37.38395786 C234.06422158 28.01952152 233.98296975 12.61117515 235 0 C239.29 0 243.58 0 248 0 C249.70184637 24.04645892 240.89212486 46.33557886 226 65 C225.26652344 65.94746094 224.53304688 66.89492187 223.77734375 67.87109375 C203.59928086 93.37921099 171.83350868 107.98684177 140 112 C135.04430743 112.23690838 130.08582574 112.24568363 125.125 112.25 C124.43058807 112.25067474 123.73617615 112.25134949 123.02072144 112.25204468 C88.29649268 112.1984262 56.139543 99.37967129 30.875 75.3125 C20.55948975 64.5783408 13.08086401 52.52417716 7 39 C6.46632813 37.82566406 5.93265625 36.65132812 5.3828125 35.44140625 C4.04366175 32.10866103 3.14246038 28.94167351 2.375 25.4375 C2.13523437 24.36371094 1.89546875 23.28992187 1.6484375 22.18359375 C0.10899405 14.62548283 -0.07878665 7.72109163 0 0 Z " fill="#E7393B" transform="translate(1334,1195)"/>
<path d="M0 0 C72.6 0 145.2 0 220 0 C220 27.76470588 220 27.76470588 213 36 C207.60168479 40.85848368 203.75990845 42.29920519 196.54949951 42.26742554 C195.79626915 42.27195665 195.04303879 42.27648776 194.26698327 42.28115618 C191.74140316 42.29382282 189.21603806 42.29217835 186.69042969 42.29052734 C184.88018008 42.29651127 183.06993302 42.30331651 181.25968933 42.31088257 C176.34011083 42.32856578 171.42060189 42.33323899 166.50099468 42.33451414 C162.39329297 42.33641297 158.28560747 42.34377052 154.177912 42.35085833 C144.48432231 42.3671495 134.79076977 42.3720267 125.09716797 42.37060547 C115.1019703 42.36940453 105.10698873 42.39049519 95.11184573 42.4220928 C86.52826127 42.44825986 77.94474736 42.45897255 69.36112332 42.45769465 C64.23561336 42.45718505 59.11029533 42.46286703 53.98482513 42.48405075 C49.16174792 42.50343974 44.33904554 42.50355302 39.51595497 42.48901749 C37.74871841 42.48692896 35.98145835 42.49163291 34.21426201 42.5037384 C24.17693077 42.56802467 16.88554103 42.44495772 8.57421875 36.16796875 C-1.14048856 25.97054306 0 13.4306646 0 0 Z " fill="#FEFDFD" transform="translate(1348,1195)"/>
<path d="M0 0 C1.13501953 0.41741455 1.13501953 0.41741455 2.29296875 0.84326172 C33.84229888 12.58535339 62.62338618 29.67637166 87 53 C85 54 85 54 82.67529297 53.30664062 C81.70736816 52.92701172 80.73944336 52.54738281 79.7421875 52.15625 C78.10963013 51.52807373 78.10963013 51.52807373 76.4440918 50.88720703 C75.2662915 50.42942871 74.08849121 49.97165039 72.875 49.5 C54.01019 42.36196378 35.13117122 36.61848422 15.16674805 33.5078125 C12.7028192 33.11270248 10.2512095 32.68684802 7.79614258 32.2421875 C-3.75528229 30.20487287 -14.96733958 29.44395407 -26.6875 29.5 C-28.03391571 29.50015106 -28.03391571 29.50015106 -29.40753174 29.50030518 C-55.78790579 29.55735441 -82.439582 32.21663778 -108.44580078 36.65478516 C-111.02042712 37.00276084 -113.40646998 37.16552668 -116 37 C-118.88353308 34.60231385 -119.00961873 32.91507785 -119.43359375 29.171875 C-119.68292487 14.24570142 -119.68292487 14.24570142 -116.61328125 9.48828125 C-112.79447152 5.96535993 -107.82429969 4.65866907 -103 3 C-101.52640532 2.43287099 -100.05516572 1.85959682 -98.5859375 1.28125 C-65.91372505 -11.43890567 -33.12018765 -12.34091122 0 0 Z " fill="#452B1A" transform="translate(1695,684)"/>
<path d="M0 0 C2.45257178 0.88206107 4.91773997 1.68937023 7.40283203 2.47460938 C8.56407593 2.85105591 8.56407593 2.85105591 9.7487793 3.23510742 C11.19870541 3.70285097 12.6534829 4.15592574 14.11352539 4.59106445 C19.07256794 6.23262352 21.06790111 8.32625957 23.49267578 12.89648438 C24.76735232 16.72051399 24.71590625 20.34867094 24.74267578 24.33398438 C24.77361328 25.47963867 24.77361328 25.47963867 24.80517578 26.6484375 C24.82915691 30.09272671 24.79602497 32.32279753 23.16455078 35.40820312 C21.01321385 37.32329511 19.39488195 37.32349932 16.57861328 37.16113281 C14.3954997 36.88415539 12.274333 36.47506842 10.11767578 36.03710938 C-28.74695444 28.89438589 -71.89822207 25.28421568 -110.86279297 33.34960938 C-113.36352142 33.86674672 -115.86781609 34.3270214 -118.38232422 34.77148438 C-138.74799582 38.52159758 -158.46664905 45.51349993 -177.65161133 53.17553711 C-179.25227795 53.79739851 -180.87822609 54.35345167 -182.50732422 54.89648438 C-182.50732422 54.23648438 -182.50732422 53.57648437 -182.50732422 52.89648438 C-180.9584392 51.47941936 -179.33970888 50.13838941 -177.69482422 48.83398438 C-173.28799955 45.32749144 -173.28799955 45.32749144 -168.96044922 41.72460938 C-156.02908776 30.72090428 -141.47065809 21.84563815 -126.50732422 13.89648438 C-125.87681152 13.55665527 -125.24629883 13.21682617 -124.59667969 12.86669922 C-84.76372242 -8.4734785 -42.82487076 -15.88758573 0 0 Z " fill="#452B1A" transform="translate(1340.50732421875,684.103515625)"/>
<path d="M0 0 C4.29 0 8.58 0 13 0 C13.24234375 1.79566406 13.4846875 3.59132813 13.734375 5.44140625 C14.07214993 7.81521339 14.41073422 10.18890547 14.75 12.5625 C14.90726563 13.74392578 15.06453125 14.92535156 15.2265625 16.14257812 C16.4128996 24.28723859 17.78796384 30.86080176 24.4375 36.3125 C24.99308594 36.78300781 25.54867188 37.25351563 26.12109375 37.73828125 C30.76586991 40.85733052 35.0955402 41.2930501 40.570755 41.27415466 C41.70188218 41.28200968 41.70188218 41.28200968 42.85586041 41.29002339 C45.3783261 41.30500445 47.90058861 41.30572812 50.4230957 41.30639648 C52.23349346 41.31401924 54.04388799 41.32244694 55.85427856 41.33161926 C60.76965839 41.35355956 65.684976 41.36236253 70.60039926 41.36744571 C73.67245677 41.37108981 76.744498 41.37733015 79.8165493 41.3844471 C90.53713064 41.40893989 101.2576636 41.42199314 111.97827148 41.42553711 C121.96614902 41.42917232 131.95371925 41.45906716 141.94150287 41.50094169 C150.52086162 41.53564838 159.10011854 41.55108562 167.67954701 41.55178314 C172.80173995 41.55257582 177.92361982 41.56131039 183.04574013 41.58978081 C187.86478415 41.61596786 192.68325567 41.61816305 197.50233841 41.60212517 C199.26797039 41.60031119 201.03363535 41.60699677 202.79919624 41.62294388 C214.34536262 42.01715955 214.34536262 42.01715955 224.60151958 37.38395786 C234.06422158 28.01952152 233.98296975 12.61117515 235 0 C239.29 0 243.58 0 248 0 C249.70891936 24.14639766 240.82009844 46.20377759 226 65 C225.61457031 65.77859375 225.22914063 66.5571875 224.83203125 67.359375 C223 69 223 69 221.12329102 69.10571289 C215.64619215 68.59303131 210.40991425 67.1510401 205.125 65.6875 C197.00124794 63.55676873 188.86928188 62.03959779 180.5625 60.8125 C179.52947754 60.6580542 178.49645508 60.5036084 177.43212891 60.34448242 C159.2450416 57.76967816 141.23632674 56.61760406 122.875 56.6875 C121.84785889 56.68965515 120.82071777 56.6918103 119.76245117 56.69403076 C90.98961097 56.79056519 60.62663271 59.11999411 33.16821289 68.44921875 C30.68265718 69.08061315 28.55505435 69.17369124 26 69 C12.12201472 59.03713442 3.89500451 34.66218266 1 19 C0.81179688 18.02804687 0.62359375 17.05609375 0.4296875 16.0546875 C-0.32174152 10.71271028 -0.05497126 5.38718386 0 0 Z " fill="#BF0F2C" transform="translate(1334,1195)"/>
<path d="M0 0 C-1.25751125 2.70218696 -2.59903361 4.8860622 -4.5625 7.125 C-8.33461363 11.57415966 -8.34825356 14.39700338 -8.2734375 20.10546875 C-7.86590452 24.41949644 -6.68947689 27.59813191 -4 31 C0.97521359 35.06139885 5.05220762 35.55804575 11.40625 35.33984375 C14.71402597 34.90644539 17.17366834 33.73928102 20 32 C20.66 32 21.32 32 22 32 C24.48179079 36.96358158 22.62503635 44.58182656 21.28515625 49.765625 C17.16352699 61.01608084 9.10135563 69.78343184 -1.6875 74.8125 C-11.17766637 78.96025305 -21.9645019 79.75326032 -31.875 76.375 C-43.43367839 71.4702789 -51.69972034 64.0156623 -56.99609375 52.56640625 C-61.28324465 41.60664694 -60.64887342 29.79628479 -56 19 C-49.46912003 7.46268949 -40.69474913 0.47634702 -28.11328125 -3.61328125 C-18.27866159 -5.41296211 -9.01497418 -4.19824162 0 0 Z " fill="#432927" transform="translate(1280,847)"/>
<path d="M0 0 C9.8653906 6.03351827 16.98188984 14.87107679 19.85546875 26.08984375 C22.00975197 37.56629801 20.12381265 48.50118926 13.91796875 58.52734375 C6.65253967 68.40180472 -1.95640297 72.90213432 -13.39453125 76.71484375 C-25.77681193 77.80100872 -36.06225347 75.87750754 -46.33203125 68.40234375 C-53.81109486 62.06020739 -59.58827432 53.48988125 -61.39453125 43.71484375 C-61.462438 41.46577223 -61.47953109 39.2148277 -61.45703125 36.96484375 C-61.44800781 35.794375 -61.43898438 34.62390625 -61.4296875 33.41796875 C-61.41808594 32.5259375 -61.40648437 31.63390625 -61.39453125 30.71484375 C-56.64453125 32.58984375 -56.64453125 32.58984375 -54.39453125 33.71484375 C-47.79943845 34.2835748 -42.04987548 34.33426406 -36.39453125 30.71484375 C-32.2896735 26.54731642 -31.0495897 22.43939853 -30.83203125 16.65234375 C-31.07325517 11.19379102 -32.08036282 8.04167476 -35.39453125 3.71484375 C-37.5205631 1.9516087 -37.5205631 1.9516087 -39.39453125 0.71484375 C-39.39453125 0.05484375 -39.39453125 -0.60515625 -39.39453125 -1.28515625 C-26.01079255 -7.51791606 -12.91311488 -6.93052985 0 0 Z " fill="#432927" transform="translate(1692.39453125,848.28515625)"/>
<path d="M0 0 C3.95684815 2.95184318 6.48581373 5.71657155 9 10 C9 10.66 9 11.32 9 12 C9.66 12.33 10.32 12.66 11 13 C14.10088592 22.47492919 14.01500209 31.79266438 10 41 C5.28536056 49.02917383 -1.22322601 54.91187582 -10 58 C-19.85071754 60.27950488 -27.37798565 59.51471794 -36.30859375 54.703125 C-45.7596382 48.7224931 -49.93633054 41.00498968 -52.45703125 30.25 C-52.91490571 27.98275973 -52.91490571 27.98275973 -54 26 C-53.34 26 -52.68 26 -52 26 C-52.0825 25.05125 -52.165 24.1025 -52.25 23.125 C-52.18211215 14.70690632 -47.85143673 7.92488178 -42.22265625 1.98046875 C-29.91950047 -8.98209712 -13.44188727 -8.85296503 0 0 Z " fill="#DD6050" transform="translate(1925,1051)"/>
<path d="M0 0 C7.30232572 5.29702384 10.94638728 14.51817295 12.796875 23.01953125 C13.30541886 27.3894605 12.55112441 30.79082037 11.1328125 34.90625 C10.88724609 35.88658203 10.88724609 35.88658203 10.63671875 36.88671875 C8.48254294 44.32976758 2.90982223 50.45539036 -3.50390625 54.6171875 C-12.00869382 59.01577718 -21.10231211 60.55822691 -30.4296875 57.78125 C-39.49833536 54.32042326 -45.17914157 49.36576877 -49.8671875 40.90625 C-50.4859375 39.875 -51.1046875 38.84375 -51.7421875 37.78125 C-54.59379182 30.45587125 -53.91955299 20.74979787 -51.3046875 13.46875 C-47.11017069 4.65588018 -40.57643053 -0.87771778 -31.8671875 -5.09375 C-20.7955782 -8.81472385 -9.67631647 -5.66813517 0 0 Z " fill="#DD6050" transform="translate(1024.8671875,1051.09375)"/>
<path d="M0 0 C-2.76198588 2.15661911 -5.56655324 3.92143519 -8.625 5.625 C-22.52984738 13.99649402 -32.04849659 26.51129786 -36.94921875 42 C-41.5863803 60.84306916 -38.73804932 78.09913605 -29.09765625 94.6953125 C-24.58942545 101.8910362 -24.58942545 101.8910362 -18 107 C-18 107.66 -18 108.32 -18 109 C-32.52794647 106.85565366 -46.46335276 94.31602075 -55 83 C-57.58536857 79.11414422 -59.87269526 75.15330925 -62 71 C-62.54527344 69.94425781 -62.54527344 69.94425781 -63.1015625 68.8671875 C-67.09963318 59.33907514 -66.33209364 46.47149071 -62.9375 36.9375 C-56.31420652 22.14671822 -43.70552645 12.13605588 -28.80078125 6.296875 C-19.51683467 2.84164122 -10.04027723 -0.52843564 0 0 Z " fill="#FDFCFC" transform="translate(1234,813)"/>
<path d="M0 0 C7.56728836 0.40404772 14.28195053 1.64687026 21.4375 4.125 C22.35055908 4.43775879 23.26361816 4.75051758 24.2043457 5.07275391 C39.06806614 10.34020613 52.28265335 18.82330679 60 33 C60.40089844 33.73476563 60.80179688 34.46953125 61.21484375 35.2265625 C65.51904353 44.38638979 66.44186793 55.64572621 63.4375 65.3125 C62.67235909 67.2279372 61.86002613 69.12524793 61 71 C60.5978125 71.91136719 60.195625 72.82273437 59.78125 73.76171875 C51.51591908 90.6047332 35.22175244 103.21567328 18 110 C17.34 109.67 16.68 109.34 16 109 C16.969375 108.13375 17.93875 107.2675 18.9375 106.375 C31.41900794 93.86812314 38.12169561 77.54307897 38.25 60 C38.10373824 42.70905539 31.75225823 27.01638059 19.875 14.3125 C15.29088167 9.91047963 10.19319896 6.79606256 4.72265625 3.62890625 C2 2 2 2 0 0 Z " fill="#FDFCFC" transform="translate(1700,813)"/>
<path d="M0 0 C0.66 0.33 1.32 0.66 2 1 C1.39671875 1.88300781 0.7934375 2.76601563 0.171875 3.67578125 C-8.26616484 16.25712404 -12.17787217 27.09089666 -12.1875 42.3125 C-12.20586914 43.82360352 -12.20586914 43.82360352 -12.22460938 45.36523438 C-12.25211187 59.43734301 -7.34014191 71.72450088 1 83 C1.9590625 84.3303125 1.9590625 84.3303125 2.9375 85.6875 C5.69735471 88.78188255 8.79435472 91.37965512 12 94 C11.01 94.495 11.01 94.495 10 95 C-9.41476243 88.31965164 -28.28005402 74.23146625 -38 56 C-40.62273777 49.20552498 -41.3583955 42.91537528 -38.9375 35.9375 C-31.53426928 20.16539976 -15.83506379 7.12046492 0 0 Z " fill="#FCFBFB" transform="translate(1624,830)"/>
<path d="M0 0 C16.33611006 6.03595243 33.66357184 19.78674095 41.4375 35.5 C43.86016048 41.80992933 45.10790344 46.8433833 42.80859375 53.39453125 C39.05184793 61.4397201 34.39524075 67.7841637 28 74 C27.23945312 74.76957031 26.47890625 75.53914062 25.6953125 76.33203125 C16.78265534 84.90863741 4.7444996 92.01991958 -7 96 C-7.66 95.67 -8.32 95.34 -9 95 C-8.38253906 94.51273438 -7.76507812 94.02546875 -7.12890625 93.5234375 C3.23083935 84.85089552 10.33511292 74.10244605 14 61 C14.35449219 59.75089844 14.70898438 58.50179687 15.07421875 57.21484375 C19.07446443 40.85316742 14.94469144 24.1550803 6.75 9.83203125 C4.64194287 6.42055487 2.44122363 3.18098836 0 0 Z " fill="#FDFCFC" transform="translate(1306,829)"/>
<path d="M0 0 C1 2 1 2 0.109375 4.984375 C-0.33953843 6.24109572 -0.79297727 7.49620558 -1.25 8.75 C-7.90781916 27.07863521 -7.90781916 27.07863521 -5.77734375 45.66796875 C-3.7683362 48.30396327 -2.16714331 49.34027628 0.8125 50.75 C1.64394531 51.15734375 2.47539063 51.5646875 3.33203125 51.984375 C10.45874957 54.6973278 18.05645731 54.18355568 25.5625 54.1875 C26.76197266 54.19974609 27.96144531 54.21199219 29.19726562 54.22460938 C40.91762706 54.2435846 51.88668181 52.76297456 63 49 C57.34814552 58.6552514 48.20038465 64.98790792 37.77734375 68.81640625 C19.54732194 73.41410134 -4.7841126 70.43137916 -21 61 C-22.0725 60.38125 -23.145 59.7625 -24.25 59.125 C-26 57 -26 57 -25.8359375 53.90625 C-24.8676988 49.38177009 -23.31336638 45.55740486 -21.375 41.375 C-20.99472656 40.54121826 -20.61445312 39.70743652 -20.22265625 38.84838867 C-16.37539681 30.55608548 -12.19988039 22.4301028 -8 14.3125 C-7.66135925 13.65795837 -7.32271851 13.00341675 -6.97381592 12.32904053 C-1.20517244 1.20517244 -1.20517244 1.20517244 0 0 Z " fill="#DB9D72" transform="translate(1425,1011)"/>
<path d="M0 0 C4.50469018 4.38294179 7.14371954 7.74687527 7.3125 14.125 C7.24831322 19.56661273 6.35513709 23.64960818 3 28 C-2.58876758 32.44820277 -7.15660255 33.42831875 -14.140625 33.3359375 C-19.44703702 32.71250658 -23.06536431 30.42240503 -26.37890625 26.2734375 C-29.56918323 20.87108693 -29.92080737 15.12618783 -29 9 C-26.54816264 3.9077224 -22.4010492 -0.52621201 -17.125 -2.8125 C-10.49781275 -3.39725182 -5.91835539 -3.39757439 0 0 Z " fill="#FDFDFD" transform="translate(1300,850)"/>
<path d="M0 0 C4.55294833 1.95249777 7.50997318 4.62920492 9.89453125 8.9765625 C11.84485924 14.48758104 11.9652775 20.38285248 9.75390625 25.82421875 C7.33345425 29.90591266 4.65484817 33.491728 -0.0390625 34.9296875 C-5.78910182 36.10606239 -11.38804839 36.29877909 -16.69140625 33.6953125 C-21.62957821 29.23891341 -25.00720761 25.34319624 -25.56640625 18.6328125 C-25.40516317 13.53942809 -24.35046564 8.70253507 -20.859375 4.83984375 C-14.47915215 -0.6681461 -8.19917359 -2.24518098 0 0 Z " fill="#FDFDFC" transform="translate(1651.25390625,847.6171875)"/>
<path d="M0 0 C2 3 2 3 1.75 6.0625 C1 9 1 9 -1 11 C-4.10347254 11.33015665 -6.15781176 11.50531294 -8.875 9.875 C-10.52854531 7.11909116 -10.39365568 5.14924548 -10 2 C-7.65569181 -2.27491494 -4.20074737 -1.06928115 0 0 Z " fill="#F9F8F8" transform="translate(1281,832)"/>
<path d="M0 0 C2 2 2 2 2.3125 5.5 C2.1578125 7.2325 2.1578125 7.2325 2 9 C-1.45245824 11.30163882 -2.94738713 11.34490322 -7 11 C-9 9 -9 9 -9.3125 5.5625 C-9 2 -9 2 -7.875 0 C-5.01126853 -1.52732345 -3.04699809 -0.84278671 0 0 Z " fill="#FBFAFA" transform="translate(1660,832)"/>
<path d="M0 0 C0.66 0.33 1.32 0.66 2 1 C0.515 2.485 0.515 2.485 -1 4 C-0.67 4.66 -0.34 5.32 0 6 C-2.64 6.99 -5.28 7.98 -8 9 C-8 8.34 -8 7.68 -8 7 C-6.25 5.2734375 -6.25 5.2734375 -4 3.375 C-3.2575 2.74335937 -2.515 2.11171875 -1.75 1.4609375 C-1.1725 0.97882812 -0.595 0.49671875 0 0 Z " fill="#5E3F2A" transform="translate(1166,730)"/>
<path d="M0 0 C0.33 0.66 0.66 1.32 1 2 C1.66 2.33 2.32 2.66 3 3 C1.68 5.31 0.36 7.62 -1 10 C-2.27351308 7.45297384 -1.80191925 6.5717055 -1.0625 3.875 C-0.86785156 3.15054688 -0.67320313 2.42609375 -0.47265625 1.6796875 C-0.31667969 1.12539063 -0.16070313 0.57109375 0 0 Z " fill="#745239" transform="translate(1534,556)"/>
<path d="M0 0 C0.99 0.33 1.98 0.66 3 1 C3.73046875 2.84765625 3.73046875 2.84765625 4.1875 5.0625 C4.34605469 5.79597656 4.50460937 6.52945313 4.66796875 7.28515625 C4.83232422 8.13400391 4.83232422 8.13400391 5 9 C1.9083091 6.47043472 1.09068668 3.77545388 0 0 Z " fill="#755339" transform="translate(1380,558)"/>
</svg>
