<?xml version="1.0" encoding="UTF-8"?>
<svg version="1.1" xmlns="http://www.w3.org/2000/svg" width="2754" height="2754">
<path d="M0 0 C4.33564801 0.01139354 8.67105036 0.00460668 13.00669003 -0.0068779 C39.33060124 -0.06602672 65.49106784 0.72296352 91.64257812 4.01074219 C92.30799622 4.0934436 92.97341431 4.17614502 93.65899658 4.26135254 C146.7710597 10.92928222 203.83197502 25.44370164 238.86132812 69.00292969 C262.84862942 101.28583934 266.90063422 142.74252723 261.61352539 181.53808594 C255.51105369 222.30706953 241.3925156 263.17684685 219.51977539 298.22314453 C218.84773071 299.32650146 218.84773071 299.32650146 218.16210938 300.45214844 C217.75968018 301.0935376 217.35725098 301.73492676 216.94262695 302.39575195 C216.00136704 304.77585274 216.29595436 305.90080459 217.20507812 308.26074219 C218.91250892 310.36550065 218.91250892 310.36550065 221.08007812 312.51074219 C232.20939597 324.54243716 252.20507812 349.11605976 252.20507812 366.26074219 C252.98496094 366.47988281 253.76484375 366.69902344 254.56835938 366.92480469 C259.44082979 368.71469178 263.85108879 371.13620264 268.39257812 373.63574219 C269.84700317 374.43431641 269.84700317 374.43431641 271.33081055 375.24902344 C286.96153483 383.92354601 301.76501427 393.73894993 316.20507812 404.26074219 C316.88699219 404.75574219 317.56890625 405.25074219 318.27148438 405.76074219 C327.45385286 412.45150025 336.2318754 419.49021664 344.76269531 426.99316406 C345.97993505 428.06288457 347.20492931 429.12377163 348.43164062 430.18261719 C350.37133192 431.85889362 352.29084005 433.55546578 354.20507812 435.26074219 C355.00042969 435.96328125 355.79578125 436.66582031 356.61523438 437.38964844 C363.6302765 443.69430655 370.33911547 450.28887904 377.01757812 456.94824219 C377.91307373 457.83914551 378.80856934 458.73004883 379.73120117 459.64794922 C384.7637255 464.69220438 389.58263789 469.83984734 394.20507812 475.26074219 C395.15430437 476.34390931 396.10477182 477.42599032 397.05664062 478.50683594 C404.85715239 487.44953071 412.12918689 496.7368732 419.20507812 506.26074219 C419.75341309 506.99873047 420.30174805 507.73671875 420.86669922 508.49707031 C481.69547042 590.74542937 517.02873735 689.28264713 533.20507812 872.26074219 C533.18719238 873.25025879 533.16930664 874.23977539 533.15087891 875.25927734 C532.14486018 922.57153037 525.37809873 969.53689363 513.20507812 1015.26074219 C514.26726562 1016.03417969 515.32945313 1016.80761719 516.42382812 1017.60449219 C539.06063495 1034.21998872 551.5313101 1053.21496323 556.20507812 1081.26074219 C563.03902147 1127.36616736 550.27932974 1185.19222095 523.20507812 1223.26074219 C522.53226807 1224.02241699 521.85945801 1224.7840918 521.16625977 1225.56884766 C518.91640958 1228.65696518 518.28804118 1230.95614246 517.52929688 1234.68652344 C517.12904297 1236.57600708 517.12904297 1236.57600708 516.72070312 1238.50366211 C516.58599609 1239.16723724 516.45128906 1239.83081238 516.3125 1240.51449585 C515.59678427 1244.02342743 514.82896109 1247.52084553 514.06054688 1251.01855469 C513.90661469 1251.72157211 513.7526825 1252.42458954 513.59408569 1253.14891052 C511.33511628 1263.34136455 508.36453919 1273.31516595 505.20507812 1283.26074219 C504.94823242 1284.07913574 504.69138672 1284.8975293 504.42675781 1285.74072266 C489.32733268 1333.20021232 463.71283524 1378.10728495 433.20507812 1417.26074219 C432.78838867 1417.80069824 432.37169922 1418.3406543 431.94238281 1418.89697266 C423.09693988 1430.35862793 413.82127242 1441.43703492 404.20507812 1452.26074219 C403.57859375 1452.9684375 402.95210937 1453.67613281 402.30664062 1454.40527344 C397.47259044 1459.82336314 392.54057194 1465.14598207 387.58007812 1470.44824219 C386.95875 1471.11339844 386.33742188 1471.77855469 385.69726562 1472.46386719 C379.92856557 1478.61144373 374.0859845 1484.55481204 367.69335938 1490.05371094 C365.03014589 1492.41590186 362.4409059 1494.84532562 359.85180664 1497.28808594 C353.18145891 1503.57857711 346.37688065 1509.54255333 339.20507812 1515.26074219 C338.0146486 1516.24053906 336.82596029 1517.22245387 335.63867188 1518.20605469 C300.78930938 1546.99753179 262.50578631 1570.90170442 222.20507812 1591.26074219 C220.93059814 1591.9060791 220.93059814 1591.9060791 219.63037109 1592.56445312 C194.46096784 1605.20094365 168.03456361 1614.82356908 141.20507812 1623.26074219 C140.46112793 1623.49631836 139.71717773 1623.73189453 138.95068359 1623.97460938 C135.82123947 1624.924634 133.53949184 1625.26074219 130.20507812 1625.26074219 C130.53507812 1644.40074219 130.86507812 1663.54074219 131.20507812 1683.26074219 C139.12507813 1685.24074219 147.04507813 1687.22074219 155.20507812 1689.26074219 C159.27236734 1690.487459 163.22480889 1691.70107454 167.20507812 1693.13574219 C168.14383789 1693.46888428 169.08259766 1693.80202637 170.04980469 1694.14526367 C189.09406327 1701.08272206 205.32633898 1711.83182444 221.20507812 1724.26074219 C221.75969727 1724.69386719 222.31431641 1725.12699219 222.88574219 1725.57324219 C231.85308378 1732.68048506 239.91498172 1740.76616017 248.01757812 1748.82324219 C248.55373749 1749.35404388 249.08989685 1749.88484558 249.64230347 1750.43173218 C255.90923519 1756.65114442 261.81141375 1762.96106372 267.29858398 1769.88891602 C269.10712603 1772.13888221 270.99331588 1774.26919769 272.95507812 1776.38574219 C279.45578337 1783.60439681 286.41112535 1791.70377447 291.2865591 1800.12983131 C294.05929008 1804.52895916 296.30556987 1806.73154129 301.38194275 1808.11457825 C303.45830775 1808.55324162 305.5420862 1808.95771338 307.63061523 1809.33422852 C308.77072776 1809.56806401 309.91084028 1809.80189951 311.08550167 1810.04282093 C313.53207952 1810.54455461 315.98121202 1811.03396149 318.43250656 1811.51211929 C323.41514564 1812.50086599 328.36961082 1813.60279323 333.32788944 1814.70626354 C337.2469757 1815.57737649 341.16889996 1816.43423511 345.09242249 1817.28507996 C345.76483512 1817.43095789 346.43724776 1817.57683581 347.13003653 1817.72713429 C349.21878578 1818.18005159 351.30762095 1818.63257051 353.39648438 1819.08496094 C354.46490008 1819.31640883 354.46490008 1819.31640883 355.55489993 1819.55253243 C362.31965903 1821.01776256 369.08474611 1822.48146968 375.85063267 1823.9414854 C384.36378207 1825.77864951 392.87519142 1827.62347238 401.38442951 1829.47867078 C407.45149277 1830.80073528 413.52046843 1832.11378006 419.59084553 1833.42054302 C423.18018378 1834.19345571 426.76865886 1834.96988658 430.35507393 1835.75626183 C444.88392556 1838.93905635 459.32593167 1841.84527774 474.14576817 1843.32957745 C496.37846948 1845.57292116 517.56278446 1856.71089744 533.70507812 1871.91308594 C535.73857663 1873.82266813 537.79908739 1875.61956228 539.95507812 1877.38574219 C601.10626788 1929.30951456 623.57253085 2032.76966416 644.08007812 2117.38574219 C644.26144318 2118.14486908 644.44280823 2118.90399597 644.62966919 2119.68612671 C649.00013976 2138.04360542 652.6084923 2156.3322676 654.72070312 2175.09277344 C654.9328231 2176.92823299 655.14516957 2178.76366638 655.35772705 2180.59907532 C657.3733868 2198.16583105 659.10690643 2215.75754453 660.71834946 2233.36546326 C660.96154546 2236.01880265 661.20674328 2238.67195144 661.45230103 2241.32507324 C666.06583637 2291.25499199 670.03181793 2341.24116709 673.96632385 2391.22839355 C674.19659014 2394.1529387 674.42727325 2397.07745067 674.65808105 2400.00195312 C675.48441037 2410.47760368 676.30238775 2420.95385659 677.10739517 2431.4311676 C677.26526218 2433.48067544 677.4243938 2435.53008161 677.58383179 2437.57946777 C677.86963429 2441.26977507 678.1497447 2444.9604642 678.42773438 2448.65136719 C678.50849213 2449.68547729 678.58924988 2450.7195874 678.67245483 2451.78503418 C679.15294753 2458.28851946 679.2942589 2464.74033771 679.20507812 2471.26074219 C663.99818969 2479.68944882 648.6360854 2487.74628672 633.08007812 2495.51074219 C631.4598172 2496.32096329 631.4598172 2496.32096329 629.80682373 2497.14755249 C611.77481563 2506.14931456 593.58704952 2514.65782911 575.06542969 2522.59960938 C571.47298493 2524.14088622 567.89657703 2525.7168805 564.32226562 2527.29980469 C549.89638309 2533.64638709 535.27274246 2539.44112173 520.58007812 2545.13574219 C519.65090576 2545.49691132 518.7217334 2545.85808044 517.7644043 2546.23019409 C505.68203879 2550.91731403 493.54033266 2555.28510383 481.20507812 2559.26074219 C479.70900476 2556.26859546 479.63529908 2553.07816697 479.27894592 2549.78993225 C479.19122545 2549.00869553 479.10350498 2548.2274588 479.01312631 2547.42254823 C478.71803956 2544.78575747 478.42849849 2542.14838686 478.13891602 2539.51098633 C477.92871234 2537.6220503 477.71818385 2535.73315039 477.50735474 2533.84428406 C476.93077725 2528.66890104 476.35916645 2523.49298027 475.78863072 2518.31692815 C475.30400537 2513.92446494 474.81696304 2509.53227107 474.32993501 2505.14007372 C473.16723451 2494.65406893 472.00851518 2484.16762935 470.85229492 2473.6809082 C469.81599868 2464.28234187 468.77578001 2454.88422164 467.73120117 2445.48657227 C462.2613424 2396.26982587 456.89091927 2347.04505452 451.90125728 2297.77701259 C451.5813498 2294.6204275 451.26029276 2291.46396102 450.93904305 2288.30751228 C448.73725982 2266.64342841 446.60342684 2244.99437837 445.20507812 2223.26074219 C440.03956964 2245.505732 435.10459263 2267.78512197 430.4803009 2290.1487999 C430.00575097 2292.44291825 429.53015457 2294.73681767 429.05432129 2297.03067017 C426.75783687 2308.10461466 424.47680848 2319.18169485 422.20507812 2330.26074219 C422.05511131 2330.99175392 421.9051445 2331.72276566 421.75063324 2332.47592926 C407.83889643 2400.3021643 394.13855756 2468.47030102 386.42437744 2537.32244873 C386.22505824 2539.08414644 386.01521326 2540.84464527 385.80419922 2542.60498047 C384.2240472 2556.37814347 386.44630815 2567.75538396 390.75195312 2580.91503906 C391.2794407 2583.64569672 390.90628623 2585.5909397 390.20507812 2588.26074219 C292.37338524 2614.99280222 192.48641383 2630.97833753 91.20507812 2636.26074219 C90.32392334 2636.30913239 89.44276855 2636.35752258 88.53491211 2636.40737915 C68.72867323 2637.46893624 48.91195343 2637.44821347 29.08349609 2637.44604492 C25.28006155 2637.44596437 21.4767493 2637.45280805 17.67333984 2637.46655273 C-18.20251072 2637.59391612 -53.97312469 2636.45620915 -89.73242188 2633.44824219 C-90.75556488 2633.36392944 -91.77870789 2633.2796167 -92.83285522 2633.19274902 C-179.50738572 2626.01704023 -266.16522852 2611.40411879 -349.79492188 2587.26074219 C-349.74851562 2586.50277344 -349.70210937 2585.74480469 -349.65429688 2584.96386719 C-346.91279644 2498.41078196 -387.13624834 2399.51367023 -439.79492188 2223.26074219 C-439.84708862 2223.88422546 -439.89925537 2224.50770874 -439.95300293 2225.15008545 C-444.07786075 2274.1385041 -449.23971847 2323.01397335 -454.54492188 2371.88574219 C-454.67508068 2373.08499517 -454.67508068 2373.08499517 -454.80786896 2374.30847549 C-460.99526392 2431.30831021 -467.31449178 2488.29344816 -473.79492188 2545.26074219 C-480.22002768 2543.43527089 -486.41644111 2541.34636914 -492.58007812 2538.77636719 C-493.78965431 2538.27791542 -493.78965431 2538.27791542 -495.02366638 2537.76939392 C-497.63749021 2536.68926049 -500.24773306 2535.60082499 -502.85742188 2534.51074219 C-503.75831543 2534.13591705 -504.65920898 2533.76109192 -505.58740234 2533.37490845 C-535.71005714 2520.8296735 -565.35330761 2507.15737377 -594.47460938 2492.43261719 C-597.88469128 2490.71028707 -601.31062592 2489.02196554 -604.74023438 2487.33886719 C-618.34528577 2480.6393637 -631.63128056 2473.55554831 -644.77246094 2465.99023438 C-650.40267673 2462.76855031 -656.06964375 2459.61220328 -661.73242188 2456.44824219 C-663.86655639 2455.25426739 -666.00067283 2454.0602603 -668.13476562 2452.86621094 C-669.68813014 2451.99768396 -671.24151182 2451.1291877 -672.79492188 2450.26074219 C-672.15436021 2434.51822036 -671.07240183 2418.83309939 -669.82617188 2403.12792969 C-669.62787763 2400.60262703 -669.42973618 2398.07731237 -669.23173523 2395.55198669 C-668.64684207 2388.11203562 -668.05530374 2380.67262441 -667.4620738 2373.23333406 C-667.29455931 2371.13119236 -667.12738613 2369.0290238 -666.96033096 2366.92684555 C-663.90494011 2328.48141353 -660.74119966 2290.04745551 -657.25979614 2251.63785553 C-656.98789871 2248.63375385 -656.71787877 2245.62948846 -656.44824219 2242.62518311 C-652.11370213 2194.45444969 -646.51845828 2147.58197009 -634.62409973 2100.61492538 C-634.09630148 2098.52929928 -633.57118035 2096.4430126 -633.04650879 2094.3565979 C-627.79053033 2073.48259255 -622.25828923 2052.74052209 -615.47210693 2032.30480957 C-614.76204633 2030.16150811 -614.06037757 2028.01557995 -613.35986328 2025.86914062 C-596.87636758 1975.49649753 -576.15022782 1923.7748637 -539.79492188 1884.26074219 C-539.02776855 1883.42567139 -539.02776855 1883.42567139 -538.24511719 1882.57373047 C-519.6029524 1862.54356649 -494.70996543 1846.56124297 -466.74746704 1844.76166439 C-450.58222155 1843.67223984 -434.77863568 1839.68184778 -418.99397278 1836.22529674 C-414.63344564 1835.2728931 -410.27018268 1834.33318427 -405.90722656 1833.39198303 C-397.67295217 1831.61365357 -389.44117702 1829.82402779 -381.21025848 1828.03023773 C-371.84273117 1825.98938434 -362.47228154 1823.96210678 -353.10165024 1821.93556201 C-339.29708726 1818.94962594 -325.49355732 1815.95891249 -311.69291306 1812.95491219 C-310.20461775 1812.63100226 -308.71627898 1812.30729197 -307.22789383 1811.98379517 C-305.19834219 1811.54259097 -303.16896842 1811.10057825 -301.13964844 1810.65830994 C-300.00416565 1810.41110168 -298.86868286 1810.16389341 -297.6987915 1809.90919399 C-296.74051453 1809.6952049 -295.78223755 1809.4812158 -294.79492188 1809.26074219 C-294.04780945 1809.12049401 -293.30069702 1808.98024584 -292.53094482 1808.83574772 C-289.4481562 1807.81466645 -288.07173654 1804.80237114 -286.35742188 1802.19824219 C-280.61988103 1793.83776365 -274.29088388 1786.03985718 -267.79492188 1778.26074219 C-267.04057861 1777.35557861 -267.04057861 1777.35557861 -266.27099609 1776.43212891 C-252.94953745 1760.50878854 -238.81979053 1744.52085125 -222.79492188 1731.26074219 C-222.02220947 1730.61733887 -222.02220947 1730.61733887 -221.23388672 1729.9609375 C-198.25684424 1710.91120876 -174.84500589 1698.58926932 -146.10742188 1690.63574219 C-145.11814697 1690.35843262 -144.12887207 1690.08112305 -143.10961914 1689.79541016 C-132.38753951 1686.92450335 -121.83812357 1685.26859704 -110.79492188 1683.26074219 C-110.79492188 1660.82074219 -110.79492188 1638.38074219 -110.79492188 1615.26074219 C-114.09492187 1614.27074219 -117.39492187 1613.28074219 -120.79492188 1612.26074219 C-124.78902229 1610.78903036 -128.69266391 1609.11891757 -132.60742188 1607.44824219 C-134.28553955 1606.7335376 -134.28553955 1606.7335376 -135.99755859 1606.00439453 C-200.06032227 1578.3842549 -258.10633881 1539.84065075 -311.10351562 1494.69775391 C-312.78784794 1493.26675217 -314.47838467 1491.84337184 -316.16992188 1490.42089844 C-331.3148328 1477.63274665 -345.43423382 1463.78859448 -359.42553711 1449.76049805 C-361.88279969 1447.29780832 -364.34545505 1444.84060017 -366.80859375 1442.38378906 C-368.39940974 1440.79231319 -369.98991601 1439.20052764 -371.58007812 1437.60839844 C-372.30308609 1436.8874147 -373.02609406 1436.16643097 -373.77101135 1435.42359924 C-378.31213162 1430.86169126 -382.59695685 1426.13843997 -386.79492188 1421.26074219 C-388.24937705 1419.65305846 -389.70713082 1418.04834504 -391.16992188 1416.44824219 C-394.99406666 1412.20633369 -398.64381643 1407.85523122 -402.23242188 1403.41308594 C-404.125131 1401.07214338 -406.04742363 1398.75825007 -407.98242188 1396.45214844 C-416.70265641 1386.03263688 -424.89293387 1375.31228443 -432.79492188 1364.26074219 C-433.44783203 1363.3498584 -434.10074219 1362.43897461 -434.7734375 1361.50048828 C-443.53437723 1349.2305528 -451.8149604 1336.79743992 -459.359375 1323.7421875 C-460.82003515 1321.21733209 -462.29884969 1318.70372461 -463.77929688 1316.19042969 C-477.92330007 1292.01525105 -490.30800195 1266.85469481 -498.35742188 1239.94824219 C-500.28650151 1233.86850746 -503.23758794 1229.30067842 -506.85717773 1224.13964844 C-532.24996637 1187.48464869 -542.03867795 1128.81315154 -534.79492188 1085.26074219 C-531.52396507 1067.57146578 -524.47139397 1051.284198 -511.79492188 1038.26074219 C-510.86164063 1037.6896875 -509.92835938 1037.11863281 -508.96679688 1036.53027344 C-506.35683722 1034.32426878 -506.35683722 1034.32426878 -506.77929688 1030.44042969 C-507.07986804 1028.70685376 -507.42399928 1026.98063897 -507.79492188 1025.26074219 C-508.01857422 1024.18598633 -508.24222656 1023.11123047 -508.47265625 1022.00390625 C-509.15547941 1018.82456464 -509.86213506 1015.65145757 -510.57681274 1012.47915649 C-516.25377545 987.09141211 -520.09765235 961.22918544 -521.79492188 935.26074219 C-521.92411011 933.40316284 -521.92411011 933.40316284 -522.0559082 931.50805664 C-522.904315 918.53318794 -522.99537975 905.57226746 -522.98242188 892.57324219 C-522.98181763 891.44935089 -522.98121338 890.32545959 -522.98059082 889.16751099 C-522.95432965 871.11888386 -522.55161951 853.23586428 -520.79492188 835.26074219 C-520.70017578 834.28213226 -520.70017578 834.28213226 -520.60351562 833.28375244 C-517.51108061 801.61566406 -512.35907273 770.17435589 -504.79492188 739.26074219 C-504.48216309 737.97973633 -504.1694043 736.69873047 -503.84716797 735.37890625 C-486.10566164 663.35358096 -456.07484957 594.30355631 -413.79492188 533.26074219 C-413.32860352 532.58736816 -412.86228516 531.91399414 -412.38183594 531.22021484 C-403.7375133 518.80630699 -394.47479422 506.88306383 -384.79492188 495.26074219 C-384.37629883 494.75575195 -383.95767578 494.25076172 -383.52636719 493.73046875 C-372.81347371 480.82576015 -361.38894255 468.66784571 -349.53100586 456.81152344 C-347.72479992 455.00311092 -345.92679846 453.1867908 -344.12890625 451.37011719 C-338.04016249 445.2526853 -331.89990325 439.45997539 -325.11401367 434.11230469 C-322.87710979 432.326361 -320.76855281 430.45603243 -318.66992188 428.51074219 C-311.7505891 422.30423588 -304.2396873 416.81379192 -296.79492188 411.26074219 C-296.06031738 410.71192383 -295.32571289 410.16310547 -294.56884766 409.59765625 C-273.57473089 393.98557473 -251.19961385 380.76743506 -228.10742188 368.51074219 C-227.29917969 368.08003418 -226.4909375 367.64932617 -225.65820312 367.20556641 C-224.91570312 366.81643066 -224.17320312 366.42729492 -223.40820312 366.02636719 C-222.75634033 365.68379883 -222.10447754 365.34123047 -221.43286133 364.98828125 C-219.79492188 364.26074219 -219.79492188 364.26074219 -217.79492188 364.26074219 C-217.46492188 363.12636719 -217.13492187 361.99199219 -216.79492188 360.82324219 C-211.33132442 344.61033438 -202.24967619 330.37781801 -192.79492188 316.26074219 C-193.16141846 315.62386475 -193.52791504 314.9869873 -193.90551758 314.33081055 C-228.95192654 253.19775932 -257.0981642 177.48700505 -238.33007812 106.43261719 C-232.46101737 85.83101617 -222.02588545 68.23585482 -206.79492188 53.26074219 C-205.98410156 52.45121094 -205.17328125 51.64167969 -204.33789062 50.80761719 C-152.58102307 1.71155046 -67.01034683 -0.17767845 0 0 Z " fill="#FDDEB1" transform="translate(1354.794921875,116.7392578125)"/>
<path d="M0 0 C4.33564801 0.01139354 8.67105036 0.00460668 13.00669003 -0.0068779 C39.33060124 -0.06602672 65.49106784 0.72296352 91.64257812 4.01074219 C92.30799622 4.0934436 92.97341431 4.17614502 93.65899658 4.26135254 C146.7710597 10.92928222 203.83197502 25.44370164 238.86132812 69.00292969 C262.84862942 101.28583934 266.90063422 142.74252723 261.61352539 181.53808594 C255.51105369 222.30706953 241.3925156 263.17684685 219.51977539 298.22314453 C218.84773071 299.32650146 218.84773071 299.32650146 218.16210938 300.45214844 C217.75968018 301.0935376 217.35725098 301.73492676 216.94262695 302.39575195 C216.00136704 304.77585274 216.29595436 305.90080459 217.20507812 308.26074219 C218.91250892 310.36550065 218.91250892 310.36550065 221.08007812 312.51074219 C232.20939597 324.54243716 252.20507812 349.11605976 252.20507812 366.26074219 C252.98496094 366.47988281 253.76484375 366.69902344 254.56835938 366.92480469 C259.44082979 368.71469178 263.85108879 371.13620264 268.39257812 373.63574219 C269.84700317 374.43431641 269.84700317 374.43431641 271.33081055 375.24902344 C286.96153483 383.92354601 301.76501427 393.73894993 316.20507812 404.26074219 C316.88699219 404.75574219 317.56890625 405.25074219 318.27148438 405.76074219 C327.45385286 412.45150025 336.2318754 419.49021664 344.76269531 426.99316406 C345.97993505 428.06288457 347.20492931 429.12377163 348.43164062 430.18261719 C350.37133192 431.85889362 352.29084005 433.55546578 354.20507812 435.26074219 C355.00042969 435.96328125 355.79578125 436.66582031 356.61523438 437.38964844 C363.6302765 443.69430655 370.33911547 450.28887904 377.01757812 456.94824219 C377.91307373 457.83914551 378.80856934 458.73004883 379.73120117 459.64794922 C384.7637255 464.69220438 389.58263789 469.83984734 394.20507812 475.26074219 C395.15430437 476.34390931 396.10477182 477.42599032 397.05664062 478.50683594 C404.85715239 487.44953071 412.12918689 496.7368732 419.20507812 506.26074219 C420.02758057 507.36772461 420.02758057 507.36772461 420.86669922 508.49707031 C481.69547042 590.74542937 517.02873735 689.28264713 533.20507812 872.26074219 C533.18719238 873.25025879 533.16930664 874.23977539 533.15087891 875.25927734 C530.54262867 997.92319164 530.54262867 997.92319164 512.20507812 1016.26074219 C510.24780254 1016.57390628 508.28948573 1016.88168672 506.3269043 1017.15966797 C487.59491406 1019.8611625 471.32998338 1028.16516348 459.76367188 1043.44433594 C443.44580418 1065.74759041 433.23074854 1091.98201284 422.793396 1117.37359619 C405.19903779 1160.17117005 405.19903779 1160.17117005 390.20507812 1177.26074219 C389.50898437 1178.09992188 388.81289062 1178.93910156 388.09570312 1179.80371094 C381.75834717 1187.23100223 374.52289311 1193.90901018 365.20507812 1197.26074219 C365.68976562 1196.33777344 366.17445313 1195.41480469 366.67382812 1194.46386719 C381.14093028 1166.48806284 389.51222719 1137.01763339 394.83007812 1106.07324219 C394.95318359 1105.37376465 395.07628906 1104.67428711 395.203125 1103.95361328 C397.14292155 1092.37109878 397.44542884 1080.72808757 397.45507812 1069.01074219 C397.45575287 1068.26674164 397.45642761 1067.52274109 397.4571228 1066.75619507 C397.38965891 1019.57245225 383.64671487 974.59021723 355.89794922 936.28295898 C335.81027595 908.46449612 321.62838106 876.15948238 307.35742188 845.07714844 C302.3252458 834.14101824 297.05963826 823.31672074 291.78173828 812.49755859 C290.37705845 809.61381051 288.98336142 806.72504993 287.59179688 803.83496094 C263.53614464 754.30375542 228.38254773 699.62247298 173.83935547 680.42822266 C157.0125272 674.85217692 140.91550368 671.68342364 123.20507812 671.82324219 C122.39692657 671.82595123 121.58877502 671.82866028 120.75613403 671.83145142 C107.21956177 671.90000749 94.40472471 673.1391343 81.20507812 676.26074219 C79.56469976 676.61604944 77.924076 676.97022571 76.28320312 677.32324219 C54.78628867 682.14610284 34.24451932 690.26069195 14.24438477 699.37207031 C12.20507813 700.26074219 12.20507813 700.26074219 9.20507812 701.26074219 C6.42581249 700.05051492 3.77246852 698.76790971 1.08007812 697.38574219 C-9.67673549 692.07255369 -20.78984965 688.04266901 -32.1328125 684.17089844 C-34.25003679 683.44703452 -36.35980778 682.70137871 -38.46679688 681.94824219 C-41.55722137 680.90174924 -44.62673686 680.04278556 -47.79492188 679.26074219 C-48.51534668 679.08172363 -49.23577148 678.90270508 -49.97802734 678.71826172 C-74.22152244 672.96449811 -102.75706941 672.17728225 -126.79492188 679.26074219 C-127.53194336 679.46441406 -128.26896484 679.66808594 -129.02832031 679.87792969 C-146.15126932 684.67502046 -162.47975071 692.72011826 -176.79492188 703.26074219 C-177.84808594 704.0303125 -178.90125 704.79988281 -179.98632812 705.59277344 C-187.71010912 711.33586319 -194.85831052 717.59562247 -201.79492188 724.26074219 C-202.30442383 724.74833008 -202.81392578 725.23591797 -203.33886719 725.73828125 C-210.37604634 732.51073893 -216.77643753 739.5519143 -222.79492188 747.26074219 C-223.89126953 748.61425781 -223.89126953 748.61425781 -225.00976562 749.99511719 C-237.24482864 765.3856457 -248.11483656 782.15165597 -257.79492188 799.26074219 C-258.21064453 799.99212402 -258.62636719 800.72350586 -259.0546875 801.47705078 C-280.5182567 839.47315936 -297.8464967 879.33440163 -314.52050781 919.60522461 C-336.01865942 971.48447973 -336.01865942 971.48447973 -341.79492188 977.26074219 C-341.31481893 984.4770588 -339.68898669 991.21897004 -337.85742188 998.19824219 C-326.90438222 1040.38476718 -327.95486182 1078.33643315 -348.98681641 1116.83886719 C-355.27156184 1128.39701972 -360.64015361 1140.10620256 -360.29492188 1153.57324219 C-360.28283691 1154.36956055 -360.27075195 1155.16587891 -360.25830078 1155.98632812 C-359.85959781 1168.18905539 -356.53086057 1179.49618083 -351.63818359 1190.6171875 C-350.97285636 1192.14384947 -350.37710893 1193.70048088 -349.79492188 1195.26074219 C-350.12492188 1195.92074219 -350.45492187 1196.58074219 -350.79492188 1197.26074219 C-395.59888263 1167.78836933 -418.15434171 1123.82979104 -437.15820312 1075.08789062 C-447.08782676 1045.90457101 -447.08782676 1045.90457101 -468.20898438 1025.10058594 C-475.99230021 1022.57277188 -484.40577981 1024.1809929 -491.79492188 1027.26074219 C-494.73182011 1028.78142863 -497.60063568 1030.37030819 -500.44726562 1032.05371094 C-502.79492188 1033.26074219 -502.79492188 1033.26074219 -505.79492188 1033.26074219 C-516.69882227 986.70275378 -523.03015024 940.45318772 -522.98242188 892.57324219 C-522.98181763 891.44935089 -522.98121338 890.32545959 -522.98059082 889.16751099 C-522.95432965 871.11888386 -522.55161951 853.23586428 -520.79492188 835.26074219 C-520.73175781 834.60833557 -520.66859375 833.95592896 -520.60351562 833.28375244 C-517.51108061 801.61566406 -512.35907273 770.17435589 -504.79492188 739.26074219 C-504.48216309 737.97973633 -504.1694043 736.69873047 -503.84716797 735.37890625 C-486.10566164 663.35358096 -456.07484957 594.30355631 -413.79492188 533.26074219 C-413.32860352 532.58736816 -412.86228516 531.91399414 -412.38183594 531.22021484 C-403.7375133 518.80630699 -394.47479422 506.88306383 -384.79492188 495.26074219 C-384.37629883 494.75575195 -383.95767578 494.25076172 -383.52636719 493.73046875 C-372.81347371 480.82576015 -361.38894255 468.66784571 -349.53100586 456.81152344 C-347.72479992 455.00311092 -345.92679846 453.1867908 -344.12890625 451.37011719 C-338.04016249 445.2526853 -331.89990325 439.45997539 -325.11401367 434.11230469 C-322.87710979 432.326361 -320.76855281 430.45603243 -318.66992188 428.51074219 C-311.7505891 422.30423588 -304.2396873 416.81379192 -296.79492188 411.26074219 C-296.06031738 410.71192383 -295.32571289 410.16310547 -294.56884766 409.59765625 C-273.57473089 393.98557473 -251.19961385 380.76743506 -228.10742188 368.51074219 C-227.29917969 368.08003418 -226.4909375 367.64932617 -225.65820312 367.20556641 C-224.91570312 366.81643066 -224.17320312 366.42729492 -223.40820312 366.02636719 C-222.75634033 365.68379883 -222.10447754 365.34123047 -221.43286133 364.98828125 C-219.79492188 364.26074219 -219.79492188 364.26074219 -217.79492188 364.26074219 C-217.46492188 363.12636719 -217.13492187 361.99199219 -216.79492188 360.82324219 C-211.33132442 344.61033438 -202.24967619 330.37781801 -192.79492188 316.26074219 C-193.16141846 315.62386475 -193.52791504 314.9869873 -193.90551758 314.33081055 C-228.95192654 253.19775932 -257.0981642 177.48700505 -238.33007812 106.43261719 C-232.46101737 85.83101617 -222.02588545 68.23585482 -206.79492188 53.26074219 C-205.98410156 52.45121094 -205.17328125 51.64167969 -204.33789062 50.80761719 C-152.58102307 1.71155046 -67.01034683 -0.17767845 0 0 Z " fill="#432A19" transform="translate(1354.794921875,116.7392578125)"/>
<path d="M0 0 C24.73964707 5.89039216 24.73964707 5.89039216 34.8125 9.3125 C35.95267578 9.69712402 37.09285156 10.08174805 38.26757812 10.47802734 C58.03931319 17.31841893 74.60978376 28.17072889 91 41 C91.83192871 41.6496875 91.83192871 41.6496875 92.68066406 42.3125 C101.64800566 49.41974287 109.70990359 57.50541799 117.8125 65.5625 C118.34865936 66.0933017 118.88481873 66.62410339 119.43722534 67.17098999 C125.70415707 73.39040223 131.60633563 79.70032154 137.09350586 86.62817383 C138.90204791 88.87814002 140.78823775 91.00845551 142.75 93.125 C149.25070524 100.34365462 156.20604723 108.44303228 161.08148098 116.86908913 C163.85421195 121.26821697 166.10049174 123.4707991 171.17686462 124.85383606 C173.25322963 125.29249943 175.33700807 125.69697119 177.42553711 126.07348633 C178.56564963 126.30732183 179.70576216 126.54115732 180.88042355 126.78207874 C183.32700139 127.28381242 185.77613389 127.7732193 188.22742844 128.25137711 C193.21006751 129.24012381 198.1645327 130.34205104 203.12281132 131.44552135 C207.04189757 132.3166343 210.96382183 133.17349292 214.88734436 134.02433777 C215.559757 134.1702157 216.23216963 134.31609363 216.92495841 134.4663921 C219.01370766 134.91930941 221.10254283 135.37182832 223.19140625 135.82421875 C223.90368338 135.97851734 224.61596052 136.13281594 225.34982181 136.29179025 C232.1145809 137.75702037 238.87966798 139.2207275 245.64555454 140.68074322 C254.15870394 142.51790732 262.67011329 144.36273019 271.17935139 146.21792859 C277.24641464 147.53999309 283.3153903 148.85303787 289.3857674 150.15980083 C292.97510566 150.93271352 296.56358073 151.7091444 300.1499958 152.49551964 C314.67884743 155.67831417 329.12085354 158.58453556 343.94069004 160.06883526 C366.17339135 162.31217897 387.35770633 173.45015525 403.5 188.65234375 C405.5334985 190.56192594 407.59400926 192.35882009 409.75 194.125 C470.90118976 246.04877238 493.36745272 349.50892198 513.875 434.125 C514.05636505 434.88412689 514.2377301 435.64325378 514.42459106 436.42538452 C518.79506164 454.78286324 522.40341417 473.07152541 524.515625 491.83203125 C524.72774498 493.6674908 524.94009144 495.50292419 525.15264893 497.33833313 C527.16830868 514.90508886 528.90182831 532.49680234 530.51327133 550.10472107 C530.75646733 552.75806046 531.00166516 555.41120925 531.2472229 558.06433105 C535.86075825 607.9942498 539.82673981 657.9804249 543.76124573 707.96765137 C543.99151201 710.89219652 544.22219512 713.81670848 544.45300293 716.74121094 C545.27933224 727.21686149 546.09730963 737.6931144 546.90231705 748.17042542 C547.06018405 750.21993325 547.21931567 752.26933942 547.37875366 754.31872559 C547.66455616 758.00903289 547.94466657 761.69972201 548.22265625 765.390625 C548.34379288 766.94179016 548.34379288 766.94179016 548.46737671 768.52429199 C548.94786941 775.02777727 549.08918078 781.47959553 549 788 C533.79311157 796.42870663 518.43100727 804.48554453 502.875 812.25 C501.79482605 812.7901474 500.7146521 813.3302948 499.60174561 813.8868103 C481.5697375 822.88857237 463.38197139 831.39708692 444.86035156 839.33886719 C441.26790681 840.88014403 437.6914989 842.45613832 434.1171875 844.0390625 C419.69130497 850.3856449 405.06766433 856.18037955 390.375 861.875 C388.98124146 862.41675369 388.98124146 862.41675369 387.55932617 862.9694519 C375.47696066 867.65657184 363.33525453 872.02436164 351 876 C349.50392663 873.00785327 349.43022095 869.81742478 349.0738678 866.52919006 C348.98614733 865.74795334 348.89842686 864.96671661 348.80804819 864.16180605 C348.51296144 861.52501528 348.22342037 858.88764467 347.93383789 856.25024414 C347.72363421 854.36130811 347.51310573 852.4724082 347.30227661 850.58354187 C346.72569913 845.40815885 346.15408833 840.23223809 345.5835526 835.05618596 C345.09892724 830.66372275 344.61188491 826.27152888 344.12485689 821.87933153 C342.96215638 811.39332675 341.80343706 800.90688716 340.6472168 790.42016602 C339.61092056 781.02159969 338.57070188 771.62347945 337.52612305 762.22583008 C332.05626428 713.00908368 326.68584114 663.78431233 321.69617915 614.5162704 C321.37627168 611.35968531 321.05521463 608.20321883 320.73396492 605.0467701 C318.5321817 583.38268622 316.39834872 561.73363619 315 540 C309.83449151 562.24498982 304.8995145 584.52437978 300.27522278 606.88805771 C299.80067284 609.18217607 299.32507645 611.47607548 298.84924316 613.76992798 C296.55275874 624.84387247 294.27173035 635.92095266 292 647 C291.85003319 647.73101173 291.70006638 648.46202347 291.54555511 649.21518707 C277.63381831 717.04142212 263.93347944 785.20955883 256.21929932 854.06170654 C256.01998012 855.82340425 255.81013514 857.58390308 255.59912109 859.34423828 C254.01896907 873.11740128 256.24123003 884.49464177 260.546875 897.65429688 C261.07436257 900.38495453 260.70120811 902.33019751 260 905 C158.54696554 932.72157496 54.95760821 948.71315165 -53.125 953.6875 C-53.97392822 953.72391602 -54.82285645 953.76033203 -55.69750977 953.79785156 C-61.91920144 954.01920781 -68.13808925 954.01360667 -74.36279297 954.00708008 C-75.2905101 954.00656898 -76.21822723 954.00605789 -77.17405701 954.00553131 C-79.44937221 954.00420404 -81.72468566 954.00234558 -84 954 C-84.21212274 940.80916162 -84.37020973 927.61875331 -84.46630955 914.42653275 C-84.51252219 908.29528216 -84.57476443 902.16522914 -84.67895508 896.03466797 C-85.16922615 866.39225563 -83.83256753 838.81500166 -76.68192101 809.9679966 C-74.6825328 801.89234963 -73.16353062 793.74730902 -71.6875 785.5625 C-71.21952848 783.02044556 -70.7481819 780.47902586 -70.27734375 777.9375 C-70.06190918 776.76574219 -69.84647461 775.59398438 -69.62451172 774.38671875 C-68.68203037 769.27565494 -67.71919041 764.16855723 -66.75 759.0625 C-66.59877686 758.25820557 -66.44755371 757.45391113 -66.29174805 756.62524414 C-65.61290792 753.04935504 -64.89483741 749.49022239 -64.0847168 745.94165039 C-62.87223838 740.51082833 -61.82620498 735.05180556 -60.78515625 729.5859375 C-60.34733293 727.30198593 -59.90942208 725.01805114 -59.47143555 722.73413086 C-59.2420932 721.53593719 -59.01275085 720.33774353 -58.77645874 719.10324097 C-54.67671826 697.69469235 -50.48761026 676.30682555 -46.1875 654.9375 C-43.11646312 639.67240675 -40.09275413 624.40574958 -37.27612305 609.09155273 C-34.98102337 596.70160695 -32.48568932 584.3528601 -30 572 C-26.40266309 554.11956449 -22.91632048 536.22621419 -19.60839844 518.29003906 C-18.66928439 513.21158767 -17.71254804 508.13655518 -16.75 503.0625 C-16.59869629 502.25772217 -16.44739258 501.45294434 -16.29150391 500.6237793 C-15.60809038 497.02408197 -14.88347466 493.44290935 -14.06640625 489.87109375 C-12.58271991 483.28572128 -11.41099753 476.63749411 -10.1875 470 C-8.4072725 460.3428755 -6.5511541 450.70498021 -4.61328125 441.078125 C-1.98016433 427.98652427 0.52937664 414.87313803 3 401.75 C3.21821411 400.59201904 3.43642822 399.43403809 3.66125488 398.2409668 C7.52205293 377.73237371 11.19014761 357.20683993 14.5234375 336.60546875 C14.65625122 335.78486969 14.78906494 334.96427063 14.92590332 334.11880493 C15.57449293 330.10723992 16.21993642 326.09522106 16.85839844 322.08203125 C17.97697123 315.08216168 19.15076165 308.10546736 20.4921875 301.14453125 C22.11332659 292.70328766 23.36559574 284.21622059 24.60351562 275.71160889 C25.15297988 271.95375043 25.71584597 268.19794021 26.27856445 264.44204712 C26.87169223 260.48305081 27.46186763 256.52361605 28.05224609 252.56420898 C28.35048745 250.56482104 28.6489896 248.56547198 28.94775391 246.56616211 C32.45898925 223.06774719 35.78191612 199.54895921 38.9375 176 C39.02507191 175.34778095 39.11264381 174.6955619 39.20286942 174.02357864 C41.68947255 155.49969617 44.0355209 136.97161759 45.89624023 118.37304688 C45.96677612 117.67514542 46.03731201 116.97724396 46.10998535 116.25819397 C46.29286906 114.43417626 46.46983348 112.60956762 46.64624023 110.78491211 C47 108 47 108 48 105 C47.29907227 104.89042969 46.59814453 104.78085938 45.87597656 104.66796875 C37.77440709 103.36408515 29.76775656 101.74149121 21.75 100 C20.53570313 99.73960938 19.32140625 99.47921875 18.0703125 99.2109375 C12.01272438 97.90439889 6.01575609 96.50393902 0 95 C0 63.65 0 32.3 0 0 Z " fill="#2695C4" transform="translate(1485,1800)"/>
<path d="M0 0 C0 31.35 0 62.7 0 95 C-18.42099408 99.60524852 -18.42099408 99.60524852 -25.84765625 101.10546875 C-26.67406113 101.27500565 -27.500466 101.44454254 -28.35191345 101.61921692 C-30.06263964 101.96940052 -31.77370334 102.31793947 -33.48510742 102.66479492 C-36.09187932 103.19345824 -38.69735479 103.72819326 -41.30273438 104.26367188 C-42.98430308 104.60712315 -44.66594121 104.95023475 -46.34765625 105.29296875 C-47.11441177 105.45024948 -47.8811673 105.60753021 -48.67115784 105.76957703 C-53.101558 106.66448706 -57.51927346 107.40446742 -62 108 C-57.82222136 143.5291706 -53.38620731 179.00849436 -48.36395264 214.42901611 C-47.98739752 217.08902468 -47.61297882 219.74932845 -47.23876953 222.40966797 C-42.95080609 252.83681627 -38.09482654 283.15012583 -32.94213867 313.44238281 C-31.45459621 322.20247917 -29.98585684 330.96413062 -28.6328125 339.74609375 C-28.38429243 341.34312664 -28.13558838 342.94013092 -27.88671875 344.53710938 C-27.5078692 346.97101155 -27.12999438 349.40504313 -26.75537109 351.83959961 C-24.9166879 363.773993 -22.7968647 375.63228621 -20.48822021 387.48446655 C-19.73990672 391.34011933 -19.01091189 395.19937633 -18.28125 399.05859375 C-14.26850833 420.21327338 -10.21078177 441.35931076 -6.125 462.5 C-5.93357611 463.49052494 -5.93357611 463.49052494 -5.73828506 464.50106049 C-1.92169825 484.24428223 1.97296911 503.97091903 5.94085693 523.68432617 C8.68721733 537.333821 11.3524049 550.9944283 13.90710449 564.68103027 C16.70980769 579.67989124 19.71278077 594.63684412 22.72314453 609.59521484 C25.47309546 623.26716001 28.14791265 636.94561995 30.67431641 650.66064453 C33.17315469 664.12458611 35.89595124 677.54318001 38.59762573 690.96762085 C41.48014691 705.29894233 44.28920034 719.63988145 46.97283936 734.00970459 C49.57624828 747.93510374 52.34853515 761.82422034 55.14663696 775.71166992 C57.83382979 789.05602682 60.44789046 802.40955818 62.88500977 815.80200195 C63.09311279 816.93597412 63.30121582 818.06994629 63.515625 819.23828125 C63.72070679 820.36411621 63.92578857 821.48995117 64.13708496 822.64990234 C64.74466705 825.83770764 65.46210307 828.98622321 66.22154236 832.14115906 C69.67449625 846.83001027 70.67642646 860.60825985 70.48828125 875.65625 C70.47891963 877.90880536 70.47181945 880.16137112 70.46684265 882.41394043 C70.44803596 888.25335366 70.39917244 894.09211376 70.34332275 899.93127441 C70.29155164 905.92544731 70.2692069 911.91972899 70.24414062 917.9140625 C70.19101986 929.60965707 70.10603957 941.30477358 70 953 C48.10542575 951.97486358 26.25949282 950.85609629 4.4375 948.75 C3.31421295 948.64362213 2.1909259 948.53724426 1.03359985 948.42764282 C-80.30643638 940.6902 -160.17478072 925.33006456 -239 904 C-238.97498413 902.58678467 -238.97498413 902.58678467 -238.94946289 901.14501953 C-238.86630643 892.92131018 -239.20725342 885.02475075 -240.4375 876.875 C-240.61087891 875.70727051 -240.78425781 874.53954102 -240.96289062 873.33642578 C-254.65529942 785.15506846 -281.36392528 698.51592925 -329 540 C-329.05216675 540.62348328 -329.1043335 541.24696655 -329.15808105 541.88934326 C-333.28293888 590.87776191 -338.4447966 639.75323116 -343.75 688.625 C-343.83677254 689.42450199 -343.92354507 690.22400398 -344.01294708 691.04773331 C-350.20034205 748.04756802 -356.5195699 805.03270597 -363 862 C-369.42510581 860.1745287 -375.62151923 858.08562695 -381.78515625 855.515625 C-382.59154037 855.18332382 -383.3979245 854.85102264 -384.22874451 854.50865173 C-386.84256834 853.42851831 -389.45281118 852.34008281 -392.0625 851.25 C-392.96339355 850.87517487 -393.86428711 850.50034973 -394.79248047 850.11416626 C-424.91513526 837.56893131 -454.55838573 823.89663158 -483.6796875 809.171875 C-487.08976941 807.44954488 -490.51570404 805.76122335 -493.9453125 804.078125 C-507.55036389 797.37862151 -520.83635869 790.29480612 -533.97753906 782.72949219 C-539.60775486 779.50780813 -545.27472187 776.35146109 -550.9375 773.1875 C-553.07163451 771.9935252 -555.20575096 770.79951811 -557.33984375 769.60546875 C-558.89320826 768.73694178 -560.44658994 767.86844551 -562 767 C-561.35943834 751.25747818 -560.27747996 735.5723572 -559.03125 719.8671875 C-558.83295575 717.34188484 -558.6348143 714.81657018 -558.43681335 712.29124451 C-557.85192019 704.85129344 -557.26038187 697.41188222 -556.66715193 689.97259188 C-556.49963744 687.87045018 -556.33246425 685.76828161 -556.16540909 683.66610336 C-553.11001823 645.22067134 -549.94627778 606.78671333 -546.46487427 568.37711334 C-546.19297683 565.37301166 -545.92295689 562.36874627 -545.65332031 559.36444092 C-541.31878025 511.1937075 -535.7235364 464.3212279 -523.82917786 417.3541832 C-523.3013796 415.26855709 -522.77625848 413.18227041 -522.25158691 411.09585571 C-516.99560846 390.22185036 -511.46336736 369.4797799 -504.67718506 349.04406738 C-503.96712445 346.90076592 -503.26545569 344.75483776 -502.56494141 342.60839844 C-486.08144571 292.23575535 -465.35530594 240.51412151 -429 201 C-428.48856445 200.44328613 -427.97712891 199.88657227 -427.45019531 199.31298828 C-408.80803052 179.28282431 -383.91504356 163.30050078 -355.95254517 161.5009222 C-339.78729968 160.41149766 -323.98371381 156.42110559 -308.1990509 152.96455455 C-303.83852376 152.01215091 -299.47526081 151.07244209 -295.11230469 150.13124084 C-286.8780303 148.35291138 -278.64625514 146.5632856 -270.41533661 144.76949555 C-261.0478093 142.72864215 -251.67735967 140.70136459 -242.30672836 138.67481983 C-228.50216539 135.68888375 -214.69863544 132.6981703 -200.89799118 129.69417 C-199.40969588 129.37026007 -197.92135711 129.04654978 -196.43297195 128.72305298 C-194.40342031 128.28184879 -192.37404654 127.83983607 -190.34472656 127.39756775 C-189.20924377 127.15035949 -188.07376099 126.90315123 -186.90386963 126.64845181 C-185.46645416 126.32746816 -185.46645416 126.32746816 -184 126 C-183.25288757 125.85975183 -182.50577515 125.71950365 -181.73602295 125.57500553 C-178.65323433 124.55392427 -177.27681466 121.54162895 -175.5625 118.9375 C-169.82495916 110.57702146 -163.495962 102.77911499 -157 95 C-156.49710449 94.39655762 -155.99420898 93.79311523 -155.47607422 93.17138672 C-142.15461558 77.24804635 -128.02486865 61.26010907 -112 48 C-111.2272876 47.35659668 -111.2272876 47.35659668 -110.43896484 46.70019531 C-80.91625386 22.22360585 -39.50892121 0 0 0 Z " fill="#2695C4" transform="translate(1244,1800)"/>
<path d="M0 0 C4.33564801 0.01139354 8.67105036 0.00460668 13.00669003 -0.0068779 C39.33060124 -0.06602672 65.49106784 0.72296352 91.64257812 4.01074219 C92.30799622 4.0934436 92.97341431 4.17614502 93.65899658 4.26135254 C146.7710597 10.92928222 203.83197502 25.44370164 238.86132812 69.00292969 C262.84862942 101.28583934 266.90063422 142.74252723 261.61352539 181.53808594 C255.51105369 222.30706953 241.3925156 263.17684685 219.51977539 298.22314453 C219.07174561 298.95871582 218.62371582 299.69428711 218.16210938 300.45214844 C217.75968018 301.0935376 217.35725098 301.73492676 216.94262695 302.39575195 C216.00136704 304.77585274 216.29595436 305.90080459 217.20507812 308.26074219 C218.91250892 310.36550065 218.91250892 310.36550065 221.08007812 312.51074219 C235.14090595 327.71163713 244.77938536 346.09317273 252.20507812 365.26074219 C247.32404401 364.62907895 243.4276801 362.54780782 239.08007812 360.38574219 C210.44664994 346.57659399 180.46004692 336.21269307 149.58007812 328.76074219 C148.91691589 328.60070709 148.25375366 328.440672 147.57049561 328.27578735 C133.91024025 325.01104137 120.11518756 322.52051209 106.26757812 320.19824219 C105.33751953 320.03775391 104.40746094 319.87726563 103.44921875 319.71191406 C89.16954306 317.31431511 74.84294298 315.90499243 60.39257812 315.13574219 C59.2371048 315.07270401 59.2371048 315.07270401 58.05828857 315.00839233 C-6.0430369 311.60473177 -72.54623584 314.96789347 -134.36669922 333.53173828 C-136.1230106 334.05902018 -137.88143079 334.5792949 -139.64111328 335.09521484 C-166.21681181 342.89474203 -191.65846055 352.69982595 -216.79492188 364.26074219 C-217.79492188 362.26074219 -217.79492188 362.26074219 -217.20922852 360.41992188 C-216.87785889 359.68161133 -216.54648926 358.94330078 -216.20507812 358.18261719 C-215.83697021 357.35818115 -215.4688623 356.53374512 -215.08959961 355.68432617 C-214.68298096 354.80204346 -214.2763623 353.91976074 -213.85742188 353.01074219 C-213.44500244 352.108479 -213.03258301 351.20621582 -212.60766602 350.27661133 C-207.12109317 338.44635295 -200.74398052 327.61988776 -192.79492188 317.26074219 C-195.40675012 311.78964934 -198.22457241 306.46018882 -201.21508789 301.1887207 C-233.31041914 244.44842888 -255.49911636 171.43314505 -238.33007812 106.43261719 C-232.46101737 85.83101617 -222.02588545 68.23585482 -206.79492188 53.26074219 C-205.98410156 52.45121094 -205.17328125 51.64167969 -204.33789062 50.80761719 C-152.58102307 1.71155046 -67.01034683 -0.17767845 0 0 Z " fill="#432A19" transform="translate(1354.794921875,116.7392578125)"/>
<path d="M0 0 C107.25 0 214.5 0 325 0 C324.36545137 8.24913219 323.63511444 16.04795358 322.1875 24.125 C320.71185251 32.65185679 319.35945777 41.18498877 318.125 49.75 C316.04124412 64.07167075 313.65188989 78.33717268 311.2449646 92.60720825 C309.75786716 101.4249828 308.28992841 110.24593384 306.82168579 119.06686401 C306.39335364 121.63975403 305.96470598 124.2125912 305.53588867 126.78540039 C305.39996307 127.60118057 305.26403748 128.41696075 305.12399292 129.25746155 C304.84610724 130.92382097 304.56779982 132.59011011 304.28909302 134.2563324 C303.56355191 138.59766578 302.84618565 142.9400921 302.14331055 147.28515625 C299.35564031 164.41758103 296.1865297 181.47554629 292.99145508 198.53564453 C292.21732646 202.66931436 291.44759798 206.80378966 290.6789999 210.93849087 C287.78622811 226.49034391 284.89058712 242.03605554 281.56654358 257.50292969 C280.17805641 263.97992129 279.00430202 270.47460704 277.98960876 277.02050781 C277.45268035 280.45400932 276.83538851 283.84079839 276.06616211 287.23046875 C275.09103466 291.57391622 274.16606294 295.92568017 273.265625 300.28515625 C273.10729187 301.05048172 272.94895874 301.81580719 272.78582764 302.60432434 C272.27249924 305.09009976 271.76090837 307.5762261 271.25 310.0625 C271.07259277 310.92546692 270.89518555 311.78843384 270.71240234 312.67755127 C268.11557978 325.33182104 265.6403498 338.00104142 263.29223633 350.70385742 C260.91400573 363.55174228 258.40736052 376.37355678 255.89501953 389.19580078 C255.55629069 390.9247999 255.21758589 392.65380374 254.87890625 394.3828125 C254.71479248 395.2204715 254.55067871 396.05813049 254.3815918 396.9211731 C253.02377356 403.85990245 251.6967923 410.80432472 250.375 417.75 C248.69495154 426.56148221 246.90083136 435.34526125 245.0625 444.125 C242.8305156 454.79871905 240.74748128 465.49246478 238.76104736 476.21447754 C236.22652402 489.8914028 233.57007344 503.54320149 230.89550781 517.19335938 C230.55661663 518.92317238 230.21774908 520.65299002 229.87890625 522.3828125 C229.71478241 523.22052185 229.55065857 524.0582312 229.38156128 524.92132568 C228.02375479 531.86000448 226.6967826 538.80437568 225.375 545.75 C223.46417449 555.77185677 221.39639362 565.75720501 219.3046875 575.74267578 C217.11436307 586.27729385 215.11521788 596.84235425 213.17993164 607.42626953 C212.95297607 608.65974121 212.72602051 609.89321289 212.4921875 611.1640625 C212.27417984 612.36060959 212.05617218 613.55715668 211.83155823 614.78996277 C211.30513386 617.56414558 210.69423546 620.29639715 210.0007019 623.03337097 C206.68892909 636.46371323 206.39567194 649.48266459 206.390625 663.26171875 C206.37560707 665.63354093 206.35887251 668.0053528 206.34051514 670.37715149 C206.29723489 676.55336039 206.27693065 682.72942834 206.26177979 688.90576172 C206.24206543 695.23478395 206.20011256 701.56365705 206.16015625 707.89257812 C206.08528113 720.2616723 206.0347326 732.63073241 206 745 C197.46204821 745.02341492 188.92411035 745.04106083 180.38613415 745.05181217 C176.41943903 745.0569784 172.45276625 745.06395861 168.48608398 745.07543945 C164.64106853 745.08649548 160.79607423 745.09232362 156.95104408 745.09487724 C155.50142395 745.09669141 154.05180467 745.10023082 152.60219383 745.10573006 C141.37191462 745.14654566 130.20931439 744.67643117 119 744 C119.00967804 742.8309462 119.01935608 741.6618924 119.02932739 740.45741272 C119.11575454 729.18519403 119.14582192 717.91389582 119.12697029 706.64135075 C119.11893178 700.85228168 119.12768219 695.0644843 119.18164062 689.27563477 C119.4591494 657.75325463 116.51147131 628.70860474 109.1769104 598.03494263 C107.50238445 590.9816268 106.14734131 583.87441467 104.8125 576.75 C104.34427256 574.30719145 103.87558967 571.8644701 103.40625 569.421875 C102.41858441 564.22553328 101.44184032 559.02720865 100.46875 553.828125 C99.91729736 550.88529807 99.36512216 547.94260752 98.8125 545 C98.67285828 544.25581818 98.53321655 543.51163635 98.38934326 542.74490356 C95.30079965 526.31795559 92.00098231 509.93405698 88.70547485 493.54760742 C85.82071229 479.19747129 82.99235399 464.84427918 80.34741211 450.44799805 C77.6469948 435.8775726 74.68394525 421.35901845 71.76223755 406.83169556 C68.83511287 392.27019821 65.96366556 377.70552456 63.27734375 363.09765625 C60.9815754 350.70572479 58.48625481 338.35486487 56 326 C53.03022757 311.2424068 50.1161423 296.48227399 47.39404297 281.67675781 C45.17343809 269.70838429 42.75806177 257.78062854 40.35064697 245.84863281 C33.65099102 212.62365887 27.39964559 179.33687254 21.98901367 145.8762207 C20.91931233 139.29048253 19.77144712 132.73634453 18.4375 126.19921875 C17.17960261 120.0267643 16.17642004 113.86298808 15.3125 107.625 C13.57099056 95.45494328 11.59571038 83.3287339 9.59091187 71.19961548 C6.93705361 55.13009373 4.33100057 39.05737872 2 22.9375 C1.89422638 22.21892822 1.78845276 21.50035645 1.67947388 20.76000977 C1.38418987 18.74586694 1.09813381 16.73037775 0.8125 14.71484375 C0.65394531 13.60230225 0.49539063 12.48976074 0.33203125 11.34350586 C-0.04178478 7.5792334 0 3.78278807 0 0 Z " fill="#FEFEFE" transform="translate(1195,2009)"/>
<path d="M0 0 C1.30558365 -0.00095673 2.6111673 -0.00191345 3.95631409 -0.00289917 C6.7051819 -0.0043608 9.45401691 -0.00227476 12.20288086 0.00244141 C15.65498338 0.00808786 19.10700803 0.00477858 22.55910778 -0.0009861 C64.00717899 -0.06018887 64.00717899 -0.06018887 84.25390625 2.7578125 C86.11607788 3.01449707 86.11607788 3.01449707 88.01586914 3.27636719 C117.99908877 7.61867431 146.55740194 14.89161647 173.94140625 28.1328125 C174.58480957 28.44154297 175.22821289 28.75027344 175.89111328 29.06835938 C192.19221608 37.0029327 206.60417275 47.9291608 219.94140625 60.1328125 C221.37226562 61.43798828 221.37226562 61.43798828 222.83203125 62.76953125 C235.05024129 74.44664913 244.18424207 88.20195454 251.94140625 103.1328125 C252.28075195 103.78121094 252.62009766 104.42960937 252.96972656 105.09765625 C256.03696223 110.98911955 258.96306314 116.76770859 260.94140625 123.1328125 C256.06037213 122.50114926 252.16400822 120.41987814 247.81640625 118.2578125 C219.18297807 104.4486643 189.19637505 94.08476339 158.31640625 86.6328125 C157.65324402 86.4727774 156.99008179 86.31274231 156.30682373 86.14785767 C142.64656838 82.88311169 128.85151568 80.3925824 115.00390625 78.0703125 C114.07384766 77.90982422 113.14378906 77.74933594 112.18554688 77.58398438 C97.90587118 75.18638542 83.5792711 73.77706274 69.12890625 73.0078125 C68.3585907 72.96578705 67.58827515 72.9237616 66.7946167 72.88046265 C2.69329122 69.47680209 -63.80990772 72.83996379 -125.63037109 91.40380859 C-127.38668247 91.93109049 -129.14510267 92.45136521 -130.90478516 92.96728516 C-157.48048368 100.76681234 -182.92213242 110.57189626 -208.05859375 122.1328125 C-209.05859375 120.1328125 -209.05859375 120.1328125 -208.47290039 118.29199219 C-207.97584595 117.18452637 -207.97584595 117.18452637 -207.46875 116.0546875 C-207.10064209 115.23025146 -206.73253418 114.40581543 -206.35327148 113.55639648 C-205.94665283 112.67411377 -205.54003418 111.79183105 -205.12109375 110.8828125 C-204.70867432 109.98054932 -204.29625488 109.07828613 -203.87133789 108.14868164 C-188.58225771 75.18206042 -164.33369562 49.35931098 -133.05859375 31.1328125 C-132.42808105 30.76526855 -131.79756836 30.39772461 -131.14794922 30.01904297 C-122.39002656 24.984207 -113.46573157 21.12818927 -103.93603516 17.80322266 C-102.2276889 17.1931942 -100.53821337 16.53095669 -98.8515625 15.86328125 C-81.15981459 8.99164057 -62.06935441 5.75666485 -43.30664062 3.42089844 C-39.07758699 2.8789476 -34.86658235 2.20823011 -30.65234375 1.5625 C-20.43834547 0.34126108 -10.27954238 -0.017055 0 0 Z " fill="#2694C3" transform="translate(1346.05859375,358.8671875)"/>
<path d="M0 0 C1.30222028 2.60444057 0.82728916 3.73052794 0.25 6.56640625 C0.05752686 7.51394775 -0.13494629 8.46148926 -0.33325195 9.43774414 C-0.55327881 10.46891357 -0.77330566 11.50008301 -1 12.5625 C-1.34067505 14.16822876 -1.34067505 14.16822876 -1.68823242 15.80639648 C-15.36355345 78.58293706 -44.57911838 137.4074967 -84 188 C-84.41668945 188.53995605 -84.83337891 189.07991211 -85.26269531 189.63623047 C-94.10813825 201.09788574 -103.38380571 212.17629273 -113 223 C-113.62648438 223.70769531 -114.25296875 224.41539062 -114.8984375 225.14453125 C-119.73248768 230.56262096 -124.66450618 235.88523988 -129.625 241.1875 C-130.24632812 241.85265625 -130.86765625 242.5178125 -131.5078125 243.203125 C-137.27651256 249.35070155 -143.11909362 255.29406985 -149.51171875 260.79296875 C-152.17493224 263.15515968 -154.76417222 265.58458343 -157.35327148 268.02734375 C-164.02361922 274.31783492 -170.82819748 280.28181114 -178 286 C-179.19042953 286.97979687 -180.37911783 287.96171168 -181.56640625 288.9453125 C-216.41576874 317.73678961 -254.69929182 341.64096224 -295 362 C-296.27447998 362.64533691 -296.27447998 362.64533691 -297.57470703 363.30371094 C-322.74411029 375.94020146 -349.17051451 385.56282689 -376 394 C-376.7439502 394.23557617 -377.48790039 394.47115234 -378.25439453 394.71386719 C-381.38383866 395.66389182 -383.66558629 396 -387 396 C-385.78536388 392.35609165 -385.06539725 392.2112953 -381.7578125 390.50390625 C-380.86594238 390.0339624 -379.97407227 389.56401855 -379.05517578 389.07983398 C-378.08821777 388.57911377 -377.12125977 388.07839355 -376.125 387.5625 C-355.30642429 376.49343281 -335.6662387 363.39618409 -317 349 C-316.45134277 348.57750977 -315.90268555 348.15501953 -315.33740234 347.71972656 C-304.02854036 338.99019059 -293.0687585 329.89394851 -282.51171875 320.265625 C-280.4352169 318.39257512 -278.33784686 316.55213174 -276.2265625 314.71875 C-271.95673756 310.98956692 -267.80937262 307.14145738 -263.6875 303.25 C-262.57882568 302.20392578 -262.57882568 302.20392578 -261.44775391 301.13671875 C-253.70400625 293.80639846 -245.98934395 286.47168194 -239.06640625 278.34765625 C-236.76045248 275.72784866 -234.376198 273.19326367 -231.98120117 270.6550293 C-226.51400195 264.85992755 -221.23136029 259.01585542 -216.2578125 252.78515625 C-214.1445182 250.17827245 -211.97060746 247.64396426 -209.765625 245.11523438 C-202.98387304 237.32845474 -196.70568366 229.21644669 -190.49462891 220.97070312 C-189.16128047 219.21265207 -187.81215996 217.46951855 -186.44921875 215.734375 C-178.90287372 206.10074304 -171.92809489 196.08383485 -165 186 C-164.54093262 185.33210449 -164.08186523 184.66420898 -163.60888672 183.97607422 C-131.83727984 137.53500668 -107.11426381 88.25181601 -92 34 C-88.48283697 34 -87.62878252 34.82445585 -85 37 C-85.12375 35.9275 -85.2475 34.855 -85.375 33.75 C-85.4035211 25.74983184 -80.19410569 17.78412515 -75 12 C-66.39393475 5.61392478 -57.68859131 2.84914225 -47 4 C-37.83450647 6.19473042 -30.10560037 10.30301729 -25 18.375 C-24.31724362 19.57431548 -23.64428074 20.77958359 -23 22 C-14.12872882 15.83603773 -6.8769307 8.28758315 0 0 Z " fill="#432A19" transform="translate(1872,1346)"/>
<path d="M0 0 C7.69003606 6.30330824 10.52674055 13.82916686 12.6875 23.3125 C15.3275 18.3625 17.9675 13.4125 20.6875 8.3125 C23.19291788 12.07062682 23.85298433 15.84621746 24.8125 20.1875 C45.85303009 111.23502976 94.77352078 190.82758618 158.19189453 258.70361328 C159.68832751 260.31339019 161.1721195 261.93390976 162.65234375 263.55859375 C171.48749973 273.24328396 180.46657779 282.8933318 190.4765625 291.3828125 C192.92898228 293.52326368 195.29753635 295.74014688 197.66967773 297.96875 C204.13410826 304.0391236 210.75951071 309.77194623 217.6875 315.3125 C218.87908109 316.29378222 220.06908596 317.27698045 221.2578125 318.26171875 C244.83646059 337.74141979 270.03975106 354.87004878 296.59472656 370.0324707 C298.73350558 371.34063897 300.70697543 372.77728557 302.6875 374.3125 C232.11168439 362.0132764 157.2489008 299.78407494 104.37890625 254.74951172 C102.69457393 253.31850998 101.0040372 251.89512965 99.3125 250.47265625 C84.16758907 237.68450447 70.04818805 223.8403523 56.05688477 209.81225586 C53.59962218 207.34956613 51.13696683 204.89235798 48.67382812 202.43554688 C47.08301213 200.844071 45.49250587 199.25228546 43.90234375 197.66015625 C43.17933578 196.93917252 42.45632782 196.21818878 41.71141052 195.47535706 C37.17029026 190.91344907 32.88546503 186.19019778 28.6875 181.3125 C27.23304483 179.70481627 25.77529105 178.10010285 24.3125 176.5 C20.48835522 172.2580915 16.83860545 167.90698903 13.25 163.46484375 C11.35729087 161.12390119 9.43499825 158.81000788 7.5 156.50390625 C-1.22023454 146.08439469 -9.41051199 135.36404224 -17.3125 124.3125 C-17.96541016 123.40161621 -18.61832031 122.49073242 -19.29101562 121.55224609 C-28.05195535 109.28231061 -36.33253853 96.84919773 -43.87695312 83.79394531 C-45.33761328 81.26908991 -46.81642782 78.75548243 -48.296875 76.2421875 C-62.81785732 51.42266953 -77.1462845 24.36078827 -84.3125 -3.6875 C-83.9825 -4.3475 -83.6525 -5.0075 -83.3125 -5.6875 C-81.95758116 -4.18817938 -80.60361322 -2.68799946 -79.25 -1.1875 C-78.00089844 0.19115234 -78.00089844 0.19115234 -76.7265625 1.59765625 C-75.33592895 3.16155644 -73.96404328 4.74357205 -72.6484375 6.37109375 C-67.16844857 13.12974677 -60.21750017 18.1026247 -53.3125 23.3125 C-53.23773437 22.70664063 -53.16296875 22.10078125 -53.0859375 21.4765625 C-51.71362694 12.73144618 -48.43194229 5.39870522 -41.3125 -0.125 C-28.06603494 -9.05690215 -13.32612864 -9.09520947 0 0 Z " fill="#432A19" transform="translate(939.3125,1356.6875)"/>
<path d="M0 0 C1.22669151 -0.00143509 1.22669151 -0.00143509 2.47816467 -0.00289917 C4.20525184 -0.0035768 5.93234162 -0.00175172 7.65942383 0.00244141 C10.24631798 0.00773305 12.83303351 0.00251467 15.41992188 -0.00390625 C22.98425061 -0.00667454 30.49097671 0.08380844 38.0390625 0.63671875 C49.13020764 1.41812924 60.2349402 1.23908286 71.34765625 1.1953125 C73.58723858 1.19028447 75.826822 1.18572388 78.06640625 1.18164062 C83.49351404 1.17074519 88.92057983 1.15411163 94.34765625 1.1328125 C91.02555814 4.09888532 87.86810685 5.84637274 83.73483276 7.47212219 C71.71012889 12.32810347 63.94815812 20.62158719 55.22265625 29.9453125 C30.9044174 55.61885841 30.9044174 55.61885841 14.47265625 62.6328125 C13.75706543 62.95338623 13.04147461 63.27395996 12.30419922 63.60424805 C7.41019376 65.76481047 2.50607661 67.69884863 -2.65234375 69.1328125 C-3.50828125 69.39707031 -4.36421875 69.66132812 -5.24609375 69.93359375 C-15.58747322 72.99824413 -25.91756851 73.31341354 -36.65234375 73.3203125 C-37.65523437 73.33255859 -38.658125 73.34480469 -39.69140625 73.35742188 C-46.56089622 73.37073484 -52.94550466 72.59206051 -59.65234375 71.1328125 C-60.89242188 70.87242188 -62.1325 70.61203125 -63.41015625 70.34375 C-90.5552564 63.60471122 -111.79724967 46.14885625 -129.65234375 25.1328125 C-136.75127108 16.82840695 -144.06307217 12.44695654 -153.81689453 7.99365234 C-157.53927958 6.24782504 -161.09452306 4.18844223 -164.65234375 2.1328125 C-160.77816885 0.74113043 -157.50799087 1.44638443 -153.5 2.05859375 C-144.67047642 3.2898613 -135.99043196 3.40013734 -127.08984375 3.3203125 C-125.49340976 3.3134307 -123.89697411 3.3069252 -122.30053711 3.30078125 C-113.76207943 3.25356157 -105.24337918 3.06768874 -96.71484375 2.6328125 C-76.78961237 1.62099864 -57.24849603 0.74241765 -37.83203125 5.87890625 C-33.30932669 6.24005588 -29.53153102 5.02683081 -25.21484375 3.7578125 C-23.57138908 3.28788516 -21.92686752 2.82167138 -20.28125 2.359375 C-19.5601001 2.14877441 -18.8389502 1.93817383 -18.09594727 1.72119141 C-12.05784037 0.26731613 -6.17041271 -0.01628986 0 0 Z " fill="#E94C47" transform="translate(1407.65234375,1513.8671875)"/>
<path d="M0 0 C1.64949975 1.43329139 3.29591516 2.87015024 4.9375 4.3125 C5.96875 5.075625 7 5.83875 8.0625 6.625 C17.34583035 15.30289576 24.3442301 25.49787014 24.9375 38.3125 C22.89953561 35.66849372 21.11241196 32.97228109 19.375 30.125 C11.15325304 17.84263473 -2.83686302 9.39629301 -16.0625 3.3125 C-15.71316406 4.0859375 -15.36382813 4.859375 -15.00390625 5.65625 C-12.40480787 11.60546103 -10.24966584 16.80848716 -10.0625 23.3125 C-10.000625 24.27671875 -9.93875 25.2409375 -9.875 26.234375 C-9.36810688 39.47695765 -13.34185051 51.59283505 -22.0859375 61.63671875 C-31.69628089 71.58646088 -42.56005101 70.17947385 -55.66015625 70.4765625 C-87.66011397 70.99160731 -87.66011397 70.99160731 -95.5625 63.9375 C-105.73785353 51.89592443 -109.23989608 38.8290728 -108.30078125 23.47119141 C-106.87583697 10.56201379 -99.50460181 -0.27513601 -89.76171875 -8.41015625 C-88.0625 -9.6875 -88.0625 -9.6875 -86.0625 -10.6875 C-92.21950736 -10.81564386 -97.94167695 -10.44782121 -104 -9.375 C-104.78705322 -9.23747314 -105.57410645 -9.09994629 -106.38500977 -8.95825195 C-119.49931006 -6.59044859 -131.6008152 -2.8637312 -140.34375 7.83203125 C-145.58436788 15.39519568 -147.88957278 23.26170342 -149.0625 32.3125 C-151.0625 30.3125 -151.0625 30.3125 -151.2578125 27.7109375 C-151.23460937 26.71320313 -151.21140625 25.71546875 -151.1875 24.6875 C-151.16945313 23.68460938 -151.15140625 22.68171875 -151.1328125 21.6484375 C-151.10960937 20.87757812 -151.08640625 20.10671875 -151.0625 19.3125 C-151.81402344 19.044375 -152.56554688 18.77625 -153.33984375 18.5 C-159.38079324 15.86520998 -162.97194331 11.19449265 -165.4375 5.1875 C-167.68758437 -0.93664266 -168.20055505 -6.49645408 -168.125 -13 C-168.12048828 -13.74056641 -168.11597656 -14.48113281 -168.11132812 -15.24414062 C-168.09962175 -17.05862899 -168.08168898 -18.87307534 -168.0625 -20.6875 C-165.5119383 -18.1369383 -165.23924728 -16.10030228 -164.3125 -12.625 C-162.17938602 -5.46439805 -159.49210139 0.69947037 -153.4375 5.3125 C-151.30867468 6.2088475 -149.33200856 6.89222064 -147.0625 7.3125 C-146.753125 6.3225 -146.753125 6.3225 -146.4375 5.3125 C-140.48429959 -7.67630089 -128.02192441 -14.83718911 -115.0625 -19.6875 C-78.41647202 -30.36029086 -30.17908692 -24.36920922 0 0 Z " fill="#5A3838" transform="translate(1232.0625,1137.6875)"/>
<path d="M0 0 C1.21558594 0.37382813 2.43117188 0.74765625 3.68359375 1.1328125 C16.63496648 5.65456344 27.70692415 13.66557133 34 26 C39.18262156 25.06712812 42.21209391 23.70421737 45.51171875 19.55078125 C48.87773477 13.78173017 50.86577331 7.30429372 53 1 C53.33 1 53.66 1 54 1 C54.56178035 14.31107325 54.33366011 24.989588 44.87890625 35.34375 C43 37 43 37 40.328125 38.30078125 C37.67276038 39.84731445 37.67276038 39.84731445 37.29296875 43.13671875 C37.25816406 44.30847656 37.22335937 45.48023438 37.1875 46.6875 C37.13980469 47.86699219 37.09210938 49.04648438 37.04296875 50.26171875 C37.02878906 51.16535156 37.01460937 52.06898437 37 53 C36.67 53 36.34 53 36 53 C35.85304688 52.11699219 35.70609375 51.23398438 35.5546875 50.32421875 C33.48698458 39.26081979 29.73328223 28.55613499 20.765625 21.15625 C6.79067799 11.95535321 -10.36721394 8.32111077 -27 9 C-26.32453125 9.59167969 -25.6490625 10.18335938 -24.953125 10.79296875 C-24.06109375 11.58316406 -23.1690625 12.37335938 -22.25 13.1875 C-21.36828125 13.96480469 -20.4865625 14.74210937 -19.578125 15.54296875 C-10.16600468 24.51300463 -5.1213358 36.26680079 -4.625 49.125 C-4.87737401 61.95153794 -9.19418616 73.34730887 -17.7265625 82.94140625 C-24.63526579 89.48732375 -33.56874062 89.38618658 -42.625 89.6875 C-44.25477783 89.74611206 -44.25477783 89.74611206 -45.91748047 89.8059082 C-53.33250571 90.02709962 -60.71327324 89.99458077 -68.125 89.6875 C-69.46425537 89.63565552 -69.46425537 89.63565552 -70.83056641 89.58276367 C-79.59390658 89.12422655 -85.92654892 87.5082709 -92 81 C-100.24271314 71.0039469 -103.43651424 60.55094112 -103.5625 47.8125 C-103.58449463 46.44121948 -103.58449463 46.44121948 -103.60693359 45.04223633 C-103.4829977 36.75420977 -100.69893523 30.29295823 -97 23 C-113.23810622 30.4704897 -129.14089468 40.29446456 -137 57 C-137.33 57 -137.66 57 -138 57 C-137.55694395 43.48679057 -129.46193806 33.92536085 -120 25 C-89.47056913 -2.87349068 -39.1695175 -12.10532605 0 0 Z " fill="#5A3838" transform="translate(1616,1118)"/>
<path d="M0 0 C0.77263184 0.27150879 1.54526367 0.54301758 2.34130859 0.82275391 C69.36440497 24.20612564 132.86559247 25.78439153 200.10693359 1.9362793 C202.73416266 1.08603259 205.28292793 0.474971 208 0 C206.33900073 4.26585147 203.15605682 7.16766088 199.98828125 10.34765625 C199.08036079 11.2655619 199.08036079 11.2655619 198.15409851 12.20201111 C196.86637198 13.49986091 195.57591768 14.79500906 194.28295898 16.08764648 C192.35388399 18.02102371 190.44132618 19.96970653 188.52929688 21.91992188 C178.11575327 32.4310851 166.89354395 42.62284939 153.125 48.5 C152.40940918 48.82057373 151.69381836 49.14114746 150.95654297 49.47143555 C146.06253751 51.63199797 141.15842036 53.56603613 136 55 C135.1440625 55.26425781 134.288125 55.52851562 133.40625 55.80078125 C123.06487053 58.86543163 112.73477524 59.18060104 102 59.1875 C100.99710938 59.19974609 99.99421875 59.21199219 98.9609375 59.22460938 C92.09144753 59.23792234 85.70683909 58.45924801 79 57 C77.75992187 56.73960938 76.51984375 56.47921875 75.2421875 56.2109375 C49.31645495 49.77461875 27.53751458 33.31933877 10.62890625 12.87890625 C7.85996165 9.68499174 4.7728135 6.8056677 1.72265625 3.8828125 C0 2 0 2 0 0 Z " fill="#E83A3B" transform="translate(1269,1528)"/>
<path d="M0 0 C1.32633923 0.35208757 2.65317573 0.7023065 3.98046875 1.05078125 C37.28898897 10.03596733 67.20304579 27.00699194 95 47 C94.01 47.495 94.01 47.495 93 48 C90.95030283 47.26334192 88.93546581 46.42971177 86.9375 45.5625 C75.89308846 40.93603083 64.43077031 37.52855944 53 34 C52.28392578 33.77538086 51.56785156 33.55076172 50.83007812 33.31933594 C26.72622991 25.78210086 1.43171091 22.77928157 -23.75 22.625 C-24.49558167 22.62010559 -25.24116333 22.61521118 -26.00933838 22.61016846 C-52.06541668 22.54137578 -78.44563374 25.57596054 -104.16455078 29.65478516 C-112.09971239 30.62088801 -112.09971239 30.62088801 -114.8125 28.75 C-117.71922258 24.46640884 -117.55675822 18.97320516 -117 14 C-114.1281017 3.35122858 -114.1281017 3.35122858 -110 0 C-107.52661133 -0.76782227 -107.52661133 -0.76782227 -104.58203125 -1.31640625 C-103.50131348 -1.52241455 -102.4205957 -1.72842285 -101.30712891 -1.94067383 C-100.15390137 -2.14587646 -99.00067383 -2.3510791 -97.8125 -2.5625 C-96.03238525 -2.8867395 -96.03238525 -2.8867395 -94.21630859 -3.2175293 C-90.81344229 -3.82768722 -87.40757102 -4.41678417 -84 -5 C-83.22865723 -5.13857422 -82.45731445 -5.27714844 -81.66259766 -5.41992188 C-54.931664 -10.1453903 -25.97180457 -7.47060215 0 0 Z " fill="#452C1A" transform="translate(1585,996)"/>
<path d="M0 0 C0.99628418 0.14985352 1.99256836 0.29970703 3.01904297 0.45410156 C5.93473677 0.89990315 8.84232721 1.37979687 11.75 1.875 C12.62567627 2.01196289 13.50135254 2.14892578 14.40356445 2.29003906 C18.32578252 3.01217326 20.46715193 3.50957614 23.453125 6.2578125 C26.54685087 11.74214472 27.29362667 16.34647151 27.3125 22.625 C27.32925781 23.91664063 27.34601563 25.20828125 27.36328125 26.5390625 C27 30 27 30 26.04296875 32.4609375 C22.21653012 35.34357004 17.4990032 34.28261476 12.94482422 33.76757812 C10.76954086 33.46127457 8.60499652 33.10718282 6.4375 32.75 C-30.76068311 27.17199308 -69.74013792 22.95184373 -107 30 C-108.77183081 30.30645391 -110.54397523 30.61109933 -112.31640625 30.9140625 C-132.50555126 34.4603584 -151.65272466 40.373186 -171.03222656 46.98925781 C-175.01508514 48.34571014 -179.00673341 49.67453942 -183 51 C-179.1542961 46.85675614 -175.07569437 43.83529643 -170.3125 40.8125 C-169.56774414 40.3369165 -168.82298828 39.86133301 -168.05566406 39.37133789 C-116.61039852 6.89234176 -60.79953903 -9.63907557 0 0 Z " fill="#452C1A" transform="translate(1239,992)"/>
<path d="M0 0 C6.67903689 4.55850617 12.16851888 11.68913378 13.7421875 19.71484375 C14.61019512 30.55704798 12.89588132 39.71493872 6.5546875 48.671875 C3.4705409 52.14818679 -0.21889944 54.47508287 -4.2578125 56.71484375 C-4.87011719 57.08222656 -5.48242188 57.44960937 -6.11328125 57.828125 C-13.50119411 60.88287221 -23.82942241 60.64036217 -31.2578125 57.71484375 C-40.60437463 53.3626278 -46.25093135 47.20482542 -50.2578125 37.71484375 C-52.82338953 26.93224377 -51.30029597 17.45740653 -45.6328125 8.02734375 C-34.86159131 -7.21193956 -15.38194872 -8.75546908 0 0 Z " fill="#2794C3" transform="translate(937.2578125,1355.28515625)"/>
<path d="M0 0 C6.17728668 5.01032493 10.32177642 12.5903756 11.6875 20.375 C12.55593414 30.7172611 10.45223382 38.78518063 4.5 47.296875 C1.43528904 50.81072464 -2.26202945 53.12882997 -6.3125 55.375 C-6.92480469 55.74238281 -7.53710938 56.10976562 -8.16796875 56.48828125 C-15.55588161 59.54302846 -25.88410991 59.30051842 -33.3125 56.375 C-42.55651165 52.07053656 -48.47711682 45.86252681 -52.3125 36.375 C-53 33.1875 -53 33.1875 -53.3125 29.375 C-53.40015625 28.5603125 -53.4878125 27.745625 -53.578125 26.90625 C-54.15254138 17.82002721 -50.62613525 10.99503765 -45.41015625 3.72265625 C-33.4127638 -9.70459303 -14.20689829 -9.50727794 0 0 Z " fill="#2794C3" transform="translate(1840.3125,1356.625)"/>
<path d="M0 0 C-2.70129834 2.78315586 -5.37951596 5.30227245 -8.4375 7.6875 C-16.12058408 14.25152618 -21.17183772 25.04160909 -22.21142578 35.03173828 C-23.17230557 50.26461033 -19.68884208 63.38687193 -9.625 75.1875 C-8.75875 76.115625 -7.8925 77.04375 -7 78 C-27.27420427 75.98646601 -48.15478535 67.00449857 -61.5 51.2265625 C-64.7233484 46.45869298 -64.89901686 41.49572913 -64 36 C-60.44627214 24.28025918 -53.92066319 14.50563456 -43.19140625 8.40234375 C-34.9526159 4.29807487 -27.06013903 2.40516045 -18 1 C-17.21625 0.86851563 -16.4325 0.73703125 -15.625 0.6015625 C-10.43134625 -0.17329713 -5.23530036 -0.09655267 0 0 Z " fill="#FDFDFC" transform="translate(1147,1126)"/>
<path d="M0 0 C17.34356133 -0.73455083 38.39572581 2.23174981 52 14 C58.87399701 21.67654489 64.47626835 30.92962268 65.25 41.375 C64.76979548 48.33796558 60.8608155 53.27391926 56 58 C45.70349882 66.62944861 33.09896481 72.43796464 20.25 76.0625 C19.48751953 76.2785791 18.72503906 76.4946582 17.93945312 76.71728516 C14.22783891 77.68687351 11.65922842 78.12946024 8 77 C8.44730469 76.53851562 8.89460938 76.07703125 9.35546875 75.6015625 C19.02905229 65.16481778 23.73648582 52.58348014 23.34765625 38.33203125 C21.71524958 22.68660551 13.78244865 11.31870721 2 1.5 C1.34 1.005 0.68 0.51 0 0 Z " fill="#FDFDFD" transform="translate(1587,1126)"/>
<path d="M0 0 C1.09183594 -0.00515625 2.18367188 -0.0103125 3.30859375 -0.015625 C6.67951578 0.25955231 9.41125625 1.05224219 12.5625 2.25 C12.5625 5.25 12.5625 5.25 11.125 6.8125 C10.609375 7.286875 10.09375 7.76125 9.5625 8.25 C8.39952027 10.57595946 8.39649309 12.03723231 8.375 14.625 C8.36082031 15.39585938 8.34664062 16.16671875 8.33203125 16.9609375 C8.5892433 19.51561989 9.21781137 21.07421909 10.5625 23.25 C14.54085744 26.43268595 17.56243412 26.60088182 22.5625 26.25 C24.5689731 25.95814937 26.57244193 25.63830401 28.5625 25.25 C29.18706675 33.83779285 26.72279767 39.88938686 21.3125 46.5625 C16.51523286 51.74148517 10.56277565 54.75284066 3.51953125 55.453125 C-6.11114687 55.66363163 -12.48708775 53.02185735 -19.48828125 46.375 C-25.48371994 39.83889048 -26.70758232 33.55065771 -26.58203125 24.921875 C-26.18220574 17.53050608 -22.10523963 10.59459076 -16.6640625 5.6328125 C-11.33746016 1.7018265 -6.69451688 -0.03154072 0 0 Z " fill="#432927" transform="translate(1173.4375,1145.75)"/>
<path d="M0 0 C7.36419601 4.30690212 13.02121633 10.55577944 15.22265625 18.88671875 C16.795791 27.39386491 14.81641884 34.74679299 10.375 42.14453125 C5.91298181 47.96290156 -0.55361823 50.78870608 -7.375 53.0625 C-15.41092299 54.08373188 -23.18427914 52.16699723 -29.7109375 47.33203125 C-35.09232085 42.32074304 -38.98300722 36.73374728 -39.609375 29.26953125 C-39.62302042 26.85088001 -39.55621453 24.47365998 -39.375 22.0625 C-38.694375 22.3925 -38.01375 22.7225 -37.3125 23.0625 C-33.71616838 24.2867831 -31.15829077 24.46074113 -27.375 24.0625 C-24.29306022 22.4343054 -22.11079333 21.03240938 -20 18.25 C-18.77295526 13.95534342 -18.70203638 10.37783799 -20.75 6.375 C-21.28625 5.611875 -21.8225 4.84875 -22.375 4.0625 C-23.05596422 2.73641178 -23.72830586 1.40563399 -24.375 0.0625 C-16.85657722 -3.44985886 -7.56739289 -3.4023937 0 0 Z " fill="#432927" transform="translate(1572.375,1147.9375)"/>
<path d="M0 0 C15.67350144 7.20296985 34.32992072 16.9868903 41 34 C42.01307077 38.43939144 41.26698748 41.47523151 39.1875 45.5625 C28.84762547 58.20012443 7.30963138 63.89681147 -8.25 65.6875 C-9.4875 65.790625 -10.725 65.89375 -12 66 C-11.13375 65.01 -10.2675 64.02 -9.375 63 C1.67812813 50.01778819 6.98163813 38.34227365 6 21 C5.25242064 13.82323819 3.44383269 8.31369326 0 2 C0 1.34 0 0.68 0 0 Z " fill="#FDFCFC" transform="translate(1215,1140)"/>
<path d="M0 0 C0 3.19830106 -0.60105717 4.64638541 -1.9375 7.5 C-6.50406046 17.32056013 -6.99773633 30.64561572 -4.0234375 41.1328125 C-1.24458169 48.48058461 3.56952727 59.28476364 11 63 C11 63.66 11 64.32 11 65 C5.661542 65.18841616 0.99363708 64.57389645 -4.1875 63.3125 C-4.9307251 63.13243408 -5.6739502 62.95236816 -6.43969727 62.7668457 C-19.14082893 59.55971063 -32.44252083 54.31432099 -40.05859375 43.03125 C-41.31604214 40.31808335 -41.45747628 37.9722037 -40.79296875 35.05859375 C-34.1917971 17.92156194 -15.85284155 7.26892965 0 0 Z " fill="#FDFCFC" transform="translate(1519,1140)"/>
<path d="M0 0 C1.21539658 3.64618974 0.65987257 4.45879268 -0.75 7.9375 C-4.97510966 18.990036 -9.87918462 33.95113406 -6.125 45.75 C-0.85492742 51.33007685 6.67311453 53.78152059 14.19116211 54.16113281 C17.41171206 54.19884366 20.63201111 54.23115005 23.8527832 54.24023438 C25.90033422 54.2498259 27.94682959 54.28083162 29.99414062 54.3125 C41.47047709 54.40363021 52.03626961 52.3935356 63 49 C58.69171907 58.5715995 49.34901973 64.07362395 40 68 C20.6232396 73.90349608 -4.24665164 70.42315828 -22 61 C-23.35684058 60.03213564 -24.69884656 59.04152653 -26 58 C-25.50141328 51.91451 -24.13243447 47.20193178 -21.5625 41.6875 C-21.21195557 40.91768799 -20.86141113 40.14787598 -20.50024414 39.35473633 C-16.35452804 30.38669284 -11.6965943 21.68821527 -7 13 C-6.2690378 11.6382856 -5.53854209 10.27632065 -4.80859375 8.9140625 C-3.21266879 5.9389335 -1.6092057 2.9679721 0 0 Z " fill="#DB9E73" transform="translate(1339,1316)"/>
<path d="M0 0 C3.86985908 2.36202531 6.55397497 4.66192491 8 9 C8.37038573 14.00020732 8.20042937 17.05280378 5 21 C1.76200632 23.72285832 -0.29638867 24.8994841 -4.5 25.5 C-8.6735008 24.9037856 -10.78241364 23.69379323 -14 21 C-16.59055168 16.79696207 -16.55001968 12.80407818 -16 8 C-13.19116942 1.19967333 -7.21931484 -1.71953435 0 0 Z " fill="#FAF9F9" transform="translate(1546,1148)"/>
<path d="M0 0 C3.49666402 2.0057787 5.76709019 4.65063528 8 8 C8.42763893 13.30272272 8.53414849 16.75902182 5 21 C1.76200632 23.72285832 -0.29638867 24.8994841 -4.5 25.5 C-8.6735008 24.9037856 -10.78241364 23.69379323 -14 21 C-16.59055168 16.79696207 -16.55001968 12.80407818 -16 8 C-13.15506039 1.11225148 -7.27515374 -1.55184297 0 0 Z " fill="#FAF9F9" transform="translate(1197,1148)"/>
<path d="M0 0 C2.5625 0.1875 2.5625 0.1875 4.5625 2.1875 C4.1875 4.8125 4.1875 4.8125 3.5625 7.1875 C-1.1875 8.3125 -1.1875 8.3125 -3.4375 7.1875 C-3.48004356 5.18795254 -3.47830783 3.18708364 -3.4375 1.1875 C-2.4375 0.1875 -2.4375 0.1875 0 0 Z " fill="#F6F4F4" transform="translate(1184.4375,1137.8125)"/>
<path d="M0 0 C2.625 0.375 2.625 0.375 5 1 C5.625 3.375 5.625 3.375 6 6 C5.34 6.66 4.68 7.32 4 8 C1.375 7.625 1.375 7.625 -1 7 C-1.625 4.625 -1.625 4.625 -2 2 C-1.34 1.34 -0.68 0.68 0 0 Z " fill="#FAF9F8" transform="translate(1548,1138)"/>
<path d="M0 0 C2.5654594 2.5654594 2.54046087 4.47686668 3 8 C2.34 8 1.68 8 1 8 C1 10.64 1 13.28 1 16 C0.67 16 0.34 16 0 16 C0 10.72 0 5.44 0 0 Z " fill="#876256" transform="translate(1064,1117)"/>
</svg>
