<?xml version="1.0" encoding="UTF-8"?>
<svg version="1.1" xmlns="http://www.w3.org/2000/svg" width="2754" height="2754">
<path d="M0 0 C1.20921112 -0.00067474 2.41842224 -0.00134949 3.66427612 -0.00204468 C76.91047909 0.06255112 153.84760503 12.34288698 208.08984375 65.6875 C218.28297006 76.06218327 226.39705894 88.69322397 233.625 101.25 C234.74777344 100.97285156 235.87054687 100.69570312 237.02734375 100.41015625 C253.00000613 96.51873873 253.00000613 96.51873873 259.625 96.25 C260.59308594 96.21003906 261.56117188 96.17007813 262.55859375 96.12890625 C292.0674001 95.52668571 319.44039263 107.67883968 342.625 125.25 C343.21539063 125.68779785 343.80578125 126.1255957 344.4140625 126.57666016 C354.11819865 133.78796618 362.94450142 141.84797984 371.625 150.25 C372.12580078 150.7342041 372.62660156 151.2184082 373.14257812 151.71728516 C403.95993479 181.66669819 427.21369047 218.71134069 447.625 256.25 C448.05006836 257.0248877 448.47513672 257.79977539 448.91308594 258.59814453 C486.34741539 327.08691207 508.88365076 404.38826901 525.625 576.25 C525.60711426 577.19504395 525.58922852 578.14008789 525.57080078 579.11376953 C524.7179031 618.75172234 519.5905282 657.60993557 510.36572266 696.1328125 C509.40810844 700.16274601 508.51015007 704.20359967 507.625 708.25 C508.27984375 708.62769531 508.9346875 709.00539063 509.609375 709.39453125 C528.8049042 720.97149589 541.71818235 737.96631263 547.78125 759.68359375 C559.17446588 807.84102939 547.7204085 867.31845992 521.82080078 909.390625 C513.24926917 922.71867415 501.03868103 938.16010747 487.54864502 946.53977966 C485.01988437 948.78797922 484.980036 950.11982642 484.65527344 953.45336914 C484.54091446 954.52956512 484.42655548 955.60576111 484.30873108 956.71456909 C484.20169357 957.89286285 484.09465607 959.07115662 483.984375 960.28515625 C483.85667221 961.52081329 483.72896942 962.75647034 483.59739685 964.02957153 C483.32100493 966.71265142 483.0508496 969.39557378 482.79037476 972.08016968 C482.15968022 978.55673834 481.46452435 985.02653678 480.7720089 991.49673653 C480.61341972 992.97929675 480.45538535 994.46191643 480.29789162 995.94459343 C471.41934759 1079.46649381 456.40039262 1162.85709502 435.625 1244.25 C435.25535126 1245.70221954 435.25535126 1245.70221954 434.87823486 1247.18377686 C427.92410575 1274.45672743 420.24304375 1301.45623079 411.625 1328.25 C411.37985657 1329.01358826 411.13471313 1329.77717651 410.88214111 1330.56390381 C390.77330772 1393.10649978 367.0625309 1457.04426395 332.625 1513.25 C337.51501072 1515.00230924 342.4056374 1516.15490962 347.47607422 1517.22119141 C348.34501816 1517.4068013 349.2139621 1517.59241119 350.10923767 1517.78364563 C352.96537004 1518.39288305 355.82250951 1518.99724957 358.6796875 1519.6015625 C360.66657806 1520.02438818 362.65340376 1520.44751873 364.64016724 1520.87094116 C369.85747005 1521.98200798 375.07564162 1523.08894034 380.29400635 1524.19500732 C385.62361956 1525.32542065 390.95239877 1526.45975115 396.28125 1527.59375 C406.7283552 1529.81632957 417.17638259 1532.03454123 427.625 1534.25 C427.625 1534.91 427.625 1535.57 427.625 1536.25 C428.23988281 1536.31058594 428.85476563 1536.37117188 429.48828125 1536.43359375 C430.29652344 1536.51738281 431.10476563 1536.60117188 431.9375 1536.6875 C432.73800781 1536.76871094 433.53851562 1536.84992188 434.36328125 1536.93359375 C436.625 1537.25 436.625 1537.25 439.625 1538.25 C440.615 1537.79625 441.605 1537.3425 442.625 1536.875 C456.44688266 1530.66516866 477.04988333 1535.34863942 490.625 1540.25 C506.39456734 1546.36776059 519.47187807 1555.56287201 531.625 1567.25 C532.11291016 1567.70681152 532.60082031 1568.16362305 533.10351562 1568.63427734 C595.76069331 1627.40951905 619.46224678 1728.20147745 640.11584473 1816.08087158 C640.58038334 1818.0599219 641.0585177 1820.03576835 641.53808594 1822.01123047 C663.3618056 1912.09512392 662.9326771 2011.27594082 695.625 2494.25 C691.73033505 2496.53963442 687.83485135 2498.82786821 683.93867493 2501.1149292 C682.61947112 2501.88954905 681.30047345 2502.66452008 679.98170471 2503.43988037 C667.29834277 2510.89638134 654.51042249 2518.14723135 641.625 2525.25 C640.6851123 2525.76949219 639.74522461 2526.28898437 638.77685547 2526.82421875 C611.23869903 2542.01108884 583.28150673 2556.29446699 554.625 2569.25 C552.57343432 2570.18347435 550.52254132 2571.11841627 548.47167969 2572.05343628 C544.9827077 2573.64329099 541.49150435 2575.22821611 538 2576.8125 C537.34769409 2577.10886353 536.69538818 2577.40522705 536.02331543 2577.71057129 C514.99973328 2587.25 514.99973328 2587.25 511.625 2587.25 C511.55616808 2586.61018588 511.48733617 2585.97037176 511.41641843 2585.31116933 C502.7080821 2504.37459073 493.90922981 2423.44857776 484.92007077 2342.54267293 C484.49400107 2338.70762122 484.0680649 2334.87255469 483.6421261 2331.03748844 C479.9665222 2297.94355303 476.28631349 2264.85012944 472.60166256 2231.75720011 C454.5425659 2069.5629345 454.5425659 2069.5629345 448.48568678 2011.34468436 C448.15903567 2008.20726213 447.83101781 2005.06998541 447.50273514 2001.93273354 C445.27215151 1980.57813501 443.2152291 1959.21335787 441.37353516 1937.8215332 C441.28742816 1936.83112294 441.20132116 1935.84071267 441.11260486 1934.82028997 C440.17321001 1923.96147439 439.36968307 1913.1498626 439.125 1902.25 C438.14492018 1866.77505392 432.31711662 1831.36982742 427.625 1796.25 C426.49740576 1806.12907609 426.21189947 1816.05084317 425.83961678 1825.97968674 C425.72050235 1829.14314112 425.59701247 1832.30639763 425.47227478 1835.46963501 C425.11833168 1844.45639847 424.76945658 1853.44334375 424.42993164 1862.43066406 C424.22116942 1867.94845916 424.00510047 1873.46592926 423.78454399 1878.98326492 C423.70248614 1881.0713105 423.62313835 1883.15946457 423.54667854 1885.24772263 C422.95657829 1901.33391084 420.91157303 1916.4898568 417.47306824 1932.21591377 C416.92109719 1934.74135794 416.37418888 1937.26785567 415.82849121 1939.79466248 C415.03359601 1943.47476534 414.23727646 1947.15455536 413.43997192 1950.83413696 C382.71471915 2089.94779085 382.71471915 2089.94779085 362.609375 2263.2421875 C363.04788481 2264.82176811 363.48635962 2266.40135845 363.92480469 2267.98095703 C364.16017944 2268.81419495 364.3955542 2269.64743286 364.63806152 2270.50592041 C365.93504764 2275.1154095 367.18593047 2279.73738313 368.4375 2284.359375 C368.7018988 2285.33508453 368.96629761 2286.31079407 369.2387085 2287.31607056 C391.14143006 2368.54662769 405.95393597 2451.89489605 420.5625 2534.6875 C420.71664368 2535.56072151 420.87078735 2536.43394302 421.02960205 2537.33362579 C425.72443127 2563.94549735 430.22121269 2590.58851123 434.625 2617.25 C428.26138701 2619.85949035 421.87378101 2622.27139913 415.34375 2624.4296875 C414.47354721 2624.71887054 413.60334442 2625.00805359 412.70677185 2625.30599976 C409.8481615 2626.25181872 406.98714718 2627.18994009 404.125 2628.125 C403.12647003 2628.45125366 402.12794006 2628.77750732 401.09915161 2629.11364746 C348.21721701 2646.32129009 294.23018669 2659.7998789 239.625 2670.25 C238.72046082 2670.42360046 237.81592163 2670.59720093 236.88397217 2670.77606201 C174.36914987 2682.73702988 111.17510737 2689.93549609 47.625 2693.25 C46.74384521 2693.2983902 45.86269043 2693.3467804 44.95483398 2693.39663696 C25.14859511 2694.45819405 5.3318753 2694.43747128 -14.49658203 2694.43530273 C-18.30001657 2694.43522219 -22.10332882 2694.44206586 -25.90673828 2694.45581055 C-61.63150188 2694.58264996 -97.26372393 2693.46605728 -132.875 2690.5 C-133.88453735 2690.41763092 -134.89407471 2690.33526184 -135.9342041 2690.25039673 C-350.70023028 2672.58738486 -350.70023028 2672.58738486 -429.375 2633.25 C-428.77099643 2624.38624222 -427.35251871 2615.73180796 -425.77734375 2606.99609375 C-425.50881924 2605.48904976 -425.2405622 2603.98195809 -424.97254944 2602.474823 C-424.24564756 2598.39783284 -423.51154802 2594.32217242 -422.77496338 2590.24692154 C-422.30884418 2587.66726753 -421.8441374 2585.08736202 -421.37963867 2582.50741577 C-406.46117437 2499.72866713 -390.51564517 2416.93766788 -360.80078125 2298.1796875 C-360.47669281 2296.95222557 -360.47669281 2296.95222557 -360.14605713 2295.69996643 C-359.08328463 2291.71909089 -357.90724545 2287.83529095 -356.54296875 2283.9453125 C-353.15502798 2272.80898056 -355.61581384 2260.23494569 -357.4375 2249 C-357.548591 2248.2959201 -357.65968201 2247.59184021 -357.7741394 2246.86642456 C-363.13707037 2212.91724471 -371.12866617 2179.59741586 -379.375 2146.25 C-379.60145203 2145.3308783 -379.82790405 2144.41175659 -380.06121826 2143.46478271 C-398.99031989 2066.64586373 -422.05672586 1990.82701041 -445.375 1915.25 C-445.42716675 1915.87348328 -445.4793335 1916.49696655 -445.53308105 1917.13934326 C-449.32359415 1962.15695369 -453.9475224 2007.08744662 -458.8125 2052 C-458.89134461 2052.72811386 -458.97018923 2053.45622772 -459.05142307 2054.20640564 C-464.56891678 2105.1485441 -470.2364721 2156.07419831 -475.90234375 2207 C-476.027909 2208.12863253 -476.027909 2208.12863253 -476.15601093 2209.28006572 C-479.46937209 2239.0618644 -482.78409574 2268.84351157 -486.10207249 2298.62479641 C-495.32890706 2381.44358544 -504.46798953 2464.26984299 -513.24962199 2547.13728786 C-513.50851668 2549.57999058 -513.76757294 2552.02267612 -514.02667522 2554.46535683 C-514.19222693 2556.02639282 -514.35776876 2557.58742987 -514.52330017 2559.14846802 C-514.60314327 2559.90140912 -514.68298637 2560.65435022 -514.76524895 2561.43010771 C-515.22031954 2565.72404905 -515.67333632 2570.01820019 -516.12440777 2574.31256342 C-516.45402904 2577.44759985 -516.78572013 2580.58241763 -517.11694336 2583.71728516 C-517.23146788 2584.81489544 -517.34599239 2585.91250572 -517.46398735 2587.04337692 C-517.96903587 2591.80866219 -518.50318786 2596.53435348 -519.375 2601.25 C-523.41474845 2600.58335471 -526.94773193 2599.33740126 -530.73828125 2597.80078125 C-531.35407547 2597.55197205 -531.96986969 2597.30316284 -532.60432434 2597.04681396 C-534.63428739 2596.22409209 -536.66109213 2595.39393706 -538.6875 2594.5625 C-539.39106628 2594.27510956 -540.09463257 2593.98771912 -540.81951904 2593.69161987 C-575.1275019 2579.666711 -608.70709658 2564.15732904 -641.875 2547.625 C-642.83102112 2547.14966827 -643.78704224 2546.67433655 -644.77203369 2546.18460083 C-664.30005144 2536.46217221 -683.40384389 2526.01300547 -702.375 2515.25 C-702.46718807 2507.35144641 -702.19177461 2499.51845765 -701.72338867 2491.63476562 C-701.61784117 2489.79582119 -701.61784117 2489.79582119 -701.5101614 2487.91972637 C-701.31552663 2484.54401295 -701.11793984 2481.16849905 -700.91876078 2477.79305243 C-700.74779211 2474.88884396 -700.57895999 2471.98451252 -700.41000509 2469.08018631 C-699.85114055 2459.47850837 -699.28295694 2449.87739099 -698.71252298 2440.27639437 C-698.56233929 2437.7472937 -698.41245184 2435.21817564 -698.26264572 2432.68905258 C-693.22381803 2347.64638539 -687.6451248 2262.63878504 -659.77871323 1910.74264908 C-659.56913084 1908.56877771 -659.36077159 1906.3947916 -659.15249634 1904.22079468 C-654.06576814 1851.32312727 -654.06576814 1851.32312727 -648.375 1826.75 C-647.98914395 1825.04213604 -647.6035747 1823.33420727 -647.21826172 1821.6262207 C-639.59527934 1788.14238878 -631.01814982 1754.90660405 -620.375 1722.25 C-620.01791962 1721.15102386 -620.01791962 1721.15102386 -619.65362549 1720.02984619 C-602.43765653 1667.14904547 -580.79073259 1614.4427735 -542.375 1573.25 C-541.67761719 1572.49847656 -540.98023438 1571.74695312 -540.26171875 1570.97265625 C-521.12469626 1551.06595461 -496.83175945 1539.276319 -469.45718384 1536.31954956 C-455.3471492 1534.78759437 -441.59816779 1532.00605577 -427.74853516 1528.95166016 C-423.92964869 1528.10948551 -420.1077743 1527.28208813 -416.28515625 1526.45703125 C-413.84877971 1525.92790515 -411.41257467 1525.39798856 -408.9765625 1524.8671875 C-407.26758286 1524.49531815 -407.26758286 1524.49531815 -405.52407837 1524.11593628 C-404.48053192 1523.88544586 -403.43698547 1523.65495544 -402.36181641 1523.41748047 C-401.44381256 1523.21557098 -400.52580872 1523.0136615 -399.57998657 1522.80563354 C-397.35259444 1522.32842348 -397.35259444 1522.32842348 -395.375 1521.25 C-395.72989502 1520.34612549 -396.08479004 1519.44225098 -396.45043945 1518.51098633 C-408.02476701 1488.97080326 -418.82150581 1459.16852785 -429.375 1429.25 C-429.67599609 1428.39770813 -429.97699219 1427.54541626 -430.28710938 1426.66729736 C-464.98777768 1328.32944782 -493.46334269 1227.2936337 -566.125 798.5625 C-566.18425659 797.62035645 -566.24351318 796.67821289 -566.30456543 795.70751953 C-566.70543805 789.22374115 -567.05769102 782.7383885 -567.375 776.25 C-567.4233902 775.27108795 -567.4717804 774.2921759 -567.52163696 773.28359985 C-568.52091351 752.29753564 -568.5766779 731.31705391 -568.5625 710.3125 C-568.56209969 708.98031811 -568.56209969 708.98031811 -568.56169128 707.62122345 C-568.52415971 607.86314441 -561.04984644 508.12604989 -448.375 199.25 C-447.55733154 198.10990479 -447.55733154 198.10990479 -446.72314453 196.94677734 C-440.20376911 187.87784422 -433.57350426 178.97630882 -426.23608398 170.55078125 C-424.37016039 168.4071938 -422.52613162 166.24801079 -420.7019043 164.06884766 C-413.98513481 156.07232459 -406.94917003 148.50877408 -399.53833008 141.15258789 C-397.80245269 139.42751523 -396.0776491 137.69188009 -394.35351562 135.95507812 C-387.66642211 129.26008355 -380.79230244 123.13534273 -373.375 117.25 C-372.27300947 116.31541189 -371.17668788 115.3740346 -370.08984375 114.421875 C-361.2871774 106.7458509 -351.94793034 99.93124221 -342.375 93.25 C-341.74368164 92.8080127 -341.11236328 92.36602539 -340.46191406 91.91064453 C-264.31387648 38.94618928 -172.92883954 14.49972683 -44.375 1.25 C-43.70654053 1.20194214 -43.03808105 1.15388428 -42.34936523 1.10437012 C-28.243026 0.11376111 -14.13677708 0.00713325 0 0 Z " fill="#604C6B" transform="translate(1398.375,59.75)"/>
<path d="M0 0 C1.20921112 -0.00067474 2.41842224 -0.00134949 3.66427612 -0.00204468 C76.91047909 0.06255112 153.84760503 12.34288698 208.08984375 65.6875 C218.28297006 76.06218327 226.39705894 88.69322397 233.625 101.25 C234.74777344 100.97285156 235.87054687 100.69570312 237.02734375 100.41015625 C253.00000613 96.51873873 253.00000613 96.51873873 259.625 96.25 C260.59308594 96.21003906 261.56117188 96.17007813 262.55859375 96.12890625 C292.0674001 95.52668571 319.44039263 107.67883968 342.625 125.25 C343.21539063 125.68779785 343.80578125 126.1255957 344.4140625 126.57666016 C354.11819865 133.78796618 362.94450142 141.84797984 371.625 150.25 C372.12580078 150.7342041 372.62660156 151.2184082 373.14257812 151.71728516 C403.95993479 181.66669819 427.21369047 218.71134069 447.625 256.25 C448.05006836 257.0248877 448.47513672 257.79977539 448.91308594 258.59814453 C486.34741539 327.08691207 508.88365076 404.38826901 525.625 576.25 C525.60711426 577.19504395 525.58922852 578.14008789 525.57080078 579.11376953 C524.7179031 618.75172234 519.5905282 657.60993557 510.36572266 696.1328125 C509.40810844 700.16274601 508.51015007 704.20359967 507.625 708.25 C508.27984375 708.62769531 508.9346875 709.00539063 509.609375 709.39453125 C528.8049042 720.97149589 541.71818235 737.96631263 547.78125 759.68359375 C559.17446588 807.84102939 547.7204085 867.31845992 521.82080078 909.390625 C506.65255151 932.97604486 483.15345466 955.48575992 455.44921875 962.8125 C445.3944519 964.37008491 434.57114789 964.69840585 425.625 959.25 C423.95065766 957.92631829 422.28316785 956.59388799 420.625 955.25 C420.40360352 956.00506836 420.18220703 956.76013672 419.95410156 957.53808594 C418.92998342 961.02605541 417.90250899 964.51302799 416.875 968 C416.35292969 969.78083984 416.35292969 969.78083984 415.8203125 971.59765625 C396.70898039 1036.36383727 359.75372053 1095.94685002 317.625 1148.25 C317.109375 1148.89179199 316.59375 1149.53358398 316.0625 1150.19482422 C306.61172417 1161.94297915 297.05355426 1173.59506944 286.890625 1184.73828125 C285.01027003 1186.82288167 283.16167141 1188.92804752 281.3203125 1191.046875 C272.16520026 1201.52713356 262.44450202 1211.51954906 252.625 1221.375 C251.9438916 1222.06070068 251.2627832 1222.74640137 250.56103516 1223.45288086 C246.67285317 1227.32918836 242.67450129 1231.0154906 238.51806641 1234.60205078 C235.71719262 1237.04026306 233.02075604 1239.58507538 230.3125 1242.125 C224.61015128 1247.42374466 218.69785619 1252.37898036 212.625 1257.25 C211.43226658 1258.2327665 210.24094599 1259.21724931 209.05078125 1260.203125 C183.27521603 1281.49442121 155.55604502 1300.28447749 125.625 1315.25 C125.625 1366.4 125.625 1417.55 125.625 1470.25 C136.845 1472.56 148.065 1474.87 159.625 1477.25 C164.245 1478.57 168.865 1479.89 173.625 1481.25 C166.70754974 1506.61398429 152.67463554 1530.36948158 135.625 1550.25 C134.81804688 1551.19101563 134.01109375 1552.13203125 133.1796875 1553.1015625 C106.43591872 1583.5935298 69.44708065 1599.54586113 29.625 1604.25 C25.28649199 1604.50564979 20.97007303 1604.53763901 16.625 1604.5 C14.86470459 1604.48767334 14.86470459 1604.48767334 13.06884766 1604.47509766 C-30.74561449 1603.92123807 -71.96721734 1590.62171434 -103.8125 1559.76123047 C-104.88937988 1558.71968571 -105.97316007 1557.68524412 -107.0625 1556.65673828 C-128.623009 1536.29336692 -145.62879322 1509.88477772 -156.375 1482.25 C-156.375 1481.26 -156.375 1480.27 -156.375 1479.25 C-148.31908879 1476.63698689 -140.15776821 1474.80239685 -131.875 1473.0625 C-130.60140625 1472.78986328 -129.3278125 1472.51722656 -128.015625 1472.23632812 C-118.65648496 1470.25 -118.65648496 1470.25 -116.375 1470.25 C-116.375 1436.92 -116.375 1403.59 -116.375 1369.25 C-156.79231936 1379.61721808 -156.79231936 1379.61721808 -190.15234375 1403.0234375 C-192.18021905 1405.05487673 -194.25914783 1406.945341 -196.4375 1408.8125 C-199.92873185 1411.80597206 -203.14597703 1415.00173596 -206.37109375 1418.27734375 C-208.95746151 1420.82337829 -211.6903528 1423.17021557 -214.44140625 1425.53515625 C-216.93931556 1427.7504738 -219.25524989 1430.1189817 -221.59375 1432.5 C-224.09396185 1434.95634849 -226.75180516 1437.21309368 -229.40625 1439.5 C-231.30523071 1441.18798286 -233.09505988 1442.93769734 -234.875 1444.75 C-237.91332417 1447.84356643 -241.1226532 1450.67105507 -244.40625 1453.5 C-246.30523071 1455.18798286 -248.09505988 1456.93769734 -249.875 1458.75 C-252.91332417 1461.84356643 -256.1226532 1464.67105507 -259.40625 1467.5 C-261.30523071 1469.18798286 -263.09505988 1470.93769734 -264.875 1472.75 C-267.26553167 1475.18389732 -269.72546262 1477.46355559 -272.3125 1479.6875 C-275.12076347 1482.10617779 -277.77470593 1484.60899683 -280.375 1487.25 C-284.20096528 1491.1285817 -288.2005449 1494.7504568 -292.375 1498.25 C-293.0261377 1498.89267822 -293.67727539 1499.53535645 -294.34814453 1500.19750977 C-298.58757343 1503.07223785 -302.78332001 1503.75643366 -307.76171875 1504.73046875 C-309.31340508 1505.05211754 -309.31340508 1505.05211754 -310.8964386 1505.38026428 C-314.28256072 1506.07925633 -317.67231076 1506.75853451 -321.0625 1507.4375 C-323.40067942 1507.91558192 -325.73856837 1508.39508655 -328.07617188 1508.87597656 C-331.64955219 1509.610884 -335.2231156 1510.34471334 -338.79782104 1511.07315063 C-346.55242931 1512.65554176 -354.29050843 1514.30112676 -362.01953125 1516.00390625 C-362.99379562 1516.21762375 -363.96806 1516.43134125 -364.97184753 1516.65153503 C-368.67886407 1517.46504004 -372.38576615 1518.27869108 -376.08944702 1519.10726929 C-378.59963335 1519.66796562 -381.11195888 1520.21789089 -383.625 1520.765625 C-384.72452751 1521.01627464 -384.72452751 1521.01627464 -385.8462677 1521.27198792 C-392.82090831 1522.7728639 -392.82090831 1522.7728639 -395.375 1521.25 C-396.59784352 1518.96944075 -397.50115369 1516.8981677 -398.37890625 1514.484375 C-398.65437286 1513.76487671 -398.92983948 1513.04537842 -399.21365356 1512.30407715 C-400.13788264 1509.87520198 -401.03793669 1507.43810879 -401.9375 1505 C-402.58940586 1503.26628367 -403.24217819 1501.53289294 -403.89575195 1499.79980469 C-412.6811705 1476.39147234 -421.05806921 1452.82800373 -429.375 1429.25 C-429.67599609 1428.39770813 -429.97699219 1427.54541626 -430.28710938 1426.66729736 C-464.98777768 1328.32944782 -493.46334269 1227.2936337 -566.125 798.5625 C-566.21388489 797.14928467 -566.21388489 797.14928467 -566.30456543 795.70751953 C-566.70543805 789.22374115 -567.05769102 782.7383885 -567.375 776.25 C-567.4233902 775.27108795 -567.4717804 774.2921759 -567.52163696 773.28359985 C-568.52091351 752.29753564 -568.5766779 731.31705391 -568.5625 710.3125 C-568.56223312 709.42437874 -568.56196625 708.53625748 -568.56169128 707.62122345 C-568.52415971 607.86314441 -561.04984644 508.12604989 -448.375 199.25 C-447.8298877 198.48993652 -447.28477539 197.72987305 -446.72314453 196.94677734 C-440.20376911 187.87784422 -433.57350426 178.97630882 -426.23608398 170.55078125 C-424.37016039 168.4071938 -422.52613162 166.24801079 -420.7019043 164.06884766 C-413.98513481 156.07232459 -406.94917003 148.50877408 -399.53833008 141.15258789 C-397.80245269 139.42751523 -396.0776491 137.69188009 -394.35351562 135.95507812 C-387.66642211 129.26008355 -380.79230244 123.13534273 -373.375 117.25 C-372.27300947 116.31541189 -371.17668788 115.3740346 -370.08984375 114.421875 C-361.2871774 106.7458509 -351.94793034 99.93124221 -342.375 93.25 C-341.74368164 92.8080127 -341.11236328 92.36602539 -340.46191406 91.91064453 C-264.31387648 38.94618928 -172.92883954 14.49972683 -44.375 1.25 C-43.70654053 1.20194214 -43.03808105 1.15388428 -42.34936523 1.10437012 C-28.243026 0.11376111 -14.13677708 0.00713325 0 0 Z " fill="#E84E1B" transform="translate(1398.375,59.75)"/>
<path d="M0 0 C2 1 2 1 2.77391052 2.72286987 C3.02052933 3.47416168 3.26714813 4.22545349 3.52124023 4.99951172 C3.80633453 5.85423569 4.09142883 6.70895966 4.38516235 7.58958435 C4.68989471 8.52681839 4.99462708 9.46405243 5.30859375 10.4296875 C5.97412692 12.42968544 6.6399083 14.42960079 7.3059082 16.42944336 C7.65368317 17.48227509 8.00145813 18.53510681 8.35977173 19.61984253 C14.57312706 38.38658601 21.01541607 56.9032216 29 75 C29.44118164 76.00353516 29.88236328 77.00707031 30.33691406 78.04101562 C33.4523748 85.07823895 36.68433555 92.05502716 40 99 C40.70527832 100.47847412 40.70527832 100.47847412 41.42480469 101.98681641 C52.10573954 124.21285113 64.59436874 145.31923578 78 166 C78.6703125 167.03511719 79.340625 168.07023438 80.03125 169.13671875 C90.25495627 184.6672217 101.17321443 199.72796461 112.25878906 214.64990234 C113.98994601 216.98643022 115.71144757 219.32974174 117.4296875 221.67578125 C123.55715803 230.03719821 129.75882548 238.33295357 136.0625 246.5625 C143.22257875 255.91582574 150.15834649 265.41222347 157 275 C157.98537743 276.37521476 158.97104777 277.75021969 159.95703125 279.125 C166.57255304 288.35882956 166.57255304 288.35882956 169 292 C171.05126639 292.92646324 171.05126639 292.92646324 173.48046875 293.54296875 C174.39014404 293.80770996 175.29981934 294.07245117 176.23706055 294.34521484 C177.21070557 294.62316895 178.18435059 294.90112305 179.1875 295.1875 C196.30651208 300.37608892 211.90103191 307.97896626 222.46484375 323.0546875 C226.82590737 331.42171542 228.70398064 339.02024269 228.5625 348.4375 C228.54497681 350.0455249 228.54497681 350.0455249 228.52709961 351.68603516 C227.60021339 386.65515401 214.6093963 418.35223919 198.51293945 448.81420898 C196.03542975 453.56131609 194.3949836 457.56677664 193.6875 462.9375 C189.67773546 488.16313154 179.81872845 512.49412348 168 535 C202.43325248 518.9044564 216.31890206 472.53302591 229.984375 439.87109375 C234.94594219 428.02522526 240.00094808 416.35962381 246 405 C246.76376953 403.50339844 246.76376953 403.50339844 247.54296875 401.9765625 C257.36106573 383.18267177 271.70463279 366.39479328 292 359 C296.63676578 357.68864148 301.23930855 356.73241407 306 356 C307.12535156 355.79117188 307.12535156 355.79117188 308.2734375 355.578125 C315.48313059 354.81301471 321.27885564 360.00058893 326.55078125 364.25 C345.83330355 380.32674315 354.96780098 402.70327572 357.75683594 427.26611328 C361.97698524 474.71313322 349.33976248 533.1933548 318.31347656 570.453125 C303.33695408 588.09090315 281.46765418 608.94241783 257.08056641 611.17578125 C245.17742535 611.94213662 236.4789369 610.68235224 227 603 C226.77860352 603.75506836 226.55720703 604.51013672 226.32910156 605.28808594 C225.30498342 608.77605541 224.27750899 612.26302799 223.25 615.75 C222.72792969 617.53083984 222.72792969 617.53083984 222.1953125 619.34765625 C203.08398039 684.11383727 166.12872053 743.69685002 124 796 C123.484375 796.64179199 122.96875 797.28358398 122.4375 797.94482422 C112.98672417 809.69297915 103.42855426 821.34506944 93.265625 832.48828125 C91.38527003 834.57288167 89.53667141 836.67804752 87.6953125 838.796875 C78.54020026 849.27713356 68.81950202 859.26954906 59 869.125 C58.3188916 869.81070068 57.6377832 870.49640137 56.93603516 871.20288086 C53.04785317 875.07918836 49.04950129 878.7654906 44.89306641 882.35205078 C42.09219262 884.79026306 39.39575604 887.33507538 36.6875 889.875 C30.98515128 895.17374466 25.07285619 900.12898036 19 905 C17.80726658 905.9827665 16.61594599 906.96724931 15.42578125 907.953125 C-10.34978397 929.24442121 -38.06895498 948.03447749 -68 963 C-68 1014.15 -68 1065.3 -68 1118 C-56.78 1120.31 -45.56 1122.62 -34 1125 C-29.38 1126.32 -24.76 1127.64 -20 1129 C-26.91745026 1154.36398429 -40.95036446 1178.11948158 -58 1198 C-58.80695312 1198.94101563 -59.61390625 1199.88203125 -60.4453125 1200.8515625 C-87.18908128 1231.3435298 -124.17791935 1247.29586113 -164 1252 C-168.33850801 1252.25564979 -172.65492697 1252.28763901 -177 1252.25 C-178.76029541 1252.23767334 -178.76029541 1252.23767334 -180.55615234 1252.22509766 C-224.37061449 1251.67123807 -265.59221734 1238.37171434 -297.4375 1207.51123047 C-298.51437988 1206.46968571 -299.59816007 1205.43524412 -300.6875 1204.40673828 C-322.248009 1184.04336692 -339.25379322 1157.63477772 -350 1130 C-350 1129.01 -350 1128.02 -350 1127 C-341.94408879 1124.38698689 -333.78276821 1122.55239685 -325.5 1120.8125 C-324.22640625 1120.53986328 -322.9528125 1120.26722656 -321.640625 1119.98632812 C-312.28148496 1118 -312.28148496 1118 -310 1118 C-310.495 1037.315 -310.495 1037.315 -311 955 C-316.94 951.7 -322.88 948.4 -329 945 C-332.70424136 942.76527018 -336.36664941 940.5275163 -340 938.1875 C-341.37599365 937.30602295 -341.37599365 937.30602295 -342.77978516 936.40673828 C-351.02401401 931.07559393 -359.00952088 925.42673837 -366.88720703 919.5703125 C-368.99032922 918.00718771 -371.10195013 916.45613148 -373.21484375 914.90625 C-380.7071272 909.38110041 -387.94684086 903.64989638 -394.99609375 897.5703125 C-397.74694682 895.21652665 -400.54580476 892.94585614 -403.375 890.6875 C-409.21691833 885.9372102 -414.66366983 880.79742915 -420.12890625 875.625 C-422.97309528 872.93772144 -425.87315002 870.32308887 -428.796875 867.72265625 C-434.27693058 862.80670106 -439.49421132 857.6534503 -444.6875 852.4375 C-445.58533203 851.54353516 -446.48316406 850.64957031 -447.40820312 849.72851562 C-451.9250041 845.20509663 -456.30584141 840.62731925 -460.46899414 835.77612305 C-462.70458459 833.18260997 -465.04119304 830.69301348 -467.375 828.1875 C-471.59274087 823.61702095 -475.6095264 818.9306113 -479.5078125 814.08203125 C-481.37869084 811.76835882 -483.26731879 809.47813421 -485.1796875 807.19921875 C-493.90349212 796.7780558 -502.08138518 786.0435182 -510 775 C-510.89017822 773.7634668 -510.89017822 773.7634668 -511.79833984 772.50195312 C-520.075086 760.9713119 -527.79319588 749.22601852 -535 737 C-535.44408203 736.25459961 -535.88816406 735.50919922 -536.34570312 734.74121094 C-544.07340443 721.75978464 -551.14917004 708.46283092 -558 695 C-558.51346481 694.11894592 -559.02692963 693.23789185 -559.55595398 692.33013916 C-561.21132061 688.51266994 -561.41670117 685.3068756 -561.37231445 681.22680664 C-561.37596512 680.46927597 -561.37961578 679.7117453 -561.38337708 678.93125916 C-561.3914786 676.42399614 -561.37783414 673.9173826 -561.36328125 671.41015625 C-561.36276084 669.62886048 -561.3632855 667.84756413 -561.36479187 666.06626892 C-561.36470205 662.31110152 -561.35428497 658.55614823 -561.33618164 654.80102539 C-561.31402968 650.11543887 -561.3130439 645.43017634 -561.31943226 640.74455261 C-561.35258793 608.55959783 -560.34141034 576.41919813 -557.1875 544.375 C-557.10484894 543.50795441 -557.02219788 542.64090881 -556.93704224 541.74758911 C-555.00074996 521.49076484 -552.70562213 501.1657063 -549.14501953 481.12158203 C-548.93088158 479.90276085 -548.93088158 479.90276085 -548.7124176 478.65931702 C-548.43493348 477.09712729 -548.14952227 475.53631732 -547.85484314 473.97727966 C-546.85428292 468.35298081 -546.77996321 464.91573911 -549.86328125 460.07421875 C-550.67721963 458.94353188 -551.49382446 457.81476166 -552.3125 456.6875 C-573.6331235 425.9596841 -586.89776924 386.56334504 -587.375 349.1875 C-587.41238281 348.08857422 -587.44976563 346.98964844 -587.48828125 345.85742188 C-587.61003736 334.37852654 -583.81805164 325.06314084 -576.3359375 316.37109375 C-557.42555086 297.17610262 -527.5737469 289.45891414 -501.546875 286.453125 C-500.86012695 286.37352539 -500.17337891 286.29392578 -499.46582031 286.21191406 C-497.63574699 286.01463343 -495.80226043 285.84975756 -493.96875 285.6875 C-487.74192683 284.24549884 -484.62789511 277.98448285 -481.0625 273.04101562 C-474.31109221 263.99284727 -467.31623875 259.75856427 -456.5625 256.4375 C-455.38179932 256.05964355 -454.20109863 255.68178711 -452.98461914 255.29248047 C-435.33259998 249.76247886 -417.32991762 245.51480088 -399 243 C-397.9486084 242.8455542 -397.9486084 242.8455542 -396.87597656 242.68798828 C-363.10495159 237.8317732 -328.47182661 242.06995231 -294.90844727 246.72949219 C-286.47912059 248.05866621 -286.47912059 248.05866621 -278 248 C-275.54994167 244.32491251 -275.66810456 241.5014806 -275.6875 237.25 C-275.67138672 236.5590625 -275.65527344 235.868125 -275.63867188 235.15625 C-275.63388354 230.06145741 -276.65900155 226.53390454 -279 222 C-281.79359884 219.20640116 -285.14513386 218.41975409 -288.8125 217.1875 C-294.10407746 215.37739873 -299.32213614 213.49470852 -304.5 211.375 C-319.30102643 205.68511221 -334.28394369 204.07887536 -350 203 C-346.51665493 200.67776995 -343.12469378 199.83550251 -339.125 198.828125 C-338.33746841 198.62539978 -337.54993683 198.42267456 -336.73854065 198.21380615 C-334.16062849 197.55274076 -331.58048835 196.90093079 -329 196.25 C-328.11432343 196.0245752 -327.22864685 195.79915039 -326.31613159 195.56689453 C-314.73474132 192.61921333 -303.13379522 189.84809096 -291.45092773 187.32910156 C-268.46288363 182.32135784 -245.37319539 176.81372604 -222.96191406 169.625 C-221.04027607 169.0128306 -219.11000432 168.42797677 -217.1796875 167.84375 C-163.68657741 151.58711696 -111.75518526 128.25741803 -70.2265625 90.04296875 C-68.18572074 88.17040692 -66.10536303 86.36170466 -64 84.5625 C-56.42558548 77.95210187 -49.43671482 70.71660212 -43 63 C-42.54786133 62.46165527 -42.09572266 61.92331055 -41.62988281 61.36865234 C-25.67532069 42.30983196 -11.89005822 21.83524969 0 0 Z " fill="#F7BA8C" transform="translate(1592,412)"/>
<path d="M0 0 C2 1 2 1 2.77391052 2.72286987 C3.02052933 3.47416168 3.26714813 4.22545349 3.52124023 4.99951172 C3.80633453 5.85423569 4.09142883 6.70895966 4.38516235 7.58958435 C4.68989471 8.52681839 4.99462708 9.46405243 5.30859375 10.4296875 C5.97412692 12.42968544 6.6399083 14.42960079 7.3059082 16.42944336 C7.65368317 17.48227509 8.00145813 18.53510681 8.35977173 19.61984253 C14.57312706 38.38658601 21.01541607 56.9032216 29 75 C29.44118164 76.00353516 29.88236328 77.00707031 30.33691406 78.04101562 C33.4523748 85.07823895 36.68433555 92.05502716 40 99 C40.70527832 100.47847412 40.70527832 100.47847412 41.42480469 101.98681641 C52.10573954 124.21285113 64.59436874 145.31923578 78 166 C78.6703125 167.03511719 79.340625 168.07023438 80.03125 169.13671875 C90.25495627 184.6672217 101.17321443 199.72796461 112.25878906 214.64990234 C113.98994601 216.98643022 115.71144757 219.32974174 117.4296875 221.67578125 C123.55715803 230.03719821 129.75882548 238.33295357 136.0625 246.5625 C143.22257875 255.91582574 150.15834649 265.41222347 157 275 C157.98537743 276.37521476 158.97104777 277.75021969 159.95703125 279.125 C166.57255304 288.35882956 166.57255304 288.35882956 169 292 C171.05126639 292.92646324 171.05126639 292.92646324 173.48046875 293.54296875 C174.39014404 293.80770996 175.29981934 294.07245117 176.23706055 294.34521484 C177.21070557 294.62316895 178.18435059 294.90112305 179.1875 295.1875 C196.30651208 300.37608892 211.90103191 307.97896626 222.46484375 323.0546875 C226.82590737 331.42171542 228.70398064 339.02024269 228.5625 348.4375 C228.54497681 350.0455249 228.54497681 350.0455249 228.52709961 351.68603516 C227.40158642 394.14885699 209.19581818 440.96835497 181 473 C180.27039062 473.83917969 179.54078125 474.67835938 178.7890625 475.54296875 C176.56137108 478.06377746 174.29325151 480.53875903 172 483 C171.25363281 483.81210937 170.50726562 484.62421875 169.73828125 485.4609375 C149.75659273 506.40042596 124.22452484 517.53449766 96 522 C94.98921387 522.16012573 94.98921387 522.16012573 93.95800781 522.32348633 C35.89574817 530.5687971 -37.30203817 515.01826665 -85.09765625 480.484375 C-115.00151856 458.01392059 -134.04363782 429.41784125 -145.421875 393.9453125 C-145.81850342 392.71252563 -145.81850342 392.71252563 -146.22314453 391.45483398 C-146.74431021 389.8079701 -147.25034852 388.15624801 -147.74169922 386.50024414 C-150.00769873 379.11579588 -153.53907045 375.40597676 -160.3828125 371.71484375 C-170.02610225 367.27511134 -180.530475 366.1115827 -190.75 369.625 C-197.96427449 372.63626796 -206.36909308 376.54479642 -211 383 C-211.90813265 385.83734978 -212.56820045 388.68171567 -213.21484375 391.58984375 C-217.73185193 411.20849121 -227.02997397 429.8914538 -239 446 C-239.69351562 446.93585938 -240.38703125 447.87171875 -241.1015625 448.8359375 C-274.97970928 492.1035332 -328.65886027 512.89296019 -381.85650635 519.74285889 C-429.38867103 525.44498622 -475.70288237 526.9186273 -515.6875 496.98828125 C-547.84594498 471.70089937 -568.70977772 434.90447021 -580 396 C-580.20415527 395.32614258 -580.40831055 394.65228516 -580.61865234 393.95800781 C-585.14015885 379.01307883 -587.25524892 364.15203123 -587.5 348.5625 C-587.53061523 347.49733154 -587.56123047 346.43216309 -587.59277344 345.3347168 C-587.59662105 332.95021437 -582.63398632 322.76392926 -574 314 C-554.840733 296.66404693 -526.66165046 289.35357803 -501.546875 286.453125 C-500.86012695 286.37352539 -500.17337891 286.29392578 -499.46582031 286.21191406 C-497.63574699 286.01463343 -495.80226043 285.84975756 -493.96875 285.6875 C-487.74192683 284.24549884 -484.62789511 277.98448285 -481.0625 273.04101562 C-474.31109221 263.99284727 -467.31623875 259.75856427 -456.5625 256.4375 C-455.38179932 256.05964355 -454.20109863 255.68178711 -452.98461914 255.29248047 C-435.33259998 249.76247886 -417.32991762 245.51480088 -399 243 C-397.9486084 242.8455542 -397.9486084 242.8455542 -396.87597656 242.68798828 C-363.10495159 237.8317732 -328.47182661 242.06995231 -294.90844727 246.72949219 C-286.47912059 248.05866621 -286.47912059 248.05866621 -278 248 C-275.54994167 244.32491251 -275.66810456 241.5014806 -275.6875 237.25 C-275.67138672 236.5590625 -275.65527344 235.868125 -275.63867188 235.15625 C-275.63388354 230.06145741 -276.65900155 226.53390454 -279 222 C-281.79359884 219.20640116 -285.14513386 218.41975409 -288.8125 217.1875 C-294.10407746 215.37739873 -299.32213614 213.49470852 -304.5 211.375 C-319.30102643 205.68511221 -334.28394369 204.07887536 -350 203 C-346.51665493 200.67776995 -343.12469378 199.83550251 -339.125 198.828125 C-338.33746841 198.62539978 -337.54993683 198.42267456 -336.73854065 198.21380615 C-334.16062849 197.55274076 -331.58048835 196.90093079 -329 196.25 C-328.11432343 196.0245752 -327.22864685 195.79915039 -326.31613159 195.56689453 C-314.73474132 192.61921333 -303.13379522 189.84809096 -291.45092773 187.32910156 C-268.46288363 182.32135784 -245.37319539 176.81372604 -222.96191406 169.625 C-221.04027607 169.0128306 -219.11000432 168.42797677 -217.1796875 167.84375 C-163.68657741 151.58711696 -111.75518526 128.25741803 -70.2265625 90.04296875 C-68.18572074 88.17040692 -66.10536303 86.36170466 -64 84.5625 C-56.42558548 77.95210187 -49.43671482 70.71660212 -43 63 C-42.54786133 62.46165527 -42.09572266 61.92331055 -41.62988281 61.36865234 C-25.67532069 42.30983196 -11.89005822 21.83524969 0 0 Z " fill="#614C6C" transform="translate(1592,412)"/>
<path d="M0 0 C0.11159826 6.63882847 -0.29705138 13.05717019 -1.03125 19.65234375 C-1.14237122 20.67933884 -1.25349243 21.70633392 -1.36798096 22.76445007 C-1.73833161 26.15628117 -2.11794987 29.5469676 -2.5 32.9375 C-2.69873718 34.71130035 -2.69873718 34.71130035 -2.90148926 36.52093506 C-12.7372183 123.85783751 -27.25391656 210.8041659 -49 296 C-49.2464325 296.96814636 -49.49286499 297.93629272 -49.74676514 298.93377686 C-56.70089425 326.20672743 -64.38195625 353.20623079 -73 380 C-73.24514343 380.76358826 -73.49028687 381.52717651 -73.74285889 382.31390381 C-93.85169228 444.85649978 -117.5624691 508.79426395 -152 565 C-147.10998928 566.75230924 -142.2193626 567.90490962 -137.14892578 568.97119141 C-136.27998184 569.1568013 -135.4110379 569.34241119 -134.51576233 569.53364563 C-131.65962996 570.14288305 -128.80249049 570.74724957 -125.9453125 571.3515625 C-123.95842194 571.77438818 -121.97159624 572.19751873 -119.98483276 572.62094116 C-114.76752995 573.73200798 -109.54935838 574.83894034 -104.33099365 575.94500732 C-99.00138044 577.07542065 -93.67260123 578.20975115 -88.34375 579.34375 C-77.8966448 581.56632957 -67.44861741 583.78454123 -57 586 C-57 586.33 -57 586.66 -57 587 C-67.77730739 586.73330633 -78.06225604 584.17803853 -88.52648926 581.79586792 C-94.10750444 580.52615368 -99.694613 579.28376506 -105.28125 578.0390625 C-106.42668274 577.78327927 -107.57211548 577.52749603 -108.7522583 577.26396179 C-119.2468494 574.92778638 -129.76584462 572.72011611 -140.29571533 570.54937744 C-143.24853811 569.93780278 -146.19942858 569.31762534 -149.14990234 568.69482422 C-158.3001258 566.76844645 -167.45104263 564.8953089 -176.64880371 563.20811462 C-180.88312556 562.42417851 -185.10896126 561.59941281 -189.33435059 560.76882935 C-191.33115426 560.3870686 -193.33164682 560.02403224 -195.33557129 559.68161011 C-213.17376677 556.62373662 -213.17376677 556.62373662 -218.98828125 548.59375 C-220.41734063 546.4346512 -221.70614347 544.24723373 -223 542 C-223.88435224 540.7539606 -224.78251448 539.51731806 -225.70703125 538.30078125 C-226.40183594 537.31464844 -227.09664062 536.32851562 -227.8125 535.3125 C-228.64534087 534.13636987 -229.47870165 532.96060778 -230.3125 531.78515625 C-230.74433594 531.17559082 -231.17617187 530.56602539 -231.62109375 529.93798828 C-234.16577612 526.36155615 -236.74032199 522.80668153 -239.3125 519.25 C-239.86010986 518.49243408 -240.40771973 517.73486816 -240.97192383 516.9543457 C-242.09005534 515.40763247 -243.20830141 513.86100206 -244.32666016 512.31445312 C-247.05263139 508.54406981 -249.77621534 504.77196306 -252.5 501 C-253.58332144 499.49999141 -254.66665479 497.99999142 -255.75 496.5 C-262.25 487.5 -262.25 487.5 -263.87597656 485.24853516 C-264.95591198 483.75331489 -266.03598939 482.25819716 -267.11621094 480.76318359 C-270.441886 476.16002381 -273.76222858 471.5530801 -277.078125 466.94287109 C-278.71720147 464.67047156 -280.36599182 462.40536715 -282.015625 460.140625 C-283.84826975 457.61929408 -285.63252204 455.07914366 -287.359375 452.484375 C-299.87026725 434.3116191 -325.98235447 426.70648149 -346.5625 421.8125 C-348.68928785 421.30018948 -350.81561613 420.78596614 -352.94140625 420.26953125 C-353.86638916 420.04885986 -354.79137207 419.82818848 -355.74438477 419.60083008 C-358 419 -358 419 -360 418 C-360 401.17 -360 384.34 -360 367 C-356.514375 365.040625 -353.02875 363.08125 -349.4375 361.0625 C-329.07977388 349.55744956 -309.51036559 337.34678743 -291 323 C-290.45569336 322.58041016 -289.91138672 322.16082031 -289.35058594 321.72851562 C-281.28205418 315.50097281 -273.41211074 309.07323836 -265.67822266 302.43554688 C-263.91035481 300.92331776 -262.13364683 299.42196278 -260.35546875 297.921875 C-254.66362964 293.10547124 -249.09557564 288.28687233 -243.91455078 282.91357422 C-242.12988706 281.12982081 -240.29324228 279.49230612 -238.37109375 277.859375 C-233.51234675 273.6381986 -228.97609738 269.12283049 -224.4375 264.5625 C-223.62603516 263.75490234 -222.81457031 262.94730469 -221.97851562 262.11523438 C-217.70704091 257.83686462 -213.5969964 253.48426784 -209.65551758 248.90063477 C-206.9048132 245.74265901 -204.00535332 242.72672754 -201.125 239.6875 C-196.26646836 234.52070379 -191.61932067 229.2638362 -187.19140625 223.71875 C-185.21233644 221.26343345 -183.18084427 218.86297831 -181.12353516 216.47314453 C-174.59989418 208.88271549 -168.54223453 200.97075233 -162.51074219 192.98681641 C-161.16961156 191.22306058 -159.81389885 189.47294725 -158.4453125 187.73046875 C-141.2223248 165.73586643 -126.04214875 142.12716319 -112 118 C-111.45230957 117.06091797 -110.90461914 116.12183594 -110.34033203 115.15429688 C-93.5528292 86.20603237 -79.37300875 56.54248276 -70.05541992 24.35180664 C-68.25272833 18.12816029 -66.39794702 12.02134331 -64 6 C-63.12988281 6.61488281 -63.12988281 6.61488281 -62.2421875 7.2421875 C-61.46101563 7.78101563 -60.67984375 8.31984375 -59.875 8.875 C-59.10929687 9.40867187 -58.34359375 9.94234375 -57.5546875 10.4921875 C-49.07472678 15.49717961 -38.18045481 15.22727224 -28.71484375 13.34765625 C-20.2758977 10.70125729 -10.79650502 6.60559196 -3.71875 1.28515625 C-2 0 -2 0 0 0 Z " fill="#E84E1B" transform="translate(1883,1008)"/>
<path d="M0 0 C2 1 2 1 2.77391052 2.72286987 C3.02052933 3.47416168 3.26714813 4.22545349 3.52124023 4.99951172 C3.80633453 5.85423569 4.09142883 6.70895966 4.38516235 7.58958435 C4.68989471 8.52681839 4.99462708 9.46405243 5.30859375 10.4296875 C5.97412692 12.42968544 6.6399083 14.42960079 7.3059082 16.42944336 C7.65368317 17.48227509 8.00145813 18.53510681 8.35977173 19.61984253 C14.57312706 38.38658601 21.01541607 56.9032216 29 75 C29.44118164 76.00353516 29.88236328 77.00707031 30.33691406 78.04101562 C33.4523748 85.07823895 36.68433555 92.05502716 40 99 C40.70527832 100.47847412 40.70527832 100.47847412 41.42480469 101.98681641 C52.10573954 124.21285113 64.59436874 145.31923578 78 166 C78.6703125 167.03511719 79.340625 168.07023438 80.03125 169.13671875 C90.25495627 184.6672217 101.17321443 199.72796461 112.25878906 214.64990234 C113.98994601 216.98643022 115.71144757 219.32974174 117.4296875 221.67578125 C123.55715803 230.03719821 129.75882548 238.33295357 136.0625 246.5625 C142.70435657 255.23886378 149.16694929 264.02712392 155.51269531 272.921875 C156.99715263 274.99602154 158.49298323 277.06149406 159.9921875 279.125 C160.9115213 280.39578778 161.83079547 281.66661871 162.75 282.9375 C163.16878418 283.51105225 163.58756836 284.08460449 164.01904297 284.67553711 C165.77990989 287.12218003 167.03898426 289.11695279 168 292 C167.16843384 291.82585571 167.16843384 291.82585571 166.32006836 291.64819336 C146.90057036 287.66546081 127.31231581 284.88622773 107.5625 283.25 C106.8537674 283.19119659 106.14503479 283.13239319 105.41482544 283.07180786 C101.27743335 282.73427158 97.1386581 282.42698287 92.99737549 282.14129639 C91.08977904 282.00635106 89.18326702 281.85632918 87.27685547 281.70556641 C73.92435272 280.75482109 60.5534862 280.8475885 47.17431641 280.86962891 C43.72024807 280.87528089 40.26625754 280.87196219 36.81219196 280.86619568 C14.10763622 280.83392468 -8.55838409 281.28349162 -31.1875 283.25 C-31.91104675 283.3118045 -32.63459351 283.37360901 -33.38006592 283.43728638 C-69.45430748 286.57564461 -111.534113 291.44210013 -139.38671875 316.8359375 C-143.00235019 321.00970799 -143.00235019 321.00970799 -148 331 C-168.79 331 -189.58 331 -211 331 C-212.98 327.37 -214.96 323.74 -217 320 C-234.21474057 299.76512951 -263.33613299 292.65441113 -288.49902344 288.42480469 C-290.77774998 288.03775039 -293.04864048 287.62144829 -295.3203125 287.1953125 C-305.85300672 285.29508416 -316.47157727 284.30788604 -327.125 283.375 C-327.82361145 283.3124704 -328.5222229 283.2499408 -329.24200439 283.18551636 C-352.90536464 281.09516379 -376.63205772 280.76663619 -400.375 280.75 C-401.05362846 280.748969 -401.73225693 280.747938 -402.43144989 280.74687576 C-426.37569993 280.71289015 -450.12487331 281.67303484 -473.97766113 283.82244873 C-478.98128331 284.26174181 -483.99110463 284.62664199 -489 285 C-482.53705389 272.35510544 -473.6233075 262.10541834 -460.05444336 257.57666016 C-458.92272705 257.2213623 -457.79101074 256.86606445 -456.625 256.5 C-455.4397876 256.11763184 -454.2545752 255.73526367 -453.03344727 255.34130859 C-435.37271168 249.7634938 -417.35186367 245.5178118 -399 243 C-397.9486084 242.8455542 -397.9486084 242.8455542 -396.87597656 242.68798828 C-363.10495159 237.8317732 -328.47182661 242.06995231 -294.90844727 246.72949219 C-286.47912059 248.05866621 -286.47912059 248.05866621 -278 248 C-275.54994167 244.32491251 -275.66810456 241.5014806 -275.6875 237.25 C-275.67138672 236.5590625 -275.65527344 235.868125 -275.63867188 235.15625 C-275.63388354 230.06145741 -276.65900155 226.53390454 -279 222 C-281.79359884 219.20640116 -285.14513386 218.41975409 -288.8125 217.1875 C-294.10407746 215.37739873 -299.32213614 213.49470852 -304.5 211.375 C-319.30102643 205.68511221 -334.28394369 204.07887536 -350 203 C-346.51665493 200.67776995 -343.12469378 199.83550251 -339.125 198.828125 C-338.33746841 198.62539978 -337.54993683 198.42267456 -336.73854065 198.21380615 C-334.16062849 197.55274076 -331.58048835 196.90093079 -329 196.25 C-328.11432343 196.0245752 -327.22864685 195.79915039 -326.31613159 195.56689453 C-314.73474132 192.61921333 -303.13379522 189.84809096 -291.45092773 187.32910156 C-268.46288363 182.32135784 -245.37319539 176.81372604 -222.96191406 169.625 C-221.04027607 169.0128306 -219.11000432 168.42797677 -217.1796875 167.84375 C-163.68657741 151.58711696 -111.75518526 128.25741803 -70.2265625 90.04296875 C-68.18572074 88.17040692 -66.10536303 86.36170466 -64 84.5625 C-56.42558548 77.95210187 -49.43671482 70.71660212 -43 63 C-42.54786133 62.46165527 -42.09572266 61.92331055 -41.62988281 61.36865234 C-25.67532069 42.30983196 -11.89005822 21.83524969 0 0 Z " fill="#F7BA8C" transform="translate(1592,412)"/>
<path d="M0 0 C2.90045452 0.00008092 5.80074994 -0.00682271 8.70117188 -0.02050781 C27.18210675 -0.10630238 45.45932975 0.38786831 63.87207031 2.18530273 C65.51256599 2.34279243 65.51256599 2.34279243 67.186203 2.50346375 C93.12577811 5.02500668 125.73099281 9.20166678 144.80957031 28.93530273 C153.83945571 40.42184814 154.17294096 52.644789 152.60253906 66.57641602 C149.85792563 86.57819974 142.61591873 106.82008075 132.83398438 124.44116211 C131.87611751 126.17796437 130.96373588 127.9395967 130.05175781 129.70092773 C116.20214046 155.54582037 93.32654369 176.6071425 65.13696289 185.46533203 C21.07045127 198.6203166 -38.20027024 186.63070789 -77.95507812 165.16162109 C-108.78558961 147.81620531 -130.52473169 120.27014716 -140.09667969 86.38061523 C-144.08803981 70.95474751 -148.49005946 49.69012301 -140.12792969 35.18530273 C-122.65080965 11.59634111 -93.32197675 7.32863537 -66.12792969 3.18530273 C-59.47969787 2.2813377 -52.82089536 1.63929207 -46.12792969 1.18530273 C-44.9906543 1.09917725 -43.85337891 1.01305176 -42.68164062 0.92431641 C-28.47233758 -0.06530047 -14.23613368 -0.00210256 0 0 Z " fill="#F7BA8C" transform="translate(1626.1279296875,718.814697265625)"/>
<path d="M0 0 C0.66302502 0.00026688 1.32605003 0.00053375 2.00916672 0.00080872 C113.94688955 0.05736967 113.94688955 0.05736967 143.125 27.625 C146.7363347 31.46490019 149.28315295 35.2536403 151.125 40.1875 C151.65867187 41.57001953 151.65867187 41.57001953 152.203125 42.98046875 C158.73457991 65.70218265 147.9049751 95.69974158 137.22265625 115.5390625 C131.68599801 125.37333369 124.91724676 134.02756102 117.125 142.1875 C116.54878906 142.83847656 115.97257812 143.48945312 115.37890625 144.16015625 C85.46594954 176.60472177 34.02832145 187.26784484 -8.05212402 189.29223633 C-13.38850702 189.50337667 -18.72249705 189.5809785 -24.0625 189.625 C-24.77886627 189.63703461 -25.49523254 189.64906921 -26.23330688 189.66146851 C-54.95102538 190.07626761 -79.34189974 178.08189784 -99.9375 158.4375 C-112.87664208 145.07499131 -121.99934039 128.90016734 -129.875 112.1875 C-130.48214844 110.93453125 -130.48214844 110.93453125 -131.1015625 109.65625 C-133.10722755 103.25432924 -131.38121103 97.04867567 -129.8125 90.75 C-129.58554443 89.82735352 -129.35858887 88.90470703 -129.12475586 87.95410156 C-124.74887102 70.4623293 -119.37468355 53.33765252 -113.63253784 36.25280762 C-113.00499542 34.38333226 -112.38104259 32.51264794 -111.76077271 30.64074707 C-110.88013522 27.99054424 -109.98344942 25.34632123 -109.08203125 22.703125 C-108.81863953 21.90310059 -108.5552478 21.10307617 -108.28387451 20.27880859 C-106.81976146 16.05095467 -105.55847297 12.97565698 -101.875 10.1875 C-99.94091797 9.33789062 -99.94091797 9.33789062 -97.8671875 8.84375 C-97.06240967 8.65135742 -96.25763184 8.45896484 -95.4284668 8.26074219 C-94.54457275 8.07157227 -93.66067871 7.88240234 -92.75 7.6875 C-91.81003174 7.4802832 -90.87006348 7.27306641 -89.90161133 7.05957031 C-80.85383994 5.18469694 -71.73267319 4.01362927 -62.5625 2.9375 C-61.86050476 2.85459717 -61.15850952 2.77169434 -60.4352417 2.6862793 C-40.2842749 0.34417002 -20.27313571 -0.01692366 0 0 Z " fill="#F7BA8C" transform="translate(1189.875,718.8125)"/>
<path d="M0 0 C6.90493205 5.86622451 12.74509014 11.92373029 15.3125 20.75 C21.87247379 18.66538611 25.5601005 16.13959556 29.09765625 10.19140625 C31.70146094 4.95867979 33.38162845 -0.4785964 34.3125 -6.25 C34.9725 -6.25 35.6325 -6.25 36.3125 -6.25 C36.74161979 4.63692807 36.69683929 16.90134414 29.3125 25.75 C27.75925722 26.97021005 26.19586316 28.17755914 24.625 29.375 C21.59715363 31.89820531 20.4546103 33.11957452 19.578125 37.0078125 C19.44667704 39.26770621 19.3860185 41.53329034 19.41015625 43.796875 C19.31244066 46.7517945 18.84796783 48.2691657 17.3125 50.75 C17.16554688 49.66203125 17.01859375 48.5740625 16.8671875 47.453125 C14.56802626 31.84199842 9.37682415 19.41805649 -3.55859375 9.5625 C-15.36705962 1.77864235 -32.35279939 -5.25 -46.6875 -5.25 C-45.70523437 -4.79173828 -45.70523437 -4.79173828 -44.703125 -4.32421875 C-28.91694614 3.59116754 -18.05105365 16.31664718 -11.6875 32.75 C-11.20603516 33.97396484 -11.20603516 33.97396484 -10.71484375 35.22265625 C-5.47722521 50.9842339 -8.30072767 68.24947731 -15.3125 82.875 C-18.81340127 89.80738881 -23.06076944 95.35985957 -28.6875 100.75 C-29.23792969 101.34296875 -29.78835938 101.9359375 -30.35546875 102.546875 C-41.29100295 113.45540788 -61.85785559 112.91653816 -76.375 113 C-92.62029968 112.9059266 -106.35905907 111.18414988 -118.6875 99.75 C-125.61878232 92.56583508 -129.96037738 84.96393592 -133.6875 75.75 C-134.04972656 74.92242188 -134.41195313 74.09484375 -134.78515625 73.2421875 C-139.07037759 61.40681428 -138.75565714 42.82988901 -133.9609375 31.28515625 C-133.54070312 30.44855469 -133.12046875 29.61195313 -132.6875 28.75 C-131.96433594 27.29400391 -131.96433594 27.29400391 -131.2265625 25.80859375 C-128.66548709 20.92695 -125.85615382 16.25923813 -122.6875 11.75 C-140.18586456 20.37644826 -156.0807144 32.71362044 -163.0625 51.4375 C-163.26875 52.200625 -163.475 52.96375 -163.6875 53.75 C-164.0175 53.75 -164.3475 53.75 -164.6875 53.75 C-165.54080634 42.44369097 -160.55627682 32.50215112 -153.6875 23.75 C-116.70775947 -18.6162069 -47.20800457 -36.79637616 0 0 Z " fill="#5A3837" transform="translate(1699.6875,759.25)"/>
<path d="M0 0 C0.75684082 0.24669434 1.51368164 0.49338867 2.29345703 0.74755859 C23.40534892 7.7504647 40.88373778 17.42912736 57 33 C57.71027344 33.68449219 58.42054688 34.36898437 59.15234375 35.07421875 C66.35956527 42.55810905 72.88585756 53.15145341 73.0625 63.75 C73.041875 64.8225 73.02125 65.895 73 67 C70.6467876 64.6467876 69.75842074 62.46324984 68.375 59.4375 C60.68220758 43.88468055 46.54949232 35.38050758 32 27 C33.41590397 29.9593064 35.04694158 32.67502996 36.8125 35.4375 C46.07588743 50.74025277 48.6732636 67.9462945 44.4375 85.3125 C41.15502984 97.52707648 34.95688079 107.18706908 26 116 C25.401875 116.59683594 24.80375 117.19367188 24.1875 117.80859375 C11.45069932 129.63141105 -6.61458416 128.65639141 -22.88720703 128.15673828 C-40.18327473 127.2858304 -54.76056378 125.1048509 -67 112 C-77.40852299 99.44497227 -82.59247247 84.82331271 -82.4375 68.625 C-82.42992676 67.51882324 -82.42235352 66.41264648 -82.41455078 65.27294922 C-82.2584409 57.56203264 -81.52436663 50.96117135 -78 44 C-77.56429688 43.07703125 -77.12859375 42.1540625 -76.6796875 41.203125 C-69.36551273 26.73464813 -58.80895288 16.55374936 -44 10 C-63.45212589 12.89662407 -85.4696266 18.23713909 -98.07421875 34.7109375 C-103.04174493 42.31323124 -106.28581349 49.39581786 -107.1875 58.4375 C-107.26935547 59.16904297 -107.35121094 59.90058594 -107.43554688 60.65429688 C-107.63341885 62.43514466 -107.81810707 64.21744927 -108 66 C-110.44120679 62.33818982 -110.13425439 60.53243828 -110.125 56.1875 C-110.25939493 51.2229373 -110.25939493 51.2229373 -112.62890625 47.09765625 C-114.01775549 46.18844755 -115.43063224 45.31506085 -116.86328125 44.4765625 C-122.06697133 40.88059385 -125.50190053 33.58333943 -126.765625 27.4921875 C-127.34305581 21.35217325 -127.13452492 15.15825181 -127 9 C-124.84940494 12.22589258 -123.93566013 15.06654919 -122.75 18.75 C-120.31782526 25.93035515 -117.43061462 30.71292359 -111 35 C-109.68 35 -108.36 35 -107 35 C-105.5730393 33.15500536 -105.5730393 33.15500536 -104.4375 30.6875 C-94.58061651 13.26545843 -76.49873696 4.38918526 -57.99609375 -1.2578125 C-39.40930848 -6.40946647 -18.29654224 -6.11039553 0 0 Z " fill="#5A3737" transform="translate(1229,744)"/>
<path d="M0 0 C4.62 0 9.24 0 14 0 C14.12117188 1.33933594 14.24234375 2.67867187 14.3671875 4.05859375 C14.53616102 5.85159054 14.70544865 7.64455776 14.875 9.4375 C14.95363281 10.31599609 15.03226563 11.19449219 15.11328125 12.09960938 C15.97527924 23.92706624 15.97527924 23.92706624 21.75 33.875 C22.40484375 34.59429688 23.0596875 35.31359375 23.734375 36.0546875 C28.71907469 40.33465379 33.30724251 41.44228477 39.74243164 41.38095093 C40.50286553 41.3856309 41.26329943 41.39031087 42.04677677 41.39513266 C44.58474944 41.40706074 47.12217995 41.39763419 49.66015625 41.38818359 C51.48379836 41.39225027 53.30743801 41.39759269 55.131073 41.40411377 C60.07730535 41.41778171 65.02334982 41.41249084 69.96958542 41.40297651 C75.14777886 41.39537724 80.32595631 41.40242627 85.50415039 41.40713501 C94.19973639 41.41259177 102.89524593 41.405403 111.59082031 41.39111328 C121.64173923 41.37478694 131.69247559 41.3800755 141.74339008 41.3965925 C150.37539641 41.41020959 159.00734779 41.41212592 167.63936138 41.40427649 C172.79379455 41.39960122 177.94814193 41.39897116 183.10256958 41.40888596 C187.94861516 41.41755656 192.79442552 41.41153191 197.64044571 41.39420319 C199.41818985 41.39023886 201.1959538 41.39137147 202.97369003 41.39799118 C205.40191607 41.40619897 207.82939012 41.39589477 210.25756836 41.38095093 C210.95971498 41.38764309 211.66186159 41.39433526 212.38528538 41.40123022 C217.74277765 41.33735386 221.62008123 39.90808302 225.79296875 36.5625 C234.53325731 26.7694596 233.9651035 12.43093323 235 0 C239.62 0 244.24 0 249 0 C247.89295124 29.73762016 236.91425449 57.61463676 214.9765625 78.3046875 C183.50045232 105.30198358 147.91991893 114.4923257 107 112 C75.78348241 109.06855981 44.61765695 92.35416232 24.59863281 68.31738281 C13.55246436 54.62434486 6.60436221 39.90751631 2 23 C1.75378906 22.17113281 1.50757813 21.34226562 1.25390625 20.48828125 C-0.55381781 13.74360044 -0.13471417 6.93777969 0 0 Z " fill="#E7393B" transform="translate(1286,1135)"/>
<path d="M0 0 C72.93 0 145.86 0 221 0 C221 28.05382321 221 28.05382321 212.625 36.9375 C207.79088205 41.60606597 202.92187399 42.29656768 196.39128113 42.27415466 C195.63311279 42.27939134 194.87494445 42.28462802 194.09380132 42.29002339 C191.55751639 42.3050052 189.02143353 42.30572813 186.48510742 42.30639648 C184.66485759 42.31401919 182.84461097 42.32244688 181.02436829 42.33161926 C176.08212985 42.35356006 171.13995329 42.3623626 166.19767165 42.36744571 C163.10886321 42.37108975 160.02007096 42.37733006 156.93126869 42.3844471 C146.1523327 42.40894006 135.37344482 42.42199318 124.59448242 42.42553711 C114.55207404 42.42917234 104.50997129 42.45906728 94.46765631 42.50094169 C85.84158888 42.5356478 77.21562272 42.55108561 68.58948594 42.55178314 C63.43934803 42.55257584 58.28952148 42.56131129 53.1394558 42.58978081 C48.29414791 42.61596686 43.44940942 42.6181636 38.60406303 42.60212517 C36.82875578 42.60031112 35.05341573 42.60699747 33.27817917 42.62294388 C16.77596858 42.76210589 16.77596858 42.76210589 10 37 C8.90751953 36.17048828 8.90751953 36.17048828 7.79296875 35.32421875 C-1.24390673 26.11144302 0 11.92759388 0 0 Z " fill="#FEFEFE" transform="translate(1300,1135)"/>
<path d="M0 0 C3.52879615 3.00252357 7.02912029 6.03466871 10.48828125 9.1171875 C8.48828125 10.1171875 8.48828125 10.1171875 6.39477539 9.53149414 C5.52973389 9.20012451 4.66469238 8.86875488 3.7734375 8.52734375 C2.30015991 7.97481934 2.30015991 7.97481934 0.79711914 7.41113281 C-0.27417236 7.00475586 -1.34546387 6.59837891 -2.44921875 6.1796875 C-30.90974587 -4.29678211 -60.08345545 -12.40464364 -90.51171875 -13.8828125 C-91.49736816 -13.9334082 -92.48301758 -13.98400391 -93.49853516 -14.03613281 C-123.38341907 -15.32080851 -154.25062372 -11.98396791 -183.7421875 -7.22802734 C-186.72343944 -6.85642207 -189.51171812 -6.68456871 -192.51171875 -6.8828125 C-196.59707748 -11.45944855 -195.93253236 -16.61406544 -195.8046875 -22.421875 C-195.38622942 -27.36525973 -194.3737471 -31.32824027 -191.3984375 -35.41015625 C-188.48697691 -37.68266276 -185.10325049 -38.61914019 -181.63671875 -39.7578125 C-180.08794149 -40.28208448 -178.53976802 -40.80814337 -176.9921875 -41.3359375 C-175.8462915 -41.72555664 -175.8462915 -41.72555664 -174.67724609 -42.12304688 C-171.72902811 -43.15741602 -168.84322279 -44.33132905 -165.94921875 -45.5078125 C-108.73389927 -67.79016054 -43.95613555 -36.59755286 0 0 Z " fill="#E94F1C" transform="translate(1723.51171875,667.8828125)"/>
<path d="M0 0 C4.62 0 9.24 0 14 0 C14.12117188 1.33933594 14.24234375 2.67867187 14.3671875 4.05859375 C14.53616102 5.85159054 14.70544865 7.64455776 14.875 9.4375 C14.95363281 10.31599609 15.03226563 11.19449219 15.11328125 12.09960938 C15.97527924 23.92706624 15.97527924 23.92706624 21.75 33.875 C22.40484375 34.59429688 23.0596875 35.31359375 23.734375 36.0546875 C28.71907469 40.33465379 33.30724251 41.44228477 39.74243164 41.38095093 C40.50286553 41.3856309 41.26329943 41.39031087 42.04677677 41.39513266 C44.58474944 41.40706074 47.12217995 41.39763419 49.66015625 41.38818359 C51.48379836 41.39225027 53.30743801 41.39759269 55.131073 41.40411377 C60.07730535 41.41778171 65.02334982 41.41249084 69.96958542 41.40297651 C75.14777886 41.39537724 80.32595631 41.40242627 85.50415039 41.40713501 C94.19973639 41.41259177 102.89524593 41.405403 111.59082031 41.39111328 C121.64173923 41.37478694 131.69247559 41.3800755 141.74339008 41.3965925 C150.37539641 41.41020959 159.00734779 41.41212592 167.63936138 41.40427649 C172.79379455 41.39960122 177.94814193 41.39897116 183.10256958 41.40888596 C187.94861516 41.41755656 192.79442552 41.41153191 197.64044571 41.39420319 C199.41818985 41.39023886 201.1959538 41.39137147 202.97369003 41.39799118 C205.40191607 41.40619897 207.82939012 41.39589477 210.25756836 41.38095093 C210.95971498 41.38764309 211.66186159 41.39433526 212.38528538 41.40123022 C217.74277765 41.33735386 221.62008123 39.90808302 225.79296875 36.5625 C234.53325731 26.7694596 233.9651035 12.43093323 235 0 C239.62 0 244.24 0 249 0 C248.06150975 25.20978989 240.72018147 50.25995197 223 69 C219.89027953 70.55486024 217.68873363 69.27375591 214.375 68.375 C195.67749225 63.51864432 177.03145141 60.16673273 157.80078125 58.28222656 C156.09821701 58.11066413 154.39696844 57.92398117 152.69921875 57.70996094 C114.26139878 53.06344804 68.7192801 56.3439739 32 69 C29.0625 69.625 29.0625 69.625 26 69 C10.70256429 57.06504412 3.06794043 32.1958086 0 14 C-0.44545198 9.29643201 -0.25671646 4.7235828 0 0 Z " fill="#BF0F2C" transform="translate(1286,1135)"/>
<path d="M0 0 C10.6039709 7.04245484 16.06423617 15.3259053 19.80859375 27.44140625 C22.09790272 39.37356207 19.26701482 50.33292638 12.5703125 60.26953125 C8.46755637 65.54233264 3.99039197 69.17612472 -1.8046875 72.45703125 C-2.53945312 72.89015625 -3.27421875 73.32328125 -4.03125 73.76953125 C-12.59075287 78.00516153 -23.68568147 77.84452561 -32.87109375 75.76171875 C-35.34481637 74.84036353 -37.52393737 73.7826658 -39.8046875 72.45703125 C-40.96871094 71.80347656 -40.96871094 71.80347656 -42.15625 71.13671875 C-51.7174249 65.28489598 -57.03542611 57.51864779 -61.0546875 47.26953125 C-62.15631699 41.66958132 -61.95864918 36.14505999 -61.8046875 30.45703125 C-61.04027344 30.76382813 -60.27585937 31.070625 -59.48828125 31.38671875 C-51.33075505 34.76632907 -51.33075505 34.76632907 -42.7890625 33.734375 C-36.88479005 31.03371705 -33.41568558 27.44241244 -30.8046875 21.45703125 C-29.76428657 14.91218351 -31.25744222 10.88875058 -34.8046875 5.45703125 C-34.8046875 4.79703125 -34.8046875 4.13703125 -34.8046875 3.45703125 C-36.4546875 2.79703125 -38.1046875 2.13703125 -39.8046875 1.45703125 C-39.4746875 0.46703125 -39.1446875 -0.52296875 -38.8046875 -1.54296875 C-25.62053425 -7.48876335 -12.68836597 -6.98036847 0 0 Z " fill="#432927" transform="translate(1644.8046875,788.54296875)"/>
<path d="M0 0 C7.46484591 -0.37204216 13.87820074 1.73759272 20.8671875 4.19140625 C20.8671875 5.18140625 20.8671875 6.17140625 20.8671875 7.19140625 C20.1040625 7.78953125 19.3409375 8.38765625 18.5546875 9.00390625 C14.84651082 12.0221896 13.20494885 14.7364579 12.546875 19.51953125 C12.27089913 25.51740677 13.20422084 30.3410559 16.8671875 35.19140625 C21.741884 39.07126673 25.56199429 40.47162785 31.80859375 40.42578125 C34.86065574 40.07829791 37.19769325 38.64749402 39.8671875 37.19140625 C41.1871875 37.19140625 42.5071875 37.19140625 43.8671875 37.19140625 C44.64977483 48.73456936 41.1487729 59.21724894 33.8671875 68.19140625 C33.36574219 68.81660156 32.86429688 69.44179688 32.34765625 70.0859375 C25.97817761 77.19929685 16.60971074 81.82727536 7.109375 82.4296875 C-1.40054554 82.64614057 -8.55372398 82.52616025 -16.1328125 78.19140625 C-17.29876953 77.53785156 -17.29876953 77.53785156 -18.48828125 76.87109375 C-27.72825683 71.2063851 -34.65159023 62.83171457 -37.67700195 52.29638672 C-40.19027861 40.68981394 -38.50755968 29.35098121 -32.40234375 19.359375 C-25.79772718 9.51177305 -16.70237612 3.37937994 -5.1953125 0.44140625 C-3.46306459 0.29999826 -1.73105319 0.15535093 0 0 Z " fill="#432927" transform="translate(1211.1328125,782.80859375)"/>
<path d="M0 0 C-0.75023437 0.3403125 -1.50046875 0.680625 -2.2734375 1.03125 C-20.74058841 9.77639955 -31.19472426 23.02052966 -38.13671875 42.12890625 C-41.07460544 55.30286874 -40.73015624 71.6555091 -35 84 C-34.27103516 85.62035156 -34.27103516 85.62035156 -33.52734375 87.2734375 C-29.4992009 95.44399675 -24.37580804 101.59853479 -18 108 C-18.99 108.495 -18.99 108.495 -20 109 C-29.68275444 105.18558158 -38.02558753 99.62544749 -46 93 C-46.98226563 92.18982422 -46.98226563 92.18982422 -47.984375 91.36328125 C-57.22741936 82.94702297 -65.25549909 69.61370242 -66.3359375 57.11328125 C-66.81364196 44.63711056 -64.03754781 35.3031097 -57 25 C-56.59394531 24.38382813 -56.18789062 23.76765625 -55.76953125 23.1328125 C-44.57268236 8.18071275 -23.30777391 2.56005288 -5.97607422 -0.84155273 C-3.76728552 -1.01865971 -2.10736376 -0.64599507 0 0 Z " fill="#FCFCFB" transform="translate(1187,754)"/>
<path d="M0 0 C19.83894985 2.22409752 40.30921082 7.88864195 54.40625 22.953125 C63.05278421 34.05798756 66.62905247 45.98707424 66 60 C63.33656639 75.71614726 51.85639068 89.91086328 39.3046875 99.26318359 C35.67164672 101.76089913 31.88157227 103.91708559 28 106 C27.0203125 106.53753906 26.040625 107.07507813 25.03125 107.62890625 C20.15548863 110.19988962 20.15548863 110.19988962 18 111 C17.34 110.67 16.68 110.34 16 110 C16.6290625 109.44054687 17.258125 108.88109375 17.90625 108.3046875 C30.20115587 96.78747146 38.40388803 81.62235465 39.26171875 64.625 C39.87280525 45.62330383 34.4654626 29.1624935 21.34082031 15.11694336 C15.23051995 8.92843949 7.85571539 4.60938275 0 1 C0 0.67 0 0.34 0 0 Z " fill="#FDFCFC" transform="translate(1651,753)"/>
<path d="M0 0 C5.03770327 1.41950597 8.9052027 3.59780058 13.1875 6.5 C13.84169922 6.94214844 14.49589844 7.38429688 15.16992188 7.83984375 C27.91255717 16.6338814 39.44477476 27.3477746 43 43 C43.8945017 51.97586188 38.88816794 60.54476042 33.42578125 67.3046875 C22.46081235 80.09339481 8.70998405 89.02805401 -7 95 C-7.66 94.67 -8.32 94.34 -9 94 C-8.29875 93.36835937 -7.5975 92.73671875 -6.875 92.0859375 C4.06131415 81.77370649 10.4060514 70.76158549 14 56 C14.19078125 55.2265625 14.3815625 54.453125 14.578125 53.65625 C17.78832713 33.44386623 11.24955387 16.57828992 0 0 Z " fill="#FDFCFC" transform="translate(1259,770)"/>
<path d="M0 0 C0 3.7370108 -1.08559202 4.88547584 -3.1875 7.9375 C-10.4711203 19.04760642 -13.17967368 28.6956948 -13.1875 41.75 C-13.20586914 43.33941406 -13.20586914 43.33941406 -13.22460938 44.9609375 C-13.26107625 64.55580611 -3.9004502 79.82005108 9.4375 93.5 C9.953125 93.995 10.46875 94.49 11 95 C-5.93364309 92.65082408 -22.23108604 78.3520661 -33 66 C-38.55299389 58.27699848 -42.24486023 50.66322755 -41 41 C-36.41384737 24.19279291 -21.95993128 13.11568783 -8 4 C-5.36108438 2.50140412 -2.77965795 1.2230495 0 0 Z " fill="#FDFCFB" transform="translate(1577,770)"/>
<path d="M0 0 C-1.92122768 6.51906363 -3.95461437 12.9882597 -6.109375 19.43359375 C-12.44947043 38.54826005 -18.64109396 57.57124351 -23.32177734 77.17138672 C-24.5092274 82.12379721 -25.75907644 87.0607655 -27 92 C-37.47515111 81.52484889 -39.08538299 55.25687088 -39.4375 41.1875 C-39.03588712 30.40872844 -35.61630268 21.54390099 -27.87890625 13.90625 C-20.85995032 7.91305282 -9.48551803 0 0 0 Z " fill="#E74E1C" transform="translate(1085,731)"/>
<path d="M0 0 C1.21539658 3.64618974 0.65987257 4.45879268 -0.75 7.9375 C-3.97224673 16.36662986 -6.27352816 24.99174913 -7 34 C-7.07605469 34.825 -7.15210938 35.65 -7.23046875 36.5 C-7.46326222 40.72803279 -7.5647252 43.9661172 -4.9375 47.4375 C6.90182499 57.7654218 27.94432183 54.72753802 42.52441406 53.84765625 C49.69026239 53.19712069 56.28735899 51.54617418 63 49 C59.2934998 57.33962545 51.1083985 63.27541045 43 67 C35.73892128 69.77522016 28.98901877 70.54756844 21.25 70.5 C20.16960449 70.49500488 19.08920898 70.49000977 17.97607422 70.48486328 C4.73900838 70.20453985 -14.74562562 68.62938994 -25 59 C-27.97762479 49.90214376 -19.63241873 37.87819417 -15.52148438 29.73046875 C-15.03748169 28.77793213 -15.03748169 28.77793213 -14.54370117 27.80615234 C-13.561264 25.87256737 -12.58751988 23.93480025 -11.61523438 21.99609375 C-7.88636705 14.58497435 -4.03046264 7.25238834 0 0 Z " fill="#DB9D72" transform="translate(1377,951)"/>
<path d="M0 0 C5.04318528 2.95279435 8.83995708 6.38315248 10.7265625 12.04296875 C11.42422455 19.22545675 11.12192454 24.22208389 6.7265625 30.04296875 C2.41865615 34.12995682 -1.1905485 35.83809442 -7.0859375 36.41796875 C-11.78318546 36.26730231 -15.49415352 34.82090399 -19.2734375 32.04296875 C-24.1301807 26.75344645 -25.71342865 21.8138619 -25.609375 14.67578125 C-24.94039073 9.43281149 -22.35237499 5.93752154 -18.51171875 2.4375 C-12.84768467 -1.66404192 -6.54774453 -2.75635294 0 0 Z " fill="#FCFBFB" transform="translate(1248.2734375,787.95703125)"/>
<path d="M0 0 C5.33730043 2.88832569 7.99908555 6.31282221 9.875 12.0625 C10.91168848 17.15091265 10.30357163 20.89030578 7.6875 25.375 C4.39550412 30.03943359 0.51828522 33.68303028 -5.125 35.0625 C-11.49180399 35.15864301 -16.16820162 34.31118433 -21.125 30.0625 C-24.98908329 25.87640977 -26.91073861 22.37652305 -27.4375 16.6875 C-26.96866564 11.24902141 -25.32437593 7.52840392 -21.875 3.3125 C-14.88533899 -2.40631356 -8.24640106 -3.53068134 0 0 Z " fill="#FCFBFB" transform="translate(1605.125,788.9375)"/>
<path d="M0 0 C3.96 1.98 3.96 1.98 8 4 C8 4.33 8 4.66 8 5 C5.69 5 3.38 5 1 5 C1 57.14 1 109.28 1 163 C0.67 163 0.34 163 0 163 C0 109.21 0 55.42 0 0 Z " fill="#D19D86" transform="translate(1282,1367)"/>
<path d="M0 0 C1.8125 1.25 1.8125 1.25 3 3 C3.42317323 5.82115488 3.38718434 7.33950907 1.9375 9.8125 C-1.08503156 11.66501934 -3.54932719 11.37643703 -7 11 C-9.31361802 7.52957297 -9.51020728 6.08165827 -9 2 C-6.13326387 -1.29143778 -4.01983549 -1.44301787 0 0 Z " fill="#F8F6F6" transform="translate(1232,772)"/>
<path d="M0 0 C1.875 1.1875 1.875 1.1875 3 3 C2.77669287 6.64734979 2.61627165 8.38372835 0 11 C-3.5 11.25 -3.5 11.25 -7 11 C-9 9 -9 9 -9.375 5.5625 C-9 2 -9 2 -7.3125 0 C-4.35711914 -1.27800253 -3.01001617 -1.08051862 0 0 Z " fill="#F8F6F6" transform="translate(1612,772)"/>
<path d="M0 0 C3.96 1.98 3.96 1.98 8 4 C8 4.33 8 4.66 8 5 C5.69 5 3.38 5 1 5 C1 23.48 1 41.96 1 61 C0.67 61 0.34 61 0 61 C0 40.87 0 20.74 0 0 Z " fill="#F5A36E" transform="translate(1282,1367)"/>
<path d="M0 0 C3.96 1.98 3.96 1.98 8 4 C8 4.33 8 4.66 8 5 C5.36 5 2.72 5 0 5 C0 3.35 0 1.7 0 0 Z " fill="#DD9F73" transform="translate(1282,1367)"/>
</svg>
