<svg width="20" height="20" viewBox="0 0 20 20" fill="none" xmlns="http://www.w3.org/2000/svg">
<path opacity="0.4" d="M17.5 18.3335H2.5C2.15833 18.3335 1.875 18.0502 1.875 17.7085C1.875 17.3668 2.15833 17.0835 2.5 17.0835H17.5C17.8417 17.0835 18.125 17.3668 18.125 17.7085C18.125 18.0502 17.8417 18.3335 17.5 18.3335Z" fill="#4AAAD6"/>
<path opacity="0.4" d="M15.8495 2.90005C14.2328 1.28338 12.6495 1.24172 10.9912 2.90005L9.98283 3.90838C9.89949 3.99172 9.86616 4.12505 9.89949 4.24172C10.5328 6.45005 12.2995 8.21672 14.5078 8.85005C14.5412 8.85838 14.5745 8.86672 14.6078 8.86672C14.6995 8.86672 14.7828 8.83338 14.8495 8.76672L15.8495 7.75838C16.6745 6.94172 17.0745 6.15005 17.0745 5.35005C17.0828 4.52505 16.6828 3.72505 15.8495 2.90005Z" fill="#4AAAD6"/>
<path d="M13.0089 9.60817C12.7673 9.4915 12.5339 9.37484 12.3089 9.2415C12.1256 9.13317 11.9506 9.0165 11.7756 8.8915C11.6339 8.79984 11.4673 8.6665 11.3089 8.53317C11.2923 8.52484 11.2339 8.47484 11.1673 8.40817C10.8923 8.17484 10.5839 7.87484 10.3089 7.5415C10.2839 7.52484 10.2423 7.4665 10.1839 7.3915C10.1006 7.2915 9.95892 7.12484 9.83392 6.93317C9.73392 6.80817 9.61726 6.62484 9.50892 6.4415C9.37559 6.2165 9.25892 5.9915 9.14226 5.75817C9.02559 5.50817 8.93392 5.2665 8.85059 5.0415L3.61726 10.2748C3.50892 10.3832 3.40892 10.5915 3.38392 10.7332L2.93392 13.9248C2.85059 14.4915 3.00892 15.0248 3.35892 15.3832C3.65892 15.6748 4.07559 15.8332 4.52559 15.8332C4.62559 15.8332 4.72559 15.8248 4.82559 15.8082L8.02559 15.3582C8.17559 15.3332 8.38392 15.2332 8.48392 15.1248L13.7173 9.8915C13.4839 9.80817 13.2589 9.7165 13.0089 9.60817Z" fill="#4AAAD6"/>
</svg>
