<svg width="72" height="74" viewBox="0 0 72 74" fill="none" xmlns="http://www.w3.org/2000/svg">
<g filter="url(#filter0_d_165_5583)">
<path fill-rule="evenodd" clip-rule="evenodd" d="M20 33H36V63.382C36 64.1253 35.2177 64.6088 34.5528 64.2764L28 61L21.4472 64.2764C20.7823 64.6088 20 64.1253 20 63.382V33Z" fill="#7F45F6"/>
</g>
<g filter="url(#filter1_d_165_5583)">
<path fill-rule="evenodd" clip-rule="evenodd" d="M24 36H40V66.382C40 67.1253 39.2177 67.6088 38.5528 67.2764L32 64L25.4472 67.2764C24.7823 67.6088 24 67.1253 24 66.382V36Z" fill="#50E2C2"/>
</g>
<g filter="url(#filter2_d_165_5583)">
<path fill-rule="evenodd" clip-rule="evenodd" d="M36 33H52V63.382C52 64.1253 51.2177 64.6088 50.5528 64.2764L44 61L37.4472 64.2764C36.7823 64.6088 36 64.1253 36 63.382V33Z" fill="#7F45F6"/>
</g>
<g filter="url(#filter3_d_165_5583)">
<path fill-rule="evenodd" clip-rule="evenodd" d="M32 36H48V66.382C48 67.1253 47.2177 67.6088 46.5528 67.2764L40 64L33.4472 67.2764C32.7823 67.6088 32 67.1253 32 66.382V36Z" fill="#50E2C2"/>
</g>
<g filter="url(#filter4_d_165_5583)">
<path fill-rule="evenodd" clip-rule="evenodd" d="M28 38H44V68.382C44 69.1253 43.2177 69.6088 42.5528 69.2764L36 66L29.4472 69.2764C28.7823 69.6088 28 69.1253 28 68.382V38Z" fill="white"/>
</g>
<mask id="mask0_165_5583" style="mask-type:luminance" maskUnits="userSpaceOnUse" x="28" y="38" width="16" height="32">
<path fill-rule="evenodd" clip-rule="evenodd" d="M28 38H44V68.382C44 69.1253 43.2177 69.6088 42.5528 69.2764L36 66L29.4472 69.2764C28.7823 69.6088 28 69.1253 28 68.382V38Z" fill="white"/>
</mask>
<g mask="url(#mask0_165_5583)">
<rect x="32" y="38" width="8" height="32" fill="#F55462"/>
</g>
<path style="mix-blend-mode:multiply" opacity="0.1" fill-rule="evenodd" clip-rule="evenodd" d="M34.0001 17.656C35.2377 16.9415 36.7625 16.9415 38.0001 17.656L53.9187 26.8466C55.1563 27.5611 55.9187 28.8817 55.9187 30.3107V48.6919C55.9187 50.121 55.1563 51.4415 53.9187 52.156L38.0001 61.3466C36.7625 62.0611 35.2377 62.0611 34.0001 61.3466L18.0815 52.156C16.8439 51.4415 16.0815 50.121 16.0815 48.6919L16.0815 30.3107C16.0815 28.8817 16.8439 27.5611 18.0815 26.8466L34.0001 17.656Z" fill="black"/>
<path fill-rule="evenodd" clip-rule="evenodd" d="M24.8162 39.1235L19.8162 37.1235V36.1235L14.8064 34.0361C14.3733 33.8556 13.91 34.2197 13.9829 34.6831L14.6843 39.1425C14.7371 39.4783 14.9569 39.7643 15.2678 39.9017L24.8162 44.1235V39.1235Z" fill="url(#paint0_linear_165_5583)" stroke="url(#paint1_linear_165_5583)" stroke-linecap="round" stroke-linejoin="round"/>
<path fill-rule="evenodd" clip-rule="evenodd" d="M22.8162 34.1235L17.8162 32.1235V31.1235L12.8064 29.0361C12.3733 28.8556 11.91 29.2197 11.9829 29.6831L12.6843 34.1425C12.7371 34.4783 12.9569 34.7643 13.2678 34.9017L22.8162 39.1235V34.1235Z" fill="url(#paint2_linear_165_5583)" stroke="url(#paint3_linear_165_5583)" stroke-linecap="round" stroke-linejoin="round"/>
<path fill-rule="evenodd" clip-rule="evenodd" d="M20.8162 29.1235L15.8162 27.1235V26.1235L10.8064 24.0361C10.3733 23.8556 9.90998 24.2197 9.98287 24.6831L10.6843 29.1425C10.7371 29.4783 10.9569 29.7643 11.2678 29.9017L20.8162 34.1235V29.1235Z" fill="url(#paint4_linear_165_5583)" stroke="url(#paint5_linear_165_5583)" stroke-linecap="round" stroke-linejoin="round"/>
<path fill-rule="evenodd" clip-rule="evenodd" d="M18.8164 24.1235L13.8164 22.1235V21.1235L8.80656 19.0361C8.37348 18.8557 7.91018 19.2197 7.98308 19.6832L8.68449 24.1426C8.7373 24.4783 8.95708 24.7643 9.26796 24.9018L18.8164 29.1235V24.1235Z" fill="url(#paint6_linear_165_5583)" stroke="url(#paint7_linear_165_5583)" stroke-linecap="round" stroke-linejoin="round"/>
<mask id="mask1_165_5583" style="mask-type:luminance" maskUnits="userSpaceOnUse" x="7" y="18" width="19" height="26">
<path fill-rule="evenodd" clip-rule="evenodd" d="M10.2101 26.1279C10.1248 25.5856 9.76987 25.1237 9.26776 24.9017V24.9017C8.95688 24.7643 8.7371 24.4783 8.68429 24.1425L7.98287 19.6831C7.96565 19.5736 7.9791 19.4615 8.02174 19.3591C8.14919 19.0533 8.50047 18.9086 8.80636 19.0361L13.3582 20.9327C13.6356 21.0482 13.8162 21.3192 13.8162 21.6196V21.6196C13.8162 21.9239 14.0015 22.1976 14.284 22.3106L17.559 23.6206C18.3183 23.9243 18.8162 24.6598 18.8162 25.4776V27.2465C18.8162 27.897 19.2122 28.4819 19.8162 28.7235V28.7235C20.4202 28.9651 20.8162 29.55 20.8162 30.2005V32.2465C20.8162 32.897 21.2122 33.4819 21.8162 33.7235V33.7235C22.4202 33.9651 22.8162 34.55 22.8162 35.2005V37.2465C22.8162 37.897 23.2122 38.4819 23.8162 38.7235V38.7235C24.4202 38.9651 24.8162 39.55 24.8162 40.2005V41.0524C24.8162 42.4981 23.3296 43.4662 22.0074 42.8816L15.2678 39.9017C14.9569 39.7643 14.7371 39.4783 14.6843 39.1425L14.2101 36.1279C14.1248 35.5856 13.7699 35.1237 13.2678 34.9017V34.9017C12.9569 34.7643 12.7371 34.4783 12.6843 34.1425L12.2101 31.1279C12.1248 30.5856 11.7699 30.1237 11.2678 29.9017V29.9017C10.9569 29.7643 10.7371 29.4783 10.6843 29.1425L10.2101 26.1279Z" fill="white" stroke="white"/>
</mask>
<g mask="url(#mask1_165_5583)">
<g opacity="0.1">
<path fill-rule="evenodd" clip-rule="evenodd" d="M32.9983 12.6766C34.8547 11.6048 37.1419 11.6048 38.9983 12.6766L54.6968 21.7402C56.5533 22.8119 57.6968 24.7927 57.6968 26.9363V45.0634C57.6968 47.207 56.5533 49.1878 54.6968 50.2596L38.9983 59.3231C37.1419 60.3949 34.8547 60.3949 32.9983 59.3231L17.2998 50.2596C15.4434 49.1878 14.2998 47.207 14.2998 45.0634L14.2998 26.9363C14.2998 24.7927 15.4434 22.8119 17.2998 21.7402L32.9983 12.6766Z" fill="black" style="mix-blend-mode:multiply"/>
</g>
</g>
<path fill-rule="evenodd" clip-rule="evenodd" d="M47.1833 39.1235L52.1833 37.1235V36.1235L57.1932 34.0361C57.6262 33.8556 58.0895 34.2197 58.0166 34.6831L57.3152 39.1425C57.2624 39.4783 57.0426 39.7643 56.7318 39.9017L47.1833 44.1235V39.1235Z" fill="url(#paint8_linear_165_5583)" stroke="url(#paint9_linear_165_5583)" stroke-linecap="round" stroke-linejoin="round"/>
<path fill-rule="evenodd" clip-rule="evenodd" d="M49.1833 34.1235L54.1833 32.1235V31.1235L59.1932 29.0361C59.6262 28.8556 60.0895 29.2197 60.0166 29.6831L59.3152 34.1425C59.2624 34.4783 59.0426 34.7643 58.7318 34.9017L49.1833 39.1235V34.1235Z" fill="url(#paint10_linear_165_5583)" stroke="url(#paint11_linear_165_5583)" stroke-linecap="round" stroke-linejoin="round"/>
<path fill-rule="evenodd" clip-rule="evenodd" d="M51.1833 29.1235L56.1833 27.1235V26.1235L61.1932 24.0361C61.6262 23.8556 62.0895 24.2197 62.0166 24.6831L61.3152 29.1425C61.2624 29.4783 61.0426 29.7643 60.7318 29.9017L51.1833 34.1235V29.1235Z" fill="url(#paint12_linear_165_5583)" stroke="url(#paint13_linear_165_5583)" stroke-linecap="round" stroke-linejoin="round"/>
<path fill-rule="evenodd" clip-rule="evenodd" d="M53.1833 24.1235L58.1833 22.1235V21.1235L63.1932 19.0361C63.6262 18.8556 64.0895 19.2197 64.0166 19.6831L63.3152 24.1425C63.2624 24.4783 63.0426 24.7643 62.7318 24.9017L53.1833 29.1235V24.1235Z" fill="url(#paint14_linear_165_5583)" stroke="url(#paint15_linear_165_5583)" stroke-linecap="round" stroke-linejoin="round"/>
<mask id="mask2_165_5583" style="mask-type:luminance" maskUnits="userSpaceOnUse" x="46" y="18" width="19" height="26">
<path fill-rule="evenodd" clip-rule="evenodd" d="M61.7894 26.1279C61.8747 25.5856 62.2296 25.1237 62.7318 24.9017V24.9017C63.0426 24.7643 63.2624 24.4783 63.3152 24.1425L64.0166 19.6831C64.0339 19.5736 64.0204 19.4615 63.9778 19.3591C63.8503 19.0533 63.499 18.9086 63.1932 19.0361L58.6413 20.9327C58.364 21.0482 58.1833 21.3192 58.1833 21.6196V21.6196C58.1833 21.9239 57.998 22.1976 57.7155 22.3106L54.4405 23.6206C53.6812 23.9243 53.1833 24.6598 53.1833 25.4776V27.2465C53.1833 27.897 52.7873 28.4819 52.1833 28.7235V28.7235C51.5793 28.9651 51.1833 29.55 51.1833 30.2005V32.2465C51.1833 32.897 50.7873 33.4819 50.1833 33.7235V33.7235C49.5793 33.9651 49.1833 34.55 49.1833 35.2005V37.2465C49.1833 37.897 48.7873 38.4819 48.1833 38.7235V38.7235C47.5793 38.9651 47.1833 39.55 47.1833 40.2005V41.0524C47.1833 42.4981 48.6699 43.4662 49.9921 42.8816L56.7318 39.9017C57.0426 39.7643 57.2624 39.4783 57.3152 39.1425L57.7894 36.1279C57.8747 35.5856 58.2296 35.1237 58.7318 34.9017V34.9017C59.0426 34.7643 59.2624 34.4783 59.3152 34.1425L59.7894 31.1279C59.8747 30.5856 60.2296 30.1237 60.7318 29.9017V29.9017C61.0426 29.7643 61.2624 29.4783 61.3152 29.1425L61.7894 26.1279Z" fill="white" stroke="white"/>
</mask>
<g mask="url(#mask2_165_5583)">
<g opacity="0.1">
<path fill-rule="evenodd" clip-rule="evenodd" d="M38.9983 12.6766C37.1418 11.6048 34.8547 11.6048 32.9983 12.6766L17.2997 21.7402C15.4433 22.8119 14.2997 24.7927 14.2997 26.9363V45.0634C14.2997 47.207 15.4433 49.1878 17.2997 50.2596L32.9983 59.3231C34.8547 60.3949 37.1418 60.3949 38.9983 59.3231L54.6968 50.2596C56.5532 49.1878 57.6968 47.207 57.6968 45.0634L57.6968 26.9363C57.6968 24.7927 56.5532 22.8119 54.6968 21.7402L38.9983 12.6766Z" fill="black" style="mix-blend-mode:multiply"/>
</g>
</g>
<path fill-rule="evenodd" clip-rule="evenodd" d="M17.9999 42L14.4739 43.763C14.1774 43.9112 13.9737 44.1967 13.9298 44.5253L13.1601 50.2982C13.0945 50.7906 13.6213 51.1449 14.0525 50.8985L19.9999 47.5L17.9999 42Z" fill="url(#paint16_linear_165_5583)" stroke="url(#paint17_linear_165_5583)" stroke-linecap="round" stroke-linejoin="round"/>
<path fill-rule="evenodd" clip-rule="evenodd" d="M54 42L57.526 43.763C57.8225 43.9112 58.0262 44.1967 58.07 44.5253L58.8398 50.2982C58.9054 50.7906 58.3786 51.1449 57.9473 50.8985L52 47.5L54 42Z" fill="url(#paint18_linear_165_5583)" stroke="url(#paint19_linear_165_5583)" stroke-linecap="round" stroke-linejoin="round"/>
<path d="M43.9846 16.9873H28.0152C27.5006 16.9873 27.3216 16.3037 27.7702 16.0515L35.7667 11.5557C35.919 11.4701 36.105 11.4702 36.2573 11.556L44.2302 16.0518C44.6782 16.3044 44.4989 16.9873 43.9846 16.9873Z" fill="url(#paint20_linear_165_5583)" stroke="url(#paint21_linear_165_5583)" stroke-linecap="round" stroke-linejoin="round"/>
<g filter="url(#filter5_i_165_5583)">
<path fill-rule="evenodd" clip-rule="evenodd" d="M54 50.0304C54 50.3877 53.8094 50.7178 53.5 50.8965L39 59.268C37.1436 60.3398 34.8564 60.3398 33 59.268L18.5 50.8965C18.1906 50.7178 18 50.3877 18 50.0304V46.1291C18 45.3582 18.8353 44.8772 19.502 45.2642L33.1888 53.2084C34.9271 54.2174 37.0729 54.2174 38.8112 53.2084L52.498 45.2642C53.1647 44.8772 54 45.3582 54 46.1291V50.0304Z" fill="url(#paint22_linear_165_5583)"/>
</g>
<path d="M53.25 50.4635L38.75 58.835C37.0483 59.8175 34.9517 59.8175 33.25 58.835L18.75 50.4635C18.5953 50.3741 18.5 50.2091 18.5 50.0304V46.1291C18.5 45.7437 18.9177 45.5032 19.251 45.6966L32.9378 53.6409C34.8314 54.7399 37.1686 54.7399 39.0622 53.6409L52.749 45.6966C53.0823 45.5032 53.5 45.7437 53.5 46.1291V50.0304C53.5 50.2091 53.4047 50.3741 53.25 50.4635Z" stroke="url(#paint23_linear_165_5583)" stroke-linecap="round" stroke-linejoin="round"/>
<mask id="path-26-inside-1_165_5583" fill="white">
<path fill-rule="evenodd" clip-rule="evenodd" d="M32.0025 14.7365C32.0025 14.7379 32.0025 14.7394 32.0025 14.7408V18.4647C32.0025 18.5587 31.9893 18.651 31.9641 18.7392C31.911 18.9255 31.8044 19.0935 31.6562 19.2215C31.625 19.2485 31.5919 19.2736 31.5572 19.2968L31.5572 19.2968L24.1605 24.2268L21.5546 25.9637C20.8901 26.4067 20 25.9303 20 25.1316V20.5744C20 20.2187 20.1889 19.8897 20.4962 19.7105L27.638 15.5454L30.1705 11.7474C30.7194 10.9242 32.0025 11.3128 32.0025 12.3021V14.7365Z"/>
</mask>
<path fill-rule="evenodd" clip-rule="evenodd" d="M32.0025 14.7365C32.0025 14.7379 32.0025 14.7394 32.0025 14.7408V18.4647C32.0025 18.5587 31.9893 18.651 31.9641 18.7392C31.911 18.9255 31.8044 19.0935 31.6562 19.2215C31.625 19.2485 31.5919 19.2736 31.5572 19.2968L31.5572 19.2968L24.1605 24.2268L21.5546 25.9637C20.8901 26.4067 20 25.9303 20 25.1316V20.5744C20 20.2187 20.1889 19.8897 20.4962 19.7105L27.638 15.5454L30.1705 11.7474C30.7194 10.9242 32.0025 11.3128 32.0025 12.3021V14.7365Z" fill="url(#paint24_linear_165_5583)"/>
<path d="M32.0025 14.7365L31.0025 14.7365L31.0025 14.7405L32.0025 14.7365ZM31.9641 18.7392L31.0026 18.4646L31.0026 18.4646L31.9641 18.7392ZM31.6562 19.2215L32.3097 19.9784L32.3097 19.9784L31.6562 19.2215ZM31.5572 19.2968L31.958 20.213C32.0116 20.1895 32.0631 20.1614 32.1118 20.1289L31.5572 19.2968ZM31.5572 19.2968L31.1563 18.3806C31.1027 18.4041 31.0512 18.4322 31.0025 18.4647L31.5572 19.2968ZM24.1605 24.2268L23.6059 23.3947L23.6059 23.3947L24.1605 24.2268ZM21.5546 25.9637L22.1092 26.7959L22.1092 26.7958L21.5546 25.9637ZM20.4962 19.7105L19.9924 18.8467L19.9924 18.8467L20.4962 19.7105ZM27.638 15.5454L28.1418 16.4092C28.2733 16.3325 28.3855 16.2268 28.47 16.1002L27.638 15.5454ZM30.1705 11.7474L31.0025 12.3021L31.0025 12.3021L30.1705 11.7474ZM31.0025 14.7405C31.0025 14.7406 31.0025 14.7407 31.0025 14.7408H33.0025C33.0025 14.738 33.0025 14.7353 33.0025 14.7325L31.0025 14.7405ZM31.0025 14.7408V18.4647H33.0025V14.7408H31.0025ZM31.0025 18.4647L31.0026 18.4646L32.9257 19.0138C32.9761 18.8373 33.0025 18.6526 33.0025 18.4647H31.0025ZM31.0026 18.4646L31.0026 18.4646L32.3097 19.9784C32.6064 19.7223 32.8194 19.3862 32.9257 19.0138L31.0026 18.4646ZM31.0026 18.4646L31.0026 18.4647L32.1118 20.1289C32.1813 20.0826 32.2473 20.0323 32.3097 19.9784L31.0026 18.4646ZM31.1563 18.3806L31.1563 18.3806L31.958 20.213L31.958 20.213L31.1563 18.3806ZM31.0025 18.4647L23.6059 23.3947L24.7151 25.059L32.1118 20.1289L31.0025 18.4647ZM23.6059 23.3947L21 25.1316L22.1092 26.7958L24.7151 25.059L23.6059 23.3947ZM21 25.1316L21 25.1316H19C19 26.7289 20.7801 27.6817 22.1092 26.7959L21 25.1316ZM21 25.1316V20.5744H19V25.1316H21ZM21 20.5744L21 20.5744L19.9924 18.8467C19.3779 19.2051 19 19.863 19 20.5744H21ZM21 20.5744L28.1418 16.4092L27.1342 14.6816L19.9924 18.8467L21 20.5744ZM28.47 16.1002L31.0025 12.3021L29.3385 11.1926L26.806 14.9906L28.47 16.1002ZM31.0025 12.3021L31.0025 12.3021H33.0025C33.0025 10.3234 30.4363 9.5463 29.3385 11.1926L31.0025 12.3021ZM31.0025 12.3021V14.7365H33.0025V12.3021H31.0025Z" fill="url(#paint25_linear_165_5583)" mask="url(#path-26-inside-1_165_5583)"/>
<mask id="path-28-inside-2_165_5583" fill="white">
<path fill-rule="evenodd" clip-rule="evenodd" d="M40 14.7365C40 14.7379 40 14.7394 40 14.7408V18.4647C40 18.7991 40.1671 19.1113 40.4454 19.2968L40.4454 19.2968L47.842 24.2268L50.4479 25.9637C51.1125 26.4067 52.0025 25.9303 52.0025 25.1316V20.5744C52.0025 20.2187 51.8136 19.8897 51.5063 19.7105L44.3646 15.5454L41.832 11.7474C41.2831 10.9242 40 11.3128 40 12.3021V14.7365Z"/>
</mask>
<path fill-rule="evenodd" clip-rule="evenodd" d="M40 14.7365C40 14.7379 40 14.7394 40 14.7408V18.4647C40 18.7991 40.1671 19.1113 40.4454 19.2968L40.4454 19.2968L47.842 24.2268L50.4479 25.9637C51.1125 26.4067 52.0025 25.9303 52.0025 25.1316V20.5744C52.0025 20.2187 51.8136 19.8897 51.5063 19.7105L44.3646 15.5454L41.832 11.7474C41.2831 10.9242 40 11.3128 40 12.3021V14.7365Z" fill="url(#paint26_linear_165_5583)"/>
<path d="M40 14.7365L41 14.7405V14.7365H40ZM40.4454 19.2968L39.8908 20.1289C39.951 20.1691 40.0154 20.2026 40.0829 20.2288L40.4454 19.2968ZM40.4454 19.2968L41 18.4647C40.9398 18.4245 40.8753 18.391 40.8078 18.3648L40.4454 19.2968ZM47.842 24.2268L48.3967 23.3947L48.3966 23.3947L47.842 24.2268ZM50.4479 25.9637L49.8933 26.7958L49.8933 26.7959L50.4479 25.9637ZM51.5063 19.7105L52.0101 18.8467L52.0101 18.8467L51.5063 19.7105ZM44.3646 15.5454L43.5326 16.1002C43.617 16.2268 43.7293 16.3325 43.8608 16.4092L44.3646 15.5454ZM41.832 11.7474L42.664 11.1926L42.664 11.1926L41.832 11.7474ZM39 14.7325C39 14.7353 39 14.738 39 14.7408H41C41 14.7407 41 14.7406 41 14.7405L39 14.7325ZM39 14.7408V18.4647H41V14.7408H39ZM39 18.4647C39 19.1335 39.3343 19.758 39.8908 20.1289L41 18.4647L41 18.4647H39ZM40.0829 20.2288L40.0829 20.2288L40.8078 18.3648L40.8078 18.3648L40.0829 20.2288ZM39.8908 20.1289L47.2874 25.059L48.3966 23.3947L41 18.4647L39.8908 20.1289ZM47.2874 25.059L49.8933 26.7958L51.0025 25.1316L48.3967 23.3947L47.2874 25.059ZM49.8933 26.7959C51.2224 27.6817 53.0025 26.7289 53.0025 25.1316H51.0025L51.0025 25.1316L49.8933 26.7959ZM53.0025 25.1316V20.5744H51.0025V25.1316H53.0025ZM53.0025 20.5744C53.0025 19.863 52.6247 19.2051 52.0101 18.8467L51.0025 20.5744L51.0025 20.5744H53.0025ZM52.0101 18.8467L44.8684 14.6816L43.8608 16.4092L51.0025 20.5744L52.0101 18.8467ZM45.1966 14.9906L42.664 11.1926L41 12.3021L43.5326 16.1002L45.1966 14.9906ZM42.664 11.1926C41.5663 9.5463 39 10.3234 39 12.3021H41L41 12.3021L42.664 11.1926ZM39 12.3021V14.7365H41V12.3021H39Z" fill="url(#paint27_linear_165_5583)" mask="url(#path-28-inside-2_165_5583)"/>
<path fill-rule="evenodd" clip-rule="evenodd" d="M34 14.1547C35.2376 13.4402 36.7624 13.4402 38 14.1547L53.9186 23.3453C55.1562 24.0598 55.9186 25.3803 55.9186 26.8094V45.1906C55.9186 46.6197 55.1562 47.9402 53.9186 48.6547L38 57.8453C36.7624 58.5598 35.2376 58.5598 34 57.8453L18.0814 48.6547C16.8438 47.9402 16.0814 46.6197 16.0814 45.1906V26.8094C16.0814 25.3803 16.8438 24.0598 18.0814 23.3453L34 14.1547Z" fill="url(#paint28_linear_165_5583)" stroke="#FFF04D" stroke-opacity="0.4"/>
<mask id="mask3_165_5583" style="mask-type:luminance" maskUnits="userSpaceOnUse" x="16" y="13" width="40" height="46">
<path fill-rule="evenodd" clip-rule="evenodd" d="M34 14.1547C35.2376 13.4402 36.7624 13.4402 38 14.1547L53.9186 23.3453C55.1562 24.0598 55.9186 25.3803 55.9186 26.8094V45.1906C55.9186 46.6197 55.1562 47.9402 53.9186 48.6547L38 57.8453C36.7624 58.5598 35.2376 58.5598 34 57.8453L18.0814 48.6547C16.8438 47.9402 16.0814 46.6197 16.0814 45.1906V26.8094C16.0814 25.3803 16.8438 24.0598 18.0814 23.3453L34 14.1547Z" fill="white"/>
</mask>
<g mask="url(#mask3_165_5583)">
<g style="mix-blend-mode:multiply" opacity="0.4">
<path d="M36 35.9999L42 12H30L36 35.9999L23.2721 14.7868L14.7868 23.2721L36 35.9999L12 30V42L36 35.9999L14.7868 48.7279L23.2721 57.2132L36 35.9999L30 60H42L36 35.9999L48.7279 57.2132L57.2132 48.7279L36 35.9999L60 42V30L36 35.9999L57.2132 23.2721L48.7279 14.7868L36 35.9999Z" fill="#FFD640"/>
</g>
<g filter="url(#filter6_di_165_5583)">
<path fill-rule="evenodd" clip-rule="evenodd" d="M51.6712 25.1886L37.5168 17.0069C36.5783 16.4645 35.4221 16.4645 34.4837 17.0069L20.3292 25.1886C19.3908 25.7311 18.8127 26.7335 18.8127 27.8184V33.7208L17.6652 35.444C17.4417 35.7797 17.4417 36.2169 17.6652 36.5525L18.8127 38.2758V44.1818C18.8127 45.2667 19.3908 46.2691 20.3292 46.8116L34.4837 54.9933C35.4221 55.5357 36.5783 55.5357 37.5168 54.9933L51.6712 46.8116C52.6096 46.2691 53.1877 45.2667 53.1877 44.1818V38.2758L54.3352 36.5525C54.5588 36.2169 54.5588 35.7797 54.3352 35.444L53.1877 33.7208V27.8184C53.1877 26.7335 52.6096 25.7311 51.6712 25.1886ZM19.8237 38.2758V44.1817C19.8237 44.905 20.2091 45.5733 20.8347 45.935L34.9892 54.1166C35.6148 54.4783 36.3856 54.4783 37.0112 54.1166L51.1657 45.935C51.7913 45.5733 52.1767 44.905 52.1767 44.1817V38.2758L51.0292 36.5525C50.8057 36.2169 50.8057 35.7797 51.0292 35.444L52.1767 33.7208V27.8184C52.1767 27.0951 51.7913 26.4268 51.1657 26.0652L37.0112 17.8835C36.3856 17.5219 35.6148 17.5219 34.9892 17.8835L20.8347 26.0652C20.2091 26.4268 19.8237 27.0951 19.8237 27.8184V33.7208L20.9712 35.444C21.1947 35.7797 21.1947 36.2169 20.9712 36.5525L19.8237 38.2758Z" fill="#676763"/>
</g>
<mask id="mask4_165_5583" style="mask-type:luminance" maskUnits="userSpaceOnUse" x="17" y="16" width="38" height="40">
<path fill-rule="evenodd" clip-rule="evenodd" d="M51.6712 25.1886L37.5168 17.0069C36.5783 16.4645 35.4221 16.4645 34.4837 17.0069L20.3292 25.1886C19.3908 25.7311 18.8127 26.7335 18.8127 27.8184V33.7208L17.6652 35.444C17.4417 35.7797 17.4417 36.2169 17.6652 36.5525L18.8127 38.2758V44.1818C18.8127 45.2667 19.3908 46.2691 20.3292 46.8116L34.4837 54.9933C35.4221 55.5357 36.5783 55.5357 37.5168 54.9933L51.6712 46.8116C52.6096 46.2691 53.1877 45.2667 53.1877 44.1818V38.2758L54.3352 36.5525C54.5588 36.2169 54.5588 35.7797 54.3352 35.444L53.1877 33.7208V27.8184C53.1877 26.7335 52.6096 25.7311 51.6712 25.1886ZM19.8237 38.2758V44.1817C19.8237 44.905 20.2091 45.5733 20.8347 45.935L34.9892 54.1166C35.6148 54.4783 36.3856 54.4783 37.0112 54.1166L51.1657 45.935C51.7913 45.5733 52.1767 44.905 52.1767 44.1817V38.2758L51.0292 36.5525C50.8057 36.2169 50.8057 35.7797 51.0292 35.444L52.1767 33.7208V27.8184C52.1767 27.0951 51.7913 26.4268 51.1657 26.0652L37.0112 17.8835C36.3856 17.5219 35.6148 17.5219 34.9892 17.8835L20.8347 26.0652C20.2091 26.4268 19.8237 27.0951 19.8237 27.8184V33.7208L20.9712 35.444C21.1947 35.7797 21.1947 36.2169 20.9712 36.5525L19.8237 38.2758Z" fill="white"/>
</mask>
<g mask="url(#mask4_165_5583)">
<g style="mix-blend-mode:multiply" opacity="0.4">
<path fill-rule="evenodd" clip-rule="evenodd" d="M36 36L12 30V42L36 36ZM36 36L42 12H30L36 36ZM36 36L60 42V30L36 36ZM36 36L48.7279 14.7868L57.2132 23.2721L36 36ZM36 36L57.2132 48.7279L48.7279 57.2132L36 36ZM36 36L23.2721 57.2132L14.7868 48.7279L36 36ZM36 36L42 60H30L36 36Z" fill="#5A5951"/>
<path d="M23.2721 14.7868L14.7868 23.2721L36 36L23.2721 14.7868Z" fill="#5A5951"/>
</g>
</g>
<path d="M37.7501 14.5876C36.6672 13.9623 35.333 13.9623 34.2501 14.5876L18.3315 23.7782C17.2486 24.4034 16.5815 25.5588 16.5815 26.8093L16.5815 45.1904C16.5815 46.4409 17.2486 47.5963 18.3315 48.2215L34.2501 57.4121C35.333 58.0374 36.6672 58.0374 37.7501 57.4121L53.6687 48.2215C54.7516 47.5963 55.4187 46.4409 55.4187 45.1904V26.8093C55.4187 25.5588 54.7516 24.4034 53.6687 23.7782L37.7501 14.5876Z" stroke="#FAB90A"/>
<path opacity="0.4" d="M37.75 57.4124C39.6222 56.3315 40.9487 55.5656 41.7296 55.1147" stroke="white" stroke-linecap="round"/>
<path d="M55.4187 45.1905V26.8093C55.4187 25.5588 54.7516 24.4034 53.6687 23.7782L37.7501 14.5876C36.6672 13.9623 35.333 13.9623 34.2501 14.5876L18.3315 23.7782C17.2486 24.4034 16.5815 25.5588 16.5815 26.8093L16.5815 45.1905" stroke="#FAC81C" stroke-linecap="round"/>
<path opacity="0.6" d="M55.4187 26.8093C55.4187 25.5588 54.7516 24.4034 53.6687 23.7782L37.7501 14.5876C36.6672 13.9623 35.333 13.9623 34.2501 14.5876L18.3315 23.7782C17.2486 24.4034 16.5815 25.5588 16.5815 26.8093" stroke="#FFE56A" stroke-linecap="round"/>
<path opacity="0.6" d="M37.7498 14.5876C36.6669 13.9623 35.3327 13.9623 34.2498 14.5876C34.2498 14.5876 28.9436 17.6511 26.2905 19.1829" stroke="white" stroke-linecap="round"/>
<path d="M34.2502 14.5879C34.2502 14.5879 31.4419 16.2092 30.2705 16.8855" stroke="white" stroke-linecap="round"/>
</g>
<g filter="url(#filter7_d_165_5583)">
<path fill-rule="evenodd" clip-rule="evenodd" d="M35 20.5774C35.6188 20.2201 36.3812 20.2201 37 20.5774L48.8564 27.4226C49.4752 27.7799 49.8564 28.4402 49.8564 29.1547V42.8453C49.8564 43.5598 49.4752 44.2201 48.8564 44.5774L37 51.4226C36.3812 51.7799 35.6188 51.7799 35 51.4226L23.1436 44.5774C22.5248 44.2201 22.1436 43.5598 22.1436 42.8453V29.1547C22.1436 28.4402 22.5248 27.7799 23.1436 27.4226L35 20.5774Z" fill="url(#paint29_linear_165_5583)"/>
<path d="M49.1064 26.9896L37.25 20.1443C36.4765 19.6978 35.5235 19.6978 34.75 20.1443L22.8936 26.9896C22.1201 27.4362 21.6436 28.2615 21.6436 29.1547V42.8453C21.6436 43.7385 22.1201 44.5638 22.8936 45.0104L34.75 51.8557C35.5235 52.3022 36.4765 52.3022 37.25 51.8557L49.1064 45.0104C49.8799 44.5638 50.3564 43.7385 50.3564 42.8453V29.1547C50.3564 28.2615 49.8799 27.4362 49.1064 26.9896Z" stroke="#F5900D" stroke-opacity="0.1" style="mix-blend-mode:multiply"/>
</g>
<mask id="mask5_165_5583" style="mask-type:luminance" maskUnits="userSpaceOnUse" x="22" y="20" width="28" height="32">
<path fill-rule="evenodd" clip-rule="evenodd" d="M35 20.5774C35.6188 20.2201 36.3812 20.2201 37 20.5774L48.8564 27.4226C49.4752 27.7799 49.8564 28.4402 49.8564 29.1547V42.8453C49.8564 43.5598 49.4752 44.2201 48.8564 44.5774L37 51.4226C36.3812 51.7799 35.6188 51.7799 35 51.4226L23.1436 44.5774C22.5248 44.2201 22.1436 43.5598 22.1436 42.8453V29.1547C22.1436 28.4402 22.5248 27.7799 23.1436 27.4226L35 20.5774Z" fill="white"/>
</mask>
<g mask="url(#mask5_165_5583)">
<g style="mix-blend-mode:multiply" opacity="0.3">
<path fill-rule="evenodd" clip-rule="evenodd" d="M36 36L20 40V32L36 36ZM36 36L40 20H32L36 36ZM36 36L52 32V40L36 36ZM36 36L44.4853 21.8579L50.1421 27.5147L36 36ZM36 36L44.4853 50.1421L50.1421 44.4853L36 36ZM36 36L32 52H40L36 36ZM36 36L27.5147 50.1421L21.8579 44.4853L36 36Z" fill="#FFD640"/>
<path d="M27.5147 21.8579L21.8579 27.5147L36 36L27.5147 21.8579Z" fill="#FFD640"/>
</g>
<path opacity="0.4" d="M48.6064 27.8558L36.75 21.0105C36.2859 20.7426 35.7141 20.7426 35.25 21.0105C33.8555 21.8156 32.8675 22.386 32.2859 22.7219C31.0754 23.4207 30.0873 23.9912 29.3218 24.4332C28.0044 25.1938 26.0283 26.3347 23.3936 27.8558" stroke="white" stroke-linecap="round"/>
<path d="M35.2497 21.0107C33.8553 21.8158 32.8673 22.3863 32.2856 22.7221" stroke="white" stroke-linecap="round"/>
<path opacity="0.4" d="M48.6064 44.11L36.75 50.9553C36.2859 51.2232 35.7141 51.2232 35.25 50.9553" stroke="white" stroke-linecap="round"/>
</g>
<g filter="url(#filter8_d_165_5583)">
<mask id="path-49-outside-3_165_5583" maskUnits="userSpaceOnUse" x="25" y="27.8037" width="22" height="19" fill="black">
<rect fill="white" x="25" y="27.8037" width="22" height="19"/>
<path fill-rule="evenodd" clip-rule="evenodd" d="M27 34.9999L30 29.8037H42L45 34.9999H27ZM36 43.9999L45 34.9999H27L36 43.9999Z"/>
</mask>
<path fill-rule="evenodd" clip-rule="evenodd" d="M27 34.9999L30 29.8037H42L45 34.9999H27ZM36 43.9999L45 34.9999H27L36 43.9999Z" fill="white"/>
<path d="M30 29.8037V27.8037C29.2855 27.8037 28.6252 28.1849 28.268 28.8037L30 29.8037ZM27 34.9999L25.268 33.9999C24.9107 34.6187 24.9107 35.3811 25.268 35.9999C25.6252 36.6187 26.2855 36.9999 27 36.9999V34.9999ZM42 29.8037L43.7321 28.8037C43.3748 28.1849 42.7145 27.8037 42 27.8037V29.8037ZM45 34.9999V36.9999C45.7145 36.9999 46.3748 36.6187 46.7321 35.9999C47.0893 35.3811 47.0893 34.6187 46.7321 33.9999L45 34.9999ZM45 34.9999L46.4142 36.4141C46.9862 35.8421 47.1573 34.9819 46.8478 34.2345C46.5382 33.4872 45.8089 32.9999 45 32.9999V34.9999ZM36 43.9999L34.5858 45.4141C34.9609 45.7892 35.4696 45.9999 36 45.9999C36.5304 45.9999 37.0391 45.7892 37.4142 45.4141L36 43.9999ZM27 34.9999V32.9999C26.1911 32.9999 25.4618 33.4872 25.1522 34.2345C24.8427 34.9819 25.0138 35.8421 25.5858 36.4141L27 34.9999ZM28.268 28.8037L25.268 33.9999L28.7321 35.9999L31.7321 30.8037L28.268 28.8037ZM42 27.8037H30V31.8037H42V27.8037ZM46.7321 33.9999L43.7321 28.8037L40.268 30.8037L43.268 35.9999L46.7321 33.9999ZM27 36.9999H45V32.9999H27V36.9999ZM43.5858 33.5857L34.5858 42.5857L37.4142 45.4141L46.4142 36.4141L43.5858 33.5857ZM27 36.9999H45V32.9999H27V36.9999ZM37.4142 42.5857L28.4142 33.5857L25.5858 36.4141L34.5858 45.4141L37.4142 42.5857Z" fill="white" mask="url(#path-49-outside-3_165_5583)"/>
</g>
<path fill-rule="evenodd" clip-rule="evenodd" d="M36 44L45 35H27L36 44Z" fill="url(#paint30_linear_165_5583)"/>
<path fill-rule="evenodd" clip-rule="evenodd" d="M36 44L33 35H39L36 44Z" fill="url(#paint31_linear_165_5583)"/>
<path d="M30 29.8037L27 34.9999H45L42 29.8037H30Z" fill="url(#paint32_linear_165_5583)"/>
<path d="M30 29.8037L33 34.9999H27L30 29.8037Z" fill="url(#paint33_linear_165_5583)"/>
<path d="M36 29.8037L39 34.9999H33L36 29.8037Z" fill="url(#paint34_linear_165_5583)"/>
<path d="M42 29.8037L45 34.9999H39L42 29.8037Z" fill="url(#paint35_linear_165_5583)"/>
<g filter="url(#filter9_d_165_5583)">
<path fill-rule="evenodd" clip-rule="evenodd" d="M46.9109 29.7799L46.3916 29.5751C46.0739 29.4498 45.918 29.0908 46.0433 28.7732C46.1061 28.6138 46.2322 28.4877 46.3916 28.4249L46.9109 28.2201C47.5098 27.9839 47.9839 27.5098 48.2201 26.9109L48.4249 26.3916C48.5502 26.0739 48.9092 25.918 49.2268 26.0433C49.3862 26.1061 49.5123 26.2322 49.5751 26.3916L49.7799 26.9109C50.0161 27.5098 50.4902 27.9839 51.0891 28.2201L51.6084 28.4249C51.9261 28.5502 52.082 28.9092 51.9567 29.2268C51.8939 29.3862 51.7678 29.5123 51.6084 29.5751L51.0891 29.7799C50.4902 30.0161 50.0161 30.4902 49.7799 31.0891L49.5751 31.6084C49.4498 31.9261 49.0908 32.082 48.7732 31.9567C48.6138 31.8939 48.4877 31.7678 48.4249 31.6084L48.2201 31.0891C47.9839 30.4902 47.5098 30.0161 46.9109 29.7799Z" fill="white"/>
</g>
<g filter="url(#filter10_d_165_5583)">
<path fill-rule="evenodd" clip-rule="evenodd" d="M26.6073 45.52L26.261 45.3834C26.0493 45.2999 25.9453 45.0605 26.0289 44.8488C26.0707 44.7426 26.1548 44.6585 26.261 44.6166L26.6073 44.48C27.0065 44.3226 27.3226 44.0065 27.48 43.6073L27.6166 43.261C27.7001 43.0493 27.9395 42.9453 28.1512 43.0289C28.2574 43.0707 28.3415 43.1548 28.3834 43.261L28.52 43.6073C28.6774 44.0065 28.9935 44.3226 29.3927 44.48L29.739 44.6166C29.9507 44.7001 30.0547 44.9395 29.9711 45.1512C29.9293 45.2574 29.8452 45.3415 29.739 45.3834L29.3927 45.52C28.9935 45.6774 28.6774 45.9935 28.52 46.3927L28.3834 46.739C28.2999 46.9507 28.0605 47.0547 27.8488 46.9711C27.7426 46.9293 27.6585 46.8452 27.6166 46.739L27.48 46.3927C27.3226 45.9935 27.0065 45.6774 26.6073 45.52Z" fill="white"/>
</g>
<g filter="url(#filter11_d_165_5583)">
<path fill-rule="evenodd" clip-rule="evenodd" d="M20.7591 31.1499L20.3263 30.9793C20.0616 30.8749 19.9317 30.5757 20.0361 30.311C20.0884 30.1782 20.1935 30.0731 20.3263 30.0207L20.7591 29.8501C21.2582 29.6532 21.6532 29.2582 21.8501 28.7591L22.0207 28.3263C22.1251 28.0616 22.4243 27.9317 22.689 28.0361C22.8218 28.0884 22.9269 28.1935 22.9793 28.3263L23.1499 28.7591C23.3468 29.2582 23.7418 29.6532 24.2409 29.8501L24.6737 30.0207C24.9384 30.1251 25.0683 30.4243 24.9639 30.689C24.9116 30.8218 24.8065 30.9269 24.6737 30.9793L24.2409 31.1499C23.7418 31.3468 23.3468 31.7418 23.1499 32.2409L22.9793 32.6737C22.8749 32.9384 22.5757 33.0683 22.311 32.9639C22.1782 32.9116 22.0731 32.8065 22.0207 32.6737L21.8501 32.2409C21.6532 31.7418 21.2582 31.3468 20.7591 31.1499Z" fill="white"/>
</g>
<g filter="url(#filter12_d_165_5583)">
<path fill-rule="evenodd" clip-rule="evenodd" d="M46.4555 45.89L46.1958 45.7876C46.037 45.7249 45.959 45.5454 46.0216 45.3866C46.0531 45.3069 46.1161 45.2439 46.1958 45.2124L46.4555 45.11C46.7549 44.9919 46.9919 44.7549 47.11 44.4555L47.2124 44.1958C47.2751 44.037 47.4546 43.959 47.6134 44.0216C47.6931 44.0531 47.7561 44.1161 47.7876 44.1958L47.89 44.4555C48.0081 44.7549 48.2451 44.9919 48.5445 45.11L48.8042 45.2124C48.963 45.2751 49.041 45.4546 48.9784 45.6134C48.9469 45.6931 48.8839 45.7561 48.8042 45.7876L48.5445 45.89C48.2451 46.0081 48.0081 46.2451 47.89 46.5445L47.7876 46.8042C47.7249 46.963 47.5454 47.041 47.3866 46.9784C47.3069 46.9469 47.2439 46.8839 47.2124 46.8042L47.11 46.5445C46.9919 46.2451 46.7549 46.0081 46.4555 45.89Z" fill="white"/>
</g>
<g filter="url(#filter13_d_165_5583)">
<path fill-rule="evenodd" clip-rule="evenodd" d="M42.3036 35.26L42.1305 35.1917C42.0246 35.1499 41.9727 35.0303 42.0144 34.9244C42.0354 34.8713 42.0774 34.8292 42.1305 34.8083L42.3036 34.74C42.5033 34.6613 42.6613 34.5033 42.74 34.3036L42.8083 34.1305C42.8501 34.0246 42.9697 33.9727 43.0756 34.0144C43.1287 34.0354 43.1708 34.0774 43.1917 34.1305L43.26 34.3036C43.3387 34.5033 43.4967 34.6613 43.6964 34.74L43.8695 34.8083C43.9754 34.8501 44.0273 34.9697 43.9856 35.0756C43.9646 35.1287 43.9226 35.1708 43.8695 35.1917L43.6964 35.26C43.4967 35.3387 43.3387 35.4967 43.26 35.6964L43.1917 35.8695C43.1499 35.9754 43.0303 36.0273 42.9244 35.9856C42.8713 35.9646 42.8292 35.9226 42.8083 35.8695L42.74 35.6964C42.6613 35.4967 42.5033 35.3387 42.3036 35.26Z" fill="white"/>
</g>
<defs>
<filter id="filter0_d_165_5583" x="18" y="33" width="20" height="35.3833" filterUnits="userSpaceOnUse" color-interpolation-filters="sRGB">
<feFlood flood-opacity="0" result="BackgroundImageFix"/>
<feColorMatrix in="SourceAlpha" type="matrix" values="0 0 0 0 0 0 0 0 0 0 0 0 0 0 0 0 0 0 127 0" result="hardAlpha"/>
<feOffset dy="2"/>
<feGaussianBlur stdDeviation="1"/>
<feColorMatrix type="matrix" values="0 0 0 0 0.61352 0 0 0 0 0.61352 0 0 0 0 0.61352 0 0 0 0.2 0"/>
<feBlend mode="darken" in2="BackgroundImageFix" result="effect1_dropShadow_165_5583"/>
<feBlend mode="normal" in="SourceGraphic" in2="effect1_dropShadow_165_5583" result="shape"/>
</filter>
<filter id="filter1_d_165_5583" x="22" y="36" width="20" height="35.3833" filterUnits="userSpaceOnUse" color-interpolation-filters="sRGB">
<feFlood flood-opacity="0" result="BackgroundImageFix"/>
<feColorMatrix in="SourceAlpha" type="matrix" values="0 0 0 0 0 0 0 0 0 0 0 0 0 0 0 0 0 0 127 0" result="hardAlpha"/>
<feOffset dy="2"/>
<feGaussianBlur stdDeviation="1"/>
<feColorMatrix type="matrix" values="0 0 0 0 0.61352 0 0 0 0 0.61352 0 0 0 0 0.61352 0 0 0 0.2 0"/>
<feBlend mode="darken" in2="BackgroundImageFix" result="effect1_dropShadow_165_5583"/>
<feBlend mode="normal" in="SourceGraphic" in2="effect1_dropShadow_165_5583" result="shape"/>
</filter>
<filter id="filter2_d_165_5583" x="34" y="33" width="20" height="35.3833" filterUnits="userSpaceOnUse" color-interpolation-filters="sRGB">
<feFlood flood-opacity="0" result="BackgroundImageFix"/>
<feColorMatrix in="SourceAlpha" type="matrix" values="0 0 0 0 0 0 0 0 0 0 0 0 0 0 0 0 0 0 127 0" result="hardAlpha"/>
<feOffset dy="2"/>
<feGaussianBlur stdDeviation="1"/>
<feColorMatrix type="matrix" values="0 0 0 0 0.61352 0 0 0 0 0.61352 0 0 0 0 0.61352 0 0 0 0.2 0"/>
<feBlend mode="darken" in2="BackgroundImageFix" result="effect1_dropShadow_165_5583"/>
<feBlend mode="normal" in="SourceGraphic" in2="effect1_dropShadow_165_5583" result="shape"/>
</filter>
<filter id="filter3_d_165_5583" x="30" y="36" width="20" height="35.3833" filterUnits="userSpaceOnUse" color-interpolation-filters="sRGB">
<feFlood flood-opacity="0" result="BackgroundImageFix"/>
<feColorMatrix in="SourceAlpha" type="matrix" values="0 0 0 0 0 0 0 0 0 0 0 0 0 0 0 0 0 0 127 0" result="hardAlpha"/>
<feOffset dy="2"/>
<feGaussianBlur stdDeviation="1"/>
<feColorMatrix type="matrix" values="0 0 0 0 0.61352 0 0 0 0 0.61352 0 0 0 0 0.61352 0 0 0 0.2 0"/>
<feBlend mode="darken" in2="BackgroundImageFix" result="effect1_dropShadow_165_5583"/>
<feBlend mode="normal" in="SourceGraphic" in2="effect1_dropShadow_165_5583" result="shape"/>
</filter>
<filter id="filter4_d_165_5583" x="26" y="38" width="20" height="35.3833" filterUnits="userSpaceOnUse" color-interpolation-filters="sRGB">
<feFlood flood-opacity="0" result="BackgroundImageFix"/>
<feColorMatrix in="SourceAlpha" type="matrix" values="0 0 0 0 0 0 0 0 0 0 0 0 0 0 0 0 0 0 127 0" result="hardAlpha"/>
<feOffset dy="2"/>
<feGaussianBlur stdDeviation="1"/>
<feColorMatrix type="matrix" values="0 0 0 0 0.61352 0 0 0 0 0.61352 0 0 0 0 0.61352 0 0 0 0.2 0"/>
<feBlend mode="darken" in2="BackgroundImageFix" result="effect1_dropShadow_165_5583"/>
<feBlend mode="normal" in="SourceGraphic" in2="effect1_dropShadow_165_5583" result="shape"/>
</filter>
<filter id="filter5_i_165_5583" x="18" y="45.1274" width="36" height="15.9443" filterUnits="userSpaceOnUse" color-interpolation-filters="sRGB">
<feFlood flood-opacity="0" result="BackgroundImageFix"/>
<feBlend mode="normal" in="SourceGraphic" in2="BackgroundImageFix" result="shape"/>
<feColorMatrix in="SourceAlpha" type="matrix" values="0 0 0 0 0 0 0 0 0 0 0 0 0 0 0 0 0 0 127 0" result="hardAlpha"/>
<feOffset dy="1"/>
<feGaussianBlur stdDeviation="0.5"/>
<feComposite in2="hardAlpha" operator="arithmetic" k2="-1" k3="1"/>
<feColorMatrix type="matrix" values="0 0 0 0 0.929412 0 0 0 0 0.568627 0 0 0 0 0 0 0 0 0.5 0"/>
<feBlend mode="normal" in2="shape" result="effect1_innerShadow_165_5583"/>
</filter>
<filter id="filter6_di_165_5583" x="16.4976" y="16.0001" width="39.0054" height="40.7998" filterUnits="userSpaceOnUse" color-interpolation-filters="sRGB">
<feFlood flood-opacity="0" result="BackgroundImageFix"/>
<feColorMatrix in="SourceAlpha" type="matrix" values="0 0 0 0 0 0 0 0 0 0 0 0 0 0 0 0 0 0 127 0" result="hardAlpha"/>
<feOffset dy="0.4"/>
<feGaussianBlur stdDeviation="0.5"/>
<feColorMatrix type="matrix" values="0 0 0 0 1 0 0 0 0 0.909804 0 0 0 0 0.556863 0 0 0 0.4 0"/>
<feBlend mode="normal" in2="BackgroundImageFix" result="effect1_dropShadow_165_5583"/>
<feBlend mode="normal" in="SourceGraphic" in2="effect1_dropShadow_165_5583" result="shape"/>
<feColorMatrix in="SourceAlpha" type="matrix" values="0 0 0 0 0 0 0 0 0 0 0 0 0 0 0 0 0 0 127 0" result="hardAlpha"/>
<feOffset dy="1"/>
<feGaussianBlur stdDeviation="0.5"/>
<feComposite in2="hardAlpha" operator="arithmetic" k2="-1" k3="1"/>
<feColorMatrix type="matrix" values="0 0 0 0 0.31048 0 0 0 0 0.31048 0 0 0 0 0.279572 0 0 0 1 0"/>
<feBlend mode="normal" in2="shape" result="effect2_innerShadow_165_5583"/>
</filter>
<filter id="filter7_d_165_5583" x="19.1436" y="18.3096" width="33.7129" height="37.3809" filterUnits="userSpaceOnUse" color-interpolation-filters="sRGB">
<feFlood flood-opacity="0" result="BackgroundImageFix"/>
<feColorMatrix in="SourceAlpha" type="matrix" values="0 0 0 0 0 0 0 0 0 0 0 0 0 0 0 0 0 0 127 0" result="hardAlpha"/>
<feOffset dy="1"/>
<feGaussianBlur stdDeviation="1"/>
<feColorMatrix type="matrix" values="0 0 0 0 0.927721 0 0 0 0 0.665867 0 0 0 0 0.0535899 0 0 0 0.4 0"/>
<feBlend mode="normal" in2="BackgroundImageFix" result="effect1_dropShadow_165_5583"/>
<feBlend mode="normal" in="SourceGraphic" in2="effect1_dropShadow_165_5583" result="shape"/>
</filter>
<filter id="filter8_d_165_5583" x="23" y="26.8037" width="26" height="22.1963" filterUnits="userSpaceOnUse" color-interpolation-filters="sRGB">
<feFlood flood-opacity="0" result="BackgroundImageFix"/>
<feColorMatrix in="SourceAlpha" type="matrix" values="0 0 0 0 0 0 0 0 0 0 0 0 0 0 0 0 0 0 127 0" result="hardAlpha"/>
<feOffset dy="1"/>
<feGaussianBlur stdDeviation="1"/>
<feColorMatrix type="matrix" values="0 0 0 0 0.996078 0 0 0 0 0.733333 0 0 0 0 0.105882 0 0 0 1 0"/>
<feBlend mode="normal" in2="BackgroundImageFix" result="effect1_dropShadow_165_5583"/>
<feBlend mode="normal" in="SourceGraphic" in2="effect1_dropShadow_165_5583" result="shape"/>
</filter>
<filter id="filter9_d_165_5583" x="44" y="24" width="10" height="10" filterUnits="userSpaceOnUse" color-interpolation-filters="sRGB">
<feFlood flood-opacity="0" result="BackgroundImageFix"/>
<feColorMatrix in="SourceAlpha" type="matrix" values="0 0 0 0 0 0 0 0 0 0 0 0 0 0 0 0 0 0 127 0" result="hardAlpha"/>
<feOffset/>
<feGaussianBlur stdDeviation="1"/>
<feColorMatrix type="matrix" values="0 0 0 0 1 0 0 0 0 0.94902 0 0 0 0 0.305882 0 0 0 1 0"/>
<feBlend mode="normal" in2="BackgroundImageFix" result="effect1_dropShadow_165_5583"/>
<feBlend mode="normal" in="SourceGraphic" in2="effect1_dropShadow_165_5583" result="shape"/>
</filter>
<filter id="filter10_d_165_5583" x="24" y="41" width="8" height="8" filterUnits="userSpaceOnUse" color-interpolation-filters="sRGB">
<feFlood flood-opacity="0" result="BackgroundImageFix"/>
<feColorMatrix in="SourceAlpha" type="matrix" values="0 0 0 0 0 0 0 0 0 0 0 0 0 0 0 0 0 0 127 0" result="hardAlpha"/>
<feOffset/>
<feGaussianBlur stdDeviation="1"/>
<feColorMatrix type="matrix" values="0 0 0 0 1 0 0 0 0 0.94902 0 0 0 0 0.305882 0 0 0 1 0"/>
<feBlend mode="normal" in2="BackgroundImageFix" result="effect1_dropShadow_165_5583"/>
<feBlend mode="normal" in="SourceGraphic" in2="effect1_dropShadow_165_5583" result="shape"/>
</filter>
<filter id="filter11_d_165_5583" x="18" y="26" width="9" height="9" filterUnits="userSpaceOnUse" color-interpolation-filters="sRGB">
<feFlood flood-opacity="0" result="BackgroundImageFix"/>
<feColorMatrix in="SourceAlpha" type="matrix" values="0 0 0 0 0 0 0 0 0 0 0 0 0 0 0 0 0 0 127 0" result="hardAlpha"/>
<feOffset/>
<feGaussianBlur stdDeviation="1"/>
<feColorMatrix type="matrix" values="0 0 0 0 1 0 0 0 0 0.94902 0 0 0 0 0.305882 0 0 0 1 0"/>
<feBlend mode="normal" in2="BackgroundImageFix" result="effect1_dropShadow_165_5583"/>
<feBlend mode="normal" in="SourceGraphic" in2="effect1_dropShadow_165_5583" result="shape"/>
</filter>
<filter id="filter12_d_165_5583" x="44" y="42" width="7" height="7" filterUnits="userSpaceOnUse" color-interpolation-filters="sRGB">
<feFlood flood-opacity="0" result="BackgroundImageFix"/>
<feColorMatrix in="SourceAlpha" type="matrix" values="0 0 0 0 0 0 0 0 0 0 0 0 0 0 0 0 0 0 127 0" result="hardAlpha"/>
<feOffset/>
<feGaussianBlur stdDeviation="1"/>
<feColorMatrix type="matrix" values="0 0 0 0 1 0 0 0 0 0.94902 0 0 0 0 0.305882 0 0 0 1 0"/>
<feBlend mode="normal" in2="BackgroundImageFix" result="effect1_dropShadow_165_5583"/>
<feBlend mode="normal" in="SourceGraphic" in2="effect1_dropShadow_165_5583" result="shape"/>
</filter>
<filter id="filter13_d_165_5583" x="40" y="32" width="6" height="6" filterUnits="userSpaceOnUse" color-interpolation-filters="sRGB">
<feFlood flood-opacity="0" result="BackgroundImageFix"/>
<feColorMatrix in="SourceAlpha" type="matrix" values="0 0 0 0 0 0 0 0 0 0 0 0 0 0 0 0 0 0 127 0" result="hardAlpha"/>
<feOffset/>
<feGaussianBlur stdDeviation="1"/>
<feColorMatrix type="matrix" values="0 0 0 0 1 0 0 0 0 0.94902 0 0 0 0 0.305882 0 0 0 1 0"/>
<feBlend mode="normal" in2="BackgroundImageFix" result="effect1_dropShadow_165_5583"/>
<feBlend mode="normal" in="SourceGraphic" in2="effect1_dropShadow_165_5583" result="shape"/>
</filter>
<linearGradient id="paint0_linear_165_5583" x1="6.00391" y1="19.086" x2="6.00391" y2="44.1235" gradientUnits="userSpaceOnUse">
<stop stop-color="#75756F"/>
<stop offset="1" stop-color="#3A342A"/>
</linearGradient>
<linearGradient id="paint1_linear_165_5583" x1="13.9756" y1="33.9897" x2="13.9756" y2="44.1235" gradientUnits="userSpaceOnUse">
<stop stop-color="#FFDF6B"/>
<stop offset="1" stop-color="#F8A60A"/>
</linearGradient>
<linearGradient id="paint2_linear_165_5583" x1="3.96633" y1="18.9778" x2="3.96633" y2="44.0855" gradientUnits="userSpaceOnUse">
<stop stop-color="#75756F"/>
<stop offset="1" stop-color="#3A342A"/>
</linearGradient>
<linearGradient id="paint3_linear_165_5583" x1="11.9756" y1="28.9897" x2="11.9756" y2="39.1235" gradientUnits="userSpaceOnUse">
<stop stop-color="#FFDF6B"/>
<stop offset="1" stop-color="#F8A60A"/>
</linearGradient>
<linearGradient id="paint4_linear_165_5583" x1="1.90691" y1="18.9434" x2="1.90691" y2="44.1623" gradientUnits="userSpaceOnUse">
<stop stop-color="#75756F"/>
<stop offset="1" stop-color="#3A342A"/>
</linearGradient>
<linearGradient id="paint5_linear_165_5583" x1="9.97559" y1="23.9897" x2="9.97559" y2="34.1235" gradientUnits="userSpaceOnUse">
<stop stop-color="#FFDF6B"/>
<stop offset="1" stop-color="#F8A60A"/>
</linearGradient>
<linearGradient id="paint6_linear_165_5583" x1="-0.0650127" y1="18.9898" x2="-0.0650127" y2="44.1566" gradientUnits="userSpaceOnUse">
<stop stop-color="#75756F"/>
<stop offset="1" stop-color="#3A342A"/>
</linearGradient>
<linearGradient id="paint7_linear_165_5583" x1="7.97583" y1="18.9898" x2="7.97583" y2="29.1235" gradientUnits="userSpaceOnUse">
<stop stop-color="#FFDF6B"/>
<stop offset="1" stop-color="#F8A60A"/>
</linearGradient>
<linearGradient id="paint8_linear_165_5583" x1="65.9956" y1="19.086" x2="65.9956" y2="44.1235" gradientUnits="userSpaceOnUse">
<stop stop-color="#75756F"/>
<stop offset="1" stop-color="#3A342A"/>
</linearGradient>
<linearGradient id="paint9_linear_165_5583" x1="58.0239" y1="33.9897" x2="58.0239" y2="44.1235" gradientUnits="userSpaceOnUse">
<stop stop-color="#FFDF6B"/>
<stop offset="1" stop-color="#F8A60A"/>
</linearGradient>
<linearGradient id="paint10_linear_165_5583" x1="68.0332" y1="18.9778" x2="68.0332" y2="44.0855" gradientUnits="userSpaceOnUse">
<stop stop-color="#75756F"/>
<stop offset="1" stop-color="#3A342A"/>
</linearGradient>
<linearGradient id="paint11_linear_165_5583" x1="60.0239" y1="28.9897" x2="60.0239" y2="39.1235" gradientUnits="userSpaceOnUse">
<stop stop-color="#FFDF6B"/>
<stop offset="1" stop-color="#F8A60A"/>
</linearGradient>
<linearGradient id="paint12_linear_165_5583" x1="70.0926" y1="18.9434" x2="70.0926" y2="44.1623" gradientUnits="userSpaceOnUse">
<stop stop-color="#75756F"/>
<stop offset="1" stop-color="#3A342A"/>
</linearGradient>
<linearGradient id="paint13_linear_165_5583" x1="62.0239" y1="23.9897" x2="62.0239" y2="34.1235" gradientUnits="userSpaceOnUse">
<stop stop-color="#FFDF6B"/>
<stop offset="1" stop-color="#F8A60A"/>
</linearGradient>
<linearGradient id="paint14_linear_165_5583" x1="72.0648" y1="18.9897" x2="72.0648" y2="44.1566" gradientUnits="userSpaceOnUse">
<stop stop-color="#75756F"/>
<stop offset="1" stop-color="#3A342A"/>
</linearGradient>
<linearGradient id="paint15_linear_165_5583" x1="64.0239" y1="18.9897" x2="64.0239" y2="29.1235" gradientUnits="userSpaceOnUse">
<stop stop-color="#FFDF6B"/>
<stop offset="1" stop-color="#F8A60A"/>
</linearGradient>
<linearGradient id="paint16_linear_165_5583" x1="13.1548" y1="42" x2="13.1548" y2="50.9775" gradientUnits="userSpaceOnUse">
<stop stop-color="#75756F"/>
<stop offset="1" stop-color="#3A342A"/>
</linearGradient>
<linearGradient id="paint17_linear_165_5583" x1="13.1548" y1="42" x2="13.1548" y2="50.9775" gradientUnits="userSpaceOnUse">
<stop stop-color="#FFDF6B"/>
<stop offset="1" stop-color="#F8A60A"/>
</linearGradient>
<linearGradient id="paint18_linear_165_5583" x1="59" y1="42" x2="59" y2="51.5" gradientUnits="userSpaceOnUse">
<stop stop-color="#75756F"/>
<stop offset="1" stop-color="#3A342A"/>
</linearGradient>
<linearGradient id="paint19_linear_165_5583" x1="59" y1="42" x2="59" y2="51.5" gradientUnits="userSpaceOnUse">
<stop stop-color="#FFDF6B"/>
<stop offset="1" stop-color="#F8A60A"/>
</linearGradient>
<linearGradient id="paint20_linear_165_5583" x1="27" y1="11" x2="27" y2="17.4873" gradientUnits="userSpaceOnUse">
<stop stop-color="#75756F"/>
<stop offset="1" stop-color="#3A342A"/>
</linearGradient>
<linearGradient id="paint21_linear_165_5583" x1="27" y1="11" x2="27" y2="17.4873" gradientUnits="userSpaceOnUse">
<stop stop-color="#FFDF6B"/>
<stop offset="1" stop-color="#F8A60A"/>
</linearGradient>
<linearGradient id="paint22_linear_165_5583" x1="18" y1="45.1289" x2="18" y2="60.0719" gradientUnits="userSpaceOnUse">
<stop stop-color="#F39C05"/>
<stop offset="1" stop-color="#F59100"/>
</linearGradient>
<linearGradient id="paint23_linear_165_5583" x1="18" y1="45.1289" x2="18" y2="60.0719" gradientUnits="userSpaceOnUse">
<stop stop-color="#FFBA45"/>
<stop offset="1" stop-color="#F59100"/>
</linearGradient>
<linearGradient id="paint24_linear_165_5583" x1="20" y1="11.3003" x2="20" y2="26.1333" gradientUnits="userSpaceOnUse">
<stop stop-color="#75756F"/>
<stop offset="1" stop-color="#3A342A"/>
</linearGradient>
<linearGradient id="paint25_linear_165_5583" x1="20" y1="11.3003" x2="20" y2="26.1333" gradientUnits="userSpaceOnUse">
<stop stop-color="#FFDF6B"/>
<stop offset="1" stop-color="#F8A60A"/>
</linearGradient>
<linearGradient id="paint26_linear_165_5583" x1="40" y1="11.3003" x2="40" y2="26.1333" gradientUnits="userSpaceOnUse">
<stop stop-color="#75756F"/>
<stop offset="1" stop-color="#3A342A"/>
</linearGradient>
<linearGradient id="paint27_linear_165_5583" x1="40" y1="11.3003" x2="40" y2="26.1333" gradientUnits="userSpaceOnUse">
<stop stop-color="#FFDF6B"/>
<stop offset="1" stop-color="#F8A60A"/>
</linearGradient>
<linearGradient id="paint28_linear_165_5583" x1="13" y1="13" x2="13" y2="59" gradientUnits="userSpaceOnUse">
<stop stop-color="#FDE046"/>
<stop offset="1" stop-color="#F9B800"/>
</linearGradient>
<linearGradient id="paint29_linear_165_5583" x1="20" y1="20" x2="20" y2="52" gradientUnits="userSpaceOnUse">
<stop stop-color="#FFF550"/>
<stop offset="1" stop-color="#FFD541"/>
</linearGradient>
<linearGradient id="paint30_linear_165_5583" x1="36" y1="44" x2="36" y2="35" gradientUnits="userSpaceOnUse">
<stop stop-color="#878787"/>
<stop offset="1" stop-color="#1F1F1F"/>
</linearGradient>
<linearGradient id="paint31_linear_165_5583" x1="39" y1="44" x2="39" y2="35" gradientUnits="userSpaceOnUse">
<stop stop-color="#878787"/>
<stop offset="1" stop-color="#4E4E4E"/>
</linearGradient>
<linearGradient id="paint32_linear_165_5583" x1="45" y1="34.9999" x2="45" y2="29.8037" gradientUnits="userSpaceOnUse">
<stop stop-color="white"/>
<stop offset="1" stop-color="#A8A8A8"/>
</linearGradient>
<linearGradient id="paint33_linear_165_5583" x1="29" y1="34.9999" x2="29" y2="30.6697" gradientUnits="userSpaceOnUse">
<stop stop-color="#818181"/>
<stop offset="1" stop-color="#A0A0A0"/>
</linearGradient>
<linearGradient id="paint34_linear_165_5583" x1="35" y1="34.9999" x2="35" y2="30.6697" gradientUnits="userSpaceOnUse">
<stop stop-color="#818181"/>
<stop offset="1" stop-color="#A0A0A0"/>
</linearGradient>
<linearGradient id="paint35_linear_165_5583" x1="41" y1="34.9999" x2="41" y2="30.6697" gradientUnits="userSpaceOnUse">
<stop stop-color="#818181"/>
<stop offset="1" stop-color="#A0A0A0"/>
</linearGradient>
</defs>
</svg>
