<svg width="72" height="74" viewBox="0 0 72 74" fill="none" xmlns="http://www.w3.org/2000/svg">
<g filter="url(#filter0_d_165_5440)">
<path fill-rule="evenodd" clip-rule="evenodd" d="M22 33H38V63.382C38 64.1253 37.2177 64.6088 36.5528 64.2764L30 61L23.4472 64.2764C22.7823 64.6088 22 64.1253 22 63.382V33Z" fill="#32B4FF"/>
</g>
<g filter="url(#filter1_d_165_5440)">
<path fill-rule="evenodd" clip-rule="evenodd" d="M34 33H50V63.382C50 64.1253 49.2177 64.6088 48.5528 64.2764L42 61L35.4472 64.2764C34.7823 64.6088 34 64.1253 34 63.382V33Z" fill="#32B4FF"/>
</g>
<g filter="url(#filter2_d_165_5440)">
<path fill-rule="evenodd" clip-rule="evenodd" d="M28 38H44V68.382C44 69.1253 43.2177 69.6088 42.5528 69.2764L36 66L29.4472 69.2764C28.7823 69.6088 28 69.1253 28 68.382V38Z" fill="white"/>
</g>
<mask id="mask0_165_5440" style="mask-type:luminance" maskUnits="userSpaceOnUse" x="28" y="38" width="16" height="32">
<path fill-rule="evenodd" clip-rule="evenodd" d="M28 38H44V68.382C44 69.1253 43.2177 69.6088 42.5528 69.2764L36 66L29.4472 69.2764C28.7823 69.6088 28 69.1253 28 68.382V38Z" fill="white"/>
</mask>
<g mask="url(#mask0_165_5440)">
<rect x="32" y="38" width="8" height="32" fill="#F55462"/>
</g>
<path style="mix-blend-mode:multiply" opacity="0.2" fill-rule="evenodd" clip-rule="evenodd" d="M34.0001 16.1546C35.2377 15.44 36.7625 15.44 38.0001 16.1546L53.9187 25.3451C55.1563 26.0597 55.9187 27.3802 55.9187 28.8093V47.1905C55.9187 48.6195 55.1563 49.94 53.9187 50.6546L38.0001 59.8452C36.7625 60.5597 35.2377 60.5597 34.0001 59.8452L18.0815 50.6546C16.8439 49.94 16.0815 48.6195 16.0815 47.1905L16.0815 28.8093C16.0815 27.3802 16.8439 26.0597 18.0815 25.3451L34.0001 16.1546Z" fill="#7705A4"/>
<path fill-rule="evenodd" clip-rule="evenodd" d="M54 22.677C54 22.2681 54.249 21.9004 54.6286 21.7486L58.1772 20.3291C58.5713 20.1715 59 20.4617 59 20.8862V36.323C59 36.7319 58.751 37.0996 58.3714 37.2514L54 39V22.677Z" fill="url(#paint0_linear_165_5440)" stroke="url(#paint1_linear_165_5440)" stroke-linecap="round" stroke-linejoin="round"/>
<mask id="mask1_165_5440" style="mask-type:luminance" maskUnits="userSpaceOnUse" x="53" y="19" width="7" height="21">
<path fill-rule="evenodd" clip-rule="evenodd" d="M54 22.677C54 22.2681 54.249 21.9004 54.6286 21.7486L58.1772 20.3291C58.5713 20.1715 59 20.4617 59 20.8862V36.323C59 36.7319 58.751 37.0996 58.3714 37.2514L54 39V22.677Z" fill="white" stroke="white" stroke-linecap="round" stroke-linejoin="round"/>
</mask>
<g mask="url(#mask1_165_5440)">
<g style="mix-blend-mode:multiply" opacity="0.6" filter="url(#filter3_i_165_5440)">
<path d="M54.4999 28.8335L60.1922 26.4617C60.4471 26.3555 60.5676 26.0627 60.4614 25.8078C60.3552 25.5529 60.0625 25.4324 59.8076 25.5386L53.8076 28.0386C53.6212 28.1162 54.4999 28.8335 54.4999 28.8335Z" fill="#FABC10"/>
</g>
<g style="mix-blend-mode:multiply" opacity="0.6" filter="url(#filter4_i_165_5440)">
<path d="M54.4999 34.8335L60.1922 32.4617C60.4471 32.3555 60.5676 32.0627 60.4614 31.8078C60.3552 31.5529 60.0625 31.4324 59.8076 31.5386L53.8076 34.0386C53.6212 34.1162 54.4999 34.8335 54.4999 34.8335Z" fill="#FABC10"/>
</g>
<g opacity="0.04">
<path fill-rule="evenodd" clip-rule="evenodd" d="M38.9987 12.6766C37.1423 11.6048 34.8551 11.6048 32.9987 12.6766L17.3002 21.7402C15.4438 22.8119 14.3002 24.7927 14.3002 26.9363V45.0634C14.3002 47.207 15.4438 49.1878 17.3002 50.2596L32.9987 59.3231C34.8551 60.3949 37.1423 60.3949 38.9987 59.3231L54.6973 50.2596C56.5537 49.1878 57.6973 47.207 57.6973 45.0634L57.6973 26.9363C57.6973 24.7927 56.5537 22.8119 54.6973 21.7402L38.9987 12.6766Z" fill="#7705A4" style="mix-blend-mode:multiply"/>
</g>
</g>
<path fill-rule="evenodd" clip-rule="evenodd" d="M18 22.677C18 22.2681 17.751 21.9004 17.3714 21.7486L13.8228 20.3291C13.4287 20.1715 13 20.4617 13 20.8862V36.323C13 36.7319 13.249 37.0996 13.6286 37.2514L18 39V22.677Z" fill="url(#paint2_linear_165_5440)" stroke="url(#paint3_linear_165_5440)" stroke-linecap="round" stroke-linejoin="round"/>
<mask id="mask2_165_5440" style="mask-type:luminance" maskUnits="userSpaceOnUse" x="12" y="19" width="7" height="21">
<path fill-rule="evenodd" clip-rule="evenodd" d="M18 22.677C18 22.2681 17.751 21.9004 17.3714 21.7486L13.8228 20.3291C13.4287 20.1715 13 20.4617 13 20.8862V36.323C13 36.7319 13.249 37.0996 13.6286 37.2514L18 39V22.677Z" fill="white" stroke="white" stroke-linecap="round" stroke-linejoin="round"/>
</mask>
<g mask="url(#mask2_165_5440)">
<g style="mix-blend-mode:multiply" opacity="0.6" filter="url(#filter5_i_165_5440)">
<path d="M17.5001 28.8335L11.8078 26.4617C11.5529 26.3555 11.4324 26.0627 11.5386 25.8078C11.6448 25.5529 11.9375 25.4324 12.1924 25.5386L18.1924 28.0386C18.3788 28.1162 17.5001 28.8335 17.5001 28.8335Z" fill="#FABC10"/>
</g>
<g style="mix-blend-mode:multiply" opacity="0.6" filter="url(#filter6_i_165_5440)">
<path d="M17.5001 34.8335L11.8078 32.4617C11.5529 32.3555 11.4324 32.0627 11.5386 31.8078C11.6448 31.5529 11.9375 31.4324 12.1924 31.5386L18.1924 34.0386C18.3788 34.1162 17.5001 34.8335 17.5001 34.8335Z" fill="#FABC10"/>
</g>
<g opacity="0.04">
<path fill-rule="evenodd" clip-rule="evenodd" d="M32.9983 12.6766C34.8547 11.6048 37.1419 11.6048 38.9983 12.6766L54.6968 21.7402C56.5533 22.8119 57.6968 24.7927 57.6968 26.9363V45.0634C57.6968 47.207 56.5533 49.1878 54.6968 50.2596L38.9983 59.3231C37.1419 60.3949 34.8547 60.3949 32.9983 59.3231L17.2998 50.2596C15.4434 49.1878 14.2998 47.207 14.2998 45.0634L14.2998 26.9363C14.2998 24.7927 15.4434 22.8119 17.2998 21.7402L32.9983 12.6766Z" fill="#7705A4" style="mix-blend-mode:multiply"/>
</g>
</g>
<path fill-rule="evenodd" clip-rule="evenodd" d="M50 17.3256C50 16.6612 49.3641 16.1815 48.7253 16.364L36 19.9998L23.2747 16.364C22.6359 16.1815 22 16.6612 22 17.3256V31.9998C22 32.5521 22.4477 32.9998 23 32.9998H49C49.5523 32.9998 50 32.5521 50 31.9998V17.3256Z" fill="url(#paint4_linear_165_5440)" stroke="url(#paint5_linear_165_5440)" stroke-linecap="round" stroke-linejoin="round"/>
<path fill-rule="evenodd" clip-rule="evenodd" d="M34 14.1547C35.2376 13.4402 36.7624 13.4402 38 14.1547L53.9186 23.3453C55.1562 24.0598 55.9186 25.3803 55.9186 26.8094V45.1906C55.9186 46.6197 55.1562 47.9402 53.9186 48.6547L38 57.8453C36.7624 58.5598 35.2376 58.5598 34 57.8453L18.0814 48.6547C16.8438 47.9402 16.0814 46.6197 16.0814 45.1906V26.8094C16.0814 25.3803 16.8438 24.0598 18.0814 23.3453L34 14.1547Z" fill="url(#paint6_linear_165_5440)" stroke="#FFF04D" stroke-opacity="0.4"/>
<g style="mix-blend-mode:multiply" opacity="0.8" filter="url(#filter7_i_165_5440)">
<path fill-rule="evenodd" clip-rule="evenodd" d="M51.6712 25.1886L37.5167 17.0069C36.5783 16.4645 35.4221 16.4645 34.4836 17.0069L20.3292 25.1886C19.3908 25.7311 18.8127 26.7335 18.8127 27.8184V33.7208L17.6652 35.444C17.4417 35.7797 17.4417 36.2169 17.6652 36.5525L18.8127 38.2758V44.1818C18.8127 45.2667 19.3908 46.2691 20.3292 46.8116L34.4836 54.9933C35.4221 55.5357 36.5783 55.5357 37.5167 54.9933L51.6712 46.8116C52.6096 46.2691 53.1877 45.2667 53.1877 44.1818V38.2758L54.3352 36.5525C54.5587 36.2169 54.5587 35.7797 54.3352 35.444L53.1877 33.7208V27.8184C53.1877 26.7335 52.6096 25.7311 51.6712 25.1886ZM19.8237 38.2759V44.1817C19.8237 44.905 20.2091 45.5733 20.8347 45.935L34.9891 54.1166C35.6148 54.4783 36.3856 54.4783 37.0112 54.1166L51.1656 45.935C51.7913 45.5733 52.1767 44.905 52.1767 44.1817V38.2758L51.0292 36.5525C50.8057 36.2169 50.8057 35.7797 51.0292 35.444L52.1767 33.7208V27.8184C52.1767 27.0951 51.7913 26.4268 51.1656 26.0652L37.0112 17.8835C36.3856 17.5219 35.6148 17.5219 34.9891 17.8835L20.8347 26.0652C20.2091 26.4268 19.8237 27.0951 19.8237 27.8184V33.7207L20.9712 35.444C21.1947 35.7797 21.1947 36.2169 20.9712 36.5525L19.8237 38.2759Z" fill="#FABC10"/>
</g>
<path d="M37.7501 14.5876C36.6672 13.9623 35.333 13.9623 34.2501 14.5876L18.3315 23.7782C17.2486 24.4034 16.5815 25.5588 16.5815 26.8093L16.5815 45.1904C16.5815 46.4409 17.2486 47.5963 18.3315 48.2215L34.2501 57.4121C35.333 58.0374 36.6672 58.0374 37.7501 57.4121L53.6687 48.2215C54.7516 47.5963 55.4187 46.4409 55.4187 45.1904V26.8093C55.4187 25.5588 54.7516 24.4034 53.6687 23.7782L37.7501 14.5876Z" stroke="#F9B307"/>
<path opacity="0.4" d="M37.75 57.4124C39.6222 56.3315 40.9487 55.5656 41.7296 55.1147" stroke="white" stroke-linecap="round"/>
<path d="M55.4187 45.1905V26.8093C55.4187 25.5588 54.7516 24.4034 53.6687 23.7782L37.7501 14.5876C36.6672 13.9623 35.333 13.9623 34.2501 14.5876L18.3315 23.7782C17.2486 24.4034 16.5815 25.5588 16.5815 26.8093L16.5815 45.1905" stroke="#FAC00E" stroke-linecap="round"/>
<path opacity="0.6" d="M55.4187 26.8093C55.4187 25.5588 54.7516 24.4034 53.6687 23.7782L37.7501 14.5876C36.6672 13.9623 35.333 13.9623 34.2501 14.5876L18.3315 23.7782C17.2486 24.4034 16.5815 25.5588 16.5815 26.8093" stroke="#FDDB3D" stroke-linecap="round"/>
<path opacity="0.6" d="M37.7498 14.5876C36.6669 13.9623 35.3327 13.9623 34.2498 14.5876C34.2498 14.5876 28.9436 17.6511 26.2905 19.1829" stroke="white" stroke-linecap="round"/>
<path d="M34.2502 14.5879C34.2502 14.5879 31.4419 16.2092 30.2705 16.8855" stroke="white" stroke-linecap="round"/>
<g filter="url(#filter8_d_165_5440)">
<path fill-rule="evenodd" clip-rule="evenodd" d="M35 20.5774C35.6188 20.2201 36.3812 20.2201 37 20.5774L48.8564 27.4226C49.4752 27.7799 49.8564 28.4402 49.8564 29.1547V42.8453C49.8564 43.5598 49.4752 44.2201 48.8564 44.5774L37 51.4226C36.3812 51.7799 35.6188 51.7799 35 51.4226L23.1436 44.5774C22.5248 44.2201 22.1436 43.5598 22.1436 42.8453V29.1547C22.1436 28.4402 22.5248 27.7799 23.1436 27.4226L35 20.5774Z" fill="url(#paint7_linear_165_5440)"/>
<path d="M49.1064 26.9896L37.25 20.1443C36.4765 19.6978 35.5235 19.6978 34.75 20.1443L22.8936 26.9896C22.1201 27.4362 21.6436 28.2615 21.6436 29.1547V42.8453C21.6436 43.7385 22.1201 44.5638 22.8936 45.0104L34.75 51.8557C35.5235 52.3022 36.4765 52.3022 37.25 51.8557L49.1064 45.0104C49.8799 44.5638 50.3564 43.7385 50.3564 42.8453V29.1547C50.3564 28.2615 49.8799 27.4362 49.1064 26.9896Z" stroke="#F5900D" stroke-opacity="0.1" style="mix-blend-mode:multiply"/>
</g>
<mask id="mask3_165_5440" style="mask-type:luminance" maskUnits="userSpaceOnUse" x="22" y="20" width="28" height="32">
<path fill-rule="evenodd" clip-rule="evenodd" d="M35 20.5774C35.6188 20.2201 36.3812 20.2201 37 20.5774L48.8564 27.4226C49.4752 27.7799 49.8564 28.4402 49.8564 29.1547V42.8453C49.8564 43.5598 49.4752 44.2201 48.8564 44.5774L37 51.4226C36.3812 51.7799 35.6188 51.7799 35 51.4226L23.1436 44.5774C22.5248 44.2201 22.1436 43.5598 22.1436 42.8453V29.1547C22.1436 28.4402 22.5248 27.7799 23.1436 27.4226L35 20.5774Z" fill="white"/>
</mask>
<g mask="url(#mask3_165_5440)">
<g style="mix-blend-mode:multiply" opacity="0.3">
<path fill-rule="evenodd" clip-rule="evenodd" d="M36 36L40 20H32L36 36ZM36 36L52 32V40L36 36ZM36 36L44.4853 21.8579L50.1421 27.5147L36 36ZM36 36L44.4853 50.1421L50.1421 44.4853L36 36ZM36 36L32 52H40L36 36ZM36 36L20 40V32L36 36ZM36 36L27.5147 50.1421L21.8579 44.4853L36 36ZM27.5147 21.8579L21.8579 27.5147L36 36L27.5147 21.8579Z" fill="#FFD640"/>
</g>
<path opacity="0.4" d="M48.6064 27.8558L36.75 21.0105C36.2859 20.7426 35.7141 20.7426 35.25 21.0105C33.8555 21.8156 32.8675 22.386 32.2859 22.7219C31.0754 23.4207 30.0873 23.9912 29.3218 24.4332C28.0044 25.1938 26.0283 26.3347 23.3936 27.8558" stroke="white" stroke-linecap="round"/>
<path opacity="0.4" d="M48.6064 44.11L36.75 50.9553C36.2859 51.2232 35.7141 51.2232 35.25 50.9553" stroke="white" stroke-linecap="round"/>
<path d="M35.2497 21.0107C33.8553 21.8158 32.8673 22.3863 32.2856 22.7221" stroke="white" stroke-linecap="round"/>
</g>
<g filter="url(#filter9_d_165_5440)">
<path fill-rule="evenodd" clip-rule="evenodd" d="M36 27L44 36L36 45L28 36L36 27Z" fill="white"/>
<path d="M36.7474 26.3356C36.5576 26.1221 36.2856 26 36 26C35.7144 26 35.4424 26.1221 35.2526 26.3356L27.2526 35.3356C26.9158 35.7145 26.9158 36.2855 27.2526 36.6644L35.2526 45.6644C35.4424 45.8779 35.7144 46 36 46C36.2856 46 36.5576 45.8779 36.7474 45.6644L44.7474 36.6644C45.0842 36.2855 45.0842 35.7145 44.7474 35.3356L36.7474 26.3356Z" stroke="white" stroke-width="2" stroke-linejoin="round"/>
</g>
<path fill-rule="evenodd" clip-rule="evenodd" d="M36 27L44 36H28L36 27Z" fill="url(#paint8_linear_165_5440)"/>
<path fill-rule="evenodd" clip-rule="evenodd" d="M36 45L44 36H28L36 45Z" fill="url(#paint9_linear_165_5440)"/>
<path fill-rule="evenodd" clip-rule="evenodd" d="M36.0002 27L32.1431 36H39.8574L36.0002 27Z" fill="url(#paint10_linear_165_5440)"/>
<path fill-rule="evenodd" clip-rule="evenodd" d="M36.0002 45L32.1431 36H39.8574L36.0002 45Z" fill="url(#paint11_linear_165_5440)"/>
<g filter="url(#filter10_d_165_5440)">
<path fill-rule="evenodd" clip-rule="evenodd" d="M46.9109 29.7799L46.3916 29.5751C46.0739 29.4498 45.918 29.0908 46.0433 28.7732C46.1061 28.6138 46.2322 28.4877 46.3916 28.4249L46.9109 28.2201C47.5098 27.9839 47.9839 27.5098 48.2201 26.9109L48.4249 26.3916C48.5502 26.0739 48.9092 25.918 49.2268 26.0433C49.3862 26.1061 49.5123 26.2322 49.5751 26.3916L49.7799 26.9109C50.0161 27.5098 50.4902 27.9839 51.0891 28.2201L51.6084 28.4249C51.9261 28.5502 52.082 28.9092 51.9567 29.2268C51.8939 29.3862 51.7678 29.5123 51.6084 29.5751L51.0891 29.7799C50.4902 30.0161 50.0161 30.4902 49.7799 31.0891L49.5751 31.6084C49.4498 31.9261 49.0908 32.082 48.7732 31.9567C48.6138 31.8939 48.4877 31.7678 48.4249 31.6084L48.2201 31.0891C47.9839 30.4902 47.5098 30.0161 46.9109 29.7799Z" fill="white"/>
</g>
<g filter="url(#filter11_d_165_5440)">
<path fill-rule="evenodd" clip-rule="evenodd" d="M26.6073 45.52L26.261 45.3834C26.0493 45.2999 25.9453 45.0605 26.0289 44.8488C26.0707 44.7426 26.1548 44.6585 26.261 44.6166L26.6073 44.48C27.0065 44.3226 27.3226 44.0065 27.48 43.6073L27.6166 43.261C27.7001 43.0493 27.9395 42.9453 28.1512 43.0289C28.2574 43.0707 28.3415 43.1548 28.3834 43.261L28.52 43.6073C28.6774 44.0065 28.9935 44.3226 29.3927 44.48L29.739 44.6166C29.9507 44.7001 30.0547 44.9395 29.9711 45.1512C29.9293 45.2574 29.8452 45.3415 29.739 45.3834L29.3927 45.52C28.9935 45.6774 28.6774 45.9935 28.52 46.3927L28.3834 46.739C28.2999 46.9507 28.0605 47.0547 27.8488 46.9711C27.7426 46.9293 27.6585 46.8452 27.6166 46.739L27.48 46.3927C27.3226 45.9935 27.0065 45.6774 26.6073 45.52Z" fill="white"/>
</g>
<g filter="url(#filter12_d_165_5440)">
<path fill-rule="evenodd" clip-rule="evenodd" d="M20.7591 31.1499L20.3263 30.9793C20.0616 30.8749 19.9317 30.5757 20.0361 30.311C20.0884 30.1782 20.1935 30.0731 20.3263 30.0207L20.7591 29.8501C21.2582 29.6532 21.6532 29.2582 21.8501 28.7591L22.0207 28.3263C22.1251 28.0616 22.4243 27.9317 22.689 28.0361C22.8218 28.0884 22.9269 28.1935 22.9793 28.3263L23.1499 28.7591C23.3468 29.2582 23.7418 29.6532 24.2409 29.8501L24.6737 30.0207C24.9384 30.1251 25.0683 30.4243 24.9639 30.689C24.9116 30.8218 24.8065 30.9269 24.6737 30.9793L24.2409 31.1499C23.7418 31.3468 23.3468 31.7418 23.1499 32.2409L22.9793 32.6737C22.8749 32.9384 22.5757 33.0683 22.311 32.9639C22.1782 32.9116 22.0731 32.8065 22.0207 32.6737L21.8501 32.2409C21.6532 31.7418 21.2582 31.3468 20.7591 31.1499Z" fill="white"/>
</g>
<g filter="url(#filter13_d_165_5440)">
<path fill-rule="evenodd" clip-rule="evenodd" d="M46.4555 45.89L46.1958 45.7876C46.037 45.7249 45.959 45.5454 46.0216 45.3866C46.0531 45.3069 46.1161 45.2439 46.1958 45.2124L46.4555 45.11C46.7549 44.9919 46.9919 44.7549 47.11 44.4555L47.2124 44.1958C47.2751 44.037 47.4546 43.959 47.6134 44.0216C47.6931 44.0531 47.7561 44.1161 47.7876 44.1958L47.89 44.4555C48.0081 44.7549 48.2451 44.9919 48.5445 45.11L48.8042 45.2124C48.963 45.2751 49.041 45.4546 48.9784 45.6134C48.9469 45.6931 48.8839 45.7561 48.8042 45.7876L48.5445 45.89C48.2451 46.0081 48.0081 46.2451 47.89 46.5445L47.7876 46.8042C47.7249 46.963 47.5454 47.041 47.3866 46.9784C47.3069 46.9469 47.2439 46.8839 47.2124 46.8042L47.11 46.5445C46.9919 46.2451 46.7549 46.0081 46.4555 45.89Z" fill="white"/>
</g>
<defs>
<filter id="filter0_d_165_5440" x="20" y="33" width="20" height="35.3833" filterUnits="userSpaceOnUse" color-interpolation-filters="sRGB">
<feFlood flood-opacity="0" result="BackgroundImageFix"/>
<feColorMatrix in="SourceAlpha" type="matrix" values="0 0 0 0 0 0 0 0 0 0 0 0 0 0 0 0 0 0 127 0" result="hardAlpha"/>
<feOffset dy="2"/>
<feGaussianBlur stdDeviation="1"/>
<feColorMatrix type="matrix" values="0 0 0 0 0.309804 0 0 0 0 0.247059 0 0 0 0 0.866667 0 0 0 0.2 0"/>
<feBlend mode="darken" in2="BackgroundImageFix" result="effect1_dropShadow_165_5440"/>
<feBlend mode="normal" in="SourceGraphic" in2="effect1_dropShadow_165_5440" result="shape"/>
</filter>
<filter id="filter1_d_165_5440" x="32" y="33" width="20" height="35.3833" filterUnits="userSpaceOnUse" color-interpolation-filters="sRGB">
<feFlood flood-opacity="0" result="BackgroundImageFix"/>
<feColorMatrix in="SourceAlpha" type="matrix" values="0 0 0 0 0 0 0 0 0 0 0 0 0 0 0 0 0 0 127 0" result="hardAlpha"/>
<feOffset dy="2"/>
<feGaussianBlur stdDeviation="1"/>
<feColorMatrix type="matrix" values="0 0 0 0 0.309804 0 0 0 0 0.247059 0 0 0 0 0.866667 0 0 0 0.2 0"/>
<feBlend mode="darken" in2="BackgroundImageFix" result="effect1_dropShadow_165_5440"/>
<feBlend mode="normal" in="SourceGraphic" in2="effect1_dropShadow_165_5440" result="shape"/>
</filter>
<filter id="filter2_d_165_5440" x="26" y="38" width="20" height="35.3833" filterUnits="userSpaceOnUse" color-interpolation-filters="sRGB">
<feFlood flood-opacity="0" result="BackgroundImageFix"/>
<feColorMatrix in="SourceAlpha" type="matrix" values="0 0 0 0 0 0 0 0 0 0 0 0 0 0 0 0 0 0 127 0" result="hardAlpha"/>
<feOffset dy="2"/>
<feGaussianBlur stdDeviation="1"/>
<feColorMatrix type="matrix" values="0 0 0 0 0.309804 0 0 0 0 0.247059 0 0 0 0 0.866667 0 0 0 0.2 0"/>
<feBlend mode="darken" in2="BackgroundImageFix" result="effect1_dropShadow_165_5440"/>
<feBlend mode="normal" in="SourceGraphic" in2="effect1_dropShadow_165_5440" result="shape"/>
</filter>
<filter id="filter3_i_165_5440" x="53.7817" y="25.5" width="6.71826" height="4.3335" filterUnits="userSpaceOnUse" color-interpolation-filters="sRGB">
<feFlood flood-opacity="0" result="BackgroundImageFix"/>
<feBlend mode="normal" in="SourceGraphic" in2="BackgroundImageFix" result="shape"/>
<feColorMatrix in="SourceAlpha" type="matrix" values="0 0 0 0 0 0 0 0 0 0 0 0 0 0 0 0 0 0 127 0" result="hardAlpha"/>
<feOffset dy="1"/>
<feGaussianBlur stdDeviation="0.5"/>
<feComposite in2="hardAlpha" operator="arithmetic" k2="-1" k3="1"/>
<feColorMatrix type="matrix" values="0 0 0 0 0.976471 0 0 0 0 0.713726 0 0 0 0 0.0352941 0 0 0 1 0"/>
<feBlend mode="normal" in2="shape" result="effect1_innerShadow_165_5440"/>
</filter>
<filter id="filter4_i_165_5440" x="53.7817" y="31.5" width="6.71826" height="4.3335" filterUnits="userSpaceOnUse" color-interpolation-filters="sRGB">
<feFlood flood-opacity="0" result="BackgroundImageFix"/>
<feBlend mode="normal" in="SourceGraphic" in2="BackgroundImageFix" result="shape"/>
<feColorMatrix in="SourceAlpha" type="matrix" values="0 0 0 0 0 0 0 0 0 0 0 0 0 0 0 0 0 0 127 0" result="hardAlpha"/>
<feOffset dy="1"/>
<feGaussianBlur stdDeviation="0.5"/>
<feComposite in2="hardAlpha" operator="arithmetic" k2="-1" k3="1"/>
<feColorMatrix type="matrix" values="0 0 0 0 0.976471 0 0 0 0 0.713726 0 0 0 0 0.0352941 0 0 0 1 0"/>
<feBlend mode="normal" in2="shape" result="effect1_innerShadow_165_5440"/>
</filter>
<filter id="filter5_i_165_5440" x="11.5" y="25.5" width="6.71826" height="4.3335" filterUnits="userSpaceOnUse" color-interpolation-filters="sRGB">
<feFlood flood-opacity="0" result="BackgroundImageFix"/>
<feBlend mode="normal" in="SourceGraphic" in2="BackgroundImageFix" result="shape"/>
<feColorMatrix in="SourceAlpha" type="matrix" values="0 0 0 0 0 0 0 0 0 0 0 0 0 0 0 0 0 0 127 0" result="hardAlpha"/>
<feOffset dy="1"/>
<feGaussianBlur stdDeviation="0.5"/>
<feComposite in2="hardAlpha" operator="arithmetic" k2="-1" k3="1"/>
<feColorMatrix type="matrix" values="0 0 0 0 0.976471 0 0 0 0 0.713726 0 0 0 0 0.0352941 0 0 0 1 0"/>
<feBlend mode="normal" in2="shape" result="effect1_innerShadow_165_5440"/>
</filter>
<filter id="filter6_i_165_5440" x="11.5" y="31.5" width="6.71826" height="4.3335" filterUnits="userSpaceOnUse" color-interpolation-filters="sRGB">
<feFlood flood-opacity="0" result="BackgroundImageFix"/>
<feBlend mode="normal" in="SourceGraphic" in2="BackgroundImageFix" result="shape"/>
<feColorMatrix in="SourceAlpha" type="matrix" values="0 0 0 0 0 0 0 0 0 0 0 0 0 0 0 0 0 0 127 0" result="hardAlpha"/>
<feOffset dy="1"/>
<feGaussianBlur stdDeviation="0.5"/>
<feComposite in2="hardAlpha" operator="arithmetic" k2="-1" k3="1"/>
<feColorMatrix type="matrix" values="0 0 0 0 0.976471 0 0 0 0 0.713726 0 0 0 0 0.0352941 0 0 0 1 0"/>
<feBlend mode="normal" in2="shape" result="effect1_innerShadow_165_5440"/>
</filter>
<filter id="filter7_i_165_5440" x="17.4976" y="16.6001" width="37.0054" height="39.7998" filterUnits="userSpaceOnUse" color-interpolation-filters="sRGB">
<feFlood flood-opacity="0" result="BackgroundImageFix"/>
<feBlend mode="normal" in="SourceGraphic" in2="BackgroundImageFix" result="shape"/>
<feColorMatrix in="SourceAlpha" type="matrix" values="0 0 0 0 0 0 0 0 0 0 0 0 0 0 0 0 0 0 127 0" result="hardAlpha"/>
<feOffset dy="1"/>
<feGaussianBlur stdDeviation="0.5"/>
<feComposite in2="hardAlpha" operator="arithmetic" k2="-1" k3="1"/>
<feColorMatrix type="matrix" values="0 0 0 0 0.976471 0 0 0 0 0.713726 0 0 0 0 0.0352941 0 0 0 1 0"/>
<feBlend mode="normal" in2="shape" result="effect1_innerShadow_165_5440"/>
</filter>
<filter id="filter8_d_165_5440" x="19.1436" y="18.3096" width="33.7129" height="37.3809" filterUnits="userSpaceOnUse" color-interpolation-filters="sRGB">
<feFlood flood-opacity="0" result="BackgroundImageFix"/>
<feColorMatrix in="SourceAlpha" type="matrix" values="0 0 0 0 0 0 0 0 0 0 0 0 0 0 0 0 0 0 127 0" result="hardAlpha"/>
<feOffset dy="1"/>
<feGaussianBlur stdDeviation="1"/>
<feColorMatrix type="matrix" values="0 0 0 0 0.927721 0 0 0 0 0.665867 0 0 0 0 0.0535899 0 0 0 0.4 0"/>
<feBlend mode="normal" in2="BackgroundImageFix" result="effect1_dropShadow_165_5440"/>
<feBlend mode="normal" in="SourceGraphic" in2="effect1_dropShadow_165_5440" result="shape"/>
</filter>
<filter id="filter9_d_165_5440" x="24" y="24" width="24" height="26" filterUnits="userSpaceOnUse" color-interpolation-filters="sRGB">
<feFlood flood-opacity="0" result="BackgroundImageFix"/>
<feColorMatrix in="SourceAlpha" type="matrix" values="0 0 0 0 0 0 0 0 0 0 0 0 0 0 0 0 0 0 127 0" result="hardAlpha"/>
<feOffset dy="1"/>
<feGaussianBlur stdDeviation="1"/>
<feColorMatrix type="matrix" values="0 0 0 0 0.996078 0 0 0 0 0.733333 0 0 0 0 0.105882 0 0 0 1 0"/>
<feBlend mode="normal" in2="BackgroundImageFix" result="effect1_dropShadow_165_5440"/>
<feBlend mode="normal" in="SourceGraphic" in2="effect1_dropShadow_165_5440" result="shape"/>
</filter>
<filter id="filter10_d_165_5440" x="44" y="24" width="10" height="10" filterUnits="userSpaceOnUse" color-interpolation-filters="sRGB">
<feFlood flood-opacity="0" result="BackgroundImageFix"/>
<feColorMatrix in="SourceAlpha" type="matrix" values="0 0 0 0 0 0 0 0 0 0 0 0 0 0 0 0 0 0 127 0" result="hardAlpha"/>
<feOffset/>
<feGaussianBlur stdDeviation="1"/>
<feColorMatrix type="matrix" values="0 0 0 0 1 0 0 0 0 0.94902 0 0 0 0 0.305882 0 0 0 1 0"/>
<feBlend mode="normal" in2="BackgroundImageFix" result="effect1_dropShadow_165_5440"/>
<feBlend mode="normal" in="SourceGraphic" in2="effect1_dropShadow_165_5440" result="shape"/>
</filter>
<filter id="filter11_d_165_5440" x="24" y="41" width="8" height="8" filterUnits="userSpaceOnUse" color-interpolation-filters="sRGB">
<feFlood flood-opacity="0" result="BackgroundImageFix"/>
<feColorMatrix in="SourceAlpha" type="matrix" values="0 0 0 0 0 0 0 0 0 0 0 0 0 0 0 0 0 0 127 0" result="hardAlpha"/>
<feOffset/>
<feGaussianBlur stdDeviation="1"/>
<feColorMatrix type="matrix" values="0 0 0 0 1 0 0 0 0 0.94902 0 0 0 0 0.305882 0 0 0 1 0"/>
<feBlend mode="normal" in2="BackgroundImageFix" result="effect1_dropShadow_165_5440"/>
<feBlend mode="normal" in="SourceGraphic" in2="effect1_dropShadow_165_5440" result="shape"/>
</filter>
<filter id="filter12_d_165_5440" x="18" y="26" width="9" height="9" filterUnits="userSpaceOnUse" color-interpolation-filters="sRGB">
<feFlood flood-opacity="0" result="BackgroundImageFix"/>
<feColorMatrix in="SourceAlpha" type="matrix" values="0 0 0 0 0 0 0 0 0 0 0 0 0 0 0 0 0 0 127 0" result="hardAlpha"/>
<feOffset/>
<feGaussianBlur stdDeviation="1"/>
<feColorMatrix type="matrix" values="0 0 0 0 1 0 0 0 0 0.94902 0 0 0 0 0.305882 0 0 0 1 0"/>
<feBlend mode="normal" in2="BackgroundImageFix" result="effect1_dropShadow_165_5440"/>
<feBlend mode="normal" in="SourceGraphic" in2="effect1_dropShadow_165_5440" result="shape"/>
</filter>
<filter id="filter13_d_165_5440" x="44" y="42" width="7" height="7" filterUnits="userSpaceOnUse" color-interpolation-filters="sRGB">
<feFlood flood-opacity="0" result="BackgroundImageFix"/>
<feColorMatrix in="SourceAlpha" type="matrix" values="0 0 0 0 0 0 0 0 0 0 0 0 0 0 0 0 0 0 127 0" result="hardAlpha"/>
<feOffset/>
<feGaussianBlur stdDeviation="1"/>
<feColorMatrix type="matrix" values="0 0 0 0 1 0 0 0 0 0.94902 0 0 0 0 0.305882 0 0 0 1 0"/>
<feBlend mode="normal" in2="BackgroundImageFix" result="effect1_dropShadow_165_5440"/>
<feBlend mode="normal" in="SourceGraphic" in2="effect1_dropShadow_165_5440" result="shape"/>
</filter>
<linearGradient id="paint0_linear_165_5440" x1="59" y1="20" x2="59" y2="39" gradientUnits="userSpaceOnUse">
<stop stop-color="#F7C71A"/>
<stop offset="1" stop-color="#FBAA00"/>
</linearGradient>
<linearGradient id="paint1_linear_165_5440" x1="59" y1="20" x2="59" y2="39" gradientUnits="userSpaceOnUse">
<stop stop-color="#FFDF6B"/>
<stop offset="1" stop-color="#F8A60A"/>
</linearGradient>
<linearGradient id="paint2_linear_165_5440" x1="13" y1="20" x2="13" y2="39" gradientUnits="userSpaceOnUse">
<stop stop-color="#F7C71A"/>
<stop offset="1" stop-color="#FBAA00"/>
</linearGradient>
<linearGradient id="paint3_linear_165_5440" x1="13" y1="20" x2="13" y2="39" gradientUnits="userSpaceOnUse">
<stop stop-color="#FFDF6B"/>
<stop offset="1" stop-color="#F8A60A"/>
</linearGradient>
<linearGradient id="paint4_linear_165_5440" x1="22" y1="16.3535" x2="22" y2="32.9998" gradientUnits="userSpaceOnUse">
<stop stop-color="#F7C71A"/>
<stop offset="1" stop-color="#FBAA00"/>
</linearGradient>
<linearGradient id="paint5_linear_165_5440" x1="22" y1="16.3535" x2="22" y2="32.9998" gradientUnits="userSpaceOnUse">
<stop stop-color="#FFDF6B"/>
<stop offset="1" stop-color="#F8A60A"/>
</linearGradient>
<linearGradient id="paint6_linear_165_5440" x1="13" y1="13" x2="13" y2="59" gradientUnits="userSpaceOnUse">
<stop stop-color="#FDE046"/>
<stop offset="1" stop-color="#F9B800"/>
</linearGradient>
<linearGradient id="paint7_linear_165_5440" x1="20" y1="20" x2="20" y2="52" gradientUnits="userSpaceOnUse">
<stop stop-color="#FFF550"/>
<stop offset="1" stop-color="#FFD541"/>
</linearGradient>
<linearGradient id="paint8_linear_165_5440" x1="28" y1="27" x2="28" y2="36" gradientUnits="userSpaceOnUse">
<stop stop-color="#27DEEB"/>
<stop offset="1" stop-color="#08C9FF"/>
</linearGradient>
<linearGradient id="paint9_linear_165_5440" x1="28" y1="36" x2="28" y2="45" gradientUnits="userSpaceOnUse">
<stop stop-color="#009BF6"/>
<stop offset="1" stop-color="#00B5FF"/>
</linearGradient>
<linearGradient id="paint10_linear_165_5440" x1="32.1431" y1="27" x2="32.1431" y2="36" gradientUnits="userSpaceOnUse">
<stop stop-color="#8AFFFF"/>
<stop offset="1" stop-color="#0DF3FF"/>
</linearGradient>
<linearGradient id="paint11_linear_165_5440" x1="32.1431" y1="36" x2="32.1431" y2="45" gradientUnits="userSpaceOnUse">
<stop stop-color="#00BAF3"/>
<stop offset="1" stop-color="#00B5FF"/>
</linearGradient>
</defs>
</svg>
