<svg width="72" height="74" viewBox="0 0 72 74" fill="none" xmlns="http://www.w3.org/2000/svg">
<g filter="url(#filter0_d_165_5279)">
<path fill-rule="evenodd" clip-rule="evenodd" d="M28 36H44V68.3364C44 69.0906 43.1969 69.5734 42.5308 69.2195L36 65.75L29.4692 69.2195C28.8031 69.5734 28 69.0906 28 68.3364V36Z" fill="#12AAB5"/>
</g>
<mask id="mask0_165_5279" style="mask-type:luminance" maskUnits="userSpaceOnUse" x="28" y="36" width="16" height="34">
<path fill-rule="evenodd" clip-rule="evenodd" d="M28 36H44V68.3364C44 69.0906 43.1969 69.5734 42.5308 69.2195L36 65.75L29.4692 69.2195C28.8031 69.5734 28 69.0906 28 68.3364V36Z" fill="white"/>
</mask>
<g mask="url(#mask0_165_5279)">
<path fill-rule="evenodd" clip-rule="evenodd" d="M32 52H40V70H32V52Z" fill="white"/>
</g>
<path style="mix-blend-mode:multiply" opacity="0.2" fill-rule="evenodd" clip-rule="evenodd" d="M33.6489 16.7082C35.0508 15.6896 36.9492 15.6896 38.3511 16.7082L55.5232 29.1844C56.9251 30.203 57.5117 32.0085 56.9762 33.6565L50.4171 53.8435C49.8816 55.4916 48.3458 56.6074 46.6129 56.6074H25.3871C23.6542 56.6074 22.1184 55.4916 21.5829 53.8435L15.0238 33.6565C14.4883 32.0084 15.0749 30.203 16.4768 29.1844L33.6489 16.7082Z" fill="#18AC6C"/>
<path fill-rule="evenodd" clip-rule="evenodd" d="M33.6489 14.7082C35.0508 13.6896 36.9492 13.6896 38.3511 14.7082L55.5232 27.1844C56.9251 28.203 57.5117 30.0085 56.9762 31.6565L50.4171 51.8435C49.8816 53.4916 48.3458 54.6074 46.6129 54.6074H25.3871C23.6542 54.6074 22.1184 53.4916 21.5829 51.8435L15.0238 31.6565C14.4883 30.0084 15.0749 28.203 16.4768 27.1844L33.6489 14.7082Z" fill="url(#paint0_linear_165_5279)"/>
<mask id="mask1_165_5279" style="mask-type:luminance" maskUnits="userSpaceOnUse" x="14" y="13" width="44" height="42">
<path fill-rule="evenodd" clip-rule="evenodd" d="M33.6489 14.7082C35.0508 13.6896 36.9492 13.6896 38.3511 14.7082L55.5232 27.1844C56.9251 28.203 57.5117 30.0085 56.9762 31.6565L50.4171 51.8435C49.8816 53.4916 48.3458 54.6074 46.6129 54.6074H25.3871C23.6542 54.6074 22.1184 53.4916 21.5829 51.8435L15.0238 31.6565C14.4883 30.0084 15.0749 28.203 16.4768 27.1844L33.6489 14.7082Z" fill="white"/>
</mask>
<g mask="url(#mask1_165_5279)">
<path d="M38.0571 15.1128C36.8304 14.2215 35.1694 14.2215 33.9426 15.1128L16.7706 27.589C15.5439 28.4802 15.0306 30.06 15.4992 31.5021L22.0583 51.689C22.5269 53.1311 23.8707 54.1075 25.387 54.1075H46.6128C48.1291 54.1075 49.4729 53.1311 49.9415 51.689L56.5006 31.5021C56.9692 30.06 56.4559 28.4802 55.2292 27.589L38.0571 15.1128Z" stroke="#E67515"/>
<path d="M49.9414 51.6889L56.5005 31.502" stroke="#F68A2C" stroke-linecap="round"/>
<path d="M15.4995 31.502L22.0586 51.6889" stroke="#F68A2C" stroke-linecap="round"/>
<path d="M56.5006 31.5021C56.9692 30.06 56.4559 28.4802 55.2292 27.589L38.0571 15.1128C36.8304 14.2215 35.1694 14.2215 33.9426 15.1128L16.7706 27.589C15.5439 28.4802 15.0306 30.06 15.4992 31.5021" stroke="#FAA953" stroke-linecap="round"/>
<path opacity="0.3" d="M38.057 15.1128C36.8303 14.2215 35.1692 14.2215 33.9425 15.1128L16.7705 27.589" stroke="white" stroke-linecap="round"/>
<path d="M33.9429 15.1128L29.6499 18.2318" stroke="white" stroke-linecap="round"/>
</g>
<g filter="url(#filter1_d_165_5279)">
<path fill-rule="evenodd" clip-rule="evenodd" d="M34.8244 20.8541C35.5254 20.3448 36.4746 20.3448 37.1756 20.8541L50.0413 30.2016C50.7423 30.7109 51.0356 31.6136 50.7679 32.4377L45.8536 47.5623C45.5858 48.3864 44.8179 48.9443 43.9515 48.9443H28.0485C27.1821 48.9443 26.4142 48.3864 26.1464 47.5623L21.2321 32.4377C20.9644 31.6136 21.2577 30.7109 21.9587 30.2016L34.8244 20.8541Z" fill="url(#paint1_linear_165_5279)"/>
<path d="M50.3352 29.7971L37.4695 20.4496C36.5932 19.813 35.4068 19.813 34.5305 20.4496L21.6648 29.7971C20.7886 30.4337 20.4219 31.5621 20.7566 32.5922L25.6709 47.7168C26.0056 48.7469 26.9655 49.4443 28.0485 49.4443H43.9515C45.0345 49.4443 45.9944 48.7469 46.3291 47.7168L51.2434 32.5922C51.5781 31.5621 51.2114 30.4337 50.3352 29.7971Z" stroke="#E86A00" stroke-opacity="0.06"/>
</g>
<mask id="mask2_165_5279" style="mask-type:luminance" maskUnits="userSpaceOnUse" x="21" y="20" width="30" height="29">
<path fill-rule="evenodd" clip-rule="evenodd" d="M34.8244 20.8541C35.5254 20.3448 36.4746 20.3448 37.1756 20.8541L50.0413 30.2016C50.7423 30.7109 51.0356 31.6136 50.7679 32.4377L45.8536 47.5623C45.5858 48.3864 44.8179 48.9443 43.9515 48.9443H28.0485C27.1821 48.9443 26.4142 48.3864 26.1464 47.5623L21.2321 32.4377C20.9644 31.6136 21.2577 30.7109 21.9587 30.2016L34.8244 20.8541Z" fill="white"/>
</mask>
<g mask="url(#mask2_165_5279)">
<path fill-rule="evenodd" clip-rule="evenodd" d="M36 36L20 40V32L36 36ZM36 36L40 20H32L36 36ZM36 36L52 32V40L36 36ZM36 36L44.4853 21.8579L50.1421 27.5147L36 36ZM36 36L44.4853 50.1421L50.1421 44.4853L36 36ZM36 36L32 52H40L36 36ZM36 36L27.5147 50.1421L21.8579 44.4853L36 36Z" fill="url(#paint2_linear_165_5279)"/>
<path d="M27.5147 21.8579L21.8579 27.5147L36 36L27.5147 21.8579Z" fill="url(#paint3_linear_165_5279)"/>
<path d="M33.5102 22.4268C32.8159 22.9312 32.2798 23.3207 31.9019 23.5953" stroke="white" stroke-linecap="round"/>
</g>
<g filter="url(#filter2_d_165_5279)">
<path d="M33.4495 32.4901L35.9997 28.769L38.5499 32.4901L42.8769 33.7656L40.126 37.3409L40.2501 41.8502L35.9997 40.3388L31.7494 41.8502L31.8734 37.3409L29.1226 33.7656L33.4495 32.4901Z" fill="white"/>
<path d="M36.8246 28.2037C36.6382 27.9317 36.3296 27.769 35.9997 27.769C35.6699 27.769 35.3613 27.9317 35.1749 28.2037L32.8257 31.6314L28.8398 32.8064C28.5234 32.8997 28.2734 33.1429 28.1715 33.4566C28.0696 33.7703 28.1289 34.114 28.33 34.3754L30.864 37.6688L30.7498 41.8227C30.7407 42.1524 30.8948 42.4654 31.1616 42.6592C31.4284 42.8531 31.7737 42.9029 32.0845 42.7924L35.9997 41.4001L39.915 42.7924C40.2258 42.9029 40.571 42.8531 40.8379 42.6592C41.1047 42.4654 41.2588 42.1524 41.2497 41.8227L41.1354 37.6688L43.6695 34.3754C43.8706 34.114 43.9299 33.7703 43.828 33.4566C43.7261 33.1429 43.476 32.8997 43.1597 32.8064L39.1738 31.6314L36.8246 28.2037Z" stroke="white" stroke-width="2" stroke-linejoin="round"/>
</g>
<g filter="url(#filter3_i_165_5279)">
<path d="M33.4495 32.4901L35.9997 28.769L38.5499 32.4901L42.8769 33.7656L40.126 37.3409L40.2501 41.8502L35.9997 40.3388L31.7494 41.8502L31.8734 37.3409L29.1226 33.7656L33.4495 32.4901Z" fill="url(#paint4_linear_165_5279)"/>
</g>
<defs>
<filter id="filter0_d_165_5279" x="26" y="36" width="20" height="37.3379" filterUnits="userSpaceOnUse" color-interpolation-filters="sRGB">
<feFlood flood-opacity="0" result="BackgroundImageFix"/>
<feColorMatrix in="SourceAlpha" type="matrix" values="0 0 0 0 0 0 0 0 0 0 0 0 0 0 0 0 0 0 127 0" result="hardAlpha"/>
<feOffset dy="2"/>
<feGaussianBlur stdDeviation="1"/>
<feColorMatrix type="matrix" values="0 0 0 0 0.333333 0 0 0 0 0.819608 0 0 0 0 0.615686 0 0 0 0.2 0"/>
<feBlend mode="darken" in2="BackgroundImageFix" result="effect1_dropShadow_165_5279"/>
<feBlend mode="normal" in="SourceGraphic" in2="effect1_dropShadow_165_5279" result="shape"/>
</filter>
<filter id="filter1_d_165_5279" x="18.1338" y="18.4722" width="35.7324" height="34.4722" filterUnits="userSpaceOnUse" color-interpolation-filters="sRGB">
<feFlood flood-opacity="0" result="BackgroundImageFix"/>
<feColorMatrix in="SourceAlpha" type="matrix" values="0 0 0 0 0 0 0 0 0 0 0 0 0 0 0 0 0 0 127 0" result="hardAlpha"/>
<feOffset dy="1"/>
<feGaussianBlur stdDeviation="1"/>
<feColorMatrix type="matrix" values="0 0 0 0 0.95 0 0 0 0 0.442079 0 0 0 0 0 0 0 0 0.8 0"/>
<feBlend mode="normal" in2="BackgroundImageFix" result="effect1_dropShadow_165_5279"/>
<feBlend mode="normal" in="SourceGraphic" in2="effect1_dropShadow_165_5279" result="shape"/>
</filter>
<filter id="filter2_d_165_5279" x="25.1226" y="25.769" width="21.7544" height="21.0811" filterUnits="userSpaceOnUse" color-interpolation-filters="sRGB">
<feFlood flood-opacity="0" result="BackgroundImageFix"/>
<feColorMatrix in="SourceAlpha" type="matrix" values="0 0 0 0 0 0 0 0 0 0 0 0 0 0 0 0 0 0 127 0" result="hardAlpha"/>
<feOffset dy="1"/>
<feGaussianBlur stdDeviation="1"/>
<feColorMatrix type="matrix" values="0 0 0 0 0.643137 0 0 0 0 0.262856 0 0 0 0 0.0196078 0 0 0 0.2 0"/>
<feBlend mode="normal" in2="BackgroundImageFix" result="effect1_dropShadow_165_5279"/>
<feBlend mode="normal" in="SourceGraphic" in2="effect1_dropShadow_165_5279" result="shape"/>
</filter>
<filter id="filter3_i_165_5279" x="29.1226" y="28.769" width="13.7544" height="14.0811" filterUnits="userSpaceOnUse" color-interpolation-filters="sRGB">
<feFlood flood-opacity="0" result="BackgroundImageFix"/>
<feBlend mode="normal" in="SourceGraphic" in2="BackgroundImageFix" result="shape"/>
<feColorMatrix in="SourceAlpha" type="matrix" values="0 0 0 0 0 0 0 0 0 0 0 0 0 0 0 0 0 0 127 0" result="hardAlpha"/>
<feOffset dy="1"/>
<feGaussianBlur stdDeviation="0.5"/>
<feComposite in2="hardAlpha" operator="arithmetic" k2="-1" k3="1"/>
<feColorMatrix type="matrix" values="0 0 0 0 0.921569 0 0 0 0 0.447059 0 0 0 0 0.105882 0 0 0 0.4 0"/>
<feBlend mode="normal" in2="shape" result="effect1_innerShadow_165_5279"/>
</filter>
<linearGradient id="paint0_linear_165_5279" x1="13" y1="13" x2="13" y2="59" gradientUnits="userSpaceOnUse">
<stop stop-color="#FD9C43"/>
<stop offset="1" stop-color="#F27E1D"/>
</linearGradient>
<linearGradient id="paint1_linear_165_5279" x1="20" y1="20" x2="20" y2="52" gradientUnits="userSpaceOnUse">
<stop stop-color="#FFD17B"/>
<stop offset="1" stop-color="#FBA152"/>
</linearGradient>
<linearGradient id="paint2_linear_165_5279" x1="21.4926" y1="20" x2="21.4926" y2="49.0148" gradientUnits="userSpaceOnUse">
<stop stop-color="#F58425" stop-opacity="0.2"/>
<stop offset="1" stop-color="#F58425" stop-opacity="0.01"/>
</linearGradient>
<linearGradient id="paint3_linear_165_5279" x1="21.4926" y1="20" x2="21.4926" y2="49.0148" gradientUnits="userSpaceOnUse">
<stop stop-color="#F58425" stop-opacity="0.2"/>
<stop offset="1" stop-color="#F58425" stop-opacity="0.01"/>
</linearGradient>
<linearGradient id="paint4_linear_165_5279" x1="29.1226" y1="28.769" x2="29.1226" y2="41.8502" gradientUnits="userSpaceOnUse">
<stop stop-color="#FD9B41"/>
<stop offset="1" stop-color="#F48224"/>
</linearGradient>
</defs>
</svg>
