<svg width="72" height="74" viewBox="0 0 72 74" fill="none" xmlns="http://www.w3.org/2000/svg">
<g filter="url(#filter0_d_165_5383)">
<path fill-rule="evenodd" clip-rule="evenodd" d="M29.0718 33L42.9282 41L26.76 69.0041C26.3829 69.6573 25.446 69.6738 25.0461 69.0344L21.125 62.7643L13.7343 62.5035C12.9806 62.4769 12.5265 61.6573 12.9036 61.0041L29.0718 33Z" fill="#F55462"/>
</g>
<mask id="mask0_165_5383" style="mask-type:luminance" maskUnits="userSpaceOnUse" x="12" y="33" width="31" height="37">
<path fill-rule="evenodd" clip-rule="evenodd" d="M29.0718 33L42.9282 41L26.76 69.0041C26.3829 69.6573 25.446 69.6738 25.0461 69.0344L21.125 62.7643L13.7343 62.5035C12.9806 62.4769 12.5265 61.6573 12.9036 61.0041L29.0718 33Z" fill="white"/>
</mask>
<g mask="url(#mask0_165_5383)">
<path fill-rule="evenodd" clip-rule="evenodd" d="M24.5356 48.8564L31.4638 52.8564L22.4638 68.4449L15.5356 64.4449L24.5356 48.8564Z" fill="white"/>
</g>
<g filter="url(#filter1_d_165_5383)">
<path fill-rule="evenodd" clip-rule="evenodd" d="M42.9282 33L29.0718 41L45.24 69.0041C45.6171 69.6573 46.554 69.6738 46.9539 69.0344L50.875 62.7643L58.2657 62.5035C59.0194 62.4769 59.4735 61.6573 59.0964 61.0041L42.9282 33Z" fill="#F55462"/>
</g>
<mask id="mask1_165_5383" style="mask-type:luminance" maskUnits="userSpaceOnUse" x="29" y="33" width="31" height="37">
<path fill-rule="evenodd" clip-rule="evenodd" d="M42.9282 33L29.0718 41L45.24 69.0041C45.6171 69.6573 46.554 69.6738 46.9539 69.0344L50.875 62.7643L58.2657 62.5035C59.0194 62.4769 59.4735 61.6573 59.0964 61.0041L42.9282 33Z" fill="white"/>
</mask>
<g mask="url(#mask1_165_5383)">
<path fill-rule="evenodd" clip-rule="evenodd" d="M47.4644 48.8564L40.5362 52.8564L49.5362 68.4449L56.4644 64.4449L47.4644 48.8564Z" fill="white"/>
</g>
<path style="mix-blend-mode:multiply" opacity="0.2" fill-rule="evenodd" clip-rule="evenodd" d="M34.0001 16.1546C35.2377 15.44 36.7625 15.44 38.0001 16.1546L53.9187 25.3451C55.1563 26.0597 55.9187 27.3802 55.9187 28.8093V47.1905C55.9187 48.6195 55.1563 49.94 53.9187 50.6546L38.0001 59.8452C36.7625 60.5597 35.2377 60.5597 34.0001 59.8452L18.0815 50.6546C16.8439 49.94 16.0815 48.6195 16.0815 47.1905L16.0815 28.8093C16.0815 27.3802 16.8439 26.0597 18.0815 25.3451L34.0001 16.1546Z" fill="#0602F3"/>
<path fill-rule="evenodd" clip-rule="evenodd" d="M54 22.677C54 22.2681 54.249 21.9004 54.6286 21.7486L58.1772 20.3291C58.5713 20.1715 59 20.4617 59 20.8862V36.323C59 36.7319 58.751 37.0996 58.3714 37.2514L54 39V22.677Z" fill="url(#paint0_linear_165_5383)" stroke="url(#paint1_linear_165_5383)" stroke-linecap="round" stroke-linejoin="round"/>
<mask id="mask2_165_5383" style="mask-type:luminance" maskUnits="userSpaceOnUse" x="53" y="20" width="7" height="19">
<path fill-rule="evenodd" clip-rule="evenodd" d="M54 23.3541C54 22.5363 54.4979 21.8008 55.2572 21.4971L56.2572 21.0971C57.5709 20.5716 59 21.5391 59 22.9541V35.6459C59 36.4637 58.5021 37.1992 57.7428 37.5029L56.7428 37.9029C55.4291 38.4284 54 37.4609 54 36.0459V23.3541Z" fill="white" stroke="white"/>
</mask>
<g mask="url(#mask2_165_5383)">
<g opacity="0.04">
<path fill-rule="evenodd" clip-rule="evenodd" d="M38.9987 12.6769C37.1423 11.6051 34.8551 11.6051 32.9987 12.6769L17.3002 21.7404C15.4438 22.8122 14.3002 24.793 14.3002 26.9366V45.0637C14.3002 47.2073 15.4438 49.188 17.3002 50.2598L32.9987 59.3234C34.8551 60.3952 37.1423 60.3952 38.9987 59.3234L54.6973 50.2598C56.5537 49.188 57.6973 47.2073 57.6973 45.0637L57.6973 26.9366C57.6973 24.793 56.5537 22.8122 54.6973 21.7404L38.9987 12.6769Z" fill="#0602F3" style="mix-blend-mode:multiply"/>
</g>
</g>
<path fill-rule="evenodd" clip-rule="evenodd" d="M18 22.677C18 22.2681 17.751 21.9004 17.3714 21.7486L13.8228 20.3291C13.4287 20.1715 13 20.4617 13 20.8862V36.323C13 36.7319 13.249 37.0996 13.6286 37.2514L18 39V22.677Z" fill="url(#paint2_linear_165_5383)" stroke="url(#paint3_linear_165_5383)" stroke-linecap="round" stroke-linejoin="round"/>
<mask id="mask3_165_5383" style="mask-type:luminance" maskUnits="userSpaceOnUse" x="12" y="20" width="7" height="19">
<path fill-rule="evenodd" clip-rule="evenodd" d="M18 23.3541C18 22.5363 17.5021 21.8008 16.7428 21.4971L15.7428 21.0971C14.4291 20.5716 13 21.5391 13 22.9541V35.6459C13 36.4637 13.4979 37.1992 14.2572 37.5029L15.2572 37.9029C16.5709 38.4284 18 37.4609 18 36.0459V23.3541Z" fill="white" stroke="white"/>
</mask>
<g mask="url(#mask3_165_5383)">
<g opacity="0.04">
<path fill-rule="evenodd" clip-rule="evenodd" d="M32.9983 12.6769C34.8547 11.6051 37.1419 11.6051 38.9983 12.6769L54.6968 21.7404C56.5533 22.8122 57.6968 24.793 57.6968 26.9366V45.0637C57.6968 47.2073 56.5533 49.188 54.6968 50.2598L38.9983 59.3234C37.1419 60.3952 34.8547 60.3952 32.9983 59.3234L17.2998 50.2598C15.4434 49.188 14.2998 47.2073 14.2998 45.0637L14.2998 26.9366C14.2998 24.793 15.4434 22.8122 17.2998 21.7404L32.9983 12.6769Z" fill="#0602F3" style="mix-blend-mode:multiply"/>
</g>
</g>
<path fill-rule="evenodd" clip-rule="evenodd" d="M49 17.3538C49 16.681 48.349 16.2001 47.7059 16.398L36 19.9998L24.2941 16.398C23.651 16.2001 23 16.681 23 17.3538V31.9998C23 32.5521 23.4477 32.9998 24 32.9998H48C48.5523 32.9998 49 32.5521 49 31.9998V17.3538Z" fill="url(#paint4_linear_165_5383)" stroke="url(#paint5_linear_165_5383)" stroke-linecap="round" stroke-linejoin="round"/>
<mask id="mask4_165_5383" style="mask-type:luminance" maskUnits="userSpaceOnUse" x="22" y="15" width="28" height="10">
<path fill-rule="evenodd" clip-rule="evenodd" d="M49 17.354C49 16.6812 48.349 16.2003 47.7059 16.3982L36 20L24.2941 16.3982C23.651 16.2003 23 16.6812 23 17.354V23C23 23.5523 23.4477 24 24 24H48C48.5523 24 49 23.5523 49 23V17.354Z" fill="white" stroke="white" stroke-linecap="round" stroke-linejoin="round"/>
</mask>
<g mask="url(#mask4_165_5383)">
<g opacity="0.04">
<path fill-rule="evenodd" clip-rule="evenodd" d="M32.9983 12.6769C34.8547 11.6051 37.1419 11.6051 38.9983 12.6769L54.6968 21.7404C56.5533 22.8122 57.6968 24.793 57.6968 26.9366V45.0637C57.6968 47.2073 56.5533 49.188 54.6968 50.2598L38.9983 59.3234C37.1419 60.3952 34.8547 60.3952 32.9983 59.3234L17.2998 50.2598C15.4434 49.188 14.2998 47.2073 14.2998 45.0637L14.2998 26.9366C14.2998 24.793 15.4434 22.8122 17.2998 21.7404L32.9983 12.6769Z" fill="#0602F3" style="mix-blend-mode:multiply"/>
</g>
</g>
<path fill-rule="evenodd" clip-rule="evenodd" d="M34 14.1547C35.2376 13.4402 36.7624 13.4402 38 14.1547L53.9186 23.3453C55.1562 24.0598 55.9186 25.3803 55.9186 26.8094V45.1906C55.9186 46.6197 55.1562 47.9402 53.9186 48.6547L38 57.8453C36.7624 58.5598 35.2376 58.5598 34 57.8453L18.0814 48.6547C16.8438 47.9402 16.0814 46.6197 16.0814 45.1906V26.8094C16.0814 25.3803 16.8438 24.0598 18.0814 23.3453L34 14.1547Z" fill="url(#paint6_linear_165_5383)" stroke="#FFF04D" stroke-opacity="0.4"/>
<path d="M37.7501 14.5876C36.6672 13.9623 35.333 13.9623 34.2501 14.5876L18.3315 23.7782C17.2486 24.4034 16.5815 25.5588 16.5815 26.8093L16.5815 45.1904C16.5815 46.4409 17.2486 47.5963 18.3315 48.2215L34.2501 57.4121C35.333 58.0374 36.6672 58.0374 37.7501 57.4121L53.6687 48.2215C54.7516 47.5963 55.4187 46.4409 55.4187 45.1904V26.8093C55.4187 25.5588 54.7516 24.4034 53.6687 23.7782L37.7501 14.5876Z" stroke="#F9B307"/>
<path opacity="0.4" d="M37.75 57.4124C39.6222 56.3315 40.9487 55.5656 41.7296 55.1147" stroke="white" stroke-linecap="round"/>
<path d="M55.4187 45.1905V26.8093C55.4187 25.5588 54.7516 24.4034 53.6687 23.7782L37.7501 14.5876C36.6672 13.9623 35.333 13.9623 34.2501 14.5876L18.3315 23.7782C17.2486 24.4034 16.5815 25.5588 16.5815 26.8093L16.5815 45.1905" stroke="#FAC00E" stroke-linecap="round"/>
<path opacity="0.6" d="M55.4187 26.8093C55.4187 25.5588 54.7516 24.4034 53.6687 23.7782L37.7501 14.5876C36.6672 13.9623 35.333 13.9623 34.2501 14.5876L18.3315 23.7782C17.2486 24.4034 16.5815 25.5588 16.5815 26.8093" stroke="#FDDB3D" stroke-linecap="round"/>
<path opacity="0.6" d="M37.7498 14.5876C36.6669 13.9623 35.3327 13.9623 34.2498 14.5876C34.2498 14.5876 28.9436 17.6511 26.2905 19.1829" stroke="white" stroke-linecap="round"/>
<path d="M34.2502 14.5879C34.2502 14.5879 31.4419 16.2092 30.2705 16.8855" stroke="white" stroke-linecap="round"/>
<g filter="url(#filter2_d_165_5383)">
<path fill-rule="evenodd" clip-rule="evenodd" d="M35 20.5774C35.6188 20.2201 36.3812 20.2201 37 20.5774L48.8564 27.4226C49.4752 27.7799 49.8564 28.4402 49.8564 29.1547V42.8453C49.8564 43.5598 49.4752 44.2201 48.8564 44.5774L37 51.4226C36.3812 51.7799 35.6188 51.7799 35 51.4226L23.1436 44.5774C22.5248 44.2201 22.1436 43.5598 22.1436 42.8453V29.1547C22.1436 28.4402 22.5248 27.7799 23.1436 27.4226L35 20.5774Z" fill="url(#paint7_linear_165_5383)"/>
<path d="M49.1064 26.9896L37.25 20.1443C36.4765 19.6978 35.5235 19.6978 34.75 20.1443L22.8936 26.9896C22.1201 27.4362 21.6436 28.2615 21.6436 29.1547V42.8453C21.6436 43.7385 22.1201 44.5638 22.8936 45.0104L34.75 51.8557C35.5235 52.3022 36.4765 52.3022 37.25 51.8557L49.1064 45.0104C49.8799 44.5638 50.3564 43.7385 50.3564 42.8453V29.1547C50.3564 28.2615 49.8799 27.4362 49.1064 26.9896Z" stroke="#F5900D" stroke-opacity="0.1" style="mix-blend-mode:multiply"/>
</g>
<mask id="mask5_165_5383" style="mask-type:luminance" maskUnits="userSpaceOnUse" x="22" y="20" width="28" height="32">
<path fill-rule="evenodd" clip-rule="evenodd" d="M35 20.5774C35.6188 20.2201 36.3812 20.2201 37 20.5774L48.8564 27.4226C49.4752 27.7799 49.8564 28.4402 49.8564 29.1547V42.8453C49.8564 43.5598 49.4752 44.2201 48.8564 44.5774L37 51.4226C36.3812 51.7799 35.6188 51.7799 35 51.4226L23.1436 44.5774C22.5248 44.2201 22.1436 43.5598 22.1436 42.8453V29.1547C22.1436 28.4402 22.5248 27.7799 23.1436 27.4226L35 20.5774Z" fill="white"/>
</mask>
<g mask="url(#mask5_165_5383)">
<g style="mix-blend-mode:multiply" opacity="0.3">
<path fill-rule="evenodd" clip-rule="evenodd" d="M36 36L20 40V32L36 36ZM36 36L40 20H32L36 36ZM36 36L52 32V40L36 36ZM36 36L44.4853 21.8579L50.1421 27.5147L36 36ZM36 36L44.4853 50.1421L50.1421 44.4853L36 36ZM36 36L32 52H40L36 36ZM36 36L27.5147 50.1421L21.8579 44.4853L36 36Z" fill="#FFD640"/>
<path d="M27.5147 21.8579L21.8579 27.5147L36 36L27.5147 21.8579Z" fill="#FFD640"/>
</g>
<path opacity="0.4" d="M48.6064 27.8558L36.75 21.0105C36.2859 20.7426 35.7141 20.7426 35.25 21.0105C33.8555 21.8156 32.8675 22.386 32.2859 22.7219C31.0754 23.4207 30.0873 23.9912 29.3218 24.4332C28.0044 25.1938 26.0283 26.3347 23.3936 27.8558" stroke="white" stroke-linecap="round"/>
<path opacity="0.4" d="M48.6064 44.11L36.75 50.9553C36.2859 51.2232 35.7141 51.2232 35.25 50.9553" stroke="white" stroke-linecap="round"/>
<path d="M35.2497 21.0107C33.8553 21.8158 32.8673 22.3863 32.2856 22.7221" stroke="white" stroke-linecap="round"/>
</g>
<g filter="url(#filter3_d_165_5383)">
<path d="M33.4495 32.4901L35.9997 28.769L38.5499 32.4901L42.8769 33.7656L40.126 37.3409L40.2501 41.8502L35.9997 40.3388L31.7494 41.8502L31.8734 37.3409L29.1226 33.7656L33.4495 32.4901Z" fill="white"/>
<path d="M36.8246 28.2037C36.6382 27.9317 36.3296 27.769 35.9997 27.769C35.6699 27.769 35.3613 27.9317 35.1749 28.2037L32.8257 31.6314L28.8398 32.8064C28.5234 32.8997 28.2734 33.1429 28.1715 33.4566C28.0696 33.7703 28.1289 34.114 28.33 34.3754L30.864 37.6688L30.7498 41.8227C30.7407 42.1524 30.8948 42.4654 31.1616 42.6592C31.4284 42.8531 31.7737 42.9029 32.0845 42.7924L35.9997 41.4001L39.915 42.7924C40.2258 42.9029 40.571 42.8531 40.8379 42.6592C41.1047 42.4654 41.2588 42.1524 41.2497 41.8227L41.1354 37.6688L43.6695 34.3754C43.8706 34.114 43.9299 33.7703 43.828 33.4566C43.7261 33.1429 43.476 32.8997 43.1597 32.8064L39.1738 31.6314L36.8246 28.2037Z" stroke="white" stroke-width="2" stroke-linejoin="round"/>
</g>
<path d="M33.4495 32.4901L35.9997 28.769L38.5499 32.4901L42.8769 33.7656L40.126 37.3409L40.2501 41.8502L35.9997 40.3388L31.7494 41.8502L31.8734 37.3409L29.1226 33.7656L33.4495 32.4901Z" fill="url(#paint8_linear_165_5383)"/>
<path opacity="0.4" d="M35.9996 36.0001V28.769L33.4155 32.4389L35.9996 36.0001Z" fill="url(#paint9_linear_165_5383)"/>
<path opacity="0.8" d="M35.9997 36.0002L33.4156 32.439L29.1226 33.7657L35.9997 36.0002Z" fill="url(#paint10_linear_165_5383)"/>
<path opacity="0.5" d="M35.9998 36L31.8157 37.3613L31.7495 41.8501L35.9998 36Z" fill="url(#paint11_linear_165_5383)"/>
<path opacity="0.4" d="M40.2498 41.8501L40.1836 37.3613L35.9995 36L40.2498 41.8501Z" fill="url(#paint12_linear_165_5383)"/>
<path d="M40.1836 37.3614L42.8767 33.7656L35.9995 36.0002L40.1836 37.3614Z" fill="#FEBA1B"/>
<path opacity="0.6" d="M42.8767 33.7657L38.5836 32.439L35.9995 36.0002L42.8767 33.7657Z" fill="url(#paint13_linear_165_5383)"/>
<g filter="url(#filter4_d_165_5383)">
<path fill-rule="evenodd" clip-rule="evenodd" d="M46.9109 29.7799L46.3916 29.5751C46.0739 29.4498 45.918 29.0908 46.0433 28.7732C46.1061 28.6138 46.2322 28.4877 46.3916 28.4249L46.9109 28.2201C47.5098 27.9839 47.9839 27.5098 48.2201 26.9109L48.4249 26.3916C48.5502 26.0739 48.9092 25.918 49.2268 26.0433C49.3862 26.1061 49.5123 26.2322 49.5751 26.3916L49.7799 26.9109C50.0161 27.5098 50.4902 27.9839 51.0891 28.2201L51.6084 28.4249C51.9261 28.5502 52.082 28.9092 51.9567 29.2268C51.8939 29.3862 51.7678 29.5123 51.6084 29.5751L51.0891 29.7799C50.4902 30.0161 50.0161 30.4902 49.7799 31.0891L49.5751 31.6084C49.4498 31.9261 49.0908 32.082 48.7732 31.9567C48.6138 31.8939 48.4877 31.7678 48.4249 31.6084L48.2201 31.0891C47.9839 30.4902 47.5098 30.0161 46.9109 29.7799Z" fill="white"/>
</g>
<g filter="url(#filter5_d_165_5383)">
<path fill-rule="evenodd" clip-rule="evenodd" d="M24.6073 46.52L24.261 46.3834C24.0493 46.2999 23.9453 46.0605 24.0289 45.8488C24.0707 45.7426 24.1548 45.6585 24.261 45.6166L24.6073 45.48C25.0065 45.3226 25.3226 45.0065 25.48 44.6073L25.6166 44.261C25.7001 44.0493 25.9395 43.9453 26.1512 44.0289C26.2574 44.0707 26.3415 44.1548 26.3834 44.261L26.52 44.6073C26.6774 45.0065 26.9935 45.3226 27.3927 45.48L27.739 45.6166C27.9507 45.7001 28.0547 45.9395 27.9711 46.1512C27.9293 46.2574 27.8452 46.3415 27.739 46.3834L27.3927 46.52C26.9935 46.6774 26.6774 46.9935 26.52 47.3927L26.3834 47.739C26.2999 47.9507 26.0605 48.0547 25.8488 47.9711C25.7426 47.9293 25.6585 47.8452 25.6166 47.739L25.48 47.3927C25.3226 46.9935 25.0065 46.6774 24.6073 46.52Z" fill="white"/>
</g>
<g filter="url(#filter6_d_165_5383)">
<path fill-rule="evenodd" clip-rule="evenodd" d="M20.7591 31.1499L20.3263 30.9793C20.0616 30.8749 19.9317 30.5757 20.0361 30.311C20.0884 30.1782 20.1935 30.0731 20.3263 30.0207L20.7591 29.8501C21.2582 29.6532 21.6532 29.2582 21.8501 28.7591L22.0207 28.3263C22.1251 28.0616 22.4243 27.9317 22.689 28.0361C22.8218 28.0884 22.9269 28.1935 22.9793 28.3263L23.1499 28.7591C23.3468 29.2582 23.7418 29.6532 24.2409 29.8501L24.6737 30.0207C24.9384 30.1251 25.0683 30.4243 24.9639 30.689C24.9116 30.8218 24.8065 30.9269 24.6737 30.9793L24.2409 31.1499C23.7418 31.3468 23.3468 31.7418 23.1499 32.2409L22.9793 32.6737C22.8749 32.9384 22.5757 33.0683 22.311 32.9639C22.1782 32.9116 22.0731 32.8065 22.0207 32.6737L21.8501 32.2409C21.6532 31.7418 21.2582 31.3468 20.7591 31.1499Z" fill="white"/>
</g>
<g filter="url(#filter7_d_165_5383)">
<path fill-rule="evenodd" clip-rule="evenodd" d="M46.4555 45.89L46.1958 45.7876C46.037 45.7249 45.959 45.5454 46.0216 45.3866C46.0531 45.3069 46.1161 45.2439 46.1958 45.2124L46.4555 45.11C46.7549 44.9919 46.9919 44.7549 47.11 44.4555L47.2124 44.1958C47.2751 44.037 47.4546 43.959 47.6134 44.0216C47.6931 44.0531 47.7561 44.1161 47.7876 44.1958L47.89 44.4555C48.0081 44.7549 48.2451 44.9919 48.5445 45.11L48.8042 45.2124C48.963 45.2751 49.041 45.4546 48.9784 45.6134C48.9469 45.6931 48.8839 45.7561 48.8042 45.7876L48.5445 45.89C48.2451 46.0081 48.0081 46.2451 47.89 46.5445L47.7876 46.8042C47.7249 46.963 47.5454 47.041 47.3866 46.9784C47.3069 46.9469 47.2439 46.8839 47.2124 46.8042L47.11 46.5445C46.9919 46.2451 46.7549 46.0081 46.4555 45.89Z" fill="white"/>
</g>
<defs>
<filter id="filter0_d_165_5383" x="10.7681" y="33" width="34.1602" height="40.5039" filterUnits="userSpaceOnUse" color-interpolation-filters="sRGB">
<feFlood flood-opacity="0" result="BackgroundImageFix"/>
<feColorMatrix in="SourceAlpha" type="matrix" values="0 0 0 0 0 0 0 0 0 0 0 0 0 0 0 0 0 0 127 0" result="hardAlpha"/>
<feOffset dy="2"/>
<feGaussianBlur stdDeviation="1"/>
<feColorMatrix type="matrix" values="0 0 0 0 0.401412 0 0 0 0 0.333333 0 0 0 0 0.819608 0 0 0 0.2 0"/>
<feBlend mode="darken" in2="BackgroundImageFix" result="effect1_dropShadow_165_5383"/>
<feBlend mode="normal" in="SourceGraphic" in2="effect1_dropShadow_165_5383" result="shape"/>
</filter>
<filter id="filter1_d_165_5383" x="27.0718" y="33" width="34.1602" height="40.5039" filterUnits="userSpaceOnUse" color-interpolation-filters="sRGB">
<feFlood flood-opacity="0" result="BackgroundImageFix"/>
<feColorMatrix in="SourceAlpha" type="matrix" values="0 0 0 0 0 0 0 0 0 0 0 0 0 0 0 0 0 0 127 0" result="hardAlpha"/>
<feOffset dy="2"/>
<feGaussianBlur stdDeviation="1"/>
<feColorMatrix type="matrix" values="0 0 0 0 0.401412 0 0 0 0 0.333333 0 0 0 0 0.819608 0 0 0 0.2 0"/>
<feBlend mode="darken" in2="BackgroundImageFix" result="effect1_dropShadow_165_5383"/>
<feBlend mode="normal" in="SourceGraphic" in2="effect1_dropShadow_165_5383" result="shape"/>
</filter>
<filter id="filter2_d_165_5383" x="19.1436" y="18.3096" width="33.7129" height="37.3809" filterUnits="userSpaceOnUse" color-interpolation-filters="sRGB">
<feFlood flood-opacity="0" result="BackgroundImageFix"/>
<feColorMatrix in="SourceAlpha" type="matrix" values="0 0 0 0 0 0 0 0 0 0 0 0 0 0 0 0 0 0 127 0" result="hardAlpha"/>
<feOffset dy="1"/>
<feGaussianBlur stdDeviation="1"/>
<feColorMatrix type="matrix" values="0 0 0 0 0.927721 0 0 0 0 0.665867 0 0 0 0 0.0535899 0 0 0 0.4 0"/>
<feBlend mode="normal" in2="BackgroundImageFix" result="effect1_dropShadow_165_5383"/>
<feBlend mode="normal" in="SourceGraphic" in2="effect1_dropShadow_165_5383" result="shape"/>
</filter>
<filter id="filter3_d_165_5383" x="25.1226" y="25.769" width="21.7544" height="21.0811" filterUnits="userSpaceOnUse" color-interpolation-filters="sRGB">
<feFlood flood-opacity="0" result="BackgroundImageFix"/>
<feColorMatrix in="SourceAlpha" type="matrix" values="0 0 0 0 0 0 0 0 0 0 0 0 0 0 0 0 0 0 127 0" result="hardAlpha"/>
<feOffset dy="1"/>
<feGaussianBlur stdDeviation="1"/>
<feColorMatrix type="matrix" values="0 0 0 0 0.996078 0 0 0 0 0.733333 0 0 0 0 0.105882 0 0 0 1 0"/>
<feBlend mode="normal" in2="BackgroundImageFix" result="effect1_dropShadow_165_5383"/>
<feBlend mode="normal" in="SourceGraphic" in2="effect1_dropShadow_165_5383" result="shape"/>
</filter>
<filter id="filter4_d_165_5383" x="44" y="24" width="10" height="10" filterUnits="userSpaceOnUse" color-interpolation-filters="sRGB">
<feFlood flood-opacity="0" result="BackgroundImageFix"/>
<feColorMatrix in="SourceAlpha" type="matrix" values="0 0 0 0 0 0 0 0 0 0 0 0 0 0 0 0 0 0 127 0" result="hardAlpha"/>
<feOffset/>
<feGaussianBlur stdDeviation="1"/>
<feColorMatrix type="matrix" values="0 0 0 0 1 0 0 0 0 0.94902 0 0 0 0 0.305882 0 0 0 1 0"/>
<feBlend mode="normal" in2="BackgroundImageFix" result="effect1_dropShadow_165_5383"/>
<feBlend mode="normal" in="SourceGraphic" in2="effect1_dropShadow_165_5383" result="shape"/>
</filter>
<filter id="filter5_d_165_5383" x="22" y="42" width="8" height="8" filterUnits="userSpaceOnUse" color-interpolation-filters="sRGB">
<feFlood flood-opacity="0" result="BackgroundImageFix"/>
<feColorMatrix in="SourceAlpha" type="matrix" values="0 0 0 0 0 0 0 0 0 0 0 0 0 0 0 0 0 0 127 0" result="hardAlpha"/>
<feOffset/>
<feGaussianBlur stdDeviation="1"/>
<feColorMatrix type="matrix" values="0 0 0 0 1 0 0 0 0 0.94902 0 0 0 0 0.305882 0 0 0 1 0"/>
<feBlend mode="normal" in2="BackgroundImageFix" result="effect1_dropShadow_165_5383"/>
<feBlend mode="normal" in="SourceGraphic" in2="effect1_dropShadow_165_5383" result="shape"/>
</filter>
<filter id="filter6_d_165_5383" x="18" y="26" width="9" height="9" filterUnits="userSpaceOnUse" color-interpolation-filters="sRGB">
<feFlood flood-opacity="0" result="BackgroundImageFix"/>
<feColorMatrix in="SourceAlpha" type="matrix" values="0 0 0 0 0 0 0 0 0 0 0 0 0 0 0 0 0 0 127 0" result="hardAlpha"/>
<feOffset/>
<feGaussianBlur stdDeviation="1"/>
<feColorMatrix type="matrix" values="0 0 0 0 1 0 0 0 0 0.94902 0 0 0 0 0.305882 0 0 0 1 0"/>
<feBlend mode="normal" in2="BackgroundImageFix" result="effect1_dropShadow_165_5383"/>
<feBlend mode="normal" in="SourceGraphic" in2="effect1_dropShadow_165_5383" result="shape"/>
</filter>
<filter id="filter7_d_165_5383" x="44" y="42" width="7" height="7" filterUnits="userSpaceOnUse" color-interpolation-filters="sRGB">
<feFlood flood-opacity="0" result="BackgroundImageFix"/>
<feColorMatrix in="SourceAlpha" type="matrix" values="0 0 0 0 0 0 0 0 0 0 0 0 0 0 0 0 0 0 127 0" result="hardAlpha"/>
<feOffset/>
<feGaussianBlur stdDeviation="1"/>
<feColorMatrix type="matrix" values="0 0 0 0 1 0 0 0 0 0.94902 0 0 0 0 0.305882 0 0 0 1 0"/>
<feBlend mode="normal" in2="BackgroundImageFix" result="effect1_dropShadow_165_5383"/>
<feBlend mode="normal" in="SourceGraphic" in2="effect1_dropShadow_165_5383" result="shape"/>
</filter>
<linearGradient id="paint0_linear_165_5383" x1="59" y1="20" x2="59" y2="39" gradientUnits="userSpaceOnUse">
<stop stop-color="#F7C71A"/>
<stop offset="1" stop-color="#FBAA00"/>
</linearGradient>
<linearGradient id="paint1_linear_165_5383" x1="59" y1="20" x2="59" y2="39" gradientUnits="userSpaceOnUse">
<stop stop-color="#FFDF6B"/>
<stop offset="1" stop-color="#F8A60A"/>
</linearGradient>
<linearGradient id="paint2_linear_165_5383" x1="13" y1="20" x2="13" y2="39" gradientUnits="userSpaceOnUse">
<stop stop-color="#F7C71A"/>
<stop offset="1" stop-color="#FBAA00"/>
</linearGradient>
<linearGradient id="paint3_linear_165_5383" x1="13" y1="20" x2="13" y2="39" gradientUnits="userSpaceOnUse">
<stop stop-color="#FFDF6B"/>
<stop offset="1" stop-color="#F8A60A"/>
</linearGradient>
<linearGradient id="paint4_linear_165_5383" x1="23" y1="16.3535" x2="23" y2="32.9998" gradientUnits="userSpaceOnUse">
<stop stop-color="#F7C71A"/>
<stop offset="1" stop-color="#FBAA00"/>
</linearGradient>
<linearGradient id="paint5_linear_165_5383" x1="23" y1="16.3535" x2="23" y2="32.9998" gradientUnits="userSpaceOnUse">
<stop stop-color="#FFDF6B"/>
<stop offset="1" stop-color="#F8A60A"/>
</linearGradient>
<linearGradient id="paint6_linear_165_5383" x1="13" y1="13" x2="13" y2="59" gradientUnits="userSpaceOnUse">
<stop stop-color="#FDE046"/>
<stop offset="1" stop-color="#F9B800"/>
</linearGradient>
<linearGradient id="paint7_linear_165_5383" x1="20" y1="20" x2="20" y2="52" gradientUnits="userSpaceOnUse">
<stop stop-color="#FFF550"/>
<stop offset="1" stop-color="#FFD541"/>
</linearGradient>
<linearGradient id="paint8_linear_165_5383" x1="28.7686" y1="28.769" x2="28.7686" y2="43.2312" gradientUnits="userSpaceOnUse">
<stop stop-color="#FCA50E"/>
<stop offset="1" stop-color="#FFC823"/>
</linearGradient>
<linearGradient id="paint9_linear_165_5383" x1="33.4155" y1="26.9613" x2="29.1395" y2="30.0174" gradientUnits="userSpaceOnUse">
<stop stop-color="#FFEC36" stop-opacity="0.467505"/>
<stop offset="1" stop-color="#FFF7AB"/>
</linearGradient>
<linearGradient id="paint10_linear_165_5383" x1="29.166" y1="33.318" x2="33.1957" y2="38.2782" gradientUnits="userSpaceOnUse">
<stop stop-color="#FFED08" stop-opacity="0.8"/>
<stop offset="1" stop-color="white"/>
</linearGradient>
<linearGradient id="paint11_linear_165_5383" x1="33.8747" y1="43.3126" x2="37.2897" y2="38.3502" gradientUnits="userSpaceOnUse">
<stop stop-color="#FFED08" stop-opacity="0.01"/>
<stop offset="1" stop-color="#FFEF63"/>
</linearGradient>
<linearGradient id="paint12_linear_165_5383" x1="35.9995" y1="34.5375" x2="32.5844" y2="39.4999" gradientUnits="userSpaceOnUse">
<stop stop-color="#FFEC36" stop-opacity="0.467505"/>
<stop offset="1" stop-color="#FFE94A"/>
</linearGradient>
<linearGradient id="paint13_linear_165_5383" x1="35.9995" y1="31.5487" x2="34.9193" y2="35.7205" gradientUnits="userSpaceOnUse">
<stop stop-color="#FFEC36" stop-opacity="0.467505"/>
<stop offset="1" stop-color="#FFF7AB"/>
</linearGradient>
</defs>
</svg>
