<svg width="72" height="74" viewBox="0 0 72 74" fill="none" xmlns="http://www.w3.org/2000/svg">
<g filter="url(#filter0_d_165_5244)">
<path fill-rule="evenodd" clip-rule="evenodd" d="M28 36H44V68.3364C44 69.0906 43.1969 69.5734 42.5308 69.2195L36 65.75L29.4692 69.2195C28.8031 69.5734 28 69.0906 28 68.3364V36Z" fill="#265388"/>
</g>
<circle style="mix-blend-mode:multiply" opacity="0.2" cx="36" cy="38" r="20" fill="#62CF3F"/>
<circle cx="36" cy="36" r="20" fill="url(#paint0_linear_165_5244)"/>
<mask id="mask0_165_5244" style="mask-type:luminance" maskUnits="userSpaceOnUse" x="16" y="16" width="40" height="40">
<circle cx="36" cy="36" r="20" fill="white"/>
</mask>
<g mask="url(#mask0_165_5244)">
<path d="M16.5 36C16.5 46.7696 25.2304 55.5 36 55.5C46.7696 55.5 55.5 46.7696 55.5 36" stroke="#64788F"/>
<g style="mix-blend-mode:multiply" opacity="0.12">
<path d="M49 39.7527L60.7527 28" stroke="#78A2A9" stroke-width="2" stroke-linecap="round"/>
</g>
<g style="mix-blend-mode:multiply" opacity="0.12">
<path d="M44 28.7527L55.7527 17" stroke="#78A2A9" stroke-width="2" stroke-linecap="round"/>
</g>
<g style="mix-blend-mode:multiply" opacity="0.12">
<path d="M7 47.7527L18.7527 36" stroke="#78A2A9" stroke-width="2" stroke-linecap="round"/>
</g>
<g style="mix-blend-mode:multiply" opacity="0.12">
<path d="M51 25.7527L62.7527 14" stroke="#78A2A9" stroke-width="2" stroke-linecap="round"/>
</g>
<g style="mix-blend-mode:multiply" opacity="0.12">
<path d="M14 44.7527L25.7527 33" stroke="#78A2A9" stroke-width="2" stroke-linecap="round"/>
</g>
<g style="mix-blend-mode:multiply" opacity="0.12">
<path d="M31 56.7527L42.7527 45" stroke="#78A2A9" stroke-width="2" stroke-linecap="round"/>
</g>
<g style="mix-blend-mode:multiply" opacity="0.12">
<path d="M47 49.7527L58.7527 38" stroke="#78A2A9" stroke-width="2" stroke-linecap="round"/>
</g>
<path d="M49.7886 49.7886C53.3174 46.2598 55.5 41.3848 55.5 36C55.5 25.2304 46.7696 16.5 36 16.5C25.2304 16.5 16.5 25.2304 16.5 36C16.5 41.3848 18.6826 46.2598 22.2114 49.7886" stroke="#8B99AF" stroke-linecap="round"/>
<path opacity="0.4" d="M55.5 36C55.5 25.2304 46.7696 16.5 36 16.5C25.2304 16.5 16.5 25.2304 16.5 36" stroke="#CCD8EA" stroke-linecap="round"/>
<path opacity="0.2" d="M36.0002 16.5C32.342 16.5 28.919 17.5073 25.9937 19.2598" stroke="white" stroke-linecap="round"/>
<path opacity="0.6" d="M32.5141 16.8105C31.5855 16.9781 30.6797 17.2115 29.8018 17.5056" stroke="white" stroke-linecap="round"/>
</g>
<g filter="url(#filter1_d_165_5244)">
<circle cx="36" cy="36" r="15" fill="url(#paint1_linear_165_5244)"/>
<circle cx="36" cy="36" r="15.5" stroke="#64788F" stroke-opacity="0.06"/>
</g>
<mask id="mask1_165_5244" style="mask-type:luminance" maskUnits="userSpaceOnUse" x="21" y="21" width="30" height="30">
<circle cx="36" cy="36" r="15" fill="white"/>
</mask>
<g mask="url(#mask1_165_5244)">
<g style="mix-blend-mode:multiply" opacity="0.12">
<path d="M44 26.7527L55.7527 15" stroke="#78A2A9" stroke-width="2" stroke-linecap="round"/>
</g>
<g style="mix-blend-mode:multiply" opacity="0.12">
<path d="M51 23.7527L62.7527 12" stroke="#78A2A9" stroke-width="2" stroke-linecap="round"/>
</g>
<g style="mix-blend-mode:multiply" opacity="0.12">
<path d="M14 42.7527L25.7527 31" stroke="#78A2A9" stroke-width="2" stroke-linecap="round"/>
</g>
<g style="mix-blend-mode:multiply" opacity="0.12">
<path d="M31 54.7527L42.7527 43" stroke="#78A2A9" stroke-width="2" stroke-linecap="round"/>
</g>
<g style="mix-blend-mode:multiply" opacity="0.12">
<path d="M49 37.7527L60.7527 26" stroke="#78A2A9" stroke-width="2" stroke-linecap="round"/>
</g>
<path opacity="0.6" d="M35.9999 21.5C34.0339 21.5 32.1593 21.8913 30.4497 22.6002" stroke="white" stroke-linecap="round"/>
</g>
<g filter="url(#filter2_d_165_5244)">
<path d="M30.2671 36.0001L36.0002 28.6289L41.7334 36.0001L36.0002 43.3713L30.2671 36.0001Z" fill="white"/>
<path d="M29.4777 35.3861C29.1969 35.7473 29.1969 36.2529 29.4777 36.614L35.2109 43.9852C35.4003 44.2288 35.6916 44.3713 36.0002 44.3713C36.3088 44.3713 36.6001 44.2288 36.7896 43.9852L42.5227 36.614C42.8036 36.2529 42.8036 35.7473 42.5227 35.3861L36.7896 28.015C36.6001 27.7714 36.3088 27.6289 36.0002 27.6289C35.6916 27.6289 35.4003 27.7714 35.2109 28.015L29.4777 35.3861Z" stroke="white" stroke-width="2" stroke-linejoin="round"/>
</g>
<g filter="url(#filter3_i_165_5244)">
<path d="M30.2671 36.0001L36.0002 28.6289L41.7334 36.0001L36.0002 43.3713L30.2671 36.0001Z" fill="url(#paint2_linear_165_5244)"/>
</g>
<defs>
<filter id="filter0_d_165_5244" x="26" y="36" width="20" height="37.3379" filterUnits="userSpaceOnUse" color-interpolation-filters="sRGB">
<feFlood flood-opacity="0" result="BackgroundImageFix"/>
<feColorMatrix in="SourceAlpha" type="matrix" values="0 0 0 0 0 0 0 0 0 0 0 0 0 0 0 0 0 0 127 0" result="hardAlpha"/>
<feOffset dy="2"/>
<feGaussianBlur stdDeviation="1"/>
<feColorMatrix type="matrix" values="0 0 0 0 0.603922 0 0 0 0 0.713726 0 0 0 0 0.356863 0 0 0 0.2 0"/>
<feBlend mode="darken" in2="BackgroundImageFix" result="effect1_dropShadow_165_5244"/>
<feBlend mode="normal" in="SourceGraphic" in2="effect1_dropShadow_165_5244" result="shape"/>
</filter>
<filter id="filter1_d_165_5244" x="16" y="17" width="40" height="40" filterUnits="userSpaceOnUse" color-interpolation-filters="sRGB">
<feFlood flood-opacity="0" result="BackgroundImageFix"/>
<feColorMatrix in="SourceAlpha" type="matrix" values="0 0 0 0 0 0 0 0 0 0 0 0 0 0 0 0 0 0 127 0" result="hardAlpha"/>
<feOffset dy="1"/>
<feGaussianBlur stdDeviation="2"/>
<feColorMatrix type="matrix" values="0 0 0 0 0.279884 0 0 0 0 0.409586 0 0 0 0 0.470833 0 0 0 0.2 0"/>
<feBlend mode="normal" in2="BackgroundImageFix" result="effect1_dropShadow_165_5244"/>
<feBlend mode="normal" in="SourceGraphic" in2="effect1_dropShadow_165_5244" result="shape"/>
</filter>
<filter id="filter2_d_165_5244" x="26.2671" y="25.6289" width="19.4663" height="22.7422" filterUnits="userSpaceOnUse" color-interpolation-filters="sRGB">
<feFlood flood-opacity="0" result="BackgroundImageFix"/>
<feColorMatrix in="SourceAlpha" type="matrix" values="0 0 0 0 0 0 0 0 0 0 0 0 0 0 0 0 0 0 127 0" result="hardAlpha"/>
<feOffset dy="1"/>
<feGaussianBlur stdDeviation="1"/>
<feColorMatrix type="matrix" values="0 0 0 0 0.19669 0 0 0 0 0.27695 0 0 0 0 0.483333 0 0 0 0.2 0"/>
<feBlend mode="normal" in2="BackgroundImageFix" result="effect1_dropShadow_165_5244"/>
<feBlend mode="normal" in="SourceGraphic" in2="effect1_dropShadow_165_5244" result="shape"/>
</filter>
<filter id="filter3_i_165_5244" x="30.2671" y="28.6289" width="11.4663" height="15.7422" filterUnits="userSpaceOnUse" color-interpolation-filters="sRGB">
<feFlood flood-opacity="0" result="BackgroundImageFix"/>
<feBlend mode="normal" in="SourceGraphic" in2="BackgroundImageFix" result="shape"/>
<feColorMatrix in="SourceAlpha" type="matrix" values="0 0 0 0 0 0 0 0 0 0 0 0 0 0 0 0 0 0 127 0" result="hardAlpha"/>
<feOffset dy="1"/>
<feGaussianBlur stdDeviation="0.5"/>
<feComposite in2="hardAlpha" operator="arithmetic" k2="-1" k3="1"/>
<feColorMatrix type="matrix" values="0 0 0 0 0.324977 0 0 0 0 0.428027 0 0 0 0 0.579167 0 0 0 0.4 0"/>
<feBlend mode="normal" in2="shape" result="effect1_innerShadow_165_5244"/>
</filter>
<linearGradient id="paint0_linear_165_5244" x1="16" y1="16" x2="16" y2="56" gradientUnits="userSpaceOnUse">
<stop stop-color="#ABB7CC"/>
<stop offset="1" stop-color="#76879C"/>
</linearGradient>
<linearGradient id="paint1_linear_165_5244" x1="21" y1="21" x2="21" y2="51" gradientUnits="userSpaceOnUse">
<stop stop-color="#C6D1E4"/>
<stop offset="1" stop-color="#A4B1C4"/>
</linearGradient>
<linearGradient id="paint2_linear_165_5244" x1="30.2671" y1="28.6289" x2="30.2671" y2="43.3713" gradientUnits="userSpaceOnUse">
<stop stop-color="#A3B0C5"/>
<stop offset="1" stop-color="#7A8AA1"/>
</linearGradient>
</defs>
</svg>
