<svg width="72" height="74" viewBox="0 0 72 74" fill="none" xmlns="http://www.w3.org/2000/svg">
<g filter="url(#filter0_d_165_5306)">
<path fill-rule="evenodd" clip-rule="evenodd" d="M28 36H44V68.3364C44 69.0906 43.1969 69.5734 42.5308 69.2195L36 65.75L29.4692 69.2195C28.8031 69.5734 28 69.0906 28 68.3364V36Z" fill="#7F45F6"/>
</g>
<mask id="mask0_165_5306" style="mask-type:luminance" maskUnits="userSpaceOnUse" x="28" y="36" width="16" height="34">
<path fill-rule="evenodd" clip-rule="evenodd" d="M28 36H44V68.3364C44 69.0906 43.1969 69.5734 42.5308 69.2195L36 65.75L29.4692 69.2195C28.8031 69.5734 28 69.0906 28 68.3364V36Z" fill="white"/>
</mask>
<g mask="url(#mask0_165_5306)">
<path fill-rule="evenodd" clip-rule="evenodd" d="M32 52H40V70H32V52Z" fill="white"/>
</g>
<path style="mix-blend-mode:multiply" opacity="0.2" fill-rule="evenodd" clip-rule="evenodd" d="M33.6488 16.7083C35.0507 15.6897 36.9491 15.6897 38.3511 16.7083L55.5231 29.1845C56.925 30.203 57.5117 32.0085 56.9762 33.6566L50.417 53.8435C49.8815 55.4916 48.3457 56.6075 46.6128 56.6075H25.387C23.6541 56.6075 22.1183 55.4916 21.5828 53.8435L15.0237 33.6566C14.4882 32.0085 15.0748 30.203 16.4768 29.1845L33.6488 16.7083Z" fill="#0298F3"/>
<path fill-rule="evenodd" clip-rule="evenodd" d="M33.6489 14.7082C35.0508 13.6896 36.9492 13.6896 38.3511 14.7082L55.5232 27.1844C56.9251 28.203 57.5117 30.0085 56.9762 31.6565L50.4171 51.8435C49.8816 53.4916 48.3458 54.6074 46.6129 54.6074H25.3871C23.6542 54.6074 22.1184 53.4916 21.5829 51.8435L15.0238 31.6565C14.4883 30.0084 15.0749 28.203 16.4768 27.1844L33.6489 14.7082Z" fill="url(#paint0_linear_165_5306)" stroke="#FEFFFF" stroke-opacity="0.2"/>
<mask id="mask1_165_5306" style="mask-type:luminance" maskUnits="userSpaceOnUse" x="14" y="13" width="44" height="43">
<path fill-rule="evenodd" clip-rule="evenodd" d="M33.6489 14.7082C35.0508 13.6896 36.9492 13.6896 38.3511 14.7082L55.5232 27.1844C56.9251 28.203 57.5117 30.0085 56.9762 31.6565L50.4171 51.8435C49.8816 53.4916 48.3458 54.6074 46.6129 54.6074H25.3871C23.6542 54.6074 22.1184 53.4916 21.5829 51.8435L15.0238 31.6565C14.4883 30.0084 15.0749 28.203 16.4768 27.1844L33.6489 14.7082Z" fill="white" stroke="white"/>
</mask>
<g mask="url(#mask1_165_5306)">
<path d="M38.0571 15.1128C36.8304 14.2215 35.1694 14.2215 33.9426 15.1128L16.7706 27.589C15.5439 28.4802 15.0306 30.06 15.4992 31.5021L22.0583 51.689C22.5269 53.1311 23.8707 54.1075 25.387 54.1075H46.6128C48.1291 54.1075 49.4729 53.1311 49.9415 51.689L56.5006 31.5021C56.9692 30.06 56.4559 28.4802 55.2292 27.589L38.0571 15.1128Z" stroke="#94B4BD" stroke-linecap="round"/>
<path d="M49.9414 51.6889L56.5005 31.502" stroke="#B1CDD0" stroke-linecap="round"/>
<path d="M15.4995 31.502L22.0586 51.6889" stroke="#B1CDD0" stroke-linecap="round"/>
<path d="M56.5006 31.5021C56.9692 30.06 56.4559 28.4802 55.2292 27.589L38.0571 15.1128C36.8304 14.2215 35.1694 14.2215 33.9426 15.1128L16.7706 27.589C15.5439 28.4802 15.0306 30.06 15.4992 31.5021" stroke="#C3E6E7" stroke-linecap="round"/>
<path opacity="0.4" d="M38.0575 15.1128C36.8308 14.2215 35.1697 14.2215 33.943 15.1128L16.771 27.589" stroke="#E5FEFF" stroke-linecap="round"/>
<path d="M33.9429 15.1128L29.6499 18.2318" stroke="white" stroke-linecap="round"/>
</g>
<g filter="url(#filter1_d_165_5306)">
<path fill-rule="evenodd" clip-rule="evenodd" d="M34.8244 20.8541C35.5254 20.3448 36.4746 20.3448 37.1756 20.8541L50.0413 30.2016C50.7423 30.7109 51.0356 31.6136 50.7679 32.4377L45.8536 47.5623C45.5858 48.3864 44.8179 48.9443 43.9515 48.9443H28.0485C27.1821 48.9443 26.4142 48.3864 26.1464 47.5623L21.2321 32.4377C20.9644 31.6136 21.2577 30.7109 21.9587 30.2016L34.8244 20.8541Z" fill="url(#paint1_linear_165_5306)"/>
<path d="M50.3352 29.7971L37.4695 20.4496C36.5932 19.813 35.4068 19.813 34.5305 20.4496L21.6648 29.7971C20.7886 30.4337 20.4219 31.5621 20.7566 32.5922L25.6709 47.7168C26.0056 48.7469 26.9655 49.4443 28.0485 49.4443H43.9515C45.0345 49.4443 45.9944 48.7469 46.3291 47.7168L51.2434 32.5922C51.5781 31.5621 51.2114 30.4337 50.3352 29.7971Z" stroke="#94A0A4" stroke-opacity="0.06"/>
</g>
<mask id="mask2_165_5306" style="mask-type:luminance" maskUnits="userSpaceOnUse" x="21" y="20" width="30" height="29">
<path fill-rule="evenodd" clip-rule="evenodd" d="M34.8244 20.8541C35.5254 20.3448 36.4746 20.3448 37.1756 20.8541L50.0413 30.2016C50.7423 30.7109 51.0356 31.6136 50.7679 32.4377L45.8536 47.5623C45.5858 48.3864 44.8179 48.9443 43.9515 48.9443H28.0485C27.1821 48.9443 26.4142 48.3864 26.1464 47.5623L21.2321 32.4377C20.9644 31.6136 21.2577 30.7109 21.9587 30.2016L34.8244 20.8541Z" fill="white"/>
</mask>
<g mask="url(#mask2_165_5306)">
<g style="mix-blend-mode:multiply" opacity="0.2">
<path fill-rule="evenodd" clip-rule="evenodd" d="M36 36L20 40V32L36 36ZM36 36L40 20H32L36 36ZM36 36L52 32V40L36 36ZM36 36L44.4853 21.8579L50.1421 27.5147L36 36ZM36 36L44.4853 50.1421L50.1421 44.4853L36 36ZM36 36L32 52H40L36 36ZM36 36L27.5147 50.1421L21.8579 44.4853L36 36Z" fill="url(#paint2_linear_165_5306)"/>
<path d="M27.5147 21.8579L21.8579 27.5147L36 36L27.5147 21.8579Z" fill="url(#paint3_linear_165_5306)"/>
</g>
<path d="M33.5102 22.4268C32.8159 22.9312 32.2798 23.3207 31.9019 23.5953" stroke="white" stroke-linecap="round"/>
</g>
<g filter="url(#filter2_d_165_5306)">
<path d="M33.45 32.4901L36.0002 28.769L38.5504 32.4901L42.8774 33.7656L40.1265 37.3409L40.2506 41.8502L36.0002 40.3388L31.7499 41.8502L31.8739 37.3409L29.123 33.7656L33.45 32.4901Z" fill="white"/>
<path d="M36.8251 28.2037C36.6386 27.9317 36.33 27.769 36.0002 27.769C35.6704 27.769 35.3618 27.9317 35.1754 28.2037L32.8262 31.6314L28.8403 32.8064C28.5239 32.8997 28.2739 33.1429 28.172 33.4566C28.0701 33.7703 28.1294 34.114 28.3305 34.3754L30.8645 37.6688L30.7503 41.8227C30.7412 42.1524 30.8953 42.4654 31.1621 42.6592C31.4289 42.8531 31.7742 42.9029 32.0849 42.7924L36.0002 41.4001L39.9155 42.7924C40.2263 42.9029 40.5715 42.8531 40.8383 42.6592C41.1052 42.4654 41.2592 42.1524 41.2502 41.8227L41.1359 37.6688L43.67 34.3754C43.8711 34.114 43.9304 33.7703 43.8285 33.4566C43.7265 33.1429 43.4765 32.8997 43.1602 32.8064L39.1743 31.6314L36.8251 28.2037Z" stroke="white" stroke-width="2" stroke-linejoin="round"/>
</g>
<g filter="url(#filter3_i_165_5306)">
<path d="M33.45 32.4901L36.0002 28.769L38.5504 32.4901L42.8774 33.7656L40.1265 37.3409L40.2506 41.8502L36.0002 40.3388L31.7499 41.8502L31.8739 37.3409L29.123 33.7656L33.45 32.4901Z" fill="url(#paint4_linear_165_5306)"/>
</g>
<g filter="url(#filter4_d_165_5306)">
<path fill-rule="evenodd" clip-rule="evenodd" d="M30.6073 49.52L30.261 49.3834C30.0493 49.2999 29.9453 49.0605 30.0289 48.8488C30.0707 48.7426 30.1548 48.6585 30.261 48.6166L30.6073 48.48C31.0065 48.3226 31.3226 48.0065 31.48 47.6073L31.6166 47.261C31.7001 47.0493 31.9395 46.9453 32.1512 47.0289C32.2574 47.0707 32.3415 47.1548 32.3834 47.261L32.52 47.6073C32.6774 48.0065 32.9935 48.3226 33.3927 48.48L33.739 48.6166C33.9507 48.7001 34.0547 48.9395 33.9711 49.1512C33.9293 49.2574 33.8452 49.3415 33.739 49.3834L33.3927 49.52C32.9935 49.6774 32.6774 49.9935 32.52 50.3927L32.3834 50.739C32.2999 50.9507 32.0605 51.0547 31.8488 50.9711C31.7426 50.9293 31.6585 50.8452 31.6166 50.739L31.48 50.3927C31.3226 49.9935 31.0065 49.6774 30.6073 49.52Z" fill="white"/>
</g>
<g filter="url(#filter5_d_165_5306)">
<path fill-rule="evenodd" clip-rule="evenodd" d="M47.7591 32.1499L47.3263 31.9793C47.0616 31.8749 46.9317 31.5757 47.0361 31.311C47.0884 31.1782 47.1935 31.0731 47.3263 31.0207L47.7591 30.8501C48.2582 30.6532 48.6532 30.2582 48.8501 29.7591L49.0207 29.3263C49.1251 29.0616 49.4243 28.9317 49.689 29.0361C49.8218 29.0884 49.9269 29.1935 49.9793 29.3263L50.1499 29.7591C50.3468 30.2582 50.7418 30.6532 51.2409 30.8501L51.6737 31.0207C51.9384 31.1251 52.0683 31.4243 51.9639 31.689C51.9116 31.8218 51.8065 31.9269 51.6737 31.9793L51.2409 32.1499C50.7418 32.3468 50.3468 32.7418 50.1499 33.2409L49.9793 33.6737C49.8749 33.9384 49.5757 34.0683 49.311 33.9639C49.1782 33.9116 49.0731 33.8065 49.0207 33.6737L48.8501 33.2409C48.6532 32.7418 48.2582 32.3468 47.7591 32.1499Z" fill="white"/>
</g>
<g filter="url(#filter6_d_165_5306)">
<path fill-rule="evenodd" clip-rule="evenodd" d="M23.4555 36.89L23.1958 36.7876C23.037 36.7249 22.959 36.5454 23.0216 36.3866C23.0531 36.3069 23.1161 36.2439 23.1958 36.2124L23.4555 36.11C23.7549 35.9919 23.9919 35.7549 24.11 35.4555L24.2124 35.1958C24.2751 35.037 24.4546 34.959 24.6134 35.0216C24.6931 35.0531 24.7561 35.1161 24.7876 35.1958L24.89 35.4555C25.0081 35.7549 25.2451 35.9919 25.5445 36.11L25.8042 36.2124C25.963 36.2751 26.041 36.4546 25.9784 36.6134C25.9469 36.6931 25.8839 36.7561 25.8042 36.7876L25.5445 36.89C25.2451 37.0081 25.0081 37.2451 24.89 37.5445L24.7876 37.8042C24.7249 37.963 24.5454 38.041 24.3866 37.9784C24.3069 37.9469 24.2439 37.8839 24.2124 37.8042L24.11 37.5445C23.9919 37.2451 23.7549 37.0081 23.4555 36.89Z" fill="white"/>
</g>
<defs>
<filter id="filter0_d_165_5306" x="26" y="36" width="20" height="37.3379" filterUnits="userSpaceOnUse" color-interpolation-filters="sRGB">
<feFlood flood-opacity="0" result="BackgroundImageFix"/>
<feColorMatrix in="SourceAlpha" type="matrix" values="0 0 0 0 0 0 0 0 0 0 0 0 0 0 0 0 0 0 127 0" result="hardAlpha"/>
<feOffset dy="2"/>
<feGaussianBlur stdDeviation="1"/>
<feColorMatrix type="matrix" values="0 0 0 0 0.333333 0 0 0 0 0.790431 0 0 0 0 0.819608 0 0 0 0.2 0"/>
<feBlend mode="darken" in2="BackgroundImageFix" result="effect1_dropShadow_165_5306"/>
<feBlend mode="normal" in="SourceGraphic" in2="effect1_dropShadow_165_5306" result="shape"/>
</filter>
<filter id="filter1_d_165_5306" x="18.1338" y="18.4722" width="35.7324" height="34.4722" filterUnits="userSpaceOnUse" color-interpolation-filters="sRGB">
<feFlood flood-opacity="0" result="BackgroundImageFix"/>
<feColorMatrix in="SourceAlpha" type="matrix" values="0 0 0 0 0 0 0 0 0 0 0 0 0 0 0 0 0 0 127 0" result="hardAlpha"/>
<feOffset dy="1"/>
<feGaussianBlur stdDeviation="1"/>
<feColorMatrix type="matrix" values="0 0 0 0 0.0196078 0 0 0 0 0.443137 0 0 0 0 0.643137 0 0 0 0.12 0"/>
<feBlend mode="normal" in2="BackgroundImageFix" result="effect1_dropShadow_165_5306"/>
<feBlend mode="normal" in="SourceGraphic" in2="effect1_dropShadow_165_5306" result="shape"/>
</filter>
<filter id="filter2_d_165_5306" x="25.123" y="25.769" width="21.7544" height="21.0811" filterUnits="userSpaceOnUse" color-interpolation-filters="sRGB">
<feFlood flood-opacity="0" result="BackgroundImageFix"/>
<feColorMatrix in="SourceAlpha" type="matrix" values="0 0 0 0 0 0 0 0 0 0 0 0 0 0 0 0 0 0 127 0" result="hardAlpha"/>
<feOffset dy="1"/>
<feGaussianBlur stdDeviation="1"/>
<feColorMatrix type="matrix" values="0 0 0 0 0.596078 0 0 0 0 0.745098 0 0 0 0 0.780392 0 0 0 0.5 0"/>
<feBlend mode="normal" in2="BackgroundImageFix" result="effect1_dropShadow_165_5306"/>
<feBlend mode="normal" in="SourceGraphic" in2="effect1_dropShadow_165_5306" result="shape"/>
</filter>
<filter id="filter3_i_165_5306" x="29.123" y="28.769" width="13.7544" height="14.0811" filterUnits="userSpaceOnUse" color-interpolation-filters="sRGB">
<feFlood flood-opacity="0" result="BackgroundImageFix"/>
<feBlend mode="normal" in="SourceGraphic" in2="BackgroundImageFix" result="shape"/>
<feColorMatrix in="SourceAlpha" type="matrix" values="0 0 0 0 0 0 0 0 0 0 0 0 0 0 0 0 0 0 127 0" result="hardAlpha"/>
<feOffset dy="1"/>
<feGaussianBlur stdDeviation="0.5"/>
<feComposite in2="hardAlpha" operator="arithmetic" k2="-1" k3="1"/>
<feColorMatrix type="matrix" values="0 0 0 0 0.508286 0 0 0 0 0.694443 0 0 0 0 0.72829 0 0 0 0.4 0"/>
<feBlend mode="normal" in2="shape" result="effect1_innerShadow_165_5306"/>
</filter>
<filter id="filter4_d_165_5306" x="28" y="45" width="8" height="8" filterUnits="userSpaceOnUse" color-interpolation-filters="sRGB">
<feFlood flood-opacity="0" result="BackgroundImageFix"/>
<feColorMatrix in="SourceAlpha" type="matrix" values="0 0 0 0 0 0 0 0 0 0 0 0 0 0 0 0 0 0 127 0" result="hardAlpha"/>
<feOffset/>
<feGaussianBlur stdDeviation="1"/>
<feColorMatrix type="matrix" values="0 0 0 0 0.705882 0 0 0 0 0.823529 0 0 0 0 0.831373 0 0 0 1 0"/>
<feBlend mode="normal" in2="BackgroundImageFix" result="effect1_dropShadow_165_5306"/>
<feBlend mode="normal" in="SourceGraphic" in2="effect1_dropShadow_165_5306" result="shape"/>
</filter>
<filter id="filter5_d_165_5306" x="45" y="27" width="9" height="9" filterUnits="userSpaceOnUse" color-interpolation-filters="sRGB">
<feFlood flood-opacity="0" result="BackgroundImageFix"/>
<feColorMatrix in="SourceAlpha" type="matrix" values="0 0 0 0 0 0 0 0 0 0 0 0 0 0 0 0 0 0 127 0" result="hardAlpha"/>
<feOffset/>
<feGaussianBlur stdDeviation="1"/>
<feColorMatrix type="matrix" values="0 0 0 0 0.705882 0 0 0 0 0.823529 0 0 0 0 0.831373 0 0 0 1 0"/>
<feBlend mode="normal" in2="BackgroundImageFix" result="effect1_dropShadow_165_5306"/>
<feBlend mode="normal" in="SourceGraphic" in2="effect1_dropShadow_165_5306" result="shape"/>
</filter>
<filter id="filter6_d_165_5306" x="21" y="33" width="7" height="7" filterUnits="userSpaceOnUse" color-interpolation-filters="sRGB">
<feFlood flood-opacity="0" result="BackgroundImageFix"/>
<feColorMatrix in="SourceAlpha" type="matrix" values="0 0 0 0 0 0 0 0 0 0 0 0 0 0 0 0 0 0 127 0" result="hardAlpha"/>
<feOffset/>
<feGaussianBlur stdDeviation="1"/>
<feColorMatrix type="matrix" values="0 0 0 0 0.705882 0 0 0 0 0.823529 0 0 0 0 0.831373 0 0 0 1 0"/>
<feBlend mode="normal" in2="BackgroundImageFix" result="effect1_dropShadow_165_5306"/>
<feBlend mode="normal" in="SourceGraphic" in2="effect1_dropShadow_165_5306" result="shape"/>
</filter>
<linearGradient id="paint0_linear_165_5306" x1="13" y1="13" x2="13" y2="59" gradientUnits="userSpaceOnUse">
<stop stop-color="#C4ECEB"/>
<stop offset="1" stop-color="#A7BCC1"/>
</linearGradient>
<linearGradient id="paint1_linear_165_5306" x1="20" y1="20" x2="20" y2="52" gradientUnits="userSpaceOnUse">
<stop stop-color="#F0FBFE"/>
<stop offset="1" stop-color="#C0DCDC"/>
</linearGradient>
<linearGradient id="paint2_linear_165_5306" x1="21.4797" y1="20" x2="21.4797" y2="49.0406" gradientUnits="userSpaceOnUse">
<stop stop-color="#AFD4D6"/>
<stop offset="1" stop-color="#B9D9DB" stop-opacity="0.57"/>
</linearGradient>
<linearGradient id="paint3_linear_165_5306" x1="21.4797" y1="20" x2="21.4797" y2="49.0406" gradientUnits="userSpaceOnUse">
<stop stop-color="#AFD4D6"/>
<stop offset="1" stop-color="#B9D9DB" stop-opacity="0.57"/>
</linearGradient>
<linearGradient id="paint4_linear_165_5306" x1="29.123" y1="28.769" x2="29.123" y2="41.8502" gradientUnits="userSpaceOnUse">
<stop stop-color="#B7D6D8"/>
<stop offset="1" stop-color="#A7BCC1"/>
</linearGradient>
</defs>
</svg>
