<svg width="72" height="74" viewBox="0 0 72 74" fill="none" xmlns="http://www.w3.org/2000/svg">
<g filter="url(#filter0_d_165_5508)">
<path fill-rule="evenodd" clip-rule="evenodd" d="M22 33H38V63.382C38 64.1253 37.2177 64.6088 36.5528 64.2764L30 61L23.4472 64.2764C22.7823 64.6088 22 64.1253 22 63.382V33Z" fill="#7F45F6"/>
</g>
<g filter="url(#filter1_d_165_5508)">
<path fill-rule="evenodd" clip-rule="evenodd" d="M34 33H50V63.382C50 64.1253 49.2177 64.6088 48.5528 64.2764L42 61L35.4472 64.2764C34.7823 64.6088 34 64.1253 34 63.382V33Z" fill="#7F45F6"/>
</g>
<g filter="url(#filter2_d_165_5508)">
<path fill-rule="evenodd" clip-rule="evenodd" d="M28 38H44V68.382C44 69.1253 43.2177 69.6088 42.5528 69.2764L36 66L29.4472 69.2764C28.7823 69.6088 28 69.1253 28 68.382V38Z" fill="white"/>
</g>
<mask id="mask0_165_5508" style="mask-type:luminance" maskUnits="userSpaceOnUse" x="28" y="38" width="16" height="32">
<path fill-rule="evenodd" clip-rule="evenodd" d="M28 38H44V68.382C44 69.1253 43.2177 69.6088 42.5528 69.2764L36 66L29.4472 69.2764C28.7823 69.6088 28 69.1253 28 68.382V38Z" fill="white"/>
</mask>
<g mask="url(#mask0_165_5508)">
<rect x="32" y="38" width="8" height="32" fill="#F55462"/>
</g>
<path style="mix-blend-mode:multiply" opacity="0.8" fill-rule="evenodd" clip-rule="evenodd" d="M34.0001 16.1546C35.2377 15.44 36.7625 15.44 38.0001 16.1546L53.9187 25.3451C55.1563 26.0597 55.9187 27.3802 55.9187 28.8093V47.1905C55.9187 48.6195 55.1563 49.94 53.9187 50.6546L38.0001 59.8452C36.7625 60.5597 35.2377 60.5597 34.0001 59.8452L18.0815 50.6546C16.8439 49.94 16.0815 48.6195 16.0815 47.1905L16.0815 28.8093C16.0815 27.3802 16.8439 26.0597 18.0815 25.3451L34.0001 16.1546Z" fill="#A4053A" fill-opacity="0.2"/>
<path fill-rule="evenodd" clip-rule="evenodd" d="M19 24.5L14 22.5V21.5L9.19839 19.4993C8.72617 19.3026 8.24011 19.7491 8.39625 20.2363L14.0921 38.0074C14.1911 38.3164 14.4339 38.5581 14.7433 38.6558L19 40V24.5Z" fill="url(#paint0_linear_165_5508)" stroke="url(#paint1_linear_165_5508)" stroke-linecap="round" stroke-linejoin="round"/>
<mask id="mask1_165_5508" style="mask-type:luminance" maskUnits="userSpaceOnUse" x="8" y="20" width="12" height="20">
<path fill-rule="evenodd" clip-rule="evenodd" d="M19 25.8541C19 25.0363 18.5021 24.3008 17.7428 23.9971L14.4678 22.6871C14.1853 22.5741 14 22.3005 14 21.9961V21.9961C14 21.6957 13.8194 21.4247 13.542 21.3092L11.9946 20.6644C10.4205 20.0086 8.80036 21.4971 9.32084 23.121L13.9342 37.5148C14.1323 38.1327 14.6178 38.6161 15.2365 38.8115L16.3977 39.1782C17.6868 39.5853 19 38.6229 19 37.2711V25.8541Z" fill="white" stroke="white"/>
</mask>
<g mask="url(#mask1_165_5508)">
<g style="mix-blend-mode:multiply" opacity="0.6" filter="url(#filter3_i_165_5508)">
<path d="M19.1858 30.0359C19.4422 30.1384 19.5669 30.4294 19.4644 30.6858C19.3618 30.9422 19.0708 31.0669 18.8144 30.9644L13.8144 28.9644C13.6246 28.8884 13.5001 28.7046 13.5001 28.5001V27.8335L7.80782 25.4617C7.55292 25.3555 7.43238 25.0627 7.53859 24.8078C7.6448 24.5529 7.93754 24.4324 8.19244 24.5386L14.1924 27.0386C14.3788 27.1162 14.5001 27.2983 14.5001 27.5001V28.1616L19.1858 30.0359Z" fill="#FABC10"/>
</g>
<g style="mix-blend-mode:multiply" opacity="0.6" filter="url(#filter4_i_165_5508)">
<path d="M20.1858 36.0359C20.4422 36.1384 20.5669 36.4294 20.4644 36.6858C20.3618 36.9422 20.0708 37.0669 19.8144 36.9644L14.8144 34.9644C14.6246 34.8884 14.5001 34.7046 14.5001 34.5001V33.8335L8.80782 31.4617C8.55292 31.3555 8.43238 31.0627 8.53859 30.8078C8.6448 30.5529 8.93754 30.4324 9.19244 30.5386L15.1924 33.0386C15.3788 33.1162 15.5001 33.2983 15.5001 33.5001V34.1616L20.1858 36.0359Z" fill="#FABC10"/>
</g>
<g opacity="0.2">
<path fill-rule="evenodd" clip-rule="evenodd" d="M32.9983 12.6766C34.8547 11.6048 37.1419 11.6048 38.9983 12.6766L54.6968 21.7402C56.5533 22.8119 57.6968 24.7927 57.6968 26.9363V45.0634C57.6968 47.207 56.5533 49.1878 54.6968 50.2596L38.9983 59.3231C37.1419 60.3949 34.8547 60.3949 32.9983 59.3231L17.2998 50.2596C15.4434 49.1878 14.2998 47.207 14.2998 45.0634L14.2998 26.9363C14.2998 24.7927 15.4434 22.8119 17.2998 21.7402L32.9983 12.6766Z" fill="#A4053A" fill-opacity="0.2" style="mix-blend-mode:multiply"/>
</g>
</g>
<path fill-rule="evenodd" clip-rule="evenodd" d="M53 24.5L58 22.5V21.5L62.8016 19.4993C63.2738 19.3026 63.7599 19.7491 63.6037 20.2363L57.9079 38.0074C57.8089 38.3164 57.5661 38.5581 57.2567 38.6558L53 40V24.5Z" fill="url(#paint2_linear_165_5508)" stroke="url(#paint3_linear_165_5508)" stroke-linecap="round" stroke-linejoin="round"/>
<mask id="mask2_165_5508" style="mask-type:luminance" maskUnits="userSpaceOnUse" x="52" y="20" width="12" height="20">
<path fill-rule="evenodd" clip-rule="evenodd" d="M53 25.8541C53 25.0363 53.4979 24.3008 54.2572 23.9971L57.5322 22.6871C57.8147 22.5741 58 22.3005 58 21.9961V21.9961C58 21.6957 58.1806 21.4247 58.458 21.3092L60.0054 20.6644C61.5795 20.0086 63.1996 21.4971 62.6792 23.121L58.0658 37.5148C57.8677 38.1327 57.3822 38.6161 56.7635 38.8115L55.6023 39.1782C54.3132 39.5853 53 38.6229 53 37.2711V25.8541Z" fill="white" stroke="white"/>
</mask>
<g mask="url(#mask2_165_5508)">
<g style="mix-blend-mode:multiply" opacity="0.6" filter="url(#filter5_i_165_5508)">
<path d="M52.8142 30.0359C52.5578 30.1384 52.4331 30.4294 52.5356 30.6858C52.6382 30.9422 52.9292 31.0669 53.1856 30.9644L58.1856 28.9644C58.3754 28.8884 58.4999 28.7046 58.4999 28.5001V27.8335L64.1922 25.4617C64.4471 25.3555 64.5676 25.0627 64.4614 24.8078C64.3552 24.5529 64.0625 24.4324 63.8076 24.5386L57.8076 27.0386C57.6212 27.1162 57.4999 27.2983 57.4999 27.5001V28.1616L52.8142 30.0359Z" fill="#FABC10"/>
</g>
<g style="mix-blend-mode:multiply" opacity="0.6" filter="url(#filter6_i_165_5508)">
<path d="M51.8142 36.0359C51.5578 36.1384 51.4331 36.4294 51.5356 36.6858C51.6382 36.9422 51.9292 37.0669 52.1856 36.9644L57.1856 34.9644C57.3754 34.8884 57.4999 34.7046 57.4999 34.5001V33.8335L63.1922 31.4617C63.4471 31.3555 63.5676 31.0627 63.4614 30.8078C63.3552 30.5529 63.0625 30.4324 62.8076 30.5386L56.8076 33.0386C56.6212 33.1162 56.4999 33.2983 56.4999 33.5001V34.1616L51.8142 36.0359Z" fill="#FABC10"/>
</g>
<g opacity="0.2">
<path fill-rule="evenodd" clip-rule="evenodd" d="M39.0017 12.6766C37.1453 11.6048 34.8581 11.6048 33.0017 12.6766L17.3032 21.7402C15.4467 22.8119 14.3032 24.7927 14.3032 26.9363V45.0634C14.3032 47.207 15.4467 49.1878 17.3032 50.2596L33.0017 59.3231C34.8581 60.3949 37.1453 60.3949 39.0017 59.3231L54.7002 50.2596C56.5566 49.1878 57.7002 47.207 57.7002 45.0634L57.7002 26.9363C57.7002 24.7927 56.5566 22.8119 54.7002 21.7402L39.0017 12.6766Z" fill="#A4053A" fill-opacity="0.2" style="mix-blend-mode:multiply"/>
</g>
</g>
<path fill-rule="evenodd" clip-rule="evenodd" d="M18 42L14.474 43.763C14.1775 43.9112 13.9738 44.1967 13.93 44.5253L13.1602 50.2982C13.0946 50.7906 13.6214 51.1449 14.0527 50.8985L20 47.5L18 42Z" fill="url(#paint4_linear_165_5508)" stroke="url(#paint5_linear_165_5508)" stroke-linecap="round" stroke-linejoin="round"/>
<mask id="mask3_165_5508" style="mask-type:luminance" maskUnits="userSpaceOnUse" x="13" y="42" width="8" height="9">
<path fill-rule="evenodd" clip-rule="evenodd" d="M18.7669 44.1089C18.3584 42.9855 17.0621 42.469 15.9929 43.0036L14.948 43.526C14.355 43.8225 13.9475 44.3935 13.8599 45.0505L13.5341 47.4941C13.3153 49.1353 15.0713 50.3164 16.5089 49.4949L18.5368 48.3361C19.3822 47.853 19.7568 46.8313 19.4241 45.9162L18.7669 44.1089Z" fill="white" stroke="white"/>
</mask>
<g mask="url(#mask3_165_5508)">
<g opacity="0.1">
<path fill-rule="evenodd" clip-rule="evenodd" d="M32.7801 12.6766C34.6365 11.6048 36.9237 11.6048 38.7801 12.6766L54.4786 21.7402C56.335 22.8119 57.4786 24.7927 57.4786 26.9363V45.0634C57.4786 47.207 56.335 49.1878 54.4786 50.2596L38.7801 59.3231C36.9237 60.3949 34.6365 60.3949 32.7801 59.3231L17.0815 50.2596C15.2251 49.1878 14.0815 47.207 14.0815 45.0634L14.0815 26.9363C14.0815 24.7927 15.2251 22.8119 17.0815 21.7402L32.7801 12.6766Z" fill="#F37E02" style="mix-blend-mode:multiply"/>
</g>
</g>
<path fill-rule="evenodd" clip-rule="evenodd" d="M54 42L57.526 43.763C57.8225 43.9112 58.0262 44.1967 58.07 44.5253L58.8398 50.2982C58.9054 50.7906 58.3786 51.1449 57.9473 50.8985L52 47.5L54 42Z" fill="url(#paint6_linear_165_5508)" stroke="url(#paint7_linear_165_5508)" stroke-linecap="round" stroke-linejoin="round"/>
<mask id="mask4_165_5508" style="mask-type:luminance" maskUnits="userSpaceOnUse" x="51" y="41" width="9" height="11">
<path fill-rule="evenodd" clip-rule="evenodd" d="M54 42L57.526 43.763C57.8225 43.9112 58.0262 44.1967 58.07 44.5253L58.8398 50.2982C58.9054 50.7906 58.3786 51.1449 57.9473 50.8985L52 47.5L54 42Z" fill="white" stroke="white" stroke-linecap="round" stroke-linejoin="round"/>
</mask>
<g mask="url(#mask4_165_5508)">
<g opacity="0.1">
<path fill-rule="evenodd" clip-rule="evenodd" d="M39.2199 12.6766C37.3635 11.6048 35.0763 11.6048 33.2199 12.6766L17.5214 21.7402C15.665 22.8119 14.5214 24.7927 14.5214 26.9363V45.0634C14.5214 47.207 15.665 49.1878 17.5214 50.2596L33.2199 59.3231C35.0763 60.3949 37.3635 60.3949 39.2199 59.3231L54.9185 50.2596C56.7749 49.1878 57.9185 47.207 57.9185 45.0634L57.9185 26.9363C57.9185 24.7927 56.7749 22.8119 54.9185 21.7402L39.2199 12.6766Z" fill="#F37E02" style="mix-blend-mode:multiply"/>
</g>
</g>
<path fill-rule="evenodd" clip-rule="evenodd" d="M30.0203 23.6749C30.0203 25.2091 29.1429 26.608 27.7618 27.2759L25.8025 28.2235C23.1463 29.508 20.061 27.5729 20.061 24.6224V19.7797C20.061 19.0652 20.4422 18.405 21.061 18.0477L28.5203 13.7411C29.187 13.3562 30.0203 13.8373 30.0203 14.6071V23.6749Z" fill="url(#paint8_linear_165_5508)"/>
<path opacity="0.4" d="M21.2065 18.5398L28.7811 14.1675" stroke="#FDEDAC" stroke-linecap="round"/>
<path fill-rule="evenodd" clip-rule="evenodd" d="M41.9797 23.6749C41.9797 25.2091 42.8571 26.608 44.2382 27.2759L46.1975 28.2235C48.8537 29.508 51.939 27.5729 51.939 24.6224V19.7797C51.939 19.0652 51.5578 18.405 50.939 18.0477L43.4797 13.7411C42.813 13.3562 41.9797 13.8373 41.9797 14.6071V23.6749Z" fill="url(#paint9_linear_165_5508)"/>
<path opacity="0.4" d="M50.7935 18.5398L43.2189 14.1675" stroke="#FDEDAC" stroke-linecap="round"/>
<path fill-rule="evenodd" clip-rule="evenodd" d="M34 14.1547C35.2376 13.4402 36.7624 13.4402 38 14.1547L53.9186 23.3453C55.1562 24.0598 55.9186 25.3803 55.9186 26.8094V45.1906C55.9186 46.6197 55.1562 47.9402 53.9186 48.6547L38 57.8453C36.7624 58.5598 35.2376 58.5598 34 57.8453L18.0814 48.6547C16.8438 47.9402 16.0814 46.6197 16.0814 45.1906V26.8094C16.0814 25.3803 16.8438 24.0598 18.0814 23.3453L34 14.1547Z" fill="url(#paint10_linear_165_5508)" stroke="#FFF04D" stroke-opacity="0.4"/>
<mask id="mask5_165_5508" style="mask-type:luminance" maskUnits="userSpaceOnUse" x="16" y="13" width="40" height="46">
<path fill-rule="evenodd" clip-rule="evenodd" d="M35 13.5774C35.6188 13.2201 36.3812 13.2201 37 13.5774L54.9186 23.9226C55.5374 24.2799 55.9186 24.9402 55.9186 25.6547V46.3453C55.9186 47.0598 55.5374 47.7201 54.9186 48.0774L37 58.4226C36.3812 58.7799 35.6188 58.7799 35 58.4226L17.0814 48.0774C16.4626 47.7201 16.0814 47.0598 16.0814 46.3453V25.6547C16.0814 24.9402 16.4626 24.2799 17.0814 23.9226L35 13.5774Z" fill="white"/>
</mask>
<g mask="url(#mask5_165_5508)">
<g style="mix-blend-mode:multiply" opacity="0.8" filter="url(#filter7_i_165_5508)">
<path fill-rule="evenodd" clip-rule="evenodd" d="M51.6712 25.1886L37.5168 17.0069C36.5783 16.4645 35.4221 16.4645 34.4837 17.0069L20.3292 25.1886C19.3908 25.7311 18.8127 26.7335 18.8127 27.8184V33.7208L17.6652 35.444C17.4417 35.7797 17.4417 36.2169 17.6652 36.5525L18.8127 38.2758V44.1818C18.8127 45.2667 19.3908 46.2691 20.3292 46.8116L34.4837 54.9933C35.4221 55.5357 36.5783 55.5357 37.5168 54.9933L51.6712 46.8116C52.6097 46.2691 53.1878 45.2667 53.1878 44.1818V38.2758L54.3352 36.5525C54.5588 36.2169 54.5588 35.7797 54.3352 35.444L53.1878 33.7208V27.8184C53.1878 26.7335 52.6097 25.7311 51.6712 25.1886ZM19.8237 38.2758V44.1817C19.8237 44.905 20.2091 45.5733 20.8348 45.935L34.9892 54.1166C35.6148 54.4783 36.3856 54.4783 37.0113 54.1166L51.1657 45.935C51.7913 45.5733 52.1767 44.905 52.1767 44.1817V38.2758L51.0292 36.5525C50.8057 36.2169 50.8057 35.7797 51.0292 35.444L52.1767 33.7208V27.8184C52.1767 27.0951 51.7913 26.4268 51.1657 26.0652L37.0113 17.8835C36.3856 17.5219 35.6148 17.5219 34.9892 17.8835L20.8348 26.0652C20.2091 26.4268 19.8237 27.0951 19.8237 27.8184V33.7208L20.9712 35.444C21.1947 35.7797 21.1947 36.2169 20.9712 36.5525L19.8237 38.2758Z" fill="#FABC10"/>
</g>
<path d="M37.7501 14.5876C36.6672 13.9623 35.333 13.9623 34.2501 14.5876L18.3315 23.7782C17.2486 24.4034 16.5815 25.5588 16.5815 26.8093L16.5815 45.1904C16.5815 46.4409 17.2486 47.5963 18.3315 48.2215L34.2501 57.4121C35.333 58.0374 36.6672 58.0374 37.7501 57.4121L53.6687 48.2215C54.7516 47.5963 55.4187 46.4409 55.4187 45.1904V26.8093C55.4187 25.5588 54.7516 24.4034 53.6687 23.7782L37.7501 14.5876Z" stroke="#FAB90A"/>
<path opacity="0.4" d="M37.75 57.4124C39.6222 56.3315 40.9487 55.5656 41.7296 55.1147" stroke="white" stroke-linecap="round"/>
<path d="M55.4187 45.1905V26.8093C55.4187 25.5588 54.7516 24.4034 53.6687 23.7782L37.7501 14.5876C36.6672 13.9623 35.333 13.9623 34.2501 14.5876L18.3315 23.7782C17.2486 24.4034 16.5815 25.5588 16.5815 26.8093L16.5815 45.1905" stroke="#FAC81C" stroke-linecap="round"/>
<path opacity="0.6" d="M55.4187 26.8093C55.4187 25.5588 54.7516 24.4034 53.6687 23.7782L37.7501 14.5876C36.6672 13.9623 35.333 13.9623 34.2501 14.5876L18.3315 23.7782C17.2486 24.4034 16.5815 25.5588 16.5815 26.8093" stroke="#FDDB3D" stroke-linecap="round"/>
<path opacity="0.6" d="M37.7498 14.5876C36.6669 13.9623 35.3327 13.9623 34.2498 14.5876C34.2498 14.5876 28.9436 17.6511 26.2905 19.1829" stroke="white" stroke-linecap="round"/>
<path d="M34.2502 14.5879C34.2502 14.5879 31.4419 16.2092 30.2705 16.8855" stroke="white" stroke-linecap="round"/>
</g>
<g filter="url(#filter8_d_165_5508)">
<path fill-rule="evenodd" clip-rule="evenodd" d="M35 20.5774C35.6188 20.2201 36.3812 20.2201 37 20.5774L48.8564 27.4226C49.4752 27.7799 49.8564 28.4402 49.8564 29.1547V42.8453C49.8564 43.5598 49.4752 44.2201 48.8564 44.5774L37 51.4226C36.3812 51.7799 35.6188 51.7799 35 51.4226L23.1436 44.5774C22.5248 44.2201 22.1436 43.5598 22.1436 42.8453V29.1547C22.1436 28.4402 22.5248 27.7799 23.1436 27.4226L35 20.5774Z" fill="url(#paint11_linear_165_5508)"/>
<path d="M49.1064 26.9896L37.25 20.1443C36.4765 19.6978 35.5235 19.6978 34.75 20.1443L22.8936 26.9896C22.1201 27.4362 21.6436 28.2615 21.6436 29.1547V42.8453C21.6436 43.7385 22.1201 44.5638 22.8936 45.0104L34.75 51.8557C35.5235 52.3022 36.4765 52.3022 37.25 51.8557L49.1064 45.0104C49.8799 44.5638 50.3564 43.7385 50.3564 42.8453V29.1547C50.3564 28.2615 49.8799 27.4362 49.1064 26.9896Z" stroke="#F5900D" stroke-opacity="0.1" style="mix-blend-mode:multiply"/>
</g>
<mask id="mask6_165_5508" style="mask-type:luminance" maskUnits="userSpaceOnUse" x="22" y="20" width="28" height="32">
<path fill-rule="evenodd" clip-rule="evenodd" d="M35 20.5774C35.6188 20.2201 36.3812 20.2201 37 20.5774L48.8564 27.4226C49.4752 27.7799 49.8564 28.4402 49.8564 29.1547V42.8453C49.8564 43.5598 49.4752 44.2201 48.8564 44.5774L37 51.4226C36.3812 51.7799 35.6188 51.7799 35 51.4226L23.1436 44.5774C22.5248 44.2201 22.1436 43.5598 22.1436 42.8453V29.1547C22.1436 28.4402 22.5248 27.7799 23.1436 27.4226L35 20.5774Z" fill="white"/>
</mask>
<g mask="url(#mask6_165_5508)">
<g style="mix-blend-mode:multiply" opacity="0.3">
<path fill-rule="evenodd" clip-rule="evenodd" d="M36 36L20 40V32L36 36ZM36 36L40 20H32L36 36ZM36 36L52 32V40L36 36ZM36 36L44.4853 21.8579L50.1421 27.5147L36 36ZM36 36L44.4853 50.1421L50.1421 44.4853L36 36ZM36 36L32 52H40L36 36ZM36 36L27.5147 50.1421L21.8579 44.4853L36 36Z" fill="#FFD640"/>
<path d="M27.5147 21.8579L21.8579 27.5147L36 36L27.5147 21.8579Z" fill="#FFD640"/>
</g>
<path opacity="0.4" d="M48.6064 27.8558L36.75 21.0105C36.2859 20.7426 35.7141 20.7426 35.25 21.0105C33.8555 21.8156 32.8675 22.386 32.2859 22.7219C31.0754 23.4207 30.0873 23.9912 29.3218 24.4332C28.0044 25.1938 26.0283 26.3347 23.3936 27.8558" stroke="white" stroke-linecap="round"/>
<path d="M35.2502 21.0103C33.8558 21.8153 32.8678 22.3858 32.2861 22.7216" stroke="white" stroke-linecap="round"/>
<path opacity="0.4" d="M48.6064 44.11L36.75 50.9553C36.2859 51.2232 35.7141 51.2232 35.25 50.9553" stroke="white" stroke-linecap="round"/>
</g>
<g filter="url(#filter9_d_165_5508)">
<path d="M29.7778 30.5575L36.0001 26.8335L42.2223 30.5575V41.4429L36.0001 45.1668L29.7778 41.4429V30.5575Z" fill="white"/>
<path d="M29.2643 29.6994C28.9625 29.88 28.7778 30.2058 28.7778 30.5575V41.4429C28.7778 41.7945 28.9625 42.1203 29.2643 42.3009L35.4865 46.0249C35.8027 46.2141 36.1974 46.2141 36.5136 46.0249L42.7358 42.3009C43.0376 42.1203 43.2223 41.7945 43.2223 41.4429V30.5575C43.2223 30.2058 43.0376 29.88 42.7358 29.6994L36.5136 25.9754C36.1974 25.7862 35.8027 25.7862 35.4865 25.9754L29.2643 29.6994Z" stroke="white" stroke-width="2" stroke-linejoin="round"/>
</g>
<path fill-rule="evenodd" clip-rule="evenodd" d="M29.7778 30.5575L36.0001 26.8335V30.8439L33.1718 32.5627L29.7778 30.5575Z" fill="url(#paint12_linear_165_5508)"/>
<path fill-rule="evenodd" clip-rule="evenodd" d="M29.7778 30.5576V41.443L33.1718 39.4378V32.5628L29.7778 30.5576Z" fill="url(#paint13_linear_165_5508)"/>
<path fill-rule="evenodd" clip-rule="evenodd" d="M36.0001 45.1667L29.7778 41.4427L33.1718 39.4375L36.0001 41.1562V45.1667Z" fill="url(#paint14_linear_165_5508)"/>
<path fill-rule="evenodd" clip-rule="evenodd" d="M36 45.1667L42.2222 41.4427L38.8283 39.4375L36 41.1562V45.1667Z" fill="url(#paint15_linear_165_5508)"/>
<path fill-rule="evenodd" clip-rule="evenodd" d="M42.2221 30.5576V41.443L38.8281 39.4378V32.5628L42.2221 30.5576Z" fill="url(#paint16_linear_165_5508)"/>
<path fill-rule="evenodd" clip-rule="evenodd" d="M42.2222 30.5575L36 26.8335V30.8439L38.8283 32.5627L42.2222 30.5575Z" fill="url(#paint17_linear_165_5508)"/>
<path fill-rule="evenodd" clip-rule="evenodd" d="M33.1719 39.4375L36.0002 41.1562L38.8284 39.4375V32.5625L36.0002 30.8438L33.1719 32.5625V39.4375Z" fill="url(#paint18_linear_165_5508)"/>
<g filter="url(#filter10_d_165_5508)">
<path fill-rule="evenodd" clip-rule="evenodd" d="M46.9109 29.7799L46.3916 29.5751C46.0739 29.4498 45.918 29.0908 46.0433 28.7732C46.1061 28.6138 46.2322 28.4877 46.3916 28.4249L46.9109 28.2201C47.5098 27.9839 47.9839 27.5098 48.2201 26.9109L48.4249 26.3916C48.5502 26.0739 48.9092 25.918 49.2268 26.0433C49.3862 26.1061 49.5123 26.2322 49.5751 26.3916L49.7799 26.9109C50.0161 27.5098 50.4902 27.9839 51.0891 28.2201L51.6084 28.4249C51.9261 28.5502 52.082 28.9092 51.9567 29.2268C51.8939 29.3862 51.7678 29.5123 51.6084 29.5751L51.0891 29.7799C50.4902 30.0161 50.0161 30.4902 49.7799 31.0891L49.5751 31.6084C49.4498 31.9261 49.0908 32.082 48.7732 31.9567C48.6138 31.8939 48.4877 31.7678 48.4249 31.6084L48.2201 31.0891C47.9839 30.4902 47.5098 30.0161 46.9109 29.7799Z" fill="white"/>
</g>
<g filter="url(#filter11_d_165_5508)">
<path fill-rule="evenodd" clip-rule="evenodd" d="M24.6073 46.52L24.261 46.3834C24.0493 46.2999 23.9453 46.0605 24.0289 45.8488C24.0707 45.7426 24.1548 45.6585 24.261 45.6166L24.6073 45.48C25.0065 45.3226 25.3226 45.0065 25.48 44.6073L25.6166 44.261C25.7001 44.0493 25.9395 43.9453 26.1512 44.0289C26.2574 44.0707 26.3415 44.1548 26.3834 44.261L26.52 44.6073C26.6774 45.0065 26.9935 45.3226 27.3927 45.48L27.739 45.6166C27.9507 45.7001 28.0547 45.9395 27.9711 46.1512C27.9293 46.2574 27.8452 46.3415 27.739 46.3834L27.3927 46.52C26.9935 46.6774 26.6774 46.9935 26.52 47.3927L26.3834 47.739C26.2999 47.9507 26.0605 48.0547 25.8488 47.9711C25.7426 47.9293 25.6585 47.8452 25.6166 47.739L25.48 47.3927C25.3226 46.9935 25.0065 46.6774 24.6073 46.52Z" fill="white"/>
</g>
<g filter="url(#filter12_d_165_5508)">
<path fill-rule="evenodd" clip-rule="evenodd" d="M20.7591 31.1499L20.3263 30.9793C20.0616 30.8749 19.9317 30.5757 20.0361 30.311C20.0884 30.1782 20.1935 30.0731 20.3263 30.0207L20.7591 29.8501C21.2582 29.6532 21.6532 29.2582 21.8501 28.7591L22.0207 28.3263C22.1251 28.0616 22.4243 27.9317 22.689 28.0361C22.8218 28.0884 22.9269 28.1935 22.9793 28.3263L23.1499 28.7591C23.3468 29.2582 23.7418 29.6532 24.2409 29.8501L24.6737 30.0207C24.9384 30.1251 25.0683 30.4243 24.9639 30.689C24.9116 30.8218 24.8065 30.9269 24.6737 30.9793L24.2409 31.1499C23.7418 31.3468 23.3468 31.7418 23.1499 32.2409L22.9793 32.6737C22.8749 32.9384 22.5757 33.0683 22.311 32.9639C22.1782 32.9116 22.0731 32.8065 22.0207 32.6737L21.8501 32.2409C21.6532 31.7418 21.2582 31.3468 20.7591 31.1499Z" fill="white"/>
</g>
<g filter="url(#filter13_d_165_5508)">
<path fill-rule="evenodd" clip-rule="evenodd" d="M46.4555 44.89L46.1958 44.7876C46.037 44.7249 45.959 44.5454 46.0216 44.3866C46.0531 44.3069 46.1161 44.2439 46.1958 44.2124L46.4555 44.11C46.7549 43.9919 46.9919 43.7549 47.11 43.4555L47.2124 43.1958C47.2751 43.037 47.4546 42.959 47.6134 43.0216C47.6931 43.0531 47.7561 43.1161 47.7876 43.1958L47.89 43.4555C48.0081 43.7549 48.2451 43.9919 48.5445 44.11L48.8042 44.2124C48.963 44.2751 49.041 44.4546 48.9784 44.6134C48.9469 44.6931 48.8839 44.7561 48.8042 44.7876L48.5445 44.89C48.2451 45.0081 48.0081 45.2451 47.89 45.5445L47.7876 45.8042C47.7249 45.963 47.5454 46.041 47.3866 45.9784C47.3069 45.9469 47.2439 45.8839 47.2124 45.8042L47.11 45.5445C46.9919 45.2451 46.7549 45.0081 46.4555 44.89Z" fill="white"/>
</g>
<defs>
<filter id="filter0_d_165_5508" x="20" y="33" width="20" height="35.3833" filterUnits="userSpaceOnUse" color-interpolation-filters="sRGB">
<feFlood flood-opacity="0" result="BackgroundImageFix"/>
<feColorMatrix in="SourceAlpha" type="matrix" values="0 0 0 0 0 0 0 0 0 0 0 0 0 0 0 0 0 0 127 0" result="hardAlpha"/>
<feOffset dy="2"/>
<feGaussianBlur stdDeviation="1"/>
<feColorMatrix type="matrix" values="0 0 0 0 0.921569 0 0 0 0 0.215686 0 0 0 0 0.305882 0 0 0 0.2 0"/>
<feBlend mode="darken" in2="BackgroundImageFix" result="effect1_dropShadow_165_5508"/>
<feBlend mode="normal" in="SourceGraphic" in2="effect1_dropShadow_165_5508" result="shape"/>
</filter>
<filter id="filter1_d_165_5508" x="32" y="33" width="20" height="35.3833" filterUnits="userSpaceOnUse" color-interpolation-filters="sRGB">
<feFlood flood-opacity="0" result="BackgroundImageFix"/>
<feColorMatrix in="SourceAlpha" type="matrix" values="0 0 0 0 0 0 0 0 0 0 0 0 0 0 0 0 0 0 127 0" result="hardAlpha"/>
<feOffset dy="2"/>
<feGaussianBlur stdDeviation="1"/>
<feColorMatrix type="matrix" values="0 0 0 0 0.921569 0 0 0 0 0.215686 0 0 0 0 0.305882 0 0 0 0.2 0"/>
<feBlend mode="darken" in2="BackgroundImageFix" result="effect1_dropShadow_165_5508"/>
<feBlend mode="normal" in="SourceGraphic" in2="effect1_dropShadow_165_5508" result="shape"/>
</filter>
<filter id="filter2_d_165_5508" x="26" y="38" width="20" height="35.3833" filterUnits="userSpaceOnUse" color-interpolation-filters="sRGB">
<feFlood flood-opacity="0" result="BackgroundImageFix"/>
<feColorMatrix in="SourceAlpha" type="matrix" values="0 0 0 0 0 0 0 0 0 0 0 0 0 0 0 0 0 0 127 0" result="hardAlpha"/>
<feOffset dy="2"/>
<feGaussianBlur stdDeviation="1"/>
<feColorMatrix type="matrix" values="0 0 0 0 0.921569 0 0 0 0 0.215686 0 0 0 0 0.305882 0 0 0 0.2 0"/>
<feBlend mode="darken" in2="BackgroundImageFix" result="effect1_dropShadow_165_5508"/>
<feBlend mode="normal" in="SourceGraphic" in2="effect1_dropShadow_165_5508" result="shape"/>
</filter>
<filter id="filter3_i_165_5508" x="7.5" y="24.5" width="12.0005" height="7.50049" filterUnits="userSpaceOnUse" color-interpolation-filters="sRGB">
<feFlood flood-opacity="0" result="BackgroundImageFix"/>
<feBlend mode="normal" in="SourceGraphic" in2="BackgroundImageFix" result="shape"/>
<feColorMatrix in="SourceAlpha" type="matrix" values="0 0 0 0 0 0 0 0 0 0 0 0 0 0 0 0 0 0 127 0" result="hardAlpha"/>
<feOffset dy="1"/>
<feGaussianBlur stdDeviation="0.5"/>
<feComposite in2="hardAlpha" operator="arithmetic" k2="-1" k3="1"/>
<feColorMatrix type="matrix" values="0 0 0 0 0.976471 0 0 0 0 0.713726 0 0 0 0 0.0352941 0 0 0 1 0"/>
<feBlend mode="normal" in2="shape" result="effect1_innerShadow_165_5508"/>
</filter>
<filter id="filter4_i_165_5508" x="8.5" y="30.5" width="12.0005" height="7.50049" filterUnits="userSpaceOnUse" color-interpolation-filters="sRGB">
<feFlood flood-opacity="0" result="BackgroundImageFix"/>
<feBlend mode="normal" in="SourceGraphic" in2="BackgroundImageFix" result="shape"/>
<feColorMatrix in="SourceAlpha" type="matrix" values="0 0 0 0 0 0 0 0 0 0 0 0 0 0 0 0 0 0 127 0" result="hardAlpha"/>
<feOffset dy="1"/>
<feGaussianBlur stdDeviation="0.5"/>
<feComposite in2="hardAlpha" operator="arithmetic" k2="-1" k3="1"/>
<feColorMatrix type="matrix" values="0 0 0 0 0.976471 0 0 0 0 0.713726 0 0 0 0 0.0352941 0 0 0 1 0"/>
<feBlend mode="normal" in2="shape" result="effect1_innerShadow_165_5508"/>
</filter>
<filter id="filter5_i_165_5508" x="52.4995" y="24.5" width="12.0005" height="7.50049" filterUnits="userSpaceOnUse" color-interpolation-filters="sRGB">
<feFlood flood-opacity="0" result="BackgroundImageFix"/>
<feBlend mode="normal" in="SourceGraphic" in2="BackgroundImageFix" result="shape"/>
<feColorMatrix in="SourceAlpha" type="matrix" values="0 0 0 0 0 0 0 0 0 0 0 0 0 0 0 0 0 0 127 0" result="hardAlpha"/>
<feOffset dy="1"/>
<feGaussianBlur stdDeviation="0.5"/>
<feComposite in2="hardAlpha" operator="arithmetic" k2="-1" k3="1"/>
<feColorMatrix type="matrix" values="0 0 0 0 0.976471 0 0 0 0 0.713726 0 0 0 0 0.0352941 0 0 0 1 0"/>
<feBlend mode="normal" in2="shape" result="effect1_innerShadow_165_5508"/>
</filter>
<filter id="filter6_i_165_5508" x="51.4995" y="30.5" width="12.0005" height="7.50049" filterUnits="userSpaceOnUse" color-interpolation-filters="sRGB">
<feFlood flood-opacity="0" result="BackgroundImageFix"/>
<feBlend mode="normal" in="SourceGraphic" in2="BackgroundImageFix" result="shape"/>
<feColorMatrix in="SourceAlpha" type="matrix" values="0 0 0 0 0 0 0 0 0 0 0 0 0 0 0 0 0 0 127 0" result="hardAlpha"/>
<feOffset dy="1"/>
<feGaussianBlur stdDeviation="0.5"/>
<feComposite in2="hardAlpha" operator="arithmetic" k2="-1" k3="1"/>
<feColorMatrix type="matrix" values="0 0 0 0 0.976471 0 0 0 0 0.713726 0 0 0 0 0.0352941 0 0 0 1 0"/>
<feBlend mode="normal" in2="shape" result="effect1_innerShadow_165_5508"/>
</filter>
<filter id="filter7_i_165_5508" x="17.4976" y="16.6001" width="37.0054" height="39.7998" filterUnits="userSpaceOnUse" color-interpolation-filters="sRGB">
<feFlood flood-opacity="0" result="BackgroundImageFix"/>
<feBlend mode="normal" in="SourceGraphic" in2="BackgroundImageFix" result="shape"/>
<feColorMatrix in="SourceAlpha" type="matrix" values="0 0 0 0 0 0 0 0 0 0 0 0 0 0 0 0 0 0 127 0" result="hardAlpha"/>
<feOffset dy="1"/>
<feGaussianBlur stdDeviation="0.5"/>
<feComposite in2="hardAlpha" operator="arithmetic" k2="-1" k3="1"/>
<feColorMatrix type="matrix" values="0 0 0 0 0.976471 0 0 0 0 0.713726 0 0 0 0 0.0352941 0 0 0 1 0"/>
<feBlend mode="normal" in2="shape" result="effect1_innerShadow_165_5508"/>
</filter>
<filter id="filter8_d_165_5508" x="19.1436" y="18.3096" width="33.7129" height="37.3809" filterUnits="userSpaceOnUse" color-interpolation-filters="sRGB">
<feFlood flood-opacity="0" result="BackgroundImageFix"/>
<feColorMatrix in="SourceAlpha" type="matrix" values="0 0 0 0 0 0 0 0 0 0 0 0 0 0 0 0 0 0 127 0" result="hardAlpha"/>
<feOffset dy="1"/>
<feGaussianBlur stdDeviation="1"/>
<feColorMatrix type="matrix" values="0 0 0 0 0.927721 0 0 0 0 0.665867 0 0 0 0 0.0535899 0 0 0 0.4 0"/>
<feBlend mode="normal" in2="BackgroundImageFix" result="effect1_dropShadow_165_5508"/>
<feBlend mode="normal" in="SourceGraphic" in2="effect1_dropShadow_165_5508" result="shape"/>
</filter>
<filter id="filter9_d_165_5508" x="25.7778" y="23.8335" width="20.4443" height="26.3335" filterUnits="userSpaceOnUse" color-interpolation-filters="sRGB">
<feFlood flood-opacity="0" result="BackgroundImageFix"/>
<feColorMatrix in="SourceAlpha" type="matrix" values="0 0 0 0 0 0 0 0 0 0 0 0 0 0 0 0 0 0 127 0" result="hardAlpha"/>
<feOffset dy="1"/>
<feGaussianBlur stdDeviation="1"/>
<feColorMatrix type="matrix" values="0 0 0 0 0.996078 0 0 0 0 0.733333 0 0 0 0 0.105882 0 0 0 1 0"/>
<feBlend mode="normal" in2="BackgroundImageFix" result="effect1_dropShadow_165_5508"/>
<feBlend mode="normal" in="SourceGraphic" in2="effect1_dropShadow_165_5508" result="shape"/>
</filter>
<filter id="filter10_d_165_5508" x="44" y="24" width="10" height="10" filterUnits="userSpaceOnUse" color-interpolation-filters="sRGB">
<feFlood flood-opacity="0" result="BackgroundImageFix"/>
<feColorMatrix in="SourceAlpha" type="matrix" values="0 0 0 0 0 0 0 0 0 0 0 0 0 0 0 0 0 0 127 0" result="hardAlpha"/>
<feOffset/>
<feGaussianBlur stdDeviation="1"/>
<feColorMatrix type="matrix" values="0 0 0 0 1 0 0 0 0 0.94902 0 0 0 0 0.305882 0 0 0 1 0"/>
<feBlend mode="normal" in2="BackgroundImageFix" result="effect1_dropShadow_165_5508"/>
<feBlend mode="normal" in="SourceGraphic" in2="effect1_dropShadow_165_5508" result="shape"/>
</filter>
<filter id="filter11_d_165_5508" x="22" y="42" width="8" height="8" filterUnits="userSpaceOnUse" color-interpolation-filters="sRGB">
<feFlood flood-opacity="0" result="BackgroundImageFix"/>
<feColorMatrix in="SourceAlpha" type="matrix" values="0 0 0 0 0 0 0 0 0 0 0 0 0 0 0 0 0 0 127 0" result="hardAlpha"/>
<feOffset/>
<feGaussianBlur stdDeviation="1"/>
<feColorMatrix type="matrix" values="0 0 0 0 1 0 0 0 0 0.94902 0 0 0 0 0.305882 0 0 0 1 0"/>
<feBlend mode="normal" in2="BackgroundImageFix" result="effect1_dropShadow_165_5508"/>
<feBlend mode="normal" in="SourceGraphic" in2="effect1_dropShadow_165_5508" result="shape"/>
</filter>
<filter id="filter12_d_165_5508" x="18" y="26" width="9" height="9" filterUnits="userSpaceOnUse" color-interpolation-filters="sRGB">
<feFlood flood-opacity="0" result="BackgroundImageFix"/>
<feColorMatrix in="SourceAlpha" type="matrix" values="0 0 0 0 0 0 0 0 0 0 0 0 0 0 0 0 0 0 127 0" result="hardAlpha"/>
<feOffset/>
<feGaussianBlur stdDeviation="1"/>
<feColorMatrix type="matrix" values="0 0 0 0 1 0 0 0 0 0.94902 0 0 0 0 0.305882 0 0 0 1 0"/>
<feBlend mode="normal" in2="BackgroundImageFix" result="effect1_dropShadow_165_5508"/>
<feBlend mode="normal" in="SourceGraphic" in2="effect1_dropShadow_165_5508" result="shape"/>
</filter>
<filter id="filter13_d_165_5508" x="44" y="41" width="7" height="7" filterUnits="userSpaceOnUse" color-interpolation-filters="sRGB">
<feFlood flood-opacity="0" result="BackgroundImageFix"/>
<feColorMatrix in="SourceAlpha" type="matrix" values="0 0 0 0 0 0 0 0 0 0 0 0 0 0 0 0 0 0 127 0" result="hardAlpha"/>
<feOffset/>
<feGaussianBlur stdDeviation="1"/>
<feColorMatrix type="matrix" values="0 0 0 0 1 0 0 0 0 0.94902 0 0 0 0 0.305882 0 0 0 1 0"/>
<feBlend mode="normal" in2="BackgroundImageFix" result="effect1_dropShadow_165_5508"/>
<feBlend mode="normal" in="SourceGraphic" in2="effect1_dropShadow_165_5508" result="shape"/>
</filter>
<linearGradient id="paint0_linear_165_5508" x1="8" y1="19" x2="8" y2="40" gradientUnits="userSpaceOnUse">
<stop stop-color="#F7C71A"/>
<stop offset="1" stop-color="#FBAA00"/>
</linearGradient>
<linearGradient id="paint1_linear_165_5508" x1="8" y1="19" x2="8" y2="40" gradientUnits="userSpaceOnUse">
<stop stop-color="#FFDF6B"/>
<stop offset="1" stop-color="#F8A60A"/>
</linearGradient>
<linearGradient id="paint2_linear_165_5508" x1="64" y1="19" x2="64" y2="40" gradientUnits="userSpaceOnUse">
<stop stop-color="#F7C71A"/>
<stop offset="1" stop-color="#FBAA00"/>
</linearGradient>
<linearGradient id="paint3_linear_165_5508" x1="64" y1="19" x2="64" y2="40" gradientUnits="userSpaceOnUse">
<stop stop-color="#FFDF6B"/>
<stop offset="1" stop-color="#F8A60A"/>
</linearGradient>
<linearGradient id="paint4_linear_165_5508" x1="13" y1="42" x2="13" y2="51.5" gradientUnits="userSpaceOnUse">
<stop stop-color="#F7C71A"/>
<stop offset="1" stop-color="#FBAA00"/>
</linearGradient>
<linearGradient id="paint5_linear_165_5508" x1="13" y1="42" x2="13" y2="51.5" gradientUnits="userSpaceOnUse">
<stop stop-color="#FFDF6B"/>
<stop offset="1" stop-color="#F8A60A"/>
</linearGradient>
<linearGradient id="paint6_linear_165_5508" x1="59" y1="42" x2="59" y2="51.5" gradientUnits="userSpaceOnUse">
<stop stop-color="#F7C71A"/>
<stop offset="1" stop-color="#FBAA00"/>
</linearGradient>
<linearGradient id="paint7_linear_165_5508" x1="59" y1="42" x2="59" y2="51.5" gradientUnits="userSpaceOnUse">
<stop stop-color="#FFDF6B"/>
<stop offset="1" stop-color="#F8A60A"/>
</linearGradient>
<linearGradient id="paint8_linear_165_5508" x1="20.061" y1="13.6069" x2="20.061" y2="28.9387" gradientUnits="userSpaceOnUse">
<stop stop-color="#FBCC24"/>
<stop offset="1" stop-color="#F9B800"/>
</linearGradient>
<linearGradient id="paint9_linear_165_5508" x1="51.939" y1="13.6069" x2="51.939" y2="28.9387" gradientUnits="userSpaceOnUse">
<stop stop-color="#FBCC24"/>
<stop offset="1" stop-color="#F9B800"/>
</linearGradient>
<linearGradient id="paint10_linear_165_5508" x1="13" y1="13" x2="13" y2="59" gradientUnits="userSpaceOnUse">
<stop stop-color="#FDE046"/>
<stop offset="1" stop-color="#F9B800"/>
</linearGradient>
<linearGradient id="paint11_linear_165_5508" x1="20" y1="20" x2="20" y2="52" gradientUnits="userSpaceOnUse">
<stop stop-color="#FFF550"/>
<stop offset="1" stop-color="#FFD541"/>
</linearGradient>
<linearGradient id="paint12_linear_165_5508" x1="36.47" y1="30.7864" x2="34.7761" y2="27.6092" gradientUnits="userSpaceOnUse">
<stop stop-color="#FFD3D3"/>
<stop offset="1" stop-color="#FF7E8A"/>
</linearGradient>
<linearGradient id="paint13_linear_165_5508" x1="33.1718" y1="41.443" x2="33.1718" y2="30.5576" gradientUnits="userSpaceOnUse">
<stop stop-color="#FF8B89"/>
<stop offset="1" stop-color="#F34C5D"/>
</linearGradient>
<linearGradient id="paint14_linear_165_5508" x1="34.4937" y1="43.9548" x2="35.86" y2="40.9107" gradientUnits="userSpaceOnUse">
<stop stop-color="#FF7F7D"/>
<stop offset="1" stop-color="#F21248"/>
</linearGradient>
<linearGradient id="paint15_linear_165_5508" x1="42.2222" y1="45.1667" x2="42.2222" y2="39.4375" gradientUnits="userSpaceOnUse">
<stop stop-color="#FF8B89"/>
<stop offset="1" stop-color="#F34C5D"/>
</linearGradient>
<linearGradient id="paint16_linear_165_5508" x1="42.2221" y1="41.443" x2="42.2221" y2="30.5576" gradientUnits="userSpaceOnUse">
<stop stop-color="#FF8B89"/>
<stop offset="1" stop-color="#F34C5D"/>
</linearGradient>
<linearGradient id="paint17_linear_165_5508" x1="38.9222" y1="32.4882" x2="40.4562" y2="29.5171" gradientUnits="userSpaceOnUse">
<stop stop-color="#FF7F7D"/>
<stop offset="1" stop-color="#F21248"/>
</linearGradient>
<linearGradient id="paint18_linear_165_5508" x1="38.8284" y1="41.1562" x2="38.8284" y2="30.8438" gradientUnits="userSpaceOnUse">
<stop stop-color="#FF7F7D"/>
<stop offset="1" stop-color="#F21248"/>
</linearGradient>
</defs>
</svg>
