<svg width="72" height="74" viewBox="0 0 72 74" fill="none" xmlns="http://www.w3.org/2000/svg">
<g filter="url(#filter0_d_165_5205)">
<path fill-rule="evenodd" clip-rule="evenodd" d="M28 36H44V68.3364C44 69.0906 43.1969 69.5734 42.5308 69.2195L36 65.75L29.4692 69.2195C28.8031 69.5734 28 69.0906 28 68.3364V36Z" fill="#F56123"/>
</g>
<circle style="mix-blend-mode:multiply" opacity="0.2" cx="36" cy="38" r="20" fill="#F0BA6E"/>
<g filter="url(#filter1_d_165_5205)">
<circle cx="36" cy="36" r="20" fill="url(#paint0_linear_165_5205)"/>
</g>
<mask id="mask0_165_5205" style="mask-type:luminance" maskUnits="userSpaceOnUse" x="16" y="16" width="40" height="40">
<circle cx="36" cy="36" r="20" fill="white"/>
</mask>
<g mask="url(#mask0_165_5205)">
<path d="M16.5 35.9999C16.5 46.7695 25.2304 55.4999 36 55.4999C46.7696 55.4999 55.5 46.7695 55.5 35.9999" stroke="#DA913B"/>
<path d="M49.7886 49.7885C53.3174 46.2597 55.5 41.3847 55.5 35.9999C55.5 33.0657 54.8519 30.2828 53.6911 27.7866" stroke="#E1A04B" stroke-linecap="round"/>
<path d="M51.3951 24.0302C47.827 19.4477 42.2577 16.5 36 16.5C25.2304 16.5 16.5 25.2304 16.5 36C16.5 41.3848 18.6826 46.2598 22.2114 49.7886" stroke="#E1A04B" stroke-linecap="round"/>
<path opacity="0.6" d="M51.4002 24.0368C47.8323 19.4505 42.2607 16.5 35.9999 16.5C29.7036 16.5 24.1043 19.4841 20.5391 24.1152" stroke="#FFC875" stroke-linecap="round"/>
<path opacity="0.8" d="M35.9999 16.5C32.3417 16.5 28.9188 17.5073 25.9934 19.2598" stroke="#FFECD0" stroke-linecap="round"/>
<g style="mix-blend-mode:multiply" opacity="0.2">
<rect x="39.8389" y="40.59" width="10" height="35" rx="5" transform="rotate(45 39.8389 40.59)" stroke="#EBB570" stroke-width="2"/>
</g>
<g style="mix-blend-mode:multiply" opacity="0.2">
<path d="M40.6237 49.2819L21.2818 68.6237C20.5698 69.3357 19.4154 69.3357 18.7034 68.6237C17.9914 67.9117 17.9914 66.7573 18.7034 66.0453L38.0453 46.7034C38.7573 45.9914 39.9117 45.9914 40.6237 46.7034C41.3357 47.4154 41.3357 48.5698 40.6237 49.2819Z" stroke="#EBB570" stroke-width="2"/>
</g>
<g style="mix-blend-mode:multiply" opacity="0.2">
<path d="M17.2901 45.6153L12.6155 50.2899C7.8532 55.0522 0.132038 55.0522 -4.63023 50.2899C-9.39249 45.5276 -9.39249 37.8065 -4.63023 33.0442L0.0443912 28.3696C4.80666 23.6073 12.5278 23.6073 17.2901 28.3696C22.0523 33.1318 22.0523 40.853 17.2901 45.6153Z" stroke="#EBB570" stroke-width="2"/>
</g>
<g style="mix-blend-mode:multiply" opacity="0.2">
<rect x="53.8389" y="8.58999" width="10" height="35" rx="5" transform="rotate(45 53.8389 8.58999)" stroke="#EBB570" stroke-width="2"/>
</g>
<g style="mix-blend-mode:multiply" opacity="0.2">
<path d="M57.3742 14.7037L35.2039 36.874C34.4919 37.5861 33.3375 37.5861 32.6254 36.874C31.9134 36.162 31.9134 35.0076 32.6254 34.2956L54.7957 12.1253C55.5078 11.4133 56.6622 11.4133 57.3742 12.1253C58.0862 12.8373 58.0862 13.9917 57.3742 14.7037Z" stroke="#EBB570" stroke-width="2"/>
</g>
</g>
<g filter="url(#filter2_d_165_5205)">
<circle cx="36" cy="36" r="15" fill="url(#paint1_linear_165_5205)"/>
<circle cx="36" cy="36" r="15.5" stroke="#D78834" stroke-opacity="0.06"/>
</g>
<mask id="mask1_165_5205" style="mask-type:luminance" maskUnits="userSpaceOnUse" x="21" y="21" width="30" height="30">
<circle cx="36" cy="36" r="15" fill="white"/>
</mask>
<g mask="url(#mask1_165_5205)">
<g style="mix-blend-mode:multiply" opacity="0.2">
<path d="M19.2901 45.6153L14.6155 50.2899C9.8532 55.0522 2.13204 55.0522 -2.63023 50.2899C-7.39249 45.5276 -7.39249 37.8065 -2.63023 33.0442L2.04439 28.3696C6.80666 23.6073 14.5278 23.6073 19.2901 28.3696C24.0523 33.1318 24.0523 40.853 19.2901 45.6153Z" stroke="#EBB570" stroke-width="2"/>
</g>
<g style="mix-blend-mode:multiply" opacity="0.2">
<rect x="56.1631" y="1.41421" width="10" height="35" rx="5" transform="rotate(45 56.1631 1.41421)" stroke="#EBB570" stroke-width="2"/>
</g>
<g style="mix-blend-mode:multiply" opacity="0.2">
<rect x="40.8389" y="38.59" width="10" height="35" rx="5" transform="rotate(45 40.8389 38.59)" stroke="#EBB570" stroke-width="2"/>
</g>
<g style="mix-blend-mode:multiply" opacity="0.2">
<path d="M59.6237 7.28185L40.2818 26.6237C39.5698 27.3357 38.4154 27.3357 37.7034 26.6237C36.9914 25.9117 36.9914 24.7573 37.7034 24.0453L57.0453 4.70343C57.7573 3.99141 58.9117 3.99141 59.6237 4.70343C60.3357 5.41544 60.3357 6.56984 59.6237 7.28185Z" stroke="#EBB570" stroke-width="2"/>
</g>
<g style="mix-blend-mode:multiply" opacity="0.2">
<path d="M41.2997 47.4576L21.9578 66.7995C21.2458 67.5115 20.0914 67.5115 19.3794 66.7995C18.6674 66.0875 18.6674 64.9331 19.3794 64.2211L38.7213 44.8792C39.4333 44.1672 40.5877 44.1672 41.2997 44.8792C42.0117 45.5912 42.0117 46.7456 41.2997 47.4576Z" stroke="#EBB570" stroke-width="2"/>
</g>
<path opacity="0.8" d="M36.0001 21.5C34.0341 21.5 32.1595 21.8913 30.45 22.6002" stroke="#FFECD0" stroke-linecap="round"/>
</g>
<g filter="url(#filter3_d_165_5205)">
<mask id="path-24-outside-1_165_5205" maskUnits="userSpaceOnUse" x="27" y="25" width="18" height="19" fill="black">
<rect fill="white" x="27" y="25" width="18" height="19"/>
<path fill-rule="evenodd" clip-rule="evenodd" d="M40.5 26C40.5 26 39.5 26 38 27C37.0445 27.637 36.4948 28.4768 36.2216 29.0026C36.148 29.0009 36.0741 29 36 29C31.5817 29 28 32.134 28 36C28 39.866 31.5817 43 36 43C40.4183 43 44 39.866 44 36C44 33.634 42.6585 31.5421 40.6046 30.2751C40.586 30.1948 40.5517 30.1034 40.5 30C39.5 28 40.5 26 40.5 26Z"/>
</mask>
<path fill-rule="evenodd" clip-rule="evenodd" d="M40.5 26C40.5 26 39.5 26 38 27C37.0445 27.637 36.4948 28.4768 36.2216 29.0026C36.148 29.0009 36.0741 29 36 29C31.5817 29 28 32.134 28 36C28 39.866 31.5817 43 36 43C40.4183 43 44 39.866 44 36C44 33.634 42.6585 31.5421 40.6046 30.2751C40.586 30.1948 40.5517 30.1034 40.5 30C39.5 28 40.5 26 40.5 26Z" fill="white"/>
<path d="M38 27L38.5547 27.8321L38.5547 27.8321L38 27ZM40.5 26L41.3944 26.4472C41.5494 26.1372 41.5329 25.7691 41.3507 25.4743C41.1684 25.1795 40.8466 25 40.5 25V26ZM36.2216 29.0026L36.1978 30.0024C36.5795 30.0114 36.933 29.8024 37.109 29.4637L36.2216 29.0026ZM40.6046 30.2751L39.6305 30.5008C39.6907 30.7609 39.8524 30.986 40.0796 31.1261L40.6046 30.2751ZM40.5 30L41.3944 29.5528L41.3944 29.5528L40.5 30ZM38.5547 27.8321C39.2178 27.39 39.7482 27.1834 40.0872 27.0865C40.2574 27.0379 40.3816 27.0163 40.4525 27.0069C40.488 27.0021 40.5103 27.0004 40.5185 26.9999C40.5226 26.9996 40.5232 26.9996 40.5201 26.9997C40.5186 26.9998 40.5162 26.9999 40.5128 26.9999C40.5112 26.9999 40.5093 27 40.5071 27C40.506 27 40.5049 27 40.5037 27C40.5031 27 40.5025 27 40.5019 27C40.5016 27 40.5011 27 40.501 27C40.5005 27 40.5 27 40.5 26C40.5 25 40.4995 25 40.499 25C40.4988 25 40.4983 25 40.498 25C40.4973 25 40.4966 25 40.4959 25C40.4945 25 40.493 25 40.4914 25C40.4883 25.0001 40.485 25.0001 40.4813 25.0002C40.4741 25.0003 40.4659 25.0005 40.4567 25.0007C40.4382 25.0013 40.4159 25.0023 40.3897 25.004C40.3374 25.0074 40.2698 25.0135 40.1881 25.0244C40.0247 25.0462 39.8051 25.0871 39.5378 25.1635C39.0018 25.3166 38.2822 25.61 37.4453 26.1679L38.5547 27.8321ZM37.109 29.4637C37.3352 29.0282 37.7864 28.3442 38.5547 27.8321L37.4453 26.1679C36.3026 26.9297 35.6544 27.9254 35.3342 28.5416L37.109 29.4637ZM36 30C36.0662 30 36.1321 30.0008 36.1978 30.0024L36.2454 28.0029C36.1639 28.001 36.0821 28 36 28V30ZM29 36C29 32.8075 32.0044 30 36 30V28C31.159 28 27 31.4605 27 36H29ZM36 42C32.0044 42 29 39.1925 29 36H27C27 40.5395 31.159 44 36 44V42ZM43 36C43 39.1925 39.9956 42 36 42V44C40.841 44 45 40.5395 45 36H43ZM40.0796 31.1261C41.8862 32.2407 43 34.0337 43 36H45C45 33.2342 43.4307 30.8436 41.1297 29.424L40.0796 31.1261ZM39.6056 30.4472C39.6185 30.4731 39.6259 30.4907 39.6297 30.5008C39.6335 30.5109 39.6327 30.5106 39.6305 30.5008L41.5788 30.0493C41.5377 29.8719 41.4705 29.705 41.3944 29.5528L39.6056 30.4472ZM40.5 26C39.6056 25.5528 39.6054 25.5531 39.6052 25.5535C39.6051 25.5536 39.605 25.554 39.6048 25.5543C39.6046 25.5548 39.6043 25.5554 39.604 25.556C39.6034 25.5572 39.6028 25.5585 39.602 25.5599C39.6006 25.5628 39.599 25.5662 39.5971 25.5701C39.5933 25.5778 39.5887 25.5876 39.5832 25.5993C39.5723 25.6226 39.5581 25.6538 39.5414 25.6922C39.5082 25.769 39.4648 25.8754 39.4176 26.0074C39.3238 26.2702 39.2127 26.6409 39.1386 27.0856C38.9912 27.9703 38.9824 29.2008 39.6056 30.4472L41.3944 29.5528C41.0176 28.7992 41.0088 28.0297 41.1114 27.4144C41.1623 27.1091 41.2387 26.8548 41.3011 26.6801C41.3321 26.5933 41.359 26.5279 41.3765 26.4875C41.3853 26.4673 41.3916 26.4535 41.3948 26.4466C41.3964 26.4432 41.3973 26.4415 41.3972 26.4415C41.3972 26.4416 41.397 26.4421 41.3965 26.443C41.3963 26.4435 41.396 26.4441 41.3956 26.4448C41.3955 26.4451 41.3953 26.4455 41.3951 26.4459C41.395 26.4461 41.3948 26.4464 41.3948 26.4465C41.3946 26.4469 41.3944 26.4472 40.5 26Z" fill="white" mask="url(#path-24-outside-1_165_5205)"/>
</g>
<g filter="url(#filter4_i_165_5205)">
<path fill-rule="evenodd" clip-rule="evenodd" d="M40.5 26C40.5 26 39.5 26 38 27C37.0445 27.637 36.4948 28.4768 36.2216 29.0026C36.148 29.0009 36.0741 29 36 29C31.5817 29 28 32.134 28 36C28 39.866 31.5817 43 36 43C40.4183 43 44 39.866 44 36C44 33.743 42.7792 31.7355 40.8839 30.4554C40.7172 30.2963 40.5657 30.1314 40.5 30C39.5 28 40.5 26 40.5 26Z" fill="url(#paint2_linear_165_5205)"/>
</g>
<path d="M38 27L38.5547 27.8321L38.5547 27.8321L38 27ZM40.5 26L41.3944 26.4472C41.5494 26.1372 41.5329 25.7691 41.3507 25.4743C41.1684 25.1795 40.8466 25 40.5 25V26ZM36.2216 29.0026L36.1978 30.0024C36.5795 30.0114 36.933 29.8024 37.109 29.4637L36.2216 29.0026ZM40.8839 30.4554L40.1936 31.1789C40.2341 31.2175 40.2778 31.2527 40.3242 31.2841L40.8839 30.4554ZM40.5 30L39.6056 30.4472L39.6056 30.4472L40.5 30ZM38.5547 27.8321C39.2178 27.39 39.7482 27.1834 40.0872 27.0865C40.2574 27.0379 40.3816 27.0163 40.4525 27.0069C40.488 27.0021 40.5103 27.0004 40.5185 26.9999C40.5226 26.9996 40.5232 26.9996 40.5201 26.9997C40.5186 26.9998 40.5162 26.9999 40.5128 26.9999C40.5112 26.9999 40.5093 27 40.5071 27C40.506 27 40.5049 27 40.5037 27C40.5031 27 40.5025 27 40.5019 27C40.5016 27 40.5011 27 40.501 27C40.5005 27 40.5 27 40.5 26C40.5 25 40.4995 25 40.499 25C40.4988 25 40.4983 25 40.498 25C40.4973 25 40.4966 25 40.4959 25C40.4945 25 40.493 25 40.4914 25C40.4883 25.0001 40.485 25.0001 40.4813 25.0002C40.4741 25.0003 40.4659 25.0005 40.4567 25.0007C40.4382 25.0013 40.4159 25.0023 40.3897 25.004C40.3374 25.0074 40.2698 25.0135 40.1881 25.0244C40.0247 25.0462 39.8051 25.0871 39.5378 25.1635C39.0018 25.3166 38.2822 25.61 37.4453 26.1679L38.5547 27.8321ZM37.109 29.4637C37.3352 29.0282 37.7864 28.3442 38.5547 27.8321L37.4453 26.1679C36.3026 26.9297 35.6544 27.9254 35.3342 28.5416L37.109 29.4637ZM36 30C36.0662 30 36.1321 30.0008 36.1978 30.0024L36.2454 28.0029C36.1639 28.001 36.0821 28 36 28V30ZM29 36C29 32.8075 32.0044 30 36 30V28C31.159 28 27 31.4605 27 36H29ZM36 42C32.0044 42 29 39.1925 29 36H27C27 40.5395 31.159 44 36 44V42ZM43 36C43 39.1925 39.9956 42 36 42V44C40.841 44 45 40.5395 45 36H43ZM40.3242 31.2841C41.9866 32.4069 43 34.1233 43 36H45C45 33.3626 43.5718 31.064 41.4436 29.6267L40.3242 31.2841ZM39.6056 30.4472C39.7587 30.7535 40.0337 31.0263 40.1936 31.1789L41.5742 29.7319C41.5041 29.665 41.4495 29.6084 41.4111 29.5639C41.3924 29.5422 41.382 29.5286 41.3777 29.5226C41.3725 29.5153 41.381 29.526 41.3944 29.5528L39.6056 30.4472ZM40.5 26C39.6056 25.5528 39.6054 25.5531 39.6052 25.5535C39.6051 25.5536 39.605 25.554 39.6048 25.5543C39.6046 25.5548 39.6043 25.5554 39.604 25.556C39.6034 25.5572 39.6028 25.5585 39.602 25.5599C39.6006 25.5628 39.599 25.5662 39.5971 25.5701C39.5933 25.5778 39.5887 25.5876 39.5832 25.5993C39.5723 25.6226 39.5581 25.6538 39.5414 25.6922C39.5082 25.769 39.4648 25.8754 39.4176 26.0074C39.3238 26.2702 39.2127 26.6409 39.1386 27.0856C38.9912 27.9703 38.9824 29.2008 39.6056 30.4472L41.3944 29.5528C41.0176 28.7992 41.0088 28.0297 41.1114 27.4144C41.1623 27.1091 41.2387 26.8548 41.3011 26.6801C41.3321 26.5933 41.359 26.5279 41.3765 26.4875C41.3853 26.4673 41.3916 26.4535 41.3948 26.4466C41.3964 26.4432 41.3973 26.4415 41.3972 26.4415C41.3972 26.4416 41.397 26.4421 41.3965 26.443C41.3963 26.4435 41.396 26.4441 41.3956 26.4448C41.3955 26.4451 41.3953 26.4455 41.3951 26.4459C41.395 26.4461 41.3948 26.4464 41.3948 26.4465C41.3946 26.4469 41.3944 26.4472 40.5 26Z" fill="#FFECD0"/>
<circle cx="33.25" cy="35.25" r="1.25" fill="#FFECD0"/>
<circle cx="38.75" cy="35.25" r="1.25" fill="#FFECD0"/>
<defs>
<filter id="filter0_d_165_5205" x="26" y="36" width="20" height="37.3379" filterUnits="userSpaceOnUse" color-interpolation-filters="sRGB">
<feFlood flood-opacity="0" result="BackgroundImageFix"/>
<feColorMatrix in="SourceAlpha" type="matrix" values="0 0 0 0 0 0 0 0 0 0 0 0 0 0 0 0 0 0 127 0" result="hardAlpha"/>
<feOffset dy="2"/>
<feGaussianBlur stdDeviation="1"/>
<feColorMatrix type="matrix" values="0 0 0 0 0.937255 0 0 0 0 0.67451 0 0 0 0 0.235294 0 0 0 0.2 0"/>
<feBlend mode="darken" in2="BackgroundImageFix" result="effect1_dropShadow_165_5205"/>
<feBlend mode="normal" in="SourceGraphic" in2="effect1_dropShadow_165_5205" result="shape"/>
</filter>
<filter id="filter1_d_165_5205" x="12" y="14" width="48" height="48" filterUnits="userSpaceOnUse" color-interpolation-filters="sRGB">
<feFlood flood-opacity="0" result="BackgroundImageFix"/>
<feColorMatrix in="SourceAlpha" type="matrix" values="0 0 0 0 0 0 0 0 0 0 0 0 0 0 0 0 0 0 127 0" result="hardAlpha"/>
<feOffset dy="2"/>
<feGaussianBlur stdDeviation="2"/>
<feColorMatrix type="matrix" values="0 0 0 0 0.752941 0 0 0 0 0.266667 0 0 0 0 0.266667 0 0 0 0.2 0"/>
<feBlend mode="normal" in2="BackgroundImageFix" result="effect1_dropShadow_165_5205"/>
<feBlend mode="normal" in="SourceGraphic" in2="effect1_dropShadow_165_5205" result="shape"/>
</filter>
<filter id="filter2_d_165_5205" x="18" y="19" width="36" height="36" filterUnits="userSpaceOnUse" color-interpolation-filters="sRGB">
<feFlood flood-opacity="0" result="BackgroundImageFix"/>
<feColorMatrix in="SourceAlpha" type="matrix" values="0 0 0 0 0 0 0 0 0 0 0 0 0 0 0 0 0 0 127 0" result="hardAlpha"/>
<feOffset dy="1"/>
<feGaussianBlur stdDeviation="1"/>
<feColorMatrix type="matrix" values="0 0 0 0 0.643137 0 0 0 0 0.301509 0 0 0 0 0.0196078 0 0 0 0.2 0"/>
<feBlend mode="normal" in2="BackgroundImageFix" result="effect1_dropShadow_165_5205"/>
<feBlend mode="normal" in="SourceGraphic" in2="effect1_dropShadow_165_5205" result="shape"/>
</filter>
<filter id="filter3_d_165_5205" x="25" y="24" width="22" height="23" filterUnits="userSpaceOnUse" color-interpolation-filters="sRGB">
<feFlood flood-opacity="0" result="BackgroundImageFix"/>
<feColorMatrix in="SourceAlpha" type="matrix" values="0 0 0 0 0 0 0 0 0 0 0 0 0 0 0 0 0 0 127 0" result="hardAlpha"/>
<feOffset dy="1"/>
<feGaussianBlur stdDeviation="1"/>
<feColorMatrix type="matrix" values="0 0 0 0 0.625 0 0 0 0 0.409034 0 0 0 0 0.12934 0 0 0 0.22 0"/>
<feBlend mode="normal" in2="BackgroundImageFix" result="effect1_dropShadow_165_5205"/>
<feBlend mode="normal" in="SourceGraphic" in2="effect1_dropShadow_165_5205" result="shape"/>
</filter>
<filter id="filter4_i_165_5205" x="27" y="25" width="18" height="20" filterUnits="userSpaceOnUse" color-interpolation-filters="sRGB">
<feFlood flood-opacity="0" result="BackgroundImageFix"/>
<feBlend mode="normal" in="SourceGraphic" in2="BackgroundImageFix" result="shape"/>
<feColorMatrix in="SourceAlpha" type="matrix" values="0 0 0 0 0 0 0 0 0 0 0 0 0 0 0 0 0 0 127 0" result="hardAlpha"/>
<feOffset dy="1"/>
<feGaussianBlur stdDeviation="0.5"/>
<feComposite in2="hardAlpha" operator="arithmetic" k2="-1" k3="1"/>
<feColorMatrix type="matrix" values="0 0 0 0 0.801791 0 0 0 0 0.623822 0 0 0 0 0.41026 0 0 0 1 0"/>
<feBlend mode="normal" in2="shape" result="effect1_innerShadow_165_5205"/>
</filter>
<linearGradient id="paint0_linear_165_5205" x1="16" y1="16" x2="16" y2="56" gradientUnits="userSpaceOnUse">
<stop stop-color="#F9C685"/>
<stop offset="1" stop-color="#DB963B"/>
</linearGradient>
<linearGradient id="paint1_linear_165_5205" x1="21" y1="21" x2="21" y2="51" gradientUnits="userSpaceOnUse">
<stop stop-color="#FDDA9D"/>
<stop offset="1" stop-color="#EFB35E"/>
</linearGradient>
<linearGradient id="paint2_linear_165_5205" x1="28" y1="26" x2="28" y2="43" gradientUnits="userSpaceOnUse">
<stop stop-color="#F6C280"/>
<stop offset="1" stop-color="#E2A65E"/>
</linearGradient>
</defs>
</svg>
