<svg width="72" height="74" viewBox="0 0 72 74" fill="none" xmlns="http://www.w3.org/2000/svg">
<g filter="url(#filter0_d_165_5337)">
<path fill-rule="evenodd" clip-rule="evenodd" d="M29.0718 33L42.9282 41L26.76 69.0041C26.3829 69.6573 25.446 69.6738 25.0461 69.0344L21.125 62.7643L13.7343 62.5035C12.9806 62.4769 12.5265 61.6573 12.9036 61.0041L29.0718 33Z" fill="#2DCD6B"/>
</g>
<mask id="mask0_165_5337" style="mask-type:luminance" maskUnits="userSpaceOnUse" x="12" y="33" width="31" height="37">
<path fill-rule="evenodd" clip-rule="evenodd" d="M29.0718 33L42.9282 41L26.76 69.0041C26.3829 69.6573 25.446 69.6738 25.0461 69.0344L21.125 62.7643L13.7343 62.5035C12.9806 62.4769 12.5265 61.6573 12.9036 61.0041L29.0718 33Z" fill="white"/>
</mask>
<g mask="url(#mask0_165_5337)">
<path fill-rule="evenodd" clip-rule="evenodd" d="M24.5361 48.8564L31.4643 52.8564L22.4643 68.4449L15.5361 64.4449L24.5361 48.8564Z" fill="white"/>
</g>
<g filter="url(#filter1_d_165_5337)">
<path fill-rule="evenodd" clip-rule="evenodd" d="M42.9282 33L29.0718 41L45.24 69.0041C45.6171 69.6573 46.554 69.6738 46.9539 69.0344L50.875 62.7643L58.2657 62.5035C59.0194 62.4769 59.4735 61.6573 59.0964 61.0041L42.9282 33Z" fill="#2DCD6B"/>
</g>
<mask id="mask1_165_5337" style="mask-type:luminance" maskUnits="userSpaceOnUse" x="29" y="33" width="31" height="37">
<path fill-rule="evenodd" clip-rule="evenodd" d="M42.9282 33L29.0718 41L45.24 69.0041C45.6171 69.6573 46.554 69.6738 46.9539 69.0344L50.875 62.7643L58.2657 62.5035C59.0194 62.4769 59.4735 61.6573 59.0964 61.0041L42.9282 33Z" fill="white"/>
</mask>
<g mask="url(#mask1_165_5337)">
<path fill-rule="evenodd" clip-rule="evenodd" d="M47.4644 48.8564L40.5362 52.8564L49.5362 68.4449L56.4644 64.4449L47.4644 48.8564Z" fill="white"/>
</g>
<path style="mix-blend-mode:multiply" opacity="0.2" fill-rule="evenodd" clip-rule="evenodd" d="M34.0001 16.1546C35.2377 15.44 36.7625 15.44 38.0001 16.1546L53.9187 25.3451C55.1563 26.0597 55.9187 27.3802 55.9187 28.8093V47.1905C55.9187 48.6195 55.1563 49.94 53.9187 50.6546L38.0001 59.8452C36.7625 60.5597 35.2377 60.5597 34.0001 59.8452L18.0815 50.6546C16.8439 49.94 16.0815 48.6195 16.0815 47.1905L16.0815 28.8093C16.0815 27.3802 16.8439 26.0597 18.0815 25.3451L34.0001 16.1546Z" fill="#0274F3"/>
<path fill-rule="evenodd" clip-rule="evenodd" d="M34 14.1547C35.2376 13.4402 36.7624 13.4402 38 14.1547L53.9186 23.3453C55.1562 24.0598 55.9186 25.3803 55.9186 26.8094V45.1906C55.9186 46.6197 55.1562 47.9402 53.9186 48.6547L38 57.8453C36.7624 58.5598 35.2376 58.5598 34 57.8453L18.0814 48.6547C16.8438 47.9402 16.0814 46.6197 16.0814 45.1906V26.8094C16.0814 25.3803 16.8438 24.0598 18.0814 23.3453L34 14.1547Z" fill="url(#paint0_linear_165_5337)" stroke="#FFF04D" stroke-opacity="0.4"/>
<mask id="mask2_165_5337" style="mask-type:luminance" maskUnits="userSpaceOnUse" x="15" y="13" width="42" height="46">
<path fill-rule="evenodd" clip-rule="evenodd" d="M34 14.1547C35.2376 13.4402 36.7624 13.4402 38 14.1547L53.9186 23.3453C55.1562 24.0598 55.9186 25.3803 55.9186 26.8094V45.1906C55.9186 46.6197 55.1562 47.9402 53.9186 48.6547L38 57.8453C36.7624 58.5598 35.2376 58.5598 34 57.8453L18.0814 48.6547C16.8438 47.9402 16.0814 46.6197 16.0814 45.1906V26.8094C16.0814 25.3803 16.8438 24.0598 18.0814 23.3453L34 14.1547Z" fill="white" stroke="white"/>
</mask>
<g mask="url(#mask2_165_5337)">
<path d="M37.7501 14.5876C36.6672 13.9623 35.333 13.9623 34.2501 14.5876L18.3315 23.7782C17.2486 24.4034 16.5815 25.5588 16.5815 26.8093L16.5815 45.1904C16.5815 46.4409 17.2486 47.5963 18.3315 48.2215L34.2501 57.4121C35.333 58.0374 36.6672 58.0374 37.7501 57.4121L53.6687 48.2215C54.7516 47.5963 55.4187 46.4409 55.4187 45.1904V26.8093C55.4187 25.5588 54.7516 24.4034 53.6687 23.7782L37.7501 14.5876Z" stroke="#F9B607" stroke-linecap="round"/>
<path d="M55.4187 45.1905V26.8093C55.4187 25.5588 54.7516 24.4034 53.6687 23.7782L37.7501 14.5876C36.6672 13.9623 35.333 13.9623 34.2501 14.5876L18.3315 23.7782C17.2486 24.4034 16.5815 25.5588 16.5815 26.8093L16.5815 45.1905" stroke="#FBC618" stroke-linecap="round"/>
<path opacity="0.6" d="M55.4187 26.8093C55.4187 25.5588 54.7516 24.4034 53.6687 23.7782L37.7501 14.5876C36.6672 13.9623 35.333 13.9623 34.2501 14.5876L18.3315 23.7782C17.2486 24.4034 16.5815 25.5588 16.5815 26.8093" stroke="#FFF24E" stroke-linecap="round"/>
<path opacity="0.4" d="M37.7498 14.5876C36.6669 13.9623 35.3327 13.9623 34.2498 14.5876C34.2498 14.5876 28.9436 17.6511 26.2905 19.1829" stroke="white" stroke-linecap="round"/>
<path d="M34.2502 14.5879C34.2502 14.5879 31.4419 16.2092 30.2705 16.8855" stroke="white" stroke-linecap="round"/>
<path opacity="0.4" d="M37.75 57.4124C39.6222 56.3315 40.9487 55.5656 41.7296 55.1147" stroke="white" stroke-linecap="round"/>
</g>
<g filter="url(#filter2_d_165_5337)">
<path fill-rule="evenodd" clip-rule="evenodd" d="M35 20.5774C35.6188 20.2201 36.3812 20.2201 37 20.5774L48.8564 27.4226C49.4752 27.7799 49.8564 28.4402 49.8564 29.1547V42.8453C49.8564 43.5598 49.4752 44.2201 48.8564 44.5774L37 51.4226C36.3812 51.7799 35.6188 51.7799 35 51.4226L23.1436 44.5774C22.5248 44.2201 22.1436 43.5598 22.1436 42.8453V29.1547C22.1436 28.4402 22.5248 27.7799 23.1436 27.4226L35 20.5774Z" fill="url(#paint1_linear_165_5337)"/>
<path d="M49.1064 26.9896L37.25 20.1443C36.4765 19.6978 35.5235 19.6978 34.75 20.1443L22.8936 26.9896C22.1201 27.4362 21.6436 28.2615 21.6436 29.1547V42.8453C21.6436 43.7385 22.1201 44.5638 22.8936 45.0104L34.75 51.8557C35.5235 52.3022 36.4765 52.3022 37.25 51.8557L49.1064 45.0104C49.8799 44.5638 50.3564 43.7385 50.3564 42.8453V29.1547C50.3564 28.2615 49.8799 27.4362 49.1064 26.9896Z" stroke="#F5900D" stroke-opacity="0.1" style="mix-blend-mode:multiply"/>
</g>
<mask id="mask3_165_5337" style="mask-type:luminance" maskUnits="userSpaceOnUse" x="22" y="20" width="28" height="32">
<path fill-rule="evenodd" clip-rule="evenodd" d="M35 20.5774C35.6188 20.2201 36.3812 20.2201 37 20.5774L48.8564 27.4226C49.4752 27.7799 49.8564 28.4402 49.8564 29.1547V42.8453C49.8564 43.5598 49.4752 44.2201 48.8564 44.5774L37 51.4226C36.3812 51.7799 35.6188 51.7799 35 51.4226L23.1436 44.5774C22.5248 44.2201 22.1436 43.5598 22.1436 42.8453V29.1547C22.1436 28.4402 22.5248 27.7799 23.1436 27.4226L35 20.5774Z" fill="white"/>
</mask>
<g mask="url(#mask3_165_5337)">
<g style="mix-blend-mode:multiply" opacity="0.3">
<path fill-rule="evenodd" clip-rule="evenodd" d="M36 35.9999L40 20H32L36 36L27.5147 21.8579L21.8579 27.5147L36 36L20 32V40L36 36L21.8579 44.4853L27.5147 50.1422L36 36L32 52H40L36 36L44.4853 50.1421L50.1421 44.4853L36 36L52 40V32L36 35.9999ZM36 35.9999L50.1421 27.5147L44.4853 21.8578L36 35.9999Z" fill="#FFD640"/>
</g>
<path opacity="0.4" d="M48.6064 27.8558L36.75 21.0105C36.2859 20.7426 35.7141 20.7426 35.25 21.0105C33.8555 21.8156 32.8675 22.386 32.2859 22.7219C31.0754 23.4207 30.0873 23.9912 29.3218 24.4332C28.0044 25.1938 26.0283 26.3347 23.3936 27.8558" stroke="white" stroke-linecap="round"/>
<path d="M35.2497 21.0107C33.8553 21.8158 32.8673 22.3863 32.2856 22.7221" stroke="white" stroke-linecap="round"/>
</g>
<g filter="url(#filter3_d_165_5337)">
<path d="M33.45 32.4901L36.0002 28.769L38.5504 32.4901L42.8774 33.7656L40.1265 37.3409L40.2506 41.8502L36.0002 40.3388L31.7499 41.8502L31.8739 37.3409L29.123 33.7656L33.45 32.4901Z" fill="white"/>
<path d="M36.8251 28.2037C36.6386 27.9317 36.33 27.769 36.0002 27.769C35.6704 27.769 35.3618 27.9317 35.1754 28.2037L32.8262 31.6314L28.8403 32.8064C28.5239 32.8997 28.2739 33.1429 28.172 33.4566C28.0701 33.7703 28.1294 34.114 28.3305 34.3754L30.8645 37.6688L30.7503 41.8227C30.7412 42.1524 30.8953 42.4654 31.1621 42.6592C31.4289 42.8531 31.7742 42.9029 32.0849 42.7924L36.0002 41.4001L39.9155 42.7924C40.2263 42.9029 40.5715 42.8531 40.8383 42.6592C41.1052 42.4654 41.2592 42.1524 41.2502 41.8227L41.1359 37.6688L43.67 34.3754C43.8711 34.114 43.9304 33.7703 43.8285 33.4566C43.7265 33.1429 43.4765 32.8997 43.1602 32.8064L39.1743 31.6314L36.8251 28.2037Z" stroke="white" stroke-width="2" stroke-linejoin="round"/>
</g>
<g filter="url(#filter4_i_165_5337)">
<path d="M33.45 32.4901L36.0002 28.769L38.5504 32.4901L42.8774 33.7656L40.1265 37.3409L40.2506 41.8502L36.0002 40.3388L31.7499 41.8502L31.8739 37.3409L29.123 33.7656L33.45 32.4901Z" fill="url(#paint2_linear_165_5337)"/>
</g>
<g filter="url(#filter5_d_165_5337)">
<path fill-rule="evenodd" clip-rule="evenodd" d="M45.9109 28.7799L45.3916 28.5751C45.0739 28.4498 44.918 28.0908 45.0433 27.7732C45.1061 27.6138 45.2322 27.4877 45.3916 27.4249L45.9109 27.2201C46.5098 26.9839 46.9839 26.5098 47.2201 25.9109L47.4249 25.3916C47.5502 25.0739 47.9092 24.918 48.2268 25.0433C48.3862 25.1061 48.5123 25.2322 48.5751 25.3916L48.7799 25.9109C49.0161 26.5098 49.4902 26.9839 50.0891 27.2201L50.6084 27.4249C50.9261 27.5502 51.082 27.9092 50.9567 28.2268C50.8939 28.3862 50.7678 28.5123 50.6084 28.5751L50.0891 28.7799C49.4902 29.0161 49.0161 29.4902 48.7799 30.0891L48.5751 30.6084C48.4498 30.9261 48.0908 31.082 47.7732 30.9567C47.6138 30.8939 47.4877 30.7678 47.4249 30.6084L47.2201 30.0891C46.9839 29.4902 46.5098 29.0161 45.9109 28.7799Z" fill="white"/>
</g>
<g filter="url(#filter6_d_165_5337)">
<path fill-rule="evenodd" clip-rule="evenodd" d="M25.6073 44.52L25.261 44.3834C25.0493 44.2999 24.9453 44.0605 25.0289 43.8488C25.0707 43.7426 25.1548 43.6585 25.261 43.6166L25.6073 43.48C26.0065 43.3226 26.3226 43.0065 26.48 42.6073L26.6166 42.261C26.7001 42.0493 26.9395 41.9453 27.1512 42.0289C27.2574 42.0707 27.3415 42.1548 27.3834 42.261L27.52 42.6073C27.6774 43.0065 27.9935 43.3226 28.3927 43.48L28.739 43.6166C28.9507 43.7001 29.0547 43.9395 28.9711 44.1512C28.9293 44.2574 28.8452 44.3415 28.739 44.3834L28.3927 44.52C27.9935 44.6774 27.6774 44.9935 27.52 45.3927L27.3834 45.739C27.2999 45.9507 27.0605 46.0547 26.8488 45.9711C26.7426 45.9293 26.6585 45.8452 26.6166 45.739L26.48 45.3927C26.3226 44.9935 26.0065 44.6774 25.6073 44.52Z" fill="white"/>
</g>
<g filter="url(#filter7_d_165_5337)">
<path fill-rule="evenodd" clip-rule="evenodd" d="M24.3036 29.26L24.1305 29.1917C24.0246 29.1499 23.9727 29.0303 24.0144 28.9244C24.0354 28.8713 24.0774 28.8292 24.1305 28.8083L24.3036 28.74C24.5033 28.6613 24.6613 28.5033 24.74 28.3036L24.8083 28.1305C24.8501 28.0246 24.9697 27.9727 25.0756 28.0144C25.1287 28.0354 25.1708 28.0774 25.1917 28.1305L25.26 28.3036C25.3387 28.5033 25.4967 28.6613 25.6964 28.74L25.8695 28.8083C25.9754 28.8501 26.0273 28.9697 25.9856 29.0756C25.9646 29.1287 25.9226 29.1708 25.8695 29.1917L25.6964 29.26C25.4967 29.3387 25.3387 29.4967 25.26 29.6964L25.1917 29.8695C25.1499 29.9754 25.0303 30.0273 24.9244 29.9856C24.8713 29.9646 24.8292 29.9226 24.8083 29.8695L24.74 29.6964C24.6613 29.4967 24.5033 29.3387 24.3036 29.26Z" fill="white"/>
</g>
<g filter="url(#filter8_d_165_5337)">
<path fill-rule="evenodd" clip-rule="evenodd" d="M45.4555 45.89L45.1958 45.7876C45.037 45.7249 44.959 45.5454 45.0216 45.3866C45.0531 45.3069 45.1161 45.2439 45.1958 45.2124L45.4555 45.11C45.7549 44.9919 45.9919 44.7549 46.11 44.4555L46.2124 44.1958C46.2751 44.037 46.4546 43.959 46.6134 44.0216C46.6931 44.0531 46.7561 44.1161 46.7876 44.1958L46.89 44.4555C47.0081 44.7549 47.2451 44.9919 47.5445 45.11L47.8042 45.2124C47.963 45.2751 48.041 45.4546 47.9784 45.6134C47.9469 45.6931 47.8839 45.7561 47.8042 45.7876L47.5445 45.89C47.2451 46.0081 47.0081 46.2451 46.89 46.5445L46.7876 46.8042C46.7249 46.963 46.5454 47.041 46.3866 46.9784C46.3069 46.9469 46.2439 46.8839 46.2124 46.8042L46.11 46.5445C45.9919 46.2451 45.7549 46.0081 45.4555 45.89Z" fill="white"/>
</g>
<defs>
<filter id="filter0_d_165_5337" x="10.7681" y="33" width="34.1602" height="40.5039" filterUnits="userSpaceOnUse" color-interpolation-filters="sRGB">
<feFlood flood-opacity="0" result="BackgroundImageFix"/>
<feColorMatrix in="SourceAlpha" type="matrix" values="0 0 0 0 0 0 0 0 0 0 0 0 0 0 0 0 0 0 127 0" result="hardAlpha"/>
<feOffset dy="2"/>
<feGaussianBlur stdDeviation="1"/>
<feColorMatrix type="matrix" values="0 0 0 0 0.333333 0 0 0 0 0.615373 0 0 0 0 0.819608 0 0 0 0.2 0"/>
<feBlend mode="darken" in2="BackgroundImageFix" result="effect1_dropShadow_165_5337"/>
<feBlend mode="normal" in="SourceGraphic" in2="effect1_dropShadow_165_5337" result="shape"/>
</filter>
<filter id="filter1_d_165_5337" x="27.0718" y="33" width="34.1602" height="40.5039" filterUnits="userSpaceOnUse" color-interpolation-filters="sRGB">
<feFlood flood-opacity="0" result="BackgroundImageFix"/>
<feColorMatrix in="SourceAlpha" type="matrix" values="0 0 0 0 0 0 0 0 0 0 0 0 0 0 0 0 0 0 127 0" result="hardAlpha"/>
<feOffset dy="2"/>
<feGaussianBlur stdDeviation="1"/>
<feColorMatrix type="matrix" values="0 0 0 0 0.333333 0 0 0 0 0.615373 0 0 0 0 0.819608 0 0 0 0.2 0"/>
<feBlend mode="darken" in2="BackgroundImageFix" result="effect1_dropShadow_165_5337"/>
<feBlend mode="normal" in="SourceGraphic" in2="effect1_dropShadow_165_5337" result="shape"/>
</filter>
<filter id="filter2_d_165_5337" x="19.1436" y="18.3096" width="33.7129" height="37.3809" filterUnits="userSpaceOnUse" color-interpolation-filters="sRGB">
<feFlood flood-opacity="0" result="BackgroundImageFix"/>
<feColorMatrix in="SourceAlpha" type="matrix" values="0 0 0 0 0 0 0 0 0 0 0 0 0 0 0 0 0 0 127 0" result="hardAlpha"/>
<feOffset dy="1"/>
<feGaussianBlur stdDeviation="1"/>
<feColorMatrix type="matrix" values="0 0 0 0 0.927721 0 0 0 0 0.665867 0 0 0 0 0.0535899 0 0 0 0.4 0"/>
<feBlend mode="normal" in2="BackgroundImageFix" result="effect1_dropShadow_165_5337"/>
<feBlend mode="normal" in="SourceGraphic" in2="effect1_dropShadow_165_5337" result="shape"/>
</filter>
<filter id="filter3_d_165_5337" x="25.123" y="25.769" width="21.7544" height="21.0811" filterUnits="userSpaceOnUse" color-interpolation-filters="sRGB">
<feFlood flood-opacity="0" result="BackgroundImageFix"/>
<feColorMatrix in="SourceAlpha" type="matrix" values="0 0 0 0 0 0 0 0 0 0 0 0 0 0 0 0 0 0 127 0" result="hardAlpha"/>
<feOffset dy="1"/>
<feGaussianBlur stdDeviation="1"/>
<feColorMatrix type="matrix" values="0 0 0 0 0.996078 0 0 0 0 0.733333 0 0 0 0 0.105882 0 0 0 1 0"/>
<feBlend mode="normal" in2="BackgroundImageFix" result="effect1_dropShadow_165_5337"/>
<feBlend mode="normal" in="SourceGraphic" in2="effect1_dropShadow_165_5337" result="shape"/>
</filter>
<filter id="filter4_i_165_5337" x="29.123" y="28.769" width="13.7544" height="14.0811" filterUnits="userSpaceOnUse" color-interpolation-filters="sRGB">
<feFlood flood-opacity="0" result="BackgroundImageFix"/>
<feBlend mode="normal" in="SourceGraphic" in2="BackgroundImageFix" result="shape"/>
<feColorMatrix in="SourceAlpha" type="matrix" values="0 0 0 0 0 0 0 0 0 0 0 0 0 0 0 0 0 0 127 0" result="hardAlpha"/>
<feOffset dy="1"/>
<feGaussianBlur stdDeviation="0.5"/>
<feComposite in2="hardAlpha" operator="arithmetic" k2="-1" k3="1"/>
<feColorMatrix type="matrix" values="0 0 0 0 1 0 0 0 0 0.634454 0 0 0 0 0 0 0 0 0.4 0"/>
<feBlend mode="normal" in2="shape" result="effect1_innerShadow_165_5337"/>
</filter>
<filter id="filter5_d_165_5337" x="43" y="23" width="10" height="10" filterUnits="userSpaceOnUse" color-interpolation-filters="sRGB">
<feFlood flood-opacity="0" result="BackgroundImageFix"/>
<feColorMatrix in="SourceAlpha" type="matrix" values="0 0 0 0 0 0 0 0 0 0 0 0 0 0 0 0 0 0 127 0" result="hardAlpha"/>
<feOffset/>
<feGaussianBlur stdDeviation="1"/>
<feColorMatrix type="matrix" values="0 0 0 0 1 0 0 0 0 0.94902 0 0 0 0 0.305882 0 0 0 1 0"/>
<feBlend mode="normal" in2="BackgroundImageFix" result="effect1_dropShadow_165_5337"/>
<feBlend mode="normal" in="SourceGraphic" in2="effect1_dropShadow_165_5337" result="shape"/>
</filter>
<filter id="filter6_d_165_5337" x="23" y="40" width="8" height="8" filterUnits="userSpaceOnUse" color-interpolation-filters="sRGB">
<feFlood flood-opacity="0" result="BackgroundImageFix"/>
<feColorMatrix in="SourceAlpha" type="matrix" values="0 0 0 0 0 0 0 0 0 0 0 0 0 0 0 0 0 0 127 0" result="hardAlpha"/>
<feOffset/>
<feGaussianBlur stdDeviation="1"/>
<feColorMatrix type="matrix" values="0 0 0 0 1 0 0 0 0 0.94902 0 0 0 0 0.305882 0 0 0 1 0"/>
<feBlend mode="normal" in2="BackgroundImageFix" result="effect1_dropShadow_165_5337"/>
<feBlend mode="normal" in="SourceGraphic" in2="effect1_dropShadow_165_5337" result="shape"/>
</filter>
<filter id="filter7_d_165_5337" x="22" y="26" width="6" height="6" filterUnits="userSpaceOnUse" color-interpolation-filters="sRGB">
<feFlood flood-opacity="0" result="BackgroundImageFix"/>
<feColorMatrix in="SourceAlpha" type="matrix" values="0 0 0 0 0 0 0 0 0 0 0 0 0 0 0 0 0 0 127 0" result="hardAlpha"/>
<feOffset/>
<feGaussianBlur stdDeviation="1"/>
<feColorMatrix type="matrix" values="0 0 0 0 1 0 0 0 0 0.94902 0 0 0 0 0.305882 0 0 0 1 0"/>
<feBlend mode="normal" in2="BackgroundImageFix" result="effect1_dropShadow_165_5337"/>
<feBlend mode="normal" in="SourceGraphic" in2="effect1_dropShadow_165_5337" result="shape"/>
</filter>
<filter id="filter8_d_165_5337" x="43" y="42" width="7" height="7" filterUnits="userSpaceOnUse" color-interpolation-filters="sRGB">
<feFlood flood-opacity="0" result="BackgroundImageFix"/>
<feColorMatrix in="SourceAlpha" type="matrix" values="0 0 0 0 0 0 0 0 0 0 0 0 0 0 0 0 0 0 127 0" result="hardAlpha"/>
<feOffset/>
<feGaussianBlur stdDeviation="1"/>
<feColorMatrix type="matrix" values="0 0 0 0 1 0 0 0 0 0.94902 0 0 0 0 0.305882 0 0 0 1 0"/>
<feBlend mode="normal" in2="BackgroundImageFix" result="effect1_dropShadow_165_5337"/>
<feBlend mode="normal" in="SourceGraphic" in2="effect1_dropShadow_165_5337" result="shape"/>
</filter>
<linearGradient id="paint0_linear_165_5337" x1="13" y1="13" x2="13" y2="59" gradientUnits="userSpaceOnUse">
<stop stop-color="#FDE046"/>
<stop offset="1" stop-color="#F9B800"/>
</linearGradient>
<linearGradient id="paint1_linear_165_5337" x1="20" y1="20" x2="20" y2="52" gradientUnits="userSpaceOnUse">
<stop stop-color="#FFF550"/>
<stop offset="1" stop-color="#FFD541"/>
</linearGradient>
<linearGradient id="paint2_linear_165_5337" x1="28.7691" y1="28.769" x2="28.7691" y2="43.2312" gradientUnits="userSpaceOnUse">
<stop stop-color="#FFC823"/>
<stop offset="1" stop-color="#FCA50E"/>
</linearGradient>
</defs>
</svg>
