<?xml version="1.0" encoding="UTF-8"?>
<svg version="1.1" xmlns="http://www.w3.org/2000/svg" width="1567" height="1566">
<path d="M0 0 C0.51788086 0.46148437 1.03576172 0.92296875 1.56933594 1.3984375 C11.87314174 10.62534585 21.43089501 20.11492069 30 31 C30.804375 32.010625 31.60875 33.02125 32.4375 34.0625 C44.03217528 48.76122574 53.38163339 64.38962733 62 81 C62.41717285 81.80018555 62.8343457 82.60037109 63.26416016 83.42480469 C72.23307961 100.8486654 79.04342762 119.27994097 86.0581665 137.55065918 C86.97814046 139.94315188 87.90318825 142.33362265 88.82958984 144.72363281 C109.38909351 197.85844913 117.46887565 251.65528378 117.3125 308.5625 C117.31134186 309.88062683 117.31018372 311.19875366 117.30899048 312.55682373 C117.27036575 341.81066151 115.5100057 370.69703408 111.92138672 399.72631836 C110.59151184 411.13338794 110.70754358 422.53420867 111 434 C111.99257812 434.14695312 112.98515625 434.29390625 114.0078125 434.4453125 C133.42614716 437.54810578 150.11870952 445.90530034 162 462 C173.44127236 478.92649141 177.10316721 499.09841619 173.3515625 519.234375 C168.603283 537.17231977 157.64179718 552.1300837 142 562 C131.62335358 567.66562415 121.79306614 571.08571307 110 571 C110.02356567 572.49889771 110.02356567 572.49889771 110.04760742 574.02807617 C110.87257953 631.86938521 101.16951682 687.49670855 76 740 C75.66645508 740.69883301 75.33291016 741.39766602 74.98925781 742.11767578 C60.55025351 772.16660861 42.3114355 800.17946704 20 825 C19.29375488 825.79083984 19.29375488 825.79083984 18.57324219 826.59765625 C7.72349544 838.70415913 -3.51586917 850.83770068 -16.328125 860.8828125 C-18.74166672 862.79529731 -21.05876907 864.78842489 -23.37109375 866.82104492 C-37.60909661 879.24157204 -53.67394028 889.5558677 -70 899 C-70.82129395 899.47646973 -71.64258789 899.95293945 -72.48876953 900.44384766 C-92.42337162 911.90463897 -113.21662472 921.24044448 -134.9375 928.75 C-136.18217041 929.18070801 -137.42684082 929.61141602 -138.70922852 930.05517578 C-147.4638312 933 -147.4638312 933 -152 933 C-151.8684552 934.46459152 -151.8684552 934.46459152 -151.73425293 935.95877075 C-150.90737363 945.16896336 -150.08329361 954.37940273 -149.26194 963.5900898 C-148.83960458 968.32516086 -148.41629002 973.0601401 -147.99072266 977.79492188 C-147.57991811 982.36586204 -147.17170537 986.93702699 -146.76527405 991.508358 C-146.6099082 993.25070288 -146.45361515 994.99296534 -146.29637146 996.73514175 C-146.07597093 999.17884636 -145.85889523 1001.62282555 -145.64257812 1004.06689453 C-145.57712296 1004.78403122 -145.51166779 1005.50116791 -145.44422913 1006.24003601 C-145.09998738 1010.17325618 -144.93668623 1014.05217503 -145 1018 C-144.22213135 1017.98952637 -143.4442627 1017.97905273 -142.64282227 1017.96826172 C-77.56282763 1017.21357261 -17.47765145 1031.94607846 31.63671875 1076.859375 C33.70029213 1078.72852907 35.80514613 1080.52323362 37.9375 1082.3125 C62.68920919 1104.04450067 81.03393002 1135.27771256 92.8125 1165.6875 C93.15619629 1166.56623779 93.49989258 1167.44497559 93.85400391 1168.3503418 C94.15612793 1169.16672119 94.45825195 1169.98310059 94.76953125 1170.82421875 C95.16555542 1171.89289185 95.16555542 1171.89289185 95.56958008 1172.9831543 C96.10766384 1175.50448725 96.13402733 1176.66296629 95 1179 C92.53613281 1180.59301758 92.53613281 1180.59301758 89.203125 1182.14453125 C88.59552338 1182.43093475 87.98792175 1182.71733826 87.36190796 1183.01242065 C85.33179629 1183.96223917 83.29190394 1184.88833021 81.25 1185.8125 C79.80774716 1186.47559601 78.36552775 1187.13876473 76.92333984 1187.80200195 C13.57639995 1216.71877188 -53.31343235 1237.49328975 -122 1249 C-122.69770508 1249.11796936 -123.39541016 1249.23593872 -124.11425781 1249.35748291 C-142.1718189 1252.40031703 -160.26769486 1254.55580236 -178.5 1256.25 C-179.84206512 1256.37476212 -179.84206512 1256.37476212 -181.21124268 1256.50204468 C-187.13755316 1257.04577611 -193.06650499 1257.54156423 -199 1258 C-199.6899707 1258.05514771 -200.37994141 1258.11029541 -201.09082031 1258.16711426 C-217.68460105 1259.44941633 -234.36719902 1259.24572728 -251 1259.25 C-251.78835487 1259.25044186 -252.57670975 1259.25088371 -253.38895416 1259.25133896 C-279.0415142 1259.25886624 -304.46849053 1258.69508288 -330 1256 C-331.69091775 1255.82665799 -333.38183572 1255.6533182 -335.07275391 1255.47998047 C-419.41188816 1246.69819483 -501.76643316 1223.93294553 -579 1189 C-578.44002243 1182.86824562 -577.07886028 1177.53440425 -575 1171.75 C-574.53968384 1170.45715088 -574.53968384 1170.45715088 -574.07006836 1169.13818359 C-559.75067025 1129.79996165 -535.05847553 1093.91314156 -502 1068 C-501.02675781 1067.20980469 -500.05351563 1066.41960937 -499.05078125 1065.60546875 C-456.04557245 1031.34159474 -402.87319454 1017.72544299 -348.6640625 1017.95703125 C-347.23152745 1017.96049148 -345.79899157 1017.96362625 -344.36645508 1017.96643066 C-340.91095247 1017.97388597 -337.45548183 1017.98568442 -334 1018 C-333.89057823 1016.66695328 -333.89057823 1016.66695328 -333.77894592 1015.30697632 C-333.09009751 1006.92043356 -332.39884282 998.53409332 -331.7049036 990.1479702 C-331.34825166 985.83687293 -330.99252141 981.52570378 -330.63891602 977.21435547 C-330.29745599 973.05151006 -329.95355073 968.88887317 -329.60796928 964.72636795 C-329.47673381 963.14048021 -329.34637058 961.55452004 -329.21690559 959.96848679 C-329.0350342 957.74230064 -328.85002677 955.51639526 -328.66430664 953.29052734 C-328.5599379 952.02477875 -328.45556915 950.75903015 -328.34803772 949.45492554 C-328.02708857 946.26890474 -327.56768852 943.15039069 -327 940 C-327.804375 939.86464844 -328.60875 939.72929688 -329.4375 939.58984375 C-389.86823925 928.52412724 -448.24920197 897.62857543 -493.41796875 856.3359375 C-495.52109231 854.43326293 -497.64991251 852.57500442 -499.796875 850.72265625 C-504.05782515 847.0016159 -508.07516084 843.07304385 -512.0625 839.0625 C-512.73087891 838.39798828 -513.39925781 837.73347656 -514.08789062 837.04882812 C-518.59688046 832.53107446 -522.86104761 827.85788896 -527 823 C-527.54970459 822.35699951 -528.09940918 821.71399902 -528.66577148 821.05151367 C-537.39041768 810.77279388 -545.46576143 800.17909057 -553 789 C-553.47034668 788.30406738 -553.94069336 787.60813477 -554.42529297 786.89111328 C-588.04936987 736.8322097 -607.45540829 679.75650902 -614 620 C-614.10675049 619.05398926 -614.21350098 618.10797852 -614.32348633 617.13330078 C-615.25860921 607.6868356 -615.11086248 598.23087184 -615.0625 588.75 C-615.05747243 587.02213672 -615.05291176 585.29427202 -615.04882812 583.56640625 C-615.03792797 579.37756832 -615.02073348 575.18880033 -615 571 C-616.26626221 571.03697998 -616.26626221 571.03697998 -617.55810547 571.07470703 C-634.98973557 571.36965428 -650.07545027 565.21838715 -662.78857422 553.23754883 C-676.02905826 540.32143705 -683.88254692 524.09943926 -684.42236328 505.47753906 C-684.53234041 486.56856834 -679.31088091 469.64107244 -665.99804688 455.88793945 C-664.68142099 454.57565059 -663.34149074 453.28685989 -662 452 C-661.38253906 451.38640625 -660.76507812 450.7728125 -660.12890625 450.140625 C-648.29709869 439.13165298 -630.9228948 433.71776257 -615 434 C-615.26309705 417.28199664 -616.59732814 400.83964715 -618.54003906 384.24731445 C-620.71035039 365.64520166 -621.23925241 347.21882112 -621.25 328.5 C-621.25100708 327.28101013 -621.25201416 326.06202026 -621.25305176 324.80609131 C-621.24238236 305.67680143 -620.59237044 286.96788282 -618 268 C-617.86078125 266.91879883 -617.7215625 265.83759766 -617.578125 264.72363281 C-610.59236947 211.47341765 -590.97880782 157.87540569 -553.96484375 118.1171875 C-552.13692837 116.14754508 -550.41220825 114.12222352 -548.6875 112.0625 C-525.37675309 85.51267436 -492.45085862 67.1911218 -459 57 C-466.11048051 54.18817335 -473.37758129 52.03470856 -480.7109375 49.88671875 C-482.0901138 49.48030394 -483.46920594 49.07360342 -484.84822083 48.66664124 C-487.80795212 47.79374358 -490.76819055 46.9225963 -493.72885132 46.05285645 C-500.8539802 43.9596508 -507.97658011 41.85786377 -515.0994854 39.75710678 C-517.59595777 39.02093323 -520.0925377 38.28512523 -522.58912659 37.54934692 C-534.73770794 33.96801057 -546.88021224 30.36650569 -559.01953125 26.75390625 C-559.87203964 26.5002297 -560.72454803 26.24655315 -561.60289001 25.98518944 C-569.10898188 23.75148951 -576.61473249 21.51664477 -584.12005615 19.28036499 C-587.99825369 18.1248288 -591.87667854 16.9700585 -595.75525475 15.81579399 C-597.86297947 15.18824732 -599.9704109 14.55972267 -602.07783508 13.9311676 C-603.33243027 13.55781784 -604.58702545 13.18446808 -605.87963867 12.79980469 C-606.97120773 12.47453796 -608.06277679 12.14927124 -609.18742371 11.81414795 C-611.45036584 11.15910094 -613.70948172 10.54875808 -616 10 C-615 7 -615 7 -612.796875 5.60546875 C-588.79740514 -5.5635153 -562.52066501 -9.09892628 -536.2578125 -9.203125 C-535.06830994 -9.21013931 -533.87880737 -9.21715363 -532.65325928 -9.22438049 C-528.81046741 -9.24185284 -524.9678302 -9.24823858 -521.125 -9.25 C-519.80566467 -9.25067474 -518.48632935 -9.25134949 -517.12701416 -9.25204468 C-496.06026768 -9.24423006 -475.2390954 -8.56663776 -454.29797363 -6.25323486 C-451.90337575 -5.98935209 -449.50793788 -5.73428106 -447.11230469 -5.47998047 C-422.78471934 -2.87090554 -398.67590804 0.81088418 -374.58345032 5.06044006 C-370.81431986 5.75240296 -370.81431986 5.75240296 -367 6 C-428.31274357 -22.4022268 -496.17585996 -39.19056219 -560.9609375 -57.734375 C-561.80222702 -57.97536674 -562.64351654 -58.21635849 -563.51029968 -58.46465302 C-571.84406821 -60.85180453 -580.17902462 -63.23445368 -588.52070427 -65.59383011 C-591.60359843 -66.46690843 -594.68504814 -67.34500766 -597.76622391 -68.22412872 C-599.20854528 -68.63425111 -600.65155042 -69.04197705 -602.09525681 -69.44719696 C-604.07321602 -70.00250535 -606.04875509 -70.56572669 -608.02392578 -71.13085938 C-609.13534943 -71.44518921 -610.24677307 -71.75951904 -611.39187622 -72.08337402 C-614 -73 -614 -73 -616 -75 C-610.14468156 -78.03609104 -604.40406114 -79.76965591 -598 -81.1875 C-597.25314941 -81.35411133 -596.50629883 -81.52072266 -595.73681641 -81.69238281 C-587.2900552 -83.48831065 -578.95843542 -84.1581209 -570.33203125 -84.203125 C-569.42742661 -84.21013931 -568.52282196 -84.21715363 -567.59080505 -84.22438049 C-564.66465244 -84.24186587 -561.73870306 -84.24823967 -558.8125 -84.25 C-557.8069104 -84.25067474 -556.8013208 -84.25134949 -555.76525879 -84.25204468 C-538.65930017 -84.23386709 -521.96486094 -83.32715093 -505 -81 C-503.76685059 -80.83902832 -502.53370117 -80.67805664 -501.26318359 -80.51220703 C-460.38814788 -75.1089166 -420.35786269 -65.67129952 -380.47021484 -55.40380859 C-373.32276809 -53.56516913 -366.16290617 -51.77736168 -359 -50 C-422.28809854 -91.79172113 -502.89333296 -111.75042294 -575 -132 C-575 -132.99 -575 -133.98 -575 -135 C-569.12501925 -138.22853205 -563.82387211 -139.9816117 -557.25 -141.1875 C-556.02410156 -141.4340332 -556.02410156 -141.4340332 -554.7734375 -141.68554688 C-470.75396749 -157.84817078 -372.34580093 -131.39850095 0 0 Z " fill="#EFCFB3" transform="translate(1036,307)"/>
<path d="M0 0 C0.51788086 0.46148437 1.03576172 0.92296875 1.56933594 1.3984375 C11.87314174 10.62534585 21.43089501 20.11492069 30 31 C30.804375 32.010625 31.60875 33.02125 32.4375 34.0625 C44.03217528 48.76122574 53.38163339 64.38962733 62 81 C62.41717285 81.80018555 62.8343457 82.60037109 63.26416016 83.42480469 C72.23307961 100.8486654 79.04342762 119.27994097 86.0581665 137.55065918 C86.97814046 139.94315188 87.90318825 142.33362265 88.82958984 144.72363281 C109.38909351 197.85844913 117.46887565 251.65528378 117.3125 308.5625 C117.31134186 309.88062683 117.31018372 311.19875366 117.30899048 312.55682373 C117.27829284 335.80678907 116.269058 358.86161398 114 382 C113.93256592 382.70233765 113.86513184 383.40467529 113.7956543 384.1282959 C111.67511855 406.20491129 111.67511855 406.20491129 109.45727539 416.77197266 C108.66482303 420.63311535 108.13185169 424.53455135 107.5625 428.43359375 C107 431 107 431 105 434 C101.63936509 427.15877656 98.28063775 420.31661883 94.9230957 413.47387695 C93.78614146 411.15726671 92.64878659 408.84085304 91.51098633 406.5246582 C84.75807683 392.777131 78.06364143 379.00474408 71.47241211 365.17895508 C68.38903091 358.7124925 65.26570781 352.26568788 62.1340332 345.82250977 C60.43548963 342.3277246 58.73932909 338.83178279 57.04296875 335.3359375 C56.5305513 334.28010468 56.5305513 334.28010468 56.00778198 333.20294189 C52.66182362 326.30679251 49.32983163 319.40394951 46 312.5 C40.9724358 302.076457 35.92763518 291.66140913 30.875 281.25 C25.7803134 270.75186706 20.70568558 260.24466347 15.67211914 249.71704102 C12.64825457 243.40281744 9.59087286 237.10570792 6.515625 230.81640625 C5.73034179 229.20819283 4.94510423 227.59995711 4.15991211 225.99169922 C2.9933844 223.60254359 1.82555361 221.21407461 0.65335083 218.82769775 C-0.43627967 216.60941328 -1.52127133 214.38891252 -2.60546875 212.16796875 C-2.9340387 211.50245499 -3.26260864 210.83694122 -3.60113525 210.15126038 C-5.06425672 207.14420182 -6.38757262 204.30212117 -7 201 C-7.76739502 201.31638428 -7.76739502 201.31638428 -8.55029297 201.63916016 C-31.07914562 210.88858663 -54.26965352 219.29227917 -78.359375 223.359375 C-81.05216565 223.8332137 -83.67586673 224.36984104 -86.3359375 224.984375 C-112.8125363 230.9589843 -140.67955245 231.3776379 -167.6875 231.25 C-168.91133392 231.24623352 -170.13516785 231.24246704 -171.39608765 231.23858643 C-221.14278934 231.05988723 -270.05241114 224.81718478 -319.09765625 216.79541016 C-322.37428963 216.26057094 -325.6526661 215.73976201 -328.93359375 215.23193359 C-337.01141674 213.9812062 -345.0588229 212.6524413 -353.08738708 211.11585999 C-366.50139458 208.55560217 -380.00094199 206.46614256 -393.49645996 204.38720703 C-395.94272418 204.0088585 -398.38787294 203.62385112 -400.83300781 203.23828125 C-419.68617234 200.29534766 -438.28032232 198.52069935 -457.375 198.4375 C-458.24119965 198.4287384 -459.10739929 198.41997681 -459.99984741 198.41094971 C-477.58239617 198.28791113 -496.76506904 200.27097604 -510.375 212.625 C-517.99528539 221.15609745 -521.66668416 232.80237316 -525.83218384 243.31286621 C-534.46359699 265.05685244 -543.6809206 286.54372771 -553 308 C-553.37209595 308.85698486 -553.74419189 309.71396973 -554.12756348 310.59692383 C-569.31343074 345.55207134 -585.04501026 380.25805247 -600.92626953 414.90185547 C-603.98904063 421.58464333 -607.03433085 428.27335693 -610 435 C-611.90381325 431.67874182 -612.56408036 428.61217803 -613.18359375 424.84765625 C-613.38758789 423.61023682 -613.59158203 422.37281738 -613.80175781 421.09790039 C-614.01452414 419.75290147 -614.22641674 418.40776409 -614.4375 417.0625 C-614.5463855 416.37993134 -614.655271 415.69736267 -614.76745605 414.99411011 C-617.08623288 400.39172136 -618.78949634 385.7375679 -620 371 C-620.09571289 369.85450684 -620.19142578 368.70901367 -620.29003906 367.52880859 C-621.24173652 354.53421557 -621.24252214 341.52401036 -621.25 328.5 C-621.25100708 327.28101013 -621.25201416 326.06202026 -621.25305176 324.80609131 C-621.24238236 305.67680143 -620.59237044 286.96788282 -618 268 C-617.86078125 266.91879883 -617.7215625 265.83759766 -617.578125 264.72363281 C-610.59236947 211.47341765 -590.97880782 157.87540569 -553.96484375 118.1171875 C-552.13692837 116.14754508 -550.41220825 114.12222352 -548.6875 112.0625 C-525.37675309 85.51267436 -492.45085862 67.1911218 -459 57 C-466.11048051 54.18817335 -473.37758129 52.03470856 -480.7109375 49.88671875 C-482.0901138 49.48030394 -483.46920594 49.07360342 -484.84822083 48.66664124 C-487.80795212 47.79374358 -490.76819055 46.9225963 -493.72885132 46.05285645 C-500.8539802 43.9596508 -507.97658011 41.85786377 -515.0994854 39.75710678 C-517.59595777 39.02093323 -520.0925377 38.28512523 -522.58912659 37.54934692 C-534.73770794 33.96801057 -546.88021224 30.36650569 -559.01953125 26.75390625 C-559.87203964 26.5002297 -560.72454803 26.24655315 -561.60289001 25.98518944 C-569.10898188 23.75148951 -576.61473249 21.51664477 -584.12005615 19.28036499 C-587.99825369 18.1248288 -591.87667854 16.9700585 -595.75525475 15.81579399 C-597.86297947 15.18824732 -599.9704109 14.55972267 -602.07783508 13.9311676 C-603.95972786 13.37114296 -603.95972786 13.37114296 -605.87963867 12.79980469 C-606.97120773 12.47453796 -608.06277679 12.14927124 -609.18742371 11.81414795 C-611.45036584 11.15910094 -613.70948172 10.54875808 -616 10 C-615 7 -615 7 -612.796875 5.60546875 C-588.79740514 -5.5635153 -562.52066501 -9.09892628 -536.2578125 -9.203125 C-535.06830994 -9.21013931 -533.87880737 -9.21715363 -532.65325928 -9.22438049 C-528.81046741 -9.24185284 -524.9678302 -9.24823858 -521.125 -9.25 C-519.80566467 -9.25067474 -518.48632935 -9.25134949 -517.12701416 -9.25204468 C-496.06026768 -9.24423006 -475.2390954 -8.56663776 -454.29797363 -6.25323486 C-451.90337575 -5.98935209 -449.50793788 -5.73428106 -447.11230469 -5.47998047 C-422.78471934 -2.87090554 -398.67590804 0.81088418 -374.58345032 5.06044006 C-370.81431986 5.75240296 -370.81431986 5.75240296 -367 6 C-428.31274357 -22.4022268 -496.17585996 -39.19056219 -560.9609375 -57.734375 C-561.80222702 -57.97536674 -562.64351654 -58.21635849 -563.51029968 -58.46465302 C-571.84406821 -60.85180453 -580.17902462 -63.23445368 -588.52070427 -65.59383011 C-591.60359843 -66.46690843 -594.68504814 -67.34500766 -597.76622391 -68.22412872 C-599.20854528 -68.63425111 -600.65155042 -69.04197705 -602.09525681 -69.44719696 C-604.07321602 -70.00250535 -606.04875509 -70.56572669 -608.02392578 -71.13085938 C-609.13534943 -71.44518921 -610.24677307 -71.75951904 -611.39187622 -72.08337402 C-614 -73 -614 -73 -616 -75 C-610.14468156 -78.03609104 -604.40406114 -79.76965591 -598 -81.1875 C-596.87972412 -81.43741699 -596.87972412 -81.43741699 -595.73681641 -81.69238281 C-587.2900552 -83.48831065 -578.95843542 -84.1581209 -570.33203125 -84.203125 C-569.42742661 -84.21013931 -568.52282196 -84.21715363 -567.59080505 -84.22438049 C-564.66465244 -84.24186587 -561.73870306 -84.24823967 -558.8125 -84.25 C-557.3041156 -84.25101212 -557.3041156 -84.25101212 -555.76525879 -84.25204468 C-538.65930017 -84.23386709 -521.96486094 -83.32715093 -505 -81 C-503.15027588 -80.75854248 -503.15027588 -80.75854248 -501.26318359 -80.51220703 C-460.38814788 -75.1089166 -420.35786269 -65.67129952 -380.47021484 -55.40380859 C-373.32276809 -53.56516913 -366.16290617 -51.77736168 -359 -50 C-422.28809854 -91.79172113 -502.89333296 -111.75042294 -575 -132 C-575 -132.99 -575 -133.98 -575 -135 C-569.12501925 -138.22853205 -563.82387211 -139.9816117 -557.25 -141.1875 C-556.43273437 -141.35185547 -555.61546875 -141.51621094 -554.7734375 -141.68554688 C-470.75396749 -157.84817078 -372.34580093 -131.39850095 0 0 Z " fill="#F05A28" transform="translate(1036,307)"/>
<path d="M0 0 C0.0136285 2.04294985 0.02325567 4.08592659 0.03125 6.12890625 C0.03705078 7.26658447 0.04285156 8.4042627 0.04882812 9.57641602 C0.00391187 12.72571917 -0.19447769 15.80413966 -0.5 18.9375 C-1.13586297 25.62749491 -1.08939118 32.28572899 -1 39 C8.86147953 42.75968907 18.69401631 45.73844392 29 48 C30.21042969 48.26683594 31.42085937 48.53367187 32.66796875 48.80859375 C80.29214034 58.17807909 131.48922116 56.00472086 178.05029297 42.55224609 C181.07877934 41.69444041 184.13184305 40.94167721 187.1875 40.1875 C188.12980469 39.95417969 189.07210938 39.72085937 190.04296875 39.48046875 C191.01169922 39.24263672 191.01169922 39.24263672 192 39 C191.86722656 37.94425781 191.73445313 36.88851563 191.59765625 35.80078125 C190.15682935 23.87923237 189.44959309 11.99703658 189 0 C254.95172449 -0.88800872 315.76320937 13.25187342 365.63671875 58.859375 C367.70029213 60.72852907 369.80514613 62.52323362 371.9375 64.3125 C396.68920919 86.04450067 415.03393002 117.27771256 426.8125 147.6875 C427.15619629 148.56623779 427.49989258 149.44497559 427.85400391 150.3503418 C428.30718994 151.57491089 428.30718994 151.57491089 428.76953125 152.82421875 C429.03354736 153.53666748 429.29756348 154.24911621 429.56958008 154.9831543 C430.10766384 157.50448725 430.13402733 158.66296629 429 161 C426.53613281 162.59301758 426.53613281 162.59301758 423.203125 164.14453125 C422.29172256 164.57413651 422.29172256 164.57413651 421.36190796 165.01242065 C419.33179629 165.96223917 417.29190394 166.88833021 415.25 167.8125 C413.80774716 168.47559601 412.36552775 169.13876473 410.92333984 169.80200195 C347.57639995 198.71877188 280.68656765 219.49328975 212 231 C211.30229492 231.11796936 210.60458984 231.23593872 209.88574219 231.35748291 C191.8281811 234.40031703 173.73230514 236.55580236 155.5 238.25 C154.60528992 238.33317474 153.71057983 238.41634949 152.78875732 238.50204468 C146.86244684 239.04577611 140.93349501 239.54156423 135 240 C133.96504395 240.08272156 133.96504395 240.08272156 132.90917969 240.16711426 C116.31539895 241.44941633 99.63280098 241.24572728 83 241.25 C81.81746769 241.25066278 81.81746769 241.25066278 80.61104584 241.25133896 C54.9584858 241.25886624 29.53150947 240.69508288 4 238 C2.30908225 237.82665799 0.61816428 237.6533182 -1.07275391 237.47998047 C-85.41188816 228.69819483 -167.76643316 205.93294553 -245 171 C-244.44002243 164.86824562 -243.07886028 159.53440425 -241 153.75 C-240.69312256 152.88810059 -240.38624512 152.02620117 -240.07006836 151.13818359 C-225.75067025 111.79996165 -201.05847553 75.91314156 -168 50 C-167.02675781 49.20980469 -166.05351563 48.41960937 -165.05078125 47.60546875 C-117.20642561 9.4860637 -59.66415793 -0.77828021 0 0 Z " fill="#8BC53F" transform="translate(702,1325)"/>
<path d="M0 0 C0.99 0.03287109 0.99 0.03287109 2 0.06640625 C2.66 0.06511719 3.32 0.06382812 4 0.0625 C7.09233587 0.93825918 8.13870549 1.98200042 10 4.62890625 C10.64392159 7.81709391 10.73409465 11.00988084 10.875 14.25390625 C12.51169864 37.76821719 23.1767088 58.84239367 40.1484375 75.18359375 C61.24975397 93.27869527 85.33247998 98.97247726 112.578125 97.42578125 C134.79605041 95.04897993 156.20621956 82.57569984 170.46826172 65.57373047 C183.79205499 48.92939448 189.93054012 29.94959862 190.4609375 8.7578125 C191.11376875 4.96855283 192.24295765 3.27878441 195 0.62890625 C197 0 197 0 199 0.06640625 C199.66 0.06511719 200.32 0.06382812 201 0.0625 C204.04685744 0.92537955 205.15796577 2.0460099 207 4.62890625 C207.37994617 7.59368309 207.52258972 10.11345513 207.4375 13.06640625 C207.42356201 13.87118408 207.40962402 14.67596191 207.39526367 15.50512695 C207.18150293 22.49795794 206.02614656 28.92703687 204 35.62890625 C203.50693359 37.37880859 203.50693359 37.37880859 203.00390625 39.1640625 C198.47170639 54.07797969 191.35702612 66.98467803 181 78.62890625 C180.32324219 79.48613281 179.64648438 80.34335937 178.94921875 81.2265625 C169.03740201 93.44252903 154.30242179 101.68545542 140 107.62890625 C138.60007812 108.22832031 138.60007812 108.22832031 137.171875 108.83984375 C113.02985601 118.45328245 84.18293601 117.37065197 60.41796875 107.3515625 C50.89537108 103.10643875 41.97205509 98.40515308 34 91.62890625 C33.1440625 90.90960937 32.288125 90.1903125 31.40625 89.44921875 C9.56319992 70.43523841 -4.09615387 44.18659827 -6.2578125 15.16796875 C-6.54964487 6.51027512 -6.54964487 6.51027512 -4.2265625 2.78515625 C-2 0.62890625 -2 0.62890625 0 0 Z " fill="#C3996C" transform="translate(693,923.37109375)"/>
<path d="M0 0 C7.82329613 5.50582916 13.61001082 12.17357376 15.8203125 21.64453125 C17.07683737 33.00022797 15.72665529 42.64765979 9.0234375 52.20703125 C2.76582629 59.81628649 -5.50928781 64.87735453 -15.40625 66.015625 C-26.16366093 66.22582728 -34.46550034 63.90451356 -42.9921875 57.20703125 C-50.07292295 50.2813484 -54.37722763 41.9780555 -54.85742188 32.10351562 C-54.90940213 20.34558284 -51.87648718 12.44942413 -43.7578125 3.9140625 C-31.12285497 -7.2085289 -14.36528105 -8.93324825 0 0 Z " fill="#242021" transform="translate(977.1796875,696.35546875)"/>
<path d="M0 0 C6.55606032 5.47319219 11.92932647 13.42649284 13.25 21.9375 C14.25229977 33.86964015 12.0790966 43.63816239 4.296875 52.93359375 C-2.95177062 60.03007314 -12.51534653 63.94102167 -22.5625 64.4375 C-31.95592724 64.16227857 -40.24543927 60.36416839 -47.00390625 53.88671875 C-54.75441312 45.23458692 -58.43555069 36.88699613 -58.0859375 25.2421875 C-56.94023787 13.97170046 -51.28491407 6.47203955 -42.78515625 -0.7265625 C-29.88325579 -10.38181405 -12.81918726 -9.03861339 0 0 Z " fill="#242021" transform="translate(639.75,698.0625)"/>
<path d="M0 0 C4.21770977 1.30365575 5.16703727 2.30975503 7.4375 6.0625 C8.00368172 9.08934273 7.96047269 12.05778209 7.91851807 15.12971497 C7.92193577 16.04461927 7.92535347 16.95952357 7.92887473 17.90215224 C7.93546482 20.96869663 7.91345857 24.03436629 7.89160156 27.10083008 C7.89047333 29.29858377 7.89110647 31.49633898 7.89337158 33.6940918 C7.8945206 39.66274539 7.8709806 45.63107832 7.84307575 51.5996573 C7.81809352 57.83633444 7.8157226 64.0730187 7.81097412 70.30973816 C7.79994886 80.7784063 7.77495344 91.24696453 7.73925781 101.71557617 C7.70253223 112.49747123 7.67422317 123.2793343 7.65722656 134.0612793 C7.65617567 134.72606569 7.65512477 135.39085209 7.65404204 136.07578353 C7.64882182 139.41087805 7.64377603 142.74597279 7.63879442 146.08106768 C7.59696895 173.74162714 7.52659862 201.40205529 7.4375 229.0625 C6.16582614 228.11992609 4.8957012 227.17526224 3.6262207 226.22973633 C2.91875198 225.70390457 2.21128326 225.17807281 1.4823761 224.63630676 C-1.30617664 222.49014096 -3.81523116 220.16656499 -6.375 217.75 C-10.28440706 214.09517353 -14.26642754 210.60955768 -18.4375 207.25 C-20.14655725 205.85505313 -21.85497201 204.45931839 -23.5625 203.0625 C-24.22894531 202.53140625 -24.89539063 202.0003125 -25.58203125 201.453125 C-27.74889415 199.56536622 -29.35646787 197.89474002 -30.05859375 195.05859375 C-30.26371901 191.6833509 -29.78725558 189.42210892 -28 186.5625 C-24.40221018 184.3484755 -22.7425839 184.24018841 -18.5625 185.0625 C-16.22143555 186.88574219 -16.22143555 186.88574219 -13.82421875 189.109375 C-13.02330811 189.84510742 -12.22239746 190.58083984 -11.3972168 191.33886719 C-10.79176025 191.90766602 -10.18630371 192.47646484 -9.5625 193.0625 C-9.56168285 191.60694765 -9.56168285 191.60694765 -9.56084919 190.1219902 C-9.54646423 166.52860588 -9.50349108 142.93540628 -9.43040943 119.34212875 C-9.39573216 107.93265386 -9.37040032 96.52330012 -9.36694336 85.11376953 C-9.36390727 75.17110754 -9.34346473 65.22866118 -9.30197543 55.28608251 C-9.28061145 50.01978387 -9.26806227 44.75379205 -9.27634621 39.48744965 C-9.28386482 34.53298861 -9.26815295 29.57915035 -9.23443985 24.62480354 C-9.22618009 22.80431262 -9.22648766 20.98376008 -9.23590279 19.16327477 C-9.24747191 16.68100623 -9.22849012 14.20079685 -9.20173645 11.71868896 C-9.21774634 10.63308217 -9.21774634 10.63308217 -9.23407966 9.52554393 C-9.15956544 5.83091657 -8.80757947 4.32421668 -6.24520397 1.58789444 C-3.5625 0.0625 -3.5625 0.0625 0 0 Z " fill="#CF9E77" transform="translate(805.5625,682.9375)"/>
</svg>
