<?xml version="1.0" encoding="UTF-8"?>
<svg version="1.1" xmlns="http://www.w3.org/2000/svg" width="1567" height="1567">
<path d="M0 0 C0.86680389 0.00055389 1.73360779 0.00110779 2.62667847 0.00167847 C14.18709215 0.01030515 25.71939015 0.14885037 37.26196289 0.85693359 C43.69061309 1.21371864 49.9298081 0.8539248 56.34741211 0.3762207 C63.78273595 -0.12641389 71.23856616 -0.07263218 78.6875 -0.0625 C79.51587372 -0.06189575 80.34424744 -0.0612915 81.19772339 -0.06066895 C175.24733472 0.12419959 266.61580429 29.54371234 334.4375 96.125 C342.47177997 104.21728011 349.58234019 113.02863296 356.4375 122.125 C356.85354492 122.67349609 357.26958984 123.22199219 357.69824219 123.78710938 C410.2583032 193.5615282 425.06963528 284.10480826 432.4375 369.125 C432.58614502 370.8258374 432.58614502 370.8258374 432.73779297 372.56103516 C433.87095197 386.09588371 434.48371901 399.4964745 434.4296875 413.07421875 C434.43389128 416.54157107 434.44094979 420.00891014 434.44818115 423.47625732 C434.43767421 426.88104708 434.37192245 430.28195497 434.30517578 433.68603516 C433.75630645 444.6921118 433.75630645 444.6921118 437.57666016 454.62451172 C440.06719666 457.07374579 442.61111695 459.08350588 445.4375 461.125 C458.90939847 477.11360277 461.03764168 497.1183996 459.4375 517.125 C458.54073056 522.7838869 456.72118376 527.88953351 454.4375 533.125 C454.0146875 534.11242187 453.591875 535.09984375 453.15625 536.1171875 C447.67531811 547.36584422 437.18128871 558.76843322 425.90882874 564.38490295 C422.83195549 566.55137234 422.56421582 567.73296116 421.82592773 571.36889648 C421.59582001 572.44380341 421.36571228 573.51871033 421.12863159 574.62619019 C420.90055817 575.78079742 420.67248474 576.93540466 420.4375 578.125 C419.91717115 580.51710054 419.39640231 582.9091054 418.87524414 585.30102539 C418.32137342 587.94099113 417.77014393 590.58137245 417.22265625 593.22265625 C417.00258817 594.28092023 417.00258817 594.28092023 416.77807426 595.36056328 C415.99915497 599.10643534 415.22305869 602.85287855 414.44946289 606.59985352 C413.822938 609.63242088 413.19171326 612.663945 412.5559082 615.69458008 C403.23987652 660.11845533 393.85005805 704.93475983 413.88671875 747.8046875 C415.16982438 750.55189099 416.34632889 753.29763052 417.4375 756.125 C399.27845072 753.8935914 383.33685342 745.74495857 369.4375 734.125 C368.11100008 733.11595305 366.77995115 732.11272602 365.4375 731.125 C365.28982178 731.65939697 365.14214355 732.19379395 364.98999023 732.74438477 C363.65422386 737.17380711 362.05625162 740.97420623 359.59765625 744.90234375 C351.63932805 757.88174295 350.41585541 766.92327446 353.79296875 781.7265625 C354.33566857 783.86077528 354.88369064 785.99364305 355.4375 788.125 C355.89413999 790.06979424 356.34865193 792.01508967 356.80078125 793.9609375 C360.82124754 810.47639647 366.48684188 826.60266919 375.96875 840.7890625 C377.4375 843.125 377.4375 843.125 377.4375 845.125 C354.33463581 843.01615545 333.87180479 835.69195583 314.16015625 823.49609375 C313.26167969 823.04363281 312.36320312 822.59117187 311.4375 822.125 C308.1744879 823.2126707 307.55910072 823.87566713 305.4375 826.4375 C295.83297536 837.74769075 285.70836831 848.46425573 274.4375 858.125 C273.47585938 858.97578125 272.51421875 859.8265625 271.5234375 860.703125 C256.54731632 873.88021793 240.48991972 885.77214663 223.4375 896.125 C222.27758545 896.82955322 222.27758545 896.82955322 221.09423828 897.54833984 C198.97650672 910.84559992 175.8017084 921.64910956 151.4375 930.125 C150.6316748 930.40875488 149.82584961 930.69250977 148.99560547 930.98486328 C137.19659472 935.125 137.19659472 935.125 133.4375 935.125 C133.51044785 935.9244101 133.58339569 936.72382019 133.65855408 937.54745483 C134.35305656 945.16452873 135.04446648 952.78187458 135.7325964 960.3995266 C136.08628278 964.31370311 136.44107125 968.22777254 136.79858398 972.14160156 C139.83705693 1005.421403 139.83705693 1005.421403 140.4375 1020.125 C141.45247559 1020.10928955 142.46745117 1020.0935791 143.51318359 1020.07739258 C213.39822794 1019.09466091 274.3452639 1037.1160355 325.4375 1086.125 C326.67306641 1087.29869141 326.67306641 1087.29869141 327.93359375 1088.49609375 C349.17602433 1109.14947946 364.21501799 1135.04675255 375.8125 1162.0625 C376.14644775 1162.83110352 376.48039551 1163.59970703 376.82446289 1164.39160156 C378.98889225 1169.54792158 380.40517367 1174.63091049 381.4375 1180.125 C312.56753543 1214.34415531 239.17828641 1237.91166 98.875 1258.8125 C97.80199142 1258.90390762 97.80199142 1258.90390762 96.70730591 1258.99716187 C75.75903166 1260.75563229 54.83002197 1261.33303049 33.8125 1261.3125 C32.65764099 1261.31189575 31.50278198 1261.3112915 30.31292725 1261.31066895 C10.29313482 1261.28242694 -9.60993741 1260.78647076 -29.5625 1259.125 C-30.3235907 1259.06183594 -31.0846814 1258.99867187 -31.86883545 1258.93359375 C-111.15017058 1252.25537553 -188.8031758 1233.99561455 -262.5625 1204.125 C-263.27990356 1203.83459839 -263.99730713 1203.54419678 -264.7364502 1203.24499512 C-269.03979844 1201.49708045 -273.33091357 1199.72262572 -277.60891724 1197.9135437 C-278.94207631 1197.35078078 -280.27708272 1196.79237217 -281.61398315 1196.23855591 C-283.44841565 1195.47535544 -285.27333816 1194.68941492 -287.09765625 1193.90234375 C-288.65045288 1193.24093384 -288.65045288 1193.24093384 -290.23461914 1192.56616211 C-292.5625 1191.125 -292.5625 1191.125 -293.49682617 1189.29443359 C-293.64791324 1184.30350531 -291.39600412 1179.47749604 -289.8125 1174.8125 C-289.40491455 1173.60787109 -288.9973291 1172.40324219 -288.57739258 1171.16210938 C-274.34755185 1130.27652127 -247.29351528 1092.13559485 -212.26269531 1066.37646484 C-210.56613496 1065.12767559 -208.88854025 1063.85612897 -207.2109375 1062.58203125 C-198.17525107 1055.8206066 -188.56517705 1050.32403652 -178.5625 1045.125 C-177.82966797 1044.73957031 -177.09683594 1044.35414062 -176.34179688 1043.95703125 C-154.76845918 1032.73966134 -131.52413906 1025.90158543 -107.5625 1022.125 C-106.37454834 1021.93019043 -106.37454834 1021.93019043 -105.16259766 1021.73144531 C-86.56334238 1018.8325437 -67.32647912 1019.94247102 -48.5625 1020.125 C-47.77725424 1010.84123636 -46.99471105 1001.55724999 -46.21559143 992.2729702 C-45.85370866 987.96165252 -45.49090491 983.65041652 -45.12597656 979.33935547 C-44.7736599 975.17687485 -44.4237884 971.0141952 -44.07559204 966.85136795 C-43.94250057 965.26533341 -43.80853682 963.67937182 -43.67367554 962.09348679 C-43.48454888 959.86768871 -43.29856019 957.64164856 -43.11328125 955.41552734 C-43.00669189 954.14977875 -42.90010254 952.88403015 -42.7902832 951.57992554 C-42.58161356 948.41490688 -42.51960416 945.29552732 -42.5625 942.125 C-43.11671631 942.00084717 -43.67093262 941.87669434 -44.24194336 941.7487793 C-106.66182429 927.51732463 -164.94041535 898.54117304 -211.8515625 854.6484375 C-214.29467987 852.37429654 -216.79117738 850.18626314 -219.3125 848 C-229.14113173 839.19252481 -238.05081387 829.19628079 -246.5625 819.125 C-247.45775391 819.61806641 -247.45775391 819.61806641 -248.37109375 820.12109375 C-250.82599644 821.46709537 -253.28625701 822.80287873 -255.74804688 824.13623047 C-256.99929846 824.81808851 -258.2478477 825.50492101 -259.49414062 826.19580078 C-277.70788173 836.29254857 -296.54904003 843.79081207 -317.5625 845.125 C-316.99106364 840.73862229 -315.34744504 837.90390516 -313 834.1875 C-300.72278523 813.61751109 -295.79690683 788.78496858 -292.86328125 765.28173828 C-292.59987924 763.39302616 -292.23025595 761.51975566 -291.84375 759.65234375 C-290.22265094 750.22374554 -294.16142327 743.44989819 -298.4609375 735.3125 C-300.06636931 732.2612328 -301.18435033 729.59837471 -301.5625 726.125 C-302.28953125 726.76115234 -302.28953125 726.76115234 -303.03125 727.41015625 C-304.45299018 728.65417891 -305.87772391 729.89478486 -307.3046875 731.1328125 C-308.68679279 732.35231717 -310.05120743 733.59273286 -311.3828125 734.8671875 C-324.24111069 746.94619489 -341.41414197 753.34779484 -358.5625 756.125 C-358.31081055 755.56216309 -358.05912109 754.99932617 -357.79980469 754.41943359 C-333.35951845 699.45679173 -346.73989325 647.23721634 -358.79888439 590.87787151 C-359.23492472 588.83874494 -359.66943623 586.79929843 -360.10350037 584.75975037 C-360.64333055 582.22656147 -361.18660916 579.69410432 -361.73377991 577.16249084 C-361.97486984 576.03008469 -362.21595978 574.89767853 -362.46435547 573.73095703 C-362.67720184 572.7409671 -362.89004822 571.75097717 -363.10934448 570.73098755 C-363.5625 568.125 -363.5625 568.125 -363.5625 564.125 C-364.28824219 563.86847656 -365.01398438 563.61195313 -365.76171875 563.34765625 C-379.4979462 557.35122781 -388.91654247 543.48688218 -394.5625 530.125 C-401.23392641 512.59259757 -400.50245602 492.71922846 -393.01953125 475.59375 C-389.19783157 468.10776618 -384.45548397 460.27934496 -377.97424316 454.77650452 C-376.14387285 452.63527591 -376.18499132 451.46954454 -376.17773438 448.67749023 C-376.16748734 447.77059952 -376.1572403 446.8637088 -376.14668274 445.92933655 C-376.14983994 444.94074142 -376.15299713 443.9521463 -376.15625 442.93359375 C-376.13636708 440.79085235 -376.11642641 438.64811149 -376.09643555 436.50537109 C-376.09139008 435.37379578 -376.0863446 434.24222046 -376.08114624 433.07635498 C-375.62253317 346.65143477 -366.4085284 251.5111046 -283.5625 109.125 C-282.40966152 107.79771885 -281.26335933 106.46472006 -280.125 105.125 C-273.15677956 97.14500048 -265.62563598 89.92613301 -257.328125 83.34375 C-255.53461476 81.90488868 -253.77132565 80.42719405 -252.046875 78.90625 C-236.67812405 65.42488951 -218.73684859 54.41059955 -200.5625 45.125 C-199.60102051 44.62935547 -198.63954102 44.13371094 -197.64892578 43.62304688 C-136.82254034 12.534635 -67.97447776 -0.19549114 0 0 Z " fill="#EFCFB3" transform="translate(750.5625,305.875)"/>
<path d="M0 0 C0.86680389 0.00055389 1.73360779 0.00110779 2.62667847 0.00167847 C14.18709215 0.01030515 25.71939015 0.14885037 37.26196289 0.85693359 C43.69061309 1.21371864 49.9298081 0.8539248 56.34741211 0.3762207 C63.78273595 -0.12641389 71.23856616 -0.07263218 78.6875 -0.0625 C79.51587372 -0.06189575 80.34424744 -0.0612915 81.19772339 -0.06066895 C175.24733472 0.12419959 266.61580429 29.54371234 334.4375 96.125 C342.47177997 104.21728011 349.58234019 113.02863296 356.4375 122.125 C356.85354492 122.67349609 357.26958984 123.22199219 357.69824219 123.78710938 C410.30396816 193.62214924 424.9601328 284.06994813 432.4375 369.125 C432.54191406 370.2588916 432.64632812 371.3927832 432.75390625 372.56103516 C435.08633084 398.70116709 434.64174427 424.90739921 434.4375 451.125 C433.73262451 450.73103027 433.02774902 450.33706055 432.30151367 449.93115234 C426.86807373 446.92530216 421.48282114 444.13394542 415.75 441.75 C414.54988281 441.24726562 413.34976563 440.74453125 412.11328125 440.2265625 C411.23027344 439.86304688 410.34726563 439.49953125 409.4375 439.125 C409.76363281 440.15238281 410.08976562 441.17976563 410.42578125 442.23828125 C412.92816012 450.16008683 415.34193515 458.08348287 417.4375 466.125 C369.24207472 462.26936598 320.20474259 422.63737408 282.4375 395.125 C281.69467773 394.58504395 280.95185547 394.04508789 280.18652344 393.48876953 C268.80845299 385.20129837 257.57629332 376.73076595 246.4375 368.125 C245.6748584 367.53654297 244.9122168 366.94808594 244.12646484 366.34179688 C236.09579518 360.14012342 228.0866645 353.92258384 220.265625 347.45703125 C218.07609728 345.65157814 215.87843142 343.8586752 213.671875 342.07421875 C206.72762613 336.45824625 199.82388153 330.80600029 193.02661133 325.01269531 C189.63800059 322.12764703 186.20898978 319.30013458 182.75 316.5 C178.35235904 312.92333687 174.14481843 309.18175177 169.95703125 305.36328125 C167.40545083 303.09652842 164.78578468 300.94959913 162.125 298.8125 C156.67806545 294.40711809 151.56855191 289.69710295 146.44921875 284.921875 C142.85309933 281.56923698 139.16848728 278.32648035 135.4375 275.125 C134.76460937 274.54621094 134.09171875 273.96742188 133.3984375 273.37109375 C131.74696393 271.95319513 130.09256671 270.53870281 128.4375 269.125 C133.72602867 277.91438567 139.73399954 286.04518858 145.95605469 294.18652344 C147.30096215 295.94633972 148.63966072 297.71066285 149.9765625 299.4765625 C156.13153329 307.55621471 162.51125528 315.4418265 168.94482422 323.30029297 C170.25936202 324.90723696 171.56948302 326.51779191 172.87890625 328.12890625 C176.86576801 333.0286809 180.90916642 337.87463114 185 342.6875 C198.4375 358.50888336 198.4375 358.50888336 198.4375 360.125 C166.59200221 358.55882798 135.37071704 341.2656413 107.4375 327.125 C106.47602051 326.64144043 105.51454102 326.15788086 104.52392578 325.65966797 C78.69313388 312.61326417 53.65863342 297.38421285 29.81225586 281.00488281 C27.34783032 279.32314565 25.28925929 278.07558643 22.4375 277.125 C22.88738281 277.61226562 23.33726562 278.09953125 23.80078125 278.6015625 C28.44670764 283.72232305 32.77528342 289.02350727 37.0168457 294.47705078 C40.59805141 299.07579014 44.25017549 303.61100903 47.9375 308.125 C52.44538093 313.64816346 56.88593111 319.21685037 61.2734375 324.8359375 C64.77526518 329.30937055 68.34575918 333.72354819 71.9375 338.125 C79.96842006 347.97188554 87.87810801 357.90960541 95.4375 368.125 C18.17274821 355.88150856 -55.07025924 305.68538532 -113.484375 255.734375 C-116.27916189 253.35027908 -119.13301045 251.04694485 -122 248.75 C-127.69108407 244.12391412 -133.00931821 239.13557019 -138.3515625 234.1171875 C-140.7266086 231.89015351 -143.14146189 229.73129181 -145.625 227.625 C-149.9019915 223.94586753 -153.8107411 219.9050546 -157.7722168 215.89379883 C-160.73464658 212.90716124 -163.72364534 210.03239645 -166.9375 207.3125 C-170.26627531 204.48723692 -173.06604158 201.38504751 -175.88671875 198.05859375 C-178.3077104 195.26514185 -180.91736884 192.70561576 -183.5625 190.125 C-184.66968929 193.77963876 -184.81177636 197.33366177 -184.9921875 201.13671875 C-185.0636735 202.54023338 -185.13580036 203.94371548 -185.20849609 205.34716797 C-185.24545593 206.07691833 -185.28241577 206.8066687 -185.32049561 207.55853271 C-185.96361744 219.94760219 -186.88786093 231.98338264 -189.5625 244.125 C-189.85655567 245.64512397 -190.14672813 247.1660028 -190.43359375 248.6875 C-192.63741311 260.13216191 -195.7403325 271.11990108 -199.5625 282.125 C-199.87815918 283.03878418 -200.19381836 283.95256836 -200.51904297 284.89404297 C-217.07089866 332.22513635 -244.05329322 375.84050398 -278.18359375 412.53515625 C-280.06629421 414.58479567 -281.88398372 416.6620416 -283.6953125 418.7734375 C-288.23171174 423.97417573 -293.11165038 428.81999623 -298 433.6875 C-299.35448242 435.0477832 -299.35448242 435.0477832 -300.73632812 436.43554688 C-305.8502543 441.54206693 -311.06238918 446.43895014 -316.5625 451.125 C-317.64570624 452.07418161 -318.72778745 453.02464904 -319.80859375 453.9765625 C-326.30258732 459.64104238 -332.93782367 465.09659968 -339.75 470.375 C-340.48081787 470.94814941 -341.21163574 471.52129883 -341.96459961 472.11181641 C-342.65046143 472.63694824 -343.33632324 473.16208008 -344.04296875 473.703125 C-344.95405396 474.40550293 -344.95405396 474.40550293 -345.88354492 475.12207031 C-347.5625 476.125 -347.5625 476.125 -350.5625 476.125 C-349.80195313 475.28582031 -349.04140625 474.44664062 -348.2578125 473.58203125 C-345.52710087 470.29228387 -343.87748683 466.81768197 -342.4375 462.8125 C-342.18597168 462.131875 -341.93444336 461.45125 -341.67529297 460.75 C-338.97570305 453.06587887 -337.69699713 445.16599717 -336.5625 437.125 C-351.65597087 439.75295827 -362.84399761 444.60160573 -375.5625 453.125 C-375.93814197 421.65000728 -375.6218712 390.46859807 -372.5625 359.125 C-372.48988953 358.37917664 -372.41727905 357.63335327 -372.34246826 356.8649292 C-363.86607447 270.9497589 -347.30084556 176.47560951 -283.5625 109.125 C-282.40966152 107.79771885 -281.26335933 106.46472006 -280.125 105.125 C-273.15677956 97.14500048 -265.62563598 89.92613301 -257.328125 83.34375 C-255.53461476 81.90488868 -253.77132565 80.42719405 -252.046875 78.90625 C-236.67812405 65.42488951 -218.73684859 54.41059955 -200.5625 45.125 C-199.60102051 44.62935547 -198.63954102 44.13371094 -197.64892578 43.62304688 C-136.82254034 12.534635 -67.97447776 -0.19549114 0 0 Z " fill="#5A4A42" transform="translate(750.5625,305.875)"/>
<path d="M0 0 C-0.99 12.87 -1.98 25.74 -3 39 C17.78531175 45.3610106 17.78531175 45.3610106 39 50 C39.7636084 50.13680176 40.5272168 50.27360352 41.31396484 50.41455078 C86.1008821 58.04682659 135.02217079 54.39566636 178.48828125 41.67578125 C182.29540301 40.65147011 186.14771886 39.83572969 190 39 C189.93941406 38.13834229 189.87882812 37.27668457 189.81640625 36.38891602 C189.59029141 33.15177772 189.36698839 29.91446037 189.14550781 26.67700195 C189.04960617 25.28337089 188.95262659 23.88981352 188.85449219 22.49633789 C188.32656786 14.98957711 187.86659428 7.52908505 188 0 C259.08721921 -1.100334 320.88348113 16.00851758 373 66 C373.82371094 66.78246094 374.64742187 67.56492187 375.49609375 68.37109375 C396.73852433 89.02447946 411.77751799 114.92175255 423.375 141.9375 C423.70894775 142.70610352 424.04289551 143.47470703 424.38696289 144.26660156 C426.55139225 149.42292158 427.96767367 154.50591049 429 160 C360.13003543 194.21915531 286.74078641 217.78666 146.4375 238.6875 C145.36449142 238.77890762 145.36449142 238.77890762 144.26980591 238.87216187 C123.32153166 240.63063229 102.39252197 241.20803049 81.375 241.1875 C80.22014099 241.18689575 79.06528198 241.1862915 77.87542725 241.18566895 C57.85563482 241.15742694 37.95256259 240.66147076 18 239 C17.2389093 238.93683594 16.4778186 238.87367188 15.69366455 238.80859375 C-63.58767058 232.13037553 -141.2406758 213.87061455 -215 184 C-215.71740356 183.70959839 -216.43480713 183.41919678 -217.1739502 183.11999512 C-221.47729844 181.37208045 -225.76841357 179.59762572 -230.04641724 177.7885437 C-231.37957631 177.22578078 -232.71458272 176.66737217 -234.05148315 176.11355591 C-235.88591565 175.35035544 -237.71083816 174.56441492 -239.53515625 173.77734375 C-240.570354 173.33640381 -241.60555176 172.89546387 -242.67211914 172.44116211 C-245 171 -245 171 -245.93432617 169.16943359 C-246.08541324 164.17850531 -243.83350412 159.35249604 -242.25 154.6875 C-241.84241455 153.48287109 -241.4348291 152.27824219 -241.01489258 151.03710938 C-226.78505185 110.15152127 -199.73101528 72.01059485 -164.70019531 46.25146484 C-163.00363496 45.00267559 -161.32604025 43.73112897 -159.6484375 42.45703125 C-150.61275107 35.6956066 -141.00267705 30.19903652 -131 25 C-130.26716797 24.61457031 -129.53433594 24.22914062 -128.77929688 23.83203125 C-107.20378071 12.61352861 -83.96239203 5.78265272 -60 2 C-59.21334961 1.87012695 -58.42669922 1.74025391 -57.61621094 1.60644531 C-38.74271623 -1.36045808 -18.9755696 -0.1265038 0 0 Z " fill="#231F20" transform="translate(703,1326)"/>
<path d="M0 0 C3.34274662 0.57071284 6.07300531 1.42220548 9.125 2.875 C16.98576998 6.15830941 25.61852212 6.86411183 34 8 C34.01458252 8.94391602 34.02916504 9.88783203 34.04418945 10.86035156 C34.54539149 41.0634941 36.98342976 70.3204419 43 100 C43.25789307 101.28801514 43.25789307 101.28801514 43.52099609 102.60205078 C46.38912711 116.45754938 51.18919488 129.73083873 55.89868164 143.04516602 C56.16006424 143.78836594 56.42144684 144.53156586 56.69075012 145.29728699 C57.18429167 146.69797771 57.68205789 148.09718999 58.18486023 149.49458313 C59.52734777 153.30580049 60.68503068 156.95995476 61 161 C59.34497154 163.3420214 57.94147229 164.96359945 55.875 166.875 C55.33238525 167.39457275 54.78977051 167.91414551 54.23071289 168.44946289 C41.04517091 180.66361766 22.84600835 189.08313552 5 191 C5.25168945 190.43716309 5.50337891 189.87432617 5.76269531 189.29443359 C30.21726303 134.29967474 16.79197113 82.06544851 4.76361561 25.67074013 C4.32796373 23.62778583 3.89336311 21.58461041 3.45899963 19.54138184 C2.91838764 17.00171859 2.37506844 14.46262973 1.82872009 11.92419434 C1.58763016 10.79171265 1.34654022 9.65923096 1.09814453 8.49243164 C0.88529816 7.5002211 0.67245178 6.50801056 0.45315552 5.48573303 C0 3 0 3 0 0 Z " fill="#5A4A42" transform="translate(387,871)"/>
<path d="M0 0 C2.65625 1.62890625 2.65625 1.62890625 5 4 C5.53125 6.96875 5.53125 6.96875 5.5 10.5 C5.93047299 26.56765473 11.05084836 41.17607693 19 55 C19.48210938 55.84691406 19.96421875 56.69382812 20.4609375 57.56640625 C33.02144867 77.85925522 53.19943567 90.09032167 75.78125 96.2734375 C98.05904477 101.30216302 121.48416966 97.59703655 141.1796875 86.15234375 C148.06101513 81.74864426 154.18038853 76.72373649 160 71 C161.15822266 69.86111328 161.15822266 69.86111328 162.33984375 68.69921875 C176.99434301 53.39340841 184.36673286 33.05009792 185.3125 12.125 C185.58381159 8.22840425 185.83681405 5.36916092 188.1875 2.1875 C191 0 191 0 194 -0.6875 C198.06422067 0.2438839 199.41699667 1.74764697 202 5 C202.52315565 7.93274905 202.71630193 10.14401949 202.625 13.0625 C202.60288452 14.2369165 202.60288452 14.2369165 202.58032227 15.43505859 C201.46311225 43.04025284 187.31816268 68.57104559 167.80078125 87.49609375 C153.62028252 100.17349917 136.53414249 108.77496248 118 113 C117.14148438 113.22300781 116.28296875 113.44601562 115.3984375 113.67578125 C88.96446341 119.69094254 60.26945172 112.19360968 37.73046875 98.13037109 C33.54556234 95.39672032 29.75558164 92.28695898 26 89 C25.25621094 88.39929688 24.51242187 87.79859375 23.74609375 87.1796875 C4.74632243 71.385095 -8.54226235 44.75434713 -10.86328125 20.203125 C-10.90839844 19.47609375 -10.95351563 18.7490625 -11 18 C-11.07605469 16.94296875 -11.15210938 15.8859375 -11.23046875 14.796875 C-11.59816424 5.93243248 -11.59816424 5.93243248 -8.875 1.6875 C-5.46356032 -0.31486677 -3.88600392 -0.72862574 0 0 Z " fill="#C3996C" transform="translate(698,924)"/>
<path d="M0 0 C-2.90812362 16.74230484 -6.31432258 33.36026764 -9.82192993 49.98526001 C-23.88852306 116.59897675 -23.88852306 116.59897675 -8.55078125 181.6796875 C-7.26767562 184.42689099 -6.09117111 187.17263052 -5 190 C-22.89984009 187.80044338 -39.49771351 179.81450068 -53 168 C-53.6084375 167.55011719 -54.216875 167.10023438 -54.84375 166.63671875 C-56 165 -56 165 -55.88671875 162.328125 C-54.81933025 158.32189152 -53.38009991 154.58288629 -51.8125 150.75 C-33.31085928 104.21918464 -27.47765165 55.73341871 -27 6 C-26.13914795 5.88027832 -25.2782959 5.76055664 -24.39135742 5.63720703 C-18.51471328 4.78381933 -12.90857299 3.93630929 -7.3125 1.875 C-2.1459854 0 -2.1459854 0 0 0 Z " fill="#5A4A42" transform="translate(1173,872)"/>
<path d="M0 0 C6.53089107 5.29885319 11.98665641 12.82665273 13.46484375 21.2734375 C14.19909228 33.2263206 12.44142377 42.66549508 4.93359375 52.22265625 C-1.03832166 58.71570578 -9.05927218 62.94195208 -17.890625 63.4765625 C-30.22493909 63.62744096 -38.33232636 61.93900237 -47.53515625 53.2734375 C-54.64283385 45.53086931 -57.89972024 36.45024524 -57.74609375 25.98828125 C-57.02918257 16.76136882 -53.1674995 8.54880806 -46.35546875 2.26171875 C-32.26852055 -9.05052753 -15.22741526 -10.37059714 0 0 Z " fill="#121111" transform="translate(639.53515625,698.7265625)"/>
<path d="M0 0 C6.54518066 5.5112177 11.58251752 11.90380255 14.30859375 20.08203125 C15.17389947 33.3736945 14.10317221 43.40625144 5.37109375 54.0390625 C1.83707511 57.53961506 -2.24683204 59.90261785 -6.69140625 62.08203125 C-7.44035156 62.45457031 -8.18929687 62.82710937 -8.9609375 63.2109375 C-17.58758797 65.96307349 -28.3715517 65.33326829 -36.44140625 61.39453125 C-38.22070474 60.33822595 -39.97614043 59.23941935 -41.69140625 58.08203125 C-42.60792969 57.50775391 -42.60792969 57.50775391 -43.54296875 56.921875 C-49.79482238 52.4493951 -53.73496498 44.33078138 -55.69140625 37.08203125 C-56.67010684 25.5282801 -55.78897772 16.14889429 -48.4296875 7 C-35.81085244 -6.92325397 -16.17346502 -11.52564779 0 0 Z " fill="#121110" transform="translate(978.69140625,697.91796875)"/>
<path d="M0 0 C2.70033204 1.97963914 4.66217737 3.56287325 5.45317519 6.92784655 C5.63192769 9.32137548 5.64224423 11.66724766 5.60127258 14.06721497 C5.60554471 14.98211927 5.60981683 15.89702357 5.61421841 16.83965224 C5.62245651 19.90637571 5.59494941 22.97173256 5.56762695 26.03833008 C5.56621666 28.23608366 5.56700809 30.43383959 5.56983948 32.6315918 C5.57127576 38.6003195 5.54185094 44.56854617 5.50696969 50.5371573 C5.47574195 56.77382517 5.47277826 63.01050416 5.46684265 69.24723816 C5.45306104 79.7159375 5.4218168 90.18446511 5.37719727 100.65307617 C5.3312903 111.43496786 5.29590401 122.21680958 5.2746582 132.9987793 C5.27334459 133.66356569 5.27203097 134.32835209 5.27067754 135.01328353 C5.26415228 138.34837794 5.25784503 141.68347269 5.25161803 145.01856768 C5.1993361 172.67917327 5.1113732 200.3395737 5 228 C1.36598423 226.28877436 -1.12637103 224.20066113 -4.0625 221.4375 C-7.79595956 217.96608181 -11.59216657 214.6408372 -15.5625 211.4375 C-30.19904891 199.60190217 -30.19904891 199.60190217 -32 196 C-32.35519903 192.16385043 -32.54724594 189.85370366 -30.4375 186.5625 C-26.88646952 184.28619841 -25.17149905 184.24776247 -21 185 C-18.65893555 186.59838867 -18.65893555 186.59838867 -16.26171875 188.54296875 C-15.46080811 189.18645264 -14.65989746 189.82993652 -13.8347168 190.49291992 C-13.22926025 190.99025635 -12.62380371 191.48759277 -12 192 C-11.99853344 191.0347855 -11.99706688 190.069571 -11.99555588 189.07510757 C-11.95898729 165.60691122 -11.89957248 142.13885786 -11.81609726 118.67078018 C-11.77626035 107.3218588 -11.74389152 95.97300723 -11.72900391 84.62402344 C-11.71601148 74.73411893 -11.6891086 64.84436773 -11.64538693 54.95454955 C-11.62271784 49.71623892 -11.60709258 44.47811776 -11.60811615 39.23975372 C-11.60885955 34.31162711 -11.59103801 29.38392018 -11.55883217 24.4559021 C-11.55029693 22.64508731 -11.54860768 20.83422563 -11.55419731 19.02339935 C-11.56080448 16.55451325 -11.54299711 14.08697536 -11.51898193 11.6182251 C-11.53062256 10.53845473 -11.53062256 10.53845473 -11.54249835 9.43687081 C-11.4846068 6.08481287 -11.20777123 4.27903172 -9.18240738 1.55901718 C-5.94563956 -0.75318937 -3.87929192 -0.61251978 0 0 Z " fill="#CF9E77" transform="translate(808,684)"/>
<path d="M0 0 C2.81656235 3.49642222 4.91424075 7.32659772 7.0625 11.25 C16.70136002 28.57967245 27.70290297 44.69260788 39.96875 60.2578125 C41.6140784 62.47900585 42.89228649 64.48356387 44 67 C23.88495 80.88036893 -1.90558996 94 -27 94 C-26.42856364 89.61362229 -24.78494504 86.77890516 -22.4375 83.0625 C-8.51000035 59.72752389 -3.54992775 30.78941682 -1.27246094 4.05541992 C-1 2 -1 2 0 0 Z " fill="#5A4A42" transform="translate(460,1057)"/>
<path d="M0 0 C0.66 0.33 1.32 0.66 2 1 C2.49902344 3.05932617 2.49902344 3.05932617 2.859375 5.79296875 C3.00213867 6.80464111 3.14490234 7.81631348 3.29199219 8.85864258 C3.44313477 9.95716553 3.59427734 11.05568848 3.75 12.1875 C7.23780081 35.43120112 13.33530543 58.92089927 26.53125 78.6640625 C28 81 28 81 28 83 C3.73934659 80.78547169 -17.23555413 72.55214091 -38 60 C-38 55.06346511 -36.18801013 53.45780045 -33.125 49.9375 C-27.15278826 42.77765342 -21.90798866 35.19005874 -16.75 27.4375 C-16.37490295 26.87771454 -15.99980591 26.31792908 -15.61334229 25.74118042 C-10.01009448 17.3663201 -4.8999875 8.7989112 0 0 Z " fill="#5A4A42" transform="translate(1100,1068)"/>
</svg>
