<?xml version="1.0" encoding="UTF-8"?>
<svg version="1.1" xmlns="http://www.w3.org/2000/svg" width="2754" height="2754">
<path d="M0 0 C3.10482126 3.05982385 6.11003958 6.1754464 9.04467773 9.40112305 C39.18119542 42.51034202 75.99737408 67.43753618 122 70 C128.24217844 70.16980348 134.48813835 70.11653849 140.73193359 70.09765625 C142.61045765 70.09575862 144.48898223 70.0943259 146.36750698 70.09331703 C150.41444105 70.09021445 154.46135384 70.08399374 158.5082798 70.07533646 C165.01159562 70.06152262 171.51490672 70.05504495 178.01823425 70.0496521 C187.31295164 70.04139654 196.60766189 70.03041155 205.90237427 70.01776123 C230.0143317 69.98571187 254.12630499 69.9792415 278.23828125 69.9765625 C279.42978468 69.97640027 280.6212881 69.97623803 281.8488977 69.97607088 C322.14902326 69.97120743 362.44737218 70.04015608 402.74640656 70.34698486 C406.50473321 70.37457592 410.2630669 70.39873124 414.02142334 70.421875 C436.68865275 70.56545437 459.328083 70.84919383 481.97265625 71.92578125 C482.80180605 71.96480434 483.63095585 72.00382744 484.4852314 72.04403305 C605.24813058 77.88382508 605.24813058 77.88382508 643.375 117.25 C648.99177185 123.92811515 653.44749663 132.41975235 655 141 C655.87922119 140.98952637 656.75844238 140.97905273 657.66430664 140.96826172 C733.83179723 140.18389989 807.89657277 158.9643848 864 213 C864.65935547 213.63212402 865.31871094 214.26424805 865.99804688 214.91552734 C874.94403678 223.53735763 883.35890011 232.26049688 890.72607422 242.27734375 C892.02634022 244.03561835 893.3557982 245.76846071 894.69140625 247.5 C943.4965273 311.45393826 964.59445158 397.1440371 975.75 496.375 C975.80925659 497.05764923 975.86851318 497.74029846 975.92956543 498.44363403 C977.62188206 518.33077028 978.20929819 538.2334767 978.1875 558.1875 C978.18689575 559.22558807 978.1862915 560.26367615 978.18566895 561.33322144 C978.15600935 580.28371407 977.57650033 599.1145908 976 618 C975.94154907 618.70278076 975.88309814 619.40556152 975.82287598 620.12963867 C972.17766744 663.27810718 966.04478614 706.32002092 959.5625 749.125 C959.30261292 750.84133636 959.30261292 750.84133636 959.03747559 752.59234619 C958.55065438 755.79389031 958.05985331 758.99478347 957.56640625 762.1953125 C957.34976067 763.60792358 957.34976067 763.60792358 957.1287384 765.04907227 C956.99416733 765.91218018 956.85959625 766.77528809 956.72094727 767.66455078 C956.54729393 768.78302902 956.54729393 768.78302902 956.37013245 769.92410278 C956.00363253 771.97962684 955.53114593 773.98134262 955 776 C956.03125 776.061875 957.0625 776.12375 958.125 776.1875 C972.30727065 778.02640898 983.05021556 784.78735609 992.15234375 795.5 C1010.50608773 820.33381849 1008.19776815 857.71364879 1004.03125 886.6484375 C997.82232573 926.1071368 985.83763122 963.93186706 969.26074219 1000.23632812 C968.14218752 1002.68831086 967.04118552 1005.14720457 965.9453125 1007.609375 C956.13399355 1029.37225179 943.55247651 1049.87471603 928 1068 C927.05253906 1069.16595703 927.05253906 1069.16595703 926.0859375 1070.35546875 C915.38747413 1083.14519553 901.59266192 1090.93712852 885 1093 C881.375 1093.125 881.375 1093.125 879 1093 C878.83999512 1093.57322998 878.67999023 1094.14645996 878.51513672 1094.73706055 C876.44132613 1101.92413264 873.86839484 1108.8565968 871.125 1115.8125 C870.64740234 1117.02373535 870.16980469 1118.2349707 869.67773438 1119.48291016 C854.68119741 1157.21057718 837.28931563 1195.10786156 811.09375 1226.46875 C804.78895716 1234.09096223 799.51706119 1242.27150352 794.25 1250.625 C784.94396659 1265.37570921 774.95226034 1279.43045612 764 1293 C763.21753906 1293.97710938 762.43507813 1294.95421875 761.62890625 1295.9609375 C757.27516491 1301.34840946 752.76905287 1306.55857448 748.10546875 1311.6796875 C746.27082315 1313.70154184 744.47231214 1315.74678522 742.6875 1317.8125 C733.02964361 1328.85981901 722.82303341 1339.33771872 712.43505859 1349.6953125 C710.23547928 1351.88948502 708.04135993 1354.08901723 705.84765625 1356.2890625 C704.4248 1357.71125856 703.00163391 1359.13314471 701.578125 1360.5546875 C700.93522522 1361.19961151 700.29232544 1361.84453552 699.62994385 1362.50900269 C695.82864994 1366.29101225 691.91897768 1369.89257612 687.85284424 1373.38870239 C684.65357846 1376.17089486 681.58501598 1379.09252441 678.5 1382 C673.4139614 1386.76656537 668.30273137 1391.47422561 663 1396 C661.95548748 1396.8981565 660.91124263 1397.79662434 659.8671875 1398.6953125 C656.84969199 1401.29036709 653.82587898 1403.87793095 650.79931641 1406.46240234 C649.6391774 1407.45379386 648.47992905 1408.44622904 647.32177734 1409.43994141 C641.29220755 1414.61306915 635.19942045 1419.67233661 628.9375 1424.5625 C628.36185303 1425.0167334 627.78620605 1425.4709668 627.19311523 1425.93896484 C624.30008228 1428.21995517 621.38678235 1430.45650201 618.4140625 1432.6328125 C617.29641376 1433.48376955 616.17920669 1434.33530708 615.0625 1435.1875 C613.56396484 1436.29158203 613.56396484 1436.29158203 612.03515625 1437.41796875 C609.63384776 1439.91888541 609.63384776 1439.91888541 609.98828125 1443.56640625 C610.28563142 1445.05281035 610.6277009 1446.53057575 611 1448 C611.21309814 1448.87873779 611.42619629 1449.75747559 611.64575195 1450.6628418 C612.42379337 1453.70722845 613.26382427 1456.72809834 614.125 1459.75 C614.59305054 1461.39947632 614.59305054 1461.39947632 615.07055664 1463.08227539 C626.20388985 1501.7205041 643.4324217 1536.43678893 671 1566 C671.72445313 1566.79019531 672.44890625 1567.58039063 673.1953125 1568.39453125 C684.71365903 1580.4790338 698.51519191 1589.84043562 713 1598 C713.4640625 1596.576875 713.4640625 1596.576875 713.9375 1595.125 C715 1592 715 1592 716 1590 C727.59391231 1591.15340934 739.00658819 1592.68032871 750.4375 1594.9375 C751.1898996 1595.08483582 751.94229919 1595.23217163 752.71749878 1595.38397217 C841.07093787 1612.82421355 926.12889109 1646.03873384 1043.85565186 1695.07012939 C1045.97190275 1695.98781597 1048.08947789 1696.90237299 1050.20751953 1697.81591797 C1064.7485164 1704.0905313 1079.21818427 1710.51237017 1093.6222229 1717.0954895 C1095.11909889 1717.77955609 1096.61630974 1718.46289044 1098.11386108 1719.14547729 C1105.48649944 1722.50664178 1112.8364357 1725.89622281 1120.109375 1729.46875 C1132.73876068 1735.62107433 1144.68819024 1739.7604922 1158.41796875 1742.72265625 C1165.69261247 1744.31470892 1172.26391347 1746.79625153 1179 1750 C1179.65838867 1750.31275879 1180.31677734 1750.62551758 1180.99511719 1750.94775391 C1209.97614187 1764.93742649 1235.37438563 1787.69046453 1255 1813 C1255.97126607 1814.17518769 1256.94687177 1815.34679647 1257.92578125 1816.515625 C1298.94164914 1865.66475661 1327.83523671 1925.50075066 1353 1984 C1353.31775391 1984.73734375 1353.63550781 1985.4746875 1353.96289062 1986.234375 C1363.75806134 2008.98961822 1372.73456284 2032.01609054 1381.25390625 2055.27783203 C1382.48080475 2058.61937272 1383.74452922 2061.94467338 1385.02734375 2065.26513672 C1385.35726318 2066.1298912 1385.68718262 2066.99464569 1386.02709961 2067.88560486 C1386.66109146 2069.54600526 1387.30343909 2071.20324668 1387.95532227 2072.85670471 C1388.37962524 2073.97648964 1388.37962524 2073.97648964 1388.8125 2075.11889648 C1389.06644531 2075.77341293 1389.32039063 2076.42792938 1389.58203125 2077.10227966 C1390.08920113 2079.40500347 1389.77245006 2080.79046358 1389 2083 C1387.82006836 2084.53637695 1387.82006836 2084.53637695 1386.33984375 2085.98828125 C1385.79263672 2086.53033203 1385.24542969 2087.07238281 1384.68164062 2087.63085938 C1384.10607422 2088.18580078 1383.53050781 2088.74074219 1382.9375 2089.3125 C1382.11475586 2090.12750977 1382.11475586 2090.12750977 1381.27539062 2090.95898438 C1377.64814551 2094.51898045 1373.87716103 2097.87986889 1370.03735352 2101.20776367 C1366.6124157 2104.22064186 1363.31126483 2107.36335265 1360 2110.5 C1355.3459372 2114.90863371 1350.64082385 2119.23010841 1345.79931641 2123.43261719 C1343.56412587 2125.37968954 1341.37529997 2127.37494469 1339.1875 2129.375 C1334.92175991 2133.22583528 1330.52206078 2136.86733824 1326.0546875 2140.48046875 C1322.45960005 2143.4457263 1318.94780066 2146.49784041 1315.4375 2149.5625 C1309.73799894 2154.5292385 1303.94052802 2159.32304072 1298 2164 C1296.83628359 2164.93240184 1295.67360103 2165.86609486 1294.51171875 2166.80078125 C1287.05938991 2172.79487791 1279.55600943 2178.71321078 1271.94970703 2184.51123047 C1269.68051371 2186.24395535 1267.4165806 2187.98345983 1265.15234375 2189.72265625 C1201.91859663 2238.21047199 1134.1566617 2280.50184347 1063.44921875 2317.1640625 C1060.00362407 2318.95192245 1056.56814804 2320.75635218 1053.14453125 2322.5859375 C972.57280775 2365.62220573 884.36394718 2398.10742901 765 2430 C764.21208069 2430.19789124 763.42416138 2430.39578247 762.61236572 2430.59967041 C688.64296676 2449.16303124 612.95141048 2461.09217035 536.91235352 2466.77996826 C534.01714084 2466.99870499 531.12285375 2467.22752979 528.22851562 2467.45751953 C496.59354003 2469.92304134 464.99974214 2470.28931807 433.28494644 2470.31007385 C430.18347793 2470.3124551 427.08202446 2470.31776678 423.9805603 2470.32336426 C388.46775001 2470.37027551 353.07968564 2469.21414847 317.6875 2466.1875 C316.68303833 2466.10318726 315.67857666 2466.01887451 314.64367676 2465.93200684 C215.2616676 2457.5514148 116.52149889 2439.09325751 -21.94366455 2394.70196533 C-23.91185379 2394.03009022 -25.88128375 2393.3619878 -27.85107422 2392.69482422 C-74.98936814 2376.65923707 -120.75389427 2356.75679383 -165.671875 2335.3515625 C-166.30838989 2335.04856232 -166.94490479 2334.74556213 -167.60070801 2334.43338013 C-170.74854904 2332.93020042 -173.88502227 2331.40864992 -177.00390625 2329.84619141 C-184.33404704 2326.17435853 -184.33404704 2326.17435853 -192.015625 2323.359375 C-196.10500472 2322.00594706 -199.63306937 2320.77005794 -202 2317 C-205.6699855 2305.5234888 -206.08440439 2292.95792057 -206 2281 C-206.66 2281 -207.32 2281 -208 2281 C-208.11214844 2282.26714844 -208.22429687 2283.53429688 -208.33984375 2284.83984375 C-208.93716805 2290.21576247 -210.19406382 2295.33791032 -211.5625 2300.5625 C-211.79646484 2301.47580078 -212.03042969 2302.38910156 -212.27148438 2303.33007812 C-212.84223625 2305.55484564 -213.41847478 2307.77802897 -214 2310 C-218.28971011 2308.68640837 -222.05475796 2307.03247164 -225.98046875 2304.8671875 C-227.1310376 2304.23393555 -228.28160645 2303.60068359 -229.46704102 2302.94824219 C-230.70744404 2302.25761033 -231.94759059 2301.56651767 -233.1875 2300.875 C-233.82227264 2300.52296509 -234.45704529 2300.17093018 -235.11105347 2299.80822754 C-247.88309471 2292.72294937 -260.45980114 2285.3314352 -272.97998047 2277.81054688 C-275.73218197 2276.16056091 -278.49108423 2274.5227434 -281.25390625 2272.890625 C-337.08800195 2239.82012825 -389.96971933 2201.50423703 -440.19580078 2160.47216797 C-441.78273046 2159.17728489 -443.37348737 2157.88709522 -444.96484375 2156.59765625 C-451.81473779 2151.03526065 -458.51405482 2145.30854505 -465.19726562 2139.54833984 C-466.97485913 2138.02159309 -468.75952015 2136.50358292 -470.546875 2134.98828125 C-476.95463465 2129.54741231 -483.25081731 2124.01823787 -489.38696289 2118.27148438 C-492.16957791 2115.66831888 -494.99013651 2113.12376945 -497.8671875 2110.625 C-502.08723877 2106.95042832 -506.17732733 2103.14901959 -510.25 2099.3125 C-510.94351562 2098.66216797 -511.63703125 2098.01183594 -512.3515625 2097.34179688 C-513.67334363 2096.0997784 -514.98706805 2094.84910726 -516.29101562 2093.58837891 C-518.07899354 2091.86258404 -518.07899354 2091.86258404 -520.609375 2090.10546875 C-522 2088 -522 2088 -521.640625 2084.25 C-519.60833799 2076.974057 -516.59710354 2069.98668397 -513.75 2063 C-513.12017851 2061.44229396 -512.49054316 2059.88451264 -511.86108398 2058.32666016 C-489.72354319 2003.69044152 -465.79409632 1949.23262858 -435.51806641 1898.56152344 C-434.188057 1896.31731973 -432.88765124 1894.06079725 -431.60546875 1891.7890625 C-412.9634049 1858.92198337 -390.26332157 1827.18722898 -364 1800 C-363.29182129 1799.26458984 -362.58364258 1798.52917969 -361.85400391 1797.77148438 C-352.6209749 1788.23139584 -343.39192788 1779.00457818 -332.62988281 1771.19433594 C-331.00713868 1770.00523104 -329.42112483 1768.77764309 -327.8359375 1767.5390625 C-314.40579974 1757.24999123 -298.94317809 1749.57303245 -283.09692383 1743.7746582 C-276.34149091 1741.25456939 -269.91164507 1738.16574244 -263.4375 1735 C-249.86860683 1728.36917802 -236.1528106 1722.10751636 -222.38795471 1715.89611816 C-217.52784636 1713.6998612 -212.68235831 1711.47364845 -207.84375 1709.23046875 C-182.78681609 1697.62924125 -157.43725171 1686.73836557 -132 1676 C-131.02059448 1675.58602966 -130.04118896 1675.17205933 -129.03210449 1674.74554443 C-86.01578115 1656.57424905 -42.48029844 1639.73376612 1.75610352 1624.7598877 C3.93920772 1624.02058709 6.12101504 1623.27755533 8.30273438 1622.53417969 C29.75862618 1615.24612891 51.49096169 1609.10503565 73.375 1603.23828125 C74.21911438 1603.01075668 75.06322876 1602.78323212 75.93292236 1602.54881287 C81.76270097 1601 81.76270097 1601 84 1601 C84.99 1603.97 85.98 1606.94 87 1610 C95.09183834 1606.3645364 101.40227476 1601.9120066 108 1596 C108.8971875 1595.19820312 109.794375 1594.39640625 110.71875 1593.5703125 C129.49582133 1575.8184261 140.7504664 1552.12002361 149 1528 C149.30534668 1527.10861328 149.61069336 1526.21722656 149.92529297 1525.29882812 C157.48208213 1502.81808641 161.88432855 1479.47685766 165 1456 C164.45214844 1455.74476562 163.90429688 1455.48953125 163.33984375 1455.2265625 C150.2790469 1448.38000121 138.61683998 1437.97171806 127 1429 C126.30632324 1428.4652002 125.61264648 1427.93040039 124.89794922 1427.37939453 C117.46311206 1421.63576809 110.21362613 1415.71191284 103.07421875 1409.60546875 C100.30300845 1407.24135813 97.47072811 1404.96156042 94.625 1402.6875 C89.35173913 1398.402493 84.40618061 1393.80695987 79.47705078 1389.13549805 C76.4826349 1386.29977241 73.46478703 1383.52567276 70.328125 1380.84765625 C65.01026901 1376.22645419 60.06921079 1371.21867503 55.09985352 1366.23022461 C53.4407268 1364.56573723 51.77631949 1362.90666553 50.11132812 1361.24804688 C44.53049652 1355.67101924 39.09972616 1350.02526017 34 1344 C33.03953674 1342.90468982 32.07734452 1341.81089289 31.11328125 1340.71875 C11.30732221 1318.04995183 -4.08853953 1292.84288549 -18.48828125 1266.46875 C-21.57333807 1260.83963491 -24.51732321 1255.89023901 -29.3046875 1251.54296875 C-32.49667439 1248.63781939 -35.1927802 1245.27065078 -38 1242 C-38.88354655 1240.99168947 -39.76770766 1239.98391726 -40.65234375 1238.9765625 C-59.45869599 1217.45475339 -75.33150142 1194.0883818 -89 1169 C-89.49741699 1168.09024414 -89.99483398 1167.18048828 -90.50732422 1166.24316406 C-101.13416679 1146.68267325 -109.94883784 1126.43468887 -118.125 1105.75 C-118.83571655 1103.95526245 -118.83571655 1103.95526245 -119.56079102 1102.12426758 C-119.99705811 1101.00560303 -120.4333252 1099.88693848 -120.8828125 1098.734375 C-121.26840332 1097.74663086 -121.65399414 1096.75888672 -122.05126953 1095.74121094 C-122.94325241 1093.16396344 -123.53914124 1090.68436456 -124 1088 C-124.63164063 1087.93683594 -125.26328125 1087.87367187 -125.9140625 1087.80859375 C-140.63909341 1085.79291949 -150.94326664 1078.32216034 -161 1068 C-161.69351562 1067.30390625 -162.38703125 1066.6078125 -163.1015625 1065.890625 C-178.94223507 1049.07213314 -190.16470035 1027.58821016 -200.07763672 1006.90966797 C-200.99292021 1005.01465806 -201.93366839 1003.13412358 -202.87890625 1001.25390625 C-221.01615173 964.62884798 -233.26027871 923.38009917 -239 883 C-239.11714355 882.17693359 -239.23428711 881.35386719 -239.35498047 880.50585938 C-243.51243026 849.79138634 -244.18128764 813.61671686 -224.6875 787.625 C-216.45854925 779.5874202 -207.35928781 774.53858979 -196 773 C-196.17885742 772.10168457 -196.35771484 771.20336914 -196.54199219 770.27783203 C-198.8194696 758.52657894 -200.59630054 746.72867382 -202.25 734.875 C-202.39829254 733.81542084 -202.54658508 732.75584167 -202.69937134 731.66415405 C-208.74315962 688.23266957 -213.59350463 644.58911529 -216.78710938 600.85333252 C-216.9988261 598.0157336 -217.2241649 595.17951716 -217.453125 592.34326172 C-219.88707085 561.82647937 -220.31452545 531.34778869 -220.36836243 500.74976349 C-220.37487485 497.74524029 -220.38631826 494.74077077 -220.39880371 491.73626709 C-220.70317929 407.31806 -211.4814029 333.38172267 -156 267 C-155.27031006 266.12166504 -155.27031006 266.12166504 -154.52587891 265.22558594 C-142.43997217 250.71595831 -129.61229533 236.3264075 -115.27734375 224 C-113.10243029 222.08995593 -110.98538414 220.12665757 -108.87304688 218.14794922 C-102.48649722 212.18814098 -95.8026285 206.74479668 -88.8671875 201.43896484 C-86.99119458 199.99321402 -85.13514655 198.52472556 -83.28125 197.05078125 C-59.47531991 178.2815812 -33.18740785 161.43364508 -6 148 C-6.81357951 141.70546377 -13.32741322 137.75111034 -18 134 C-23.88444377 129.50777038 -29.94773313 125.26144074 -36 121 C-38.46112382 119.25390379 -40.91865156 117.50280599 -43.375 115.75 C-43.93904541 115.34797363 -44.50309082 114.94594727 -45.08422852 114.53173828 C-71.6321703 95.56283692 -71.6321703 95.56283692 -75 90 C-75 88.68 -75 87.36 -75 86 C-64.96416137 86.45202418 -55.34009852 88.08119969 -45.49130249 89.9538269 C-12.38503584 98.0332182 -12.38503584 98.0332182 19.6875 92.4375 C23.41321355 85.5183177 18.36584018 73.79338976 16.54296875 66.61328125 C16.19480764 65.22489989 15.84710432 63.83640366 15.49983215 62.44779968 C14.77294552 59.54639099 14.04220726 56.64599109 13.30834961 53.74633789 C12.37834489 50.07135677 11.45542252 46.39464671 10.53513622 42.71722126 C9.81724535 39.85013947 9.09678765 36.9837077 8.37548256 34.11748314 C8.03500917 32.76433255 7.69499386 31.4110666 7.35548973 30.0576725 C5.3125869 21.92555285 3.13451314 13.86129899 0.73945618 5.82633972 C0 3 0 3 0 0 Z " fill="#F7BA8D" transform="translate(946,284)"/>
<path d="M0 0 C11.59391231 1.15340934 23.00658819 2.68032871 34.4375 4.9375 C35.1898996 5.08483582 35.94229919 5.23217163 36.71749878 5.38397217 C125.07093787 22.82421355 210.12889109 56.03873384 327.85565186 105.07012939 C329.97190275 105.98781597 332.08947789 106.90237299 334.20751953 107.81591797 C348.7485164 114.0905313 363.21818427 120.51237017 377.6222229 127.0954895 C379.11909889 127.77955609 380.61630974 128.46289044 382.11386108 129.14547729 C389.48649944 132.50664178 396.8364357 135.89622281 404.109375 139.46875 C416.73876068 145.62107433 428.68819024 149.7604922 442.41796875 152.72265625 C449.69261247 154.31470892 456.26391347 156.79625153 463 160 C463.65838867 160.31275879 464.31677734 160.62551758 464.99511719 160.94775391 C493.97614187 174.93742649 519.37438563 197.69046453 539 223 C539.97126607 224.17518769 540.94687177 225.34679647 541.92578125 226.515625 C582.94164914 275.66475661 611.83523671 335.50075066 637 394 C637.31775391 394.73734375 637.63550781 395.4746875 637.96289062 396.234375 C647.75806134 418.98961822 656.73456284 442.01609054 665.25390625 465.27783203 C666.48080475 468.61937272 667.74452922 471.94467338 669.02734375 475.26513672 C669.35726318 476.1298912 669.68718262 476.99464569 670.02709961 477.88560486 C670.66109146 479.54600526 671.30343909 481.20324668 671.95532227 482.85670471 C672.37962524 483.97648964 672.37962524 483.97648964 672.8125 485.11889648 C673.06644531 485.77341293 673.32039063 486.42792938 673.58203125 487.10227966 C674.08920113 489.40500347 673.77245006 490.79046358 673 493 C671.82006836 494.53637695 671.82006836 494.53637695 670.33984375 495.98828125 C669.79263672 496.53033203 669.24542969 497.07238281 668.68164062 497.63085938 C668.10607422 498.18580078 667.53050781 498.74074219 666.9375 499.3125 C666.38900391 499.85583984 665.84050781 500.39917969 665.27539062 500.95898438 C661.64814551 504.51898045 657.87716103 507.87986889 654.03735352 511.20776367 C650.6124157 514.22064186 647.31126483 517.36335265 644 520.5 C639.3459372 524.90863371 634.64082385 529.23010841 629.79931641 533.43261719 C627.56412587 535.37968954 625.37529997 537.37494469 623.1875 539.375 C618.92175991 543.22583528 614.52206078 546.86733824 610.0546875 550.48046875 C606.45960005 553.4457263 602.94780066 556.49784041 599.4375 559.5625 C593.73799894 564.5292385 587.94052802 569.32304072 582 574 C580.83628359 574.93240184 579.67360103 575.86609486 578.51171875 576.80078125 C571.05938991 582.79487791 563.55600943 588.71321078 555.94970703 594.51123047 C553.68051371 596.24395535 551.4165806 597.98345983 549.15234375 599.72265625 C485.91859663 648.21047199 418.1566617 690.50184347 347.44921875 727.1640625 C344.00362407 728.95192245 340.56814804 730.75635218 337.14453125 732.5859375 C256.57280775 775.62220573 168.36394718 808.10742901 49 840 C48.21208069 840.19789124 47.42416138 840.39578247 46.61236572 840.59967041 C-27.35703324 859.16303124 -103.04858952 871.09217035 -179.08764648 876.77996826 C-181.98285916 876.99870499 -184.87714625 877.22752979 -187.77148438 877.45751953 C-219.40645997 879.92304134 -251.00025786 880.28931807 -282.71505356 880.31007385 C-285.81652207 880.3124551 -288.91797554 880.31776678 -292.0194397 880.32336426 C-327.53224999 880.37027551 -362.92031436 879.21414847 -398.3125 876.1875 C-399.31696167 876.10318726 -400.32142334 876.01887451 -401.35632324 875.93200684 C-500.7383324 867.5514148 -599.47850111 849.09325751 -737.94366455 804.70196533 C-739.91185379 804.03009022 -741.88128375 803.3619878 -743.85107422 802.69482422 C-790.98936814 786.65923707 -836.75389427 766.75679383 -881.671875 745.3515625 C-882.62664734 744.89706223 -882.62664734 744.89706223 -883.60070801 744.43338013 C-886.74854904 742.93020042 -889.88502227 741.40864992 -893.00390625 739.84619141 C-900.33404704 736.17435853 -900.33404704 736.17435853 -908.015625 733.359375 C-912.10500472 732.00594706 -915.63306937 730.77005794 -918 727 C-921.6699855 715.5234888 -922.08440439 702.95792057 -922 691 C-922.66 691 -923.32 691 -924 691 C-924.11214844 692.26714844 -924.22429687 693.53429688 -924.33984375 694.83984375 C-924.93716805 700.21576247 -926.19406382 705.33791032 -927.5625 710.5625 C-927.79646484 711.47580078 -928.03042969 712.38910156 -928.27148438 713.33007812 C-928.84223625 715.55484564 -929.41847478 717.77802897 -930 720 C-934.28971011 718.68640837 -938.05475796 717.03247164 -941.98046875 714.8671875 C-943.1310376 714.23393555 -944.28160645 713.60068359 -945.46704102 712.94824219 C-946.70744404 712.25761033 -947.94759059 711.56651767 -949.1875 710.875 C-950.13965897 710.34694763 -950.13965897 710.34694763 -951.11105347 709.80822754 C-963.88309471 702.72294937 -976.45980114 695.3314352 -988.97998047 687.81054688 C-991.73218197 686.16056091 -994.49108423 684.5227434 -997.25390625 682.890625 C-1053.08800195 649.82012825 -1105.96971933 611.50423703 -1156.19580078 570.47216797 C-1157.78273046 569.17728489 -1159.37348737 567.88709522 -1160.96484375 566.59765625 C-1167.81473779 561.03526065 -1174.51405482 555.30854505 -1181.19726562 549.54833984 C-1182.97485913 548.02159309 -1184.75952015 546.50358292 -1186.546875 544.98828125 C-1192.95463465 539.54741231 -1199.25081731 534.01823787 -1205.38696289 528.27148438 C-1208.16957791 525.66831888 -1210.99013651 523.12376945 -1213.8671875 520.625 C-1218.08723877 516.95042832 -1222.17732733 513.14901959 -1226.25 509.3125 C-1227.29027344 508.33700195 -1227.29027344 508.33700195 -1228.3515625 507.34179688 C-1229.67334363 506.0997784 -1230.98706805 504.84910726 -1232.29101562 503.58837891 C-1234.07899354 501.86258404 -1234.07899354 501.86258404 -1236.609375 500.10546875 C-1238 498 -1238 498 -1237.640625 494.25 C-1235.60833799 486.974057 -1232.59710354 479.98668397 -1229.75 473 C-1229.12017851 471.44229396 -1228.49054316 469.88451264 -1227.86108398 468.32666016 C-1205.72354319 413.69044152 -1181.79409632 359.23262858 -1151.51806641 308.56152344 C-1150.188057 306.31731973 -1148.88765124 304.06079725 -1147.60546875 301.7890625 C-1128.9634049 268.92198337 -1106.26332157 237.18722898 -1080 210 C-1079.29182129 209.26458984 -1078.58364258 208.52917969 -1077.85400391 207.77148438 C-1068.6209749 198.23139584 -1059.39192788 189.00457818 -1048.62988281 181.19433594 C-1047.00713868 180.00523104 -1045.42112483 178.77764309 -1043.8359375 177.5390625 C-1030.40579974 167.24999123 -1014.94317809 159.57303245 -999.09692383 153.7746582 C-992.34149091 151.25456939 -985.91164507 148.16574244 -979.4375 145 C-965.86860683 138.36917802 -952.1528106 132.10751636 -938.38795471 125.89611816 C-933.52784636 123.6998612 -928.68235831 121.47364845 -923.84375 119.23046875 C-898.78681609 107.62924125 -873.43725171 96.73836557 -848 86 C-846.53089172 85.37904449 -846.53089172 85.37904449 -845.03210449 84.74554443 C-802.01578115 66.57424905 -758.48029844 49.73376612 -714.24389648 34.7598877 C-712.06079228 34.02058709 -709.87898496 33.27755533 -707.69726562 32.53417969 C-686.24137382 25.24612891 -664.50903831 19.10503565 -642.625 13.23828125 C-641.78088562 13.01075668 -640.93677124 12.78323212 -640.06707764 12.54881287 C-634.23729903 11 -634.23729903 11 -632 11 C-631.19949219 12.80017578 -631.19949219 12.80017578 -630.3828125 14.63671875 C-621.85609106 33.74285496 -612.97567918 52.60379786 -603 71 C-602.43039551 72.05155273 -601.86079102 73.10310547 -601.27392578 74.18652344 C-591.22637322 92.68118006 -580.80273073 110.93625926 -570 129 C-569.35627441 130.07781738 -568.71254883 131.15563477 -568.04931641 132.26611328 C-557.79739584 149.35615158 -546.84505102 165.94013381 -535.71916199 182.46800232 C-532.762123 186.86089945 -529.82756333 191.26798292 -526.9074707 195.68554688 C-520.13148407 205.92533795 -513.10419772 215.98579427 -506 226 C-505.46262207 226.75780762 -504.92524414 227.51561523 -504.37158203 228.29638672 C-496.07539021 239.96314585 -487.44572295 251.35998098 -478.73876953 262.72216797 C-476.53323088 265.61147934 -474.35786318 268.52168113 -472.1875 271.4375 C-467.69259777 277.4506045 -463.04915579 283.34176528 -458.39404297 289.23095703 C-457.03926487 290.95017281 -455.69210791 292.6750449 -454.34765625 294.40234375 C-447.57355232 303.09461233 -440.59813181 311.60971923 -433.5703125 320.09765625 C-431.4912598 322.61630964 -429.43331871 325.15188999 -427.375 327.6875 C-422.5378886 333.6064792 -417.5513199 339.3939761 -412.56152344 345.18408203 C-410.9974147 347.00300648 -409.43918924 348.82680079 -407.8828125 350.65234375 C-402.66875232 356.7648393 -397.41045643 362.82222576 -392.01171875 368.7734375 C-390.15265331 370.83104391 -388.32071642 372.90846763 -386.5 375 C-383.14381544 378.85110578 -379.73125807 382.64934814 -376.30859375 386.44140625 C-374.8188072 388.09252333 -373.33163123 389.74600144 -371.84765625 391.40234375 C-363.72565598 400.46432235 -355.60098904 409.52654504 -346.9140625 418.05322266 C-345.14091134 419.85668022 -343.49646304 421.71018262 -341.859375 423.63671875 C-337.64815248 428.48256271 -333.12405006 432.98623411 -328.5625 437.5 C-327.73556641 438.32242188 -326.90863281 439.14484375 -326.05664062 439.9921875 C-324.04005041 441.99712113 -322.02114764 443.99966253 -320 446 C-316.56419242 444.75988936 -313.97070551 443.40902077 -311.1796875 441.05859375 C-310.48520508 440.47964355 -309.79072266 439.90069336 -309.07519531 439.30419922 C-308.34913086 438.68818848 -307.62306641 438.07217773 -306.875 437.4375 C-305.34656643 436.15729862 -303.8179208 434.87735038 -302.2890625 433.59765625 C-301.18159668 432.66590576 -301.18159668 432.66590576 -300.05175781 431.71533203 C-297.48012124 429.56536552 -294.86625369 427.47031822 -292.25 425.375 C-286.95672827 421.05659263 -281.97696393 416.43134353 -276.98828125 411.76953125 C-274.70606416 409.64083608 -272.38013449 407.58185621 -270 405.5625 C-265.70346888 401.85765219 -261.76991358 397.79836834 -257.78613281 393.76464844 C-254.86586298 390.82056744 -251.92488324 387.98575169 -248.75 385.3125 C-244.96435088 382.09469825 -241.76996824 378.47187566 -238.4921875 374.74609375 C-235.71406006 371.68492825 -232.81718336 368.77699833 -229.875 365.875 C-226.03514614 362.07810954 -222.33235231 358.22679724 -218.83203125 354.11328125 C-216.95112991 351.94362747 -215.01087137 349.8354694 -213.05737305 347.73120117 C-208.3173889 342.62281191 -203.80807709 337.40075296 -199.4375 331.96875 C-196.57073197 328.47717355 -193.60206682 325.08490453 -190.625 321.6875 C-185.01349717 315.25766991 -179.68240112 308.65816691 -174.47167969 301.90136719 C-172.8889101 299.85647509 -171.29320476 297.8221568 -169.6953125 295.7890625 C-161.83556883 285.7715905 -154.19099771 275.61318519 -146.69384766 265.32177734 C-145.06658838 263.09127349 -143.43056524 260.86745137 -141.79296875 258.64453125 C-132.78883194 246.36603669 -124.36535527 233.71945412 -116 221 C-115.14921875 219.71222656 -115.14921875 219.71222656 -114.28125 218.3984375 C-95.34055266 189.71420835 -77.83370966 160.15900288 -61.55859375 129.88623047 C-59.92755089 126.8658375 -58.27718751 123.85652948 -56.625 120.84765625 C-40.66524628 91.62265268 -26.15294412 61.58859657 -13 31 C-12.13953284 29.01423194 -11.27885857 27.02855361 -10.41796875 25.04296875 C-6.83067748 16.73823072 -3.32898663 8.41211017 0 0 Z " fill="#C41A1D" transform="translate(1662,1874)"/>
<path d="M0 0 C3.10482126 3.05982385 6.11003958 6.1754464 9.04467773 9.40112305 C39.18119542 42.51034202 75.99737408 67.43753618 122 70 C128.24217844 70.16980348 134.48813835 70.11653849 140.73193359 70.09765625 C142.61045765 70.09575862 144.48898223 70.0943259 146.36750698 70.09331703 C150.41444105 70.09021445 154.46135384 70.08399374 158.5082798 70.07533646 C165.01159562 70.06152262 171.51490672 70.05504495 178.01823425 70.0496521 C187.31295164 70.04139654 196.60766189 70.03041155 205.90237427 70.01776123 C230.0143317 69.98571187 254.12630499 69.9792415 278.23828125 69.9765625 C279.42978468 69.97640027 280.6212881 69.97623803 281.8488977 69.97607088 C322.14902326 69.97120743 362.44737218 70.04015608 402.74640656 70.34698486 C406.50473321 70.37457592 410.2630669 70.39873124 414.02142334 70.421875 C436.68865275 70.56545437 459.328083 70.84919383 481.97265625 71.92578125 C482.80180605 71.96480434 483.63095585 72.00382744 484.4852314 72.04403305 C605.24813058 77.88382508 605.24813058 77.88382508 643.375 117.25 C648.99177185 123.92811515 653.44749663 132.41975235 655 141 C655.87922119 140.98952637 656.75844238 140.97905273 657.66430664 140.96826172 C733.83179723 140.18389989 807.89657277 158.9643848 864 213 C864.65935547 213.63212402 865.31871094 214.26424805 865.99804688 214.91552734 C874.94403678 223.53735763 883.35890011 232.26049688 890.72607422 242.27734375 C892.02634022 244.03561835 893.3557982 245.76846071 894.69140625 247.5 C943.4965273 311.45393826 964.59445158 397.1440371 975.75 496.375 C975.80925659 497.05764923 975.86851318 497.74029846 975.92956543 498.44363403 C977.62188206 518.33077028 978.20929819 538.2334767 978.1875 558.1875 C978.18689575 559.22558807 978.1862915 560.26367615 978.18566895 561.33322144 C978.15600935 580.28371407 977.57650033 599.1145908 976 618 C975.94154907 618.70278076 975.88309814 619.40556152 975.82287598 620.12963867 C972.17766744 663.27810718 966.04478614 706.32002092 959.5625 749.125 C959.30261292 750.84133636 959.30261292 750.84133636 959.03747559 752.59234619 C958.55065438 755.79389031 958.05985331 758.99478347 957.56640625 762.1953125 C957.34976067 763.60792358 957.34976067 763.60792358 957.1287384 765.04907227 C956.99416733 765.91218018 956.85959625 766.77528809 956.72094727 767.66455078 C956.54729393 768.78302902 956.54729393 768.78302902 956.37013245 769.92410278 C956.00363253 771.97962684 955.53114593 773.98134262 955 776 C953.22302734 775.75443359 953.22302734 775.75443359 951.41015625 775.50390625 C944.76308315 774.76534257 938.11670119 774.89308587 931.4375 774.9375 C930.14263672 774.94201172 928.84777344 774.94652344 927.51367188 774.95117188 C924.342399 774.96287399 921.17122454 774.97926887 918 775 C917.78234985 776.01646606 917.78234985 776.01646606 917.56030273 777.0534668 C914.48617665 791.25767775 910.95025897 805.0282027 906.13671875 818.73632812 C894.29837213 852.72580785 884.65106591 886.5154567 879.46484375 922.20703125 C879.3403334 923.04536499 879.21582306 923.88369873 879.08753967 924.74743652 C878.48648081 928.80043389 877.91352022 932.85336944 877.39282227 936.91748047 C876.21269526 945.45543876 874.68508903 951.15988155 868 957 C866.53729175 958.49319522 865.08184725 959.99353205 863.6328125 961.5 C862.13281704 963.0026087 860.63019033 964.50259513 859.125 966 C858.35414062 966.77472656 857.58328125 967.54945313 856.7890625 968.34765625 C856.056875 969.07855469 855.3246875 969.80945312 854.5703125 970.5625 C853.90789551 971.22378906 853.24547852 971.88507812 852.56298828 972.56640625 C851 974 851 974 850 974 C849.98969254 973.07786209 849.97938507 972.15572418 849.96876526 971.2056427 C848.99134339 879.12175685 848.99134339 879.12175685 846.12890625 787.08117676 C846.00459606 784.10985725 845.88292502 781.1384397 845.76171875 778.16699219 C844.39686619 727.50344668 844.39686619 727.50344668 832.0456543 678.77905273 C828.18751144 668.83770859 824.92036601 658.73159703 821.65823364 648.58206177 C812.32372653 619.54616606 802.46598177 590.87034028 790 563 C789.58540527 562.07300293 789.17081055 561.14600586 788.74365234 560.19091797 C770.86792478 520.63475983 745.53184604 481.8192242 710 456 C709.42588379 455.58153809 708.85176758 455.16307617 708.26025391 454.73193359 C681.17888174 435.26221218 650.4125492 424.20867561 617.42675781 420.40869141 C614.33690296 420.04018065 611.28268559 419.5669806 608.2109375 419.07421875 C603.62599495 418.49875589 599.28926806 417.99186864 595 420 C590.42155364 424.20311944 587.95423952 429.97879785 585.29345703 435.48974609 C583.22529597 439.50349317 580.64806835 443.10243011 578 446.75 C577.49799072 447.45157227 576.99598145 448.15314453 576.47875977 448.87597656 C556.49552135 476.62311504 533.0591365 502.99452476 506 524 C505.41379883 524.4640625 504.82759766 524.928125 504.22363281 525.40625 C480.50446672 544.18043094 454.95140323 559.38320408 428 573 C426.81398193 573.60110596 426.81398193 573.60110596 425.60400391 574.21435547 C345.46967832 614.46487202 254.61383909 628.00333855 166.96498585 641.48161602 C96.09132302 651.71704249 96.09132302 651.71704249 27 670 C26.09185547 670.29841797 25.18371094 670.59683594 24.24804688 670.90429688 C10.89771384 675.31709039 -1.52592891 680.80064005 -13.76025391 687.74072266 C-15.72113294 688.84320948 -17.70074039 689.88615476 -19.69921875 690.91796875 C-28.86470717 696.12746217 -32.25177243 703.5445747 -36 713 C-36.38414062 713.94359375 -36.76828125 714.8871875 -37.1640625 715.859375 C-38.26209584 718.87673492 -39.14484702 721.90434622 -40 725 C-40.30405762 726.06951904 -40.30405762 726.06951904 -40.61425781 727.16064453 C-50.01091662 760.66088906 -54.91961259 795.62634888 -60 830 C-60.13621765 830.9182959 -60.2724353 831.8365918 -60.41278076 832.78271484 C-65.34665475 866.10913109 -69.38840948 899.50593688 -73 933 C-80.5619839 936.23178608 -88.14523763 939.24518291 -95.9375 941.875 C-97.29584961 942.35453125 -97.29584961 942.35453125 -98.68164062 942.84375 C-99.99745117 943.28847656 -99.99745117 943.28847656 -101.33984375 943.7421875 C-102.11706787 944.0088623 -102.89429199 944.27553711 -103.69506836 944.55029297 C-106.40620563 945.07925334 -108.34819283 944.69468144 -111 944 C-111.12004395 943.19820312 -111.24008789 942.39640625 -111.36376953 941.5703125 C-117.33622291 901.92625698 -124.53155774 862.92252526 -137.046875 824.74609375 C-142.8210243 807.08510519 -147.91494851 789.51650208 -150 771 C-165.20215648 767.96934501 -180.93611791 770.30773171 -196 773 C-198.51896717 760.34843063 -200.46790683 747.64899652 -202.25 734.875 C-202.39829254 733.81542084 -202.54658508 732.75584167 -202.69937134 731.66415405 C-208.74315962 688.23266957 -213.59350463 644.58911529 -216.78710938 600.85333252 C-216.9988261 598.0157336 -217.2241649 595.17951716 -217.453125 592.34326172 C-219.88707085 561.82647937 -220.31452545 531.34778869 -220.36836243 500.74976349 C-220.37487485 497.74524029 -220.38631826 494.74077077 -220.39880371 491.73626709 C-220.70317929 407.31806 -211.4814029 333.38172267 -156 267 C-155.27031006 266.12166504 -155.27031006 266.12166504 -154.52587891 265.22558594 C-142.43997217 250.71595831 -129.61229533 236.3264075 -115.27734375 224 C-113.10243029 222.08995593 -110.98538414 220.12665757 -108.87304688 218.14794922 C-102.48649722 212.18814098 -95.8026285 206.74479668 -88.8671875 201.43896484 C-86.99119458 199.99321402 -85.13514655 198.52472556 -83.28125 197.05078125 C-59.47531991 178.2815812 -33.18740785 161.43364508 -6 148 C-6.81357951 141.70546377 -13.32741322 137.75111034 -18 134 C-23.88444377 129.50777038 -29.94773313 125.26144074 -36 121 C-38.46112382 119.25390379 -40.91865156 117.50280599 -43.375 115.75 C-43.93904541 115.34797363 -44.50309082 114.94594727 -45.08422852 114.53173828 C-71.6321703 95.56283692 -71.6321703 95.56283692 -75 90 C-75 88.68 -75 87.36 -75 86 C-64.96416137 86.45202418 -55.34009852 88.08119969 -45.49130249 89.9538269 C-12.38503584 98.0332182 -12.38503584 98.0332182 19.6875 92.4375 C23.41321355 85.5183177 18.36584018 73.79338976 16.54296875 66.61328125 C16.19480764 65.22489989 15.84710432 63.83640366 15.49983215 62.44779968 C14.77294552 59.54639099 14.04220726 56.64599109 13.30834961 53.74633789 C12.37834489 50.07135677 11.45542252 46.39464671 10.53513622 42.71722126 C9.81724535 39.85013947 9.09678765 36.9837077 8.37548256 34.11748314 C8.03500917 32.76433255 7.69499386 31.4110666 7.35548973 30.0576725 C5.3125869 21.92555285 3.13451314 13.86129899 0.73945618 5.82633972 C0 3 0 3 0 0 Z " fill="#352E35" transform="translate(946,284)"/>
<path d="M0 0 C2.14779612 0.00566795 4.29558426 0.0084715 6.44338608 0.0110817 C38.88564191 0.06826782 70.91451428 1.29408802 102.80047226 7.7169838 C105.54632787 8.2683946 108.29602581 8.78196395 111.05144882 9.28290176 C135.66320223 13.9014833 165.77838807 22.85962973 180.89519882 44.29852676 C187.35900305 54.42999519 193.79363632 66.04440949 193.79363632 78.31805801 C222.17363632 78.31805801 250.55363632 78.31805801 279.79363632 78.31805801 C279.79363632 76.33805801 279.79363632 74.35805801 279.79363632 72.31805801 C282.22193719 62.44818997 286.1637028 53.78127695 291.79363632 45.31805801 C292.31570663 44.5175502 292.83777695 43.71704239 293.37566757 42.89227676 C311.28617923 17.66068005 350.32354523 10.91738155 378.58416367 5.81415176 C408.28063465 0.85450041 438.4103078 -0.1749154 468.44854355 -0.00451279 C471.67846227 0.00899775 474.90824533 0.00362577 478.13817978 -0.00136757 C502.98741118 -0.03054042 527.53119517 1.13630957 552.16863632 4.56805801 C552.94358444 4.67476822 553.71853256 4.78147842 554.51696396 4.89142227 C592.33398521 10.14525374 636.66062656 17.74982863 662.79363632 48.31805801 C667.67610722 54.92375394 671.23777801 61.81008355 674.16863632 69.44305801 C674.52683456 70.37335831 674.52683456 70.37335831 674.89226913 71.32245255 C678.94774842 82.61147483 679.16036986 94.02794034 679.10613632 105.88055801 C679.10464584 106.6814183 679.10315536 107.48227859 679.10161972 108.30740738 C679.0627111 119.91103114 678.59062814 131.00848242 675.79363632 142.31805801 C675.41078476 144.0234877 675.41078476 144.0234877 675.02019882 145.76337051 C674.0706552 149.65737051 672.9654957 153.48679532 671.79363632 157.31805801 C671.50778671 158.26261856 671.2219371 159.20717911 670.92742538 160.1803627 C655.52657873 210.38433111 626.40302701 267.08389075 578.40691757 293.15790176 C557.07761257 303.69118676 534.18065237 308.83884999 510.79363632 312.31805801 C510.14339493 312.41763809 509.49315353 312.51721817 508.82320786 312.61981583 C495.19513081 314.63801928 481.56165007 314.62461588 467.80901718 314.5788002 C463.99838874 314.56810643 460.18823465 314.57873704 456.3776207 314.59149551 C436.23154066 314.60302064 416.54334056 313.44441234 396.79363632 309.31805801 C395.97927109 309.14935196 395.16490585 308.9806459 394.32586288 308.80682755 C369.60682697 303.57654456 346.73212573 295.71443679 328.79363632 277.31805801 C328.0794957 276.61294083 327.36535507 275.90782364 326.62957382 275.18133926 C301.97022358 249.39217815 289.23432831 207.61039521 282.28435898 173.66913223 C281.86521682 171.6610034 281.40223039 169.66210982 280.93035507 167.66571426 C278.9694171 159.04764328 278.02977272 150.34967526 277.10613632 141.56805801 C276.90866806 139.7485463 276.90866806 139.7485463 276.70721054 137.89227676 C275.68972356 127.56129183 275.79363632 117.84487622 275.79363632 107.31805801 C250.05363632 107.31805801 224.31363632 107.31805801 197.79363632 107.31805801 C197.79363632 114.57805801 197.79363632 121.83805801 197.79363632 129.31805801 C197.32456466 134.41047966 196.80309463 139.34270177 196.04363632 144.38055801 C195.86026718 145.65584366 195.67689804 146.9311293 195.48797226 148.24505997 C194.94548208 151.93990195 194.37569417 155.6292664 193.79363632 159.31805801 C193.64410507 160.29162247 193.49457382 161.26518692 193.34051132 162.26825333 C187.3883877 200.11659496 173.53598706 242.49237317 148.79363632 272.31805801 C148.12719101 273.13145645 147.4607457 273.94485489 146.77410507 274.78290176 C131.1733796 293.02591227 108.4442492 302.17560899 85.48113632 307.38055801 C83.79576767 307.76570572 83.79576767 307.76570572 82.07635117 308.15863419 C63.47211197 312.28490192 44.56899434 314.46595437 25.51238632 314.48602676 C24.37821274 314.48935516 23.24403915 314.49268356 22.07549667 314.49611282 C19.68890407 314.50114208 17.30230453 314.5035224 14.91570663 314.50336075 C11.33062274 314.50553558 7.74585304 314.52370289 4.16082382 314.54266739 C-15.63833296 314.59129567 -34.7566624 312.96985577 -54.20636368 309.31805801 C-54.97835098 309.17642227 -55.75033829 309.03478653 -56.54571915 308.8888588 C-79.93252685 304.53838378 -104.79235508 296.99152018 -123.20636368 281.31805801 C-124.03909805 280.6103627 -124.87183243 279.90266739 -125.72980118 279.17352676 C-128.27390964 276.93862533 -130.74629472 274.64493852 -133.20636368 272.31805801 C-133.99526993 271.59360489 -134.78417618 270.86915176 -135.59698868 270.12274551 C-163.72279779 243.35786265 -183.09346321 204.64914125 -195.20636368 168.31805801 C-195.47287735 167.52512344 -195.73939102 166.73218887 -196.01398087 165.91522598 C-200.31950121 152.91297004 -203.06124505 139.83346963 -205.20636368 126.31805801 C-205.40101212 125.21977676 -205.59566055 124.12149551 -205.79620743 122.98993301 C-208.80426553 96.06065097 -205.18671786 69.2694608 -188.51886368 47.19305801 C-172.26153431 27.77031291 -147.89794202 19.51617192 -124.20636368 13.31805801 C-123.51697708 13.13159714 -122.82759048 12.94513626 -122.11731339 12.75302505 C-110.00835716 9.4858126 -97.98179421 7.11207361 -85.54669571 5.48724747 C-82.8644094 5.13489894 -80.18598845 4.76004484 -77.50714493 4.38251114 C-51.78034491 0.85781615 -25.93843804 -0.06969458 0 0 Z " fill="#F7BA8C" transform="translate(1102.2063636779785,1055.681941986084)"/>
<path d="M0 0 C7.01299775 1.42637242 13.96529216 2.94226198 20.875 4.8125 C22.78152344 5.32490234 22.78152344 5.32490234 24.7265625 5.84765625 C26.92313537 6.43832697 29.11846943 7.03260787 31.31152344 7.63623047 C87.90915818 23.09337903 147.36514777 28.97552924 205.75 32.625 C206.75051392 32.68780151 207.75102783 32.75060303 208.78186035 32.81530762 C215.8524833 33.25338293 222.92464365 33.64654071 230 34 C231.01635529 34.05085754 232.03271057 34.10171509 233.0798645 34.15411377 C254.0869266 35.15694232 275.09126441 35.15523517 296.11694336 35.13037109 C300.96159032 35.12467833 305.80618232 35.12806585 310.65082741 35.13380337 C339.90873972 35.16335627 369.04330064 34.55026403 398.25 32.6875 C399.26226654 32.62341949 400.27453308 32.55933899 401.31747437 32.49331665 C462.22013991 28.59599559 522.62631607 20.25616422 582 6 C581.36383334 10.36545508 579.73886966 14.02497639 577.81640625 17.94921875 C577.3261496 18.96520142 577.3261496 18.96520142 576.82598877 20.00170898 C575.74525938 22.23383837 574.65475795 24.46099125 573.5625 26.6875 C573.18684906 27.45687897 572.81119812 28.22625793 572.42416382 29.01895142 C560.40047499 53.62062497 547.59324813 77.7411743 533.59960938 101.28125 C531.48071644 104.88259184 529.42654165 108.51877866 527.37353516 112.15795898 C521.76496647 122.09311169 515.85249667 131.7833945 509.68066406 141.37744141 C507.83454441 144.25818186 506.00644772 147.14991576 504.1796875 150.04296875 C496.29723841 162.49478702 488.17945824 174.71981672 479.62304688 186.71826172 C478.05615429 188.92105626 476.50220575 191.13230962 474.953125 193.34765625 C460.55388142 213.92172767 445.35558107 233.75340808 429.47216797 253.19580078 C428.17728489 254.78273046 426.88709522 256.37348737 425.59765625 257.96484375 C417.33617326 268.13856874 408.80789338 278.08074515 400 287.78515625 C398.20396471 289.77412502 396.44046697 291.78563194 394.6875 293.8125 C386.92806222 302.70090909 378.8407127 311.23176438 370.4453125 319.51953125 C368.37775595 321.61681305 366.4546956 323.74673326 364.5625 326 C361.23446621 329.89991549 357.49584721 333.29162479 353.69262695 336.71386719 C350.10000123 339.95679799 346.64598612 343.3022893 343.25 346.75 C338.98543427 351.05091147 334.60642125 355.07372149 330 359 C328.91036798 359.95187829 327.82193834 360.90513384 326.734375 361.859375 C320.08079311 367.68614888 313.35776065 373.41439898 306.5 379 C305.85417969 379.5273877 305.20835937 380.05477539 304.54296875 380.59814453 C300.46742185 383.89634204 296.29320811 386.99032833 292 390 C288.16165754 388.41815798 285.73333152 385.97711011 282.82421875 383.0546875 C282.09184746 382.32162888 282.09184746 382.32162888 281.34468079 381.57376099 C280.31277802 380.53884333 279.28330056 379.50150249 278.25610352 378.46191406 C276.70825108 376.89599331 275.1527365 375.33803642 273.59570312 373.78125 C268.71715557 368.88479216 263.9581173 363.92913766 259.46020508 358.67626953 C257.41903104 356.33306589 255.22566728 354.16709709 253 352 C249.51909938 348.55563057 246.22496381 345.04675105 243.04296875 341.328125 C240.26054415 338.15733138 237.37908991 335.0829157 234.5 332 C230.48388901 327.69471996 226.50870471 323.37032 222.6640625 318.91015625 C220.68459874 316.63795489 218.6541683 314.41540128 216.625 312.1875 C212.67628555 307.81714316 208.9537279 303.29696921 205.25 298.71875 C203.06498431 296.07852271 200.80828609 293.5327028 198.5 291 C194.6390781 286.75832974 190.99450297 282.37966073 187.38671875 277.921875 C184.77609172 274.72588643 182.11265034 271.57941193 179.4375 268.4375 C175.59591213 263.9160084 171.82544729 259.35018346 168.140625 254.69921875 C166.53434491 252.67378163 164.91994304 250.65643582 163.296875 248.64453125 C157.42398343 241.35596679 151.66098801 233.99486051 145.99511719 226.54418945 C142.63334718 222.12576352 139.23901266 217.73538492 135.81567383 213.36450195 C128.00664818 203.38926281 120.45559868 193.24137018 113 183 C112.43893555 182.23123535 111.87787109 181.4624707 111.29980469 180.67041016 C109.6342565 178.38668549 107.97254971 176.10022398 106.3125 173.8125 C105.83868896 173.16152344 105.36487793 172.51054687 104.87670898 171.83984375 C95.06186721 158.2579392 85.76760299 144.29113318 76.38427734 130.41015625 C75.12975381 128.55584108 73.8735723 126.7026465 72.61572266 124.85058594 C64.84494864 113.40764121 57.31955836 101.87453865 50.20794678 90.01000977 C48.36713254 86.94691571 46.4969505 83.90199938 44.62890625 80.85546875 C33.14041349 62.0396587 22.1697269 42.97832993 11.5 23.6875 C11.15411835 23.06271759 10.80823669 22.43793518 10.45187378 21.79421997 C0 2.89611658 0 2.89611658 0 0 Z " fill="#FEFEFE" transform="translate(1052,1931)"/>
<path d="M0 0 C6.76148874 46.04478234 13.47181748 92.09655743 20.05089569 138.16779327 C20.49380133 141.26909583 20.93697436 144.37036009 21.38018799 147.47161865 C25.90288926 179.12584196 30.42357198 210.7812582 34.59762573 242.48370361 C36.88109261 259.80951115 39.25292644 277.12175594 41.68164062 294.42773438 C43.77878278 309.37556911 45.83286299 324.32909894 47.87808228 339.28411865 C49.5063417 351.18582054 51.14641875 363.08563895 52.82421875 374.98046875 C52.97380539 376.04116577 53.12339203 377.10186279 53.2775116 378.19470215 C53.42642349 379.25048462 53.57533539 380.30626709 53.72875977 381.39404297 C56.18818782 398.83186091 58.59017015 416.27200659 60.79052734 433.74450684 C63.02670945 451.48881786 65.47471832 469.20305883 67.92999268 486.91819763 C68.48580938 490.94018371 69.03565955 494.96297606 69.58508301 498.98583984 C70.00905639 502.06579003 70.44347166 505.14416946 70.87792969 508.22265625 C73.07390667 523.99989897 73.55944685 536.66997534 69.5 552.25 C69.16146708 553.59212235 68.82421963 554.93456963 68.48828125 556.27734375 C67.67137326 559.52163547 66.84177986 562.76208993 66 566 C61.71028989 564.68640837 57.94524204 563.03247164 54.01953125 560.8671875 C52.8689624 560.23393555 51.71839355 559.60068359 50.53295898 558.94824219 C49.29255596 558.25761033 48.05240941 557.56651767 46.8125 556.875 C45.86034103 556.34694763 45.86034103 556.34694763 44.88894653 555.80822754 C32.11690529 548.72294937 19.54019886 541.3314352 7.02001953 533.81054688 C4.26781803 532.16056091 1.50891577 530.5227434 -1.25390625 528.890625 C-57.08800195 495.82012825 -109.96971933 457.50423703 -160.19580078 416.47216797 C-161.78273046 415.17728489 -163.37348737 413.88709522 -164.96484375 412.59765625 C-171.81473779 407.03526065 -178.51405482 401.30854505 -185.19726562 395.54833984 C-186.97485913 394.02159309 -188.75952015 392.50358292 -190.546875 390.98828125 C-196.95463465 385.54741231 -203.25081731 380.01823787 -209.38696289 374.27148438 C-212.16957791 371.66831888 -214.99013651 369.12376945 -217.8671875 366.625 C-222.08723877 362.95042832 -226.17732733 359.14901959 -230.25 355.3125 C-231.29027344 354.33700195 -231.29027344 354.33700195 -232.3515625 353.34179688 C-233.67334363 352.0997784 -234.98706805 350.84910726 -236.29101562 349.58837891 C-238.07899354 347.86258404 -238.07899354 347.86258404 -240.609375 346.10546875 C-242 344 -242 344 -241.640625 340.25 C-239.60833799 332.974057 -236.59710354 325.98668397 -233.75 319 C-233.12017851 317.44229396 -232.49054316 315.88451264 -231.86108398 314.32666016 C-209.72354319 259.69044152 -185.79409632 205.23262858 -155.51806641 154.56152344 C-154.188057 152.31731973 -152.88765124 150.06079725 -151.60546875 147.7890625 C-132.9634049 114.92198337 -110.26332157 83.18722898 -84 56 C-83.29182129 55.26458984 -82.58364258 54.52917969 -81.85400391 53.77148438 C-72.6209749 44.23139584 -63.39192788 35.00457818 -52.62988281 27.19433594 C-51.00713868 26.00523104 -49.42112483 24.77764309 -47.8359375 23.5390625 C-40.74364234 18.10805458 -33.21702445 13.77723636 -25.3125 9.625 C-24.3625415 9.12492432 -23.41258301 8.62484863 -22.43383789 8.10961914 C-6.61042463 0 -6.61042463 0 0 0 Z " fill="#FEFEFE" transform="translate(666,2028)"/>
<path d="M0 0 C30.33054678 2.73521965 57.36019821 18.41674916 80 38 C80.76957031 38.65871094 81.53914063 39.31742188 82.33203125 39.99609375 C94.17973731 50.38985247 105.27884085 61.59539588 115 74 C115.97571353 75.17864839 116.955148 76.3542225 117.9375 77.52734375 C158.93953632 126.68596836 187.83542334 186.50118451 213 245 C213.47663086 246.10601563 213.47663086 246.10601563 213.96289062 247.234375 C223.75806134 269.98961822 232.73456284 293.01609054 241.25390625 316.27783203 C242.48080475 319.61937272 243.74452922 322.94467338 245.02734375 326.26513672 C245.35726318 327.1298912 245.68718262 327.99464569 246.02709961 328.88560486 C246.66109146 330.54600526 247.30343909 332.20324668 247.95532227 333.85670471 C248.23819092 334.603228 248.52105957 335.34975128 248.8125 336.11889648 C249.06644531 336.77341293 249.32039063 337.42792938 249.58203125 338.10227966 C250.08920113 340.40500347 249.77245006 341.79046358 249 344 C247.82006836 345.53637695 247.82006836 345.53637695 246.33984375 346.98828125 C245.79263672 347.53033203 245.24542969 348.07238281 244.68164062 348.63085938 C244.10607422 349.18580078 243.53050781 349.74074219 242.9375 350.3125 C242.38900391 350.85583984 241.84050781 351.39917969 241.27539062 351.95898438 C237.64814551 355.51898045 233.87716103 358.87986889 230.03735352 362.20776367 C226.6124157 365.22064186 223.31126483 368.36335265 220 371.5 C215.3459372 375.90863371 210.64082385 380.23010841 205.79931641 384.43261719 C203.56412587 386.37968954 201.37529997 388.37494469 199.1875 390.375 C194.92175991 394.22583528 190.52206078 397.86733824 186.0546875 401.48046875 C182.45960005 404.4457263 178.94780066 407.49784041 175.4375 410.5625 C169.73799894 415.5292385 163.94052802 420.32304072 158 425 C156.83628359 425.93240184 155.67360103 426.86609486 154.51171875 427.80078125 C147.05938991 433.79487791 139.55600943 439.71321078 131.94970703 445.51123047 C129.68051371 447.24395535 127.4165806 448.98345983 125.15234375 450.72265625 C75.15859999 489.05800006 22.21896449 523.35972361 -32.48999023 554.55224609 C-34.25475945 555.57015111 -35.98954409 556.64096181 -37.69946289 557.74853516 C-38.45864014 558.16151855 -39.21781738 558.57450195 -40 559 C-40.66 558.67 -41.32 558.34 -42 558 C-41.91056374 557.05711624 -41.91056374 557.05711624 -41.81932068 556.09518433 C-41.02242847 547.68873435 -40.22903083 539.28195627 -39.4375 530.875 C-39.3714922 530.17411381 -39.30548439 529.47322762 -39.23747635 528.75110245 C-37.52519845 510.56282608 -35.84272223 492.37216914 -34.21875 474.17578125 C-34.14527344 473.35250147 -34.07179688 472.52922169 -33.99609375 471.68099403 C-33.55044276 466.68548141 -33.10550524 461.68990535 -32.66070557 456.69431686 C-30.58663912 433.4005217 -28.47014145 410.11449026 -26.14035034 386.84457397 C-24.22434596 367.68196944 -22.50523182 348.50383569 -20.80710983 329.32101822 C-19.03984339 309.36202568 -17.19090511 289.41451448 -15.19775391 269.4765625 C-13.33716033 250.82868104 -11.65243062 232.16717953 -10 213.5 C-8.1689133 192.81457836 -6.26344655 172.14016319 -4.19775391 151.4765625 C-2.40907362 133.54943515 -0.78089572 115.61005768 0.80832291 97.6644249 C2.72713641 75.9971112 4.69227449 54.33628507 6.8125 32.6875 C6.91763916 31.60742676 7.02277832 30.52735352 7.13110352 29.41455078 C7.42471089 26.40501704 7.72141156 23.3958085 8.01953125 20.38671875 C8.10467484 19.51500534 8.18981842 18.64329193 8.27754211 17.74516296 C8.70680777 13.46305974 9.22962211 9.23772144 10 5 C9.0925 4.731875 8.185 4.46375 7.25 4.1875 C4.28528037 3.10423706 2.3830246 2.01640543 0 0 Z " fill="#FEFEFE" transform="translate(2086,2023)"/>
<path d="M0 0 C2.07931625 0.00260195 4.15861665 0.00193531 6.23793411 0.00118637 C24.44181723 0.00876129 42.53241669 0.49934449 60.67052078 2.19005966 C61.56316635 2.27274094 62.45581192 2.35542221 63.37550735 2.44060898 C74.7773333 3.53136781 85.9786835 5.27449477 97.23302078 7.37755966 C99.19058755 7.71279623 101.14883406 8.04411144 103.10802078 8.36974716 C114.43417122 10.29979268 125.31523712 12.79624846 136.23302078 16.37755966 C137.19981766 16.68306747 138.16661453 16.98857529 139.16270828 17.30334091 C154.34368266 22.416221 168.99583742 29.38755763 177.02208328 43.86584091 C178.8271416 47.60988122 180.16163625 51.36640051 181.23302078 55.37755966 C181.58106766 56.51709091 181.92911453 57.65662216 182.28770828 58.83068466 C187.82947693 81.37940935 181.98761633 107.97238595 174.23302078 129.37755966 C173.89528641 130.32083115 173.55755203 131.26410263 173.20958328 132.2359581 C161.53302525 164.53774665 145.95644718 194.26822863 122.23302078 219.37755966 C121.44153641 220.23349716 120.65005203 221.08943466 119.83458328 221.97130966 C110.65767378 231.58245778 100.34197897 237.14869135 88.23302078 242.37755966 C87.45958328 242.73591904 86.68614578 243.09427841 85.88927078 243.46349716 C57.99267343 255.7419291 24.28688784 256.79856975 -5.64197922 256.69005966 C-7.21871918 256.68732544 -7.21871918 256.68732544 -8.82731247 256.68453598 C-24.03573142 256.64019404 -38.78336549 256.17300998 -53.76697922 253.37755966 C-55.86851967 253.02196059 -57.97008326 252.66649821 -60.07166672 252.31115341 C-84.94655374 247.90403111 -108.94279113 240.69347216 -124.03236008 219.13195419 C-132.9987346 205.82072479 -139.15219107 191.35032804 -144.76697922 176.37755966 C-145.04670578 175.64537216 -145.32643234 174.91318466 -145.61463547 174.15880966 C-160.59129411 134.79986135 -170.84899382 81.87236661 -155.14197922 41.43615341 C-149.19271586 28.2024227 -138.96206515 21.6871489 -125.76697922 16.37755966 C-120.66939167 14.59010974 -115.45883908 13.25170799 -110.21375656 11.97472763 C-107.74245611 11.37157448 -105.28082237 10.7360777 -102.81776047 10.10021591 C-92.14082117 7.43098109 -81.42735474 5.61875891 -70.51697922 4.19005966 C-69.34240158 4.0352916 -68.16782394 3.88052353 -66.95765305 3.72106552 C-44.68003746 0.97610505 -22.43715536 -0.02953757 0 0 Z " fill="#F7BA8C" transform="translate(1568.7669792175293,1084.6224403381348)"/>
<path d="M0 0 C2.14779612 0.00566795 4.29558426 0.0084715 6.44338608 0.0110817 C38.88564191 0.06826782 70.91451428 1.29408802 102.80047226 7.7169838 C105.54632787 8.2683946 108.29602581 8.78196395 111.05144882 9.28290176 C135.66320223 13.9014833 165.77838807 22.85962973 180.89519882 44.29852676 C187.35900305 54.42999519 193.79363632 66.04440949 193.79363632 78.31805801 C222.17363632 78.31805801 250.55363632 78.31805801 279.79363632 78.31805801 C279.79363632 76.33805801 279.79363632 74.35805801 279.79363632 72.31805801 C282.22193719 62.44818997 286.1637028 53.78127695 291.79363632 45.31805801 C292.31570663 44.5175502 292.83777695 43.71704239 293.37566757 42.89227676 C311.28617923 17.66068005 350.32354523 10.91738155 378.58416367 5.81415176 C408.28063465 0.85450041 438.4103078 -0.1749154 468.44854355 -0.00451279 C471.67846227 0.00899775 474.90824533 0.00362577 478.13817978 -0.00136757 C502.98741118 -0.03054042 527.53119517 1.13630957 552.16863632 4.56805801 C552.94358444 4.67476822 553.71853256 4.78147842 554.51696396 4.89142227 C592.33398521 10.14525374 636.66062656 17.74982863 662.79363632 48.31805801 C667.67610722 54.92375394 671.23777801 61.81008355 674.16863632 69.44305801 C674.52683456 70.37335831 674.52683456 70.37335831 674.89226913 71.32245255 C678.94774842 82.61147483 679.16036986 94.02794034 679.10613632 105.88055801 C679.10464584 106.6814183 679.10315536 107.48227859 679.10161972 108.30740738 C679.0627111 119.91103114 678.59062814 131.00848242 675.79363632 142.31805801 C675.41078476 144.0234877 675.41078476 144.0234877 675.02019882 145.76337051 C674.0706552 149.65737051 672.9654957 153.48679532 671.79363632 157.31805801 C671.50778671 158.26261856 671.2219371 159.20717911 670.92742538 160.1803627 C655.52657873 210.38433111 626.40302701 267.08389075 578.40691757 293.15790176 C557.07761257 303.69118676 534.18065237 308.83884999 510.79363632 312.31805801 C510.14339493 312.41763809 509.49315353 312.51721817 508.82320786 312.61981583 C495.19513081 314.63801928 481.56165007 314.62461588 467.80901718 314.5788002 C463.99838874 314.56810643 460.18823465 314.57873704 456.3776207 314.59149551 C436.23154066 314.60302064 416.54334056 313.44441234 396.79363632 309.31805801 C395.97927109 309.14935196 395.16490585 308.9806459 394.32586288 308.80682755 C369.60682697 303.57654456 346.73212573 295.71443679 328.79363632 277.31805801 C328.0794957 276.61294083 327.36535507 275.90782364 326.62957382 275.18133926 C301.97022358 249.39217815 289.23432831 207.61039521 282.28435898 173.66913223 C281.86521682 171.6610034 281.40223039 169.66210982 280.93035507 167.66571426 C278.9694171 159.04764328 278.02977272 150.34967526 277.10613632 141.56805801 C276.90866806 139.7485463 276.90866806 139.7485463 276.70721054 137.89227676 C275.68972356 127.56129183 275.79363632 117.84487622 275.79363632 107.31805801 C250.05363632 107.31805801 224.31363632 107.31805801 197.79363632 107.31805801 C197.79363632 114.57805801 197.79363632 121.83805801 197.79363632 129.31805801 C197.32456466 134.41047966 196.80309463 139.34270177 196.04363632 144.38055801 C195.86026718 145.65584366 195.67689804 146.9311293 195.48797226 148.24505997 C194.94548208 151.93990195 194.37569417 155.6292664 193.79363632 159.31805801 C193.64410507 160.29162247 193.49457382 161.26518692 193.34051132 162.26825333 C187.3883877 200.11659496 173.53598706 242.49237317 148.79363632 272.31805801 C148.12719101 273.13145645 147.4607457 273.94485489 146.77410507 274.78290176 C131.1733796 293.02591227 108.4442492 302.17560899 85.48113632 307.38055801 C83.79576767 307.76570572 83.79576767 307.76570572 82.07635117 308.15863419 C63.47211197 312.28490192 44.56899434 314.46595437 25.51238632 314.48602676 C24.37821274 314.48935516 23.24403915 314.49268356 22.07549667 314.49611282 C19.68890407 314.50114208 17.30230453 314.5035224 14.91570663 314.50336075 C11.33062274 314.50553558 7.74585304 314.52370289 4.16082382 314.54266739 C-15.63833296 314.59129567 -34.7566624 312.96985577 -54.20636368 309.31805801 C-54.97835098 309.17642227 -55.75033829 309.03478653 -56.54571915 308.8888588 C-79.93252685 304.53838378 -104.79235508 296.99152018 -123.20636368 281.31805801 C-124.03909805 280.6103627 -124.87183243 279.90266739 -125.72980118 279.17352676 C-128.27390964 276.93862533 -130.74629472 274.64493852 -133.20636368 272.31805801 C-133.99526993 271.59360489 -134.78417618 270.86915176 -135.59698868 270.12274551 C-163.72279779 243.35786265 -183.09346321 204.64914125 -195.20636368 168.31805801 C-195.47287735 167.52512344 -195.73939102 166.73218887 -196.01398087 165.91522598 C-200.31950121 152.91297004 -203.06124505 139.83346963 -205.20636368 126.31805801 C-205.40101212 125.21977676 -205.59566055 124.12149551 -205.79620743 122.98993301 C-208.80426553 96.06065097 -205.18671786 69.2694608 -188.51886368 47.19305801 C-172.26153431 27.77031291 -147.89794202 19.51617192 -124.20636368 13.31805801 C-123.51697708 13.13159714 -122.82759048 12.94513626 -122.11731339 12.75302505 C-110.00835716 9.4858126 -97.98179421 7.11207361 -85.54669571 5.48724747 C-82.8644094 5.13489894 -80.18598845 4.76004484 -77.50714493 4.38251114 C-51.78034491 0.85781615 -25.93843804 -0.06969458 0 0 Z M-164.12042618 63.96649551 C-178.56515372 80.25062657 -177.15545113 101.91397075 -176.20636368 122.31805801 C-175.53051912 129.47651562 -174.02888225 136.37351174 -172.20636368 143.31805801 C-171.90883194 144.50721817 -171.90883194 144.50721817 -171.60528946 145.72040176 C-162.53657902 181.33150336 -144.12684371 215.54419763 -120.20636368 243.31805801 C-119.76050919 243.84899063 -119.31465469 244.37992325 -118.85528946 244.92694473 C-95.4034209 272.85098815 -57.33370278 281.56573051 -22.45589066 284.82606888 C-11.25250987 285.73582132 -0.00209681 285.72531296 11.23113632 285.75555801 C12.31971939 285.76182205 13.40830246 285.76808609 14.52987289 285.77453995 C48.54813454 285.89831151 95.59325857 283.5174255 121.62176132 258.52508926 C122.33848007 257.79676895 123.05519882 257.06844864 123.79363632 256.31805801 C124.34535507 255.7650502 124.89707382 255.21204239 125.46551132 254.64227676 C147.41871297 230.85964165 158.01557997 192.39889172 163.79363632 161.31805801 C163.98683456 160.33998184 164.18003281 159.36190567 164.37908554 158.35419083 C167.15910951 143.98884249 168.18138968 129.85203768 168.23113632 115.25555801 C168.23730972 114.49330917 168.24348312 113.73106033 168.2498436 112.94571304 C168.34818216 94.12188304 166.88479808 70.95750634 153.15691757 56.60712051 C130.72500155 38.21392256 95.24789945 35.22125871 67.66863632 32.06805801 C66.94409256 31.98497391 66.2195488 31.9018898 65.47304916 31.81628799 C45.91573411 29.60550214 26.52851661 29.11221671 6.85613632 29.13055801 C5.56374039 29.1314946 4.27134445 29.13243118 2.939785 29.13339615 C-86.16082958 27.98293489 -86.16082958 27.98293489 -164.12042618 63.96649551 Z M411.79363632 31.31805801 C410.62796631 31.43147537 410.62796631 31.43147537 409.43874741 31.54718399 C405.06784675 31.9834562 400.7115937 32.49901702 396.35613632 33.06805801 C395.07609726 33.23507217 393.7960582 33.40208633 392.47723007 33.57416153 C351.03032628 38.7185357 351.03032628 38.7185357 316.79363632 60.31805801 C310.3617203 70.23779653 307.78078702 80.79314848 305.79363632 92.31805801 C305.60027695 93.40731583 305.40691757 94.49657364 305.20769882 95.61883926 C299.32878607 148.14082393 315.94694092 212.83036042 347.81316757 254.98993301 C361.69611939 271.84174418 386.06455157 277.665904 406.66863632 281.50555801 C407.49234726 281.66040665 408.3160582 281.81525528 409.16473007 281.9747963 C426.11932815 284.94832218 442.98417167 285.69262587 460.16863632 285.63055801 C461.74403183 285.62782379 461.74403183 285.62782379 463.35125351 285.62503433 C505.5252361 285.50216563 553.82042101 282.03840438 585.79363632 251.31805801 C586.5954332 250.5794252 587.39723007 249.84079239 588.22332382 249.07977676 C617.56220863 221.19377603 638.99836908 176.81407869 646.79363632 137.31805801 C647.08754257 136.08055801 647.38144882 134.84305801 647.68426132 133.56805801 C652.12723721 113.72588014 653.35908518 88.2189456 642.25066757 70.36493301 C631.85292356 55.75791462 615.92185209 48.73705326 599.04363632 43.88055801 C598.02559921 43.58761856 597.0075621 43.29467911 595.95867538 42.9928627 C574.02053086 36.89856843 551.60682507 33.40653559 528.94295883 31.50616837 C526.46074912 31.28892347 523.98144569 31.04603936 521.50139999 30.8053627 C505.66100239 29.33234761 489.88741863 29.00429988 473.99212265 29.05731583 C470.54948141 29.06869814 467.10714998 29.06192655 463.66451931 29.05043793 C446.29803572 29.00131006 429.08583099 29.61788544 411.79363632 31.31805801 Z " fill="#C41C1E" transform="translate(1102.2063636779785,1055.681941986084)"/>
<path d="M0 0 C2.80249479 0.4961873 5.61154018 0.94663529 8.42089844 1.40234375 C38.49149222 6.40131883 67.42720195 14.69510004 96.27246094 24.40234375 C95.00571803 40.87000153 86.76919182 54.07890905 76.27246094 66.40234375 C75.61246094 66.07234375 74.95246094 65.74234375 74.27246094 65.40234375 C74.59859375 64.6753125 74.92472656 63.94828125 75.26074219 63.19921875 C79.67482612 53.04291943 82.8302321 43.55776692 82.27246094 32.40234375 C75.07152397 29.50935155 67.69435786 27.49243753 60.20996094 25.46484375 C58.89781127 25.10738532 57.58571844 24.74971819 56.27368164 24.3918457 C53.72629672 23.69764593 51.17827891 23.00592431 48.62988281 22.31542969 C45.95028297 21.58668453 43.27418653 20.84798932 40.60058594 20.09765625 C31.9005738 17.68928379 23.15919553 15.943801 14.27246094 14.40234375 C14.73136719 15.00820312 15.19027344 15.6140625 15.66308594 16.23828125 C21.60263845 24.34901472 25.80358644 32.19129904 26.27246094 42.40234375 C26.35882812 43.4078125 26.44519531 44.41328125 26.53417969 45.44921875 C27.20078697 58.54434844 23.05957532 70.45894551 14.33105469 80.29296875 C13.65171875 80.9890625 12.97238281 81.68515625 12.27246094 82.40234375 C11.6446875 83.0571875 11.01691406 83.71203125 10.37011719 84.38671875 C-0.60650617 94.89195337 -14.52968966 97.02292526 -29.08300781 96.71484375 C-38.73014618 96.24907968 -46.1498809 92.12160286 -53.72753906 86.40234375 C-54.34371094 85.96277344 -54.95988281 85.52320313 -55.59472656 85.0703125 C-65.29764725 77.58828255 -70.72892771 65.26202812 -72.72753906 53.40234375 C-73.75912385 42.3128073 -71.29813539 31.00682018 -65.72753906 21.40234375 C-82.7684468 31.6532573 -96.55678271 44.78935328 -108.72753906 60.40234375 C-112.56347656 58.62890625 -112.56347656 58.62890625 -114.04003906 56.58984375 C-114.93250207 53.75018874 -114.55971269 52.2537001 -113.72753906 49.40234375 C-111.52495338 46.32766831 -108.86773059 43.68123651 -106.23925781 40.96533203 C-105.17818942 39.86827779 -104.12408145 38.76446908 -103.07519531 37.65576172 C-74.69262626 7.70077305 -41.65708518 -7.47099361 0 0 Z " fill="#452C1B" transform="translate(1597.7275390625,1141.59765625)"/>
<path d="M0 0 C8.6434767 7.59753074 18.03485265 15.87457048 24.33105469 25.56103516 C24.1531871 29.82985729 23.15171485 32.3724628 20.33105469 35.56103516 C16.3928895 34.02853649 14.51989474 31.60354554 11.95605469 28.31103516 C9.35529454 25.03106822 6.79329442 21.8939511 3.76855469 18.99853516 C2.56199219 17.79197266 2.56199219 17.79197266 1.33105469 16.56103516 C1.33105469 15.90103516 1.33105469 15.24103516 1.33105469 14.56103516 C0.77546875 14.32771484 0.21988281 14.09439453 -0.35253906 13.85400391 C-3.25842309 12.23200118 -5.33314899 10.17999686 -7.73144531 7.87353516 C-12.97286141 3.00650592 -18.48264549 -0.82530421 -24.66894531 -4.43896484 C-24.31960938 -3.69130859 -23.97027344 -2.94365234 -23.61035156 -2.17333984 C-23.1553125 -1.18849609 -22.70027344 -0.20365234 -22.23144531 0.81103516 C-21.77898437 1.78556641 -21.32652344 2.76009766 -20.86035156 3.76416016 C-16.64673464 13.65579857 -17.10385521 28.05478174 -20.23144531 38.18603516 C-25.85251138 51.98319733 -34.3538794 60.87161294 -47.67675781 67.33447266 C-59.65822883 72.24593728 -74.93748111 72.74639952 -87.06347656 67.88916016 C-99.87365721 61.35923299 -109.17193638 51.72588139 -114.48144531 38.31103516 C-119.1329217 23.62216234 -117.09390813 9.79996681 -110.30175781 -3.64208984 C-108.64495233 -6.48006287 -106.78455397 -8.92954159 -104.66894531 -11.43896484 C-126.35711082 -7.7041448 -147.62163505 -2.45292991 -168.65136719 4.01367188 C-170.66894531 4.56103516 -170.66894531 4.56103516 -172.66894531 4.56103516 C-173.29115671 16.26782737 -170.82383021 25.94359096 -165.55957031 36.38134766 C-165.26566406 37.10064453 -164.97175781 37.81994141 -164.66894531 38.56103516 C-164.99894531 39.22103516 -165.32894531 39.88103516 -165.66894531 40.56103516 C-175.7417545 30.43464719 -185.81493578 15.63239306 -185.91894531 0.81103516 C-185.83644531 -0.26146484 -185.75394531 -1.33396484 -185.66894531 -2.43896484 C-175.85002725 -6.43230473 -165.62968234 -8.97474277 -155.40673828 -11.69970703 C-152.20431756 -12.56442345 -149.01582613 -13.47292508 -145.82714844 -14.38671875 C-94.13108867 -29.11190863 -43.33259191 -37.36136581 0 0 Z " fill="#452C1B" transform="translate(1161.6689453125,1165.43896484375)"/>
<path d="M0 0 C1.22883911 0.00021149 2.45767822 0.00042297 3.72375488 0.00064087 C24.07536857 0.03547934 43.85021377 1.14156183 63.9375 4.375 C65.28640226 4.5859708 66.63536144 4.79657801 67.984375 5.00683594 C96.50429527 9.49474978 96.50429527 9.49474978 100.42578125 14.13671875 C100.69777344 14.77222656 100.96976563 15.40773438 101.25 16.0625 C101.53488281 16.68511719 101.81976562 17.30773437 102.11328125 17.94921875 C104.43160355 24.77233793 105.27844594 30.83162252 105.25 38 C105.26611328 38.81984375 105.28222656 39.6396875 105.29882812 40.484375 C105.30288672 45.53326405 104.73800415 49.00754709 101.9375 53.375 C97.5273226 57.35491619 94.80390509 58.73920987 88.79248047 58.66503906 C83.40273066 58.11749137 78.27112346 56.41208452 73.09686279 54.87063599 C60.45721169 51.12951265 47.80478566 48.1572655 34.8125 45.9375 C34.12100861 45.81848328 33.42951721 45.69946655 32.71707153 45.57684326 C4.723304 40.8018315 -23.82014721 37.80479524 -52.0625 42.375 C-53.20912109 42.55514648 -54.35574219 42.73529297 -55.53710938 42.92089844 C-65.90697268 44.64787373 -75.63796159 47.58018696 -85.5625 51 C-87.15255397 51.54062245 -88.74272488 52.08090107 -90.33300781 52.62084961 C-94.91712529 54.18395134 -99.49167185 55.77350003 -104.0625 57.375 C-105.25166016 57.79120605 -106.44082031 58.20741211 -107.66601562 58.63623047 C-126.79330403 65.40492717 -145.34541715 73.46675633 -163.0625 83.375 C-158.65059973 74.23460753 -150.85038702 66.80452809 -144.0625 59.375 C-143.23363281 58.44171875 -142.40476562 57.5084375 -141.55078125 56.546875 C-136.66198875 51.06663593 -131.69644701 46.07323903 -126.0625 41.375 C-125.11890625 40.54355469 -124.1753125 39.71210937 -123.203125 38.85546875 C-104.16348239 22.15688725 -83.12320152 10.57020689 -58.4375 4.6875 C-57.19697876 4.38356323 -57.19697876 4.38356323 -55.93139648 4.07348633 C-37.59106873 -0.06175642 -18.70021205 -0.02979749 0 0 Z " fill="#362F35" transform="translate(1082.0625,998.625)"/>
<path d="M0 0 C1.07792313 -0.00570007 2.15584625 -0.01140015 3.26643372 -0.01727295 C5.53788291 -0.02665491 7.80934529 -0.03322957 10.08081055 -0.03710938 C13.46624196 -0.04672366 16.85104087 -0.07777602 20.23632812 -0.109375 C75.02253032 -0.3754715 114.01938598 16.10048703 152.51953125 54.203125 C158.55973309 60.24261823 164.12812113 66.42097985 169.33203125 73.203125 C170.02296875 74.08484375 170.71390625 74.9665625 171.42578125 75.875 C173.07092518 77.97712836 174.70628044 80.0859897 176.33203125 82.203125 C176.00203125 82.863125 175.67203125 83.523125 175.33203125 84.203125 C174.29949219 83.59726563 173.26695312 82.99140625 172.203125 82.3671875 C135.51173553 61.20252536 89.2722834 41.22051191 46.35546875 41 C44.97587227 40.98941055 44.97587227 40.98941055 43.56840515 40.97860718 C15.32130751 40.79166353 15.32130751 40.79166353 -12.66796875 44.203125 C-13.80588867 44.40711914 -14.94380859 44.61111328 -16.11621094 44.82128906 C-31.19000172 47.55438335 -46.05865466 50.84425305 -60.80200195 55.01855469 C-75.06962814 58.95123371 -75.06962814 58.95123371 -81.0078125 56.06640625 C-81.79865234 55.29876953 -81.79865234 55.29876953 -82.60546875 54.515625 C-83.15074219 54.01675781 -83.69601562 53.51789063 -84.2578125 53.00390625 C-87.83045445 48.44161279 -88.02308511 43.75407747 -87.98046875 38.140625 C-87.9762793 37.39127686 -87.97208984 36.64192871 -87.96777344 35.86987305 C-87.763709 25.71549633 -86.03390127 16.56905752 -78.66796875 9.203125 C-76.40673828 8.56469727 -76.40673828 8.56469727 -73.55078125 8.01953125 C-72.482229 7.81553711 -71.41367676 7.61154297 -70.31274414 7.40136719 C-68.57045532 7.0866748 -68.57045532 7.0866748 -66.79296875 6.765625 C-65.59728271 6.54680664 -64.40159668 6.32798828 -63.16967773 6.10253906 C-50.07808815 3.79311136 -36.90486627 2.37252415 -23.66796875 1.203125 C-22.79116959 1.12020203 -21.91437042 1.03727905 -21.01100159 0.95184326 C-13.99541694 0.31762192 -7.04261157 0.03001805 0 0 Z " fill="#362F35" transform="translate(1570.66796875,1000.796875)"/>
<path d="M0 0 C-0.81339844 0.63164063 -1.62679688 1.26328125 -2.46484375 1.9140625 C-10.00008825 7.7885641 -17.43101954 13.77533072 -24.78491211 19.87548828 C-26.10505109 20.96959691 -27.43627022 22.05050036 -28.77921772 23.11648941 C-31.02574037 24.93616471 -31.02574037 24.93616471 -32.84240246 27.0489769 C-39.84102539 34.11952459 -46.92669943 34.05349541 -56.31512451 34.12866211 C-58.37390526 34.11948853 -60.43268231 34.10944996 -62.49145508 34.09863281 C-64.67873408 34.11603868 -66.8659887 34.13677711 -69.0532074 34.1605835 C-74.97506326 34.21400823 -80.89589594 34.21647405 -86.81794572 34.2063303 C-91.77056434 34.2020417 -96.72297798 34.22160976 -101.67555255 34.24075198 C-114.0325209 34.28761822 -126.38892452 34.28426014 -138.74593141 34.25852475 C-148.78629458 34.23914378 -158.82536775 34.27341012 -168.86547852 34.34472656 C-180.55057355 34.42742927 -192.23477002 34.46909848 -203.92017096 34.45442462 C-210.09639007 34.4471894 -216.27127498 34.45754857 -222.44727516 34.51328278 C-228.25870237 34.56376746 -234.06722555 34.55567288 -239.87861061 34.50363922 C-242.00335696 34.49421319 -244.12831038 34.50498425 -246.25281906 34.53813171 C-263.93475778 34.79398296 -263.93475778 34.79398296 -270.87011498 28.83514857 C-273.41414174 26.34886141 -275.69219581 23.70855181 -278 21 C-279.72537265 19.38986533 -281.47113883 17.80083763 -283.25 16.25 C-284.03632812 15.54488281 -284.82265625 14.83976562 -285.6328125 14.11328125 C-289.41616008 10.73573828 -293.2048619 7.36428909 -297 4 C-294.21221519 2.60610759 -292.9060832 3.39060271 -289.92578125 4.22265625 C-288.86294922 4.51462891 -287.80011719 4.80660156 -286.70507812 5.10742188 C-285.58552734 5.42259766 -284.46597656 5.73777344 -283.3125 6.0625 C-279.93462469 6.99975032 -276.55601294 7.92971766 -273.16918945 8.83422852 C-270.13919082 9.65619306 -267.16372023 10.59280493 -264.18041992 11.57006836 C-247.54362744 16.77275687 -231.37324642 16.74680767 -214.15432358 16.47371292 C-209.91857338 16.41153219 -205.68257533 16.37916627 -201.4465332 16.34350586 C-195.87315211 16.29474983 -190.29991364 16.24149951 -184.72673035 16.17353821 C-171.15311731 16.01299376 -157.58384607 15.99894238 -144.00944519 16.04679871 C-135.04866521 16.07780842 -126.08798169 16.07483611 -117.12716389 16.06392384 C-110.81701434 16.05760975 -104.50762511 16.06553224 -98.19760132 16.10812378 C-61.90631032 16.88091619 -61.90631032 16.88091619 -27.42076111 7.06477356 C-23.61421521 5.39046154 -19.67335922 4.22778382 -15.6875 3.0625 C-12.34797847 2.03749834 -9.04726311 1.01743077 -5.76953125 -0.19140625 C-3 -1 -3 -1 0 0 Z " fill="#DF9C72" transform="translate(1483,1535)"/>
<path d="M0 0 C0.34611328 1.43158447 0.34611328 1.43158447 0.69921875 2.89208984 C5.52743566 22.79942924 10.57197043 42.53770353 17 62 C17.24212219 62.73754517 17.48424438 63.47509033 17.73370361 64.23498535 C29.63942024 100.49645465 42.69641067 136.74857171 61.4987793 170.10449219 C62.38803057 171.70675417 63.20290711 173.34995326 64 175 C63.67 175.66 63.34 176.32 63 177 C57.74080973 171.86375184 52.77940776 166.58212682 48 161 C47.11787901 159.99288348 46.23500755 158.986424 45.3515625 157.98046875 C26.54255631 136.45880689 10.66921423 113.08969537 -3 88 C-3.49741699 87.09024414 -3.99483398 86.18048828 -4.50732422 85.24316406 C-15.13416679 65.68267325 -23.94883784 45.43468887 -32.125 24.75 C-32.59881104 23.5535083 -33.07262207 22.3570166 -33.56079102 21.12426758 C-33.99705811 20.00560303 -34.4333252 18.88693848 -34.8828125 17.734375 C-35.26840332 16.74663086 -35.65399414 15.75888672 -36.05126953 14.74121094 C-36.94325241 12.16396344 -37.53914124 9.68436456 -38 7 C-36.29457031 7.06960938 -36.29457031 7.06960938 -34.5546875 7.140625 C-22.18781186 7.48885514 -10.35344597 0 0 0 Z " fill="#362F35" transform="translate(860,1365)"/>
<path d="M0 0 C2.65798139 2.37408615 4.10737615 4.82113794 5.71484375 7.98828125 C6.22982422 8.99318604 6.74480469 9.99809082 7.27539062 11.03344727 C7.82388672 12.11553467 8.37238281 13.19762207 8.9375 14.3125 C13.19904289 22.6154697 17.50969156 30.88077695 22 39.0625 C22.49000488 39.95606201 22.98000977 40.84962402 23.48486328 41.77026367 C24.4835181 43.59037157 25.48254274 45.41027661 26.48193359 47.22998047 C30.78495572 55.08171559 35.03693098 62.96126133 39.29052734 70.83984375 C41.01723963 74.03186943 42.7525935 77.21909759 44.48828125 80.40625 C51.9446557 94.15119388 59.11560902 108.02213348 66.125 122 C66.53268616 122.81019592 66.94037231 123.62039185 67.3604126 124.45513916 C71.91311756 133.51471571 76.29354741 142.55444935 80 152 C75.15908295 151.42789162 71.17165839 149.9207006 66.8203125 147.82421875 C66.1383078 147.50289978 65.4563031 147.18158081 64.75363159 146.8505249 C62.54000282 145.80454481 60.33212477 144.74712867 58.125 143.6875 C56.6002997 142.95898353 55.07555983 142.23054987 53.55078125 141.50219727 C50.4875583 140.03690487 47.42728894 138.56562203 44.36816406 137.09179688 C40.42581674 135.19661636 36.46201875 133.35249294 32.4921875 131.515625 C30.32749401 130.49091523 28.16338681 129.46496559 26 128.4375 C24.50750732 127.76110474 24.50750732 127.76110474 22.98486328 127.07104492 C16.46292302 123.9113797 16.46292302 123.9113797 14.5 120.046875 C14.29006295 118.70397039 14.13165316 117.35282438 14 116 C13.76796875 114.49191772 13.76796875 114.49191772 13.53125 112.95336914 C12.96782726 109.24529147 12.47778991 105.5325514 12 101.8125 C11.82099518 100.44676253 11.64187618 99.08104001 11.46264648 97.71533203 C10.53954785 90.61242929 9.70732125 83.50907501 9.0625 76.375 C8.20826443 66.95809393 6.88296222 57.61022029 5.5625 48.25 C5.39763092 47.08047791 5.39763092 47.08047791 5.22943115 45.8873291 C5.0653476 44.72348694 5.0653476 44.72348694 4.89794922 43.53613281 C4.67930174 41.98503453 4.46071401 40.43392783 4.2421875 38.8828125 C4.08168411 37.74356323 4.08168411 37.74356323 3.91793823 36.58129883 C2.96127033 29.76843236 2.05221708 22.95018449 1.1875 16.125 C1.06383057 15.17012695 0.94016113 14.21525391 0.81274414 13.23144531 C0.25798815 8.78850604 -0.14073645 4.48875206 0 0 Z " fill="#B21B1A" transform="translate(729,2479)"/>
<path d="M0 0 C-0.45890625 0.60585937 -0.9178125 1.21171875 -1.390625 1.8359375 C-10.54201954 14.33258971 -13.74106071 26.82083157 -11.69140625 42.3359375 C-11.24862816 44.2559487 -10.62309674 46.13070978 -10 48 C-9.74347656 48.78761719 -9.48695312 49.57523438 -9.22265625 50.38671875 C-4.81921852 62.72768371 3.91443732 71.61068352 15.5 77.4375 C17.32762535 78.30381251 19.1590529 79.16236907 21 80 C17.89895593 81.03368136 16.81471644 80.99293103 13.6953125 80.46875 C12.81593018 80.32123291 11.93654785 80.17371582 11.03051758 80.02172852 C10.07169678 79.84955811 9.11287598 79.6773877 8.125 79.5 C7.12428467 79.32202881 6.12356934 79.14405762 5.0925293 78.96069336 C-3.38877517 77.39703581 -11.7945771 75.54315629 -20.1875 73.5625 C-21.37907715 73.28664063 -22.5706543 73.01078125 -23.79833984 72.7265625 C-37.71365964 69.35126626 -51.70033867 64.42853154 -61 53 C-62.79327538 49.75705066 -64.10062567 46.4123628 -65.375 42.9375 C-65.71660156 42.06544922 -66.05820312 41.19339844 -66.41015625 40.29492188 C-68.69603195 34.32725034 -70.11550635 28.73457203 -70.25 22.3125 C-70.27578125 21.56613281 -70.3015625 20.81976562 -70.328125 20.05078125 C-69.90221424 17.388839 -69.04812037 16.71718889 -67 15 C-64.99584961 14.14379883 -64.99584961 14.14379883 -62.65234375 13.45703125 C-61.75306152 13.19164551 -60.8537793 12.92625977 -59.92724609 12.65283203 C-58.94062988 12.37552246 -57.95401367 12.09821289 -56.9375 11.8125 C-55.90705566 11.51714355 -54.87661133 11.22178711 -53.81494141 10.91748047 C-6.79433076 -2.26477692 -6.79433076 -2.26477692 0 0 Z " fill="#FDFDFC" transform="translate(1058,1154)"/>
<path d="M0 0 C3.00109169 0.57807914 6.00076306 1.16243019 9 1.75 C9.81984375 1.90726563 10.6396875 2.06453125 11.484375 2.2265625 C24.73260965 4.83606326 37.77236469 8.3976743 50.76904297 12.03710938 C52.9211371 12.63787945 55.07575594 13.22901246 57.23046875 13.8203125 C58.60953804 14.20514537 59.98845088 14.59053947 61.3671875 14.9765625 C63.20966064 15.48823975 63.20966064 15.48823975 65.08935547 16.01025391 C68 17 68 17 70 19 C71.11262948 32.7966055 65.93510138 48.50255525 56.96484375 59.046875 C39.32384919 76.58265488 4.45683139 78.81113133 -19 81 C-16.22382405 78.82098775 -13.41414892 77.11069225 -10.3125 75.4375 C-1.03773 69.89726128 4.92911687 61.88186926 9 52 C9.47759766 50.94232422 9.47759766 50.94232422 9.96484375 49.86328125 C14.22241514 39.248783 13.08335993 25.28217067 8.671875 14.86328125 C6.12426083 9.63295216 3.27361722 4.79705381 0 0 Z " fill="#FEFDFD" transform="translate(1611,1155)"/>
<path d="M0 0 C0.33 0 0.66 0 1 0 C1 45.21 1 90.42 1 137 C-3.56884751 135.172461 -6.36598847 133.23412528 -9.9375 130.0625 C-14.57471719 126.03913027 -19.27917166 122.14472026 -24.125 118.375 C-25.28782919 117.46493162 -26.45059042 116.55477639 -27.61328125 115.64453125 C-29.29594899 114.32893846 -30.98003908 113.01544213 -32.66943359 111.70849609 C-34.22435831 110.50243569 -35.7686966 109.28276375 -37.3125 108.0625 C-38.19550781 107.37285156 -39.07851562 106.68320313 -39.98828125 105.97265625 C-42.18574053 103.81786608 -42.58182915 102.97493149 -43 100 C-42.0366961 97.18740784 -40.99776816 94.57043198 -39.79296875 91.86328125 C-39.26462936 90.63987534 -39.26462936 90.63987534 -38.72561646 89.39175415 C-37.55713563 86.6937894 -36.37241842 84.0032812 -35.1875 81.3125 C-34.36971894 79.43279385 -33.5529189 77.55266061 -32.73706055 75.67211914 C-30.17374071 69.77448934 -27.58796958 63.88684483 -25 58 C-24.1629364 56.09283907 -23.32602007 54.18561348 -22.48925781 52.27832031 C-15.84852971 37.14594283 -15.84852971 37.14594283 -13.10424805 30.94458008 C-8.57422916 20.69330913 -4.21461525 10.38497807 0 0 Z " fill="#DF9C72" transform="translate(1328,1258)"/>
<path d="M0 0 C0.66 0.33 1.32 0.66 2 1 C1.66226562 1.66644531 1.32453125 2.33289062 0.9765625 3.01953125 C-5.61187785 16.63437187 -6.71600298 29.1387889 -2.26953125 43.59375 C-0.43639425 48.51219758 1.97796341 52.72473039 5 57 C5.7425 58.051875 6.485 59.10375 7.25 60.1875 C16.41403289 69.55980637 27.25860266 73.93968894 40 76 C40 76.33 40 76.66 40 77 C29.35333656 78.5587272 18.76007567 79.27836434 8 79.4375 C6.30170044 79.48874023 6.30170044 79.48874023 4.5690918 79.54101562 C-4.81382038 79.59070814 -11.55729984 77.2486195 -18.6171875 71.01171875 C-19.71918277 69.91961424 -20.80493852 68.81091189 -21.875 67.6875 C-22.74838013 66.79140015 -22.74838013 66.79140015 -23.6394043 65.87719727 C-27.99854333 61.29835904 -31.98416709 56.46574947 -35.8125 51.4375 C-36.32216309 50.77129639 -36.83182617 50.10509277 -37.35693359 49.41870117 C-42.22984841 42.78645019 -42.22984841 42.78645019 -42 39 C-40.35417726 36.55416695 -38.7920533 34.58233929 -36.8125 32.4375 C-36.26440674 31.82543701 -35.71631348 31.21337402 -35.15161133 30.58276367 C-33.45296611 28.70377867 -31.73029628 26.84983316 -30 25 C-29.25314941 24.18740723 -29.25314941 24.18740723 -28.49121094 23.35839844 C-19.99871493 14.17310874 -10.39164442 6.92776295 0 0 Z " fill="#FDFDFC" transform="translate(1531,1162)"/>
<path d="M0 0 C7.52244417 3.69621331 13.64855819 8.57521231 20 14 C20.66257812 14.53882813 21.32515625 15.07765625 22.0078125 15.6328125 C26.53095249 19.34462694 30.23787143 23.5329361 34 28 C34.89835987 29.01424458 35.79819815 30.02718088 36.69921875 31.0390625 C37.63334468 32.10891057 38.56694009 33.17922208 39.5 34.25 C40.18703003 35.01111084 40.18703003 35.01111084 40.88793945 35.78759766 C44.00331877 39.41810899 44.00331877 39.41810899 43.98828125 42.0546875 C37.15406699 55.50701439 23.26800902 72.59391933 9.10864258 78.40893555 C4.7396441 79.63359056 0.25209943 79.3900234 -4.25 79.3125 C-5.29671875 79.30412109 -6.3434375 79.29574219 -7.421875 79.28710938 C-17.02379192 79.14144923 -26.48610689 78.25655192 -36 77 C-32.89360109 75.31828522 -29.82086643 74.30813779 -26.4375 73.3125 C-13.63205211 69.08045564 -4.86545281 61.84788017 1.3125 49.9375 C5.11104913 42.18429698 6.38877585 35.29102777 6.375 26.75 C6.37483887 25.81994141 6.37467773 24.88988281 6.37451172 23.93164062 C6.25854938 16.95436951 5.1200143 11.28557625 2 5 C1.3228797 3.33755291 0.6534509 1.67189239 0 0 Z " fill="#FDFCFC" transform="translate(1136,1160)"/>
<path d="M0 0 C1.79236067 0.47656412 3.58386897 0.95633498 5.375 1.4375 C6.37273437 1.70433594 7.37046875 1.97117187 8.3984375 2.24609375 C11 3 11 3 13 4 C15.0374763 4.22858114 17.08040303 4.41024278 19.125 4.5625 C20.76855469 4.68818359 20.76855469 4.68818359 22.4453125 4.81640625 C23.70988281 4.90728516 23.70988281 4.90728516 25 5 C22.82544408 12.7905163 20.09133039 20.29134164 17.125 27.8125 C16.64740234 29.02373535 16.16980469 30.2349707 15.67773438 31.48291016 C0.26245688 70.26402729 -17.73241886 109.03299606 -45 141 C-46.02217739 142.22804918 -47.04327122 143.45700251 -48.0625 144.6875 C-48.701875 145.450625 -49.34125 146.21375 -50 147 C-50 143.66437857 -49.3867735 142.53020545 -47.796875 139.66015625 C-47.07769897 138.33649048 -47.07769897 138.33649048 -46.34399414 136.98608398 C-45.81797607 136.02130127 -45.29195801 135.05651855 -44.75 134.0625 C-34.38279371 114.51594834 -26.24056405 94.32822527 -19.0625 73.4375 C-18.79309601 72.65728485 -18.52369202 71.8770697 -18.24612427 71.07321167 C-12.32291918 53.82856694 -7.90854127 36.35122872 -4.25 18.5 C-3.79616958 16.30431138 -3.3408895 14.10893792 -2.88372803 11.91394043 C-2.47855407 9.96600416 -2.07751705 8.0172087 -1.67675781 6.06835938 C-1 3 -1 3 0 0 Z " fill="#372F36" transform="translate(1800,1372)"/>
<path d="M0 0 C0.92374994 7.08208284 -1.83993113 11.39870877 -6 17 C-14.20706451 27.1814353 -23.88184995 36.67002529 -36 42 C-40.3902439 41.6097561 -40.3902439 41.6097561 -42 40 C-42.87693787 29.12597038 -39.0299584 19.30099999 -32 11 C-22.79600012 1.92183605 -12.68215671 -0.79678471 0 0 Z " fill="#FBFBFA" transform="translate(1094,1150)"/>
<path d="M0 0 C10.26867564 0.13301393 18.85898999 4.10314504 26.125 11.3125 C33.17229604 20.02524018 36.45625372 29.03409945 36.125 40.3125 C34.125 42.3125 34.125 42.3125 31.1875 42.4375 C25.2357275 41.37556549 20.68920019 37.01303247 16.125 33.3125 C15.27421875 32.62800781 14.4234375 31.94351562 13.546875 31.23828125 C8.6678488 27.08804041 4.54004912 22.60712305 0.625 17.5625 C0.203396 17.01956299 -0.21820801 16.47662598 -0.65258789 15.91723633 C-4.16970343 11.22510575 -6.37073537 7.26132447 -5.875 1.3125 C-4.2120151 -0.3504849 -2.28686385 0.06154449 0 0 Z " fill="#FBFBFA" transform="translate(1580.875,1151.6875)"/>
<path d="M0 0 C-2.29045368 0.22127098 -4.58244764 0.4266504 -6.875 0.625 C-8.78925781 0.79902344 -8.78925781 0.79902344 -10.7421875 0.9765625 C-11.81726562 0.98429687 -12.89234375 0.99203125 -14 1 C-14.66 0.34 -15.32 -0.32 -16 -1 C-14.56496445 -1.36402369 -13.12683494 -1.71586591 -11.6875 -2.0625 C-10.88699219 -2.25972656 -10.08648438 -2.45695312 -9.26171875 -2.66015625 C-5.68486561 -3.19761087 -3.10396112 -1.60549713 0 0 Z " fill="#DF9F79" transform="translate(1512,1059)"/>
</svg>
