<?xml version="1.0" encoding="UTF-8"?>
<svg version="1.1" xmlns="http://www.w3.org/2000/svg" width="2754" height="2754">
<path d="M0 0 C0.81270355 -0.00067474 1.6254071 -0.00134949 2.46273804 -0.00204468 C76.80517834 0.09434601 151.49056595 18.50220828 242.25 61.25 C243.36455566 61.80864746 244.47911133 62.36729492 245.62744141 62.94287109 C303.94139664 92.33724823 356.10080613 132.11672808 402.25 178.125 C402.745 178.61732117 403.24 179.10964233 403.75 179.61688232 C409.47152257 185.31486638 415.00870999 191.10492556 420.25 197.25 C421.27124143 198.4068902 422.29464781 199.56187326 423.3203125 200.71484375 C430.80031273 209.19064099 437.80756697 217.94014098 444.56884766 226.99804688 C445.71095583 228.52793445 446.85659373 230.05519201 448.00537109 231.58007812 C456.23949842 242.51093276 464.07398784 253.59425124 471.25 265.25 C471.75354004 266.06774902 472.25708008 266.88549805 472.77587891 267.72802734 C514.91030462 336.63874452 535.95010788 411.13202874 535.18896484 491.81445312 C535.17063089 494.22301772 535.15294961 496.63158736 535.13586426 499.04016113 C535.09908697 504.18707511 535.05992123 509.33396357 535.01951218 514.48085022 C534.95690819 522.62612196 534.91497948 530.77144847 534.87759399 538.91687012 C534.87280464 539.94959379 534.87280464 539.94959379 534.86791854 541.00318056 C534.84173692 546.66117062 534.81634713 552.31916419 534.79124805 557.97715914 C534.76872662 563.04532369 534.74547466 568.1134842 534.72119141 573.18164062 C534.71774049 573.90370192 534.71428957 574.62576321 534.71073408 575.36970514 C534.6535834 587.09810127 534.56051857 598.8259715 534.45545475 610.55402428 C534.34812389 622.63784525 534.28292892 634.72138736 534.25569689 646.80565596 C534.23918103 653.57419912 534.20318816 660.34145965 534.11753464 667.10951233 C534.0388537 673.46635459 534.01185396 679.82133731 534.02410889 686.17863464 C534.01949711 688.50590704 533.99609949 690.83323236 533.95219803 693.16009521 C533.21325115 706.81087247 533.21325115 706.81087247 539.08223212 718.49969053 C540.49050108 719.78668324 541.99796768 720.96269368 543.50867653 722.12773895 C548.02678977 725.62554424 550.50078719 730.32312126 553.25 735.25 C553.69859375 736.01441406 554.1471875 736.77882813 554.609375 737.56640625 C557.41666013 742.68710227 559.25593174 747.99331497 560.9375 753.5625 C561.14004395 754.22523926 561.34258789 754.88797852 561.55126953 755.57080078 C564.83080041 767.01223338 565.64101163 778.51984028 565.625 790.375 C565.62418427 791.40997116 565.62418427 791.40997116 565.62335205 792.46585083 C565.44825461 841.35235503 550.64841506 892.05139589 517.5625 928.625 C517.11076416 929.12547852 516.65902832 929.62595703 516.19360352 930.14160156 C514.11129759 932.40236901 512.224431 934.26626082 509.62109375 935.921875 C505.86852931 939.6064358 505.25501777 944.12339085 504 949.125 C500.69073952 961.297531 496.37679969 972.73526273 491.25 984.25 C490.86473145 985.11689453 490.47946289 985.98378906 490.08251953 986.87695312 C477.45410712 1014.96346802 461.02261874 1041.15708931 443.25 1066.25 C442.7358252 1066.97670898 442.22165039 1067.70341797 441.69189453 1068.45214844 C434.48406263 1078.60676893 427.06645367 1088.55588492 419.25 1098.25 C418.49203125 1099.19101563 417.7340625 1100.13203125 416.953125 1101.1015625 C411.61943434 1107.66464994 406.16645088 1114.12536323 400.68261719 1120.56298828 C399.26400845 1122.23350403 397.85406198 1123.91101042 396.4453125 1125.58984375 C383.50585457 1140.94768459 369.42483406 1155.16840646 355.25 1169.375 C354.56996918 1170.05770966 353.88993835 1170.74041931 353.18930054 1171.44381714 C346.38725894 1178.26616058 339.61222132 1185.02671091 332.25 1191.25 C330.47429779 1192.86967817 328.70291693 1194.49411718 326.9375 1196.125 C320.93865952 1201.59042785 314.69858644 1206.73240756 308.33447266 1211.76464844 C299.06687982 1219.0972012 290.65815063 1226.66535994 282.734375 1235.43359375 C279.0653946 1239.49148607 275.24353563 1243.38291471 271.375 1247.25 C270.78058105 1247.84868896 270.18616211 1248.44737793 269.57373047 1249.06420898 C265.29857396 1253.32686504 260.83915377 1257.3289437 256.25 1261.25 C255.60579102 1261.80091309 254.96158203 1262.35182617 254.29785156 1262.91943359 C244.01949614 1271.64085235 233.44558659 1279.74272605 222.25 1287.25 C221.53714844 1287.73146484 220.82429688 1288.21292969 220.08984375 1288.70898438 C161.0686749 1328.25 161.0686749 1328.25 136.25 1328.25 C136.25 1343.76 136.25 1359.27 136.25 1375.25 C141.2 1376.24 146.15 1377.23 151.25 1378.25 C154.99819812 1379.23154985 158.67862375 1380.23618529 162.375 1381.375 C163.82797485 1381.82178101 163.82797485 1381.82178101 165.31030273 1382.27758789 C196.77760717 1392.25215861 223.6754648 1409.89705702 246.58984375 1433.58984375 C248.4127788 1435.46845517 248.4127788 1435.46845517 251.3125 1437.75 C254.38324276 1440.36339809 256.86645176 1443.16022341 259.47265625 1446.22265625 C261.11880511 1448.10035132 262.82735116 1449.83127698 264.625 1451.5625 C268.31464842 1455.19488115 271.51017297 1459.1580405 274.75 1463.19140625 C276.47229906 1465.29853151 278.20428686 1467.36090803 280 1469.40234375 C280.4509884 1469.91809495 280.9019768 1470.43384615 281.36663151 1470.96522617 C282.3785291 1472.11491398 283.40045968 1473.25588674 284.43444729 1474.38574886 C287.38053983 1477.70377153 289.63279075 1480.80564125 291.50196838 1484.83998108 C295.0776767 1491.91957455 299.37371806 1497.98996261 307.0577507 1500.82282639 C318.00042917 1504.25015313 329.55058429 1505.66565811 340.86511302 1507.30456042 C345.89410647 1508.05100385 350.90743957 1508.89121149 355.92323303 1509.72096252 C365.42689 1511.27884051 374.94141531 1512.75408059 384.46281868 1514.19905478 C395.21573167 1515.834845 405.95359151 1517.56035015 416.69097316 1519.29473007 C434.34810075 1522.14578938 452.01423085 1524.93230556 469.69128883 1527.6569308 C480.56280825 1529.33407153 491.4208192 1531.0556932 502.23598385 1533.07150173 C508.2199867 1534.16506936 514.18812096 1534.76896682 520.25 1535.25 C547.87349054 1537.60277721 570.35610454 1550.41961467 590.25 1569.25 C591.54164063 1570.44496094 591.54164063 1570.44496094 592.859375 1571.6640625 C610.74269971 1588.77209857 623.74369187 1610.53117649 635.25 1632.25 C635.67216797 1633.03842285 636.09433594 1633.8268457 636.52929688 1634.63916016 C666.00262465 1690.07339281 682.11369817 1752.11569198 696.6640625 1812.81799316 C697.34105699 1815.62794341 698.03216129 1818.43423045 698.72949219 1821.23919678 C702.93684242 1838.69269459 705.42558618 1856.23543755 707.60546875 1874.0390625 C707.75626326 1875.25845898 707.90705776 1876.47785545 708.0624218 1877.73420334 C711.17111954 1902.90371797 713.90182327 1928.10603475 716.45430756 1953.33737564 C716.82345121 1956.98315771 717.19466039 1960.6287252 717.56622314 1964.27426147 C725.56470487 2042.84019334 732.84614336 2121.47930579 751.25 2331.25 C751.36175316 2332.5523912 751.47350632 2333.85478241 751.58864594 2335.19664001 C752.87240533 2350.16622526 754.14683558 2365.13656582 755.40312576 2380.10848236 C755.62174384 2382.71123388 755.84129267 2385.31390556 756.06100464 2387.91656494 C756.38997025 2391.81828211 756.71532969 2395.72028171 757.03735542 2399.62257767 C757.2029152 2401.62187296 757.37139522 2403.6209258 757.5400238 2405.6199646 C757.80176917 2408.8288522 758.03433513 2412.03774028 758.25 2415.25 C758.32021362 2416.06968765 758.39042725 2416.88937531 758.46276855 2417.73390198 C758.64406094 2421.00832108 758.69534505 2422.73968304 756.49121094 2425.26538086 C755.66395508 2425.74370361 754.83669922 2426.22202637 753.984375 2426.71484375 C752.5765979 2427.56006592 752.5765979 2427.56006592 751.14038086 2428.42236328 C750.10405518 2429.0048584 749.06772949 2429.58735352 748 2430.1875 C746.39233765 2431.13858643 746.39233765 2431.13858643 744.75219727 2432.10888672 C742.45063549 2433.47015912 740.14531519 2434.82042917 737.83056641 2436.15869141 C734.26198573 2438.23058618 730.74226388 2440.37654901 727.23046875 2442.54296875 C713.74022655 2450.85436014 700.116641 2458.89226106 686.25830078 2466.578125 C683.08155835 2468.34361211 679.91380547 2470.12461599 676.74609375 2471.90625 C565.40555822 2534.25 565.40555822 2534.25 548.25 2534.25 C546.27582051 2519.00877078 544.99669405 2503.70433061 543.67214668 2488.39636433 C543.33364924 2484.49095769 542.9921411 2480.58581407 542.65104675 2476.68063354 C541.98167194 2469.01137569 541.31509454 2461.34187719 540.6495352 2453.67228737 C540.10093088 2447.35101338 539.55130081 2441.02982931 539.0009861 2434.70870399 C538.88213141 2433.34347071 538.88213141 2433.34347071 538.76087562 2431.95065695 C538.59960511 2430.09825195 538.43833268 2428.2458471 538.27705834 2426.39344243 C536.76145243 2408.98369312 535.24905553 2391.57366616 533.73773626 2374.16354427 C532.47376445 2359.60368174 531.20707868 2345.04405766 529.93823242 2330.48461914 C521.94647422 2238.77783341 514.08074227 2147.06204553 503.25 2016.25 C502.01057567 2023.78118647 500.77336853 2031.3127349 499.53760815 2038.84452343 C499.11810862 2041.39974871 498.69812576 2043.95489469 498.27762508 2046.50995541 C495.29004839 2064.66586544 492.42599153 2082.81352511 490.0625 2101.0625 C489.9045697 2102.26156982 489.7466394 2103.46063965 489.58392334 2104.69604492 C487.06641796 2123.85058539 484.86988802 2143.03433235 482.875 2162.25 C482.75339508 2163.41632965 482.63179016 2164.5826593 482.50650024 2165.78433228 C481.20633392 2178.36393624 480.06692783 2190.94904436 479.1484375 2203.5625 C479.07146637 2204.60946045 478.99449524 2205.6564209 478.91519165 2206.73510742 C477.7034823 2224.12517418 477.03329512 2241.52166181 477.0390625 2258.953125 C477.03860554 2259.91941078 477.03814857 2260.88569656 477.03767776 2261.88126373 C477.06378815 2297.53136918 478.34665718 2333.18065814 479.36382604 2368.8127656 C479.65270329 2378.94223969 479.93335545 2389.07193655 480.21356535 2399.20165348 C481.04282847 2429.15602551 481.87577448 2459.11034677 482.78659225 2489.06236601 C482.85948795 2491.46180748 482.9320251 2493.86125952 483.00444221 2496.26071548 C483.05118147 2497.80818963 483.09792856 2499.35566354 483.14468384 2500.90313721 C483.16732304 2501.6526302 483.18996224 2502.40212319 483.21328747 2503.17432809 C483.34256252 2507.44240755 483.4749452 2511.71037585 483.60974562 2515.97828412 C484.07378053 2530.74118425 484.37202851 2545.47960893 484.25 2560.25 C392.70255968 2591.94299084 300.11815661 2616.42711863 99.6875 2641 C98.77865051 2641.05916595 97.86980103 2641.11833191 96.93341064 2641.17929077 C90.70762283 2641.57766898 84.48002843 2641.92533199 78.25 2642.25 C77.36618652 2642.2983902 76.48237305 2642.3467804 75.57177734 2642.39663696 C55.90982868 2643.44677977 36.23954484 2643.43748281 16.55566406 2643.43530273 C12.80073148 2643.4352222 9.0459228 2643.44206415 5.29101562 2643.45581055 C-30.26867935 2643.58370315 -65.74156755 2642.46170423 -101.1875 2639.5 C-102.19908173 2639.41696625 -103.21066345 2639.3339325 -104.25289917 2639.24838257 C-204.57560628 2630.94884579 -303.7251229 2612.0918486 -444.75 2567.25 C-446.47935791 2566.66049561 -446.47935791 2566.66049561 -448.24365234 2566.05908203 C-451.14382127 2565.06648461 -454.04163027 2564.06756243 -456.9375 2563.0625 C-457.74509766 2562.7830957 -458.55269531 2562.50369141 -459.38476562 2562.21582031 C-464.62740699 2560.37259301 -464.62740699 2560.37259301 -465.75 2559.25 C-465.77651541 2556.7590226 -465.73586954 2554.29946239 -465.65161133 2551.8112793 C-465.62883684 2551.01864056 -465.60606236 2550.22600182 -465.58259773 2549.40934372 C-465.50392711 2546.71413462 -465.41788623 2544.0192079 -465.33203125 2541.32421875 C-465.27382988 2539.37786731 -465.21610884 2537.43150145 -465.15882874 2535.48512268 C-465.03268797 2531.23083293 -464.90335334 2526.97665587 -464.77166748 2522.72253418 C-464.55948124 2515.86367944 -464.35450821 2509.00462127 -464.15087891 2502.14550781 C-463.92956787 2494.70062278 -463.70784987 2487.25575122 -463.48394775 2479.8109436 C-462.637635 2451.65827531 -461.82668303 2423.5046052 -461.02164173 2395.35072994 C-460.80362665 2387.7273091 -460.58498502 2380.10390756 -460.3644104 2372.4805603 C-459.17507361 2331.45318829 -459.17507361 2331.45318829 -458.1328125 2290.421875 C-458.11202511 2289.56988777 -458.09123772 2288.71790054 -458.0698204 2287.84009552 C-457.84693288 2278.6205061 -457.71563243 2269.40506665 -457.70751953 2260.18261719 C-457.70593432 2258.91782595 -457.70593432 2258.91782595 -457.70431709 2257.62748337 C-457.71648248 2248.32542036 -458.06779489 2239.04082858 -458.5 2229.75 C-458.54290161 2228.81624542 -458.58580322 2227.88249084 -458.63000488 2226.92044067 C-461.79360288 2159.60492751 -471.20125235 2092.46208994 -482.28344727 2026.04251099 C-482.42484383 2025.19462289 -482.56624039 2024.34673479 -482.71192169 2023.47315311 C-483.05786684 2021.39875524 -483.40392218 2019.32437574 -483.75 2017.25 C-486.32318042 2045.95168167 -488.82926027 2074.65842813 -491.26795387 2103.37183952 C-491.83671875 2110.06826125 -492.4069708 2116.76455591 -492.97746277 2123.46083069 C-493.07682505 2124.62716893 -493.17618732 2125.79350718 -493.27856058 2126.99518901 C-493.48241189 2129.38803112 -493.68626638 2131.78087295 -493.89012396 2134.17371452 C-494.20194532 2137.83420042 -494.51367402 2141.4946942 -494.82537365 2145.15519047 C-497.24956776 2173.62342781 -499.67832005 2202.09127527 -502.11328125 2230.55859375 C-502.17033463 2231.22561368 -502.22738801 2231.89263361 -502.28617027 2232.57986626 C-507.55064638 2294.12391132 -512.89510575 2355.66089886 -518.27197266 2417.19522095 C-518.82734055 2423.55108452 -519.38234133 2429.90698008 -519.9372409 2436.26288456 C-521.08974352 2449.46348527 -522.24365879 2462.66396158 -523.39931679 2475.86428642 C-523.782991 2480.24677672 -524.16626468 2484.62930174 -524.5491848 2489.01185799 C-524.98985799 2494.05469578 -525.43158488 2499.09744015 -525.87416458 2504.14011097 C-526.03400581 2505.96311683 -526.19349845 2507.7861533 -526.35260582 2509.60922337 C-526.56910368 2512.08910275 -526.78691202 2514.56886373 -527.00505066 2517.04859924 C-527.06631156 2517.75376161 -527.12757245 2518.45892398 -527.19068974 2519.18545491 C-527.63523984 2524.21590245 -528.1750819 2529.23285362 -528.75 2534.25 C-538.44896449 2530.66439089 -547.85482441 2526.61786792 -557.25 2522.3125 C-557.96076691 2521.98807922 -558.67153381 2521.66365845 -559.40383911 2521.32940674 C-574.29697879 2514.52888445 -589.05644003 2507.47197625 -603.75 2500.25 C-605.44576172 2499.41855469 -605.44576172 2499.41855469 -607.17578125 2498.5703125 C-621.24758059 2491.6561412 -635.13599944 2484.47846096 -648.84082031 2476.86279297 C-651.96897959 2475.12860195 -655.1051697 2473.40951682 -658.2421875 2471.69140625 C-673.63592443 2463.2351756 -688.76414568 2454.40789546 -703.75 2445.25 C-704.9073647 2444.54390495 -706.06475462 2443.83785125 -707.22216797 2443.13183594 C-710.73424326 2440.98827822 -714.24283339 2438.83907771 -717.75 2436.6875 C-719.35210327 2435.70535522 -719.35210327 2435.70535522 -720.98657227 2434.70336914 C-722.99141378 2433.46838422 -724.98734193 2432.21877426 -726.97265625 2430.95263672 C-729.69613189 2429.22187035 -729.69613189 2429.22187035 -732.49609375 2427.91064453 C-735.10347589 2426.54339598 -736.79467863 2425.45197657 -738.75 2423.25 C-739.15302372 2420.57165527 -739.15302372 2420.57165527 -739.04981995 2417.41601562 C-739.01541368 2416.25183609 -738.98100742 2415.08765656 -738.94555855 2413.88819885 C-738.62887923 2407.99665203 -738.21301026 2402.12408572 -737.70288086 2396.24609375 C-737.58850103 2394.88265195 -737.47458444 2393.51917123 -737.36108494 2392.15565586 C-737.0509233 2388.44700582 -736.73388681 2384.73897278 -736.41546249 2381.03102422 C-736.14283062 2377.84627991 -735.87417507 2374.66120501 -735.6055311 2371.4761222 C-734.79776182 2361.89921783 -733.97952334 2352.3232256 -733.15851974 2342.74744797 C-732.68519356 2337.22606133 -732.21408331 2331.7044868 -731.74319458 2326.18289185 C-724.27832206 2238.68933562 -716.51526304 2151.21991946 -691.6875 1901.6875 C-691.5981443 1900.88778652 -691.5087886 1900.08807304 -691.41672516 1899.26412582 C-688.35695593 1871.89712301 -684.97574623 1844.76443279 -678.625 1817.9375 C-678.13846341 1815.85362667 -677.65205652 1813.76972306 -677.16577148 1811.68579102 C-658.42672624 1731.84312087 -636.07327767 1638.94884658 -578.69921875 1577.3515625 C-576.95472294 1575.47072333 -575.31532432 1573.54381969 -573.6875 1571.5625 C-570.36919461 1567.69712264 -566.71404384 1564.44360271 -562.75 1561.25 C-561.99831543 1560.63850098 -561.99831543 1560.63850098 -561.23144531 1560.01464844 C-543.0952967 1545.43962483 -522.44918416 1537.15241396 -499.2816925 1534.91505432 C-484.33717902 1533.45302626 -469.57711866 1530.82270926 -454.78477645 1528.29536891 C-450.85180168 1527.62455657 -446.91782318 1526.95967925 -442.98396301 1526.29408264 C-435.49986172 1525.02689876 -428.01664867 1523.75454834 -420.53375179 1522.48027378 C-414.68684797 1521.48476901 -408.83954683 1520.49163065 -402.99194336 1519.50024414 C-402.17658831 1519.36197688 -401.36123327 1519.22370963 -400.5211705 1519.08125246 C-396.42628012 1518.38696316 -392.33126073 1517.69344701 -388.23604012 1517.00110817 C-380.17528481 1515.6374119 -372.11705739 1514.26098973 -364.06295776 1512.85848999 C-360.9268431 1512.31409371 -357.79044496 1511.77136256 -354.65380859 1511.22998047 C-353.5088991 1511.03221893 -353.5088991 1511.03221893 -352.34086013 1510.83046222 C-343.08562706 1509.2389911 -333.83029791 1507.80451227 -324.51652431 1506.60067272 C-319.59250336 1505.96360173 -314.67665443 1505.27266323 -309.76021767 1504.57980537 C-306.49295785 1504.14611913 -303.22480884 1503.80237847 -299.94682312 1503.46141052 C-290.08491106 1502.19401436 -283.80337854 1500.52110119 -277.50326061 1492.46214962 C-275.24278124 1489.22860018 -273.17352121 1485.9143817 -271.16737938 1482.51827812 C-269.06579289 1479.1550412 -266.56172544 1476.21236083 -263.9375 1473.25 C-260.55095033 1469.34758404 -257.2368657 1465.40334213 -254 1461.375 C-250.98062519 1457.66256585 -247.85367521 1454.231974 -244.4140625 1450.91015625 C-242.67712187 1449.17729295 -241.09154672 1447.36686167 -239.5 1445.5 C-232.55005907 1437.45680994 -224.85502424 1430.11475363 -216.75 1423.25 C-215.81929687 1422.43015625 -214.88859375 1421.6103125 -213.9296875 1420.765625 C-185.71921348 1396.0864448 -145.13351462 1375.25 -106.75 1375.25 C-106.75 1357.43 -106.75 1339.61 -106.75 1321.25 C-110.05 1320.26 -113.35 1319.27 -116.75 1318.25 C-119.01625289 1317.30751861 -121.26081452 1316.31001548 -123.47265625 1315.24609375 C-124.66205811 1314.67552246 -125.85145996 1314.10495117 -127.0769043 1313.51708984 C-128.32255434 1312.90814923 -129.56774447 1312.29826703 -130.8125 1311.6875 C-131.77284653 1311.21972137 -131.77284653 1311.21972137 -132.75259399 1310.74249268 C-145.36761762 1304.58906244 -157.41158154 1297.92771485 -168.99804688 1289.99707031 C-176.90341166 1284.59166254 -184.96651032 1279.84914928 -193.4375 1275.375 C-230.7039035 1255.65957367 -265.64292918 1231.25506725 -297.67578125 1203.85546875 C-300.44699155 1201.49135813 -303.27927189 1199.21156042 -306.125 1196.9375 C-311.39826087 1192.652493 -316.34381939 1188.05695987 -321.27294922 1183.38549805 C-324.3024246 1180.5165709 -327.35868116 1177.70536016 -330.52246094 1174.98461914 C-334.52561277 1171.49097611 -338.3165842 1167.82857384 -342.06640625 1164.06640625 C-342.72656235 1163.40720688 -343.38671844 1162.74800751 -344.06687927 1162.0688324 C-345.45035506 1160.68603165 -346.83259083 1159.30198924 -348.21362305 1157.91674805 C-350.30731669 1155.81769657 -352.40629874 1153.7240406 -354.50585938 1151.63085938 C-355.85969571 1150.27636214 -357.21322175 1148.92155469 -358.56640625 1147.56640625 C-359.18326797 1146.95156876 -359.8001297 1146.33673126 -360.4356842 1145.70326233 C-364.17914727 1141.93994374 -367.73548219 1138.05908633 -371.20045471 1134.03765869 C-373.44750097 1131.44531641 -375.78668094 1128.94785755 -378.125 1126.4375 C-383.24064836 1120.89336143 -388.02237548 1115.12902985 -392.75 1109.25 C-393.7225947 1108.06788715 -394.69663895 1106.88696594 -395.671875 1105.70703125 C-429.42342621 1064.77351873 -480.67308508 1002.25052997 -479.8125 946.3125 C-479.80347656 945.54035156 -479.79445313 944.76820313 -479.78515625 943.97265625 C-479.76775391 943.11994141 -479.76775391 943.11994141 -479.75 942.25 C-480.31589844 942.01667969 -480.88179687 941.78335938 -481.46484375 941.54296875 C-503.73207814 928.94390109 -517.3076918 893.13651471 -523.88720703 870.3828125 C-534.90364031 830.38199985 -543.26167249 783.02987849 -523.4375 744.375 C-519.1746748 736.90349726 -514.27720838 730.35414343 -507.6875 724.8125 C-505.78192715 722.9043084 -504.80516486 721.88873128 -504.56982422 719.16381836 C-504.6679541 718.35565674 -504.76608398 717.54749512 -504.8671875 716.71484375 C-504.98602295 715.73378662 -505.1048584 714.75272949 -505.22729492 713.74194336 C-506.08523006 708.01048785 -507.03872923 702.29751482 -508.02246094 696.58642578 C-519.08068821 632.34687517 -525.07373791 566.47329204 -523.75 501.25 C-523.73066406 500.11997559 -523.71132813 498.98995117 -523.69140625 497.82568359 C-522.00218735 408.75664905 -499.70731338 321.30459495 -457.75 231.25 C-457.2849707 230.26338379 -456.81994141 229.27676758 -456.34082031 228.26025391 C-443.28274576 200.73391305 -427.09200291 173.83310654 -407.75 150.25 C-407.31913086 149.72438477 -406.88826172 149.19876953 -406.44433594 148.65722656 C-403.27080593 144.80381737 -400.03380924 141.00974048 -396.75 137.25 C-396.31075195 136.7461377 -395.87150391 136.24227539 -395.41894531 135.72314453 C-369.66183565 106.38600666 -334.35892238 80.47860526 -294.6015625 75.49609375 C-277.6509719 74.41304384 -259.79871325 73.78093384 -243.6171875 79.7265625 C-239.54077388 81.16158718 -236.10359996 82.12780956 -231.75 82.25 C-227.23765325 79.84233297 -224.09155696 76.58231777 -220.53710938 72.95703125 C-217.33043981 69.89404851 -213.7349239 67.37535616 -210.125 64.8125 C-209.35937744 64.26658203 -208.59375488 63.72066406 -207.80493164 63.15820312 C-146.82007422 20.0876872 -74.27734902 0.05659994 0 0 Z " fill="#53AEA3" transform="translate(1367.75,110.75)"/>
<path d="M0 0 C0.81270355 -0.00067474 1.6254071 -0.00134949 2.46273804 -0.00204468 C76.80517834 0.09434601 151.49056595 18.50220828 242.25 61.25 C243.36455566 61.80864746 244.47911133 62.36729492 245.62744141 62.94287109 C303.94139664 92.33724823 356.10080613 132.11672808 402.25 178.125 C402.745 178.61732117 403.24 179.10964233 403.75 179.61688232 C409.47152257 185.31486638 415.00870999 191.10492556 420.25 197.25 C421.27124143 198.4068902 422.29464781 199.56187326 423.3203125 200.71484375 C430.80031273 209.19064099 437.80756697 217.94014098 444.56884766 226.99804688 C445.71095583 228.52793445 446.85659373 230.05519201 448.00537109 231.58007812 C456.23949842 242.51093276 464.07398784 253.59425124 471.25 265.25 C471.75354004 266.06774902 472.25708008 266.88549805 472.77587891 267.72802734 C514.91030462 336.63874452 535.95010788 411.13202874 535.18896484 491.81445312 C535.17063089 494.22301772 535.15294961 496.63158736 535.13586426 499.04016113 C535.09908697 504.18707511 535.05992123 509.33396357 535.01951218 514.48085022 C534.95690819 522.62612196 534.91497948 530.77144847 534.87759399 538.91687012 C534.87280464 539.94959379 534.87280464 539.94959379 534.86791854 541.00318056 C534.84173692 546.66117062 534.81634713 552.31916419 534.79124805 557.97715914 C534.76872662 563.04532369 534.74547466 568.1134842 534.72119141 573.18164062 C534.71774049 573.90370192 534.71428957 574.62576321 534.71073408 575.36970514 C534.6535834 587.09810127 534.56051857 598.8259715 534.45545475 610.55402428 C534.34812389 622.63784525 534.28292892 634.72138736 534.25569689 646.80565596 C534.23918103 653.57419912 534.20318816 660.34145965 534.11753464 667.10951233 C534.0388537 673.46635459 534.01185396 679.82133731 534.02410889 686.17863464 C534.01949711 688.50590704 533.99609949 690.83323236 533.95219803 693.16009521 C533.21325115 706.81087247 533.21325115 706.81087247 539.08223212 718.49969053 C540.49050108 719.78668324 541.99796768 720.96269368 543.50867653 722.12773895 C548.02678977 725.62554424 550.50078719 730.32312126 553.25 735.25 C553.69859375 736.01441406 554.1471875 736.77882813 554.609375 737.56640625 C557.41666013 742.68710227 559.25593174 747.99331497 560.9375 753.5625 C561.14004395 754.22523926 561.34258789 754.88797852 561.55126953 755.57080078 C564.83080041 767.01223338 565.64101163 778.51984028 565.625 790.375 C565.62418427 791.40997116 565.62418427 791.40997116 565.62335205 792.46585083 C565.44825461 841.35235503 550.64841506 892.05139589 517.5625 928.625 C517.11076416 929.12547852 516.65902832 929.62595703 516.19360352 930.14160156 C514.11129759 932.40236901 512.224431 934.26626082 509.62109375 935.921875 C505.86852931 939.6064358 505.25501777 944.12339085 504 949.125 C500.69073952 961.297531 496.37679969 972.73526273 491.25 984.25 C490.86473145 985.11689453 490.47946289 985.98378906 490.08251953 986.87695312 C477.45410712 1014.96346802 461.02261874 1041.15708931 443.25 1066.25 C442.7358252 1066.97670898 442.22165039 1067.70341797 441.69189453 1068.45214844 C434.48406263 1078.60676893 427.06645367 1088.55588492 419.25 1098.25 C418.49203125 1099.19101563 417.7340625 1100.13203125 416.953125 1101.1015625 C411.61943434 1107.66464994 406.16645088 1114.12536323 400.68261719 1120.56298828 C399.26400845 1122.23350403 397.85406198 1123.91101042 396.4453125 1125.58984375 C383.50585457 1140.94768459 369.42483406 1155.16840646 355.25 1169.375 C354.56996918 1170.05770966 353.88993835 1170.74041931 353.18930054 1171.44381714 C346.38725894 1178.26616058 339.61222132 1185.02671091 332.25 1191.25 C330.47429779 1192.86967817 328.70291693 1194.49411718 326.9375 1196.125 C320.93865952 1201.59042785 314.69858644 1206.73240756 308.33447266 1211.76464844 C299.06687982 1219.0972012 290.65815063 1226.66535994 282.734375 1235.43359375 C279.0653946 1239.49148607 275.24353563 1243.38291471 271.375 1247.25 C270.78058105 1247.84868896 270.18616211 1248.44737793 269.57373047 1249.06420898 C265.29857396 1253.32686504 260.83915377 1257.3289437 256.25 1261.25 C255.60579102 1261.80091309 254.96158203 1262.35182617 254.29785156 1262.91943359 C244.01949614 1271.64085235 233.44558659 1279.74272605 222.25 1287.25 C221.53714844 1287.73146484 220.82429688 1288.21292969 220.08984375 1288.70898438 C161.0686749 1328.25 161.0686749 1328.25 136.25 1328.25 C136.25 1375.11 136.25 1421.97 136.25 1470.25 C151.71940748 1473.41691311 151.71940748 1473.41691311 167.25 1476.25 C167.4975 1475.6725 167.745 1475.095 168 1474.5 C169.41683317 1471.9497003 171.12627537 1470.23214299 173.25 1468.25 C170.97654829 1475.55861321 168.08431934 1482.43014955 164.875 1489.375 C164.35115723 1490.5086499 163.82731445 1491.6422998 163.28759766 1492.81030273 C158.30031721 1503.42731052 152.673382 1513.6062422 146.73583984 1523.71630859 C145.39858568 1525.99662797 144.08007721 1528.28629777 142.76953125 1530.58203125 C132.36853074 1548.69269749 120.98644908 1566.29185005 108.73291016 1583.20214844 C107.1619748 1585.37155998 105.6018748 1587.54849323 104.04296875 1589.7265625 C93.72613939 1604.1130805 83.1082362 1618.2681616 72.25 1632.25 C71.82928223 1632.79301758 71.40856445 1633.33603516 70.97509766 1633.89550781 C60.99402504 1646.76100164 50.63834745 1659.31997022 40.08203125 1671.71679688 C37.25387988 1675.0428033 34.48964228 1678.413404 31.75 1681.8125 C27.63012399 1686.87743717 23.26354876 1691.670947 18.828125 1696.45703125 C13.79519432 1701.90937282 8.97138222 1707.52711246 4.25 1713.25 C0.16981497 1711.697447 -2.12753323 1708.78692755 -4.8125 1705.5 C-5.29291748 1704.92217773 -5.77333496 1704.34435547 -6.26831055 1703.74902344 C-10.06780426 1699.1522122 -13.75517938 1694.46893585 -17.41455078 1689.76025391 C-21.08184517 1685.05473006 -24.87218292 1680.46087274 -28.6875 1675.875 C-34.76503409 1668.54371176 -40.54849065 1661.03619323 -46.19189453 1653.3671875 C-47.84071716 1651.12673156 -49.49616547 1648.8912731 -51.15234375 1646.65625 C-54.69771397 1641.86339874 -58.23519219 1637.06532677 -61.75 1632.25 C-62.20223938 1631.6328714 -62.65447876 1631.0157428 -63.12042236 1630.37991333 C-71.62825173 1618.7579149 -79.78837145 1606.93934038 -87.75 1594.9375 C-88.31715729 1594.08427155 -88.88431458 1593.23104309 -89.46865845 1592.35195923 C-97.80879961 1579.79885533 -106.08049488 1567.2278312 -113.75 1554.25 C-114.33749023 1553.2585498 -114.92498047 1552.26709961 -115.53027344 1551.24560547 C-126.92379933 1531.94104785 -137.7156416 1512.4388088 -146.8125 1491.9375 C-147.26592773 1490.917771 -147.71935547 1489.89804199 -148.18652344 1488.84741211 C-150.83436784 1482.75204212 -153.00750448 1476.663829 -154.75 1470.25 C-150.83815891 1469.04618491 -146.91989104 1467.86481281 -143 1466.6875 C-141.88882812 1466.34525391 -140.77765625 1466.00300781 -139.6328125 1465.65039062 C-138.02792969 1465.17182617 -138.02792969 1465.17182617 -136.390625 1464.68359375 C-135.40610352 1464.38509521 -134.42158203 1464.08659668 -133.40722656 1463.77905273 C-130.69979406 1463.24000402 -129.2874451 1463.2219218 -126.75 1464.25 C-125.265625 1466.09765625 -125.265625 1466.09765625 -124 1468.3125 C-123.57203125 1469.04597656 -123.1440625 1469.77945312 -122.703125 1470.53515625 C-122.38859375 1471.10105469 -122.0740625 1471.66695312 -121.75 1472.25 C-120.595 1472.105625 -119.44 1471.96125 -118.25 1471.8125 C-115.36393229 1471.45174154 -112.47786458 1471.09098307 -109.59179688 1470.73022461 C-108.32400391 1470.57175049 -107.05621094 1470.41327637 -105.75 1470.25 C-105.76252808 1469.17974579 -105.77505615 1468.10949158 -105.78796387 1467.00680542 C-105.94695689 1453.37959218 -106.10046996 1439.75232031 -106.25 1426.125 C-106.26781588 1424.50182924 -106.26781588 1424.50182924 -106.28599167 1422.84586716 C-106.65594721 1388.97893023 -106.90581393 1355.11915356 -106.75 1321.25 C-107.39388168 1321.06828751 -108.03776337 1320.88657501 -108.70115662 1320.69935608 C-113.83002581 1319.21335858 -118.64766786 1317.56696957 -123.47265625 1315.24609375 C-124.66205811 1314.67552246 -125.85145996 1314.10495117 -127.0769043 1313.51708984 C-128.32255434 1312.90814923 -129.56774447 1312.29826703 -130.8125 1311.6875 C-131.77284653 1311.21972137 -131.77284653 1311.21972137 -132.75259399 1310.74249268 C-145.36761762 1304.58906244 -157.41158154 1297.92771485 -168.99804688 1289.99707031 C-176.90341166 1284.59166254 -184.96651032 1279.84914928 -193.4375 1275.375 C-230.7039035 1255.65957367 -265.64292918 1231.25506725 -297.67578125 1203.85546875 C-300.44699155 1201.49135813 -303.27927189 1199.21156042 -306.125 1196.9375 C-311.39826087 1192.652493 -316.34381939 1188.05695987 -321.27294922 1183.38549805 C-324.3024246 1180.5165709 -327.35868116 1177.70536016 -330.52246094 1174.98461914 C-334.52561277 1171.49097611 -338.3165842 1167.82857384 -342.06640625 1164.06640625 C-342.72656235 1163.40720688 -343.38671844 1162.74800751 -344.06687927 1162.0688324 C-345.45035506 1160.68603165 -346.83259083 1159.30198924 -348.21362305 1157.91674805 C-350.30731669 1155.81769657 -352.40629874 1153.7240406 -354.50585938 1151.63085938 C-355.85969571 1150.27636214 -357.21322175 1148.92155469 -358.56640625 1147.56640625 C-359.18326797 1146.95156876 -359.8001297 1146.33673126 -360.4356842 1145.70326233 C-364.17914727 1141.93994374 -367.73548219 1138.05908633 -371.20045471 1134.03765869 C-373.44750097 1131.44531641 -375.78668094 1128.94785755 -378.125 1126.4375 C-383.24064836 1120.89336143 -388.02237548 1115.12902985 -392.75 1109.25 C-393.7225947 1108.06788715 -394.69663895 1106.88696594 -395.671875 1105.70703125 C-429.42342621 1064.77351873 -480.67308508 1002.25052997 -479.8125 946.3125 C-479.80347656 945.54035156 -479.79445313 944.76820313 -479.78515625 943.97265625 C-479.77355469 943.40417969 -479.76195312 942.83570313 -479.75 942.25 C-480.31589844 942.01667969 -480.88179687 941.78335938 -481.46484375 941.54296875 C-503.73207814 928.94390109 -517.3076918 893.13651471 -523.88720703 870.3828125 C-534.90364031 830.38199985 -543.26167249 783.02987849 -523.4375 744.375 C-519.1746748 736.90349726 -514.27720838 730.35414343 -507.6875 724.8125 C-505.78192715 722.9043084 -504.80516486 721.88873128 -504.56982422 719.16381836 C-504.6679541 718.35565674 -504.76608398 717.54749512 -504.8671875 716.71484375 C-504.98602295 715.73378662 -505.1048584 714.75272949 -505.22729492 713.74194336 C-506.08523006 708.01048785 -507.03872923 702.29751482 -508.02246094 696.58642578 C-519.08068821 632.34687517 -525.07373791 566.47329204 -523.75 501.25 C-523.73066406 500.11997559 -523.71132813 498.98995117 -523.69140625 497.82568359 C-522.00218735 408.75664905 -499.70731338 321.30459495 -457.75 231.25 C-457.2849707 230.26338379 -456.81994141 229.27676758 -456.34082031 228.26025391 C-443.28274576 200.73391305 -427.09200291 173.83310654 -407.75 150.25 C-407.31913086 149.72438477 -406.88826172 149.19876953 -406.44433594 148.65722656 C-403.27080593 144.80381737 -400.03380924 141.00974048 -396.75 137.25 C-396.31075195 136.7461377 -395.87150391 136.24227539 -395.41894531 135.72314453 C-369.66183565 106.38600666 -334.35892238 80.47860526 -294.6015625 75.49609375 C-277.6509719 74.41304384 -259.79871325 73.78093384 -243.6171875 79.7265625 C-239.54077388 81.16158718 -236.10359996 82.12780956 -231.75 82.25 C-227.23765325 79.84233297 -224.09155696 76.58231777 -220.53710938 72.95703125 C-217.33043981 69.89404851 -213.7349239 67.37535616 -210.125 64.8125 C-209.35937744 64.26658203 -208.59375488 63.72066406 -207.80493164 63.15820312 C-146.82007422 20.0876872 -74.27734902 0.05659994 0 0 Z " fill="#F7BA8C" transform="translate(1367.75,110.75)"/>
<path d="M0 0 C0.81270355 -0.00067474 1.6254071 -0.00134949 2.46273804 -0.00204468 C76.80517834 0.09434601 151.49056595 18.50220828 242.25 61.25 C243.36455566 61.80864746 244.47911133 62.36729492 245.62744141 62.94287109 C303.94139664 92.33724823 356.10080613 132.11672808 402.25 178.125 C402.745 178.61732117 403.24 179.10964233 403.75 179.61688232 C409.47152257 185.31486638 415.00870999 191.10492556 420.25 197.25 C421.27124143 198.4068902 422.29464781 199.56187326 423.3203125 200.71484375 C430.80031273 209.19064099 437.80756697 217.94014098 444.56884766 226.99804688 C445.71095583 228.52793445 446.85659373 230.05519201 448.00537109 231.58007812 C456.23949842 242.51093276 464.07398784 253.59425124 471.25 265.25 C471.75354004 266.06774902 472.25708008 266.88549805 472.77587891 267.72802734 C514.14960249 335.39461864 535.47086111 408.82827029 535.37939453 488.11303711 C535.38075394 490.12636852 535.38253687 492.13969969 535.38470459 494.1530304 C535.38921983 499.56737922 535.3875126 504.98170873 535.3843255 510.39605784 C535.38176514 516.11800733 535.38415011 521.83995534 535.38571167 527.56190491 C535.38752524 537.18376964 535.38515105 546.80562667 535.38037109 556.42749023 C535.37495643 567.45221135 535.37667398 578.47691389 535.3821975 589.50163454 C535.38678365 599.04730126 535.38735189 608.5929625 535.38475883 618.13862997 C535.38322252 623.80352777 535.38292704 629.46841694 535.38629532 635.13331413 C535.39973573 661.18995527 535.17300024 687.20830276 534.25 713.25 C532.83630127 713.03996338 532.83630127 713.03996338 531.39404297 712.82568359 C530.14768066 712.64344238 528.90131836 712.46120117 527.6171875 712.2734375 C526.38597168 712.09216309 525.15475586 711.91088867 523.88623047 711.72412109 C506.40013255 709.44414243 490.92903411 714.01447228 476.8125 724.375 C445.24164393 750.20570042 428.67110284 791.5863342 419.25 830.25 C411.72407567 829.6122098 404.57901118 828.05110167 397.25 826.25 C398.60229841 821.7013599 400.48328606 817.9628298 402.875 813.875 C410.82754547 799.54050914 416.44081001 782.66756577 417.25 766.25 C417.28561035 765.57952637 417.3212207 764.90905273 417.35791016 764.21826172 C418.34523077 743.01761853 412.93007621 723.66609145 399.25 707.25 C398.49976563 706.33734375 397.74953125 705.4246875 396.9765625 704.484375 C391.53640229 698.18153566 385.61586529 693.14423981 378.9375 688.24609375 C376.25 686.25 376.25 686.25 374.25 684.25 C374.79527344 683.16847656 375.34054687 682.08695313 375.90234375 680.97265625 C388.3296378 655.83151985 407.66443774 615.36489154 399.45703125 586.45703125 C397.8571071 583.09167356 396.36178096 581.32452064 393.25 579.25 C385.06137056 578.20083185 376.38533876 579.85234413 368.25 580.8125 C367.51955475 580.89692352 366.7891095 580.98134705 366.03652954 581.06832886 C346.35674233 583.35000149 326.74926542 586.18905113 307.13815308 588.99024963 C296.84847052 590.45700242 286.55004673 591.85817041 276.25 593.25 C279.63432245 596.00772719 282.91835557 598.28022736 286.75 600.375 C302.43524421 609.40939311 316.36419985 621.82535316 327.25 636.25 C327.64928711 636.77432617 328.04857422 637.29865234 328.45996094 637.83886719 C337.69566482 650.04499262 345.07415733 662.82500851 350.875 677 C351.23029785 677.85803223 351.5855957 678.71606445 351.95166016 679.60009766 C352.26925293 680.40753418 352.5868457 681.2149707 352.9140625 682.046875 C353.19717285 682.76198242 353.4802832 683.47708984 353.77197266 684.21386719 C354.32589435 686.57326808 354.01360831 687.97642815 353.25 690.25 C352.75113281 689.65574219 352.25226562 689.06148437 351.73828125 688.44921875 C327.75978849 660.76848115 293.83806862 645.89101761 259.25 636.25 C258.38415283 635.99887451 257.51830566 635.74774902 256.6262207 635.48901367 C231.34127258 628.29730197 204.49333123 627.37109008 178.34765625 627.0859375 C177.32645187 627.07247787 176.3052475 627.05901825 175.25309753 627.04515076 C170.16052952 626.97850495 165.07030918 626.93704176 159.97729492 626.94262695 C158.10464546 626.92496993 156.23200451 626.90637797 154.359375 626.88671875 C153.06623131 626.90217239 153.06623131 626.90217239 151.7469635 626.91793823 C145.84370572 626.81973983 145.84370572 626.81973983 142.74609375 623.84716797 C136.801055 613.52678249 137.94576438 601.75461362 138.25 590.25 C137.60160156 590.16363281 136.95320313 590.07726562 136.28515625 589.98828125 C53.3959368 578.11584377 -31.4431439 544.93079981 -150.75 471.25 C-151.67941406 470.51394531 -152.60882812 469.77789063 -153.56640625 469.01953125 C-169.02463583 456.59577632 -184.09589552 442.68406889 -196.4140625 427.109375 C-204.30879961 417.44558309 -212.44108088 407.90445956 -223.75 402.25 C-235.96586006 401.03303538 -245.62986392 403.36588436 -256.75 408.25 C-257.79414062 408.70632813 -258.83828125 409.16265625 -259.9140625 409.6328125 C-278.74303406 418.91469989 -289.97362226 440.55888507 -299.75 458.25 C-300.4296582 459.47372314 -300.4296582 459.47372314 -301.12304688 460.72216797 C-319.30866767 493.75688448 -333.49276711 529.25291242 -343.06835938 565.70458984 C-343.9545453 569.01382139 -344.94506806 572.28365757 -345.9375 575.5625 C-348.44273944 584.3415442 -350.12932276 593.27316468 -351.75 602.25 C-351.90388184 603.06823242 -352.05776367 603.88646484 -352.21630859 604.72949219 C-356.85836466 629.91201903 -357.69068855 656.67155239 -346.75 680.25 C-346.0734599 681.91268329 -345.40366252 683.57819034 -344.75 685.25 C-345.41644531 685.87003906 -346.08289063 686.49007812 -346.76953125 687.12890625 C-361.81670812 701.58682304 -372.39464845 717.89458794 -377.75 738.25 C-378.10578125 739.43464844 -378.4615625 740.61929688 -378.828125 741.83984375 C-384.99440167 766.95795869 -377.05007946 795.99693187 -364.00097656 817.66650391 C-363.18282285 818.98825965 -362.35187434 820.30220227 -361.50683594 821.60693359 C-360.53488006 823.12189329 -359.63476466 824.6825203 -358.75 826.25 C-359.08 826.91 -359.41 827.57 -359.75 828.25 C-362.21027323 828.74023895 -364.57647458 829.09597967 -367.0625 829.375 C-367.72056641 829.46136719 -368.37863281 829.54773438 -369.05664062 829.63671875 C-375.28453142 830.38193645 -381.48547583 830.33307863 -387.75 830.25 C-388.08040283 829.08319702 -388.08040283 829.08319702 -388.41748047 827.89282227 C-395.19428067 804.15660047 -402.98661872 781.04986208 -414.75 759.25 C-415.06114746 758.65719238 -415.37229492 758.06438477 -415.69287109 757.45361328 C-425.36075974 739.08312441 -438.89775636 720.87631616 -459.20703125 713.9765625 C-473.56954312 709.87298768 -486.45751445 713.08830504 -499.3515625 720.04296875 C-501.75 721.25 -501.75 721.25 -503.75 721.25 C-520.80340447 626.23926174 -530.13880264 528.6963046 -457.75 231.25 C-457.2849707 230.26338379 -456.81994141 229.27676758 -456.34082031 228.26025391 C-443.28274576 200.73391305 -427.09200291 173.83310654 -407.75 150.25 C-407.31913086 149.72438477 -406.88826172 149.19876953 -406.44433594 148.65722656 C-403.27080593 144.80381737 -400.03380924 141.00974048 -396.75 137.25 C-396.31075195 136.7461377 -395.87150391 136.24227539 -395.41894531 135.72314453 C-369.66183565 106.38600666 -334.35892238 80.47860526 -294.6015625 75.49609375 C-277.6509719 74.41304384 -259.79871325 73.78093384 -243.6171875 79.7265625 C-239.54077388 81.16158718 -236.10359996 82.12780956 -231.75 82.25 C-227.23765325 79.84233297 -224.09155696 76.58231777 -220.53710938 72.95703125 C-217.33043981 69.89404851 -213.7349239 67.37535616 -210.125 64.8125 C-209.35937744 64.26658203 -208.59375488 63.72066406 -207.80493164 63.15820312 C-146.82007422 20.0876872 -74.27734902 0.05659994 0 0 Z " fill="#E94E1B" transform="translate(1367.75,110.75)"/>
<path d="M0 0 C1.90234375 2.44921875 1.90234375 2.44921875 3.9375 5.6875 C26.19030185 39.41697401 65.48242145 58.77502609 104 67 C118.03383518 69.83152353 131.98407372 70.23877634 146.25 70.25 C147.1378418 70.25100708 148.02568359 70.25201416 148.94042969 70.25305176 C162.81252071 70.24242132 176.35278671 69.70355443 190 67 C190.69206543 66.86609863 191.38413086 66.73219727 192.09716797 66.59423828 C196.80651934 65.64221307 201.40686106 64.39717892 206 63 C206.90363281 62.72526855 207.80726563 62.45053711 208.73828125 62.16748047 C241.98574467 51.88930821 279.01269478 33.98095782 299 4 C300 6 300 6 299.41430664 7.80908203 C298.9172522 8.89745361 298.9172522 8.89745361 298.41015625 10.0078125 C298.04212891 10.82145264 297.67410156 11.63509277 297.29492188 12.47338867 C296.88822266 13.34842041 296.48152344 14.22345215 296.0625 15.125 C295.4427832 16.47718628 295.4427832 16.47718628 294.81054688 17.85668945 C291.0542345 25.99848214 287.10984899 34.03172342 283 42 C282.49049805 42.99797607 282.49049805 42.99797607 281.97070312 44.01611328 C268.60788342 70.13831064 252.6902714 95.20540761 235.48291016 118.95214844 C233.9119748 121.12155998 232.3518748 123.29849323 230.79296875 125.4765625 C220.47613939 139.8630805 209.8582362 154.0181616 199 168 C198.57928223 168.54301758 198.15856445 169.08603516 197.72509766 169.64550781 C187.74402504 182.51100164 177.38834745 195.06997022 166.83203125 207.46679688 C164.00387988 210.7928033 161.23964228 214.163404 158.5 217.5625 C154.38012399 222.62743717 150.01354876 227.420947 145.578125 232.20703125 C140.54519432 237.65937282 135.72138222 243.27711246 131 249 C126.91981497 247.447447 124.62246677 244.53692755 121.9375 241.25 C121.45708252 240.67217773 120.97666504 240.09435547 120.48168945 239.49902344 C116.68219574 234.9022122 112.99482062 230.21893585 109.33544922 225.51025391 C105.66815483 220.80473006 101.87781708 216.21087274 98.0625 211.625 C91.98496591 204.29371176 86.20150935 196.78619323 80.55810547 189.1171875 C78.90928284 186.87673156 77.25383453 184.6412731 75.59765625 182.40625 C72.05228603 177.61339874 68.51480781 172.81532677 65 168 C64.54776062 167.3828714 64.09552124 166.7657428 63.62957764 166.12991333 C55.12174827 154.5079149 46.96162855 142.68934038 39 130.6875 C38.14926407 129.40765732 38.14926407 129.40765732 37.28134155 128.10195923 C28.94120039 115.54885533 20.66950512 102.9778312 13 90 C12.11876465 88.51282471 12.11876465 88.51282471 11.21972656 86.99560547 C-0.17379933 67.69104785 -10.9656416 48.1888088 -20.0625 27.6875 C-20.51592773 26.667771 -20.96935547 25.64804199 -21.43652344 24.59741211 C-24.08436784 18.50204212 -26.25750448 12.413829 -28 6 C-24.08815891 4.79618491 -20.16989104 3.61481281 -16.25 2.4375 C-15.13882812 2.09525391 -14.02765625 1.75300781 -12.8828125 1.40039062 C-11.81289062 1.08134766 -10.74296875 0.76230469 -9.640625 0.43359375 C-8.16384277 -0.01415405 -8.16384277 -0.01415405 -6.65722656 -0.47094727 C-3.93621261 -1.01270004 -2.53935782 -1.06768853 0 0 Z " fill="#FEFEFE" transform="translate(1241,1575)"/>
<path d="M0 0 C2 1 2 1 2.97265625 3.71875 C3.51212891 5.59046875 3.51212891 5.59046875 4.0625 7.5 C10.21511127 27.98446596 18.19439323 47.77068563 26.5078125 67.45703125 C27.92433183 70.82033761 29.32410722 74.19007433 30.71875 77.5625 C45.45158802 113.03676726 62.04567394 148.21994849 81.47021484 181.38037109 C82.99406339 183.98983406 84.49278568 186.61248631 85.98828125 189.23828125 C101.41082242 216.0885915 118.98270575 242.35612668 139 266 C139.86903855 267.04251137 140.73749848 268.08550528 141.60546875 269.12890625 C147.03090531 275.62534309 152.61394464 281.94462192 158.37109375 288.1484375 C160.84974149 290.83701528 163.27080685 293.56833042 165.6875 296.3125 C168.95611836 299.95983529 172.37144344 303.20955154 176.11328125 306.36328125 C177.9494605 307.95615725 179.62669033 309.62512156 181.3125 311.375 C185.35259671 315.46944779 189.79097045 319.02026553 194.27539062 322.61376953 C197.01998975 324.81986152 199.74927952 327.04473327 202.48071289 329.26708984 C205.65187835 331.84710431 208.82595923 334.42352435 212 337 C211.34 337.33 210.68 337.66 210 338 C208.1184082 337.23413086 208.1184082 337.23413086 205.80078125 335.96484375 C204.93348389 335.49280518 204.06618652 335.0207666 203.17260742 334.53442383 C201.75685425 333.74394653 201.75685425 333.74394653 200.3125 332.9375 C198.83777222 332.12091919 198.83777222 332.12091919 197.33325195 331.2878418 C161.76282152 311.42295507 128.04103079 288.09321997 97.07421875 261.60546875 C94.30300845 259.24135813 91.47072811 256.96156042 88.625 254.6875 C83.35173913 250.402493 78.40618061 245.80695987 73.47705078 241.13549805 C70.4475754 238.2665709 67.39131884 235.45536016 64.22753906 232.73461914 C60.22438723 229.24097611 56.4334158 225.57857384 52.68359375 221.81640625 C52.02343765 221.15720688 51.36328156 220.49800751 50.68312073 219.8188324 C49.29964494 218.43603165 47.91740917 217.05198924 46.53637695 215.66674805 C44.44268331 213.56769657 42.34370126 211.4740406 40.24414062 209.38085938 C38.89030429 208.02636214 37.53677825 206.67155469 36.18359375 205.31640625 C35.56673203 204.70156876 34.9498703 204.08673126 34.3143158 203.45326233 C30.57085273 199.68994374 27.01451781 195.80908633 23.54954529 191.78765869 C21.30249903 189.19531641 18.96331906 186.69785755 16.625 184.1875 C11.50935164 178.64336143 6.72762452 172.87902985 2 167 C1.0274053 165.81788715 0.05336105 164.63696594 -0.921875 163.45703125 C-35.92356426 121.00736496 -86.01490396 58.84952576 -85 1 C-81.31358659 3.41504493 -77.74133959 5.91789136 -74.20605469 8.55249023 C-66.83842237 13.99386836 -59.40385237 18.32841401 -51 22 C-50.1853125 22.3609375 -49.370625 22.721875 -48.53125 23.09375 C-39.26821843 26.51980277 -26.57382303 26.71496507 -17.25 23.4375 C-7.79803354 18.73575258 -4.25714997 9.08108026 0 0 Z " fill="#E94E1B" transform="translate(973,1053)"/>
<path d="M0 0 C1.15024658 0.00563965 2.30049316 0.0112793 3.4855957 0.01708984 C25.99675251 0.33653162 47.51257432 7.18871563 64.1796875 22.91796875 C73.26780513 32.55640492 77.61287215 42.14351662 77.625 55.375 C77.63724609 56.08205078 77.64949219 56.78910156 77.66210938 57.51757812 C77.67271238 61.28164521 77.53512029 64.12046912 75.4375 67.3125 C75.33953125 66.34570312 75.2415625 65.37890625 75.140625 64.3828125 C73.51861637 50.26015118 69.89624132 40.03145041 59.0703125 30.15234375 C46.80393075 20.47718854 29.91897215 14.56100582 14.4375 13.3125 C15.11554688 13.64121094 15.79359375 13.96992187 16.4921875 14.30859375 C32.64227242 22.56258452 43.34432893 35.4757622 49.58203125 52.421875 C52.48631133 65.63038166 52.16243876 81.93231993 46.4375 94.3125 C45.81875 95.71242188 45.81875 95.71242188 45.1875 97.140625 C40.19209135 107.30174031 32.36326279 116.58422118 21.99609375 121.4609375 C10.6492822 125.23743356 -0.95361152 125.6218725 -12.8125 125.6875 C-14.06667725 125.70119629 -15.32085449 125.71489258 -16.61303711 125.72900391 C-32.04731402 125.65394729 -42.99691056 122.66025146 -54.25 112.0625 C-66.63521276 99.13879973 -70.92850214 83.44532512 -70.703125 66.078125 C-70.36376489 52.03299531 -65.21730805 40.32771024 -56.5625 29.3125 C-73.42967173 38.13805162 -89.45550159 49.42901806 -95.5625 68.3125 C-95.8925 68.3125 -96.2225 68.3125 -96.5625 68.3125 C-97.33387234 56.2276667 -91.12741248 46.21440956 -83.4375 37.3125 C-74.24950966 27.52629326 -64.31415509 20.53149268 -52.5625 14.3125 C-51.78003906 13.86390625 -50.99757813 13.4153125 -50.19140625 12.953125 C-35.05437525 4.64259818 -17.18174734 -0.08793758 0 0 Z " fill="#5A3737" transform="translate(1621.5625,793.6875)"/>
<path d="M0 0 C1.76484741 1.50357828 3.51552667 3.02398244 5.25 4.5625 C6.04277344 5.25988281 6.83554688 5.95726562 7.65234375 6.67578125 C16.04854383 14.52658714 23.94349477 25.1336062 24.375 37 C24.33375 37.845625 24.2925 38.69125 24.25 39.5625 C22.08924015 36.80327896 20.36391857 34.0101 18.6875 30.9375 C10.7053679 17.55511063 -2.25275823 9.56772244 -15.75 2.5625 C-15.30269531 3.16835938 -14.85539062 3.77421875 -14.39453125 4.3984375 C-2.61062469 20.73007772 0.59543031 35.83645942 -2.0546875 55.86523438 C-4.83073075 70.32615356 -13.24555269 83.49423105 -25.25 92 C-42.25913706 102.4717122 -68.8758009 100.84233616 -87.62109375 96.44921875 C-88.65363281 96.15660156 -89.68617187 95.86398437 -90.75 95.5625 C-92.00490234 95.23185547 -92.00490234 95.23185547 -93.28515625 94.89453125 C-105.17636647 90.76301729 -112.95577454 78.75406512 -118.2265625 68.0078125 C-124.35284899 54.15297999 -125.31816758 35.84239993 -120.0703125 21.51171875 C-112.86993371 5.4280324 -102.17362237 -6.71144438 -85.75 -13.4375 C-103.69564117 -10.79401034 -124.38134754 -5.67590946 -136.65625 8.8125 C-143.49716832 18.08832145 -146.26937267 27.22401179 -147.75 38.5625 C-151.26569247 33.2889613 -150.23766075 26.69483398 -149.75 20.5625 C-148.07130971 12.95116561 -144.37649053 6.74738734 -139.75 0.5625 C-138.6671875 -0.9534375 -138.6671875 -0.9534375 -137.5625 -2.5 C-102.75141463 -42.23718236 -36.40219064 -28.86209354 0 0 Z " fill="#5A3737" transform="translate(1223.75,820.4375)"/>
<path d="M0 0 C-9.01598454 46.40394841 -36.04371326 88.94079749 -63 127 C-63.5141748 127.72670898 -64.02834961 128.45341797 -64.55810547 129.20214844 C-71.76593737 139.35676893 -79.18354633 149.30588492 -87 159 C-87.75796875 159.94101563 -88.5159375 160.88203125 -89.296875 161.8515625 C-94.63056566 168.41464994 -100.08354912 174.87536323 -105.56738281 181.31298828 C-106.98599155 182.98350403 -108.39593802 184.66101042 -109.8046875 186.33984375 C-122.74414543 201.69768459 -136.82516594 215.91840646 -151 230.125 C-151.68003082 230.80770966 -152.36006165 231.49041931 -153.06069946 232.19381714 C-159.86274106 239.01616058 -166.63777868 245.77671091 -174 252 C-175.77570221 253.61967817 -177.54708307 255.24411718 -179.3125 256.875 C-183.80350411 260.97010292 -188.41350995 264.86501382 -193.140625 268.68359375 C-196.34728262 271.28133687 -199.52019761 273.91705331 -202.6875 276.5625 C-203.21722412 277.00464844 -203.74694824 277.44679688 -204.29272461 277.90234375 C-205.52884417 278.93446352 -206.76447849 279.96716439 -208 281 C-208.66 280.67 -209.32 280.34 -210 280 C-209.21689453 279.05253906 -209.21689453 279.05253906 -208.41796875 278.0859375 C-185.63411184 250.39417446 -165.65340983 221.24070394 -148 190 C-147.2570166 188.68974854 -147.2570166 188.68974854 -146.49902344 187.35302734 C-121.39823411 142.86234497 -101.47891694 95.93950029 -84 48 C-83.67128906 47.10039551 -83.34257813 46.20079102 -83.00390625 45.27392578 C-79.13476162 34.62795104 -75.68565964 24.00953641 -73 13 C-69.82566166 14.55236283 -66.8062995 16.27575143 -63.78125 18.09765625 C-55.61257794 22.23573355 -42.83514293 20.89353257 -34.3125 18.4375 C-23.1877272 14.47031169 -13.50334612 9.07019295 -4.328125 1.72265625 C-2 0 -2 0 0 0 Z " fill="#E94E1B" transform="translate(1874,1050)"/>
<path d="M0 0 C0.80303558 0.03911499 1.60607117 0.07822998 2.43344116 0.11853027 C4.72062993 0.23305892 7.00672734 0.36021058 9.29296875 0.4921875 C10.60160889 0.56550293 11.91024902 0.63881836 13.25854492 0.71435547 C16.74172415 1.11682215 19.59052319 1.74955188 22.8125 3.125 C28.97010176 12.25523709 27.91300371 27.24442132 26 37.75 C25.04639329 41.78920558 23.81957437 46.11792563 20.8125 49.125 C18.7262966 49.20352539 16.63739172 49.21069757 14.54980469 49.19091797 C13.89398407 49.18624512 13.23816345 49.18157227 12.56246948 49.17675781 C11.12798198 49.16621518 9.693509 49.15353975 8.25905609 49.13903427 C5.95747104 49.11692911 3.65596999 49.10289219 1.35430908 49.09133911 C-5.19490037 49.05790664 -11.74398199 49.01783526 -18.29296875 48.95361328 C-49.76864542 48.65518092 -80.80344165 50.03333603 -111.1875 59.125 C-112.09113281 59.36347656 -112.99476562 59.60195313 -113.92578125 59.84765625 C-140.15370978 67.16154034 -163.04648498 80.81934286 -182.9609375 99.14453125 C-184.9670952 100.92895573 -187.01380334 102.55179945 -189.1875 104.125 C-188.63176968 98.31298708 -186.99214208 93.53282169 -184.6875 88.1875 C-184.33220215 87.35847168 -183.9769043 86.52944336 -183.61083984 85.67529297 C-177.76005101 72.31628975 -170.60628751 60.26626198 -161.1875 49.125 C-160.75711426 48.61485352 -160.32672852 48.10470703 -159.88330078 47.57910156 C-136.01444919 19.66573193 -102.42970034 3.12302546 -65.9375 -0.1875 C-43.9979231 -1.82518256 -21.94534195 -1.12149851 0 0 Z " fill="#E94E1B" transform="translate(1229.1875,679.875)"/>
<path d="M0 0 C2.24301421 2.16892065 4.21172719 4.46277382 6.1875 6.875 C11.11544284 12.5426552 17.70872011 17.22872869 25.3046875 18.3359375 C40.77947023 18.57111657 56.26647575 14.44512482 71.25 11 C84.72784726 7.90402714 98.28369947 5.73362387 112 4 C112.77972168 3.89397461 113.55944336 3.78794922 114.36279297 3.67871094 C122.07225867 2.74811644 129.82099753 2.84930515 137.57373047 2.86962891 C139.96718872 2.87492736 142.36045415 2.86969008 144.75390625 2.86328125 C163.1320085 2.85015065 180.84757657 4.28226871 199 7.1875 C200.46888168 7.41835297 200.46888168 7.41835297 201.96743774 7.65386963 C241.89032743 13.94516372 241.89032743 13.94516372 250 18 C259.06590204 18.94533338 266.0940611 17.20124405 273.3125 11.625 C276.1146953 8.88797203 277.92944956 6.29754329 280 3 C280.33 3 280.66 3 281 3 C281.87074732 11.01087534 278.18330212 16.75623685 273.8125 23.25 C266.88049964 30.02795591 259.72021456 33.23460871 250.1100769 33.24411011 C239.69547503 33.09735466 229.33420515 31.69017774 218.99328613 30.54885864 C169.59652526 24.98689416 169.59652526 24.98689416 120 26 C119.30602112 26.06292236 118.61204224 26.12584473 117.89703369 26.19067383 C102.71605781 27.57674013 87.53353402 29.038777 72.40625 30.9296875 C60.88804714 32.36389273 49.48879587 33.3331787 37.875 33.5 C36.14008301 33.54592285 36.14008301 33.54592285 34.37011719 33.59277344 C25.51503241 33.59538171 20.24282958 31.33140693 13.36328125 25.9296875 C5.97323217 18.52556214 0.40395665 10.70485119 0 0 Z " fill="#C98D68" transform="translate(1247,1192)"/>
<path d="M0 0 C9.16345293 6.18533073 14.37376873 16.06802996 16.65625 26.68359375 C17.92308454 36.73990915 15.83138083 46.57240437 9.96875 54.93359375 C8.89919526 56.21333462 7.79279287 57.4629569 6.65625 58.68359375 C5.70105469 59.71806641 5.70105469 59.71806641 4.7265625 60.7734375 C-2.85098238 68.22607779 -11.7338942 71.86012376 -22.34375 72.30859375 C-33.28768568 71.85817593 -43.69735735 67.62867361 -51.34375 59.68359375 C-58.66898361 50.2409098 -62.01476165 41.58783745 -61.34375 29.68359375 C-58.34375 28.68359375 -58.34375 28.68359375 -56.4921875 29.6015625 C-55.78320312 29.95863281 -55.07421875 30.31570313 -54.34375 30.68359375 C-48.18203046 31.40028923 -42.54668523 31.36371867 -37.34375 27.68359375 C-32.77513703 22.7445527 -31.99180167 18.79389443 -32.05859375 12.2578125 C-32.59922103 7.37735529 -34.74406229 3.97223107 -38.59375 0.87109375 C-39.17125 0.47921875 -39.74875 0.08734375 -40.34375 -0.31640625 C-40.34375 -0.97640625 -40.34375 -1.63640625 -40.34375 -2.31640625 C-26.19062706 -8.78640531 -13.46852201 -7.56481986 0 0 Z " fill="#432927" transform="translate(1631.34375,841.31640625)"/>
<path d="M0 0 C-1.14865728 2.47166432 -1.98325133 3.98429812 -4 5.875 C-7.24799628 9.32599605 -7.8610813 12.74973167 -8.375 17.375 C-7.73392217 23.57208568 -5.78155653 27.54566814 -0.9375 31.5 C3.78471957 33.79481513 8.88408992 33.6879199 14 33 C16.97984167 31.66829691 16.97984167 31.66829691 19 30 C19.66 30 20.32 30 21 30 C21.6535643 42.59926727 20.05181422 51.16373957 11.91015625 60.96484375 C5.3523268 67.95181541 -4.05232729 73.39799995 -13.75 74.23828125 C-26.44797544 74.52825905 -36.47654723 70.76504019 -45.9375 62.2578125 C-53.10836318 54.80876928 -56.68666509 45.27316786 -57.12890625 35.0078125 C-56.63363212 23.45141613 -52.1358311 13.61403647 -43.75 5.6875 C-30.66282867 -5.23321391 -15.50840638 -6.96168944 0 0 Z " fill="#432927" transform="translate(1182,839)"/>
<path d="M0 0 C17.27797627 0.07611443 37.46699864 8.21384416 50 20 C59.89778172 30.46236107 63.76081353 41.62547899 63.40234375 55.9453125 C62.66595949 66.91507939 56.23284515 76.15555397 49 84 C47.948125 85.17175781 47.948125 85.17175781 46.875 86.3671875 C39.27736681 94.42610556 29.41730659 101.08586524 19 105 C18.34 104.67 17.68 104.34 17 104 C17.6290625 103.3915625 18.258125 102.783125 18.90625 102.15625 C24.14761393 96.78858814 28.15548143 91.55211587 31.5 84.8125 C31.82548828 84.16023437 32.15097656 83.50796875 32.48632812 82.8359375 C38.98107099 69.1294101 39.78969248 50.49004353 34.9375 36.125 C27.56680498 19.2570509 16.44341393 8.78898554 0 1 C0 0.67 0 0.34 0 0 Z " fill="#FCFBFB" transform="translate(1634,806)"/>
<path d="M0 0 C-0.88300781 0.38929688 -1.76601562 0.77859375 -2.67578125 1.1796875 C-18.61469057 8.48632277 -29.22150968 19.41252592 -35.4375 36.0625 C-40.59302841 51.43660938 -39.33026534 68.63973929 -32.3125 83.125 C-29.24503204 89.18766942 -25.8086581 94.16699427 -21 99 C-19.65407903 100.65651812 -18.3140151 102.31806068 -17 104 C-27.65995952 102.44337005 -37.14167953 94.96817443 -45 88 C-45.95326172 87.17048828 -45.95326172 87.17048828 -46.92578125 86.32421875 C-55.9026009 77.9843353 -62.49109882 66.20838225 -64 54 C-64.08325516 39.94652958 -60.36640538 29.53720605 -51 19 C-39.16904045 8.19287349 -24.3540839 3.22331784 -9 0 C-7.65808594 -0.32871094 -7.65808594 -0.32871094 -6.2890625 -0.6640625 C-3.86451749 -1.0198831 -2.30710384 -0.76903461 0 0 Z " fill="#FCFBFB" transform="translate(1140,807)"/>
<path d="M0 0 C15.87387066 6.01240411 30.99967109 18.39937507 38.90625 33.421875 C40.98431792 38.32017797 42.00724147 43.73525887 41 49 C34.10044147 65.91365133 20.90912601 76.93415098 5.1875 85.4375 C4.5776123 85.76766113 3.96772461 86.09782227 3.33935547 86.43798828 C-0.7124102 88.54261568 -4.60366765 89.87980776 -9 91 C-8.34 90.360625 -7.68 89.72125 -7 89.0625 C-5.99805636 88.04357427 -4.99834116 87.02245568 -4 86 C-3.38382813 85.3915625 -2.76765625 84.783125 -2.1328125 84.15625 C9.53811945 71.985784 14.55512687 56.63885522 14.4375 40 C14.45748047 38.99710938 14.47746094 37.99421875 14.49804688 36.9609375 C14.49188414 27.42102827 11.67537003 19.45833122 7 11.1875 C6.49210937 10.28773438 5.98421875 9.38796875 5.4609375 8.4609375 C3.73856252 5.55961066 1.93963657 2.76025204 0 0 Z " fill="#FCFBFB" transform="translate(1207,822)"/>
<path d="M0 0 C0 3.70938737 -0.94259256 4.49347702 -3.1875 7.375 C-12.68692785 20.53546495 -14.50677867 36.19315902 -13 52 C-10.65804328 64.40768118 -4.73964181 74.56557923 3.81640625 83.640625 C6.00593874 86.00641682 8.0150596 88.46143676 10 91 C-7.15516462 85.93782028 -25.89746605 74.15946428 -34.9375 58.3125 C-35.6400908 56.88231516 -36.32898288 55.44526763 -37 54 C-37.61875 52.865625 -38.2375 51.73125 -38.875 50.5625 C-40.92433682 44.0729334 -39.83660641 38.29044085 -37.125 32.125 C-29.09846637 17.53546024 -14.58330446 7.3302324 0 0 Z " fill="#FCFBFB" transform="translate(1565,822)"/>
<path d="M0 0 C1 2 1 2 0.36328125 4.0390625 C0.01652344 4.89242187 -0.33023437 5.74578125 -0.6875 6.625 C-5.01991727 18.17308089 -8.80756645 30.54244741 -7 43 C-4.78641381 47.5037229 -2.39222803 49.55048822 2 52 C6.82330681 53.62029857 11.04301091 54.2643658 16.12109375 54.30078125 C16.77889328 54.30624466 17.43669281 54.31170807 18.11442566 54.31733704 C20.2223339 54.32882169 22.3295917 54.32263908 24.4375 54.3125 C25.15387634 54.31167419 25.87025269 54.31084839 26.6083374 54.30999756 C39.35024272 54.27604964 50.87515772 53.18725784 63 49 C58.86452673 58.30481485 50.46690453 63.61984231 41.5625 67.9375 C23.29202437 74.47503986 -1.60924187 70.83883584 -19.0703125 62.984375 C-24.01794578 60.4604811 -24.01794578 60.4604811 -26 58 C-25.69569672 52.28518444 -24.34481433 47.62973436 -21.9375 42.4375 C-21.6067749 41.70732666 -21.2760498 40.97715332 -20.93530273 40.22485352 C-15.76772367 29.0561429 -9.99969542 18.15861483 -4.31640625 7.24609375 C-3.99693024 6.63024414 -3.67745422 6.01439453 -3.34829712 5.37988281 C-1.11775309 1.11775309 -1.11775309 1.11775309 0 0 Z " fill="#DD955B" transform="translate(1357,999)"/>
<path d="M0 0 C5.36504017 2.41125401 8.30668785 5.68485508 10.4609375 11.25 C11.27198918 17.94117634 10.7488189 22.84477391 6.7109375 28.3125 C2.68393504 32.23527416 -1.27020304 33.63733222 -6.8515625 33.875 C-12.12178932 33.60491912 -15.11871515 32.54664693 -19.2890625 29.3125 C-23.4294075 23.97363407 -24.73845308 20.05335872 -24.2890625 13.3125 C-22.39615379 7.53414709 -19.72581364 3.36590477 -14.42578125 0.19921875 C-9.85953213 -1.69573289 -4.68520532 -1.40716064 0 0 Z " fill="#FDFCFC" transform="translate(1197.2890625,839.6875)"/>
<path d="M0 0 C4.88062876 1.63875126 8.16687462 4.75031193 11 9 C12.61371538 13.84114615 12.97689633 19.18611383 11.28125 24.0703125 C8.64044175 28.98988271 5.28389269 32.23870244 0 34 C-5.2674928 34.50442239 -9.63179168 34.6716659 -14.4375 32.3125 C-18.20278052 28.91456392 -21.7614198 25.61264873 -22.23828125 20.390625 C-22.48734758 9.85118657 -22.48734758 9.85118657 -18 5 C-12.08290425 -0.21267959 -7.77714643 -0.77341788 0 0 Z " fill="#FDFCFC" transform="translate(1588,839)"/>
<path d="M0 0 C1.9375 1.125 1.9375 1.125 3 3 C2.77669287 6.64734979 2.61627165 8.38372835 0 11 C-3.13704316 11.333728 -5.16554166 11.52849028 -7.875 9.8125 C-9.40659584 7.34492892 -9.42822025 5.85480169 -9 3 C-6.73529086 -0.64869805 -4.03159541 -0.50394943 0 0 Z " fill="#F8F7F6" transform="translate(1182,824)"/>
<path d="M0 0 C1.32 6.36 1.32 6.36 0 9 C-3.17554578 10.58777289 -5.6455644 9.80754931 -9 9 C-10.39431504 6.21136993 -10.25660094 4.07921132 -10 1 C-6.1496895 -1.56687367 -4.41430237 -0.83288724 0 0 Z " fill="#FCFBFB" transform="translate(1599,825)"/>
</svg>
