<?xml version="1.0" encoding="UTF-8"?>
<svg version="1.1" xmlns="http://www.w3.org/2000/svg" width="2754" height="2754">
<path d="M0 0 C2.86867529 -0.34150896 5.25568776 -1.08522925 8 -2 C16.13345551 -2.51265417 23.15617447 -2.26157223 30.87890625 0.46484375 C34.22518329 1.30911623 36.78509584 0.07163472 40 -1 C47.28949721 -1.71225622 53.2492667 -0.71435735 60 2 C63.53674682 3.17891561 65.38906594 2.42376613 68.8984375 1.4921875 C75.61617982 -0.08111275 81.70706475 1.60164356 88 4 C88.99 4.66 89.98 5.32 91 6 C93.01140732 5.74436024 95.0122544 5.3999732 97 5 C104.65283433 4.40758516 110.88148462 4.73513357 117.87890625 8.02734375 C122.08970192 9.9582611 124.51597349 9.93851718 129 9 C135.69149651 8.47517674 142.72950591 9.73708237 148.3203125 13.60546875 C151.84660322 15.44057923 154.89617476 15.20469201 158.75 15 C166.48514149 14.79990784 172.51215368 15.35843336 178.78515625 20.109375 C182.69358009 22.40788914 184.83344616 22.29767336 189.3125 22 C196.76713413 21.78763812 202.17633548 22.8021648 207.95703125 27.63671875 C210.43589537 29.29087473 211.56813055 29.23454956 214.5 29 C223.78510279 28.75349285 231.05196413 30.82543691 238.14453125 36.77734375 C240.6837293 38.45054162 242.96954462 38.3217004 245.94140625 38.1015625 C253.99413975 37.70427394 260.57998655 41.53390369 267 46 C267.66 46.66 268.32 47.32 269 48 C271.591371 48.31487564 271.591371 48.31487564 274.5625 48.375 C282.11237228 48.90782591 287.82645572 50.6706042 293.1875 56.125 C297.33354895 60.00107367 302.03692688 59.8163853 307.4765625 60.37890625 C313.86328531 61.50472546 319.75527847 65.05456254 324 70 C324 70.66 324 71.32 324 72 C325.12535156 72.02126953 325.12535156 72.02126953 326.2734375 72.04296875 C333.77459674 72.39251899 339.80000467 73.59385503 346 78 C347.56640625 79.81640625 347.56640625 79.81640625 348.9375 81.6875 C351.43599282 84.97163787 353.32165261 85.5647635 357.375 86.1875 C358.32632812 86.31125 359.27765625 86.435 360.2578125 86.5625 C367.86849614 87.77674012 373.1186071 92.25552024 378 98 C378.33 98.66 378.66 99.32 379 100 C380.87671992 100.53120222 382.77834164 100.97579099 384.6875 101.375 C392.62207862 103.2552319 398.82994025 106.99111406 403.29296875 114.04296875 C405.52727646 116.60449772 407.36056285 116.95632333 410.625 117.8125 C419.12609473 120.43692997 425.76014662 125.0733176 430 133 C430 133.66 430 134.32 430 135 C430.969375 135.061875 431.93875 135.12375 432.9375 135.1875 C440.31714101 136.27801375 446.28363268 140.4536676 450.84765625 146.21875 C452.44009046 148.68027543 453.30823963 151.16378249 454 154 C454.78375 154.04125 455.5675 154.0825 456.375 154.125 C463.59088449 155.86676522 469.33093968 159.43271922 473.5 165.625 C474.79681891 167.77379878 475.93275305 169.83790254 476.89453125 172.15625 C478.33637794 174.56102611 479.57795367 174.93179048 482.1875 175.875 C489.91920413 179.08930397 494.16693419 183.54711411 498.15234375 190.8515625 C499 193 499 193 499 197 C499.7321875 197.10183594 500.464375 197.20367188 501.21875 197.30859375 C507.39040801 198.84284019 512.48333619 203.76473289 516 208.9375 C518.26777933 212.91975168 518.75660231 216.45657654 519 221 C519.886875 221.2475 520.77375 221.495 521.6875 221.75 C527.7872212 224.05178159 531.99894254 228.22796615 535 234 C535.64159824 236.15587882 536.24289078 238.32399284 536.8125 240.5 C538.43399724 246.27782487 540.36701938 248.95052949 545.1015625 252.5234375 C549.48693292 255.93428116 551.75200674 260.69602863 553 266 C553.14821925 269.00885076 553.1203728 271.99067989 553 275 C553.59683594 275.25523437 554.19367188 275.51046875 554.80859375 275.7734375 C560.23776353 278.81222415 563.51801634 285.1312944 565.5 290.86328125 C566.06676013 293.28529524 566.19230243 295.57966886 566.3125 298.0625 C566.66411975 302.86796985 568.16478117 304.85125466 571.43359375 308.24609375 C577.64300347 315.19877446 577.49432633 323.11585742 577 332 C577.66 332 578.32 332 579 332 C580.4375 333.7578125 580.4375 333.7578125 582 336.125 C582.515625 336.89070313 583.03125 337.65640625 583.5625 338.4453125 C586.45273486 343.58176249 587.17129771 347.96885471 587.25 353.8125 C587.59199691 359.94263325 588.8958554 363.25447544 592.56640625 368.078125 C596.95522351 373.96177103 596.05976816 380.74743812 595.6796875 387.6953125 C596.06840877 391.70577832 597.33121725 393.06830742 600 396 C603.0179557 401.46159894 603.08774981 406.83228965 602.875 412.9375 C602.70644348 417.85092255 602.79583066 421.4973538 605.5 425.75 C608.95590327 431.40073878 608.30522802 437.20697257 607.90234375 443.60644531 C607.63712555 449.24454229 608.48691771 453.07687897 611.04956055 458.12426758 C613.96810138 463.88413124 613.5472908 470.28253619 611.75 476.3125 C610.79898231 480.17519515 611.21026381 482.15859361 612.875 485.75 C616.1797146 492.91765803 616.126195 500.86640491 613.8125 508.375 C612.90290711 512.43318365 613.61155509 513.45023333 615.28149414 517.06005859 C616.51166895 520.38148878 616.39525931 523.62262604 616.3125 527.125 C616.31572266 527.81464844 616.31894531 528.50429688 616.32226562 529.21484375 C616.27926797 533.30352972 615.5357291 536.26111523 614 540 C614.18363988 541.9933468 614.18363988 541.9933468 614.875 543.9375 C616.76228353 551.31394152 617.60307443 560.17693026 614.375 567.25 C612.72552053 571.74858038 613.33041204 573.9074785 614.4375 578.42578125 C615.94852949 585.34083981 615.26129274 591.42695331 612.75390625 597.9921875 C611.08175034 602.42113086 611.08175034 602.42113086 612 607 C612.59237973 615.09909333 612.6847696 621.81392616 608.82421875 629.1015625 C607.47916801 632.19964144 608.33023307 634.76279319 609 638 C609.52137406 643.83573073 609.39548641 648.54553943 607 653.9375 C604.42034801 660.15742745 604.74226378 666.1313125 605.06054688 672.74389648 C605.31094479 679.5266167 604.00753917 684.28605253 600.75 690.3125 C599.68861866 692.18963826 599.68861866 692.18963826 601 695 C601.71188077 703.97436575 600.94888586 710.9277795 597 719 C595.66666667 722 595.66666667 722 597 725 C597.67580888 732.27879403 597.10168965 738.11792623 593.97265625 744.74609375 C591.96312702 749.40271369 591.88672822 753.78609414 591.9375 758.8125 C591.95103516 760.55466797 591.95103516 760.55466797 591.96484375 762.33203125 C591.97644531 763.21246094 591.98804688 764.09289063 592 765 C592.58007812 765.24105469 593.16015625 765.48210938 593.7578125 765.73046875 C603.25409218 771.10728216 608.37756821 784.13719219 611.22265625 794.10546875 C628.56384953 859.30775439 599.80181026 937.91297941 569.98144531 995.10644531 C568.94724432 997.10178434 567.93814007 999.10872523 566.9296875 1001.1171875 C557.35736805 1019.95591138 545.3322832 1037.82319349 530.4375 1052.875 C529.92445312 1053.39368652 529.41140625 1053.91237305 528.8828125 1054.44677734 C525.25752379 1058 525.25752379 1058 523 1058 C522.7525 1058.721875 522.505 1059.44375 522.25 1060.1875 C521 1063 521 1063 518.953125 1065.28515625 C516.61066745 1068.54117225 516.53830232 1070.28570974 516.5 1074.25 C516.12983889 1081.69528602 514.65692919 1087.27981059 509.375 1092.6875 C505.86304392 1096.50808253 506.14022717 1101.50892398 505.58203125 1106.44921875 C504.5374158 1112.8220741 502.10080086 1118.13792651 497.25 1122.4375 C494.63229575 1125.41877428 494.69306957 1126.3475608 494.5 1130.1875 C494.15487627 1136.93557718 492.13930209 1142.96196572 487.18359375 1147.7578125 C486.25740234 1148.55832031 486.25740234 1148.55832031 485.3125 1149.375 C481.23381103 1153.08369991 481.00623285 1156.89665815 480.37890625 1162.19921875 C479.54181534 1168.38678768 476.06868837 1172.53436643 472 1177 C470.99259766 1177.63421875 470.99259766 1177.63421875 469.96484375 1178.28125 C467.25341806 1180.65307367 466.89339016 1182.85460148 466 1186.3125 C463.40926075 1195.31033669 459.27231842 1200.28603553 452 1206 C451.34 1206.33 450.68 1206.66 450 1207 C449.35610965 1208.66533458 448.78429798 1210.35883933 448.25 1212.0625 C444.9337604 1221.44029109 439.84877006 1227.32784941 431 1232 C430.34 1232 429.68 1232 429 1232 C428.84144531 1232.56847656 428.68289063 1233.13695312 428.51953125 1233.72265625 C425.63446042 1243.27048735 421.95805286 1247.92906781 413.20703125 1252.8359375 C411.81216096 1253.571639 410.41050908 1254.29474546 409 1255 C408.05877336 1256.87371124 407.171302 1258.77460677 406.3125 1260.6875 C402.54365059 1268.40859782 397.99871705 1272.72779757 390 1276 C389.01 1276 388.02 1276 387 1276 C386.7525 1277.4540625 386.7525 1277.4540625 386.5 1278.9375 C384.6396999 1285.30644411 379.84247622 1290.21412937 374.3203125 1293.68359375 C367.8378187 1297 367.8378187 1297 365 1297 C364.7525 1298.2065625 364.7525 1298.2065625 364.5 1299.4375 C361.45787556 1306.66254554 356.03119962 1312.23547551 348.83203125 1315.359375 C346.57719886 1316.14784517 344.37114802 1316.7036065 342 1317 C341.773125 1317.86625 341.54625 1318.7325 341.3125 1319.625 C338.61110049 1326.57145587 333.68449292 1330.91942408 327 1334 C325.38456908 1334.35869792 323.75838164 1334.67227243 322.125 1334.9375 C319.8778992 1335.28898143 319.8778992 1335.28898143 318 1336 C316.77851979 1338.7447571 316.77851979 1338.7447571 316 1342 C311.14062503 1348.39173469 304.99405412 1352.06805404 297.25 1353.875 C293.0139798 1355.34131469 292.31652906 1357.23564028 290 1361 C286.53380641 1364.71913204 282.86565402 1367.16196604 278.25 1369.25 C272.88755345 1371.78113967 269.0523905 1375.33533539 264.77734375 1379.39453125 C261.28389053 1382.67179327 257.59677951 1385.65318434 253.87109375 1388.66015625 C250.77013077 1391.18733561 247.72832048 1393.77623107 244.6875 1396.375 C226.90397539 1411.5273025 226.90397539 1411.5273025 221.53515625 1414.25 C219.58400527 1416.0857697 219.58400527 1416.0857697 220.00390625 1419.78125 C221.08609984 1426.48247371 223.02582746 1432.99698198 224.9375 1439.5 C225.1353006 1440.17785553 225.3331012 1440.85571106 225.53689575 1441.55410767 C236.39148554 1478.52642046 253.35466997 1512.87195111 280 1541 C280.88042969 1541.94488281 281.76085938 1542.88976563 282.66796875 1543.86328125 C291.16115023 1552.7843968 300.76216705 1560.17477804 311 1567 C312.49140021 1563.37802806 313.7874262 1559.72433382 315 1556 C315.66572021 1556.36351562 316.33144043 1556.72703125 317.01733398 1557.1015625 C321.85310999 1559.74087347 326.69096112 1562.37616943 331.53515625 1565 C333.37760417 1566 335.22005208 1567 337.0625 1568 C337.97837891 1568.495 338.89425781 1568.99 339.83789062 1569.5 C340.74861328 1569.995 341.65933594 1570.49 342.59765625 1571 C343.50700928 1571.49306641 344.4163623 1571.98613281 345.35327148 1572.49414062 C347.0472074 1573.4579075 348.71307528 1574.47394281 350.33618164 1575.55273438 C357.13135062 1580.05101509 364.17733856 1581.99603875 371.98648071 1583.92282104 C376.1169871 1584.94776584 380.22987887 1586.03941786 384.34375 1587.12890625 C385.64872185 1587.47369774 385.64872185 1587.47369774 386.98005676 1587.82545471 C459.22061636 1607.08047487 529.51979815 1634.66438951 599 1662 C599.73961975 1662.29094543 600.4792395 1662.58189087 601.24127197 1662.88165283 C610.51611068 1666.53365974 619.76511217 1670.2481757 629 1674 C629.77226929 1674.31350403 630.54453857 1674.62700806 631.34020996 1674.95001221 C651.81260068 1683.26287637 672.25351618 1691.65146873 692.6411438 1700.17025757 C694.45942237 1700.92995917 696.2780044 1701.68893491 698.09689331 1702.44717407 C706.96307465 1706.14502117 715.80713167 1709.87219468 724.5546875 1713.84375 C737.55985468 1719.72804536 749.86605379 1724.3576844 763.9375 1726.98046875 C801.56727629 1734.1100984 835.10443357 1764.8921553 858 1794 C858.90661629 1795.10730482 859.81559752 1796.21267627 860.7265625 1797.31640625 C880.64250687 1821.56581993 896.91415439 1848.55244464 911.54638672 1876.25292969 C913.05032159 1879.09509884 914.57381903 1881.92627174 916.09765625 1884.7578125 C934.10962163 1918.50579353 949.00996201 1954.10296409 962.88366699 1989.72692871 C963.60673229 1991.57822829 964.34275558 1993.42445035 965.07910156 1995.27050781 C965.49901367 1996.36975586 965.91892578 1997.46900391 966.3515625 1998.6015625 C966.72104004 1999.55369629 967.09051758 2000.50583008 967.47119141 2001.48681641 C968 2004 968 2004 967.25512695 2006.18237305 C965.38059789 2008.8969945 963.01230332 2011.00861429 960.5625 2013.1875 C960.02898926 2013.66944824 959.49547852 2014.15139648 958.94580078 2014.64794922 C954.6287035 2018.5161194 950.16318237 2022.18523139 945.6484375 2025.8203125 C943.02724881 2027.97757399 940.50845719 2030.21311 938 2032.5 C932.8249007 2037.20463572 927.43858803 2041.60518139 922 2046 C920.78057483 2046.99917657 919.56186423 2047.99922565 918.34375 2049 C910.13396301 2055.73173814 901.79986364 2062.26857594 893.34375 2068.6875 C889.65958536 2071.48719912 886.00964387 2074.32822788 882.3671875 2077.18188477 C869.41795818 2087.32102981 856.22078767 2097.09882676 842.7421875 2106.5234375 C841.45797913 2107.42151627 841.45797913 2107.42151627 840.14782715 2108.33773804 C831.2230261 2114.56385117 822.23591054 2120.69642623 813.21826172 2126.78710938 C810.49761951 2128.62660951 807.78203926 2130.47342812 805.06640625 2132.3203125 C794.68856657 2139.34916219 784.17660225 2146.04328186 773.37597656 2152.40429688 C769.28253009 2154.81569212 765.25802911 2157.3247467 761.25 2159.875 C735.47571822 2176.09915864 708.64231793 2190.70166983 681.5859375 2204.65625 C679.19343268 2205.89948513 676.81303907 2207.1622106 674.4375 2208.4375 C647.94528806 2222.64677312 620.56961737 2235.04987854 593 2247 C592.33224548 2247.28961609 591.66449097 2247.57923218 590.97650146 2247.87762451 C556.57922249 2262.77207597 521.49227361 2275.96239401 486 2288 C485.26021912 2288.25138733 484.52043823 2288.50277466 483.75823975 2288.76177979 C390.83254925 2320.28482386 294.24506386 2340.70644703 133.625 2356.75 C132.20905045 2356.83874893 132.20905045 2356.83874893 130.76449585 2356.92929077 C103.2653639 2358.62166118 75.79351974 2359.20867538 48.25 2359.1875 C47.46732883 2359.18723312 46.68465767 2359.18696625 45.8782692 2359.18669128 C18.21351474 2359.17490245 -9.38228401 2358.74749342 -37 2357 C-37.9987616 2356.93683594 -38.99752319 2356.87367188 -40.02655029 2356.80859375 C-138.84005363 2350.45425297 -236.96399661 2334.1660034 -365 2297 C-366.20952332 2296.62711853 -366.20952332 2296.62711853 -367.44348145 2296.2467041 C-419.53549594 2280.13988643 -470.43882518 2260.4042832 -520.07897949 2237.87194824 C-521.93888711 2237.02773905 -523.79996336 2236.18614934 -525.66113281 2235.34472656 C-556.08925859 2221.5349746 -586.37106412 2206.85191685 -615.47558594 2190.42041016 C-618.30064667 2188.83083536 -621.13795242 2187.26446312 -623.9765625 2185.69921875 C-693.74233005 2147.11310783 -760.46183778 2101.68921214 -822 2051 C-823.79157706 2049.54155659 -825.58324502 2048.08322483 -827.375 2046.625 C-833.06677488 2041.96662538 -838.68707177 2037.22746495 -844.28662109 2032.45898438 C-845.44511347 2031.47249956 -846.6043127 2030.48684435 -847.76416016 2029.50195312 C-854.92925049 2023.41583649 -861.9974839 2017.25677159 -868.890625 2010.86328125 C-870.85975474 2008.96305296 -870.85975474 2008.96305296 -873 2008 C-870.8398338 2000.24145744 -868.09555698 1992.79402114 -865.125 1985.3125 C-864.64667725 1984.10352051 -864.16835449 1982.89454102 -863.67553711 1981.64892578 C-854.89029157 1959.52423372 -845.63977781 1937.63057489 -835.46630859 1916.10449219 C-834.01646127 1913.03485206 -832.58028055 1909.95906656 -831.14453125 1906.8828125 C-804.6416786 1850.49175554 -770.86254838 1790.07595628 -721 1751 C-720.06285156 1750.2575 -719.12570312 1749.515 -718.16015625 1748.75 C-704.31784059 1738.04775326 -689.31992743 1729.85809041 -672.94921875 1723.72265625 C-666.27660645 1721.17630191 -659.84072986 1718.21000726 -653.40377808 1715.12789917 C-639.49171293 1708.47426524 -625.44972108 1702.13863122 -611.34399414 1695.90844727 C-609.82436145 1695.23718733 -608.3047487 1694.56588227 -606.78515625 1693.89453125 C-605.66742577 1693.40086815 -605.66742577 1693.40086815 -604.52711487 1692.89723206 C-599.77535388 1690.79522288 -595.03656947 1688.66666669 -590.30859375 1686.51171875 C-589.69345413 1686.23137787 -589.07831451 1685.95103699 -588.4445343 1685.66220093 C-587.83143906 1685.38276642 -587.21834381 1685.10333191 -586.58666992 1684.81542969 C-508.84700521 1649.3885934 -429.10290253 1617.53184339 -302.37940979 1577.53817749 C-300.41319504 1577.00805781 -298.44886585 1576.4709597 -296.48461914 1575.93359375 C-294.3308584 1575.35656152 -292.16940294 1574.80655201 -289.99780273 1574.30078125 C-283.78646826 1572.75126226 -280.84359625 1570.58608052 -277.1875 1565.375 C-276.69668945 1564.71983398 -276.20587891 1564.06466797 -275.70019531 1563.38964844 C-274.65615176 1561.99385772 -273.6219848 1560.59063184 -272.59716797 1559.18066406 C-270.42986843 1556.2215813 -268.18076827 1553.32902911 -265.93359375 1550.43041992 C-263.74261868 1547.59289116 -261.58561309 1544.73027689 -259.42626953 1541.86865234 C-258.20239506 1540.26517148 -256.94605204 1538.68656401 -255.68359375 1537.11328125 C-233.9424687 1509.33059112 -229.22541036 1467.85995772 -224 1434 C-229.79436784 1429.43118391 -235.67664562 1425.02874424 -241.6875 1420.75 C-249.63918584 1415.04793458 -257.36517292 1409.11746522 -265 1403 C-265.89074219 1402.29230469 -266.78148437 1401.58460937 -267.69921875 1400.85546875 C-270.14020982 1398.91263913 -272.5723323 1396.95944654 -275 1395 C-275.84691406 1394.31679687 -276.69382812 1393.63359375 -277.56640625 1392.9296875 C-287.93299882 1384.50966035 -298.09173691 1375.86173891 -307.88916016 1366.78466797 C-310.48468846 1364.38030679 -313.11052291 1362.03360645 -315.8125 1359.75 C-318.51862611 1357.4288458 -321.02693168 1354.97071535 -323.5078125 1352.4140625 C-324.15258545 1351.7530957 -324.7973584 1351.09212891 -325.46166992 1350.41113281 C-326.74475339 1349.08888938 -328.01894198 1347.75793441 -329.2824707 1346.41699219 C-333.20239603 1342.37995317 -337.02305622 1339.69062391 -342.01245117 1337.10400391 C-344.46864397 1335.73968701 -346.15430727 1334.16250267 -347.9375 1332 C-348.50210938 1331.31808594 -349.06671875 1330.63617187 -349.6484375 1329.93359375 C-351 1328 -351 1328 -352.0625 1325.0625 C-352.371875 1324.381875 -352.68125 1323.70125 -353 1323 C-354.99723547 1322.65048379 -356.99810127 1322.32173372 -359 1322 C-366.56017799 1318.53900943 -372.674526 1313.75528268 -375.85546875 1305.8828125 C-377.42805299 1303.29583092 -378.97732064 1302.95214419 -381.8125 1302 C-389.88973588 1298.97538226 -393.72372896 1294.34814929 -398 1287 C-398.33 1286.01 -398.66 1285.02 -399 1284 C-401.15288922 1282.67625823 -401.15288922 1282.67625823 -403.75 1281.5625 C-412.00450672 1277.57594846 -415.74505404 1273.06554629 -420 1265 C-420.33 1264.01 -420.66 1263.02 -421 1262 C-423.09316902 1260.8210785 -423.09316902 1260.8210785 -425.625 1259.8125 C-432.34589805 1256.61069878 -436.83815856 1251.97448381 -439.9375 1245.1875 C-441 1242 -441 1242 -441 1239 C-441.72058594 1238.91878906 -442.44117188 1238.83757812 -443.18359375 1238.75390625 C-449.08858022 1237.1732372 -454.13331152 1231.80252164 -457.46484375 1226.80078125 C-458.84262441 1224.07121579 -459.88664415 1221.35022681 -460.828125 1218.44140625 C-462.23424278 1215.5119942 -463.44938671 1214.76403571 -466.25 1213.1875 C-471.77607646 1209.68705929 -476.00158266 1205.78634771 -477.71484375 1199.2890625 C-477.91207031 1198.34804687 -478.10929687 1197.40703125 -478.3125 1196.4375 C-479.62025955 1190.75226988 -482.1004438 1188.87810362 -486.78125 1185.65625 C-492.2348789 1181.58523125 -493.99940196 1176.48393134 -495.3125 1170 C-496.5656226 1164.26732419 -498.7336586 1161.69456594 -503.0625 1157.875 C-507.3301166 1153.74504846 -509.82721507 1147.78744572 -510.09765625 1141.859375 C-510.06510417 1139.90625 -510.03255208 1137.953125 -510 1136 C-510.59683594 1135.74347656 -511.19367188 1135.48695312 -511.80859375 1135.22265625 C-517.62832217 1131.975642 -520.6339306 1125.43779599 -522.50390625 1119.2890625 C-523.00685652 1116.96836285 -523.14824892 1114.80626503 -523.25 1112.4375 C-523.63894941 1107.56717697 -525.9989486 1105.37276672 -529.28125 1101.94921875 C-533.50158199 1097.16297861 -534.0576678 1092.13841679 -534.3125 1085.9375 C-534.62723446 1080.60710356 -535.78025588 1078.27722075 -539.50390625 1074.5625 C-544.33668211 1069.5152145 -544.69144285 1062.61801895 -545 1056 C-544.90332031 1055.19820312 -544.80664062 1054.39640625 -544.70703125 1053.5703125 C-545.0668911 1050.4131421 -546.4067961 1048.96258986 -548.50244141 1046.65185547 C-550.08799985 1044.90293333 -551.53497412 1043.08876037 -552.98046875 1041.22265625 C-553.75874023 1040.21803345 -553.75874023 1040.21803345 -554.55273438 1039.19311523 C-593.68762292 988.18801184 -618.15386196 923.54998078 -627 860 C-627.11569336 859.17741699 -627.23138672 858.35483398 -627.35058594 857.50732422 C-631.33940219 827.82792733 -632.19912664 793.32953617 -614 768 C-613.22849609 766.89591797 -613.22849609 766.89591797 -612.44140625 765.76953125 C-611.31220626 764.16689898 -610.15936282 762.5809493 -609 761 C-609.61875 760.175 -610.2375 759.35 -610.875 758.5 C-615.07520144 752.01285614 -615.06487926 746.54106641 -614.375 739.0625 C-613.84464246 733.24972845 -614.20693307 729.57921565 -617.0703125 724.484375 C-619.31993388 718.47278173 -618.84858804 709.53405873 -617.359375 703.33203125 C-616.89148217 700.29581368 -617.69039403 698.72144362 -618.9375 695.9375 C-621.70598486 688.83906651 -622.36452904 681.41192569 -619.8125 674.125 C-618.74350627 670.01348564 -619.89852428 668.58029197 -622 665 C-623.85913867 658.57752097 -623.13633255 652.48553943 -621.8125 646.0625 C-620.88229622 640.94958682 -621.33387804 637.95456558 -623.25 633.20703125 C-625.26292667 627.28357517 -624.33210275 621.58279357 -622.3125 615.8125 C-620.94786099 611.8367455 -620.94786099 611.8367455 -622.3125 607.8125 C-622.6115625 607.27496094 -622.910625 606.73742187 -623.21875 606.18359375 C-625.64955159 599.3895033 -624.7825696 590.47003987 -622 584 C-622.32245706 580.77542937 -622.97578049 578.07265853 -624 575 C-624.86311014 561.00765677 -624.86311014 561.00765677 -622.3125 555.6875 C-620.65151441 551.02092143 -621.62171011 548.96172366 -623.21484375 544.4375 C-625.00548165 538.87850472 -624.22464146 534.39775248 -622.4375 528.9375 C-621.00913042 524.56521376 -620.93010839 521.54703932 -622 517 C-623.60761376 509.85504997 -623.00385611 504.23405135 -620.75390625 497.33203125 C-619.26792218 492.73548987 -619.04050959 490.75028433 -620.5078125 486.046875 C-622.10115718 479.42058441 -621.15136164 473.28520776 -618.75390625 467.0078125 C-617.30565671 463.15081633 -616.81975066 460.87309464 -618 456.875 C-619.98249967 448.57837466 -618.28813865 441.74658752 -614.7421875 434.12890625 C-613.70767404 431.85880855 -613.70767404 431.85880855 -615 429 C-615.67489737 419.87228969 -615.31671276 412.23469301 -611 404 C-609.71865259 401.43730518 -610.29351376 400.72570029 -611 398 C-611.55633405 390.60717634 -611.30472767 383.74545237 -608 377 C-607.46117187 376.37480469 -606.92234375 375.74960937 -606.3671875 375.10546875 C-604.50975342 372.24502026 -604.94534615 370.64433799 -605.4375 367.3125 C-606.31798063 359.04798863 -605.20165261 353.83834576 -600.875 346.75 C-597.70310373 341.30592803 -597.73090956 337.26367031 -598.0390625 331.0859375 C-597.96702252 325.39477938 -595.72423702 320.8795154 -591.91796875 316.73046875 C-589.51885809 313.31503423 -589.31572989 310.34748703 -589.0625 306.3125 C-588.30275481 298.25295394 -586.62821603 291.30338334 -580.42578125 285.65625 C-577.5020073 282.45469399 -577.13649107 280.43233382 -576.5 276.1875 C-574.75779168 266.87301193 -571.01936076 261.23943179 -564 255 C-563.34 255 -562.68 255 -562 255 C-561.92523437 254.31035156 -561.85046875 253.62070312 -561.7734375 252.91015625 C-560.38934966 243.01799902 -556.45309271 236.45277634 -548.61328125 230.2890625 C-545.36205402 227.69122961 -543.81331841 226.0407813 -542.875 221.9375 C-540.71457678 214.91612453 -535.37749061 209.32265871 -529.3984375 205.2109375 C-527 204 -527 204 -524 204 C-523.95875 203.195625 -523.9175 202.39125 -523.875 201.5625 C-522.03988674 194.09096744 -517.18474036 188.38085775 -511 184 C-505.72413793 181 -505.72413793 181 -502 181 C-501.9175 180.29875 -501.835 179.5975 -501.75 178.875 C-499.93403023 171.91378255 -494.70305379 167.06355155 -489 163 C-487.4773 162.33011506 -485.93466388 161.70362741 -484.375 161.125 C-479.65265266 159.248999 -478.0044015 156.49912947 -475.44140625 152.24609375 C-471.86663627 146.67565273 -467.6764968 144.07785672 -461.4375 142.125 C-456.30384101 140.44412939 -454.28805692 138.46249894 -451.3671875 134.0234375 C-447.58030767 128.41885535 -443.37861109 125.95621823 -436.9375 124.125 C-431.46290192 122.49686674 -429.54803024 120.7394146 -426.53515625 116.03125 C-422.25609341 110.36938568 -415.80755714 107.90996282 -409 106.875 C-408.0925 106.78992188 -407.185 106.70484375 -406.25 106.6171875 C-403.85555245 106.2414075 -403.85555245 106.2414075 -402.921875 104.16796875 C-402.61765625 103.45253906 -402.3134375 102.73710937 -402 102 C-396.44921748 96.18668047 -390.94065114 92.41693533 -382.9375 91.1875 C-378.5856162 90.40738453 -377.09649326 89.35879492 -374.515625 85.66015625 C-369.59885773 80.274522 -361.96065106 77.77589868 -354.875 77.375 C-353.98554687 77.38273437 -353.09609375 77.39046875 -352.1796875 77.3984375 C-351.46039062 77.26695312 -350.74109375 77.13546875 -350 77 C-348.86968635 75.15665942 -348.86968635 75.15665942 -348 73 C-340.98851976 66.39910194 -334.65577933 64.75309212 -325.1953125 64.9296875 C-324.47085938 64.95289063 -323.74640625 64.97609375 -323 65 C-322.75636719 64.40445313 -322.51273438 63.80890625 -322.26171875 63.1953125 C-319.45412685 58.31027644 -313.669749 55.63754053 -308.5625 53.6875 C-305.60896865 53.11752027 -302.92421617 52.86581141 -299.9375 52.6875 C-294.87680282 52.26069421 -292.76540079 50.44494115 -289 47 C-283.7176232 43.65853827 -279.02429351 42.80468795 -272.8125 42.5625 C-266.72594171 42.2893852 -264.46104892 41.26278008 -260 37 C-254.2451424 34.04198423 -249.14870577 32.78960435 -242.6875 33.0625 C-237.88870795 33.2648373 -237.88870795 33.2648373 -233.75 30.6875 C-232.38875 29.3571875 -232.38875 29.3571875 -231 28 C-225.52797974 25.11475295 -221.62140195 24.92374875 -215.4375 25.125 C-208.58924682 25.28805365 -206.0295186 24.49446343 -201 20 C-196.03316274 17.80467252 -191.90189121 17.92663179 -186.625 18.1875 C-179.60198732 18.38513025 -175.51754322 17.54824508 -170 13 C-167.16807293 12.05602431 -165.69817975 11.9219222 -162.796875 12.04296875 C-161.57291016 12.07487305 -161.57291016 12.07487305 -160.32421875 12.10742188 C-158.62327492 12.16033439 -156.92265672 12.22522276 -155.22265625 12.30273438 C-149.19196936 12.43054328 -146.01545029 11.34151193 -141 8 C-138.13937775 7.04645925 -136.62229956 6.92404714 -133.68359375 7.04296875 C-121.68548792 7.5277457 -121.68548792 7.5277457 -110.4296875 3.89453125 C-104.4364543 1.68801935 -97.00473468 2.39313241 -90.828125 3.640625 C-87.63915622 4.04585308 -86.69593518 3.6767999 -84 2.0625 C-76.78590378 -1.47741185 -68.37326695 -0.65736685 -60.625 0.6875 C-57.1211979 0.9895519 -56.26505737 0.87928016 -53.25 -0.4375 C-45.45707563 -3.76859316 -37.09707125 -2.13727064 -29.11328125 -0.31640625 C-26.23208306 0.11497463 -24.54212626 -0.65832225 -22 -2 C-14.55357919 -3.95025307 -7.02044329 -2.83177545 0 0 Z " fill="#99603B" transform="translate(1330,395)"/>
<path d="M0 0 C0.33 0 0.66 0 1 0 C1.2333606 1.25151855 1.2333606 1.25151855 1.47143555 2.52832031 C7.57573107 35.09949714 15.01552396 67.0928836 28.03369141 97.71435547 C28.99582791 99.9901316 29.9288214 102.27597681 30.85546875 104.56640625 C45.62222533 140.80823499 64.71960496 174.08616496 90 204 C90.71027344 204.84304687 91.42054688 205.68609375 92.15234375 206.5546875 C104.1311317 220.26506262 117.16161952 233.40293017 132 244 C132.61907227 244.44746582 133.23814453 244.89493164 133.87597656 245.35595703 C149.0227532 256.24626882 164.87752755 265.57555796 182 273 C182.68578125 273.3000293 183.3715625 273.60005859 184.078125 273.90917969 C233.33938299 295.13689284 294.22823146 298.74286054 346 285 C347.29649283 284.67555234 348.59336712 284.35262506 349.890625 284.03125 C388.09589887 274.28340234 423.59424587 255.16887811 452.5078125 228.30859375 C454.69709164 226.28059379 456.92299995 224.31788817 459.1875 222.375 C477.23180548 206.65067665 491.98696736 186.95532026 505 167 C505.45358887 166.30519531 505.90717773 165.61039063 506.37451172 164.89453125 C513.08330793 154.54481803 519.21353267 143.88994179 525 133 C525.47195801 132.11344727 525.94391602 131.22689453 526.43017578 130.31347656 C534.36322775 115.27444106 540.84346463 99.92011525 546.84350586 84.03100586 C547.90828712 81.24036634 549.00864794 78.46795928 550.12890625 75.69921875 C555.25907857 62.94200149 558.90404635 49.94954663 561.921875 36.546875 C562.74248084 32.94746673 563.74962192 29.47832447 565 26 C565.99858032 26.54527344 565.99858032 26.54527344 567.01733398 27.1015625 C571.85310999 29.74087347 576.69096112 32.37616943 581.53515625 35 C583.37760417 36 585.22005208 37 587.0625 38 C587.97837891 38.495 588.89425781 38.99 589.83789062 39.5 C590.74861328 39.995 591.65933594 40.49 592.59765625 41 C593.96168579 41.73959961 593.96168579 41.73959961 595.35327148 42.49414062 C597.0472074 43.4579075 598.71307528 44.47394281 600.33618164 45.55273438 C607.13135062 50.05101509 614.17733856 51.99603875 621.98648071 53.92282104 C626.1169871 54.94776584 630.22987887 56.03941786 634.34375 57.12890625 C635.21373123 57.35876724 636.08371246 57.58862823 636.98005676 57.82545471 C709.22061636 77.08047487 779.51979815 104.66438951 849 132 C850.10942963 132.43641815 850.10942963 132.43641815 851.24127197 132.88165283 C860.51611068 136.53365974 869.76511217 140.2481757 879 144 C879.77226929 144.31350403 880.54453857 144.62700806 881.34020996 144.95001221 C901.81260068 153.26287637 922.25351618 161.65146873 942.6411438 170.17025757 C944.45942237 170.92995917 946.2780044 171.68893491 948.09689331 172.44717407 C956.96307465 176.14502117 965.80713167 179.87219468 974.5546875 183.84375 C987.55985468 189.72804536 999.86605379 194.3576844 1013.9375 196.98046875 C1051.56727629 204.1100984 1085.10443357 234.8921553 1108 264 C1108.90661629 265.10730482 1109.81559752 266.21267627 1110.7265625 267.31640625 C1130.64250687 291.56581993 1146.91415439 318.55244464 1161.54638672 346.25292969 C1163.05032159 349.09509884 1164.57381903 351.92627174 1166.09765625 354.7578125 C1184.10962163 388.50579353 1199.00996201 424.10296409 1212.88366699 459.72692871 C1213.60673229 461.57822829 1214.34275558 463.42445035 1215.07910156 465.27050781 C1215.70896973 466.91937988 1215.70896973 466.91937988 1216.3515625 468.6015625 C1216.90577881 470.02976318 1216.90577881 470.02976318 1217.47119141 471.48681641 C1218 474 1218 474 1217.25512695 476.18237305 C1215.38059789 478.8969945 1213.01230332 481.00861429 1210.5625 483.1875 C1210.02898926 483.66944824 1209.49547852 484.15139648 1208.94580078 484.64794922 C1204.6287035 488.5161194 1200.16318237 492.18523139 1195.6484375 495.8203125 C1193.02724881 497.97757399 1190.50845719 500.21311 1188 502.5 C1182.8249007 507.20463572 1177.43858803 511.60518139 1172 516 C1170.78057483 516.99917657 1169.56186423 517.99922565 1168.34375 519 C1160.13396301 525.73173814 1151.79986364 532.26857594 1143.34375 538.6875 C1139.65958536 541.48719912 1136.00964387 544.32822788 1132.3671875 547.18188477 C1119.41795818 557.32102981 1106.22078767 567.09882676 1092.7421875 576.5234375 C1091.88604858 577.12215668 1091.02990967 577.72087585 1090.14782715 578.33773804 C1081.2230261 584.56385117 1072.23591054 590.69642623 1063.21826172 596.78710938 C1060.49761951 598.62660951 1057.78203926 600.47342812 1055.06640625 602.3203125 C1044.68856657 609.34916219 1034.17660225 616.04328186 1023.37597656 622.40429688 C1019.28253009 624.81569212 1015.25802911 627.3247467 1011.25 629.875 C985.47571822 646.09915864 958.64231793 660.70166983 931.5859375 674.65625 C929.19343268 675.89948513 926.81303907 677.1622106 924.4375 678.4375 C897.94528806 692.64677312 870.56961737 705.04987854 843 717 C842.33224548 717.28961609 841.66449097 717.57923218 840.97650146 717.87762451 C806.57922249 732.77207597 771.49227361 745.96239401 736 758 C735.26021912 758.25138733 734.52043823 758.50277466 733.75823975 758.76177979 C640.83254925 790.28482386 544.24506386 810.70644703 383.625 826.75 C382.20905045 826.83874893 382.20905045 826.83874893 380.76449585 826.92929077 C353.2653639 828.62166118 325.79351974 829.20867538 298.25 829.1875 C297.07599325 829.18709969 297.07599325 829.18709969 295.8782692 829.18669128 C268.21351474 829.17490245 240.61771599 828.74749342 213 827 C212.0012384 826.93683594 211.00247681 826.87367188 209.97344971 826.80859375 C111.15994637 820.45425297 13.03600339 804.1660034 -115 767 C-115.80634888 766.75141235 -116.61269775 766.50282471 -117.44348145 766.2467041 C-169.53549594 750.13988643 -220.43882518 730.4042832 -270.07897949 707.87194824 C-271.93888711 707.02773905 -273.79996336 706.18614934 -275.66113281 705.34472656 C-306.08925859 691.5349746 -336.37106412 676.85191685 -365.47558594 660.42041016 C-368.30064667 658.83083536 -371.13795242 657.26446312 -373.9765625 655.69921875 C-443.74233005 617.11310783 -510.46183778 571.68921214 -572 521 C-573.79157706 519.54155659 -575.58324502 518.08322483 -577.375 516.625 C-583.06677488 511.96662538 -588.68707177 507.22746495 -594.28662109 502.45898438 C-595.44511347 501.47249956 -596.6043127 500.48684435 -597.76416016 499.50195312 C-604.92925049 493.41583649 -611.9974839 487.25677159 -618.890625 480.86328125 C-620.85975474 478.96305296 -620.85975474 478.96305296 -623 478 C-620.8398338 470.24145744 -618.09555698 462.79402114 -615.125 455.3125 C-614.40751587 453.49903076 -614.40751587 453.49903076 -613.67553711 451.64892578 C-604.89029157 429.52423372 -595.63977781 407.63057489 -585.46630859 386.10449219 C-584.01646127 383.03485206 -582.58028055 379.95906656 -581.14453125 376.8828125 C-554.6416786 320.49175554 -520.86254838 260.07595628 -471 221 C-470.06285156 220.2575 -469.12570312 219.515 -468.16015625 218.75 C-454.31784059 208.04775326 -439.31992743 199.85809041 -422.94921875 193.72265625 C-416.27660645 191.17630191 -409.84072986 188.21000726 -403.40377808 185.12789917 C-389.49171293 178.47426524 -375.44972108 172.13863122 -361.34399414 165.90844727 C-359.82436145 165.23718733 -358.3047487 164.56588227 -356.78515625 163.89453125 C-356.04000259 163.56542252 -355.29484894 163.23631378 -354.52711487 162.89723206 C-349.77535388 160.79522288 -345.03656947 158.66666669 -340.30859375 156.51171875 C-339.69345413 156.23137787 -339.07831451 155.95103699 -338.4445343 155.66220093 C-337.83143906 155.38276642 -337.21834381 155.10333191 -336.58666992 154.81542969 C-258.84700521 119.3885934 -179.10290253 87.53184339 -52.37940979 47.53817749 C-50.41319504 47.00805781 -48.44886585 46.4709597 -46.48461914 45.93359375 C-44.3308584 45.35656152 -42.16940294 44.80655201 -39.99780273 44.30078125 C-33.78622904 42.75120259 -30.84397805 40.58595207 -27.1875 35.375 C-26.69668945 34.72055908 -26.20587891 34.06611816 -25.70019531 33.3918457 C-24.65595192 31.99694076 -23.62179122 30.59443833 -22.59716797 29.18505859 C-20.42337831 26.21113358 -18.17734562 23.29521547 -15.93188477 20.37524414 C-14.28173256 18.22877674 -12.64007302 16.07604928 -11 13.921875 C-2.93355796 3.35381486 -2.93355796 3.35381486 0 0 Z " fill="#FCFCFC" transform="translate(1080,1925)"/>
<path d="M0 0 C2.86867529 -0.34150896 5.25568776 -1.08522925 8 -2 C16.13345551 -2.51265417 23.15617447 -2.26157223 30.87890625 0.46484375 C34.22518329 1.30911623 36.78509584 0.07163472 40 -1 C47.28949721 -1.71225622 53.2492667 -0.71435735 60 2 C63.53674682 3.17891561 65.38906594 2.42376613 68.8984375 1.4921875 C75.61617982 -0.08111275 81.70706475 1.60164356 88 4 C88.99 4.66 89.98 5.32 91 6 C93.01140732 5.74436024 95.0122544 5.3999732 97 5 C104.65283433 4.40758516 110.88148462 4.73513357 117.87890625 8.02734375 C122.08970192 9.9582611 124.51597349 9.93851718 129 9 C135.69149651 8.47517674 142.72950591 9.73708237 148.3203125 13.60546875 C151.84660322 15.44057923 154.89617476 15.20469201 158.75 15 C166.48514149 14.79990784 172.51215368 15.35843336 178.78515625 20.109375 C182.69358009 22.40788914 184.83344616 22.29767336 189.3125 22 C196.76713413 21.78763812 202.17633548 22.8021648 207.95703125 27.63671875 C210.43589537 29.29087473 211.56813055 29.23454956 214.5 29 C223.78510279 28.75349285 231.05196413 30.82543691 238.14453125 36.77734375 C240.6837293 38.45054162 242.96954462 38.3217004 245.94140625 38.1015625 C253.99413975 37.70427394 260.57998655 41.53390369 267 46 C267.66 46.66 268.32 47.32 269 48 C271.591371 48.31487564 271.591371 48.31487564 274.5625 48.375 C282.11237228 48.90782591 287.82645572 50.6706042 293.1875 56.125 C297.33354895 60.00107367 302.03692688 59.8163853 307.4765625 60.37890625 C313.86328531 61.50472546 319.75527847 65.05456254 324 70 C324 70.66 324 71.32 324 72 C325.12535156 72.02126953 325.12535156 72.02126953 326.2734375 72.04296875 C333.77459674 72.39251899 339.80000467 73.59385503 346 78 C347.56640625 79.81640625 347.56640625 79.81640625 348.9375 81.6875 C351.43599282 84.97163787 353.32165261 85.5647635 357.375 86.1875 C358.32632813 86.31125 359.27765625 86.435 360.2578125 86.5625 C367.86849614 87.77674012 373.1186071 92.25552024 378 98 C378.33 98.66 378.66 99.32 379 100 C380.87671992 100.53120222 382.77834164 100.97579099 384.6875 101.375 C392.62207862 103.2552319 398.82994025 106.99111406 403.29296875 114.04296875 C405.52727646 116.60449772 407.36056285 116.95632333 410.625 117.8125 C419.12609473 120.43692997 425.76014662 125.0733176 430 133 C430 133.66 430 134.32 430 135 C430.969375 135.061875 431.93875 135.12375 432.9375 135.1875 C440.31714101 136.27801375 446.28363268 140.4536676 450.84765625 146.21875 C452.44009046 148.68027543 453.30823963 151.16378249 454 154 C454.78375 154.04125 455.5675 154.0825 456.375 154.125 C463.59088449 155.86676522 469.33093968 159.43271922 473.5 165.625 C474.79681891 167.77379878 475.93275305 169.83790254 476.89453125 172.15625 C478.33637794 174.56102611 479.57795367 174.93179048 482.1875 175.875 C489.91920413 179.08930397 494.16693419 183.54711411 498.15234375 190.8515625 C499 193 499 193 499 197 C499.7321875 197.10183594 500.464375 197.20367188 501.21875 197.30859375 C507.39040801 198.84284019 512.48333619 203.76473289 516 208.9375 C518.26777933 212.91975168 518.75660231 216.45657654 519 221 C519.886875 221.2475 520.77375 221.495 521.6875 221.75 C527.7872212 224.05178159 531.99894254 228.22796615 535 234 C535.64159824 236.15587882 536.24289078 238.32399284 536.8125 240.5 C538.43399724 246.27782487 540.36701938 248.95052949 545.1015625 252.5234375 C549.48693292 255.93428116 551.75200674 260.69602863 553 266 C553.14821925 269.00885076 553.1203728 271.99067989 553 275 C553.59683594 275.25523437 554.19367188 275.51046875 554.80859375 275.7734375 C560.23776353 278.81222415 563.51801634 285.1312944 565.5 290.86328125 C566.06676013 293.28529524 566.19230243 295.57966886 566.3125 298.0625 C566.66411975 302.86796985 568.16478117 304.85125466 571.43359375 308.24609375 C577.64300347 315.19877446 577.49432633 323.11585742 577 332 C577.66 332 578.32 332 579 332 C580.4375 333.7578125 580.4375 333.7578125 582 336.125 C582.515625 336.89070313 583.03125 337.65640625 583.5625 338.4453125 C586.45273486 343.58176249 587.17129771 347.96885471 587.25 353.8125 C587.59199691 359.94263325 588.8958554 363.25447544 592.56640625 368.078125 C596.95522351 373.96177103 596.05976816 380.74743812 595.6796875 387.6953125 C596.06840877 391.70577832 597.33121725 393.06830742 600 396 C603.0179557 401.46159894 603.08774981 406.83228965 602.875 412.9375 C602.70644348 417.85092255 602.79583066 421.4973538 605.5 425.75 C608.95590327 431.40073878 608.30522802 437.20697257 607.90234375 443.60644531 C607.63712555 449.24454229 608.48691771 453.07687897 611.04956055 458.12426758 C613.96810138 463.88413124 613.5472908 470.28253619 611.75 476.3125 C610.79898231 480.17519515 611.21026381 482.15859361 612.875 485.75 C616.1797146 492.91765803 616.126195 500.86640491 613.8125 508.375 C612.90290711 512.43318365 613.61155509 513.45023333 615.28149414 517.06005859 C616.51166895 520.38148878 616.39525931 523.62262604 616.3125 527.125 C616.31572266 527.81464844 616.31894531 528.50429688 616.32226562 529.21484375 C616.27926797 533.30352972 615.5357291 536.26111523 614 540 C614.18363988 541.9933468 614.18363988 541.9933468 614.875 543.9375 C616.76228353 551.31394152 617.60307443 560.17693026 614.375 567.25 C612.72552053 571.74858038 613.33041204 573.9074785 614.4375 578.42578125 C615.94852949 585.34083981 615.26129274 591.42695331 612.75390625 597.9921875 C611.08175034 602.42113086 611.08175034 602.42113086 612 607 C612.59237973 615.09909333 612.6847696 621.81392616 608.82421875 629.1015625 C607.47916801 632.19964144 608.33023307 634.76279319 609 638 C609.52137406 643.83573073 609.39548641 648.54553943 607 653.9375 C604.42034801 660.15742745 604.74226378 666.1313125 605.06054688 672.74389648 C605.31094479 679.5266167 604.00753917 684.28605253 600.75 690.3125 C599.68861866 692.18963826 599.68861866 692.18963826 601 695 C601.71188077 703.97436575 600.94888586 710.9277795 597 719 C595.66666667 722 595.66666667 722 597 725 C597.67580888 732.27879403 597.10168965 738.11792623 593.97265625 744.74609375 C592.03265711 749.24159377 591.88417416 753.45984828 591.9375 758.3125 C591.95103516 759.91544922 591.95103516 759.91544922 591.96484375 761.55078125 C591.97644531 762.35902344 591.98804688 763.16726563 592 764 C589.06716336 762.87275326 586.48482438 761.7027833 583.75 760.125 C573.33329229 754.80710142 559.69808051 753.05477679 548.19140625 752.68359375 C546.33032227 752.62075195 546.33032227 752.62075195 544.43164062 752.55664062 C542.51641602 752.49766602 542.51641602 752.49766602 540.5625 752.4375 C539.25861328 752.39431641 537.95472656 752.35113281 536.61132812 752.30664062 C533.40764684 752.20102476 530.20389389 752.09891899 527 752 C526.90203125 752.66902344 526.8040625 753.33804688 526.703125 754.02734375 C524.33817541 769.21602859 520.43901166 783.32669327 515.05737305 797.69235229 C509.91346529 811.45809731 505.08176178 825.17527016 501.62109375 839.47314453 C500.95876009 842.16778027 500.24864613 844.8468656 499.53125 847.52734375 C496.539377 858.84962353 494.05154917 870.24506387 491.875 881.75 C491.74703033 882.42107788 491.61906067 883.09215576 491.48721313 883.78356934 C490.08668536 891.18589839 488.87553557 898.56508893 488.05078125 906.0546875 C487.90205566 907.32989258 487.75333008 908.60509766 487.60009766 909.91894531 C487.33241608 912.32332774 487.09948018 914.73192985 486.90771484 917.14355469 C486.04281671 924.89869219 486.04281671 924.89869219 483.14575195 927.95825195 C480.83249357 929.55671574 478.54260677 930.80347917 476 932 C475.30624268 932.35771484 474.61248535 932.71542969 473.89770508 933.08398438 C471.89084936 934.09169255 469.8628965 935.02200573 467.8125 935.9375 C466.32874693 936.61700638 464.84568384 937.29802121 463.36328125 937.98046875 C462.63189941 938.3161084 461.90051758 938.65174805 461.14697266 938.99755859 C457.89722272 940.51489692 454.69830602 942.12770281 451.5 943.75 C437.09954233 951 437.09954233 951 434 951 C434.73029407 943.89702076 436.21407996 937.03041415 437.75 930.0625 C438.29663232 927.53668737 438.84218563 925.01064102 439.38671875 922.484375 C439.65919434 921.22173828 439.93166992 919.95910156 440.21240234 918.65820312 C444.36036058 899.39192716 447.61103281 880.10206955 450.45629883 860.60961914 C450.93173551 857.45320635 451.44887234 854.30932884 451.9921875 851.1640625 C454.57583532 835.86861098 456.26013855 820.40963159 458 805 C458.08890503 804.21627014 458.17781006 803.43254028 458.26940918 802.62506104 C460.78145692 780.15780533 461.28169948 757.71134227 461.30962753 735.12329102 C461.31245311 733.0346597 461.31797593 730.94604715 461.32363892 728.85742188 C461.42233455 678.71157576 457.9592642 618.47086319 420.59765625 580.5625 C407.81926733 569.25776415 391.25854533 560.9348207 375 556 C374.36271973 555.79407227 373.72543945 555.58814453 373.06884766 555.37597656 C343.2463668 545.94894516 312.87618582 554.47076697 285.25 566.54296875 C284.26072006 566.974422 283.27144012 567.40587524 282.25218201 567.85040283 C272.36156531 572.20954822 262.68001682 576.96321449 253.0083313 581.78427124 C175.90977754 620.14545222 100.39290553 642.55427971 13.5 642.3125 C12.08071907 642.3102753 10.66143806 642.3080989 9.24215698 642.30596924 C-11.23156305 642.26344927 -31.5369535 641.91051546 -51.86401367 639.27539062 C-54.16024697 638.97933952 -56.45789868 638.69637745 -58.75585938 638.4140625 C-110.40515966 631.98758928 -161.13622364 618.84855267 -210 601 C-211.00675781 600.63293945 -212.01351563 600.26587891 -213.05078125 599.88769531 C-225.41014263 595.36949763 -237.72504691 590.74255319 -250 586 C-299.10601589 564.89076263 -299.10601589 564.89076263 -351 555 C-351.66741211 554.97566895 -352.33482422 554.95133789 -353.02246094 554.92626953 C-362.44053221 554.59735207 -371.06915662 554.58656398 -380 558 C-381.12728516 558.41765625 -381.12728516 558.41765625 -382.27734375 558.84375 C-416.49824445 572.79673587 -439.55691161 614.46448527 -453.25 646.75 C-478.4804335 708.36159813 -478.03361627 776.34262015 -467 841 C-466.81179688 842.10746582 -466.62359375 843.21493164 -466.4296875 844.35595703 C-462.34962791 868.01690263 -457.21741684 891.28407034 -449.90429688 914.16357422 C-448.96945067 917.0958213 -448.05351751 920.033506 -447.140625 922.97265625 C-446.53188547 924.91946965 -445.92253144 926.86609103 -445.3125 928.8125 C-445.03929932 929.68938477 -444.76609863 930.56626953 -444.48461914 931.46972656 C-442.81816632 936.72310214 -440.91878877 941.80618554 -438.75854492 946.87768555 C-438 949 -438 949 -438 952 C-443.56752794 953.95980037 -449.13599237 955.91690829 -454.70532227 957.87158203 C-456.59783156 958.53621616 -458.4900878 959.20157131 -460.38208008 959.86767578 C-463.10951786 960.82776832 -465.8378703 961.78522104 -468.56640625 962.7421875 C-469.82463951 963.18605301 -469.82463951 963.18605301 -471.10829163 963.6388855 C-484.44773118 968.30825587 -484.44773118 968.30825587 -492 968 C-492.15033691 967.04673828 -492.30067383 966.09347656 -492.45556641 965.11132812 C-500.04206425 917.13813057 -509.52326568 869.89034574 -522.9609375 823.1796875 C-529.91418747 798.81241297 -535.25042784 774.06856814 -539 749 C-551.73561154 747.24778499 -563.84471071 747.49158713 -576.5 749.75 C-577.39477051 749.90686279 -578.28954102 750.06372559 -579.21142578 750.2253418 C-588.0763695 751.93962557 -595.93143138 754.96154758 -603.40625 760.046875 C-605 761 -605 761 -607 761 C-607 761.66 -607 762.32 -607 763 C-609.74502978 761.62748511 -610.20969523 759.97983888 -611.5625 757.25 C-612.21412109 755.95835937 -612.21412109 755.95835937 -612.87890625 754.640625 C-614.86660015 749.95880941 -615.05958977 746.39649012 -614.52905273 741.33007812 C-613.8545553 734.85125268 -613.82559434 730.25773559 -617.0703125 724.484375 C-619.31993388 718.47278173 -618.84858804 709.53405873 -617.359375 703.33203125 C-616.89148217 700.29581368 -617.69039403 698.72144362 -618.9375 695.9375 C-621.70598486 688.83906651 -622.36452904 681.41192569 -619.8125 674.125 C-618.74350627 670.01348564 -619.89852428 668.58029197 -622 665 C-623.85913867 658.57752097 -623.13633255 652.48553943 -621.8125 646.0625 C-620.88229622 640.94958682 -621.33387804 637.95456558 -623.25 633.20703125 C-625.26292667 627.28357517 -624.33210275 621.58279357 -622.3125 615.8125 C-620.94786099 611.8367455 -620.94786099 611.8367455 -622.3125 607.8125 C-622.6115625 607.27496094 -622.910625 606.73742187 -623.21875 606.18359375 C-625.64955159 599.3895033 -624.7825696 590.47003987 -622 584 C-622.32245706 580.77542937 -622.97578049 578.07265853 -624 575 C-624.86311014 561.00765677 -624.86311014 561.00765677 -622.3125 555.6875 C-620.65151441 551.02092143 -621.62171011 548.96172366 -623.21484375 544.4375 C-625.00548165 538.87850472 -624.22464146 534.39775248 -622.4375 528.9375 C-621.00913042 524.56521376 -620.93010839 521.54703932 -622 517 C-623.60761376 509.85504997 -623.00385611 504.23405135 -620.75390625 497.33203125 C-619.26792218 492.73548987 -619.04050959 490.75028433 -620.5078125 486.046875 C-622.10115718 479.42058441 -621.15136164 473.28520776 -618.75390625 467.0078125 C-617.30565671 463.15081633 -616.81975066 460.87309464 -618 456.875 C-619.98249967 448.57837466 -618.28813865 441.74658752 -614.7421875 434.12890625 C-613.70767404 431.85880855 -613.70767404 431.85880855 -615 429 C-615.67489737 419.87228969 -615.31671276 412.23469301 -611 404 C-609.71865259 401.43730518 -610.29351376 400.72570029 -611 398 C-611.55633405 390.60717634 -611.30472767 383.74545237 -608 377 C-607.46117187 376.37480469 -606.92234375 375.74960937 -606.3671875 375.10546875 C-604.50975342 372.24502026 -604.94534615 370.64433799 -605.4375 367.3125 C-606.31798063 359.04798863 -605.20165261 353.83834576 -600.875 346.75 C-597.70310373 341.30592803 -597.73090956 337.26367031 -598.0390625 331.0859375 C-597.96702252 325.39477938 -595.72423702 320.8795154 -591.91796875 316.73046875 C-589.51885809 313.31503423 -589.31572989 310.34748703 -589.0625 306.3125 C-588.30275481 298.25295394 -586.62821603 291.30338334 -580.42578125 285.65625 C-577.5020073 282.45469399 -577.13649107 280.43233382 -576.5 276.1875 C-574.75779168 266.87301193 -571.01936076 261.23943179 -564 255 C-563.34 255 -562.68 255 -562 255 C-561.92523437 254.31035156 -561.85046875 253.62070312 -561.7734375 252.91015625 C-560.38934966 243.01799902 -556.45309271 236.45277634 -548.61328125 230.2890625 C-545.36205402 227.69122961 -543.81331841 226.0407813 -542.875 221.9375 C-540.71457678 214.91612453 -535.37749061 209.32265871 -529.3984375 205.2109375 C-527 204 -527 204 -524 204 C-523.95875 203.195625 -523.9175 202.39125 -523.875 201.5625 C-522.03988674 194.09096744 -517.18474036 188.38085775 -511 184 C-505.72413793 181 -505.72413793 181 -502 181 C-501.9175 180.29875 -501.835 179.5975 -501.75 178.875 C-499.93403023 171.91378255 -494.70305379 167.06355155 -489 163 C-487.4773 162.33011506 -485.93466388 161.70362741 -484.375 161.125 C-479.65265266 159.248999 -478.0044015 156.49912947 -475.44140625 152.24609375 C-471.86663627 146.67565273 -467.6764968 144.07785672 -461.4375 142.125 C-456.30384101 140.44412939 -454.28805692 138.46249894 -451.3671875 134.0234375 C-447.58030767 128.41885535 -443.37861109 125.95621823 -436.9375 124.125 C-431.46290192 122.49686674 -429.54803024 120.7394146 -426.53515625 116.03125 C-422.25609341 110.36938568 -415.80755714 107.90996282 -409 106.875 C-408.0925 106.78992188 -407.185 106.70484375 -406.25 106.6171875 C-403.85555245 106.2414075 -403.85555245 106.2414075 -402.921875 104.16796875 C-402.61765625 103.45253906 -402.3134375 102.73710937 -402 102 C-396.44921748 96.18668047 -390.94065114 92.41693533 -382.9375 91.1875 C-378.5856162 90.40738453 -377.09649326 89.35879492 -374.515625 85.66015625 C-369.59885773 80.274522 -361.96065106 77.77589868 -354.875 77.375 C-353.98554687 77.38273437 -353.09609375 77.39046875 -352.1796875 77.3984375 C-351.46039062 77.26695312 -350.74109375 77.13546875 -350 77 C-348.86968635 75.15665942 -348.86968635 75.15665942 -348 73 C-340.98851976 66.39910194 -334.65577933 64.75309212 -325.1953125 64.9296875 C-324.47085937 64.95289063 -323.74640625 64.97609375 -323 65 C-322.75636719 64.40445313 -322.51273438 63.80890625 -322.26171875 63.1953125 C-319.45412685 58.31027644 -313.669749 55.63754053 -308.5625 53.6875 C-305.60896865 53.11752027 -302.92421617 52.86581141 -299.9375 52.6875 C-294.87680282 52.26069421 -292.76540079 50.44494115 -289 47 C-283.7176232 43.65853827 -279.02429351 42.80468795 -272.8125 42.5625 C-266.72594171 42.2893852 -264.46104892 41.26278008 -260 37 C-254.2451424 34.04198423 -249.14870577 32.78960435 -242.6875 33.0625 C-237.88870795 33.2648373 -237.88870795 33.2648373 -233.75 30.6875 C-232.8425 29.800625 -231.935 28.91375 -231 28 C-225.52797974 25.11475295 -221.62140195 24.92374875 -215.4375 25.125 C-208.58924682 25.28805365 -206.0295186 24.49446343 -201 20 C-196.03316274 17.80467252 -191.90189121 17.92663179 -186.625 18.1875 C-179.60198732 18.38513025 -175.51754322 17.54824508 -170 13 C-167.16807293 12.05602431 -165.69817975 11.9219222 -162.796875 12.04296875 C-161.57291016 12.07487305 -161.57291016 12.07487305 -160.32421875 12.10742188 C-158.62327492 12.16033439 -156.92265672 12.22522276 -155.22265625 12.30273438 C-149.19196936 12.43054328 -146.01545029 11.34151193 -141 8 C-138.13937775 7.04645925 -136.62229956 6.92404714 -133.68359375 7.04296875 C-121.68548792 7.5277457 -121.68548792 7.5277457 -110.4296875 3.89453125 C-104.4364543 1.68801935 -97.00473468 2.39313241 -90.828125 3.640625 C-87.63915622 4.04585308 -86.69593518 3.6767999 -84 2.0625 C-76.78590378 -1.47741185 -68.37326695 -0.65736685 -60.625 0.6875 C-57.1211979 0.9895519 -56.26505737 0.87928016 -53.25 -0.4375 C-45.45707563 -3.76859316 -37.09707125 -2.13727064 -29.11328125 -0.31640625 C-26.23208306 0.11497463 -24.54212626 -0.65832225 -22 -2 C-14.55357919 -3.95025307 -7.02044329 -2.83177545 0 0 Z " fill="#301B16" transform="translate(1330,395)"/>
<path d="M0 0 C1.15806152 0.17321777 2.31612305 0.34643555 3.50927734 0.52490234 C6.82100465 1.02365929 10.12959498 1.53904569 13.4375 2.0625 C14.42008789 2.21251465 15.40267578 2.3625293 16.41503906 2.51708984 C27.96108704 4.41699509 27.96108704 4.41699509 31.390625 8.76171875 C31.67421875 9.39722656 31.9578125 10.03273438 32.25 10.6875 C32.54390625 11.31011719 32.8378125 11.93273438 33.140625 12.57421875 C35.46124296 19.12469036 36.36321656 25.09490205 36.375 32 C36.39949219 32.75539063 36.42398437 33.51078125 36.44921875 34.2890625 C36.47957854 40.17886224 34.93053214 43.90342236 32 49 C32.86463867 49.15033691 33.72927734 49.30067383 34.62011719 49.45556641 C51.38071538 52.40035677 67.88372731 55.39560905 84 61 C84.72590332 61.2475 85.45180664 61.495 86.19970703 61.75 C107.32519879 69.02061513 123.95681253 79.46118438 134.16796875 99.921875 C137.17845008 106.34047793 141 114.83276493 141 122 C169.05 122 197.1 122 226 122 C226.33 120.02 226.66 118.04 227 116 C230.84442351 99.20353062 239.64850004 83.1817103 254.42578125 73.7265625 C257.87022112 71.64598069 261.40356201 69.80441263 265 68 C265.92683594 67.52949219 266.85367188 67.05898437 267.80859375 66.57421875 C288.48264475 56.65190304 311.63481328 53.09342374 334 49 C333.67644531 48.37222656 333.35289062 47.74445313 333.01953125 47.09765625 C331.61854447 42.84101825 331.65927077 38.89149059 331.6875 34.4375 C331.69168945 33.54796631 331.69587891 32.65843262 331.70019531 31.74194336 C331.83966405 23.57634549 332.65324264 16.04613337 336.8125 8.875 C341.96454342 4.45896278 349.44387219 4.11001032 355.9375 3.0625 C356.9994458 2.88992676 358.0613916 2.71735352 359.15551758 2.53955078 C396.26470269 -3.40033655 433.54190082 -6.28675794 471 -2 C471.79809082 -1.90879883 472.59618164 -1.81759766 473.41845703 -1.72363281 C518.47287622 3.79323484 555.92488553 30.31998337 583.8515625 65.203125 C586.1403824 68.18275236 588.34950547 71.2137413 590.5625 74.25 C593.73266833 78.52642499 596.95824413 81.93742581 601.03515625 85.328125 C615.63429315 97.75045222 622.73663851 117.39195461 625 136 C625.26248412 140.62938747 625.28702091 145.23915951 625.25 149.875 C625.24250732 151.11660889 625.23501465 152.35821777 625.22729492 153.63745117 C625.12911676 161.97272199 624.7213516 169.82801639 623 178 C622.83338867 178.83805176 622.66677734 179.67610352 622.49511719 180.53955078 C619.14847683 197.345003 614.94522394 213.296925 608 229 C607.44175575 230.31079264 606.88453125 231.62201986 606.328125 232.93359375 C586.11312523 280.09118817 557.23463376 324.09056702 508.265625 343.99609375 C500.65664861 346.96514626 492.94688935 349.14863677 485 351 C484.2874707 351.17337891 483.57494141 351.34675781 482.84082031 351.52539062 C442.90475869 361.0928455 399.50752301 362.16762253 359 356 C358.02385742 355.85546387 357.04771484 355.71092773 356.04199219 355.56201172 C320.95596014 350.21562513 287.64791882 339.36178053 265.66796875 309.87109375 C254.63589455 294.31163361 246.87733547 276.92329807 240.71118164 258.94921875 C240.07856005 257.21531872 239.32611023 255.52620856 238.55859375 253.84765625 C236.04185564 248.0994395 234.65537266 241.9276731 233.0625 235.875 C232.88636169 235.20971283 232.71022339 234.54442566 232.52874756 233.85897827 C229.48768243 222.33013066 226.79858966 210.79374934 225 199 C224.88430664 198.25411621 224.76861328 197.50823242 224.64941406 196.73974609 C222.38863734 181.43422057 223 166.60799503 223 151 C196.93 151 170.86 151 144 151 C144 158.92 144 166.84 144 175 C142.55584283 198.25093048 138.45288077 221.88509971 131 244 C130.69223633 244.94584961 130.38447266 245.89169922 130.06738281 246.86621094 C121.89260192 271.96503964 112.28416741 296.65668791 95 317 C94.31421875 317.83015625 93.6284375 318.6603125 92.921875 319.515625 C81.79573759 332.50908617 66.16340076 340.83121602 50 346 C48.35644531 346.58007812 48.35644531 346.58007812 46.6796875 347.171875 C28.49040826 353.32357278 9.11742648 356.52028742 -10 358 C-11.06009277 358.08540039 -12.12018555 358.17080078 -13.21240234 358.25878906 C-23.23026478 359.0032247 -33.2073954 359.2413943 -43.25 359.25 C-44.49006805 359.25151062 -44.49006805 359.25151062 -45.75518799 359.25305176 C-60.68841182 359.24085229 -75.21394385 358.19808577 -90 356 C-91.54083252 355.7831958 -91.54083252 355.7831958 -93.11279297 355.56201172 C-137.70580315 349.22366949 -175.64815252 333.49968325 -203.2578125 296.7734375 C-220.34262408 273.48938543 -234.6081866 248.21534436 -244.26660156 220.96533203 C-245.09478522 218.74599833 -246.02111582 216.57722586 -246.94140625 214.39453125 C-249.44648686 208.16876474 -251.02978961 201.7578937 -252.625 195.25 C-252.9240625 194.07695313 -253.223125 192.90390625 -253.53125 191.6953125 C-256.8279992 178.4207914 -258.39390239 165.55259447 -258.375 151.875 C-258.37445618 151.20356964 -258.37391235 150.53213928 -258.37335205 149.84036255 C-258.29123634 127.65959459 -254.09628659 108.62777734 -240 91 C-239.2575 89.96875 -238.515 88.9375 -237.75 87.875 C-229.00583418 78.73337209 -218.36902523 73.14855634 -207 68 C-205.29650391 67.21496094 -205.29650391 67.21496094 -203.55859375 66.4140625 C-180.46725347 56.48399808 -155.00089156 52.28275436 -130.25 48.875 C-128.54021973 48.63680542 -128.54021973 48.63680542 -126.79589844 48.39379883 C-122.86889124 47.87753045 -118.93832868 47.41917265 -115 47 C-114.18105255 46.91232361 -113.3621051 46.82464722 -112.51834106 46.73431396 C-92.88181862 44.71755724 -73.234319 44.5748519 -53.51623535 44.39910889 C-49.15723744 44.35835613 -44.79835556 44.3075984 -40.43945312 44.2578125 C-31.95971619 44.16236931 -23.47991927 44.07756657 -15 44 C-19.32899389 43.17685547 -23.65856844 42.35685148 -27.98866272 41.53952026 C-29.45587996 41.26214528 -30.92294657 40.98397214 -32.3898468 40.70492554 C-97.80654217 28.26550606 -152.10599044 40.50752241 -212.375 67.9375 C-213.36137451 68.38593262 -214.34774902 68.83436523 -215.36401367 69.29638672 C-219.25172823 71.10235881 -223.000249 72.88573839 -226.5390625 75.31640625 C-229 77 -229 77 -231 77 C-226.42802233 66.76635049 -216.66003151 58.04267878 -209 50 C-208.42975098 49.40106934 -207.85950195 48.80213867 -207.27197266 48.18505859 C-198.75615679 39.30725755 -189.98881686 31.19304884 -180 24 C-179.40219727 23.56848633 -178.80439453 23.13697266 -178.18847656 22.69238281 C-164.52398506 12.95071184 -150.20236267 5.57749677 -134 1 C-132.7521875 0.64164063 -131.504375 0.28328125 -130.21875 -0.0859375 C-88.3581181 -11.13149881 -42.08729908 -6.44295051 0 0 Z " fill="#2E1A14" transform="translate(1146,1093)"/>
<path d="M0 0 C2.16791531 0.19720293 4.3358854 0.39380445 6.50390625 0.58984375 C29.89433306 2.82803901 53.38357244 6.84919579 75.96435547 13.41748047 C77.96003668 13.98856411 79.96285734 14.51622667 81.97265625 15.03515625 C111.78691548 22.9567842 140.60387063 36.57061003 163 58 C163.63421875 58.58265625 164.2684375 59.1653125 164.921875 59.765625 C179.94210695 73.98832251 187.31183126 93.42885962 188.11035156 113.81762695 C188.87931141 153.99577923 181.31831572 192.85235662 169 231 C168.66629395 232.05268066 168.33258789 233.10536133 167.98876953 234.18994141 C143.84783475 310.21419057 143.84783475 310.21419057 120.93359375 325.0390625 C120.26667007 325.48228851 119.5997464 325.92551453 118.91261292 326.38217163 C116.76124638 327.80741669 114.60004032 329.21677861 112.4375 330.625 C110.9352254 331.61279252 109.43327455 332.60107756 107.93164062 333.58984375 C39.8036739 378.33365269 39.8036739 378.33365269 14 384 C13.27039062 384.1654834 12.54078125 384.3309668 11.7890625 384.50146484 C-27.15480253 393.12541579 -83.18861189 397.22017941 -121 382 C-121.6904541 381.7309082 -122.3809082 381.46181641 -123.09228516 381.18457031 C-136.3807065 375.98437005 -149.20233905 369.73184254 -162.01074219 363.4609375 C-164.73397255 362.13001538 -167.46361295 360.81341894 -170.1953125 359.5 C-182.58798707 353.48598039 -194.43689469 346.65649604 -206.27148438 339.61621094 C-208.6460953 338.20963217 -211.02938257 336.82116195 -213.421875 335.4453125 C-221.54307567 330.76704887 -229.5530257 325.89878205 -237.49807739 320.92767334 C-239.14234382 319.90313666 -240.79555615 318.89300119 -242.44897461 317.88330078 C-266.14012988 302.92420471 -274.42686073 266.66820875 -281 241 C-281.21462891 240.18354004 -281.42925781 239.36708008 -281.65039062 238.52587891 C-294.41247159 189.66561577 -303.17082121 127.08190831 -276.23876953 81.08544922 C-255.86465487 47.7641901 -221.90898612 29.35155391 -186 17 C-184.94039062 16.63261719 -183.88078125 16.26523438 -182.7890625 15.88671875 C-155.34275733 6.94643436 -126.6157314 2.9048178 -98 0 C-97.02562988 -0.10586426 -96.05125977 -0.21172852 -95.04736328 -0.32080078 C-63.69077381 -3.6669885 -31.34357642 -3.19281768 0 0 Z " fill="#301B16" transform="translate(1373,1527)"/>
<path d="M0 0 C1.36733023 -0.0032309 2.73466015 -0.00659617 4.10198975 -0.01008606 C6.96627597 -0.0160423 9.83053225 -0.01793031 12.69482422 -0.01733398 C15.56044988 -0.01725382 18.42591191 -0.02402234 21.29150391 -0.0378418 C36.71979227 -0.11100184 52.08429799 0.06521454 67.484375 1.06640625 C69.32107758 1.18536003 69.32107758 1.18536003 71.19488525 1.30671692 C84.49147462 2.25113449 97.63712764 4.08411218 110.796875 6.16796875 C112.48176025 6.42054443 112.48176025 6.42054443 114.20068359 6.67822266 C127.73307213 8.73061196 140.6911947 11.7583678 153.671875 16.04296875 C154.88931396 16.4414502 156.10675293 16.83993164 157.36108398 17.25048828 C173.72671211 22.88000346 187.73613607 30.23061944 195.796875 46.16796875 C209.15150776 81.25423119 196.04360765 121.68439435 181.421875 154.35546875 C170.46564449 178.29444851 156.893978 199.94382197 138.796875 219.16796875 C138.11367187 219.92722656 137.43046875 220.68648437 136.7265625 221.46875 C113.03329933 246.77944996 71.03551663 253.95140103 37.868927 255.2857666 C31.37130218 255.44403519 24.87495088 255.45312115 18.37573242 255.42871094 C14.9996532 255.41801714 11.6241098 255.42865436 8.24804688 255.44140625 C-21.75877188 255.46057976 -55.1321818 253.49417237 -82.203125 239.16796875 C-83.35941406 238.60335938 -83.35941406 238.60335938 -84.5390625 238.02734375 C-101.80605373 229.18758715 -111.02995885 211.96631125 -119.203125 195.16796875 C-119.73550781 194.07484375 -120.26789063 192.98171875 -120.81640625 191.85546875 C-126.03318123 180.38137608 -129.55526495 168.2109416 -133.203125 156.16796875 C-133.71661499 154.5123291 -133.71661499 154.5123291 -134.24047852 152.82324219 C-136.66103593 144.76421657 -138.32191676 136.71929101 -139.58618164 128.41650391 C-139.8927916 126.40374598 -140.21192827 124.39327698 -140.53320312 122.3828125 C-142.45163386 110.14600825 -143.41264871 98.29058025 -143.44335938 85.91162109 C-143.45302049 83.56831741 -143.48411455 81.22590997 -143.515625 78.8828125 C-143.63736382 61.57152974 -141.77787308 41.25535644 -129.203125 28.16796875 C-105.82579709 5.1907418 -59.61794938 3.92263137 -28.9609375 1.47753906 C-26.90931474 1.30852544 -24.85805142 1.13154432 -22.81085205 0.91545105 C-15.19794446 0.13535858 -7.6491604 0.00671427 0 0 Z " fill="#99603C" transform="translate(1541.203125,1166.83203125)"/>
<path d="M0 0 C0.70807926 0.0003336 1.41615852 0.00066719 2.14569473 0.00101089 C24.29706303 0.01497026 46.30130031 0.3424239 68.3125 3 C69.03386139 3.08548096 69.75522278 3.17096191 70.4984436 3.2590332 C83.69415154 4.83839964 96.63589882 7.13761069 109.5625 10.25 C110.28904785 10.41999512 111.0155957 10.58999023 111.76416016 10.76513672 C126.97463567 14.35715743 147.10366342 19.17545717 156.29296875 32.97265625 C173.75723167 64.30085712 167.72912758 107.46965453 160.09960938 140.89355469 C159.74204378 142.46229245 159.39434586 144.03331261 159.05664062 145.60644531 C153.08549593 173.36883646 142.46138512 203.55393644 123.5625 225.25 C122.95535156 225.97832031 122.34820313 226.70664063 121.72265625 227.45703125 C102.31124954 248.9203837 63.97888271 253.61734391 36.90509033 255.14324951 C10.50973649 256.34607054 -16.28919075 256.35898743 -42.4375 252.25 C-43.47237549 252.08878662 -44.50725098 251.92757324 -45.57348633 251.76147461 C-83.23108671 245.69951943 -110.85535612 229.49420011 -133.31640625 198.73046875 C-138.88057791 190.89520661 -143.66880938 182.58373691 -148.4375 174.25 C-149.00162598 173.28658691 -149.00162598 173.28658691 -149.57714844 172.30371094 C-156.61442532 160.25774309 -161.49247321 147.26091968 -166.4375 134.25 C-166.79827637 133.3108374 -167.15905273 132.3716748 -167.53076172 131.40405273 C-169.82889216 125.28631938 -171.61031814 119.18177083 -173.0625 112.8125 C-173.27414795 111.88928955 -173.4857959 110.9660791 -173.70385742 110.01489258 C-174.11279337 108.20988458 -174.51724473 106.40385279 -174.91650391 104.59667969 C-175.32637349 102.75053795 -175.7586579 100.90937165 -176.19921875 99.0703125 C-180.41000109 78.94217563 -178.74910897 56.51901233 -168.29296875 38.734375 C-163.46653593 32.27203548 -158.02499215 27.91217269 -150.875 24.25 C-150.05056396 23.82557617 -149.22612793 23.40115234 -148.37670898 22.96386719 C-124.89115405 11.30808957 -97.40325724 6.40993791 -71.51757812 3.58984375 C-69.38697305 3.35476114 -67.25809197 3.10370603 -65.13085938 2.83984375 C-43.45620621 0.19455898 -21.80468673 -0.02237971 0 0 Z " fill="#99603C" transform="translate(1094.4375,1166.75)"/>
<path d="M0 0 C2.20612151 0.00876439 4.40983604 -0.0209704 6.61572266 -0.05200195 C18.52998825 -0.10970371 31.09880612 1.06697846 40.27587891 9.44604492 C45.12614769 15.7382855 46.64612526 20.94075949 46.58837891 28.82104492 C46.58346436 29.61833008 46.5785498 30.41561523 46.57348633 31.23706055 C46.42503456 38.88042359 45.15981961 46.0378797 43.27587891 53.44604492 C43.0936377 54.17355957 42.91139648 54.90107422 42.72363281 55.65063477 C40.28310102 65.28431289 37.31278344 74.35203988 33.27587891 83.44604492 C32.66781808 84.90927649 32.06398272 86.37426801 31.46337891 87.84057617 C27.50618002 97.47776243 23.26935127 106.87345634 18.47314453 116.12084961 C17.1227894 118.74335824 15.80137202 121.37963015 14.47900391 124.01635742 C6.21609945 140.35165574 -3.0314987 155.93425066 -12.72412109 171.44604492 C-13.45187744 172.61659424 -13.45187744 172.61659424 -14.19433594 173.81079102 C-16.63969153 177.73416083 -19.14798263 181.60660779 -21.72412109 185.44604492 C-22.11083984 186.0298291 -22.49755859 186.61361328 -22.89599609 187.21508789 C-32.49845182 201.62256992 -44.10529517 210.44449833 -58.72412109 219.44604492 C-59.90506348 220.17960205 -59.90506348 220.17960205 -61.10986328 220.92797852 C-70.62671231 226.82366073 -80.28564493 232.422432 -90.16162109 237.69604492 C-91.04366211 238.17428711 -91.92570312 238.6525293 -92.83447266 239.14526367 C-93.66301758 239.57967773 -94.4915625 240.0140918 -95.34521484 240.46166992 C-96.071521 240.84613281 -96.79782715 241.2305957 -97.54614258 241.62670898 C-100.06174479 242.57305592 -102.05789713 242.59457456 -104.72412109 242.44604492 C-111.45475467 230.87776846 -114.98153646 218.54594629 -118.73779297 205.77026367 C-120.25887286 200.64377263 -121.85849093 195.54339336 -123.47412109 190.44604492 C-123.74353516 189.58172852 -124.01294922 188.71741211 -124.29052734 187.8269043 C-126.1623582 181.91173438 -128.35256423 176.17769868 -130.72412109 170.44604492 C-131.15821289 169.37821777 -131.15821289 169.37821777 -131.60107422 168.28881836 C-137.21683218 154.11968401 -137.21683218 154.11968401 -147.72412109 143.44604492 C-150.18044442 142.69583248 -150.18044442 142.69583248 -152.72412109 143.44604492 C-168.26446322 157.79097611 -174.25272558 189.32827361 -179.72412109 209.07104492 C-181.67743584 216.08892254 -183.84852249 222.97793683 -186.34912109 229.82104492 C-186.62626953 230.58755371 -186.90341797 231.3540625 -187.18896484 232.14379883 C-188.96278284 236.87993492 -191.10820157 241.116641 -193.72412109 245.44604492 C-202.76737165 243.23630891 -210.91369531 239.27207288 -219.22412109 235.19604492 C-219.94522064 234.8445639 -220.66632019 234.49308289 -221.40927124 234.13095093 C-235.57240788 227.21156635 -249.25150832 219.63717746 -262.72412109 211.44604492 C-263.67722168 210.87756836 -264.63032227 210.3090918 -265.61230469 209.72338867 C-276.59801296 203.14379476 -285.3752509 197.11166184 -292.72412109 186.44604492 C-293.59412097 185.2317188 -294.46526937 184.01821495 -295.33740234 182.80541992 C-298.22105016 178.74293853 -300.98649255 174.60794871 -303.72412109 170.44604492 C-304.2063916 169.71498535 -304.68866211 168.98392578 -305.18554688 168.23071289 C-313.41027412 155.68603654 -320.81568905 142.75874806 -327.72412109 129.44604492 C-328.17029785 128.58785156 -328.61647461 127.7296582 -329.07617188 126.84545898 C-341.92145003 101.82617515 -356.14582873 69.06454847 -348.09912109 40.38354492 C-346.15969134 34.92592154 -343.70288131 30.64692039 -339.72412109 26.44604492 C-339.23427734 25.91624023 -338.74443359 25.38643555 -338.23974609 24.84057617 C-322.69475963 9.87275505 -297.17792189 9.21811436 -276.97412109 9.19604492 C-276.16142761 9.19437317 -275.34873413 9.19270142 -274.51141357 9.190979 C-250.10958992 9.18802872 -225.66807946 10.88433612 -201.39892578 13.37353516 C-156.10714415 17.88154894 -110.67436971 12.89757499 -65.87548828 6.40307617 C-20.76858091 -0.12499827 -20.76858091 -0.12499827 0 0 Z " fill="#99603B" transform="translate(1473.72412109375,1597.553955078125)"/>
<path d="M0 0 C1.16666667 0.875 2.33333333 1.75 3.5 2.625 C4.2321875 3.1715625 4.964375 3.718125 5.71875 4.28125 C7.16646251 5.3719923 8.60519289 6.47484366 10.03125 7.59375 C23.91754963 18.39420527 41.0655426 21.86385803 58.47265625 19.69140625 C62.70124934 18.74144399 66.44706756 16.94021723 70.23828125 14.90234375 C72 14 72 14 75 13 C75.17539307 13.77786865 75.35078613 14.5557373 75.53149414 15.35717773 C82.75060302 47.21994369 91.39372309 78.48855341 103.22998047 108.98876953 C104.08157762 111.21307432 104.90316617 113.44726627 105.72265625 115.68359375 C117.5096134 147.62504076 132.27772307 178.87699616 149.4296875 208.28564453 C151.0108591 211.01877044 152.55688935 213.76908846 154.09375 216.52734375 C169.02925094 243.25806082 187.71457524 268.41002745 209.81640625 289.71484375 C212 292 212 292 212 294 C205.0088636 292.4653603 200.99219889 287.89190161 197.0625 282.1875 C196 280 196 280 196 278 C195.21625 277.95875 194.4325 277.9175 193.625 277.875 C185.68396014 275.95819728 179.76553859 271.60243668 175.15625 264.9296875 C174 263 174 263 173.14453125 260.8828125 C171.57194701 258.29583092 170.02267936 257.95214419 167.1875 257 C159.11026412 253.97538226 155.27627104 249.34814929 151 242 C150.67 241.01 150.34 240.02 150 239 C147.84711078 237.67625823 147.84711078 237.67625823 145.25 236.5625 C136.99549328 232.57594846 133.25494596 228.06554629 129 220 C128.67 219.01 128.34 218.02 128 217 C125.90683098 215.8210785 125.90683098 215.8210785 123.375 214.8125 C116.65410195 211.61069878 112.16184144 206.97448381 109.0625 200.1875 C108 197 108 197 108 194 C106.91912109 193.87818359 106.91912109 193.87818359 105.81640625 193.75390625 C99.91141978 192.1732372 94.86668848 186.80252164 91.53515625 181.80078125 C90.15737559 179.07121579 89.11335585 176.35022681 88.171875 173.44140625 C86.76575722 170.5119942 85.55061329 169.76403571 82.75 168.1875 C77.22392354 164.68705929 72.99841734 160.78634771 71.28515625 154.2890625 C71.08792969 153.34804687 70.89070312 152.40703125 70.6875 151.4375 C69.37974045 145.75226988 66.8995562 143.87810362 62.21875 140.65625 C56.7651211 136.58523125 55.00059804 131.48393134 53.6875 125 C52.4343774 119.26732419 50.2663414 116.69456594 45.9375 112.875 C41.6698834 108.74504846 39.17278493 102.78744572 38.90234375 96.859375 C38.93489583 94.90625 38.96744792 92.953125 39 91 C38.40316406 90.74347656 37.80632813 90.48695312 37.19140625 90.22265625 C31.37167783 86.975642 28.3660694 80.43779599 26.49609375 74.2890625 C25.99314348 71.96836285 25.85175108 69.80626503 25.75 67.4375 C25.36105059 62.56717697 23.0010514 60.37276672 19.71875 56.94921875 C15.49841801 52.16297861 14.9423322 47.13841679 14.6875 40.9375 C14.37276554 35.60710356 13.21974412 33.27722075 9.49609375 29.5625 C4.66331789 24.5152145 4.30855715 17.61801895 4 11 C4.05220703 9.67935547 4.05220703 9.67935547 4.10546875 8.33203125 C4.24021317 5.79365262 4.24021317 5.79365262 2 3.8125 C1.34 3.214375 0.68 2.61625 0 2 C0 1.34 0 0.68 0 0 Z " fill="#301B16" transform="translate(781,1440)"/>
<path d="M0 0 C0.33 0.66 0.66 1.32 1 2 C0.57847656 2.42667969 0.15695312 2.85335938 -0.27734375 3.29296875 C-4.9992891 8.68154168 -5.49796896 12.77900594 -5.7421875 19.8125 C-6.2290943 25.83243865 -8.43187803 30.3945418 -12.625 34.6875 C-16.13695608 38.50808253 -15.85977283 43.50892398 -16.41796875 48.44921875 C-17.4625842 54.8220741 -19.89919914 60.13792651 -24.75 64.4375 C-27.36770425 67.41877428 -27.30693043 68.3475608 -27.5 72.1875 C-27.84512373 78.93557718 -29.86069791 84.96196572 -34.81640625 89.7578125 C-35.43386719 90.29148437 -36.05132813 90.82515625 -36.6875 91.375 C-40.76618897 95.08369991 -40.99376715 98.89665815 -41.62109375 104.19921875 C-42.45818466 110.38678768 -45.93131163 114.53436643 -50 119 C-50.67160156 119.4228125 -51.34320312 119.845625 -52.03515625 120.28125 C-54.74658194 122.65307367 -55.10660984 124.85460148 -56 128.3125 C-58.59073925 137.31033669 -62.72768158 142.28603553 -70 148 C-70.66 148.33 -71.32 148.66 -72 149 C-72.64389035 150.66533458 -73.21570202 152.35883933 -73.75 154.0625 C-77.0662396 163.44029109 -82.15122994 169.32784941 -91 174 C-91.66 174 -92.32 174 -93 174 C-93.15855469 174.56847656 -93.31710937 175.13695312 -93.48046875 175.72265625 C-96.36553958 185.27048735 -100.04194714 189.92906781 -108.79296875 194.8359375 C-110.18783904 195.571639 -111.58949092 196.29474546 -113 197 C-113.94122664 198.87371124 -114.828698 200.77460677 -115.6875 202.6875 C-119.45634941 210.40859782 -124.00128295 214.72779757 -132 218 C-132.99 218 -133.98 218 -135 218 C-135.165 218.969375 -135.33 219.93875 -135.5 220.9375 C-137.3603001 227.30644411 -142.15752378 232.21412937 -147.6796875 235.68359375 C-154.1621813 239 -154.1621813 239 -157 239 C-157.165 239.804375 -157.33 240.60875 -157.5 241.4375 C-160.54212444 248.66254554 -165.96880038 254.23547551 -173.16796875 257.359375 C-175.42280114 258.14784517 -177.62885198 258.7036065 -180 259 C-180.226875 259.86625 -180.45375 260.7325 -180.6875 261.625 C-183.38889951 268.57145587 -188.31550708 272.91942408 -195 276 C-196.61543092 276.35869792 -198.24161836 276.67227243 -199.875 276.9375 C-202.1221008 277.28898143 -202.1221008 277.28898143 -204 278 C-205.22148021 280.7447571 -205.22148021 280.7447571 -206 284 C-210.85937497 290.39173469 -217.00594588 294.06805404 -224.75 295.875 C-228.9860202 297.34131469 -229.68347094 299.23564028 -232 303 C-235.80991268 306.89436887 -239.89994177 309.98369791 -245 312 C-245.66 311.67 -246.32 311.34 -247 311 C-244.33562335 308.4767373 -241.66807299 305.95685345 -239 303.4375 C-238.25621094 302.73302734 -237.51242187 302.02855469 -236.74609375 301.30273438 C-232.50082912 297.29741948 -228.20372946 293.37878639 -223.77539062 289.57641602 C-221.32101391 287.3971104 -219.04755969 285.05717269 -216.74780273 282.71704102 C-215.0680006 281.06680378 -213.33293755 279.54719065 -211.53515625 278.02734375 C-206.30027785 273.47407132 -201.42028183 268.5703073 -196.52709961 263.6574707 C-194.94040054 262.06541034 -193.34842258 260.4787701 -191.75585938 258.89257812 C-186.85232249 253.9922456 -182.0436102 249.05411947 -177.53637695 243.78149414 C-174.9916702 240.83079889 -172.29790981 238.02156152 -169.625 235.1875 C-164.14615536 229.32551937 -158.99594672 223.28110507 -154 217 C-153.08058123 215.87145458 -152.15993964 214.74390462 -151.23828125 213.6171875 C-121.0548659 176.56254763 -95.37668219 134.01149126 -80.19140625 88.55078125 C-79.20108489 85.59929891 -78.1280513 82.71255091 -77 79.8125 C-68.50909496 56.48005432 -63.62337343 31.34070131 -59 7 C-58.39671875 7.20496094 -57.7934375 7.40992188 -57.171875 7.62109375 C-55.97304687 8.02521484 -55.97304687 8.02521484 -54.75 8.4375 C-53.56664062 8.83775391 -53.56664062 8.83775391 -52.359375 9.24609375 C-37.2650362 14.06928479 -19.94727029 10.67045873 -6 3.8125 C-2.79297178 2.19358546 -2.79297178 2.19358546 0 0 Z " fill="#301B16" transform="translate(1852,1453)"/>
<path d="M0 0 C1 1 1 1 1.08984375 3.01171875 C0.27482487 17.32679392 -7.0774102 29.20749451 -16 40 C-18.3046875 41.89453125 -18.3046875 41.89453125 -20 43 C-18.91853234 39.65585 -17.76577584 36.35685884 -16.4921875 33.08203125 C-13.33504865 24.82600746 -11.17647358 17.96609003 -12 9 C-18.96768032 6.05060181 -25.95802162 3.69460252 -33.25 1.6875 C-34.30396973 1.39480225 -35.35793945 1.10210449 -36.44384766 0.80053711 C-45.37579002 -1.63845543 -54.36063375 -3.82843061 -63.375 -5.9375 C-64.03632935 -6.09288239 -64.69765869 -6.24826477 -65.37902832 -6.40835571 C-72.61570504 -8.27182223 -72.61570504 -8.27182223 -80 -9 C-79.54109375 -8.39414063 -79.0821875 -7.78828125 -78.609375 -7.1640625 C-69.49765694 5.27840964 -66.1877838 17.71378845 -68.4609375 33.125 C-71.31499739 46.01863527 -77.78326738 55.65655646 -88 64 C-101.12949876 72.27837248 -114.8349505 73.41204811 -130 72 C-141.90677619 69.24755638 -151.9168876 60.74314587 -159 51 C-163.87105171 42.22221647 -166.3804238 33.70426244 -166.3125 23.6875 C-166.30621582 22.42728027 -166.30621582 22.42728027 -166.29980469 21.14160156 C-166.13097833 11.87051992 -163.93418563 4.82663927 -159 -3 C-176.16056939 7.32289571 -191.06001123 20.90697166 -203 37 C-207.64612999 32.83039617 -207.64612999 32.83039617 -208.98046875 29.69921875 C-209.00503313 26.3044208 -207.76515815 25.00629816 -205.4831543 22.59912109 C-204.95246338 22.07141113 -204.42177246 21.54370117 -203.875 21 C-203.05672729 20.15622803 -203.05672729 20.15622803 -202.22192383 19.29541016 C-201.06904711 18.11142798 -199.90944549 16.93396166 -198.74365234 15.76269531 C-197.08012064 14.08099567 -195.45287593 12.37118702 -193.83203125 10.6484375 C-141.19401034 -44.64284195 -63.81238031 -23.279257 0 0 Z " fill="#442B1A" transform="translate(1686,1254)"/>
<path d="M0 0 C19.14449473 16.37755065 19.14449473 16.37755065 24.25 25.5 C23.95199227 29.31224985 22.91398388 31.73355521 20.25 34.5 C19.26 34.5 18.27 34.5 17.25 34.5 C15.59375 32.734375 15.59375 32.734375 13.75 30.25 C3.01160222 16.38201452 -9.14039406 3.850963 -24.75 -4.5 C-24.41226562 -3.79875 -24.07453125 -3.0975 -23.7265625 -2.375 C-17.75309806 10.3315602 -15.43895713 22.06310101 -19.78515625 35.8828125 C-24.47671334 48.60889853 -32.87790712 59.41685284 -45.109375 65.71484375 C-56.74560435 71.05762226 -72.94630976 72.07394756 -85.125 67.875 C-87.546875 66.75390625 -87.546875 66.75390625 -89.75 65.5 C-90.51828125 65.07589844 -91.2865625 64.65179687 -92.078125 64.21484375 C-104.43942986 56.66772054 -111.74415296 46.30793478 -115.625 32.4375 C-118.62491022 18.7057681 -116.08691441 5.49263346 -108.75 -6.5 C-107.42694492 -8.17483755 -106.09466132 -9.8424592 -104.75 -11.5 C-114.04153318 -10.21318097 -123.12488424 -8.41346084 -132.25 -6.25 C-132.89531677 -6.09759857 -133.54063354 -5.94519714 -134.20550537 -5.78817749 C-142.79408554 -3.75498689 -151.36331787 -1.64909993 -159.875 0.6875 C-160.72642578 0.91276367 -161.57785156 1.13802734 -162.45507812 1.37011719 C-168.49479126 3.07287788 -168.49479126 3.07287788 -172.75 7.5 C-173.45018901 13.09471416 -172.00866256 17.80579785 -170.3125 23.0625 C-168.79602101 27.86680739 -167.43874691 32.48877248 -166.75 37.5 C-177.46490562 27.73052723 -183.31708487 14.60299582 -185.75 0.5 C-185.75 -0.49 -185.75 -1.48 -185.75 -2.5 C-157.67016895 -12.04911307 -128.99885861 -19.54079943 -99.75 -24.5 C-98.84185547 -24.66226074 -97.93371094 -24.82452148 -96.99804688 -24.99169922 C-58.70339633 -31.77800434 -29.68146929 -24.81386549 0 0 Z " fill="#442B1A" transform="translate(1156.75,1254.5)"/>
<path d="M0 0 C-9.18607639 7.584692 -18.38647551 15.15045534 -27.64453125 22.6472168 C-28.26070312 23.14648682 -28.876875 23.64575684 -29.51171875 24.16015625 C-30.04240967 24.58949463 -30.57310059 25.01883301 -31.11987305 25.46118164 C-33.1789594 27.09377716 -33.1789594 27.09377716 -35.54527473 29.55228806 C-39.5012405 32.82311707 -43.18420594 32.72763669 -48.1557312 32.70220947 C-49.06836798 32.71706508 -49.98100476 32.7319207 -50.92129719 32.74722648 C-53.97494594 32.7905331 -57.02761172 32.79819052 -60.08154297 32.80566406 C-62.27320944 32.82881526 -64.46485583 32.85393998 -66.65647888 32.88088989 C-72.60947982 32.94644188 -78.56219895 32.978723 -84.51550436 33.00094318 C-88.23944076 33.01561418 -91.96330078 33.03614183 -95.68719864 33.05846405 C-107.35156837 33.12683459 -119.01577712 33.17524268 -130.68033206 33.19447351 C-132.02158859 33.19669077 -133.36284509 33.19892358 -134.70410156 33.20117188 C-135.70204908 33.2028326 -135.70204908 33.2028326 -136.72015716 33.20452687 C-147.479752 33.22423086 -158.23764614 33.31138652 -168.99658512 33.42796949 C-180.06653773 33.54694429 -191.13559767 33.60758098 -202.20619118 33.6146791 C-208.41266815 33.61990351 -214.61674799 33.64907824 -220.82262802 33.73877716 C-226.66958717 33.82164192 -232.51237279 33.83175549 -238.3597126 33.78808212 C-240.49458754 33.78425313 -242.62969506 33.80564633 -244.76399422 33.85537338 C-255.02285325 34.08019571 -262.89131575 33.89319662 -270.84335625 26.8511827 C-273.42043822 24.31177036 -275.83786647 21.66719538 -278.21601129 18.94174147 C-281.22098936 15.67104222 -284.60685123 12.85634372 -288 10 C-289.33392763 8.85485857 -290.66729149 7.70906 -292 6.5625 C-292.99 5.716875 -293.98 4.87125 -295 4 C-291.04156349 2.68052116 -288.10473778 3.70365971 -284.1875 4.6875 C-283.42775879 4.87248047 -282.66801758 5.05746094 -281.88525391 5.24804688 C-273.73652334 7.25923743 -265.65301014 9.53820694 -257.64569759 12.05379009 C-247.9332744 14.93524863 -239.06825774 15.55816347 -228.98071289 15.4699707 C-227.33273175 15.47048103 -225.68475038 15.47274649 -224.03677368 15.47660828 C-219.60420634 15.48197806 -215.17206509 15.46274155 -210.73957372 15.43850732 C-206.0623538 15.41699507 -201.385132 15.41779664 -196.70787048 15.41581726 C-188.84773581 15.40938992 -180.98775786 15.38823398 -173.12768555 15.35668945 C-163.11206814 15.31654094 -153.09655304 15.29901138 -143.08086491 15.28938007 C-134.38905772 15.281 -125.69727115 15.26379048 -117.00548244 15.24434257 C-115.16010748 15.24032313 -113.31473191 15.23657935 -111.46935582 15.2331202 C-86.26175111 15.21350178 -86.26175111 15.21350178 -61.06347656 14.60107422 C-60.13765809 14.56992177 -59.21183962 14.53876932 -58.25796604 14.50667286 C-50.30998955 14.15241407 -43.22292357 12.40391975 -35.6875 9.8125 C-33.80756348 9.20946045 -33.80756348 9.20946045 -31.88964844 8.59423828 C-28.25036196 7.42276403 -24.62499785 6.21483363 -21 5 C-18.08462161 4.04900873 -15.1666986 3.10707109 -12.24536133 2.17456055 C-10.62854036 1.6565008 -9.01482208 1.12861398 -7.4050293 0.58911133 C-2.21952726 -1.10976363 -2.21952726 -1.10976363 0 0 Z " fill="#854E30" transform="translate(1472,1640)"/>
<path d="M0 0 C7.75711949 0.66584717 15.17480031 2.22815863 22.75 4 C23.39175171 4.14940033 24.03350342 4.29880066 24.69470215 4.45272827 C34.9959228 6.86672957 45.1445944 9.68139174 55.25 12.8125 C57.12316895 13.38967773 57.12316895 13.38967773 59.03417969 13.97851562 C67.73707809 16.73707809 67.73707809 16.73707809 70 19 C72.28635844 30.27790269 66.28162415 44.54616398 60.453125 54.08203125 C51.93865567 65.32021523 39.18328444 69.02036384 26.0625 72.5 C24.96728027 72.79261719 23.87206055 73.08523438 22.74365234 73.38671875 C13.9343117 75.66009698 5.08140232 77.43309259 -3.875 79 C-5.7465979 79.32967773 -5.7465979 79.32967773 -7.65600586 79.66601562 C-17.2446323 81.25515125 -17.2446323 81.25515125 -21 80 C-20.10539062 79.61070313 -19.21078125 79.22140625 -18.2890625 78.8203125 C-5.61877004 73.06172786 3.53174557 65.13824827 9 52 C13.27810985 39.89766644 13.52893547 27.07716127 9 15 C6.33589111 9.77045293 3.25240076 4.87860114 0 0 Z " fill="#FDFDFC" transform="translate(1605,1244)"/>
<path d="M0 0 C-0.45890625 0.59425781 -0.9178125 1.18851563 -1.390625 1.80078125 C-9.59143773 12.87876988 -12.97053535 24.25074925 -12 38 C-9.87727082 51.61784737 -4.0292228 63.50135484 7 72 C11.47820107 74.72413893 16.19961455 76.91107146 21 79 C17.77452712 80.02385632 15.42186786 79.94927268 12.09765625 79.3984375 C10.65434937 79.16181396 10.65434937 79.16181396 9.18188477 78.92041016 C8.15248779 78.7404248 7.12309082 78.56043945 6.0625 78.375 C4.46136353 78.09922119 4.46136353 78.09922119 2.82788086 77.81787109 C-40.46409132 70.15529141 -40.46409132 70.15529141 -53 60 C-53.598125 59.53464844 -54.19625 59.06929687 -54.8125 58.58984375 C-64.47624484 50.11323997 -68.98764485 34.80557974 -70.4140625 22.3984375 C-70 19 -70 19 -68.05859375 16.2421875 C-64.1912022 13.4070882 -60.6658496 12.30961114 -56.0625 11.125 C-54.72191528 10.76100098 -54.72191528 10.76100098 -53.35424805 10.38964844 C-40.3267378 6.92090802 -27.15969874 3.91959413 -14 1 C-13.01821777 0.77505859 -12.03643555 0.55011719 -11.02490234 0.31835938 C-10.14398926 0.12564453 -9.26307617 -0.06707031 -8.35546875 -0.265625 C-7.60289795 -0.43352539 -6.85032715 -0.60142578 -6.07495117 -0.77441406 C-3.79383043 -1.02241448 -2.1745518 -0.68705635 0 0 Z " fill="#FDFDFC" transform="translate(1053,1243)"/>
<path d="M0 0 C0.33 0 0.66 0 1 0 C1.14584768 32.60929673 0.91179935 65.20615357 0.5 97.8125 C0.48804218 98.75962986 0.47608437 99.70675972 0.46376419 100.68259048 C0.31462941 112.45513388 0.1599387 124.2275985 0 136 C-2.76546296 134.65411059 -5.06459584 133.27964742 -7.43359375 131.3125 C-8.07594971 130.78366211 -8.71830566 130.25482422 -9.38012695 129.70996094 C-10.05906006 129.14567383 -10.73799316 128.58138672 -11.4375 128 C-16.50256824 123.8335822 -21.59181786 119.72000974 -26.8125 115.75 C-32.6539245 111.29591382 -38.34665807 106.69034782 -44 102 C-42.67465018 97.86074153 -41.1559507 93.88906068 -39.41796875 89.90625 C-38.90492187 88.72675781 -38.391875 87.54726562 -37.86328125 86.33203125 C-37.30470785 85.0546786 -36.74611352 83.7773351 -36.1875 82.5 C-35.60389607 81.16027409 -35.02056775 79.8204281 -34.4375 78.48046875 C-33.22681462 75.69875285 -32.01494889 72.91755571 -30.80224609 70.13671875 C-28.29141872 64.37673376 -25.79510951 58.61047203 -23.29867554 52.84423828 C-22.49948623 50.99881363 -21.69967976 49.15365774 -20.8996582 47.30859375 C-18.36421386 41.4608328 -15.83140051 35.61196449 -13.30621338 29.75976562 C-12.11654559 27.00304467 -10.92563018 24.24686349 -9.73461914 21.49072266 C-9.168403 20.17946836 -8.60279512 18.86795122 -8.0378418 17.55615234 C-7.25334259 15.73468224 -6.46655825 13.91419686 -5.6796875 12.09375 C-5.23351074 11.05927734 -4.78733398 10.02480469 -4.32763672 8.95898438 C-2.96730431 5.92712914 -1.50668962 2.96148154 0 0 Z " fill="#854E30" transform="translate(1323,1347)"/>
<path d="M0 0 C0.66 0.33 1.32 0.66 2 1 C1.57847656 1.80824219 1.15695312 2.61648438 0.72265625 3.44921875 C0.17480469 4.51785156 -0.37304688 5.58648438 -0.9375 6.6875 C-1.75541016 8.27111328 -1.75541016 8.27111328 -2.58984375 9.88671875 C-6.94909001 19.51087185 -6.49670884 33.61448178 -3.375 43.5625 C2.15907247 57.46564347 10.38377108 66.63804838 24 73 C27.2229216 73.97944292 30.39326739 74.75563793 33.69921875 75.39453125 C34.45847656 75.59433594 35.21773437 75.79414062 36 76 C36.33 76.66 36.66 77.32 37 78 C28.17101082 78.88088969 19.35841099 79.3059911 10.48999023 79.4050293 C9.03272015 79.42676009 7.57558564 79.46103861 6.11889648 79.50756836 C-3.10005813 79.79723919 -9.82533082 79.46161593 -17 73 C-18.04438232 72.16819214 -18.04438232 72.16819214 -19.10986328 71.31958008 C-24.95284853 66.66073896 -29.48389086 60.91034417 -34 55 C-34.43119141 54.44376953 -34.86238281 53.88753906 -35.30664062 53.31445312 C-36.62334422 51.60061784 -37.90907323 49.86751831 -39.1875 48.125 C-39.96480469 47.07570313 -40.74210937 46.02640625 -41.54296875 44.9453125 C-43 42 -43 42 -42.6484375 39.5703125 C-40.29724874 35.90424093 -37.45594764 32.87696811 -34.4375 29.75 C-33.80126709 29.08323242 -33.16503418 28.41646484 -32.50952148 27.72949219 C-31.2437108 26.40632722 -29.97466608 25.08624728 -28.70214844 23.76953125 C-27.31847801 22.33108557 -25.95663352 20.87166883 -24.6015625 19.40625 C-17.39034382 11.78059347 -8.70473586 5.80315724 0 0 Z " fill="#FCFCFB" transform="translate(1526,1250)"/>
<path d="M0 0 C15.15707723 5.30910328 28.82407542 21.10028491 39 33 C39.59425781 33.68320313 40.18851563 34.36640625 40.80078125 35.0703125 C42.25 36.875 42.25 36.875 44 40 C40.14955925 54.02493873 23.09087971 69.37032389 11.37573242 77.06713867 C7.95940256 78.40860372 4.63049107 78.26548853 1.015625 78.23046875 C0.24120056 78.23001053 -0.53322388 78.22955231 -1.33111572 78.2290802 C-2.96848076 78.2260636 -4.60584308 78.218195 -6.24316406 78.20581055 C-8.72731918 78.18766567 -11.21109829 78.18530033 -13.6953125 78.18554688 C-15.29166984 78.18062653 -16.88802468 78.17479597 -18.484375 78.16796875 C-19.58480133 78.16629951 -19.58480133 78.16629951 -20.7074585 78.16459656 C-25.54597911 78.12094887 -30.20790859 77.67643926 -35 77 C-34.505 76.01 -34.505 76.01 -34 75 C-32.04165798 74.35017309 -30.05648133 73.78048745 -28.0625 73.25 C-14.68267862 69.26825884 -5.13526633 61.68491335 1.75 49.5234375 C7.44213245 38.03244512 8.92295907 25.4719754 5.1875 13.125 C3.66339135 8.65030378 1.99338745 4.28578303 0 0 Z " fill="#FDFCFC" transform="translate(1131,1249)"/>
<path d="M0 0 C3.16802939 -0.0043697 6.33465684 -0.04082561 9.50244141 -0.07861328 C27.77697589 -0.17820251 44.60610157 2.56718622 61.93603516 8.37060547 C63.46483439 8.84438018 64.99488479 9.31412845 66.52587891 9.78076172 C74.58757006 12.24826806 82.46455423 14.82584896 90.20166016 18.20263672 C94.70510931 20.12625286 99.31872661 21.74364045 103.93603516 23.37060547 C100.16803863 24.62660431 98.87009517 23.90175679 95.12353516 22.68310547 C86.1728262 20.01440024 77.11048983 18.425303 67.90869141 16.875 C64.97731008 16.37760892 62.05061027 15.85750976 59.12353516 15.33544922 C47.78359472 13.36361558 36.42019061 11.85889323 24.95947266 10.79248047 C24.26049929 10.72729406 23.56152592 10.66210766 22.84137154 10.59494591 C5.82994963 9.04661167 -11.1715341 8.81697617 -28.24279785 8.7010498 C-32.30763863 8.67044953 -36.37230497 8.62421077 -40.43701172 8.57958984 C-48.31257314 8.49528865 -56.18815019 8.42721008 -64.06396484 8.37060547 C-61.16307078 6.86764072 -58.68025957 5.95751206 -55.45849609 5.37060547 C-54.55550781 5.20560547 -53.65251953 5.04060547 -52.72216797 4.87060547 C-51.78308594 4.70560547 -50.84400391 4.54060547 -49.87646484 4.37060547 C-48.98765625 4.20560547 -48.09884766 4.04060547 -47.18310547 3.87060547 C-31.41123037 1.04117307 -16.01174845 -0.0024607 0 0 Z " fill="#935C3A" transform="translate(1596.06396484375,1129.62939453125)"/>
<path d="M0 0 C1 1 1 1 1.5 3.875 C1.32409139 13.43270114 -8.62236645 22.71630868 -15 29 C-28.94892622 41.52108337 -28.94892622 41.52108337 -36.63671875 42.25 C-39 42 -39 42 -41 40 C-42.0309277 30.10309409 -37.81584946 20.81135537 -32 13 C-23.62444716 3.93081959 -12.44378694 -1.14824643 0 0 Z " fill="#FBFAFA" transform="translate(1088,1238)"/>
<path d="M0 0 C9.97187968 0.17712042 19.33975541 4.00521919 26.6875 10.75 C33.20064615 17.69911739 37.59964518 26.77297215 37.5625 36.375 C37.4375 40.1875 37.4375 40.1875 36.4375 42.1875 C30.29593096 43.14285518 26.65850785 41.13737137 21.609375 37.69921875 C10.8169483 29.47362081 1.51790785 19.34831571 -4.5625 7.1875 C-4.6875 4.125 -4.6875 4.125 -4.5625 1.1875 C-3.5625 0.1875 -3.5625 0.1875 0 0 Z " fill="#FBFBFA" transform="translate(1573.5625,1239.8125)"/>
</svg>
