<?xml version="1.0" encoding="UTF-8"?>
<svg version="1.1" xmlns="http://www.w3.org/2000/svg" width="2755" height="2754">
<path d="M0 0 C0.90129639 0.00572021 1.80259277 0.01144043 2.73120117 0.01733398 C57.55968258 1.41378875 118.8917136 32.57606548 161.4375 65.5 C162.31148437 66.17289062 163.18546875 66.84578125 164.0859375 67.5390625 C174.73527772 75.91378637 185.07741764 84.69419943 194.4375 94.5 C197.69717835 93.07298525 199.79499802 91.30551266 202.3125 88.8125 C215.84210745 76.59364269 232.52393682 73.47760123 250.16015625 74.33154297 C281.59178294 76.65656681 309.74422333 98.50986268 329.75 121.375 C339.47383192 132.85593691 346.47305472 145.75412611 352.4375 159.5 C353.46230469 159.17773438 354.48710938 158.85546875 355.54296875 158.5234375 C364.83289206 155.88518333 374.01514271 156.84515659 382.4375 161.5 C385.33705853 163.27410847 387.88003371 165.26343252 390.4375 167.5 C391.21867187 168.17546875 391.99984375 168.8509375 392.8046875 169.546875 C412.24057077 187.59015604 426.209367 220.41109962 427.61328125 246.8046875 C427.62310793 249.37927882 427.57912379 251.9297904 427.4375 254.5 C428.11554688 254.58636719 428.79359375 254.67273438 429.4921875 254.76171875 C441.81055599 256.62141704 449.68505089 261.77799419 458.4375 270.5 C459.00339844 271.04269531 459.56929687 271.58539063 460.15234375 272.14453125 C469.42882644 281.86392293 474.39171806 296.4292785 474.8125 309.625 C474.48687369 320.03147405 471.03008318 329.05340795 463.4921875 336.39453125 C461.85000235 337.81399088 460.14904733 339.16499309 458.4375 340.5 C459.17355469 341.05300781 459.90960937 341.60601562 460.66796875 342.17578125 C474.40232753 353.70179461 483.10118224 374.32026539 484.65625 391.98486328 C485.28993042 402.58118813 485.63020496 412.79061389 478.859375 421.5390625 C475.17604784 425.5708125 471.63398242 427.86407035 466.4375 429.5 C464.77133314 429.54081389 463.10346578 429.54833007 461.4375 429.5 C461.61289307 430.10956543 461.78828613 430.71913086 461.96899414 431.34716797 C478.89336922 490.74421352 484.04936832 550.86056898 483.82321167 612.4437294 C483.81234088 615.79911322 483.80760738 619.15445779 483.80444336 622.50985718 C483.75749379 662.74246252 482.72459365 702.91244344 480.89480591 743.10218811 C480.62864625 748.99931014 480.38022919 754.89810251 480.26586914 760.80029297 C480.24754532 761.64405487 480.2292215 762.48781677 480.21034241 763.35714722 C480.59958487 767.02900021 482.61226344 768.55759156 485.375 770.8125 C502.163964 785.71307915 510.0137564 809.51204347 511.34375 831.5234375 C511.3746875 832.50570312 511.405625 833.48796875 511.4375 834.5 C511.4890625 835.81226563 511.540625 837.12453125 511.59375 838.4765625 C512.92842393 888.86326102 498.22158496 945.03185599 462.921875 982.26171875 C461.74480901 983.47125331 460.56262757 984.67583406 459.375 985.875 C458.81449951 986.44114014 458.25399902 987.00728027 457.67651367 987.59057617 C453.69479522 991.5 453.69479522 991.5 451.4375 991.5 C451.30021484 993.37365234 451.30021484 993.37365234 451.16015625 995.28515625 C450.50683426 1001.10369871 448.76639546 1006.41647746 446.875 1011.9375 C446.51857422 1012.989375 446.16214844 1014.04125 445.79492188 1015.125 C442.54795022 1024.51782134 438.74550887 1033.5499617 434.4375 1042.5 C434.12876953 1043.14775391 433.82003906 1043.79550781 433.50195312 1044.46289062 C431.23686618 1049.18940398 428.86496108 1053.85500941 426.4375 1058.5 C426.00985352 1059.31952148 425.58220703 1060.13904297 425.14160156 1060.98339844 C414.61077452 1081.02689917 402.51844344 1100.03119975 389.4375 1118.5 C388.9233252 1119.22670898 388.40915039 1119.95341797 387.87939453 1120.70214844 C380.6706575 1130.85804411 373.24679628 1140.79891167 365.4375 1150.5 C364.92719238 1151.13647461 364.41688477 1151.77294922 363.89111328 1152.42871094 C353.60323189 1165.24711712 343.0491469 1177.78060099 331.87890625 1189.83984375 C329.89162347 1192.00518706 327.96499342 1194.19844755 326.0625 1196.4375 C322.31400244 1200.7759548 318.21304914 1204.75334404 314.13647461 1208.77954102 C311.33859457 1211.55469715 308.62961215 1214.32680444 306.125 1217.375 C303.63178257 1220.39619288 300.82207256 1222.82153345 297.83984375 1225.3515625 C294.74837868 1228.11628736 291.85116523 1231.05009619 288.9375 1234 C284.26219965 1238.71697912 279.50569059 1243.20477435 274.4375 1247.5 C273.3619858 1248.43731771 272.28790691 1249.37628353 271.21484375 1250.31640625 C262.97006015 1257.52892875 254.5914485 1264.56268757 246.1171875 1271.50390625 C245.47620117 1272.03000488 244.83521484 1272.55610352 244.17480469 1273.09814453 C242.76968653 1274.23195404 241.33093519 1275.32400163 239.8828125 1276.40234375 C237.11793542 1278.77413128 234.88692034 1281.38257391 232.52148438 1284.14501953 C228.74954312 1288.40745455 224.71064756 1292.41281156 220.68701172 1296.43579102 C219.19856763 1297.92641615 217.71832723 1299.42487017 216.23828125 1300.92382812 C209.96482407 1307.23363979 203.40960908 1312.95735205 196.4375 1318.5 C195.40990151 1319.36333059 194.38648628 1320.2317211 193.37109375 1321.109375 C167.23938135 1343.51966983 118.31974539 1380.5 82.4375 1380.5 C82.4375 1396.34 82.4375 1412.18 82.4375 1428.5 C86.0675 1429.16 89.6975 1429.82 93.4375 1430.5 C121.19972784 1437.40755907 146.03009619 1447.58771732 168.4375 1465.5 C169.43523438 1466.28503906 170.43296875 1467.07007813 171.4609375 1467.87890625 C182.32687236 1476.58099448 192.24933931 1486.2088351 202.125 1496 C203.00397949 1496.86592773 203.88295898 1497.73185547 204.78857422 1498.62402344 C210.02766895 1503.85622592 214.85489191 1509.26502152 219.46508789 1515.06005859 C221.29932685 1517.32907508 223.20490147 1519.48559519 225.1875 1521.625 C230.24312692 1527.23897929 234.73303823 1533.29704167 239.2890625 1539.31640625 C239.81532227 1540.0036377 240.34158203 1540.69086914 240.88378906 1541.39892578 C241.92991356 1542.81359382 242.93188994 1544.26186588 243.88964844 1545.73779297 C244.36692383 1546.45209473 244.84419922 1547.16639648 245.3359375 1547.90234375 C245.74247559 1548.54550537 246.14901367 1549.18866699 246.56787109 1549.85131836 C250.98286351 1553.74455991 259.12410533 1554.05013975 264.85772705 1555.01782227 C265.66716161 1555.15696076 266.47659616 1555.29609926 267.31055903 1555.43945408 C270.00244325 1555.90138015 272.69505527 1556.35890832 275.38769531 1556.81640625 C277.32688529 1557.14818179 279.26603213 1557.48020948 281.20513916 1557.81246948 C286.46152014 1558.71220905 291.71858075 1559.60791413 296.97583866 1560.50251389 C300.26872338 1561.06302741 303.56146094 1561.6243973 306.85414886 1562.18606567 C318.36608521 1564.14973297 329.87858496 1566.11005931 341.39160156 1568.06738281 C352.08060186 1569.88470833 362.76832514 1571.70940914 373.45547414 1573.53758717 C382.66098658 1575.11196115 391.86739728 1576.68100671 401.07450175 1578.24604321 C406.55963115 1579.17850845 412.04438652 1580.11304543 417.52823639 1581.05300903 C422.69827074 1581.93900019 427.869406 1582.81827377 433.04140472 1583.69272232 C434.92333222 1584.01202117 436.80487923 1584.33357357 438.68597412 1584.65774155 C448.99098866 1586.43205295 459.24237318 1587.92703226 469.66736531 1588.79872036 C497.05259494 1591.18419115 519.06734395 1606.06436902 538.4375 1624.5 C539.07171875 1625.08136719 539.7059375 1625.66273437 540.359375 1626.26171875 C556.25585079 1641.28767325 567.91873487 1661.5576551 578.4375 1680.5 C578.84822754 1681.22960938 579.25895508 1681.95921875 579.68212891 1682.7109375 C612.52025005 1741.32493384 629.4111238 1809.53610311 644.4375 1874.5 C644.59369812 1875.16956726 644.74989624 1875.83913452 644.91082764 1876.5289917 C648.76247377 1893.07513845 651.22273196 1909.65925788 653.29296875 1926.50390625 C653.42197508 1927.54496647 653.55098141 1928.58602669 653.68389702 1929.65863419 C656.44336348 1951.96366948 658.87345157 1974.29893906 661.16928482 1996.65592957 C661.50990964 1999.97145711 661.85207858 2003.28682292 662.19442749 2006.60217285 C670.83928903 2090.43246079 678.51637137 2174.36010991 694.26070404 2352.47032547 C694.43312165 2354.44973516 694.60562827 2356.42913709 694.77813721 2358.40853882 C696.06146611 2373.13623735 697.33578545 2387.86465998 698.59107208 2402.59477615 C698.80901428 2405.14668532 699.02842772 2407.69846407 699.24822998 2410.25021362 C699.5783232 2414.08661569 699.90366937 2417.92338836 700.22479248 2421.76055145 C700.38948558 2423.71783049 700.55839141 2425.67475372 700.72753906 2427.63165283 C702.05483855 2443.71116992 702.05483855 2443.71116992 701.4375 2448.5 C699.18136175 2450.9207943 698.02355937 2451.78933946 695.1875 2453.1875 C694.14239258 2453.76987427 694.14239258 2453.76987427 693.07617188 2454.36401367 C691.46922017 2455.25731174 689.85247766 2456.13312964 688.22851562 2456.99511719 C685.10890958 2458.67717209 682.04750651 2460.4437733 678.984375 2462.2265625 C655.79234521 2475.71449538 632.14665159 2488.35431475 608.26043701 2500.56707764 C606.4071318 2501.5155415 604.55530491 2502.46684735 602.70361328 2503.41845703 C582.95178683 2513.55469439 562.89997292 2522.82948547 542.55126953 2531.70166016 C538.79605398 2533.34021824 535.05100077 2535.00035942 531.30859375 2536.66796875 C521.61659963 2540.98212788 511.89779149 2545.20909959 502.0625 2549.1875 C501.22912109 2549.52716797 500.39574219 2549.86683594 499.53710938 2550.21679688 C498.77462891 2550.52037109 498.01214844 2550.82394531 497.2265625 2551.13671875 C496.56350098 2551.40186279 495.90043945 2551.66700684 495.21728516 2551.94018555 C493.4375 2552.5 493.4375 2552.5 490.4375 2552.5 C486.944173 2512.40178445 483.45382493 2472.30331049 479.96699812 2432.20452917 C479.54686607 2427.37300471 479.12671152 2422.54148222 478.70654297 2417.70996094 C478.58117281 2416.26832199 478.58117281 2416.26832199 478.45326993 2414.79755902 C477.21444014 2400.55275236 475.97411364 2386.30807658 474.73291016 2372.06347656 C472.88340061 2350.83688077 471.03666372 2329.61004494 469.19272351 2308.38296461 C468.95309641 2305.62467086 468.71339715 2302.86638338 468.47368431 2300.10809708 C464.86397342 2258.56838212 461.29245242 2217.02591576 457.84179688 2175.47265625 C457.77055884 2174.61518327 457.69932081 2173.75771029 457.62592405 2172.87425327 C456.26863427 2156.53665044 454.91493686 2140.19875783 453.57730991 2123.85953218 C453.09596173 2117.98031989 452.61245853 2112.10128761 452.12734741 2106.22238463 C451.74474049 2101.58265287 451.36745657 2096.9425061 450.99111176 2092.30226135 C450.79782709 2089.95694151 450.60433149 2087.61163904 450.4105835 2085.26635742 C450.28354235 2083.67686122 450.28354235 2083.67686122 450.15393472 2082.05525398 C450.07366784 2081.09428747 449.99340096 2080.13332096 449.91070175 2079.14323425 C449.8429384 2078.31268619 449.77517505 2077.48213812 449.70535827 2076.62642193 C449.48458822 2074.3159599 449.48458822 2074.3159599 448.4375 2071.5 C439.70832404 2125.7416166 431.76660486 2180.02852979 426.69464111 2234.75439453 C426.4497109 2237.36961904 426.19468389 2239.98366078 425.93701172 2242.59765625 C423.60197442 2266.67893471 423.17432538 2290.76052044 423.17578125 2314.9375 C423.17506748 2316.15521583 423.17506748 2316.15521583 423.17433929 2317.39753199 C423.15142017 2365.39036008 424.68025429 2413.35363516 426.10979158 2461.32063591 C426.48170321 2473.81512454 426.84022527 2486.3099887 427.19804573 2498.80488753 C427.93045071 2524.37034353 428.67833729 2549.93532547 429.4375 2575.5 C427.86661845 2576.13593589 426.2949624 2576.7699588 424.72299194 2577.40319824 C423.84786139 2577.75647942 422.97273083 2578.10976059 422.07108116 2578.47374725 C418.15439067 2580.00000148 414.17529502 2581.27930957 410.1640625 2582.53125 C409.29933319 2582.80375076 408.43460388 2583.07625153 407.54367065 2583.35700989 C404.71843992 2584.24398197 401.89087197 2585.12309895 399.0625 2586 C398.08063721 2586.30513519 397.09877441 2586.61027039 396.0871582 2586.9246521 C374.34953001 2593.66260761 352.46269133 2599.77694827 330.4375 2605.5 C329.65449524 2605.70391357 328.87149048 2605.90782715 328.0647583 2606.11791992 C237.11760054 2629.73854428 143.70039749 2642.65486684 49.93164062 2647.37432861 C47.7146771 2647.48603397 45.49795804 2647.6016252 43.28125 2647.71826172 C-57.57688266 2652.79618854 -159.73623588 2644.85964789 -459.31134033 2575.28051758 C-461.67286587 2574.46173417 -464.03537112 2573.64581902 -466.39794922 2572.83007812 C-471.33095348 2571.12489121 -476.26009488 2569.4087931 -481.1875 2567.6875 C-481.93615326 2567.42645477 -482.68480652 2567.16540955 -483.45614624 2566.89645386 C-491.88325687 2563.95167599 -500.25928937 2560.89457209 -508.5859375 2557.67578125 C-509.36901276 2557.3742363 -510.15208801 2557.07269135 -510.95889282 2556.76200867 C-516.43984353 2554.62265647 -516.43984353 2554.62265647 -517.5625 2553.5 C-517.66474733 2551.95670747 -517.69557252 2550.40864192 -517.6986084 2548.86196899 C-517.70240383 2547.34243905 -517.70240383 2547.34243905 -517.70627594 2545.79221153 C-517.70201347 2544.6614702 -517.69775101 2543.53072887 -517.69335938 2542.36572266 C-517.69064781 2541.16828745 -517.68793625 2539.97085224 -517.68514252 2538.73713112 C-517.60487829 2523.49778472 -517.11340416 2508.26864898 -516.63652039 2493.03754807 C-516.46294509 2487.48968241 -516.29712764 2481.94159898 -516.13244629 2476.39346313 C-515.66366157 2460.63393555 -515.18700326 2444.87465875 -514.69873047 2429.11572266 C-513.51013 2390.68713556 -512.32406292 2352.27057777 -512.3359375 2313.8203125 C-512.33533829 2312.51840343 -512.33473907 2311.21649437 -512.3341217 2309.87513351 C-512.34511349 2288.32891682 -513.05532435 2266.86942737 -515.01904297 2245.40771484 C-515.10643738 2244.45217712 -515.19383179 2243.4966394 -515.28387451 2242.512146 C-515.37582092 2241.51813782 -515.46776733 2240.52412964 -515.5625 2239.5 C-515.65960266 2238.4415387 -515.75670532 2237.38307739 -515.85675049 2236.2925415 C-520.93117391 2181.40766627 -528.74074216 2126.89493045 -537.5625 2072.5 C-537.8925 2072.5 -538.2225 2072.5 -538.5625 2072.5 C-538.61768295 2073.16810322 -538.67286591 2073.83620644 -538.72972107 2074.52455521 C-540.66383865 2097.93388136 -542.61004102 2121.34219693 -544.5625 2144.75 C-544.6413048 2145.69492074 -544.72010961 2146.63984147 -544.80130243 2147.61339617 C-551.77304072 2231.19745771 -559.01435461 2314.75770711 -566.29336262 2398.31545043 C-566.50063836 2400.6948279 -566.7079041 2403.07420624 -566.91516876 2405.45358467 C-570.45904667 2446.13618001 -574.00810641 2486.81832202 -577.5625 2527.5 C-581.38280454 2526.7895898 -584.53362555 2525.75316937 -588.06640625 2524.11328125 C-589.17757812 2523.59813965 -590.28875 2523.08299805 -591.43359375 2522.55224609 C-592.66436361 2521.97297005 -593.89482174 2521.39303132 -595.125 2520.8125 C-595.75921875 2520.5149884 -596.3934375 2520.21747681 -597.046875 2519.91094971 C-623.72507004 2507.38174941 -650.36570093 2494.41423929 -676.03808594 2479.92041016 C-678.86314667 2478.33083536 -681.70045242 2476.76446312 -684.5390625 2475.19921875 C-712.8813971 2459.52361587 -740.50150633 2442.54816009 -767.58789062 2424.79394531 C-768.94720836 2423.90319556 -770.30797154 2423.01464898 -771.66992188 2422.12792969 C-773.74179913 2420.77807027 -775.8090422 2419.42139742 -777.875 2418.0625 C-778.49189697 2417.66119873 -779.10879395 2417.25989746 -779.74438477 2416.84643555 C-783.05117434 2414.65626035 -786.04306172 2412.5741802 -788.5625 2409.5 C-788.87794781 2406.92751789 -788.87794781 2406.92751789 -788.61296082 2403.95222473 C-788.52237585 2402.81669537 -788.43179089 2401.681166 -788.33846092 2400.51122665 C-788.21669802 2399.26333485 -788.09493511 2398.01544304 -787.96948242 2396.72973633 C-787.85430897 2395.39093031 -787.74102251 2394.05196084 -787.6294651 2392.71284866 C-787.31700851 2389.02937644 -786.97751919 2385.34881907 -786.63355088 2381.66817403 C-786.26801707 2377.70708893 -785.92716133 2373.74387225 -785.58317566 2369.78086853 C-784.90465721 2362.01049326 -784.20270695 2354.2424013 -783.4929089 2346.47482771 C-782.91217013 2340.11299689 -782.3410303 2333.75036757 -781.77642822 2327.38708496 C-781.65544325 2326.02356661 -781.65544325 2326.02356661 -781.53201413 2324.63250244 C-781.36821167 2322.78594807 -781.20442842 2320.93939199 -781.0406642 2319.09283423 C-779.17363945 2298.05756549 -777.26150741 2277.02648945 -775.33865523 2255.99626124 C-774.74744924 2249.52899068 -774.15834395 2243.06153187 -773.57073975 2236.59393311 C-765.70898742 2150.06671794 -757.67590678 2063.55001198 -743.5625 1933 C-743.43206299 1931.87732727 -743.30162598 1930.75465454 -743.16723633 1929.59796143 C-740.68744278 1908.44770408 -736.82678081 1887.71989112 -731.9375 1867 C-731.72285095 1866.08512817 -731.5082019 1865.17025635 -731.28704834 1864.22766113 C-711.09224179 1778.2883003 -686.28580321 1678.48403261 -605.41357422 1605.62792969 C-588.83481945 1595.52586598 -572.30560712 1589.64353362 -552.8975476 1587.87172276 C-542.12402814 1586.87619243 -531.52620743 1585.32500415 -520.87060547 1583.47485352 C-519.10388068 1583.17342119 -517.33705185 1582.87259816 -515.57012939 1582.57232666 C-510.83779069 1581.76638944 -506.10692201 1580.95211852 -501.37629461 1580.13620496 C-496.386174 1579.27708746 -491.39468836 1578.42597276 -486.40335083 1577.57395935 C-476.96137063 1575.96102277 -467.52058787 1574.34118927 -458.08024037 1572.71872705 C-446.3422699 1570.70172823 -434.60278341 1568.69360798 -422.86328125 1566.68554688 C-410.85430579 1564.63115429 -398.84546842 1562.57597762 -386.83761597 1560.51502991 C-384.98689815 1560.19747711 -383.13617998 1559.87992641 -381.28546143 1559.56237793 C-377.90017691 1558.98150643 -374.51498528 1558.40009796 -371.12985229 1557.81834412 C-370.35762966 1557.68609621 -369.58540703 1557.5538483 -368.78978372 1557.41759288 C-367.28253305 1557.15841455 -365.77570305 1556.89677603 -364.26933837 1556.63249695 C-360.38462478 1555.95609769 -356.501583 1555.34352952 -352.59402847 1554.81336784 C-351.7782156 1554.69602946 -350.96240273 1554.57869108 -350.12186825 1554.45779699 C-348.57135799 1554.2364568 -347.01842856 1554.03120021 -345.46325195 1553.84546047 C-338.87052141 1552.87710962 -336.33956821 1549.75563236 -332.38671875 1544.73828125 C-331.68160156 1543.77277344 -330.97648437 1542.80726562 -330.25 1541.8125 C-319.93264391 1527.87472077 -308.74796761 1514.70481991 -296.95068359 1502.00585938 C-295.52346439 1500.45765535 -294.11347684 1498.89521132 -292.70703125 1497.328125 C-288.25736638 1492.38252461 -283.80490722 1487.59705877 -278.69140625 1483.3203125 C-276.06200228 1481.07205149 -273.5771304 1478.68836883 -271.0625 1476.3125 C-261.28840095 1467.26899963 -250.57111733 1459.550667 -239.25 1452.5625 C-238.54601074 1452.12615234 -237.84202148 1451.68980469 -237.11669922 1451.24023438 C-227.79546355 1445.62716831 -218.01327857 1441.72341376 -207.625 1438.5625 C-206.52196533 1438.22476562 -205.41893066 1437.88703125 -204.2824707 1437.5390625 C-173.9142053 1428.5 -173.9142053 1428.5 -160.5625 1428.5 C-160.5625 1410.68 -160.5625 1392.86 -160.5625 1374.5 C-163.8625 1373.51 -167.1625 1372.52 -170.5625 1371.5 C-172.82875289 1370.55751861 -175.07331452 1369.56001548 -177.28515625 1368.49609375 C-178.4750415 1367.9252002 -179.66492676 1367.35430664 -180.89086914 1366.76611328 C-182.13598794 1366.15741045 -183.38069096 1365.54785645 -184.625 1364.9375 C-185.263237 1364.62697693 -185.901474 1364.31645386 -186.55905151 1363.996521 C-200.15171179 1357.37511557 -213.10650115 1350.07726943 -225.55859375 1341.484375 C-232.75622332 1336.72963401 -240.25450964 1332.53337295 -247.82226562 1328.40185547 C-280.95678346 1310.29133186 -312.13364988 1289.15221522 -341.5625 1265.5 C-342.490625 1264.75492188 -343.41875 1264.00984375 -344.375 1263.2421875 C-355.09235881 1254.54991102 -365.54093578 1245.56182842 -375.6484375 1236.16796875 C-377.81224977 1234.18689129 -379.99563283 1232.26209177 -382.21899414 1230.35058594 C-386.64813984 1226.47937061 -390.82014937 1222.38676981 -394.97265625 1218.22265625 C-395.74379257 1217.45247665 -396.51492889 1216.68229706 -397.30943298 1215.88877869 C-398.92830153 1214.27058627 -400.54592551 1212.65114788 -402.16235352 1211.03051758 C-404.61818718 1208.56932768 -407.07931365 1206.11352191 -409.54101562 1203.65820312 C-411.12271653 1202.07584133 -412.70410717 1200.49316933 -414.28515625 1198.91015625 C-415.37450218 1197.82384666 -415.37450218 1197.82384666 -416.4858551 1196.71559143 C-421.04475717 1192.13599458 -425.34867756 1187.39714381 -429.5625 1182.5 C-431.01695517 1180.89231627 -432.47470895 1179.28760285 -433.9375 1177.6875 C-438.66865345 1172.43862774 -443.12126785 1166.99437924 -447.5625 1161.5 C-448.57332767 1160.26879913 -449.58510049 1159.03837382 -450.59765625 1157.80859375 C-482.61091409 1118.84391324 -512.36846352 1075.61160702 -528.5625 1027.5 C-528.975 1026.27667969 -529.3875 1025.05335937 -529.8125 1023.79296875 C-531.57495809 1018.12329659 -532.67715212 1012.83435773 -533.08447266 1006.93334961 C-533.5312205 1000.87194345 -533.87635338 996.22299979 -538.5 991.8125 C-539.304375 991.13960937 -540.10875 990.46671875 -540.9375 989.7734375 C-568.57321991 965.83893008 -578.47618022 925.55491099 -585.5625 891.5 C-585.7589209 890.5728418 -585.9553418 889.64568359 -586.15771484 888.69042969 C-591.8220846 860.81847821 -591.62926803 827.58551324 -579.5625 801.5 C-579.14484375 800.58347656 -578.7271875 799.66695312 -578.296875 798.72265625 C-573.74134755 789.59851075 -566.8700216 780.50171547 -558.5625 774.5 C-558.64290527 773.90276123 -558.72331055 773.30552246 -558.80615234 772.69018555 C-560.19547036 762.3257939 -561.57119826 751.9603993 -562.6875 741.5625 C-562.80037354 740.53999146 -562.80037354 740.53999146 -562.91552734 739.49682617 C-563.15821126 737.16624256 -563.36598206 734.83495489 -563.5625 732.5 C-563.65080078 731.46125732 -563.73910156 730.42251465 -563.83007812 729.35229492 C-564.82873247 715.81388286 -564.80615379 702.25666384 -564.8125 688.6875 C-564.81317474 687.38587921 -564.81384949 686.08425842 -564.81454468 684.74319458 C-564.79529236 661.21272324 -563.89259874 637.91387002 -561.5625 614.5 C-561.47764343 613.64480774 -561.39278687 612.78961548 -561.30535889 611.9085083 C-555.8495841 557.63577303 -546.66967052 502.91613961 -531.9573822 450.33743286 C-530.59821866 446.2029544 -530.59821866 446.2029544 -531.80078125 442.2421875 C-532.48527344 441.62601563 -533.16976562 441.00984375 -533.875 440.375 C-544.43788721 429.73901323 -552.87966259 415.2844648 -553.6328125 400.06640625 C-553.41222957 392.01512913 -551.25292665 386.23260295 -545.51171875 380.42578125 C-541.32789811 376.5091626 -538.15616662 374.07976752 -532.5625 372.5 C-533.04460937 371.46101563 -533.52671875 370.42203125 -534.0234375 369.3515625 C-543.27915523 349.08838684 -544.22241693 329.66786164 -536.5 308.6015625 C-532.76855565 300.17989991 -526.12410229 292.89503327 -517.58984375 289.2109375 C-510.47857898 286.71719918 -504.99993551 286.50091153 -497.5625 287.5 C-497.57035522 286.57441284 -497.57035522 286.57441284 -497.57836914 285.63012695 C-498.1356237 209.30036039 -498.1356237 209.30036039 -475.78125 185.52734375 C-462.33053004 173.2369852 -444.48573244 168.84056934 -426.734375 167.7109375 C-424.38294143 167.56405825 -424.38294143 167.56405825 -421.5625 166.5 C-420.51500529 164.13520134 -419.70410562 161.89712862 -418.9375 159.4375 C-418.68589111 158.6638208 -418.43428223 157.8901416 -418.17504883 157.09301758 C-416.47297279 151.74037631 -414.95484489 146.3430311 -413.48828125 140.921875 C-397.93040969 83.51465602 -397.93040969 83.51465602 -373.578125 69.09375 C-349.81599692 56.53552687 -327.46535928 56.01738436 -301.578125 60.5234375 C-275.7298952 65.26918931 -275.7298952 65.26918931 -250.5625 59.5 C-243.28850006 54.04450004 -239.39971266 44.4401214 -235.30859375 36.55078125 C-230.29657591 27.79376573 -222.1537194 21.64195118 -212.5625 18.5 C-204.0375307 16.65177268 -195.70322766 16.14700602 -187 16.1875 C-185.12066772 16.19378418 -185.12066772 16.19378418 -183.20336914 16.20019531 C-153.07373857 16.55561795 -123.91203753 21.44208709 -96.61328125 34.37768555 C-86.6648777 39.0359854 -78.49179415 40.80933133 -67.9375 37 C-56.22084274 31.90894091 -46.4152132 24.79756498 -36.70678711 16.60864258 C-25.45019972 7.13438052 -15.17674887 -0.11587544 0 0 Z " fill="#BD814E" transform="translate(1391.5625,105.5)"/>
<path d="M0 0 C31.70264306 3.96283038 62.2035152 17.03980817 87 37 C87.99515625 37.78375 88.9903125 38.5675 90.015625 39.375 C100.88796757 48.07287405 110.81034141 57.70735002 120.6875 67.5 C121.56647949 68.36592773 122.44545898 69.23185547 123.35107422 70.12402344 C128.59016895 75.35622592 133.41739191 80.76502152 138.02758789 86.56005859 C139.86182685 88.82907508 141.76740147 90.98559519 143.75 93.125 C148.80562692 98.73897929 153.29553823 104.79704167 157.8515625 110.81640625 C158.37782227 111.5036377 158.90408203 112.19086914 159.44628906 112.89892578 C160.49241356 114.31359382 161.49438994 115.76186588 162.45214844 117.23779297 C162.92942383 117.95209473 163.40669922 118.66639648 163.8984375 119.40234375 C164.30497559 120.04550537 164.71151367 120.68866699 165.13037109 121.35131836 C169.54536351 125.24455991 177.68660533 125.55013975 183.42022705 126.51782227 C184.22966161 126.65696076 185.03909616 126.79609926 185.87305903 126.93945408 C188.56494325 127.40138015 191.25755527 127.85890832 193.95019531 128.31640625 C195.88938529 128.64818179 197.82853213 128.98020948 199.76763916 129.31246948 C205.02402014 130.21220905 210.28108075 131.10791413 215.53833866 132.00251389 C218.83122338 132.56302741 222.12396094 133.1243973 225.41664886 133.68606567 C236.92858521 135.64973297 248.44108496 137.61005931 259.95410156 139.56738281 C270.64310186 141.38470833 281.33082514 143.20940914 292.01797414 145.03758717 C301.22348658 146.61196115 310.42989728 148.18100671 319.63700175 149.74604321 C325.12213115 150.67850845 330.60688652 151.61304543 336.09073639 152.55300903 C341.26077074 153.43900019 346.431906 154.31827377 351.60390472 155.19272232 C353.48583222 155.51202117 355.36737923 155.83357357 357.24847412 156.15774155 C367.55348866 157.93205295 377.80487318 159.42703226 388.22986531 160.29872036 C415.61509494 162.68419115 437.62984395 177.56436902 457 196 C457.63421875 196.58136719 458.2684375 197.16273438 458.921875 197.76171875 C474.81835079 212.78767325 486.48123487 233.0576551 497 252 C497.41072754 252.72960938 497.82145508 253.45921875 498.24462891 254.2109375 C531.08275005 312.82493384 547.9736238 381.03610311 563 446 C563.23429718 447.00435089 563.23429718 447.00435089 563.47332764 448.0289917 C567.32497377 464.57513845 569.78523196 481.15925788 571.85546875 498.00390625 C571.98447508 499.04496647 572.11348141 500.08602669 572.24639702 501.15863419 C575.00586348 523.46366948 577.43595157 545.79893906 579.73178482 568.15592957 C580.07240964 571.47145711 580.41457858 574.78682292 580.75692749 578.10217285 C589.40178903 661.93246079 597.07887137 745.86010991 612.82320404 923.97032547 C612.99562165 925.94973516 613.16812827 927.92913709 613.34063721 929.90853882 C614.62396611 944.63623735 615.89828545 959.36465998 617.15357208 974.09477615 C617.37151428 976.64668532 617.59092772 979.19846407 617.81072998 981.75021362 C618.1408232 985.58661569 618.46616937 989.42338836 618.78729248 993.26055145 C618.95198558 995.21783049 619.12089141 997.17475372 619.29003906 999.13165283 C620.61733855 1015.21116992 620.61733855 1015.21116992 620 1020 C617.74386175 1022.4207943 616.58605937 1023.28933946 613.75 1024.6875 C613.05326172 1025.07574951 612.35652344 1025.46399902 611.63867188 1025.86401367 C610.03172017 1026.75731174 608.41497766 1027.63312964 606.79101562 1028.49511719 C603.67140958 1030.17717209 600.61000651 1031.9437733 597.546875 1033.7265625 C574.35484521 1047.21449538 550.70915159 1059.85431475 526.82293701 1072.06707764 C524.9696318 1073.0155415 523.11780491 1073.96684735 521.26611328 1074.91845703 C501.51428683 1085.05469439 481.46247292 1094.32948547 461.11376953 1103.20166016 C457.35855398 1104.84021824 453.61350077 1106.50035942 449.87109375 1108.16796875 C440.17909963 1112.48212788 430.46029149 1116.70909959 420.625 1120.6875 C419.79162109 1121.02716797 418.95824219 1121.36683594 418.09960938 1121.71679688 C417.33712891 1122.02037109 416.57464844 1122.32394531 415.7890625 1122.63671875 C415.12600098 1122.90186279 414.46293945 1123.16700684 413.77978516 1123.44018555 C412 1124 412 1124 409 1124 C405.506673 1083.90178445 402.01632493 1043.80331049 398.52949812 1003.70452917 C398.10936607 998.87300471 397.68921152 994.04148222 397.26904297 989.20996094 C397.18546287 988.24886831 397.10188276 987.28777567 397.01576993 986.29755902 C395.77694014 972.05275236 394.53661364 957.80807658 393.29541016 943.56347656 C391.44590061 922.33688077 389.59916372 901.11004494 387.75522351 879.88296461 C387.51559641 877.12467086 387.27589715 874.36638338 387.03618431 871.60809708 C383.42647342 830.06838212 379.85495242 788.52591576 376.40429688 746.97265625 C376.33305884 746.11518327 376.26182081 745.25771029 376.18842405 744.37425327 C374.83113427 728.03665044 373.47743686 711.69875783 372.13980991 695.35953218 C371.65846173 689.48031989 371.17495853 683.60128761 370.68984741 677.72238463 C370.30724049 673.08265287 369.92995657 668.4425061 369.55361176 663.80226135 C369.36032709 661.45694151 369.16683149 659.11163904 368.9730835 656.76635742 C368.84604235 655.17686122 368.84604235 655.17686122 368.71643472 653.55525398 C368.63616784 652.59428747 368.55590096 651.63332096 368.47320175 650.64323425 C368.4054384 649.81268619 368.33767505 648.98213812 368.26785827 648.12642193 C368.04708822 645.8159599 368.04708822 645.8159599 367 643 C358.27082404 697.2416166 350.32910486 751.52852979 345.25714111 806.25439453 C345.0122109 808.86961904 344.75718389 811.48366078 344.49951172 814.09765625 C342.16447442 838.17893471 341.73682538 862.26052044 341.73828125 886.4375 C341.7378054 887.24931056 341.73732956 888.06112111 341.73683929 888.89753199 C341.71392017 936.89036008 343.24275429 984.85363516 344.67229158 1032.82063591 C345.04420321 1045.31512454 345.40272527 1057.8099887 345.76054573 1070.30488753 C346.49295071 1095.87034353 347.24083729 1121.43532547 348 1147 C346.42911845 1147.63593589 344.8574624 1148.2699588 343.28549194 1148.90319824 C342.41036139 1149.25647942 341.53523083 1149.60976059 340.63358116 1149.97374725 C336.71689067 1151.50000148 332.73779502 1152.77930957 328.7265625 1154.03125 C327.42946854 1154.44000114 327.42946854 1154.44000114 326.10617065 1154.85700989 C323.28093992 1155.74398197 320.45337197 1156.62309895 317.625 1157.5 C316.64313721 1157.80513519 315.66127441 1158.11027039 314.6496582 1158.4246521 C292.91203001 1165.16260761 271.02519133 1171.27694827 249 1177 C248.21699524 1177.20391357 247.43399048 1177.40782715 246.6272583 1177.61791992 C151.94447681 1202.20875343 54.39188539 1215.47031786 -74.93212891 1220.00708008 C-75.80714554 1220.00656898 -76.68216217 1220.00605789 -77.58369446 1220.00553131 C-79.72246336 1220.00420798 -81.8612318 1220.00217668 -84 1220 C-84.16071529 1173.44299163 -84.28381672 1126.88601297 -84.35745731 1080.32878119 C-84.36621078 1074.81472738 -84.37527118 1069.3006741 -84.38452148 1063.78662109 C-84.38635766 1062.68901218 -84.38819383 1061.59140327 -84.39008565 1060.46053348 C-84.42042835 1042.75866812 -84.47555508 1025.05696417 -84.54006957 1007.35519411 C-84.60585653 989.15054023 -84.64447989 970.94597008 -84.65861946 952.74120224 C-84.66815723 941.535218 -84.6981225 930.32969024 -84.75541527 919.12384675 C-84.79282147 911.40792343 -84.80351088 903.69223118 -84.79450964 895.97622408 C-84.79008776 891.54446729 -84.79617005 887.11349976 -84.83443832 882.68188858 C-85.0137994 860.82836097 -82.94139555 840.78537477 -77.82321656 819.52417064 C-76.64397411 814.47586157 -75.69113182 809.3949157 -74.77734375 804.29296875 C-74.46676624 802.59413274 -74.15607558 800.89531741 -73.84521484 799.1965332 C-73.69703308 798.37835114 -73.54885132 797.56016907 -73.3961792 796.7171936 C-70.83053146 782.56721105 -68.12379866 768.46218421 -65.15258789 754.39135742 C-63.27344975 745.44861022 -61.54648744 736.48335704 -59.875 727.5 C-59.74784607 726.81695801 -59.62069214 726.13391602 -59.48968506 725.43017578 C-58.65713018 720.95394228 -57.82858819 716.47696941 -57 712 C-54.85915225 700.47076085 -52.59059035 688.97763205 -50.1875 677.5 C-47.75503512 665.86833942 -45.50563674 654.21078584 -43.3236084 642.52993774 C-40.64749398 628.22476999 -37.80951507 613.95450699 -34.9375 599.6875 C-31.35473062 581.88206978 -27.88564922 564.06305662 -24.59082031 546.20214844 C-22.26611258 533.60261677 -19.81306504 521.04049421 -17.1875 508.5 C-14.52415346 495.76166656 -12.07155987 482.990185 -9.67431641 470.19946289 C-7.8246436 460.33409844 -5.92856158 450.47926774 -3.99307251 440.63040161 C0.03704637 420.10504528 3.77878845 399.52854977 7.47213745 378.94024658 C7.83829684 376.90070259 8.20514588 374.86128234 8.57254028 372.82196045 C11.65459653 355.71323042 14.63866563 338.58955305 17.53979492 321.44921875 C18.19550446 317.57773958 18.85451214 313.70683056 19.51367188 309.8359375 C19.94030138 307.32034594 20.36674073 304.80472212 20.79296875 302.2890625 C20.9856987 301.15860504 21.17842865 300.02814758 21.3769989 298.86343384 C22.53928367 291.97640735 23.58464986 285.08055909 24.54586792 278.16255188 C25.2471034 273.27918493 26.0961784 268.42328358 26.9375 263.5625 C28.50863193 254.33521726 29.82385244 245.0974726 30.99584961 235.81176758 C31.70535188 230.20343696 32.49863413 224.62867568 33.46875 219.05859375 C35.31560125 208.42561925 36.978873 197.7822492 38.16674805 187.0546875 C38.65515302 182.72702405 39.21434277 178.41615271 39.8359375 174.10546875 C42.08955716 158.47358539 43.97695552 142.8249915 45.6875 127.125 C45.85011826 125.64551376 45.85011826 125.64551376 46.01602173 124.13613892 C47.26133008 112.76718256 48.3728997 101.42146807 49 90 C45.02503261 88.48149898 45.02503261 88.48149898 41 89 C39.22967907 90.97156005 37.71927031 92.85982617 36.1875 95 C31.9134496 100.73573156 31.9134496 100.73573156 28.515625 101.71875 C25.52454757 101.46496161 22.89241507 100.81535881 20 100 C18.54471563 99.66929976 17.08751525 99.34696352 15.62890625 99.03125 C10.36800533 97.87239768 5.11456908 96.70485636 0 95 C0 63.65 0 32.3 0 0 Z " fill="#0B3B58" transform="translate(1473,1534)"/>
<path d="M0 0 C0 31.35 0 62.7 0 95 C-11 98 -11 98 -16 97 C-17.58203125 95.44140625 -17.58203125 95.44140625 -18.8125 93.5625 C-19.23144531 92.94503906 -19.65039062 92.32757812 -20.08203125 91.69140625 C-21 90 -21 90 -21 88 C-37.4014539 92.38297773 -37.4014539 92.38297773 -53.63671875 97.3359375 C-56 98 -56 98 -59 98 C-52.98436172 154.85261749 -45.50408861 211.37881501 -36.16796875 267.7890625 C-35.29470984 273.09825256 -34.47435154 278.41443471 -33.66322327 283.73345947 C-31.31381938 299.13467171 -28.81465256 314.5082709 -26.25 329.875 C-26.03412231 331.1707193 -25.81824463 332.4664386 -25.5958252 333.80142212 C-22.03922965 355.13153689 -18.29274973 376.42255769 -14.35206604 397.68510437 C-13.31332983 403.29021555 -12.28979721 408.89789624 -11.27734375 414.5078125 C-11.14093475 415.26284561 -11.00452576 416.01787872 -10.86398315 416.79579163 C-10.23803579 420.26105494 -9.61299414 423.72647643 -8.98925781 427.19213867 C-6.70916637 439.77867869 -4.15348019 452.30585752 -1.55273438 464.8293457 C3.90950728 491.14000184 8.91936387 517.5340029 13.90914917 543.93746948 C14.47688207 546.94160586 15.04475204 549.94571633 15.61260986 552.9498291 C15.96974232 554.83986836 16.32644384 556.72998903 16.68310547 558.62011719 C19.28727251 572.39923055 22.0437567 586.14229936 24.890625 599.87295532 C27.79560485 613.89288735 30.53655358 627.9405791 33.23193359 642.00244141 C34.57955891 649.02489171 35.94695017 656.04351794 37.3125 663.0625 C37.45575714 663.79922943 37.59901428 664.53595886 37.74661255 665.29501343 C40.68239213 680.39211356 43.63614458 695.4856903 46.59082031 710.57910156 C49.90639803 727.51656987 53.21305356 744.45576887 56.51661682 761.39558411 C57.698964 767.45791216 58.88248515 773.52001039 60.06640625 779.58203125 C63.42490655 796.78055965 66.77884031 813.97989164 70.09814453 831.18603516 C70.32099121 832.34022949 70.54383789 833.49442383 70.7734375 834.68359375 C70.96341309 835.66900146 71.15338867 836.65440918 71.34912109 837.66967773 C71.69646922 839.44693795 72.05553241 841.22327939 72.492607 842.98062694 C74.29250605 850.68469104 74.27426969 858.2614898 74.24050903 866.13528442 C74.24138238 867.65771744 74.24313573 869.18015016 74.24568737 870.70258129 C74.25013957 874.86440434 74.24218662 879.0261236 74.23213124 883.18793344 C74.22346825 887.6840504 74.22641892 892.18016183 74.22793579 896.67628479 C74.22898284 904.45893864 74.22272505 912.24155886 74.21146011 920.02420425 C74.19518369 931.27650216 74.18999491 942.52878387 74.18748413 953.78109227 C74.18311039 972.03864103 74.16981 990.29617189 74.15087891 1008.55371094 C74.1325118 1026.28580638 74.11835936 1044.01789696 74.10986328 1061.75 C74.10907511 1063.39040021 74.10907511 1063.39040021 74.10827102 1065.06393982 C74.10566088 1070.5503876 74.10313348 1076.03683541 74.10064721 1081.52328324 C74.07992471 1127.01553456 74.04470791 1172.50776636 74 1218 C70.22190498 1217.85090793 66.44395334 1217.69843242 62.66601562 1217.54541016 C61.61061584 1217.50380264 60.55521606 1217.46219513 59.46783447 1217.41932678 C49.1216571 1216.99722143 38.81570706 1216.26227141 28.5 1215.375 C27.52109802 1215.29141235 26.54219604 1215.20782471 25.53363037 1215.1217041 C-75.16824894 1206.40756183 -175.2588495 1186.7925091 -277.85717773 1153.69604492 C-280.02285624 1152.99257569 -282.18996532 1152.29367301 -284.35742188 1151.59570312 C-302.46149171 1145.75660899 -320.37659761 1139.49455898 -338.1875 1132.8125 C-339.07931976 1132.47827026 -339.97113953 1132.14404053 -340.88998413 1131.79968262 C-343.40093366 1130.85635405 -345.90993657 1129.90808584 -348.41796875 1128.95703125 C-349.17339966 1128.67219376 -349.92883057 1128.38735626 -350.70715332 1128.09388733 C-355.88250252 1126.11749748 -355.88250252 1126.11749748 -357 1125 C-357.10224733 1123.45670747 -357.13307252 1121.90864192 -357.1361084 1120.36196899 C-357.13990383 1118.84243905 -357.13990383 1118.84243905 -357.14377594 1117.29221153 C-357.13951347 1116.1614702 -357.13525101 1115.03072887 -357.13085938 1113.86572266 C-357.12814781 1112.66828745 -357.12543625 1111.47085224 -357.12264252 1110.23713112 C-357.04237829 1094.99778472 -356.55090416 1079.76864898 -356.07402039 1064.53754807 C-355.90044509 1058.98968241 -355.73462764 1053.44159898 -355.56994629 1047.89346313 C-355.10116157 1032.13393555 -354.62450326 1016.37465875 -354.13623047 1000.61572266 C-352.94763 962.18713556 -351.76156292 923.77057777 -351.7734375 885.3203125 C-351.77283829 884.01840343 -351.77223907 882.71649437 -351.7716217 881.37513351 C-351.78261349 859.82891682 -352.49282435 838.36942737 -354.45654297 816.90771484 C-354.54393738 815.95217712 -354.63133179 814.9966394 -354.72137451 814.012146 C-354.81332092 813.01813782 -354.90526733 812.02412964 -355 811 C-355.09710266 809.9415387 -355.19420532 808.88307739 -355.29425049 807.7925415 C-360.36867391 752.90766627 -368.17824216 698.39493045 -377 644 C-377.33 644 -377.66 644 -378 644 C-378.05518295 644.66810322 -378.11036591 645.33620644 -378.16722107 646.02455521 C-380.10133865 669.43388136 -382.04754102 692.84219693 -384 716.25 C-384.0788048 717.19492074 -384.15760961 718.13984147 -384.23880243 719.11339617 C-391.21054072 802.69745771 -398.45185461 886.25770711 -405.73086262 969.81545043 C-405.93813836 972.1948279 -406.1454041 974.57420624 -406.35266876 976.95358467 C-409.89654667 1017.63618001 -413.44560641 1058.31832202 -417 1099 C-420.82030454 1098.2895898 -423.97112555 1097.25316937 -427.50390625 1095.61328125 C-428.61507812 1095.09813965 -429.72625 1094.58299805 -430.87109375 1094.05224609 C-432.10186361 1093.47297005 -433.33232174 1092.89303132 -434.5625 1092.3125 C-435.19671875 1092.0149884 -435.8309375 1091.71747681 -436.484375 1091.41094971 C-463.16257004 1078.88174941 -489.80320093 1065.91423929 -515.47558594 1051.42041016 C-518.30064667 1049.83083536 -521.13795242 1048.26446312 -523.9765625 1046.69921875 C-552.3188971 1031.02361587 -579.93900633 1014.04816009 -607.02539062 996.29394531 C-608.38470836 995.40319556 -609.74547154 994.51464898 -611.10742188 993.62792969 C-613.17929913 992.27807027 -615.2465422 990.92139742 -617.3125 989.5625 C-618.23784546 988.9605481 -618.23784546 988.9605481 -619.18188477 988.34643555 C-622.48867434 986.15626035 -625.48056172 984.0741802 -628 981 C-628.31544781 978.42751789 -628.31544781 978.42751789 -628.05046082 975.45222473 C-627.95987585 974.31669537 -627.86929089 973.181166 -627.77596092 972.01122665 C-627.59331656 970.13938894 -627.59331656 970.13938894 -627.40698242 968.22973633 C-627.29180897 966.89093031 -627.17852251 965.55196084 -627.0669651 964.21284866 C-626.75450851 960.52937644 -626.41501919 956.84881907 -626.07105088 953.16817403 C-625.70551707 949.20708893 -625.36466133 945.24387225 -625.02067566 941.28086853 C-624.34215721 933.51049326 -623.64020695 925.7424013 -622.9304089 917.97482771 C-622.34967013 911.61299689 -621.7785303 905.25036757 -621.21392822 898.88708496 C-621.13327157 897.97807273 -621.05261492 897.06906049 -620.96951413 896.13250244 C-620.80571167 894.28594807 -620.64192842 892.43939199 -620.4781642 890.59283423 C-618.61113945 869.55756549 -616.69900741 848.52648945 -614.77615523 827.49626124 C-614.18494924 821.02899068 -613.59584395 814.56153187 -613.00823975 808.09393311 C-605.14648742 721.56671794 -597.11340678 635.05001198 -583 504.5 C-582.86956299 503.37732727 -582.73912598 502.25465454 -582.60473633 501.09796143 C-580.12494278 479.94770408 -576.26428081 459.21989112 -571.375 438.5 C-571.16035095 437.58512817 -570.9457019 436.67025635 -570.72454834 435.72766113 C-550.52974179 349.7883003 -525.72330321 249.98403261 -444.85107422 177.12792969 C-428.27231945 167.02586598 -411.74310712 161.14353362 -392.3350476 159.37172276 C-381.56152814 158.37619243 -370.96370743 156.82500415 -360.30810547 154.97485352 C-358.54138068 154.67342119 -356.77455185 154.37259816 -355.00762939 154.07232666 C-350.27529069 153.26638944 -345.54442201 152.45211852 -340.81379461 151.63620496 C-335.823674 150.77708746 -330.83218836 149.92597276 -325.84085083 149.07395935 C-316.39887063 147.46102277 -306.95808787 145.84118927 -297.51774037 144.21872705 C-285.7797699 142.20172823 -274.04028341 140.19360798 -262.30078125 138.18554688 C-250.29180579 136.13115429 -238.28296842 134.07597762 -226.27511597 132.01502991 C-224.42439815 131.69747711 -222.57367998 131.37992641 -220.72296143 131.06237793 C-217.33767691 130.48150643 -213.95248528 129.90009796 -210.56735229 129.31834412 C-209.79512966 129.18609621 -209.02290703 129.0538483 -208.22728372 128.91759288 C-206.72003305 128.65841455 -205.21320305 128.39677603 -203.70683837 128.13249695 C-199.82212478 127.45609769 -195.939083 126.84352952 -192.03152847 126.31336784 C-191.2157156 126.19602946 -190.39990273 126.07869108 -189.55936825 125.95779699 C-188.00885799 125.7364568 -186.45592856 125.53120021 -184.90075195 125.34546047 C-178.30802141 124.37710962 -175.77706821 121.25563236 -171.82421875 116.23828125 C-171.11910156 115.27277344 -170.41398437 114.30726562 -169.6875 113.3125 C-159.37014391 99.37472077 -148.18546761 86.20481991 -136.38818359 73.50585938 C-134.96096439 71.95765535 -133.55097684 70.39521132 -132.14453125 68.828125 C-127.69486638 63.88252461 -123.24240722 59.09705877 -118.12890625 54.8203125 C-115.49950228 52.57205149 -113.0146304 50.18836883 -110.5 47.8125 C-100.72590095 38.76899963 -90.00861733 31.050667 -78.6875 24.0625 C-77.63151611 23.40797852 -77.63151611 23.40797852 -76.55419922 22.74023438 C-67.23296355 17.12716831 -57.45077857 13.22341376 -47.0625 10.0625 C-45.95946533 9.72476562 -44.85643066 9.38703125 -43.7199707 9.0390625 C-13.3517053 0 -13.3517053 0 0 0 Z " fill="#0B3B58" transform="translate(1231,1534)"/>
<path d="M0 0 C0.90129639 0.00572021 1.80259277 0.01144043 2.73120117 0.01733398 C57.55968258 1.41378875 118.8917136 32.57606548 161.4375 65.5 C162.31148437 66.17289062 163.18546875 66.84578125 164.0859375 67.5390625 C174.73527772 75.91378637 185.07741764 84.69419943 194.4375 94.5 C197.69717835 93.07298525 199.79499802 91.30551266 202.3125 88.8125 C215.84210745 76.59364269 232.52393682 73.47760123 250.16015625 74.33154297 C281.59178294 76.65656681 309.74422333 98.50986268 329.75 121.375 C339.47383192 132.85593691 346.47305472 145.75412611 352.4375 159.5 C353.97470703 159.01660156 353.97470703 159.01660156 355.54296875 158.5234375 C364.83289206 155.88518333 374.01514271 156.84515659 382.4375 161.5 C385.33705853 163.27410847 387.88003371 165.26343252 390.4375 167.5 C391.21867187 168.17546875 391.99984375 168.8509375 392.8046875 169.546875 C412.24057077 187.59015604 426.209367 220.41109962 427.61328125 246.8046875 C427.62310793 249.37927882 427.57912379 251.9297904 427.4375 254.5 C428.11554687 254.58636719 428.79359375 254.67273438 429.4921875 254.76171875 C441.81055599 256.62141704 449.68505089 261.77799419 458.4375 270.5 C459.00339844 271.04269531 459.56929687 271.58539063 460.15234375 272.14453125 C469.42882644 281.86392293 474.39171806 296.4292785 474.8125 309.625 C474.48687369 320.03147405 471.03008318 329.05340795 463.4921875 336.39453125 C461.85000235 337.81399088 460.14904733 339.16499309 458.4375 340.5 C459.17355469 341.05300781 459.90960937 341.60601562 460.66796875 342.17578125 C474.40232753 353.70179461 483.10118224 374.32026539 484.65625 391.98486328 C485.28993042 402.58118813 485.63020496 412.79061389 478.859375 421.5390625 C475.17604784 425.5708125 471.63398242 427.86407035 466.4375 429.5 C464.77133314 429.54081389 463.10346578 429.54833007 461.4375 429.5 C461.61289307 430.10956543 461.78828613 430.71913086 461.96899414 431.34716797 C478.89316832 490.74350843 484.05093011 550.86092497 483.82341385 612.44352722 C483.81233723 615.79931252 483.80715383 619.15506324 483.80343628 622.51086426 C483.76060027 654.44402165 483.20125958 686.33935578 482 718.25 C481.94954151 719.59053185 481.94954151 719.59053185 481.89806366 720.95814514 C481.67445495 726.84239943 481.4383827 732.72605672 481.19140625 738.609375 C481.145524 739.71355522 481.145524 739.71355522 481.09871483 740.84004211 C480.7372488 749.41211378 480.23241218 757.9559086 479.4375 766.5 C478.56295166 766.3462793 477.68840332 766.19255859 476.78735352 766.03417969 C458.04148675 762.80381374 441.19066034 764.79142493 425.1328125 775.51953125 C420.5823516 778.86313078 416.46140515 782.54372351 412.4375 786.5 C411.78394531 787.14066406 411.13039063 787.78132812 410.45703125 788.44140625 C386.20463553 813.9939304 373.74662255 850.34262455 364.4375 883.5 C357.07178929 882.31034913 349.74268993 881.01922091 342.4375 879.5 C343.76466959 875.96312673 345.36040144 872.63713223 347.1027832 869.28710938 C360.33321119 843.72997979 368.35829381 814.67084815 359.83203125 786.109375 C355.89060342 775.90803239 350.55158099 766.83118882 343.4375 758.5 C343.01597656 757.93539062 342.59445312 757.37078125 342.16015625 756.7890625 C336.47102008 749.42258224 328.12194513 743.62296342 320.4375 738.5 C320.69144531 737.4790625 320.94539063 736.458125 321.20703125 735.40625 C324.30571768 722.52757084 326.1762987 709.6797191 327.4375 696.5 C327.5053772 695.81166077 327.57325439 695.12332153 327.64318848 694.41412354 C330.32496828 666.98459723 330.73232329 639.56661739 330.74802017 612.03010178 C330.7499638 609.42355235 330.75506737 606.81702374 330.7605896 604.21047974 C330.78900939 586.10304699 330.52978898 568.04614946 329.5078125 549.96484375 C329.46669657 549.23612438 329.42558064 548.50740501 329.38321877 547.75660324 C328.27418672 528.5766072 326.87425102 509.23294875 322.4375 490.5 C322.22480469 489.43007813 322.01210937 488.36015625 321.79296875 487.2578125 C320.28416021 480.18141221 317.90185901 475.16779491 313.4375 469.5 C312.74140625 468.6028125 312.0453125 467.705625 311.328125 466.78125 C309.08686299 463.96807976 306.78783986 461.22251071 304.4375 458.5 C303.82261719 457.78714844 303.20773437 457.07429688 302.57421875 456.33984375 C300.62821967 454.2438319 298.59992498 452.37238836 296.4375 450.5 C295.52355469 449.67757813 294.60960937 448.85515625 293.66796875 448.0078125 C283.83148931 440.0076813 273.90645167 440.48889689 261.7109375 441.29541016 C258.41054648 441.50168459 255.1178776 441.6073487 251.8125 441.69921875 C238.3848486 442.21349869 227.38325894 444.43491829 215.25390625 450.17089844 C210.2074118 452.55240986 205.10354307 454.80873815 200.01147461 457.09072876 C198.12037092 457.93957783 196.23096602 458.79211903 194.34179688 459.64526367 C149.16584165 480.00604587 101.74890554 494.02008011 52.4375 499.5 C51.31875488 499.63535156 50.20000977 499.77070312 49.04736328 499.91015625 C-24.50565956 508.60376523 -106.78641057 503.75797109 -178.30859375 483.66015625 C-185.54547789 481.64391902 -192.86775752 479.93150429 -200.16625977 478.15478516 C-205.90355807 476.7402979 -211.5585065 475.32138276 -217.08935547 473.22631836 C-224.385842 470.84250028 -230.36442255 470.29493647 -237.98046875 470.75390625 C-239.00897446 470.8064003 -240.03748016 470.85889435 -241.09715271 470.91297913 C-244.58645288 471.0954135 -248.07434034 471.29697619 -251.5625 471.5 C-254.17039046 471.64472389 -256.77830137 471.78907948 -259.38623047 471.93310547 C-267.23391164 472.37112758 -275.07986035 472.8369882 -282.92572021 473.30633545 C-285.11359487 473.4368198 -287.30153292 473.56617683 -289.48950195 473.69506836 C-290.20740874 473.73737422 -290.92531553 473.77968008 -291.66497707 473.82326794 C-293.11382315 473.90855118 -294.56267889 473.99367038 -296.01154423 474.07862568 C-299.60200885 474.28996423 -303.19196869 474.5069455 -306.78135681 474.73588562 C-313.2535435 475.14563167 -319.7191681 475.52474657 -326.20110607 475.74176884 C-329.06100493 475.84048969 -331.91952292 475.9648246 -334.77828789 476.09184456 C-336.76389798 476.16966402 -338.75083575 476.21091094 -340.73756409 476.25108337 C-347.11107631 476.43252319 -347.11107631 476.43252319 -352.74505615 479.04826355 C-355.55124896 482.15830796 -357.56899324 485.50344852 -358.8125 489.51953125 C-359.95995226 492.88096106 -361.23412946 495.98483552 -362.875 499.13671875 C-383.65561563 539.17472065 -396.55340278 583.93603599 -405.4375 627.9375 C-405.65592056 629.01238174 -405.65592056 629.01238174 -405.87875366 630.10897827 C-409.12515152 646.21186396 -410.91920015 661.8600025 -410.87817383 678.2902832 C-410.87500711 680.93157052 -410.89860902 683.57173991 -410.92382812 686.21289062 C-410.97789504 700.19708538 -410.35859282 714.59275046 -403.9375 727.3125 C-399.67901621 736.225401 -399.67901621 736.225401 -399.5625 738.5 C-400.79296875 740.078125 -400.79296875 740.078125 -402.75 741.75 C-416.20379451 754.40128747 -426.17218475 770.94692214 -431.5625 788.5 C-431.88347656 789.49128906 -432.20445312 790.48257813 -432.53515625 791.50390625 C-439.83570343 817.54818387 -432.15556278 845.3607437 -419.4921875 868.34765625 C-418.3456549 870.32170714 -417.17718558 872.28344945 -415.97265625 874.22265625 C-414.7026738 876.27362513 -413.62425554 878.33697513 -412.5625 880.5 C-415.68553802 881.01277829 -418.81116322 881.50776825 -421.9375 882 C-422.80761719 882.14308594 -423.67773438 882.28617188 -424.57421875 882.43359375 C-430.61814276 883.37375971 -436.44950101 883.67771303 -442.5625 883.5 C-442.70236328 882.91847168 -442.84222656 882.33694336 -442.98632812 881.73779297 C-451.77788117 845.61751353 -466.78549123 797.18418999 -498.5625 774.5 C-511.79863173 766.9577898 -523.98343657 762.89750112 -539.3125 766.625 C-544.35549243 768.19006662 -548.81136197 770.61805204 -553.34765625 773.29296875 C-555.5625 774.5 -555.5625 774.5 -557.5625 774.5 C-559.6105527 764.88431992 -561.05342865 755.26423363 -562.1875 745.5 C-562.31036377 744.4579541 -562.43322754 743.4159082 -562.55981445 742.34228516 C-564.56794781 724.4586882 -564.80409074 706.66778496 -564.8125 688.6875 C-564.81317474 687.38587921 -564.81384949 686.08425842 -564.81454468 684.74319458 C-564.79529236 661.21272324 -563.89259874 637.91387002 -561.5625 614.5 C-561.47764343 613.64480774 -561.39278687 612.78961548 -561.30535889 611.9085083 C-555.8495841 557.63577303 -546.66967052 502.91613961 -531.9573822 450.33743286 C-530.59821866 446.2029544 -530.59821866 446.2029544 -531.80078125 442.2421875 C-532.48527344 441.62601563 -533.16976562 441.00984375 -533.875 440.375 C-544.43788721 429.73901323 -552.87966259 415.2844648 -553.6328125 400.06640625 C-553.41222957 392.01512913 -551.25292665 386.23260295 -545.51171875 380.42578125 C-541.32789811 376.5091626 -538.15616662 374.07976752 -532.5625 372.5 C-533.04460938 371.46101563 -533.52671875 370.42203125 -534.0234375 369.3515625 C-543.27915523 349.08838684 -544.22241693 329.66786164 -536.5 308.6015625 C-532.76855565 300.17989991 -526.12410229 292.89503327 -517.58984375 289.2109375 C-510.47857898 286.71719918 -504.99993551 286.50091153 -497.5625 287.5 C-497.56773682 286.88294189 -497.57297363 286.26588379 -497.57836914 285.63012695 C-498.1356237 209.30036039 -498.1356237 209.30036039 -475.78125 185.52734375 C-462.33053004 173.2369852 -444.48573244 168.84056934 -426.734375 167.7109375 C-424.38294143 167.56405825 -424.38294143 167.56405825 -421.5625 166.5 C-420.51500529 164.13520134 -419.70410562 161.89712862 -418.9375 159.4375 C-418.68589111 158.6638208 -418.43428223 157.8901416 -418.17504883 157.09301758 C-416.47297279 151.74037631 -414.95484489 146.3430311 -413.48828125 140.921875 C-397.93040969 83.51465602 -397.93040969 83.51465602 -373.578125 69.09375 C-349.81599692 56.53552687 -327.46535928 56.01738436 -301.578125 60.5234375 C-275.7298952 65.26918931 -275.7298952 65.26918931 -250.5625 59.5 C-243.28850006 54.04450004 -239.39971266 44.4401214 -235.30859375 36.55078125 C-230.29657591 27.79376573 -222.1537194 21.64195118 -212.5625 18.5 C-204.0375307 16.65177268 -195.70322766 16.14700602 -187 16.1875 C-185.74711182 16.19168945 -184.49422363 16.19587891 -183.20336914 16.20019531 C-153.07373857 16.55561795 -123.91203753 21.44208709 -96.61328125 34.37768555 C-86.6648777 39.0359854 -78.49179415 40.80933133 -67.9375 37 C-56.22084274 31.90894091 -46.4152132 24.79756498 -36.70678711 16.60864258 C-25.45019972 7.13438052 -15.17674887 -0.11587544 0 0 Z " fill="#432A19" transform="translate(1391.5625,105.5)"/>
<path d="M0 0 C1.71875 2.16796875 1.71875 2.16796875 3.5 5.1875 C23.81215111 37.2036787 61.11360125 57.85544728 97.2644043 66.45849609 C126.58401844 72.84189128 159.48695169 73.94202996 189 68 C189.86544434 67.82839355 190.73088867 67.65678711 191.62255859 67.47998047 C236.11927126 58.37560646 275.75632211 35.81811878 304 0 C307.96 0.99 307.96 0.99 312 2 C312.56881929 15.87574332 310.84169839 29.48727732 309.25 43.25 C308.97412576 45.68504069 308.69841026 48.12009937 308.42285156 50.55517578 C306.70305814 65.61077128 304.76852261 80.59922442 302.37744141 95.56347656 C301.54049573 100.96626949 300.91755567 106.39610135 300.26513672 111.82373047 C299.69673881 116.48919909 299.0988957 121.15086558 298.5 125.8125 C298.38132568 126.75577148 298.26265137 127.69904297 298.14038086 128.67089844 C297.56005499 133.17305941 296.90618359 137.63697573 296.0625 142.09765625 C295.17194861 146.85474134 294.45266983 151.62230252 293.78125 156.4140625 C293.67663452 157.16058578 293.57201904 157.90710907 293.4642334 158.67625427 C293.03219083 161.77431209 292.603453 164.87281376 292.17724609 167.97167969 C291.86088438 170.26542215 291.54003154 172.55850471 291.21875 174.8515625 C291.12597778 175.53618561 291.03320557 176.22080872 290.93762207 176.92617798 C290.44634359 180.41799112 289.83499627 183.83594072 289.03881836 187.27172852 C287.78724591 192.73830462 286.98167656 198.25589603 286.16015625 203.80078125 C285.80968454 206.12074585 285.45825143 208.44056538 285.10595703 210.76025391 C284.92478333 211.95346252 284.74360962 213.14667114 284.5569458 214.3760376 C283.1076929 223.80610784 281.55812187 233.22044136 280.01782227 242.63598633 C279.43159007 246.22366816 278.84954911 249.81201541 278.26757812 253.40039062 C276.6043014 263.60859145 274.91175432 273.78637341 272.8112793 283.91430664 C271.67972469 289.48845438 270.71771869 295.09420436 269.73046875 300.6953125 C269.5272551 301.84764374 269.32404144 302.99997498 269.1146698 304.18722534 C268.69091318 306.59211802 268.26735911 308.9970464 267.84399414 311.40200806 C261.7706816 345.84388996 261.7706816 345.84388996 258.33105469 361.94360352 C255.73227839 374.12333427 253.33464251 386.34170071 250.9375 398.5625 C250.71743286 399.68323914 250.49736572 400.80397827 250.27062988 401.9586792 C247.61311191 415.5103504 245.04709154 429.06785952 242.68896484 442.67480469 C241.12081502 451.60674205 239.23252496 460.4557052 237.29760742 469.31445312 C233.70192105 485.83696991 230.5937603 502.4577012 227.48828125 519.078125 C226.95126814 521.94805709 226.41342532 524.81783252 225.875 527.6875 C225.73832916 528.41640442 225.60165833 529.14530884 225.46084595 529.89630127 C221.8685633 549.00985864 218.01316237 568.07202755 214.17529297 587.13745117 C211.97582959 598.07018049 209.78236313 609.0002145 207.75634766 619.96655273 C206.80810598 625.0656081 205.80239094 630.15339686 204.80078125 635.2421875 C204.60287491 636.24768143 204.40496857 637.25317535 204.20106506 638.28913879 C203.78683999 640.39239159 203.37247393 642.49561662 202.95797729 644.59881592 C198.87086985 665.33667852 198.87086985 665.33667852 194.8828125 686.09375 C194.74516253 686.81758761 194.60751257 687.54142521 194.46569139 688.28719729 C193.64652439 692.60296848 192.83559191 696.91977539 192.05064297 701.24190998 C190.52806164 709.53339109 188.87801989 717.71650845 186.68531799 725.85795593 C177.12146584 762.6671367 178.73103892 800.54644485 178.87461295 838.27025696 C178.91166824 848.47843661 178.89633943 858.6863664 178.87881822 868.89457413 C178.84891685 887.08841676 178.85838608 905.28200565 178.89379883 923.47583008 C178.92804347 941.1142159 178.94300914 958.75245062 178.93286133 976.39086914 C178.93223884 977.48423495 178.93161636 978.57760075 178.93097501 979.70409886 C178.92773491 985.1910269 178.92412438 990.67795462 178.92032993 996.1648823 C178.88949424 1041.44334871 178.92304936 1086.72159682 179 1132 C173.33784545 1132.01098454 167.67569737 1132.01883367 162.01353455 1132.02403259 C160.09562573 1132.02620468 158.17771761 1132.02916831 156.2598114 1132.03300476 C117.86912872 1132.10775958 117.86912872 1132.10775958 100.28575134 1130.48716736 C99.29574599 1130.39620757 98.30574064 1130.30524778 97.28573513 1130.21153164 C96.53144254 1130.1417262 95.77714994 1130.07192076 95 1130 C95.00054207 1129.23634963 95.00108415 1128.47269925 95.00164264 1127.68590796 C95.03297982 1082.28233305 95.02754135 1036.87888748 94.97527504 991.47532801 C94.96901077 986.00633874 94.96304938 980.53734918 94.95727539 975.06835938 C94.95554373 973.43540378 94.95554373 973.43540378 94.95377708 971.76945917 C94.93587943 954.21314504 94.94243865 936.65692277 94.95826416 919.10061033 C94.97398671 901.04504727 94.96289845 882.98963945 94.92765242 864.93410337 C94.90678033 853.82031224 94.90606274 842.70691442 94.93231983 831.59313308 C94.94838329 823.94021946 94.93807339 816.28760455 94.90833985 808.63473345 C94.89200108 804.23948478 94.886019 799.8449828 94.91181374 795.44976234 C95.03028319 773.68470991 92.90206572 753.68596161 87.81889737 732.50872493 C86.66070602 727.54622901 85.71590431 722.55318597 84.8125 717.5390625 C84.50706684 715.87645232 84.20157522 714.21385289 83.89599609 712.55126953 C83.74990906 711.74772034 83.60382202 710.94417114 83.45330811 710.11627197 C82.63662183 705.62796124 81.80583167 701.14224991 80.9765625 696.65625 C80.81080719 695.75842804 80.64505188 694.86060608 80.47427368 693.93557739 C78.81965781 684.98995774 77.11202295 676.0549585 75.375 667.125 C75.23078613 666.38347687 75.08657227 665.64195374 74.93798828 664.87796021 C72.80055174 653.91052444 70.55203946 642.96875035 68.26025391 632.0324707 C66.14966732 621.88712318 64.22576389 611.7115634 62.32278442 601.52581787 C59.64696271 587.22201971 56.80923879 572.95313453 53.9375 558.6875 C50.14050148 539.81740676 46.49052957 520.929075 43 502 C40.82790085 490.26658555 38.50862834 478.56982019 36.08178711 466.8866272 C33.36309573 453.79793 30.77794471 440.69648049 28.3425293 427.55151367 C26.42957638 417.23701074 24.45751489 406.93476353 22.4513855 396.63796997 C22.1178704 394.92590995 21.78493019 393.2137378 21.45266724 391.50143433 C19.75946265 382.77961528 18.02363917 374.06931482 16.1915741 365.37550354 C13.29785148 351.64059281 10.65127974 337.86947089 8.125 324.0625 C7.89756104 322.82133423 7.67012207 321.58016846 7.43579102 320.3013916 C-3.69796613 259.36602326 -13.6765685 198.22796081 -22.80786133 136.96240234 C-23.63503713 131.41930495 -24.47436193 125.87822822 -25.32299805 120.33837891 C-27.56334521 105.70350509 -29.7698141 91.07280605 -31.5625 76.375 C-31.66194916 75.57087677 -31.76139832 74.76675354 -31.86386108 73.93826294 C-33.48788275 60.78641514 -34.9469296 47.61854799 -36.3125 34.4375 C-36.44339523 33.18498444 -36.44339523 33.18498444 -36.57693481 31.90716553 C-36.82265032 29.54140125 -37.06284702 27.17515198 -37.30078125 24.80859375 C-37.37238464 24.11870865 -37.44398804 23.42882355 -37.51776123 22.71803284 C-37.93590613 18.46329357 -38.0620096 14.27381283 -38 10 C-29.45421067 7.26395028 -20.88599345 4.62572115 -12.25 2.1875 C-11.10748779 1.85939331 -11.10748779 1.85939331 -9.94189453 1.5246582 C-6.46626043 0.55573844 -3.63688767 0 0 0 Z " fill="#FEFEFE" transform="translate(1210,1622)"/>
<path d="M0 0 C1.79663214 3.33631237 2.98894374 6.74215894 4.1796875 10.3359375 C4.61136742 11.62550318 5.04360302 12.91488295 5.47631836 14.20410156 C5.70350555 14.88283325 5.93069275 15.56156494 6.1647644 16.26086426 C11.82392979 33.10632214 18.1732029 49.59477725 25 66 C25.47518066 67.1432373 25.95036133 68.28647461 26.43994141 69.46435547 C41.86714239 106.38908316 58.54359899 142.87865036 78.58935547 177.54150391 C79.84413529 179.72835625 81.07304756 181.92601939 82.28515625 184.13671875 C103.05235322 221.99669432 128.89665413 257.14102172 158 289 C158.87914062 289.98355469 159.75828125 290.96710938 160.6640625 291.98046875 C171.80189516 304.35923238 183.92424556 315.68822618 197 326 C198.33676627 327.06927723 199.67263913 328.13967193 201.0078125 329.2109375 C204.66726656 332.14643105 208.33233285 335.07477559 212 338 C211.34 338.33 210.68 338.66 210 339 C207.67529297 337.97460938 207.67529297 337.97460938 204.7421875 336.34375 C203.10926758 335.43955322 203.10926758 335.43955322 201.44335938 334.51708984 C200.253479 333.84548296 199.06403667 333.17309948 197.875 332.5 C197.27308838 332.1622052 196.67117676 331.8244104 196.05102539 331.47637939 C164.6858808 313.865894 135.0309507 293.52871166 107 271 C106.071875 270.25492188 105.14375 269.50984375 104.1875 268.7421875 C93.47014119 260.04991102 83.02156422 251.06182842 72.9140625 241.66796875 C70.75025023 239.68689129 68.56686717 237.76209177 66.34350586 235.85058594 C61.91436016 231.97937061 57.74235063 227.88676981 53.58984375 223.72265625 C52.81870743 222.95247665 52.04757111 222.18229706 51.25306702 221.38877869 C49.63419847 219.77058627 48.01657449 218.15114788 46.40014648 216.53051758 C43.94431282 214.06932768 41.48318635 211.61352191 39.02148438 209.15820312 C37.43978347 207.57584133 35.85839283 205.99316933 34.27734375 204.41015625 C33.55111313 203.68594986 32.82488251 202.96174347 32.0766449 202.21559143 C27.51774283 197.63599458 23.21382244 192.89714381 19 188 C17.54554483 186.39231627 16.08779105 184.78760285 14.625 183.1875 C9.89384655 177.93862774 5.44123215 172.49437924 1 167 C-0.01082767 165.76879913 -1.02260049 164.53837382 -2.03515625 163.30859375 C-85.72495398 61.44622639 -85.72495398 61.44622639 -85.0625 7.125 C-85.05347656 6.15820312 -85.04445313 5.19140625 -85.03515625 4.1953125 C-85.02355469 3.47085937 -85.01195312 2.74640625 -85 2 C-82.15593269 3.84480042 -79.37871479 5.71181972 -76.6796875 7.765625 C-61.01067364 19.64601163 -44.11332601 28.33471933 -24 26 C-17.95975917 24.71273556 -13.30276645 22.35475852 -9.515625 17.4140625 C-5.99426795 11.80530308 -2.99308487 5.90260645 0 0 Z " fill="#432A19" transform="translate(943,1100)"/>
<path d="M0 0 C1.26094482 0.00644531 2.52188965 0.01289062 3.82104492 0.01953125 C24.79568489 0.42419524 45.15701797 6.1690038 61 20.5 C61.62132812 21.04140625 62.24265625 21.5828125 62.8828125 22.140625 C70.94836165 29.6126056 76.75984113 39.66091444 77.24609375 50.73828125 C77.27913772 52.28365943 77.3011644 53.82931015 77.3125 55.375 C77.32095947 56.50047241 77.32095947 56.50047241 77.32958984 57.64868164 C77.27884107 61.44666854 77.15290656 63.27064017 75 66.5 C74.90525391 65.11941406 74.90525391 65.11941406 74.80859375 63.7109375 C73.61306626 51.35295864 69.99007059 39.88332321 60.39453125 31.296875 C47.21056665 21.40352473 31.31631762 15.58446348 15 13.5 C15.72703125 13.86609375 16.4540625 14.2321875 17.203125 14.609375 C31.75073388 22.44270286 42.28293272 33.91565617 48.1171875 49.48046875 C49.87056388 55.4002014 50.66637802 61.34761813 51 67.5 C51.06445312 68.27730469 51.12890625 69.05460938 51.1953125 69.85546875 C51.95378528 85.35359598 44.23463965 100.6162794 34.3515625 112.0859375 C22.19550361 124.56508101 4.89197034 125.44703423 -11.62158203 125.7878418 C-27.96152739 125.92199352 -41.74946076 124.41816567 -54.1875 112.8125 C-67.38947597 98.81040428 -71.66859748 82.41812903 -71.3125 63.71484375 C-70.78046606 51.38717402 -65.52129576 40.16386072 -58 30.5 C-72.1968851 35.80795883 -85.56242686 47.29939504 -93 60.5 C-94.19953074 63.15363815 -95.12340592 65.71552469 -96 68.5 C-96.33 68.5 -96.66 68.5 -97 68.5 C-97.82616724 57.34674222 -92.53459599 48.25887193 -86 39.5 C-72.68359683 24.09704774 -56.10910726 14.4614136 -37.375 7.1875 C-36.12396484 6.69902588 -36.12396484 6.69902588 -34.84765625 6.20068359 C-23.33915761 1.8984202 -12.28390734 -0.06642194 0 0 Z " fill="#593737" transform="translate(1558,841.5)"/>
<path d="M0 0 C0.7209082 0.25201172 1.44181641 0.50402344 2.18457031 0.76367188 C17.41243442 6.17485154 31.42787572 12.66292004 44 23 C44.886875 23.721875 45.77375 24.44375 46.6875 25.1875 C56.77218959 33.79638136 66.5239157 45.50779837 67.8125 59.125 C67.89572798 60.7490703 67.96599942 62.374154 68 64 C65.6467876 61.6467876 64.75842074 59.46324984 63.375 56.4375 C56.04943118 41.6985258 42.4757515 32.13634242 28 25 C28.44730469 25.66644531 28.89460938 26.33289063 29.35546875 27.01953125 C39.78629304 42.92153416 43.93989368 57.25036817 41.60546875 76.203125 C38.60190582 90.38769315 30.62362234 105.40352647 18.50390625 113.7109375 C16.3678688 114.92451543 14.23930883 115.99361802 12 117 C11.40098877 117.32581055 10.80197754 117.65162109 10.18481445 117.98730469 C2.34095592 121.62305452 -7.09594721 121.35557067 -15.5625 121.3125 C-16.69421631 121.30831055 -17.82593262 121.30412109 -18.99194336 121.29980469 C-35.55058472 121.07922617 -51.07665224 119.60079397 -63.51171875 107.7265625 C-75.98874976 94.05471377 -81.25012319 77.83675615 -80.4140625 59.4453125 C-79.23927858 44.01560863 -71.26641988 29.42372831 -60 19 C-55.24348825 15.25008239 -50.20152033 12.08955551 -45 9 C-62.03199889 10.90338331 -82.64465542 17.60175364 -93.9140625 31.33203125 C-99.81393895 39.8855051 -102.66647075 47.92113963 -105 58 C-105.33 58 -105.66 58 -106 58 C-106.48806263 43.43042668 -105.25080664 33.83705366 -96 22 C-95.36835937 21.15824219 -94.73671875 20.31648437 -94.0859375 19.44921875 C-82.45770405 5.79584352 -62.10259921 -2.15142122 -44.49560547 -3.83007812 C-29.36902362 -4.86002344 -14.41921836 -5.14713174 0 0 Z " fill="#593737" transform="translate(1172,846)"/>
<path d="M0 0 C-0.5760979 6.83203426 -2.36184571 12.89736788 -4.5625 19.375 C-4.91892578 20.43138672 -5.27535156 21.48777344 -5.64257812 22.57617188 C-8.88321901 31.9905469 -12.68413612 41.03364264 -17 50 C-17.30873047 50.64775391 -17.61746094 51.29550781 -17.93554688 51.96289062 C-20.20063382 56.68940398 -22.57253892 61.35500941 -25 66 C-25.64146973 67.22928223 -25.64146973 67.22928223 -26.29589844 68.48339844 C-36.82672548 88.52689917 -48.91905656 107.53119975 -62 126 C-62.5141748 126.72670898 -63.02834961 127.45341797 -63.55810547 128.20214844 C-70.7668425 138.35804411 -78.19070372 148.29891167 -86 158 C-86.51030762 158.63647461 -87.02061523 159.27294922 -87.54638672 159.92871094 C-97.83426811 172.74711712 -108.3883531 185.28060099 -119.55859375 197.33984375 C-121.54587653 199.50518706 -123.47250658 201.69844755 -125.375 203.9375 C-129.12349756 208.2759548 -133.22445086 212.25334404 -137.30102539 216.27954102 C-140.09890543 219.05469715 -142.80788785 221.82680444 -145.3125 224.875 C-147.80571743 227.89619288 -150.61542744 230.32153345 -153.59765625 232.8515625 C-156.68912132 235.61628736 -159.58633477 238.55009619 -162.5 241.5 C-167.17530035 246.21697912 -171.93180941 250.70477435 -177 255 C-178.0755142 255.93731771 -179.14959309 256.87628353 -180.22265625 257.81640625 C-189.65868111 266.0705503 -199.28599108 274.07564973 -209 282 C-209.66 281.67 -210.32 281.34 -211 281 C-210.20078125 280.1028125 -209.4015625 279.205625 -208.578125 278.28125 C-200.55185459 269.19392957 -193.10097467 259.82441279 -186 250 C-185.50113281 249.31147949 -185.00226563 248.62295898 -184.48828125 247.91357422 C-134.82225826 179.11208801 -99.58237433 99.7552895 -72 12 C-71.24074219 12.49371094 -70.48148438 12.98742188 -69.69921875 13.49609375 C-68.20841797 14.45708984 -68.20841797 14.45708984 -66.6875 15.4375 C-65.70136719 16.07558594 -64.71523437 16.71367188 -63.69921875 17.37109375 C-56.81751602 21.52401711 -45.55917549 21.08221466 -37.8125 19.3125 C-36.53250808 18.90256795 -35.26232698 18.46146963 -34 18 C-33.07574219 17.70480469 -32.15148438 17.40960937 -31.19921875 17.10546875 C-21.67813932 13.81552311 -10.51000609 8.72068779 -3.41650391 1.35595703 C-2 0 -2 0 0 0 Z " fill="#432A19" transform="translate(1843,1098)"/>
<path d="M0 0 C73.26 0 146.52 0 222 0 C222 7.03777479 221.95360329 13.05365008 220.6875 19.8125 C220.56955078 20.52341797 220.45160156 21.23433594 220.33007812 21.96679688 C219.24339351 28.00207604 217.50789217 33.22879468 212.625 37.25 C211.77808594 37.96929688 211.77808594 37.96929688 210.9140625 38.703125 C206.26082412 41.85593142 201.9288581 42.29176581 196.429245 42.26742554 C195.29811782 42.27422221 195.29811782 42.27422221 194.14413959 42.28115618 C191.62166522 42.29379899 189.09940681 42.2921799 186.5769043 42.29052734 C184.76650719 42.29651269 182.95611263 42.30331826 181.14572144 42.31088257 C176.23033422 42.32854968 171.31501664 42.33323827 166.39960074 42.33451414 C163.32754337 42.33593596 160.25550368 42.34020616 157.1834507 42.34550858 C146.46286521 42.36401161 135.74232945 42.37217889 125.02172852 42.37060547 C115.03389444 42.36940418 105.04627651 42.39050337 95.05849713 42.4220928 C86.47913876 42.44825916 77.89985095 42.4589726 69.32045299 42.45769465 C64.19831133 42.4571851 59.07636173 42.46286452 53.95425987 42.48405075 C49.13527318 42.50343899 44.31666164 42.50355355 39.49766159 42.48901749 C37.73203673 42.48692898 35.96638835 42.49163278 34.20080376 42.5037384 C16.17863796 42.61927289 16.17863796 42.61927289 8.7578125 36 C8.21898437 35.34 7.68015625 34.68 7.125 34 C6.57070312 33.34 6.01640625 32.68 5.4453125 32 C2.64348215 28.12287259 1.61181866 24.79334364 0.875 20.0625 C0.70742187 19.04285156 0.53984375 18.02320313 0.3671875 16.97265625 C-0.15363513 11.33779866 0 5.65887589 0 0 Z " fill="#FEFDFD" transform="translate(1249,1232)"/>
<path d="M0 0 C4.29 0 8.58 0 13 0 C13.23074219 1.7840625 13.46148438 3.568125 13.69921875 5.40625 C14.0276523 7.77097154 14.35713485 10.13554754 14.6875 12.5 C14.83638672 13.67304687 14.98527344 14.84609375 15.13867188 16.0546875 C16.3165344 24.27662982 18.08505107 30.22128556 24.1328125 36.05859375 C24.79023437 36.51363281 25.44765625 36.96867187 26.125 37.4375 C26.78757812 37.91058594 27.45015625 38.38367187 28.1328125 38.87109375 C32.09588888 41.26717968 35.85818917 41.14833945 40.33024597 41.14717102 C41.45880987 41.15268605 41.45880987 41.15268605 42.61017305 41.1583125 C45.13880387 41.16935175 47.6673936 41.1731936 50.19604492 41.17700195 C52.00614554 41.18326646 53.81624486 41.18991325 55.62634277 41.19691467 C61.57770898 41.21796017 67.52907546 41.22831795 73.48046875 41.23828125 C75.52924424 41.24232871 77.5780196 41.24644563 79.62679482 41.25063133 C89.2525963 41.26968458 98.87839011 41.28391497 108.50420684 41.2922433 C119.61449628 41.30201471 130.72458644 41.3283312 141.83480567 41.36874419 C150.42260761 41.39890959 159.01035245 41.41371261 167.59820634 41.41702431 C172.72709733 41.41937445 177.85577546 41.42833016 182.9846096 41.45348549 C187.81176068 41.47677834 192.63855892 41.48099452 197.46575165 41.47072411 C199.23460629 41.47022892 201.00347836 41.47654428 202.77227974 41.49028015 C216.88631528 41.61962941 216.88631528 41.61962941 228.8125 34.5 C235.42459196 25.54382192 235.415358 10.74409752 237 0 C241.29 0 245.58 0 250 0 C251.02304467 24.55307198 241.26022665 49.6961383 225 68 C224.15824219 68.96164062 223.31648438 69.92328125 222.44921875 70.9140625 C218.51685955 75.32995624 214.71045303 79.40231829 210 83 C207.86437993 81.96171467 205.80040172 80.88142332 203.7578125 79.66796875 C169.81565979 60.58180276 117.17303425 64.0447603 80 70 C78.52829346 70.22478027 78.52829346 70.22478027 77.02685547 70.45410156 C57.65362781 73.17544308 57.65362781 73.17544308 40 81 C34.48667188 80.66036993 30.87037401 75.41719274 27.40283203 71.60546875 C9.69821285 51.34344722 -0.5879254 27.04456857 0 0 Z " fill="#720D13" transform="translate(1235,1232)"/>
<path d="M0 0 C0.86502136 0.00182281 1.73004272 0.00364563 2.62127686 0.00552368 C60.6363629 0.21005081 60.6363629 0.21005081 80.4375 14.3125 C82.23828125 16.49609375 82.23828125 16.49609375 83.4375 18.3125 C55.01533503 40.4119376 19.48301676 51.06704934 -16.4609375 46.6640625 C-43.53241951 42.81366175 -66.083497 33.0392345 -87.5625 16.3125 C-67.55439504 -1.08425302 -25.49424082 -0.11270254 0 0 Z " fill="#E6383A" transform="translate(1360.5625,1297.6875)"/>
<path d="M0 0 C1.26491776 0.00142502 2.52983551 0.00285004 3.83308411 0.00431824 C4.53104599 0.00241989 5.22900787 0.00052155 5.94812012 -0.00143433 C8.26771619 -0.00515285 10.58700187 0.00559072 12.90657043 0.01676941 C14.52687544 0.01796246 16.14718115 0.01841411 17.76748657 0.01815796 C21.17644034 0.01972552 24.58528951 0.02802552 27.99421692 0.04142761 C32.32202381 0.05824225 36.64971384 0.06224694 40.97754955 0.06148243 C44.33316119 0.06175747 47.68874824 0.06729419 51.04435158 0.07448387 C52.63682685 0.07762685 54.22930487 0.07962749 55.82178307 0.08037758 C98.63580537 0.12254572 137.83452051 10.37794984 169.61360168 40.43473816 C177.23224577 48.25855219 185.64853153 58.75082477 189.05110168 69.24723816 C188.72110168 70.23723816 188.39110168 71.22723816 188.05110168 72.24723816 C187.63715149 71.87139587 187.22320129 71.49555359 186.79670715 71.10832214 C182.51104317 67.31376112 178.11900997 64.18618214 173.17610168 61.30973816 C172.44576721 60.88225281 171.71543274 60.45476746 170.96296692 60.014328 C163.95560497 56.01718667 156.67982905 52.91293937 149.14582825 50.0587616 C147.68041917 49.49104367 146.22454426 48.89837343 144.77668762 48.28727722 C138.05198679 45.46794031 131.24664997 43.50776827 124.17610168 41.74723816 C122.96881409 41.44608093 121.76152649 41.14492371 120.51765442 40.8346405 C98.69031467 35.58636726 76.4489031 33.11529446 54.02035332 33.10913849 C50.20564886 33.10474351 46.39110202 33.07369134 42.57649231 33.04801941 C37.75718272 33.01757899 32.9381437 32.99493789 28.11872864 32.99674988 C24.18714471 32.99753591 20.25634687 32.97425338 16.32496834 32.93486786 C14.83507889 32.92441937 13.34509867 32.92287544 11.85519218 32.9305191 C9.78021499 32.94012346 7.70764784 32.91901182 5.63288879 32.89079285 C4.45520432 32.88714722 3.27751984 32.88350159 2.06414795 32.87974548 C-0.94889832 32.24723816 -0.94889832 32.24723816 -3.28213501 29.90232849 C-7.58911797 23.04146902 -7.93756066 14.90682567 -6.56608582 7.05583191 C-5.43874142 2.77013378 -4.70110047 0.39414429 0 0 Z " fill="#442A19" transform="translate(1444.9488983154297,727.7527618408203)"/>
<path d="M0 0 C4.14002885 0.00588146 8.27962281 -0.01140104 12.41957951 -0.03434467 C15.63922212 -0.04905871 18.858758 -0.04995867 22.07842827 -0.04683495 C23.60661135 -0.04734598 25.13480075 -0.05254254 26.66295052 -0.06264687 C28.78406059 -0.07499479 30.90429448 -0.06823866 33.02539062 -0.05664062 C34.22700333 -0.05727005 35.42861603 -0.05789948 36.66664124 -0.05854797 C40.15978379 0.35166909 42.05225431 1.22670425 44.85327148 3.31567383 C47.5330141 9.07118013 46.81416511 20.19276954 44.99389648 26.10864258 C43.85345975 28.37712 42.66503551 30.5039098 40.85327148 32.31567383 C38.8281125 32.42908321 36.79901505 32.47254248 34.77075195 32.48925781 C32.81007278 32.50949257 32.81007278 32.50949257 30.80978394 32.53013611 C30.10432308 32.53519606 29.39886223 32.540256 28.67202377 32.54546928 C26.44761798 32.56193667 24.22337729 32.58519602 21.99905396 32.61036682 C15.67059725 32.68084581 9.34205927 32.74013556 3.01342773 32.79248047 C-20.51060499 32.99254499 -43.78388756 33.44710899 -66.95922852 37.94067383 C-67.62584503 38.06883484 -68.29246155 38.19699585 -68.97927856 38.32904053 C-97.29408848 43.82477019 -125.4300316 52.94725342 -148.14672852 71.31567383 C-149.14672852 68.31567383 -149.14672852 68.31567383 -147.62719727 64.90942383 C-146.87822118 63.53635718 -146.11279285 62.17218213 -145.33422852 60.81567383 C-144.92914062 60.10241943 -144.52405273 59.38916504 -144.10668945 58.65429688 C-140.22660446 52.05562899 -135.59558268 46.70137902 -130.14672852 41.31567383 C-128.89762695 40.06077148 -128.89762695 40.06077148 -127.62329102 38.78051758 C-126.80602539 37.96711914 -125.98875977 37.1537207 -125.14672852 36.31567383 C-124.43774414 35.60926758 -123.72875977 34.90286133 -122.99829102 34.17504883 C-89.83281758 2.75512663 -43.10169309 -0.0665915 0 0 Z " fill="#442A19" transform="translate(1200.146728515625,727.684326171875)"/>
<path d="M0 0 C8.7146845 6.23099942 14.02255467 15.03632245 16.46875 25.42578125 C17.85932866 37.0612353 14.9358007 46.89012441 8.15234375 56.36328125 C1.83342851 64.10431894 -6.03664635 68.77029405 -15.71875 71.23828125 C-28.51122395 72.09111285 -38.45767514 69.66192183 -48.796875 61.67578125 C-55.35050199 55.67245882 -60.30916161 47.3136968 -61.53125 38.42578125 C-61.59658435 36.48927106 -61.61709303 34.55075264 -61.59375 32.61328125 C-61.58472656 31.63746094 -61.57570313 30.66164063 -61.56640625 29.65625 C-61.55480469 28.92019531 -61.54320312 28.18414063 -61.53125 27.42578125 C-60.98597656 27.64234375 -60.44070313 27.85890625 -59.87890625 28.08203125 C-53.66391889 30.37679581 -47.67098137 32.11635217 -41.29296875 29.51171875 C-36.77865226 26.95333098 -34.0448901 24.53431659 -32.53125 19.42578125 C-31.89541313 14.03324072 -31.82521779 9.83784567 -34.28125 4.92578125 C-36.2516637 2.7364327 -38.05996551 1.01446414 -40.53125 -0.57421875 C-39.53125 -3.57421875 -39.53125 -3.57421875 -37.7734375 -4.5234375 C-24.21167915 -8.75309481 -12.02835669 -7.48059837 0 0 Z " fill="#432927" transform="translate(1567.53125,889.57421875)"/>
<path d="M0 0 C-0.39832031 0.43570313 -0.79664063 0.87140625 -1.20703125 1.3203125 C-5.36185213 5.9906951 -8.60951224 9.98766586 -9.4375 16.375 C-8.73478983 22.19745568 -6.69050486 26.3919588 -2.4375 30.4375 C2.4476581 33.5690116 7.36095844 33.54134799 13 33 C15.87146994 31.63002843 15.87146994 31.63002843 18 30 C18.99 30 19.98 30 21 30 C21.48950115 41.74802756 18.53673338 52.45837907 10.8046875 61.59375 C2.90255037 69.21639032 -6.75929234 73.63796462 -17.75 74.1875 C-27.94539873 73.99657493 -38.69659669 70.30340331 -46 63 C-54.2488589 52.94317203 -58.0665619 42.96726054 -57.4375 29.93359375 C-56.23709674 19.14068231 -51.01101602 11.14633492 -43 4 C-30.39377597 -5.40588233 -14.15465882 -7.46033782 0 0 Z " fill="#432927" transform="translate(1174,887)"/>
<path d="M0 0 C18.99941116 1.33329201 39.7887112 8.51042312 53.14453125 22.5546875 C61.37732202 33.40463913 64.02573197 44.56435585 63 58 C59.32189002 74.18368393 47.46302436 87.86113191 34 97 C31.39259929 98.59459171 28.74465918 100.09757401 26.0625 101.5625 C25.4113623 101.92166504 24.76022461 102.28083008 24.08935547 102.65087891 C22.43430932 103.51801399 20.71930977 104.26851184 19 105 C17.515 104.505 17.515 104.505 16 104 C17.34384766 102.948125 17.34384766 102.948125 18.71484375 101.875 C27.57483281 94.46870448 32.57692257 83.78700872 36 73 C36.24492188 72.26007813 36.48984375 71.52015625 36.7421875 70.7578125 C40.74917886 57.09012966 37.53169028 40.30106127 31 28 C23.95872322 16.09479887 15.05723954 8.53553074 3 2 C2.01 1.34 1.02 0.68 0 0 Z " fill="#FCFCFB" transform="translate(1570,854)"/>
<path d="M0 0 C-0.82242187 0.40089844 -1.64484375 0.80179688 -2.4921875 1.21484375 C-18.60506858 9.42013308 -28.64048276 20.92219529 -35 38 C-39.6358471 53.76840951 -37.77654004 70.55908574 -30.390625 85.1875 C-26.63806428 91.38438926 -21.98080064 96.76045647 -17 102 C-20 103 -20 103 -22.8203125 101.8125 C-29.67823173 98.0511826 -36.11077084 94.19265367 -42 89 C-42.82242187 88.28328125 -43.64484375 87.5665625 -44.4921875 86.828125 C-51.4332064 80.37234451 -55.84906925 73.41109652 -60 65 C-60.59167969 63.81083984 -60.59167969 63.81083984 -61.1953125 62.59765625 C-64.80742965 53.86023774 -62.94618429 43.04671593 -60.015625 34.3125 C-58.19698114 30.17158783 -55.69101408 26.614472 -53 23 C-52.13375 21.700625 -52.13375 21.700625 -51.25 20.375 C-41.13087768 9.69370422 -15.14873445 -5.04957815 0 0 Z " fill="#FCFCFB" transform="translate(1130,855)"/>
<path d="M0 0 C1 2 1 2 -0.14453125 5.52734375 C-0.69662483 6.99886345 -1.25287146 8.46882936 -1.8125 9.9375 C-5.27815251 19.46158976 -7.12811854 28.23530927 -7.4375 38.375 C-7.47214355 39.05377197 -7.50678711 39.73254395 -7.54248047 40.43188477 C-7.57354148 44.22274011 -7.11133028 45.85837707 -4.74609375 48.8671875 C-2.28198644 50.78098919 -0.57702488 51.87611538 2.375 52.75 C3.43847656 53.08257813 3.43847656 53.08257813 4.5234375 53.421875 C11.44384143 55.03736361 18.18482978 55.1526343 25.25 55.125 C26.70986328 55.13080078 26.70986328 55.13080078 28.19921875 55.13671875 C37.4038359 55.12449482 46.29516509 54.92172878 55.0625 51.875 C57.02462742 51.19840434 59.00127059 50.559291 61 50 C61.66 50.33 62.32 50.66 63 51 C54.88273769 61.25705639 44.25178587 69.30638611 31 71 C11.77094504 72.01442616 -6.5558572 70.51938732 -23.8125 61.125 C-26 59 -26 59 -26.34765625 55.87890625 C-25.93386924 51.26215903 -24.59368985 47.95896049 -22.625 43.8125 C-22.26921875 43.0400293 -21.9134375 42.26755859 -21.546875 41.47167969 C-20.3843352 38.97121694 -19.19694641 36.4841653 -18 34 C-17.59362305 33.15550293 -17.18724609 32.31100586 -16.76855469 31.44091797 C-11.57565543 20.72318119 -6.0730495 10.24615056 0 0 Z " fill="#AB6936" transform="translate(1327,1046)"/>
<path d="M0 0 C0.495 0.99 0.495 0.99 1 2 C0.34 2 -0.32 2 -1 2 C-1.2475 2.50015625 -1.495 3.0003125 -1.75 3.515625 C-2.77642867 5.55565199 -3.82152553 7.58330304 -4.875 9.609375 C-5.58355444 10.98946984 -6.29188125 12.36968156 -7 13.75 C-7.35578125 14.42804687 -7.7115625 15.10609375 -8.078125 15.8046875 C-14.83651883 29.06929628 -15.360081 45.5405281 -10.875 59.6875 C-6.43205388 72.52550161 1.47574397 81.56193633 11 91 C-9.28282645 85.15579577 -26.49696168 72.21789895 -37 54 C-37.37640625 53.36964844 -37.7528125 52.73929688 -38.140625 52.08984375 C-40.75004806 47.07263488 -40.27568736 42.31802167 -39 37 C-33.15428244 20.21965898 -16.79718965 8.58678879 -1.609375 0.76953125 C-1.07828125 0.51558594 -0.5471875 0.26164063 0 0 Z " fill="#FCFBFB" transform="translate(1501,870)"/>
<path d="M0 0 C8.28624317 3.75870824 15.13399201 8.04870689 22 14 C22.78375 14.62777344 23.5675 15.25554688 24.375 15.90234375 C31.84650318 22.07390634 38.47721162 30.46691413 40.44140625 40.18359375 C40.99242171 50.43959119 35.34878387 59.61408888 28.9375 67.25 C19.19489312 77.28883479 4.00718294 88.40476052 -10 91 C-9.34 90.360625 -8.68 89.72125 -8 89.0625 C-6.99944245 88.04221314 -5.999521 87.02130233 -5 86 C-4.09314453 85.12214844 -4.09314453 85.12214844 -3.16796875 84.2265625 C8.87586216 71.82640523 14.49953696 55.28853219 14.35644531 38.22485352 C14.16777827 32.15948153 13.1476478 26.69633621 11 21 C10.70996094 20.22398437 10.41992188 19.44796875 10.12109375 18.6484375 C8.07386282 13.66313038 5.37894455 9.33785078 2.26953125 4.9453125 C1 3 1 3 0 0 Z " fill="#FDFCFB" transform="translate(1199,870)"/>
<path d="M0 0 C4.51837813 4.17949977 7.04730658 7.29762889 7.73828125 13.42578125 C7.92691064 19.01516777 7.25963585 23.03246258 3.5 27.3125 C-0.46237909 30.91881277 -4.19078645 32.62971628 -9.5625 32.875 C-15.73192601 32.53383358 -19.52916099 30.38987085 -23.8125 25.875 C-27.04321913 20.96909317 -28.10196955 17.23186727 -27.5 11.3125 C-25.67322864 6.03954914 -23.27479176 2.37326395 -18.5 -0.6875 C-12.4658316 -2.69888947 -5.73494967 -2.76506502 0 0 Z " fill="#FCFBFB" transform="translate(1191.5,888.6875)"/>
<path d="M0 0 C5.01791684 2.41935276 8.49958655 5.9991731 11 11 C11.77568257 17.58222065 11.53445504 22.89487506 7.54296875 28.33984375 C3.78593683 32.38221987 0.09140817 34.19548182 -5.4375 34.5 C-11.60194724 34.1949335 -16.21501892 31.87651857 -20.4375 27.4375 C-23.72950004 22.30197994 -23.61069794 16.92037721 -23 11 C-17.99792118 0.81058019 -10.52954659 -0.99231329 0 0 Z " fill="#FDFDFD" transform="translate(1525,887)"/>
<path d="M0 0 C3.0625 0.3125 3.0625 0.3125 5 1.4375 C6.0625 3.3125 6.0625 3.3125 5.875 6.375 C5.0625 9.3125 5.0625 9.3125 3.0625 11.3125 C0.125 11.6875 0.125 11.6875 -2.9375 11.3125 C-4.875 9.625 -4.875 9.625 -5.9375 7.3125 C-5.61764525 2.8345335 -4.76027546 0.50641228 0 0 Z " fill="#F7F5F5" transform="translate(1169.9375,871.6875)"/>
<path d="M0 0 C3.5 0.25 3.5 0.25 5.5 2.25 C5.833728 5.38704316 6.02849028 7.41554166 4.3125 10.125 C1.84492892 11.65659584 0.35480169 11.67822025 -2.5 11.25 C-4.3125 10.125 -4.3125 10.125 -5.5 8.25 C-5.8125 5.1875 -5.8125 5.1875 -5.5 2.25 C-3.5 0.25 -3.5 0.25 0 0 Z " fill="#FAF9F8" transform="translate(1530.5,871.75)"/>
</svg>
