<?xml version="1.0" encoding="UTF-8"?>
<svg version="1.1" xmlns="http://www.w3.org/2000/svg" width="565" height="565">
<path d="M0 0 C4.51811242 4.09531658 7.16013452 9.20235155 9.12890625 14.9296875 C9.81339844 14.60742188 10.49789063 14.28515625 11.203125 13.953125 C17.63568966 11.7030156 26.18565857 11.61630034 32.50390625 14.3671875 C40.09069726 19.01715619 44.67029176 25.50275175 46.75390625 34.05859375 C46.87765625 34.67605469 47.00140625 35.29351562 47.12890625 35.9296875 C47.72058594 35.72472656 48.31226563 35.51976562 48.921875 35.30859375 C49.71207031 35.03917969 50.50226563 34.76976562 51.31640625 34.4921875 C52.09371094 34.22535156 52.87101562 33.95851562 53.671875 33.68359375 C64.84922194 30.25397855 76.62928799 30.77825639 87.12890625 35.9296875 C96.34539592 40.89241271 101.49690477 48.98068975 104.7109375 58.6875 C106.55538164 68.58199473 106.01568927 79.05057729 101.12890625 87.9296875 C101.8765625 88.29320312 102.62421875 88.65671875 103.39453125 89.03125 C113.69604685 94.28987707 113.69604685 94.28987707 116.12890625 99.9296875 C117.10970077 104.49875466 117.46726759 108.41399504 116.12890625 112.9296875 C117.68738281 113.31447266 117.68738281 113.31447266 119.27734375 113.70703125 C130.16270758 116.61127558 137.89725654 120.74074389 144.62890625 130.1796875 C149.949753 139.93457321 150.08479567 150.32645114 147.12890625 160.9296875 C144.14941531 168.65359077 140.39441535 174.53618224 134.12890625 179.9296875 C133.46890625 180.5896875 132.80890625 181.2496875 132.12890625 181.9296875 C132.515625 182.33058594 132.90234375 182.73148438 133.30078125 183.14453125 C138.24979966 188.54680135 142.22685276 194.46295799 142.56640625 201.9921875 C141.6441859 210.29217065 139.31355838 214.40045479 132.7734375 219.6796875 C132.23074219 220.0921875 131.68804687 220.5046875 131.12890625 220.9296875 C131.34546875 221.4865625 131.56203125 222.0434375 131.78515625 222.6171875 C135.03890156 231.53485982 134.91211531 238.17286307 131.12890625 246.9296875 C126.96860094 254.50738646 121.12488383 258.99238961 113.12890625 261.9296875 C113.23589844 262.82429688 113.34289062 263.71890625 113.453125 264.640625 C114.38429798 274.03245575 113.86119985 280.76868848 109.44140625 289.1171875 C103.65259067 296.15763889 97.78331416 300.07444227 89.12890625 302.9296875 C89.22171875 304.8478125 89.22171875 304.8478125 89.31640625 306.8046875 C89.27304172 316.02687695 86.06161303 323.90482333 80.12890625 330.9296875 C73.07133819 337.87891569 64.27038307 341.15653326 54.44140625 341.1796875 C52.66973416 341.11665469 50.89821077 341.04084799 49.12890625 340.9296875 C48.87496094 341.80753906 48.62101562 342.68539063 48.359375 343.58984375 C43.6358269 356.41090288 32.54841683 365.31336939 21.12890625 371.9296875 C20.34773438 372.3834375 19.5665625 372.8371875 18.76171875 373.3046875 C5.74667386 380.31615949 -11.04334328 384.9296875 -25.87109375 384.9296875 C-25.87109375 395.1596875 -25.87109375 405.3896875 -25.87109375 415.9296875 C-23.57914063 416.41308594 -21.2871875 416.89648438 -18.92578125 417.39453125 C-4.91236032 420.45515524 8.93087648 424.2503523 22.79693604 427.91003418 C27.92370981 429.26237158 33.05191455 430.60927465 38.17996216 431.95677185 C40.89393792 432.66993363 43.60752153 433.38455665 46.32077026 434.10047913 C48.18428635 434.59130226 48.18428635 434.59130226 50.08544922 435.09204102 C51.26943298 435.40464874 52.45341675 435.71725647 53.67327881 436.03933716 C57.96881247 437.14609127 62.2836542 438.16395069 66.60769653 439.15318298 C75.48920799 441.88858961 82.38913194 450.61246737 87.19140625 458.1796875 C88.28423383 461.38531506 88.17876376 462.73966403 87.12890625 465.9296875 C85.29736328 467.45605469 85.29736328 467.45605469 82.88671875 468.7265625 C81.99509033 469.20585205 81.10346191 469.6851416 80.18481445 470.17895508 C79.21761475 470.67419678 78.25041504 471.16943848 77.25390625 471.6796875 C76.26028076 472.20264404 75.26665527 472.72560059 74.24291992 473.2644043 C71.21673956 474.84394165 68.17675668 476.39243643 65.12890625 477.9296875 C64.27216309 478.3642627 63.41541992 478.79883789 62.53271484 479.24658203 C-2.70075372 512.04075976 -80.89970657 516.39683587 -150.19140625 494.26953125 C-173.08412745 486.65321483 -195.66638867 476.12911162 -215.87109375 462.9296875 C-214.86054895 454.75132489 -210.33327744 448.28425829 -203.890625 443.203125 C-197.82328573 439.37729792 -190.99681222 437.88273035 -184.02441406 436.58081055 C-176.46304558 435.11886923 -169.0389807 433.25758108 -161.59832001 431.27897072 C-159.35424448 430.68227457 -157.10874368 430.09121743 -154.862854 429.50138855 C-150.11430113 428.25322276 -145.3676297 426.99799746 -140.62109375 425.7421875 C-135.07248359 424.2749487 -129.52311674 422.81066093 -123.97220612 421.35214806 C-121.76276667 420.77022538 -119.55455496 420.18380126 -117.34637451 419.59712219 C-116.0001765 419.2426826 -114.65392689 418.88843892 -113.30761719 418.53442383 C-112.13374451 418.22370438 -110.95987183 417.91298492 -109.75042725 417.59284973 C-106.87109375 416.9296875 -106.87109375 416.9296875 -103.87109375 416.9296875 C-103.87109375 406.3696875 -103.87109375 395.8096875 -103.87109375 384.9296875 C-107.50109375 384.5996875 -111.13109375 384.2696875 -114.87109375 383.9296875 C-136.62037601 379.90265896 -157.42972571 372.71857572 -171.87109375 354.9296875 C-173.03054773 352.80227307 -174.15532885 350.65562403 -175.24609375 348.4921875 C-177.45774073 344.22428339 -177.45774073 344.22428339 -181.46875 341.96875 C-183.35567029 341.73515602 -185.24863957 341.54597191 -187.14453125 341.40234375 C-191.840241 340.58833103 -194.87368013 337.49052474 -197.87109375 333.9296875 C-199.7592362 330.91110378 -200.10012589 328.71678037 -199.99609375 325.1796875 C-199.97804687 324.38046875 -199.96 323.58125 -199.94140625 322.7578125 C-199.91820312 322.15453125 -199.895 321.55125 -199.87109375 320.9296875 C-201.14984375 320.8471875 -202.42859375 320.7646875 -203.74609375 320.6796875 C-213.68851435 319.51090765 -221.18748131 315.37714136 -227.87109375 307.9296875 C-232.287711 301.85378864 -233.5813849 294.67668283 -232.4765625 287.29296875 C-232.00801767 285.14575252 -231.48749665 283.03870239 -230.87109375 280.9296875 C-231.43957031 280.71054687 -232.00804687 280.49140625 -232.59375 280.265625 C-240.84121175 276.87852051 -246.40207892 273.01138541 -250.14453125 264.76171875 C-253.09163372 257.33058404 -252.97537863 248.91572357 -250.18359375 241.4296875 C-248.35210818 237.39910635 -246.25893553 234.75288898 -242.87109375 231.9296875 C-243.29519531 231.58679688 -243.71929687 231.24390625 -244.15625 230.890625 C-252.33710053 223.59078915 -256.99756261 213.42155581 -258.109375 202.61328125 C-258.51373486 190.37607494 -254.02831517 179.93441244 -245.87109375 170.9296875 C-243.60456412 168.97048392 -241.44540624 167.4850013 -238.87109375 165.9296875 C-239.26941406 165.50558594 -239.66773438 165.08148438 -240.078125 164.64453125 C-245.91273651 158.18528979 -248.85677844 151.69065648 -248.87109375 142.9296875 C-248.04569465 133.2650144 -244.03851614 126.38036765 -236.87109375 119.9296875 C-235.20920643 118.59040184 -233.54318425 117.25621263 -231.87109375 115.9296875 C-232.02707031 115.14207031 -232.18304688 114.35445313 -232.34375 113.54296875 C-234.69162393 100.40420403 -234.5996354 89.27895349 -226.87109375 77.9296875 C-221.720804 71.92429239 -215.63067321 67.72035968 -207.87109375 65.9296875 C-204.17350084 65.64814489 -200.56883423 65.6766102 -196.87109375 65.9296875 C-196.78859375 64.8984375 -196.70609375 63.8671875 -196.62109375 62.8046875 C-195.398911 56.49007664 -192.18257704 52.45309771 -186.953125 48.8984375 C-183.11694285 47.11349721 -179.05035294 47.02218619 -174.87109375 46.9296875 C-174.77828125 45.0115625 -174.77828125 45.0115625 -174.68359375 43.0546875 C-173.6159352 33.97247209 -169.02768937 27.1722545 -162.48046875 20.9765625 C-151.60121753 12.44253909 -140.26063818 10.75587806 -126.87109375 11.9296875 C-119.87819907 13.44522651 -114.41744956 16.49260285 -108.87109375 20.9296875 C-106.01556612 19.6317204 -103.99001081 18.23094877 -101.74609375 16.0546875 C-96.6229814 11.56921574 -90.85528232 9.27784283 -84.12109375 8.4921875 C-79.25099401 9.14777785 -75.90632353 11.23953431 -71.87109375 13.9296875 C-70.75734375 12.475625 -70.75734375 12.475625 -69.62109375 10.9921875 C-52.05195712 -9.38801099 -22.43589562 -16.78190588 0 0 Z " fill="#FED8AA" transform="translate(345.87109375,57.0703125)"/>
<path d="M0 0 C4.51811242 4.09531658 7.16013452 9.20235155 9.12890625 14.9296875 C9.81339844 14.60742188 10.49789063 14.28515625 11.203125 13.953125 C17.63568966 11.7030156 26.18565857 11.61630034 32.50390625 14.3671875 C40.09069726 19.01715619 44.67029176 25.50275175 46.75390625 34.05859375 C46.87765625 34.67605469 47.00140625 35.29351562 47.12890625 35.9296875 C47.72058594 35.72472656 48.31226563 35.51976562 48.921875 35.30859375 C49.71207031 35.03917969 50.50226563 34.76976562 51.31640625 34.4921875 C52.09371094 34.22535156 52.87101562 33.95851562 53.671875 33.68359375 C64.84922194 30.25397855 76.62928799 30.77825639 87.12890625 35.9296875 C96.34539592 40.89241271 101.49690477 48.98068975 104.7109375 58.6875 C106.55538164 68.58199473 106.01568927 79.05057729 101.12890625 87.9296875 C101.8765625 88.29320312 102.62421875 88.65671875 103.39453125 89.03125 C113.69604685 94.28987707 113.69604685 94.28987707 116.12890625 99.9296875 C117.10970077 104.49875466 117.46726759 108.41399504 116.12890625 112.9296875 C117.68738281 113.31447266 117.68738281 113.31447266 119.27734375 113.70703125 C130.16270758 116.61127558 137.89725654 120.74074389 144.62890625 130.1796875 C149.949753 139.93457321 150.08479567 150.32645114 147.12890625 160.9296875 C144.14941531 168.65359077 140.39441535 174.53618224 134.12890625 179.9296875 C133.46890625 180.5896875 132.80890625 181.2496875 132.12890625 181.9296875 C132.515625 182.33058594 132.90234375 182.73148438 133.30078125 183.14453125 C138.24979966 188.54680135 142.22685276 194.46295799 142.56640625 201.9921875 C141.6441859 210.29217065 139.31355838 214.40045479 132.7734375 219.6796875 C132.23074219 220.0921875 131.68804687 220.5046875 131.12890625 220.9296875 C131.34546875 221.4865625 131.56203125 222.0434375 131.78515625 222.6171875 C135.03890156 231.53485982 134.91211531 238.17286307 131.12890625 246.9296875 C126.96860094 254.50738646 121.12488383 258.99238961 113.12890625 261.9296875 C113.23589844 262.82429688 113.34289062 263.71890625 113.453125 264.640625 C114.38429798 274.03245575 113.86119985 280.76868848 109.44140625 289.1171875 C103.65259067 296.15763889 97.78331416 300.07444227 89.12890625 302.9296875 C89.22171875 304.8478125 89.22171875 304.8478125 89.31640625 306.8046875 C89.27304172 316.02687695 86.06161303 323.90482333 80.12890625 330.9296875 C73.07133819 337.87891569 64.27038307 341.15653326 54.44140625 341.1796875 C52.66973416 341.11665469 50.89821077 341.04084799 49.12890625 340.9296875 C49.32226562 340.2284375 49.515625 339.5271875 49.71484375 338.8046875 C50.10542969 337.3815625 50.10542969 337.3815625 50.50390625 335.9296875 C50.75914062 335.0015625 51.014375 334.0734375 51.27734375 333.1171875 C51.69886719 331.539375 51.69886719 331.539375 52.12890625 329.9296875 C52.46921875 328.7128125 52.80953125 327.4959375 53.16015625 326.2421875 C54.41302852 321.19706428 54.81899084 316.09876404 55.25390625 310.9296875 C55.38345703 309.48142578 55.38345703 309.48142578 55.515625 308.00390625 C55.72571133 305.64627074 55.93001117 303.28828893 56.12890625 300.9296875 C56.96292969 300.83171875 57.79695313 300.73375 58.65625 300.6328125 C71.67102292 298.90347269 82.26628981 294.43433823 90.74609375 284.0546875 C97.43217042 273.7800386 99.68259707 262.04385806 97.6328125 250.01953125 C94.8005548 238.64249607 89.24322868 229.60937505 79.34375 223.09765625 C73.13987499 219.50600488 73.13987499 219.50600488 66.12890625 218.9296875 C65.96455078 220.07244141 65.96455078 220.07244141 65.796875 221.23828125 C63.01751961 239.33798584 63.01751961 239.33798584 56.73828125 244.88671875 C55.12890625 245.9296875 55.12890625 245.9296875 52.06640625 246.6796875 C48.77389044 245.83904516 47.33916172 244.54830172 45.20703125 241.92578125 C42.2876239 236.52064663 41.78232529 230.71417528 41.453125 224.6796875 C41.34641161 223.08458786 41.23896537 221.48953711 41.13085938 219.89453125 C40.97143343 217.42501121 40.81787175 214.9555703 40.67797852 212.48486328 C39.64554679 194.70270306 35.9799868 177.39204658 22.3203125 164.6796875 C9.30662791 154.28729767 -4.50630217 148.87789412 -20.87109375 145.9296875 C-21.87390381 145.74591553 -22.87671387 145.56214355 -23.90991211 145.37280273 C-35.56166317 143.53961732 -47.20286811 143.62704752 -58.9753418 143.66894531 C-62.53386687 143.67961337 -66.09188137 143.66902829 -69.65039062 143.65625 C-97.61795906 143.6384959 -128.18812307 144.24768346 -150.5078125 163.56640625 C-157.90500233 170.96359608 -163.80957101 179.00175045 -168.37109375 188.4296875 C-168.84216553 189.38766235 -168.84216553 189.38766235 -169.32275391 190.36499023 C-174.73356005 202.31940676 -175.32146656 214.92607876 -175.43359375 227.8046875 C-175.70891903 252.76751278 -175.70891903 252.76751278 -182.87109375 259.9296875 C-186.63018369 260.35524485 -189.10980437 260.28377558 -192.55859375 258.6796875 C-200.88105369 248.78270812 -201.31341684 231.31473396 -200.87109375 218.9296875 C-213.05294922 224.34661913 -220.39905441 230.98994722 -225.90625 243.23046875 C-229.68824184 253.69691129 -229.11152243 266.04147418 -225.125 276.3203125 C-220.57745027 285.78374933 -212.3050159 294.23984514 -202.48828125 298.1875 C-197.06295083 299.72602654 -191.46542944 300.32489445 -185.87109375 300.9296875 C-185.8453125 301.88746094 -185.81953125 302.84523438 -185.79296875 303.83203125 C-185.41933899 313.54887132 -183.86859008 322.54016826 -181.39501953 331.93359375 C-180.52249517 335.25780586 -179.70113124 338.59464896 -178.87109375 341.9296875 C-184.46783214 342.21917397 -188.07387045 342.16259886 -192.87109375 338.9296875 C-199.78039929 331.93947674 -199.78039929 331.93947674 -199.96875 327.765625 C-199.95714844 326.95351563 -199.94554687 326.14140625 -199.93359375 325.3046875 C-199.92457031 324.48742187 -199.91554687 323.67015625 -199.90625 322.828125 C-199.89464844 322.20164062 -199.88304687 321.57515625 -199.87109375 320.9296875 C-201.14984375 320.8471875 -202.42859375 320.7646875 -203.74609375 320.6796875 C-213.68851435 319.51090765 -221.18748131 315.37714136 -227.87109375 307.9296875 C-232.287711 301.85378864 -233.5813849 294.67668283 -232.4765625 287.29296875 C-232.00801767 285.14575252 -231.48749665 283.03870239 -230.87109375 280.9296875 C-231.43957031 280.71054687 -232.00804687 280.49140625 -232.59375 280.265625 C-240.84121175 276.87852051 -246.40207892 273.01138541 -250.14453125 264.76171875 C-253.09163372 257.33058404 -252.97537863 248.91572357 -250.18359375 241.4296875 C-248.35210818 237.39910635 -246.25893553 234.75288898 -242.87109375 231.9296875 C-243.29519531 231.58679688 -243.71929687 231.24390625 -244.15625 230.890625 C-252.33710053 223.59078915 -256.99756261 213.42155581 -258.109375 202.61328125 C-258.51373486 190.37607494 -254.02831517 179.93441244 -245.87109375 170.9296875 C-243.60456412 168.97048392 -241.44540624 167.4850013 -238.87109375 165.9296875 C-239.26941406 165.50558594 -239.66773438 165.08148438 -240.078125 164.64453125 C-245.91273651 158.18528979 -248.85677844 151.69065648 -248.87109375 142.9296875 C-248.04569465 133.2650144 -244.03851614 126.38036765 -236.87109375 119.9296875 C-235.20920643 118.59040184 -233.54318425 117.25621263 -231.87109375 115.9296875 C-232.02707031 115.14207031 -232.18304688 114.35445313 -232.34375 113.54296875 C-234.69162393 100.40420403 -234.5996354 89.27895349 -226.87109375 77.9296875 C-221.720804 71.92429239 -215.63067321 67.72035968 -207.87109375 65.9296875 C-204.17350084 65.64814489 -200.56883423 65.6766102 -196.87109375 65.9296875 C-196.78859375 64.8984375 -196.70609375 63.8671875 -196.62109375 62.8046875 C-195.398911 56.49007664 -192.18257704 52.45309771 -186.953125 48.8984375 C-183.11694285 47.11349721 -179.05035294 47.02218619 -174.87109375 46.9296875 C-174.77828125 45.0115625 -174.77828125 45.0115625 -174.68359375 43.0546875 C-173.6159352 33.97247209 -169.02768937 27.1722545 -162.48046875 20.9765625 C-151.60121753 12.44253909 -140.26063818 10.75587806 -126.87109375 11.9296875 C-119.87819907 13.44522651 -114.41744956 16.49260285 -108.87109375 20.9296875 C-106.01556612 19.6317204 -103.99001081 18.23094877 -101.74609375 16.0546875 C-96.6229814 11.56921574 -90.85528232 9.27784283 -84.12109375 8.4921875 C-79.25099401 9.14777785 -75.90632353 11.23953431 -71.87109375 13.9296875 C-70.75734375 12.475625 -70.75734375 12.475625 -69.62109375 10.9921875 C-52.05195712 -9.38801099 -22.43589562 -16.78190588 0 0 Z " fill="#964B36" transform="translate(345.87109375,57.0703125)"/>
<path d="M0 0 C0.495 4.455 0.495 4.455 1 9 C26.94169363 19.74181422 51.04851632 19.53753549 77 9 C77.33 6.03 77.66 3.06 78 0 C87.15996519 0.5557985 95.70044171 2.80053527 104.5234375 5.1484375 C106.1168975 5.56648552 107.71053926 5.98384131 109.30435181 6.40054321 C113.48040047 7.49423707 117.65405086 8.59681447 121.82720947 9.70147705 C126.04493646 10.81645722 130.26468527 11.92372538 134.484375 13.03125 C139.24595122 14.28108148 144.00736286 15.53147332 148.76693726 16.78890991 C149.85279838 17.07541129 149.85279838 17.07541129 150.96059608 17.36770058 C152.36351299 17.73801308 153.76623804 18.10905329 155.16875267 18.48088646 C160.27476906 19.82849324 165.40161914 21.06870088 170.55020142 22.24258423 C179.39054615 24.97579526 186.28370571 33.7197787 191.0625 41.25 C192.15532758 44.45562756 192.04985751 45.80997653 191 49 C189.16845703 50.52636719 189.16845703 50.52636719 186.7578125 51.796875 C185.86618408 52.27616455 184.97455566 52.7554541 184.0559082 53.24926758 C183.0887085 53.74450928 182.12150879 54.23975098 181.125 54.75 C180.13137451 55.27295654 179.13774902 55.79591309 178.11401367 56.3347168 C175.08783331 57.91425415 172.04785043 59.46274893 169 61 C167.71488525 61.65186279 167.71488525 61.65186279 166.40380859 62.31689453 C101.17034003 95.11107226 22.97138718 99.46714837 -46.3203125 77.33984375 C-69.2130337 69.72352733 -91.79529492 59.19942412 -112 46 C-110.9894552 37.82163739 -106.46218369 31.35457079 -100.01953125 26.2734375 C-93.95219198 22.44761042 -87.12571847 20.95304285 -80.15332031 19.65112305 C-72.59195183 18.18918173 -65.16788695 16.32789358 -57.72722626 14.34928322 C-55.48315073 13.75258707 -53.23764993 13.16152993 -50.99176025 12.57170105 C-46.24320738 11.32353526 -41.49653595 10.06830996 -36.75 8.8125 C-31.20138984 7.3452612 -25.65202299 5.88097343 -20.10111237 4.42246056 C-17.89167292 3.84053788 -15.68346121 3.25411376 -13.47528076 2.66743469 C-12.12908275 2.3129951 -10.78283314 1.95875142 -9.43652344 1.60473633 C-8.26265076 1.29401688 -7.08877808 0.98329742 -5.8793335 0.66316223 C-3 0 -3 0 0 0 Z " fill="#A149C9" transform="translate(242,474)"/>
<path d="M0 0 C8.52853153 0.18145812 15.27172264 5.11365343 21.3125 10.8125 C29.8948838 19.94858598 33.71990872 31.40816867 33.34765625 43.88671875 C31.88678414 56.96891057 26.24663929 66.88014335 16.296875 75.27734375 C9.79034806 80.15723896 2.48319969 83.13680219 -5.72265625 83.046875 C-6.52582275 83.04010742 -7.32898926 83.03333984 -8.15649414 83.02636719 C-9.06902954 83.01331543 -9.06902954 83.01331543 -10 83 C-10.10431614 72.10475826 -10.01149318 61.2749098 -9.34912109 50.3972168 C-9.10923731 46.22480519 -8.98009268 42.09732715 -9.07421875 37.91796875 C-9.09097656 37.10150879 -9.10773438 36.28504883 -9.125 35.44384766 C-9.1654517 33.90257452 -9.22293373 32.36161467 -9.30078125 30.82177734 C-9.432491 25.76623983 -8.35684645 23.67624788 -5 20 C-2.38107619 13.89254833 -1.62455365 7.55781335 -1 1 C-0.67 0.67 -0.34 0.34 0 0 Z " fill="#FECF96" transform="translate(412,275)"/>
<path d="M0 0 C0.06993164 0.69448242 0.13986328 1.38896484 0.21191406 2.10449219 C0.84141631 21.84742819 0.84141631 21.84742819 8.95703125 38.74609375 C11.29861096 40.18327747 13.29475191 40.6242711 16 41 C15.01 41.33 14.02 41.66 13 42 C13.16298584 42.99201416 13.32597168 43.98402832 13.49389648 45.00610352 C14.05824188 48.97294581 14.12777322 52.90113578 14.09765625 56.90234375 C14.0962413 57.6249086 14.09482635 58.34747345 14.09336853 59.0919342 C14.08782225 61.37383365 14.0752802 63.65563079 14.0625 65.9375 C14.05747804 67.49544128 14.05291636 69.05338412 14.04882812 70.61132812 C14.0378705 74.40759081 14.02064372 78.20377813 14 82 C12.73470459 82.00918457 11.46940918 82.01836914 10.16577148 82.02783203 C9.09817848 82.03558151 9.09817848 82.03558151 8.00901794 82.04348755 C-2.83617386 81.80873066 -12.01424619 74.70477937 -19.2109375 67.20703125 C-27.59213209 56.86778465 -28.80143544 44.83568818 -28 32 C-26.13398243 20.31778916 -19.42800082 10.90008829 -10 4 C-3.38983051 0 -3.38983051 0 0 0 Z " fill="#FECE96" transform="translate(145,276)"/>
<path d="M0 0 C4.45146251 2.18526342 7.18885145 4.9394521 10 9 C11.69179466 14.07538397 11.56371867 18.31964436 9.375 23.1875 C6.75792293 27.99323582 3.14792809 30.28402397 -2 32 C-7.62868163 32.66219784 -10.74164871 31.46751713 -15.26953125 28.3671875 C-18.39868335 25.89494543 -19.74917295 23.75248116 -21 20 C-21.51853818 15.0611364 -21.55199525 11.14645166 -19.375 6.625 C-13.55666757 0.19421152 -8.48334729 -1.2516414 0 0 Z " fill="#362D2F" transform="translate(343,278)"/>
<path d="M0 0 C3.87537466 1.92933523 6.3380308 4.54451077 8.2109375 8.35546875 C9.7377776 12.91802622 9.75421643 17.04658799 8.02734375 21.55078125 C5.58738293 26.00060811 2.74072345 28.79189512 -1.9453125 30.78125 C-7.23189695 32.13605569 -11.59280965 31.06257505 -16.4375 28.77734375 C-20.83732022 24.78680913 -23.27594147 20.26951517 -23.625 14.27734375 C-22.86663704 8.30523544 -20.88968768 5.0184491 -16.5625 0.90234375 C-11.17633635 -1.54591246 -5.68359499 -1.76567565 0 0 Z " fill="#352C2F" transform="translate(231.125,278.66015625)"/>
<path d="M0 0 C13.27230714 2.43440245 25.46632006 7.22329813 34.9375 17 C36.35794385 19.67377666 35.86448215 21.17078569 35 24 C30.25527937 23.40418516 26.17878014 21.98948298 21.8125 20.125 C11.72160038 15.98122726 2.1640162 13.70141614 -8.71484375 12.72265625 C-12.42247465 11.90706562 -13.73195861 10.99426153 -16 8 C-16.4375 5.4375 -16.4375 5.4375 -16 3 C-12.31840181 -2.12222356 -5.59374142 -0.52021211 0 0 Z " fill="#984D37" transform="translate(336,236)"/>
<path d="M0 0 C2 2 2 2 2.3125 5.4375 C2 9 2 9 0.73925781 10.67431641 C-1.3207119 12.24445053 -2.57998949 12.49806982 -5.140625 12.7734375 C-5.95692383 12.87325928 -6.77322266 12.97308105 -7.61425781 13.07592773 C-8.48405273 13.17462158 -9.35384766 13.27331543 -10.25 13.375 C-21.00379204 14.78859392 -30.98759335 17.19802877 -40.625 22.375 C-44 24 -44 24 -47 23.75 C-47.66 23.5025 -48.32 23.255 -49 23 C-49.28696044 20.03303406 -49.36364299 18.50606983 -47.59375 16.04296875 C-33.92804258 3.93250043 -18.15810803 -1.52626866 0 0 Z " fill="#984D37" transform="translate(239,236)"/>
<path d="M0 0 C0.99 0 1.98 0 3 0 C3.64136139 4.89038058 4.13014163 9.75706987 4.3125 14.6875 C4.34988281 15.55761719 4.38726562 16.42773438 4.42578125 17.32421875 C3.24230987 24.76163063 -3.26537063 28.97066921 -8.734375 33.4375 C-11.23767789 35.83984701 -11.23767789 35.83984701 -11.640625 39.125 C-11.25497489 42.0938155 -11.25497489 42.0938155 -9.078125 43.8671875 C-4.88021131 45.41210498 -1.17886054 45.28668856 3.25 45.125 C6.16941316 45.04769467 9.07887047 45.00591322 12 45 C13 46 13 46 13.375 48.375 C13 51 13 51 11.1875 52.8125 C4.47922025 55.31166304 -2.68766871 54.76327358 -9.21484375 51.921875 C-13.37265014 49.77473647 -16.39106244 47.91340634 -19 44 C-19.62096108 39.92925517 -19.92500964 37.4788908 -17.71484375 33.9453125 C-14.10596514 29.71988288 -9.97491842 26.07945119 -5.69921875 22.54296875 C-2.30088314 19.45712377 -1.75017536 17.00084903 -1.51757812 12.55078125 C-1.49115234 11.87402344 -1.46472656 11.19726562 -1.4375 10.5 C-1.11757426 3.35272277 -1.11757426 3.35272277 0 0 Z " fill="#F19888" transform="translate(275,296)"/>
<path d="M0 0 C10.32789195 -0.80651651 18.40855939 1.42666316 26.375 8.1875 C33.72792035 15.27155363 37.07833266 22.36766931 37.375 32.5 C37.33011853 41.09928977 34.83186161 49.46952997 29 56 C26.3125 56.25 26.3125 56.25 24 56 C23.35546875 54.23828125 23.35546875 54.23828125 23 52 C23.92578125 50.10546875 23.92578125 50.10546875 25.3125 48.1875 C29.69599713 41.57572516 30.9601772 34.83744639 30 27 C27.90116725 19.68986093 23.64657055 13.64376365 17.5 9.1875 C11.39322404 6.28678142 5.67374626 5.50119043 -1 5 C-0.67 3.35 -0.34 1.7 0 0 Z " fill="#7B3C2B" transform="translate(333,114)"/>
<path d="M0 0 C3.11679736 1.56460744 4.3968577 2.96659917 5.625 6.25 C5.47314539 9.89451064 5.06096729 11.71230701 2.75 14.5625 C-2.12459796 18.43350426 -8.45145273 17.82122715 -14.375 17.25 C-17.69382708 16.02993595 -19.69657436 14.16439978 -21.8125 11.3125 C-22.5966046 8.4374498 -22.46667974 7.04742932 -21.375 4.25 C-14.92664053 -1.91799602 -8.22946035 -3.82242694 0 0 Z " fill="#FFD097" transform="translate(368.375,322.75)"/>
<path d="M0 0 C1.69921875 1.16796875 1.69921875 1.16796875 3.69921875 4.16796875 C4.13671875 7.04296875 4.13671875 7.04296875 3.69921875 10.16796875 C1.52658375 12.74082599 -0.28071963 14.65793794 -3.30078125 16.16796875 C-15.63120229 17.20685782 -15.63120229 17.20685782 -20.05078125 14.29296875 C-22.68793539 11.80232317 -23.1996738 10.92627459 -23.67578125 7.35546875 C-23.17095692 3.06446198 -21.62523346 1.82753052 -18.30078125 -0.83203125 C-11.87533304 -4.38293684 -6.21368715 -3.18619321 0 0 Z " fill="#FFD097" transform="translate(211.30078125,323.83203125)"/>
<path d="M0 0 C-0.33 1.65 -0.66 3.3 -1 5 C-21.34642828 11.68853728 -41.63006865 15.9630984 -62.0078125 6.62109375 C-64.06961417 5.48677967 -66.05294808 4.31966852 -68 3 C-68 2.01 -68 1.02 -68 0 C-62.71442664 0.49519671 -57.71508431 1.21630763 -52.57080078 2.51147461 C-37.21508857 6.36491496 -24.02927399 5.60056006 -9.0625 0.25 C-5.70015228 -0.92987838 -3.4647527 -1.22942838 0 0 Z " fill="#F19888" transform="translate(311,368)"/>
<path d="M0 0 C7.13350126 -0.60453401 7.13350126 -0.60453401 10.6875 1.875 C19.29111984 13.5015133 21.77548223 26.77508904 20 41 C18.45535421 46.19562676 16.15645905 49.78712831 12.4375 53.6875 C10 55 10 55 7.6875 54.75 C7.130625 54.5025 6.57375 54.255 6 54 C5.32421875 52.1796875 5.32421875 52.1796875 5 50 C6.14453125 48.5078125 6.14453125 48.5078125 7.8125 47.125 C11.02481707 44.45442761 11.98950724 42.0515948 13 38 C13.21214094 35.36614623 13.33388661 32.87866555 13.3125 30.25 C13.30831055 29.54697754 13.30412109 28.84395508 13.29980469 28.11962891 C13.1254988 20.04036551 11.55532022 12.17257802 6 6 C2.38583483 4.56082568 2.38583483 4.56082568 -1 4 C-0.67 2.68 -0.34 1.36 0 0 Z " fill="#7B3C2B" transform="translate(402,201)"/>
<path d="M0 0 C0.515625 0.2475 1.03125 0.495 1.5625 0.75 C0.21959609 4.77871174 -1.95057554 5.42538369 -5.4375 7.75 C-10.58203392 13.45069975 -10.7895126 18.04874046 -10.71484375 25.515625 C-10.20879392 31.41716387 -7.88269918 34.27119154 -3.75 38.5 C-0.58486999 40.99152542 2.83143086 41.93759627 6.70703125 42.87890625 C8.5625 43.75 8.5625 43.75 9.38671875 45.77734375 C9.44472656 46.42832031 9.50273437 47.07929688 9.5625 47.75 C8.5625 48.75 8.5625 48.75 6.59375 48.8046875 C0.0050992 48.33697463 -5.24332943 46.97274172 -10.4375 42.75 C-17.09878646 34.77324941 -18.10391634 27.97646167 -17.4375 17.75 C-16.15013818 11.46524152 -12.86768485 6.30144087 -7.69921875 2.45703125 C-5.04567989 0.7921771 -3.17575084 -0.32571804 0 0 Z " fill="#7B3C2B" transform="translate(172.4375,149.25)"/>
<path d="M0 0 C5.07102456 3.69131859 9.04498699 8.46799861 11.63671875 14.19140625 C12.01494851 16.69717842 11.90193913 18.64529065 11.63671875 21.19140625 C10.31671875 21.52140625 8.99671875 21.85140625 7.63671875 22.19140625 C7.41757812 21.62292969 7.1984375 21.05445313 6.97265625 20.46875 C4.11590897 13.5126865 0.97437653 8.22017863 -5.55078125 4.25390625 C-12.36246765 2.35556742 -18.66700979 1.93526913 -25.11328125 5.19140625 C-30.70849175 8.7210014 -34.79978322 13.51112391 -38.11328125 19.19140625 C-38.52578125 19.85140625 -38.93828125 20.51140625 -39.36328125 21.19140625 C-40.35328125 21.19140625 -41.34328125 21.19140625 -42.36328125 21.19140625 C-41.11156383 12.99049899 -35.72067584 6.75173971 -29.4140625 1.6328125 C-21.02876383 -4.26085456 -8.9469102 -5.38315142 0 0 Z " fill="#7A3C2B" transform="translate(276.36328125,117.80859375)"/>
<path d="M0 0 C3.50458054 0.56133974 4.91590857 1.63387608 7.125 4.375 C7.62257813 4.98085937 8.12015625 5.58671875 8.6328125 6.2109375 C13.40937724 12.46141365 13.96267211 19.29862316 13 27 C11.6523723 30.54341269 9.96604845 33.76304165 8 37 C6.35 36.67 4.7 36.34 3 36 C3.535101 33.324495 4.32605837 31.34788325 5.5625 28.875 C7.81631354 23.66445089 8.04224628 18.11604913 6.23828125 12.72265625 C4.40665975 8.83498532 2.29476247 5.82408212 -1 3 C-0.67 2.01 -0.34 1.02 0 0 Z " fill="#7B3C2B" transform="translate(448,193)"/>
<path d="M0 0 C0.70125 0.2475 1.4025 0.495 2.125 0.75 C1.75998066 3.32692757 1.52417638 4.44399522 -0.58203125 6.05859375 C-1.62423828 6.61740234 -1.62423828 6.61740234 -2.6875 7.1875 C-8.03357366 10.31480964 -10.90362554 13.86136853 -12.875 19.75 C-13.11471089 22.64651829 -13.11471089 22.64651829 -13 25.5625 C-12.98195312 26.53832031 -12.96390625 27.51414063 -12.9453125 28.51953125 C-12.92210937 29.25558594 -12.89890625 29.99164063 -12.875 30.75 C-14.195 30.75 -15.515 30.75 -16.875 30.75 C-18.8598849 24.79534529 -18.89398824 18.10446099 -16.1875 12.375 C-12.93918746 6.79018194 -6.95010759 -0.60435718 0 0 Z " fill="#7B3C2B" transform="translate(210.875,104.25)"/>
<path d="M0 0 C0.99 0.33 1.98 0.66 3 1 C2 5 2 5 1.4765625 6.67578125 C0.80616476 9.94534398 0.82902569 13.10261664 0.8125 16.4375 C0.79832031 17.73558594 0.78414062 19.03367188 0.76953125 20.37109375 C0.98668222 23.79030132 1.60878654 25.92296317 3 29 C3.125 31.8125 3.125 31.8125 3 34 C0.6875 33.9375 0.6875 33.9375 -2 33 C-5.84524002 25.78673352 -6.18349424 18.01493101 -5 10 C-3.74035459 6.34790307 -2.15443391 3.20087324 0 0 Z " fill="#7B3C2B" transform="translate(145,232)"/>
<path d="M0 0 C6.43464968 0.2681104 10.45265647 2.43366965 15 7 C20.26215774 14.07841077 20.26215774 14.07841077 19.62109375 18.77734375 C19.41613281 19.51082031 19.21117187 20.24429688 19 21 C17.68 21.33 16.36 21.66 15 22 C14.76925781 21.40832031 14.53851563 20.81664062 14.30078125 20.20703125 C11.61097993 13.68984466 8.86423928 9.10857343 2.1875 6.1875 C1.135625 5.795625 0.08375 5.40375 -1 5 C-0.67 3.35 -0.34 1.7 0 0 Z " fill="#7B3C2B" transform="translate(402,120)"/>
<path d="M0 0 C3.76279503 1.73986119 6.792427 3.43400896 8.75390625 7.234375 C8.75390625 8.224375 8.75390625 9.214375 8.75390625 10.234375 C6.56640625 11.046875 6.56640625 11.046875 3.75390625 11.234375 C1.06640625 8.859375 1.06640625 8.859375 -1.24609375 6.234375 C-4.37316334 4.6708402 -7.82591818 4.83479013 -11.24609375 5.234375 C-12.23609375 5.894375 -13.22609375 6.554375 -14.24609375 7.234375 C-16.43359375 6.859375 -16.43359375 6.859375 -18.24609375 6.234375 C-18.24609375 5.244375 -18.24609375 4.254375 -18.24609375 3.234375 C-12.23778218 -0.85639033 -7.09802747 -2.41950154 0 0 Z " fill="#7A3C2B" transform="translate(413.24609375,165.765625)"/>
<path d="M0 0 C2.13884957 1.20002711 3.89861354 2.32814245 5.64453125 4.05078125 C6.14453125 6.86328125 6.14453125 6.86328125 5.64453125 9.05078125 C4.01953125 9.86328125 4.01953125 9.86328125 1.64453125 10.05078125 C0.1548775 8.78781394 -1.33225107 7.52075187 -2.77734375 6.20703125 C-5.31301586 4.34921208 -7.33826892 4.59164215 -10.35546875 5.05078125 C-11.05671875 5.40140625 -11.75796875 5.75203125 -12.48046875 6.11328125 C-14.35546875 7.05078125 -14.35546875 7.05078125 -16.60546875 6.67578125 C-17.18296875 6.46953125 -17.76046875 6.26328125 -18.35546875 6.05078125 C-18.23046875 4.23828125 -18.23046875 4.23828125 -17.35546875 2.05078125 C-12.01755422 -1.68575892 -6.03670406 -2.43270163 0 0 Z " fill="#7B3C2B" transform="translate(312.35546875,91.94921875)"/>
<path d="M0 0 C1.32 0.33 2.64 0.66 4 1 C3.537291 3.15930869 3.04188487 4.92387465 1.97265625 6.8671875 C-0.42769882 12.13061669 1.06187936 18.50529339 2 24 C1.67 24.66 1.34 25.32 1 26 C-0.875 25.75 -0.875 25.75 -3 25 C-6.32358544 20.0204939 -5.69876538 13.70545324 -5 8 C-3.70889181 4.97241877 -2.12167911 2.5081278 0 0 Z " fill="#7B3C2B" transform="translate(112,251)"/>
<path d="M0 0 C1.67542976 0.28604898 3.34385343 0.61781233 5 1 C5.08636719 1.59167969 5.17273438 2.18335938 5.26171875 2.79296875 C6.27665912 8.50084444 7.65599991 10.99015377 12 15 C12.8125 17.8125 12.8125 17.8125 13 20 C11.375 20.8125 11.375 20.8125 9 21 C3.88256501 17.6949899 0.91894842 13.80070695 -1 8 C-1.3125 4.0625 -1.3125 4.0625 -1 1 C-0.67 0.67 -0.34 0.34 0 0 Z " fill="#7B3C2B" transform="translate(333,167)"/>
<path d="M0 0 C0.66 0 1.32 0 2 0 C2.03738281 0.72445312 2.07476562 1.44890625 2.11328125 2.1953125 C2.49326667 10.11847786 2.49326667 10.11847786 6 17 C8.92374459 18.36060583 11.8680455 19.25148257 15 20 C15 20.99 15 21.98 15 23 C12.04206277 24.47896861 10.29779776 24.4355582 7 24 C3.22886081 21.56800003 0.43454592 19.30363775 -1 15 C-1.0949387 12.62653255 -1.12987754 10.25036046 -1.125 7.875 C-1.12886719 5.98394531 -1.12886719 5.98394531 -1.1328125 4.0546875 C-1 1 -1 1 0 0 Z " fill="#7B3C2B" transform="translate(152,209)"/>
<path d="M0 0 C0.66 0 1.32 0 2 0 C1.86980469 1.08539063 1.73960937 2.17078125 1.60546875 3.2890625 C1.46470516 4.7342354 1.3254626 6.17955702 1.1875 7.625 C1.05311523 8.69427734 1.05311523 8.69427734 0.91601562 9.78515625 C0.52508744 13.95843351 0.52508744 13.95843351 2.10400391 17.72167969 C3.38799237 19.16101491 4.6931615 20.58137905 6 22 C6 23.32 6 24.64 6 26 C2.66158844 25.72179904 1.27344099 25.26995449 -1.14453125 22.8828125 C-3.42326571 19.34237875 -3.50558176 17.24272037 -3.4375 13.0625 C-3.43621094 11.87785156 -3.43492187 10.69320312 -3.43359375 9.47265625 C-2.96722365 5.73749394 -1.86645658 3.24278266 0 0 Z " fill="#7B3C2B" transform="translate(207,165)"/>
<path d="M0 0 C0.99 0 1.98 0 3 0 C3.268125 1.11375 3.53625 2.2275 3.8125 3.375 C4.65809019 7.21840951 4.65809019 7.21840951 8 9 C10.0492094 9.45139459 10.0492094 9.45139459 12.1875 9.625 C13.445625 9.74875 14.70375 9.8725 16 10 C15.67 11.65 15.34 13.3 15 15 C7.23214286 15.66964286 7.23214286 15.66964286 3.625 12.75 C0.51000388 9.48667073 -0.87443993 7.79969431 -1.1875 3.3125 C-1 1 -1 1 0 0 Z " fill="#7B3C2B" transform="translate(282,163)"/>
<path d="M0 0 C3.875 0.875 3.875 0.875 5 2 C5.61444107 7.28419321 4.20384448 9.85384831 1 14 C-1 16 -1 16 -4.125 16.125 C-5.548125 16.063125 -5.548125 16.063125 -7 16 C-7.33 14.68 -7.66 13.36 -8 12 C-7.030625 11.360625 -6.06125 10.72125 -5.0625 10.0625 C-2.23963731 8.3034741 -2.23963731 8.3034741 -1 7 C-0.63239269 4.67182036 -0.29758419 2.3381615 0 0 Z " fill="#7B3C2B" transform="translate(441,260)"/>
<path d="M0 0 C2.25 -0.3125 2.25 -0.3125 5 0 C8.15395581 2.81298761 8.9378597 4.39931039 9.375 8.625 C9 12 9 12 7 15 C5.68 14.67 4.36 14.34 3 14 C3.03480469 13.37351563 3.06960938 12.74703125 3.10546875 12.1015625 C3.13253906 11.28429687 3.15960938 10.46703125 3.1875 9.625 C3.22230469 8.81289062 3.25710938 8.00078125 3.29296875 7.1640625 C3.19628906 6.44992188 3.09960938 5.73578125 3 5 C2.01 4.34 1.02 3.68 0 3 C0 2.01 0 1.02 0 0 Z " fill="#7B3C2B" transform="translate(456,242)"/>
<path d="M0 0 C-0.08378906 0.59167969 -0.16757812 1.18335938 -0.25390625 1.79296875 C-0.80889424 6.09939457 -1.23226652 9.75552644 0 14 C-1.32 14 -2.64 14 -4 14 C-6.47342266 10.28986601 -6.38503486 8.38939738 -6 4 C-3.84615385 0 -3.84615385 0 0 0 Z " fill="#7B3C2B" transform="translate(378,192)"/>
<path d="M0 0 C0.99 0 1.98 0 3 0 C3 3.63 3 7.26 3 11 C1.68 10.67 0.36 10.34 -1 10 C-1.125 2.25 -1.125 2.25 0 0 Z " fill="#8D40B1" transform="translate(164,528)"/>
<path d="M0 0 C0.66 0.33 1.32 0.66 2 1 C-0.97 3.97 -3.94 6.94 -7 10 C-7.33 9.34 -7.66 8.68 -8 8 C-3.375 2.25 -3.375 2.25 0 0 Z " fill="#A87462" transform="translate(159,106)"/>
<path d="M0 0 C0.66 0.33 1.32 0.66 2 1 C-1.3 4.3 -4.6 7.6 -8 11 C-8 7.0234755 -6.61988497 5.9109833 -4 3 C-1.75 1.1875 -1.75 1.1875 0 0 Z " fill="#A97665" transform="translate(111,175)"/>
<path d="M0 0 C0.66 0.33 1.32 0.66 2 1 C-0.64 3.64 -3.28 6.28 -6 9 C-6.66 8.67 -7.32 8.34 -8 8 C-5.58443874 4.80800833 -3.31996462 2.25283313 0 0 Z " fill="#A77361" transform="translate(104,225)"/>
</svg>
