<svg width="21" height="20" viewBox="0 0 21 20" fill="none" xmlns="http://www.w3.org/2000/svg">
<g clip-path="url(#clip0_1066_9816)">
<path d="M9.5625 2.5V1.25C9.5625 1.00136 9.66127 0.762903 9.83709 0.587087C10.0129 0.411272 10.2514 0.3125 10.5 0.3125C10.7486 0.3125 10.9871 0.411272 11.1629 0.587087C11.3387 0.762903 11.4375 1.00136 11.4375 1.25V2.5C11.4375 2.74864 11.3387 2.9871 11.1629 3.16291C10.9871 3.33873 10.7486 3.4375 10.5 3.4375C10.2514 3.4375 10.0129 3.33873 9.83709 3.16291C9.66127 2.9871 9.5625 2.74864 9.5625 2.5ZM15.8125 10C15.8125 11.0507 15.5009 12.0778 14.9172 12.9515C14.3334 13.8251 13.5037 14.506 12.533 14.9081C11.5623 15.3102 10.4941 15.4154 9.46358 15.2104C8.43306 15.0054 7.48646 14.4995 6.7435 13.7565C6.00053 13.0135 5.49456 12.0669 5.28958 11.0364C5.08459 10.0059 5.1898 8.93773 5.59189 7.96699C5.99398 6.99626 6.6749 6.16656 7.54853 5.58282C8.42217 4.99907 9.44929 4.6875 10.5 4.6875C11.9085 4.68895 13.2589 5.24912 14.2549 6.24509C15.2509 7.24107 15.8111 8.59148 15.8125 10ZM13.9375 10C13.9375 9.32013 13.7359 8.65552 13.3582 8.09023C12.9805 7.52493 12.4436 7.08434 11.8155 6.82416C11.1874 6.56399 10.4962 6.49591 9.82938 6.62855C9.16257 6.76119 8.55006 7.08858 8.06932 7.56932C7.58858 8.05006 7.26119 8.66257 7.12855 9.32938C6.99591 9.99619 7.06399 10.6874 7.32416 11.3155C7.58434 11.9436 8.02493 12.4805 8.59023 12.8582C9.15552 13.2359 9.82013 13.4375 10.5 13.4375C11.4114 13.4365 12.2851 13.074 12.9295 12.4295C13.574 11.7851 13.9365 10.9114 13.9375 10ZM4.52422 5.35078C4.61142 5.43799 4.71495 5.50716 4.82889 5.55436C4.94283 5.60155 5.06495 5.62584 5.18828 5.62584C5.31161 5.62584 5.43373 5.60155 5.54767 5.55436C5.66161 5.50716 5.76514 5.43799 5.85234 5.35078C5.93955 5.26358 6.00873 5.16005 6.05592 5.04611C6.10312 4.93217 6.12741 4.81005 6.12741 4.68672C6.12741 4.56339 6.10312 4.44127 6.05592 4.32733C6.00873 4.21339 5.93955 4.10986 5.85234 4.02266L4.91484 3.08516C4.73872 2.90904 4.49985 2.81009 4.25078 2.81009C4.00171 2.81009 3.76284 2.90904 3.58672 3.08516C3.4106 3.26128 3.31166 3.50015 3.31166 3.74922C3.31166 3.99829 3.4106 4.23716 3.58672 4.41328L4.52422 5.35078ZM4.52422 14.6477L3.58672 15.5852C3.49951 15.6724 3.43034 15.7759 3.38314 15.8898C3.33595 16.0038 3.31166 16.1259 3.31166 16.2492C3.31166 16.3725 3.33595 16.4947 3.38314 16.6086C3.43034 16.7225 3.49951 16.8261 3.58672 16.9133C3.76284 17.0894 4.00171 17.1883 4.25078 17.1883C4.37411 17.1883 4.49623 17.1641 4.61017 17.1169C4.72411 17.0697 4.82764 17.0005 4.91484 16.9133L5.85234 15.9758C6.02846 15.7997 6.12741 15.5608 6.12741 15.3117C6.12741 15.0626 6.02846 14.8238 5.85234 14.6477C5.67622 14.4715 5.43735 14.3726 5.18828 14.3726C4.93921 14.3726 4.70034 14.4715 4.52422 14.6477ZM15.8125 5.625C15.9357 5.6251 16.0576 5.60093 16.1714 5.55388C16.2852 5.50683 16.3887 5.43781 16.4758 5.35078L17.4133 4.41328C17.5005 4.32608 17.5697 4.22255 17.6169 4.10861C17.6641 3.99467 17.6883 3.87255 17.6883 3.74922C17.6883 3.62589 17.6641 3.50377 17.6169 3.38983C17.5697 3.27589 17.5005 3.17236 17.4133 3.08516C17.3261 2.99795 17.2225 2.92877 17.1086 2.88158C16.9947 2.83438 16.8725 2.81009 16.7492 2.81009C16.6259 2.81009 16.5038 2.83438 16.3898 2.88158C16.2759 2.92877 16.1724 2.99795 16.0852 3.08516L15.1477 4.02266C15.0158 4.15378 14.9258 4.32117 14.8894 4.50354C14.8529 4.68591 14.8714 4.87501 14.9427 5.0468C15.014 5.21858 15.1347 5.36528 15.2896 5.46824C15.4445 5.5712 15.6265 5.62577 15.8125 5.625ZM16.4758 14.6492C16.2997 14.4731 16.0608 14.3742 15.8117 14.3742C15.5626 14.3742 15.3238 14.4731 15.1477 14.6492C14.9715 14.8253 14.8726 15.0642 14.8726 15.3133C14.8726 15.5624 14.9715 15.8012 15.1477 15.9773L16.0852 16.9148C16.2613 17.091 16.5001 17.1899 16.7492 17.1899C16.9983 17.1899 17.2372 17.091 17.4133 16.9148C17.5894 16.7387 17.6883 16.4999 17.6883 16.2508C17.6883 16.0017 17.5894 15.7628 17.4133 15.5867L16.4758 14.6492ZM3.9375 10C3.9375 9.75136 3.83873 9.5129 3.66291 9.33709C3.4871 9.16127 3.24864 9.0625 3 9.0625H1.75C1.50136 9.0625 1.2629 9.16127 1.08709 9.33709C0.911272 9.5129 0.8125 9.75136 0.8125 10C0.8125 10.2486 0.911272 10.4871 1.08709 10.6629C1.2629 10.8387 1.50136 10.9375 1.75 10.9375H3C3.24864 10.9375 3.4871 10.8387 3.66291 10.6629C3.83873 10.4871 3.9375 10.2486 3.9375 10ZM10.5 16.5625C10.2514 16.5625 10.0129 16.6613 9.83709 16.8371C9.66127 17.0129 9.5625 17.2514 9.5625 17.5V18.75C9.5625 18.9986 9.66127 19.2371 9.83709 19.4129C10.0129 19.5887 10.2514 19.6875 10.5 19.6875C10.7486 19.6875 10.9871 19.5887 11.1629 19.4129C11.3387 19.2371 11.4375 18.9986 11.4375 18.75V17.5C11.4375 17.2514 11.3387 17.0129 11.1629 16.8371C10.9871 16.6613 10.7486 16.5625 10.5 16.5625ZM19.25 9.0625H18C17.7514 9.0625 17.5129 9.16127 17.3371 9.33709C17.1613 9.5129 17.0625 9.75136 17.0625 10C17.0625 10.2486 17.1613 10.4871 17.3371 10.6629C17.5129 10.8387 17.7514 10.9375 18 10.9375H19.25C19.4986 10.9375 19.7371 10.8387 19.9129 10.6629C20.0887 10.4871 20.1875 10.2486 20.1875 10C20.1875 9.75136 20.0887 9.5129 19.9129 9.33709C19.7371 9.16127 19.4986 9.0625 19.25 9.0625Z" fill="#040415"/>
</g>
<defs>
<clipPath id="clip0_1066_9816">
<rect width="20" height="20" fill="white" transform="translate(0.5)"/>
</clipPath>
</defs>
</svg>
