<svg width="151" height="157" viewBox="0 0 151 157" fill="none" xmlns="http://www.w3.org/2000/svg">
<g clip-path="url(#clip0_1066_18244)">
<path d="M75.5 150C116.921 150 150.5 116.421 150.5 75C150.5 33.5786 116.921 0 75.5 0C34.0786 0 0.5 33.5786 0.5 75C0.5 116.421 34.0786 150 75.5 150Z" fill="#FAB700"/>
<path d="M128.736 51.3409C128.119 42.3444 124.545 33.8044 118.568 27.0516C112.592 20.2988 104.55 15.7126 95.6947 14.0076C86.8398 12.3026 77.6695 13.5746 69.613 17.6254C61.5564 21.6761 55.066 28.2781 51.1533 36.4026C48.115 35.3645 44.8728 35.0665 41.6962 35.5331C38.5196 35.9998 35.5002 37.2178 32.8889 39.0859C30.2775 40.954 28.1497 43.4182 26.6821 46.2739C25.2145 49.1296 24.4496 52.2943 24.4508 55.505C24.4508 55.6736 24.4508 55.8386 24.4508 56.0036C20.5122 56.7765 16.7998 58.4313 13.5921 60.8437C10.3843 63.2561 7.76439 66.3636 5.92891 69.933C4.09344 73.5024 3.09003 77.4411 2.99395 81.4537C2.89787 85.4662 3.71161 89.4484 5.37414 93.1016C7.03667 96.7547 9.50483 99.984 12.5935 102.547C15.6821 105.11 19.3111 106.941 23.2081 107.902C27.1052 108.862 31.1691 108.928 35.0952 108.094C39.0212 107.26 42.7075 105.547 45.8773 103.085C46.9911 106.159 48.9369 108.863 51.4978 110.895C54.0586 112.928 57.1337 114.209 60.38 114.596C63.6264 114.983 66.9165 114.46 69.8831 113.086C72.8498 111.712 75.3765 109.541 77.1814 106.815C79.618 107.985 82.3252 108.474 85.0171 108.233C87.709 107.991 90.2856 107.027 92.4748 105.442L87.5109 128.213L111.731 109.157C112.316 109.19 112.908 109.208 113.503 109.208C120.337 109.208 126.979 106.945 132.391 102.773C137.803 98.6005 141.682 92.7538 143.422 86.145C145.162 79.5363 144.664 72.5376 142.007 66.2413C139.35 59.9451 134.684 54.7057 128.736 51.3409Z" fill="#4AAAD6"/>
<path d="M130.813 47.4828C130.198 38.486 126.624 29.9455 120.648 23.1921C114.671 16.4388 106.629 11.8521 97.7741 10.1466C88.919 8.44118 79.7485 9.71287 71.6916 13.7635C63.6347 17.8142 57.144 24.4162 53.2311 32.5409C50.1926 31.5029 46.9503 31.2049 43.7735 31.6716C40.5967 32.1383 37.5772 33.3562 34.9656 35.2242C32.3541 37.0923 30.2259 39.5564 28.7579 42.4121C27.2899 45.2677 26.5244 48.4324 26.525 51.6432C26.525 51.8118 26.525 51.9768 26.525 52.1454C22.5865 52.9183 18.8741 54.5731 15.6663 56.9855C12.4585 59.3979 9.8386 62.5054 8.00313 66.0748C6.16765 69.6442 5.16424 73.5829 5.06817 77.5955C4.97209 81.608 5.78583 85.5902 7.44836 89.2434C9.11089 92.8966 11.5791 96.1259 14.6677 98.689C17.7563 101.252 21.3853 103.083 25.2823 104.043C29.1794 105.004 33.2433 105.07 37.1694 104.236C41.0955 103.401 44.7817 101.689 47.9515 99.227C49.0651 102.301 51.0108 105.004 53.5715 107.037C56.1322 109.069 59.2072 110.35 62.4534 110.736C65.6996 111.123 68.9894 110.6 71.9556 109.226C74.9219 107.851 77.448 105.68 79.2521 102.954C81.6885 104.123 84.3954 104.613 87.0871 104.371C89.7789 104.13 92.3556 103.167 94.5454 101.583L89.5959 124.351L113.816 105.296C114.405 105.331 114.996 105.349 115.588 105.349C122.421 105.348 129.062 103.084 134.473 98.9112C139.884 94.7385 143.762 88.8917 145.501 82.2834C147.239 75.6751 146.741 68.677 144.084 62.3815C141.427 56.086 136.761 50.8472 130.813 47.4828Z" stroke="#040415" stroke-width="1.9583" stroke-miterlimit="10"/>
<path d="M57.2075 130.389C57.9859 130.464 58.7243 130.769 59.3289 131.266C59.9335 131.762 60.3769 132.426 60.603 133.175C60.8291 133.924 60.8275 134.723 60.5986 135.47C60.3696 136.218 59.9236 136.881 59.3171 137.375C58.7106 137.869 57.9711 138.171 57.1924 138.244C56.4137 138.316 55.631 138.156 54.9437 137.783C54.2564 137.409 53.6955 136.84 53.3322 136.148C52.969 135.455 52.8198 134.67 52.9036 133.893C53.0149 132.86 53.5294 131.912 54.3352 131.256C55.1411 130.6 56.1732 130.288 57.2075 130.389Z" stroke="#FAB700" stroke-width="1.69648" stroke-miterlimit="10"/>
<path d="M10.7695 15.6517L13.3411 12.8721L16.397 15.6876L19.3523 12.8721L22.0423 15.6517L25.0981 12.8721L27.8813 15.6517L31.0806 12.8721L34.0934 15.6517" stroke="#FAB700" stroke-width="1.39161" stroke-miterlimit="10"/>
<path d="M120.451 135.675L123.023 132.896L126.079 135.711L129.034 132.896L131.724 135.675L134.78 132.896L137.563 135.675L140.762 132.896L143.775 135.675" stroke="#FAB700" stroke-width="1.39161" stroke-miterlimit="10"/>
<path d="M7.33984 134.269L9.91146 131.485L12.9637 134.301L15.9191 131.485L18.609 134.269L21.6684 131.485L24.4516 134.269L27.6509 131.485L30.6637 134.269" stroke="#FAB700" stroke-width="1.39161" stroke-miterlimit="10"/>
<path d="M109.434 124.98C110.069 125.047 110.669 125.302 111.16 125.71C111.65 126.119 112.009 126.664 112.189 127.276C112.37 127.889 112.365 128.541 112.175 129.15C111.985 129.76 111.619 130.299 111.122 130.701C110.625 131.102 110.021 131.347 109.385 131.405C108.749 131.462 108.111 131.33 107.55 131.025C106.989 130.72 106.532 130.255 106.235 129.69C105.938 129.125 105.816 128.484 105.883 127.849C105.928 127.428 106.055 127.019 106.258 126.647C106.461 126.274 106.735 125.946 107.064 125.679C107.394 125.413 107.773 125.214 108.18 125.094C108.586 124.974 109.012 124.935 109.434 124.98Z" stroke="#FAB700" stroke-width="1.39161" stroke-miterlimit="10"/>
<path d="M139.701 24.8475C140.336 24.9156 140.936 25.1703 141.426 25.5794C141.916 25.9885 142.273 26.5337 142.454 27.146C142.634 27.7583 142.628 28.4103 142.438 29.0195C142.248 29.6287 141.881 30.1679 141.384 30.5688C140.888 30.9697 140.284 31.2144 139.648 31.2719C139.012 31.3294 138.374 31.1972 137.813 30.892C137.253 30.5868 136.795 30.1222 136.499 29.5571C136.202 28.9919 136.08 28.3515 136.147 27.7168C136.192 27.2949 136.319 26.886 136.522 26.5134C136.725 26.1408 136.999 25.8119 137.329 25.5454C137.659 25.2789 138.039 25.0801 138.446 24.9603C138.853 24.8406 139.279 24.8023 139.701 24.8475Z" stroke="#FAB700" stroke-width="1.39161" stroke-miterlimit="10"/>
<path d="M8.65632 27.7313C9.29093 27.7994 9.89111 28.0541 10.381 28.4632C10.8709 28.8723 11.2285 29.4175 11.4087 30.0298C11.5888 30.6421 11.5834 31.294 11.3931 31.9033C11.2028 32.5125 10.8362 33.0516 10.3396 33.4526C9.84293 33.8535 9.23859 34.0981 8.60294 34.1557C7.96728 34.2132 7.32883 34.081 6.76829 33.7758C6.20775 33.4706 5.75027 33.006 5.45368 32.4409C5.15709 31.8757 5.03469 31.2353 5.10197 30.6006C5.14669 30.1787 5.27413 29.7698 5.47701 29.3972C5.6799 29.0246 5.95424 28.6957 6.28435 28.4292C6.61446 28.1627 6.99387 27.9639 7.40087 27.8441C7.80787 27.7244 8.23449 27.6861 8.65632 27.7313Z" stroke="#FAB700" stroke-width="1.39161" stroke-miterlimit="10"/>
<path d="M51.2832 8.94149L51.2868 0.975586" stroke="#FAB700" stroke-width="1.39161" stroke-miterlimit="10"/>
<path d="M47.4492 5.1612L54.9094 4.72363" stroke="#FAB700" stroke-width="1.39161" stroke-miterlimit="10"/>
<path d="M143.51 13.3852V5.42285" stroke="#FAB700" stroke-width="1.39161" stroke-miterlimit="10"/>
<path d="M139.676 9.60847L147.136 9.1709" stroke="#FAB700" stroke-width="1.39161" stroke-miterlimit="10"/>
<path d="M139.445 125.328L139.449 117.365" stroke="#FAB700" stroke-width="1.39161" stroke-miterlimit="10"/>
<path d="M135.615 121.551L143.072 121.113" stroke="#FAB700" stroke-width="1.39161" stroke-miterlimit="10"/>
<path d="M28.9609 121.457V113.495" stroke="#FAB700" stroke-width="1.39161" stroke-miterlimit="10"/>
<path d="M25.125 117.681L32.5852 117.243" stroke="#FAB700" stroke-width="1.39161" stroke-miterlimit="10"/>
<path d="M66.9606 55.5603C66.764 50.3903 64.5721 45.4975 60.8452 41.909C57.1183 38.3205 52.1461 36.3154 46.9723 36.3145H46.4559C32.5075 36.6731 23.6054 51.285 29.24 64.0427C32.0125 70.3049 36.0008 73.6226 38.4577 83.371C45.5987 88.1233 45.0499 87.0258 56.5486 84.3071C58.1913 72.2991 66.9499 65.0577 66.9499 56.3314C66.9682 56.0748 66.9718 55.8173 66.9606 55.5603Z" fill="#FAB700"/>
<path d="M40.6445 89.418V95.5906C40.6445 97.4879 41.8783 99.0265 43.3955 99.0265H51.6447C53.1619 99.0265 54.3921 97.4879 54.3921 95.5906V89.418H40.6445Z" fill="#A6A9AC"/>
<path d="M40.6445 89.418V95.5906C40.6445 97.4879 41.8783 99.0265 43.3955 99.0265H47.4735V89.418H40.6445Z" fill="#FAB700"/>
<path d="M54.4004 95.5906V89.418H47.4746V99.0301H51.653C53.1702 99.0301 54.4004 97.4879 54.4004 95.5906Z" fill="#FAB700"/>
<path d="M37.2207 81.8438V91.8576C37.2207 92.7686 37.5821 93.6424 38.2256 94.2872C38.8691 94.9321 39.7421 95.2953 40.6531 95.2972H54.3899C55.3018 95.2962 56.1762 94.9336 56.821 94.2887C57.4658 93.6439 57.8285 92.7696 57.8295 91.8576V81.8438H37.2207Z" fill="#FAB700"/>
<path d="M36.6426 91.8857V94.7945C36.6426 95.3468 38.2709 95.7952 40.2722 95.7952H54.7945C56.7994 95.7952 58.4278 95.3468 58.4278 94.7945V91.8857H36.6426Z" fill="#040415"/>
<path d="M36.6426 86.477V83.0231C36.6426 82.3668 38.2709 81.8359 40.2722 81.8359H54.7945C56.7994 81.8359 58.4278 82.3668 58.4278 83.0231V86.477H36.6426Z" fill="#040415"/>
<path d="M36.6426 89.6007V88.5032C36.6426 88.2952 38.2709 88.1445 40.2722 88.1445H54.7945C56.7994 88.1445 58.4278 88.3131 58.4278 88.5032V89.6007H36.6426Z" fill="#040415"/>
<path d="M48.113 30.0669V26.0607C48.113 24.8878 46.291 24.8842 46.291 26.0607V30.0669C46.291 31.2397 48.113 31.2397 48.113 30.0669Z" fill="#FAB700"/>
<path d="M59.479 32.5128L62.0362 29.2418C62.1996 29.0665 62.2904 28.8358 62.2904 28.5962C62.2904 28.3566 62.1996 28.1258 62.0362 27.9506C61.8641 27.7825 61.633 27.6885 61.3924 27.6885C61.1518 27.6885 60.9208 27.7825 60.7486 27.9506L58.1914 31.2431C58.0282 31.4178 57.9375 31.6479 57.9375 31.8869C57.9375 32.1259 58.0282 32.356 58.1914 32.5307C58.3626 32.7004 58.594 32.7957 58.8352 32.7957C59.0763 32.7957 59.3077 32.7004 59.479 32.5307V32.5128Z" fill="#FAB700"/>
<path d="M33.9876 28.7321L35.8598 32.351C36.3978 33.3911 37.9723 32.4693 37.4343 31.4292C36.8078 30.2337 36.1826 29.0286 35.5585 27.8139C35.0205 26.7738 33.4496 27.6919 33.9876 28.7321Z" fill="#FAB700"/>
<path d="M67.7315 40.0155L72.057 37.3901C73.0577 36.7804 72.1431 35.2059 71.1352 35.8156L66.8098 38.441C65.8091 39.0507 66.7237 40.6253 67.7315 40.0155Z" fill="#FAB700"/>
<path d="M29.1958 36.7876C28.1479 35.874 27.0511 35.018 25.9105 34.2232C24.9456 33.5525 24.0346 35.1306 24.9923 35.7977C26.0059 36.502 26.9794 37.2623 27.9082 38.0752C28.7905 38.8427 30.0817 37.5587 29.1958 36.7876Z" fill="#FAB700"/>
<path d="M70.515 48.8181H75.6152C76.788 48.8181 76.7916 46.9961 75.6152 46.9961H70.515C69.3458 46.9961 69.3422 48.8181 70.515 48.8181Z" fill="#FAB700"/>
<path d="M24.9795 47.0244H19.8829C18.7101 47.0244 18.7065 48.8464 19.8829 48.8464H24.9795C26.1523 48.8464 26.1559 47.0244 24.9795 47.0244Z" fill="#FAB700"/>
<path d="M47.2597 72.3779C56.2171 72.3779 63.4785 65.1165 63.4785 56.1592C63.4785 47.2018 56.2171 39.9404 47.2597 39.9404C38.3024 39.9404 31.041 47.2018 31.041 56.1592C31.041 65.1165 38.3024 72.3779 47.2597 72.3779Z" fill="#FFF0B3"/>
<path d="M54.669 62.4463C54.5503 62.4443 54.4337 62.4148 54.3283 62.3603H54.2745C53.2415 62.2778 51.9109 61.4851 51.1792 60.5167C50.9759 60.2439 50.8016 59.9506 50.6591 59.6416C53.1698 57.5183 53.7221 55.3376 53.8118 54.1182C53.9158 52.7015 53.2953 51.1162 51.9073 50.8185C50.6591 50.5495 49.5473 51.5035 49.1312 52.5365C48.7152 53.5694 48.8156 54.6526 48.8981 55.621C48.9565 56.8864 49.1734 58.1396 49.5437 59.3511C49.0926 59.6926 48.6219 60.0076 48.1341 60.2944C47.7404 60.5675 47.2862 60.741 46.8107 60.8001H46.8071C46.3317 60.7405 45.8776 60.567 45.4836 60.2944C44.9964 60.0067 44.5258 59.6918 44.0741 59.3511C44.4438 58.1393 44.6618 56.8864 44.7233 55.621C44.8058 54.6526 44.899 53.5587 44.4901 52.5365C44.0812 51.5143 42.9586 50.5495 41.7105 50.8185C40.3225 51.1162 39.702 52.7015 39.806 54.1182C39.8957 55.352 40.4588 57.5183 42.9622 59.6416C42.8185 59.9507 42.643 60.244 42.4386 60.5167C41.7213 61.4851 40.3763 62.2778 39.3433 62.3603C39.1011 62.3817 38.857 62.3536 38.626 62.2778H38.5076C38.1035 62.2648 37.7191 62.0995 37.4316 61.8151L37.6181 62.5324L37.507 62.6472C37.5634 62.7024 37.6233 62.7539 37.6863 62.8014L42.5928 81.9648L43.4751 81.7388L38.7408 63.2462C38.8844 63.268 39.0295 63.2788 39.1747 63.2784H39.4294C40.8891 63.1637 42.4242 62.0805 43.1882 61.0727C43.3873 60.8058 43.5637 60.5226 43.7154 60.2262C44.1381 60.5352 44.5762 60.8225 45.0281 61.087C45.3773 61.3077 45.7534 61.4825 46.1472 61.6071C46.1472 61.625 46.1472 61.6393 46.1472 61.6537C46.3193 61.686 46.4664 61.7039 46.5775 61.7147C46.6887 61.7254 46.721 61.7147 46.7927 61.7147H46.8788C46.9506 61.7147 47.0223 61.7147 47.094 61.7147C47.1658 61.7147 47.3558 61.686 47.5244 61.6537C47.5225 61.6382 47.5225 61.6226 47.5244 61.6071C47.9177 61.4811 48.2936 61.3064 48.6434 61.087C49.124 60.8037 49.558 60.5167 49.9561 60.2262C50.1065 60.5234 50.283 60.8066 50.4834 61.0727C51.2437 62.0805 52.7824 63.1637 54.2422 63.2784C54.3282 63.2784 54.4107 63.2784 54.4968 63.2784C54.7579 63.279 55.0177 63.2415 55.2679 63.1672L50.5372 81.7424L51.4195 81.9648L56.6058 61.6035L56.2937 61.5246C56.1265 61.8063 55.8887 62.0395 55.6037 62.2011C55.3188 62.3628 54.9966 62.4473 54.669 62.4463ZM43.7836 55.5385C43.7277 56.6119 43.5618 57.6767 43.2886 58.7162C41.255 56.8835 40.778 55.0866 40.7098 54.0536C40.6417 53.0207 41.0254 51.9017 41.8862 51.7223C41.9595 51.7081 42.034 51.7009 42.1086 51.7008C42.7506 51.7008 43.3711 52.2747 43.615 52.8844C43.9378 53.677 43.8589 54.6562 43.7836 55.5206V55.5385ZM50.3112 58.7162C50.0415 57.676 49.8757 56.6115 49.8163 55.5385C49.7445 54.6741 49.6585 53.695 49.9884 52.8772C50.2323 52.2675 50.8528 51.6936 51.4948 51.6936C51.5683 51.6937 51.6415 51.7009 51.7136 51.7151C52.578 51.9016 52.9653 53.0565 52.8936 54.0465C52.8219 55.0364 52.3484 56.8655 50.3112 58.6983V58.7162Z" fill="#E1A500"/>
<path d="M80.6844 67.1576C81.2448 67.1576 81.6511 67.0222 81.9033 66.7513C82.1602 66.4804 82.2886 66.0181 82.2886 65.3643V61.8197H84.215V65.3713C84.1683 66.4874 83.8694 67.3374 83.3184 67.9212C82.786 68.4816 82.0224 68.7735 81.0277 68.7968H76.4744C75.1107 68.7968 74.0996 68.4536 73.4411 67.7671C72.8247 67.1366 72.5165 66.2166 72.5165 65.007V63.0946H74.3448V65C74.3448 65.4857 74.4148 65.8803 74.5549 66.1839C74.695 66.5155 74.9192 66.7606 75.2274 66.9194C75.5357 67.0782 75.9513 67.1576 76.4744 67.1576H80.6844ZM76.8666 62.7514C76.6051 62.7514 76.381 62.6603 76.1941 62.4782C76.0073 62.2914 75.9139 62.0695 75.9139 61.8127C75.9139 61.5512 76.0073 61.3293 76.1941 61.1472C76.381 60.9604 76.6051 60.867 76.8666 60.867C77.1328 60.867 77.3593 60.9604 77.5461 61.1472C77.7329 61.3293 77.8263 61.5512 77.8263 61.8127C77.8263 62.0742 77.7306 62.296 77.5391 62.4782C77.3523 62.6603 77.1282 62.7514 76.8666 62.7514ZM79.3955 62.7514C79.134 62.7514 78.9098 62.6603 78.723 62.4782C78.5362 62.2914 78.4428 62.0695 78.4428 61.8127C78.4428 61.5512 78.5362 61.3293 78.723 61.1472C78.9098 60.9604 79.134 60.867 79.3955 60.867C79.6617 60.867 79.8882 60.9604 80.075 61.1472C80.2618 61.3293 80.3552 61.5512 80.3552 61.8127C80.3552 62.0742 80.2595 62.296 80.068 62.4782C79.8812 62.6603 79.657 62.7514 79.3955 62.7514ZM89.4128 68.7968C88.3481 68.7968 87.5401 68.5049 86.9891 67.9212C86.438 67.3374 86.1625 66.4828 86.1625 65.3573L86.1274 60.93V58.128H88.0468V60.93L88.0188 65.3573C88.0188 66.0158 88.1449 66.4804 88.3971 66.7513C88.6493 67.0222 89.0579 67.1576 89.623 67.1576H89.9312L90.3165 67.2977V68.6567L89.9312 68.7968H89.4128ZM95.3322 67.3187V68.6637L95.0169 68.7968H94.4635C93.9872 68.7968 93.5108 68.6544 93.0345 68.3695C92.5581 68.0799 92.1962 67.6433 91.9487 67.0595H92.4741C92.2779 67.634 91.9767 68.0683 91.5704 68.3625C91.1641 68.652 90.5734 68.7968 89.7981 68.7968H89.5669L89.2517 68.6637V67.2907L89.5669 67.1576H89.7981C90.3118 67.1576 90.6994 67.0198 90.961 66.7443C91.2225 66.4641 91.3369 66.0298 91.3042 65.4413V62.5202H93.2797V65.4413C93.247 66.0298 93.3614 66.4641 93.6229 66.7443C93.8844 67.0198 94.2721 67.1576 94.7858 67.1576H95.0239L95.3322 67.3187ZM90.8699 71.5638C90.6084 71.5638 90.3842 71.4704 90.1974 71.2836C90.0106 71.1015 89.9172 70.882 89.9172 70.6251C89.9172 70.3636 90.0106 70.1395 90.1974 69.9527C90.3842 69.7705 90.6084 69.6795 90.8699 69.6795C91.1361 69.6795 91.3626 69.7705 91.5494 69.9527C91.7362 70.1395 91.8296 70.3636 91.8296 70.6251C91.8296 70.8867 91.7339 71.1085 91.5424 71.2906C91.3556 71.4728 91.1314 71.5638 90.8699 71.5638ZM93.3988 71.5638C93.1372 71.5638 92.9131 71.4704 92.7263 71.2836C92.5395 71.1015 92.4461 70.882 92.4461 70.6251C92.4461 70.3636 92.5395 70.1395 92.7263 69.9527C92.9131 69.7705 93.1372 69.6795 93.3988 69.6795C93.665 69.6795 93.8915 69.7705 94.0783 69.9527C94.2651 70.1395 94.3585 70.3636 94.3585 70.6251C94.3585 70.8867 94.2627 71.1085 94.0713 71.2906C93.8844 71.4728 93.6603 71.5638 93.3988 71.5638ZM104.033 65.6515C104.033 65.1658 103.909 64.7992 103.661 64.5517C103.414 64.2995 103.035 64.2271 102.526 64.3345L97.6369 65.4974V67.1576H102.421C102.982 67.1576 103.39 67.0292 103.647 66.7723C103.904 66.5155 104.033 66.1419 104.033 65.6515ZM95.7805 67.1576V62.5202H97.6789V63.6831L102.421 62.5272C103.533 62.3171 104.387 62.5412 104.985 63.1997C105.588 63.8582 105.889 64.6755 105.889 65.6515C105.889 66.6462 105.59 67.4191 104.992 67.9702C104.399 68.5213 103.542 68.7968 102.421 68.7968H94.6667L94.3515 68.6637V67.2907L94.6667 67.1576H95.7805ZM112.18 67.1576L112.173 65.6585C112.173 64.7805 112.042 64.1617 111.78 63.8021C111.523 63.4425 111.157 63.2628 110.68 63.2628C110.396 63.2628 110.141 63.3421 109.917 63.5009C109.693 63.655 109.515 63.8792 109.384 64.1734C109.254 64.463 109.188 64.8015 109.188 65.1892C109.188 65.8663 109.342 66.3637 109.651 66.6813C109.964 66.9988 110.454 67.1576 111.122 67.1576H112.18ZM113.903 68.7968C113.73 69.6608 113.384 70.3473 112.866 70.8563C112.091 71.6222 110.912 72.0052 109.328 72.0052H107.416V70.2959H109.349C110.19 70.2959 110.825 70.1465 111.255 69.8476C111.684 69.5487 111.941 69.1984 112.025 68.7968H111.122C109.87 68.7968 108.924 68.4956 108.285 67.8931C107.65 67.286 107.332 66.3847 107.332 65.1892C107.332 64.5073 107.474 63.8955 107.759 63.3538C108.044 62.8121 108.441 62.3894 108.95 62.0859C109.459 61.7777 110.036 61.6235 110.68 61.6235C111.334 61.6235 111.916 61.7777 112.425 62.0859C112.934 62.3894 113.328 62.8284 113.609 63.4029C113.889 63.9773 114.029 64.6451 114.029 65.4063V67.1576H115.465L115.78 67.2907V68.6637L115.465 68.7968H113.903ZM118.673 67.9212C118.122 68.5049 117.317 68.7968 116.257 68.7968H115.108L114.792 68.6637V67.2907L115.108 67.1576H115.346C116.373 67.1576 117.013 67.0222 117.265 66.7513C117.522 66.4804 117.651 66.0181 117.651 65.3643V61.8197H119.577V65.3713C119.53 66.4874 119.229 67.3374 118.673 67.9212ZM117.062 60.6638C116.801 60.6638 116.576 60.5728 116.39 60.3906C116.203 60.2038 116.109 59.982 116.109 59.7252C116.109 59.4636 116.203 59.2418 116.39 59.0597C116.576 58.8729 116.801 58.7795 117.062 58.7795C117.328 58.7795 117.555 58.8729 117.742 59.0597C117.928 59.2418 118.022 59.4636 118.022 59.7252C118.022 59.9867 117.926 60.2085 117.735 60.3906C117.548 60.5728 117.324 60.6638 117.062 60.6638ZM119.591 60.6638C119.329 60.6638 119.105 60.5728 118.918 60.3906C118.732 60.2038 118.638 59.982 118.638 59.7252C118.638 59.4636 118.732 59.2418 118.918 59.0597C119.105 58.8729 119.329 58.7795 119.591 58.7795C119.857 58.7795 120.084 58.8729 120.27 59.0597C120.457 59.2418 120.551 59.4636 120.551 59.7252C120.551 59.9867 120.455 60.2085 120.263 60.3906C120.077 60.5728 119.852 60.6638 119.591 60.6638Z" fill="#F9FBFC"/>
<path d="M76.4183 79.4985L74.6474 79.2743C74.0422 79.1958 73.577 79.2986 73.252 79.5825C72.927 79.8665 72.7868 80.2345 72.8317 80.6865C72.8541 80.9779 72.9512 81.2264 73.1231 81.4319C73.295 81.6374 73.5229 81.7868 73.8068 81.8802C74.0907 81.9736 74.412 82.0035 74.7707 81.9699C75.3461 81.9176 75.7757 81.7289 76.0596 81.4039C76.3436 81.0751 76.4631 80.6137 76.4183 80.0196V79.4985ZM76.4631 82.2333C76.0484 82.6554 75.5123 82.8945 74.8548 82.9506C74.3392 82.9954 73.8759 82.9319 73.4649 82.76C73.054 82.5882 72.7215 82.3304 72.4674 81.9867C72.2134 81.643 72.0658 81.2357 72.0247 80.765C71.9836 80.2905 72.0564 79.8627 72.2433 79.4816C72.4301 79.0968 72.7233 78.7849 73.1231 78.5458C73.5229 78.3029 73.9973 78.217 74.5465 78.288L76.4071 78.5233V77.9461H77.2141V80.1822C77.2141 80.3615 77.2141 80.6492 77.2141 81.0452C77.2141 81.5832 77.3467 81.9904 77.612 82.2669C77.8772 82.5434 78.2509 82.6816 78.7328 82.6816H78.772L78.9177 82.7376V83.4381L78.772 83.4886H78.475C77.9893 83.4886 77.5784 83.3858 77.2421 83.1804C76.9133 82.9861 76.6537 82.6704 76.4631 82.2333ZM74.2439 77.2904C74.0795 77.2904 73.9394 77.2344 73.8236 77.1223C73.7078 77.0065 73.6499 76.8683 73.6499 76.7076C73.6499 76.5432 73.7078 76.405 73.8236 76.2929C73.9394 76.1771 74.0795 76.1192 74.2439 76.1192C74.412 76.1192 74.554 76.1771 74.6698 76.2929C74.7856 76.405 74.8436 76.5432 74.8436 76.7076C74.8436 76.8683 74.7838 77.0065 74.6642 77.1223C74.5484 77.2344 74.4083 77.2904 74.2439 77.2904ZM75.8747 77.2904C75.7103 77.2904 75.5702 77.2344 75.4544 77.1223C75.3386 77.0065 75.2807 76.8683 75.2807 76.7076C75.2807 76.5432 75.3386 76.405 75.4544 76.2929C75.5702 76.1771 75.7103 76.1192 75.8747 76.1192C76.0428 76.1192 76.1848 76.1771 76.3006 76.2929C76.4164 76.405 76.4744 76.5432 76.4744 76.7076C76.4744 76.8683 76.4146 77.0065 76.295 77.1223C76.1792 77.2344 76.0391 77.2904 75.8747 77.2904ZM81.1818 79.7787L81.0641 80.2886C80.9334 80.8677 80.9857 81.3403 81.221 81.7065C81.4564 82.0689 81.8562 82.3155 82.4203 82.4462C82.7678 82.5247 83.0891 82.5378 83.3842 82.4854C83.6794 82.4294 83.9259 82.3117 84.124 82.1324C84.322 81.9531 84.4527 81.7196 84.5162 81.4319C84.6171 80.991 84.5256 80.6081 84.2416 80.283C83.9614 79.958 83.5168 79.7917 82.9079 79.7843L81.1818 79.7787ZM79.9601 81.7849L80.5654 78.8484L83.1376 78.826C83.698 78.826 84.1576 78.9735 84.5162 79.2687C84.8786 79.5601 85.1252 79.9094 85.256 80.3167C85.3905 80.7202 85.4054 81.1535 85.3008 81.6168C85.1962 82.0763 84.9945 82.4612 84.6956 82.7713C84.4004 83.0776 84.0362 83.2887 83.6028 83.4045C83.1694 83.5166 82.7043 83.5147 82.2074 83.3989C81.4601 83.2308 80.9408 82.9001 80.6494 82.407C80.4738 82.8067 80.2422 83.0944 79.9545 83.27C79.7154 83.4157 79.4109 83.4886 79.041 83.4886H78.6151L78.475 83.4381V82.732L78.6207 82.6816C78.7776 82.6853 78.9271 82.6722 79.0691 82.6424C79.353 82.5676 79.5697 82.4406 79.7191 82.2613C79.8051 82.1641 79.8854 82.0054 79.9601 81.7849ZM89.1004 83.4886C88.3233 83.4886 87.7367 83.2812 87.3407 82.8665C86.9484 82.4481 86.7523 81.8223 86.7523 80.9891L86.7243 77.4417V75.4579H87.7554V77.4417L87.733 80.9891C87.733 81.5832 87.8582 82.0147 88.1085 82.2837C88.3625 82.549 88.7492 82.6816 89.2685 82.6816H89.319L89.4591 82.732V83.4381L89.319 83.4886H89.1004ZM91.0787 82.6816C90.8358 82.4275 90.6583 82.1996 90.5463 81.9979C90.3146 81.5309 90.1988 81.0826 90.1988 80.6529C90.1988 80.1261 90.324 79.6554 90.5743 79.2407C90.8283 78.826 91.1814 78.5028 91.6335 78.2712C92.0893 78.0395 92.6067 77.9237 93.1858 77.9237C93.5557 77.9237 93.961 77.9779 94.4019 78.0862L94.2058 79.0781C93.9218 78.9586 93.6155 78.8988 93.2867 78.8988C92.8608 78.8988 92.4984 78.9623 92.1995 79.0894C91.9006 79.2164 91.6559 79.4163 91.4653 79.689C91.2748 79.958 91.1795 80.2793 91.1795 80.6529C91.1795 81.0377 91.3122 81.4095 91.5774 81.7681C91.8427 82.1268 92.2088 82.3696 92.6758 82.4967C93.1466 82.6199 93.6752 82.6816 94.2618 82.6816H95.4555V83.4886H89.1284L88.9883 83.4381V82.732L89.1284 82.6816H91.0787Z" fill="#F9FBFC"/>
</g>
<defs>
<clipPath id="clip0_1066_18244">
<rect width="150" height="156.886" fill="white" transform="translate(0.5)"/>
</clipPath>
</defs>
</svg>
